<?xml version="1.0"?>
<svg xmlns="http://www.w3.org/2000/svg" width="500" height="420" version="1.0" id="ezcGraph"><defs/><g id="ezcGraphChart" color-rendering="optimizeQuality" shape-rendering="geometricPrecision" text-rendering="optimizeLegibility"><path d=" M 0.0000,420.0000 L 0.0000,0.0000 L 500.0000,0.0000 L 500.0000,420.0000 L 0.0000,420.0000 z " style="fill: #eeeeec; fill-opacity: 1.00; stroke: none;" id="ezcGraphPolygon_1"/><path d=" M 0.0000,42.0000 L 0.0000,0.0000 L 500.0000,0.0000 L 500.0000,42.0000 L 0.0000,42.0000 z " style="fill: #000000; fill-opacity: 0.00; stroke: none;" id="ezcGraphPolygon_2"/><path d=" M 0.0000,420.0000 L 0.0000,42.0000 L 100.0000,42.0000 L 100.0000,420.0000 L 0.0000,420.0000 z " style="fill: #000000; fill-opacity: 0.00; stroke: none;" id="ezcGraphPolygon_4"/><path d=" M 2.0000,58.0000 L 2.0000,44.0000 L 16.0000,44.0000 L 16.0000,58.0000 L 2.0000,58.0000 z " style="fill: #3465a4; fill-opacity: 1.00; stroke: none; cursor: pointer;" id="ezcGraphPolygon_5" onclick="top.location = 'http://127.0.0.1/linux-hardware.org/index.php?view=computers&amp;f=net_kind&amp;v=Ethernet&amp;p=-1'"/><path d=" M 2.0000,76.0000 L 2.0000,62.0000 L 16.0000,62.0000 L 16.0000,76.0000 L 2.0000,76.0000 z " style="fill: #4e9a06; fill-opacity: 1.00; stroke: none; cursor: pointer;" id="ezcGraphPolygon_7" onclick="top.location = 'http://127.0.0.1/linux-hardware.org/index.php?view=computers&amp;f=net_kind&amp;v=WiFi&amp;p=-1'"/><path d=" M 2.0000,94.0000 L 2.0000,80.0000 L 16.0000,80.0000 L 16.0000,94.0000 L 2.0000,94.0000 z " style="fill: #cc0000; fill-opacity: 1.00; stroke: none; cursor: pointer;" id="ezcGraphPolygon_9" onclick="top.location = 'http://127.0.0.1/linux-hardware.org/index.php?view=computers&amp;f=net_kind&amp;v=Modem&amp;p=-1'"/><path d=" M 2.0000,112.0000 L 2.0000,98.0000 L 16.0000,98.0000 L 16.0000,112.0000 L 2.0000,112.0000 z " style="fill: #edd400; fill-opacity: 1.00; stroke: none; cursor: pointer;" id="ezcGraphPolygon_11" onclick="top.location = 'http://127.0.0.1/linux-hardware.org/index.php?view=computers&amp;f=net_kind&amp;v=&amp;p=-1'"/><path d=" M 100.0000,382.2000 L 500.0000,382.2000" style="fill: none; stroke: #2e3436; stroke-width: 1; stroke-opacity: 1.00; stroke-linecap: round; stroke-linejoin: round;" id="ezcGraphLine_13"/><path d=" M 492.0000,378.2000 L 500.0000,382.2000 L 492.0000,386.2000 L 492.0000,378.2000 z " style="fill: #2e3436; fill-opacity: 1.00; stroke: none;" id="ezcGraphPolygon_14"/><path d=" M 185.7143,79.8000 L 185.7143,382.2000" style="fill: none; stroke: #000000; stroke-width: 1; stroke-opacity: 0.00; stroke-linecap: round; stroke-linejoin: round;" id="ezcGraphLine_17"/><path d=" M 185.7143,379.2000 L 185.7143,385.2000" style="fill: none; stroke: #2e3436; stroke-width: 1; stroke-opacity: 1.00; stroke-linecap: round; stroke-linejoin: round;" id="ezcGraphLine_18"/><path d=" M 231.4286,79.8000 L 231.4286,382.2000" style="fill: none; stroke: #000000; stroke-width: 1; stroke-opacity: 0.00; stroke-linecap: round; stroke-linejoin: round;" id="ezcGraphLine_20"/><path d=" M 231.4286,379.2000 L 231.4286,385.2000" style="fill: none; stroke: #2e3436; stroke-width: 1; stroke-opacity: 1.00; stroke-linecap: round; stroke-linejoin: round;" id="ezcGraphLine_21"/><path d=" M 277.1429,79.8000 L 277.1429,382.2000" style="fill: none; stroke: #000000; stroke-width: 1; stroke-opacity: 0.00; stroke-linecap: round; stroke-linejoin: round;" id="ezcGraphLine_23"/><path d=" M 277.1429,379.2000 L 277.1429,385.2000" style="fill: none; stroke: #2e3436; stroke-width: 1; stroke-opacity: 1.00; stroke-linecap: round; stroke-linejoin: round;" id="ezcGraphLine_24"/><path d=" M 322.8571,79.8000 L 322.8571,382.2000" style="fill: none; stroke: #000000; stroke-width: 1; stroke-opacity: 0.00; stroke-linecap: round; stroke-linejoin: round;" id="ezcGraphLine_26"/><path d=" M 322.8571,379.2000 L 322.8571,385.2000" style="fill: none; stroke: #2e3436; stroke-width: 1; stroke-opacity: 1.00; stroke-linecap: round; stroke-linejoin: round;" id="ezcGraphLine_27"/><path d=" M 368.5714,79.8000 L 368.5714,382.2000" style="fill: none; stroke: #000000; stroke-width: 1; stroke-opacity: 0.00; stroke-linecap: round; stroke-linejoin: round;" id="ezcGraphLine_29"/><path d=" M 368.5714,379.2000 L 368.5714,385.2000" style="fill: none; stroke: #2e3436; stroke-width: 1; stroke-opacity: 1.00; stroke-linecap: round; stroke-linejoin: round;" id="ezcGraphLine_30"/><path d=" M 414.2857,79.8000 L 414.2857,382.2000" style="fill: none; stroke: #000000; stroke-width: 1; stroke-opacity: 0.00; stroke-linecap: round; stroke-linejoin: round;" id="ezcGraphLine_32"/><path d=" M 414.2857,379.2000 L 414.2857,385.2000" style="fill: none; stroke: #2e3436; stroke-width: 1; stroke-opacity: 1.00; stroke-linecap: round; stroke-linejoin: round;" id="ezcGraphLine_33"/><path d=" M 460.0000,79.8000 L 460.0000,382.2000" style="fill: none; stroke: #000000; stroke-width: 1; stroke-opacity: 0.00; stroke-linecap: round; stroke-linejoin: round;" id="ezcGraphLine_35"/><path d=" M 460.0000,379.2000 L 460.0000,385.2000" style="fill: none; stroke: #2e3436; stroke-width: 1; stroke-opacity: 1.00; stroke-linecap: round; stroke-linejoin: round;" id="ezcGraphLine_36"/><path d=" M 140.0000,420.0000 L 140.0000,42.0000" style="fill: none; stroke: #2e3436; stroke-width: 1; stroke-opacity: 1.00; stroke-linecap: round; stroke-linejoin: round;" id="ezcGraphLine_37"/><path d=" M 136.0000,50.0000 L 140.0000,42.0000 L 144.0000,50.0000 L 136.0000,50.0000 z " style="fill: #2e3436; fill-opacity: 1.00; stroke: none;" id="ezcGraphPolygon_38"/><path d=" M 140.0000,231.0000 L 460.0000,231.0000" style="fill: none; stroke: #000000; stroke-width: 1; stroke-opacity: 0.00; stroke-linecap: round; stroke-linejoin: round;" id="ezcGraphLine_41"/><path d=" M 140.0000,231.0000 L 143.0000,231.0000" style="fill: none; stroke: #2e3436; stroke-width: 1; stroke-opacity: 1.00; stroke-linecap: round; stroke-linejoin: round;" id="ezcGraphLine_42"/><path d=" M 140.0000,79.8000 L 460.0000,79.8000" style="fill: none; stroke: #000000; stroke-width: 1; stroke-opacity: 0.00; stroke-linecap: round; stroke-linejoin: round;" id="ezcGraphLine_44"/><path d=" M 140.0000,79.8000 L 143.0000,79.8000" style="fill: none; stroke: #2e3436; stroke-width: 1; stroke-opacity: 1.00; stroke-linecap: round; stroke-linejoin: round;" id="ezcGraphLine_45"/><path d=" M 162.8571,80.4593 L 162.8571,80.4593" style="fill: none; stroke: #3465a4; stroke-width: 1; stroke-opacity: 1.00; stroke-linecap: round; stroke-linejoin: round;" id="ezcGraphLine_47"/><path d=" M 162.8571,80.4593 L 208.5714,79.8000" style="fill: none; stroke: #3465a4; stroke-width: 1; stroke-opacity: 1.00; stroke-linecap: round; stroke-linejoin: round;" id="ezcGraphLine_49"/><path d=" M 208.5714,79.8000 L 254.2857,92.3267" style="fill: none; stroke: #3465a4; stroke-width: 1; stroke-opacity: 1.00; stroke-linecap: round; stroke-linejoin: round;" id="ezcGraphLine_51"/><path d=" M 254.2857,92.3267 L 300.0000,114.5233" style="fill: none; stroke: #3465a4; stroke-width: 1; stroke-opacity: 1.00; stroke-linecap: round; stroke-linejoin: round;" id="ezcGraphLine_53"/><path d=" M 300.0000,114.5233 L 345.7143,151.2244" style="fill: none; stroke: #3465a4; stroke-width: 1; stroke-opacity: 1.00; stroke-linecap: round; stroke-linejoin: round;" id="ezcGraphLine_55"/><path d=" M 345.7143,151.2244 L 391.4286,135.4012" style="fill: none; stroke: #3465a4; stroke-width: 1; stroke-opacity: 1.00; stroke-linecap: round; stroke-linejoin: round;" id="ezcGraphLine_57"/><path d=" M 391.4286,135.4012 L 437.1429,136.0605" style="fill: none; stroke: #3465a4; stroke-width: 1; stroke-opacity: 1.00; stroke-linecap: round; stroke-linejoin: round;" id="ezcGraphLine_59"/><path d=" M 162.8571,131.4453 L 162.8571,131.4453" style="fill: none; stroke: #4e9a06; stroke-width: 1; stroke-opacity: 1.00; stroke-linecap: round; stroke-linejoin: round;" id="ezcGraphLine_61"/><path d=" M 162.8571,131.4453 L 208.5714,128.8081" style="fill: none; stroke: #4e9a06; stroke-width: 1; stroke-opacity: 1.00; stroke-linecap: round; stroke-linejoin: round;" id="ezcGraphLine_63"/><path d=" M 208.5714,128.8081 L 254.2857,141.9942" style="fill: none; stroke: #4e9a06; stroke-width: 1; stroke-opacity: 1.00; stroke-linecap: round; stroke-linejoin: round;" id="ezcGraphLine_65"/><path d=" M 254.2857,141.9942 L 300.0000,153.2023" style="fill: none; stroke: #4e9a06; stroke-width: 1; stroke-opacity: 1.00; stroke-linecap: round; stroke-linejoin: round;" id="ezcGraphLine_67"/><path d=" M 300.0000,153.2023 L 345.7143,186.1674" style="fill: none; stroke: #4e9a06; stroke-width: 1; stroke-opacity: 1.00; stroke-linecap: round; stroke-linejoin: round;" id="ezcGraphLine_69"/><path d=" M 345.7143,186.1674 L 391.4286,179.3547" style="fill: none; stroke: #4e9a06; stroke-width: 1; stroke-opacity: 1.00; stroke-linecap: round; stroke-linejoin: round;" id="ezcGraphLine_71"/><path d=" M 391.4286,179.3547 L 437.1429,161.9930" style="fill: none; stroke: #4e9a06; stroke-width: 1; stroke-opacity: 1.00; stroke-linecap: round; stroke-linejoin: round;" id="ezcGraphLine_73"/><path d=" M 162.8571,379.1233 L 162.8571,379.1233" style="fill: none; stroke: #cc0000; stroke-width: 1; stroke-opacity: 1.00; stroke-linecap: round; stroke-linejoin: round;" id="ezcGraphLine_75"/><path d=" M 162.8571,379.1233 L 208.5714,377.3651" style="fill: none; stroke: #cc0000; stroke-width: 1; stroke-opacity: 1.00; stroke-linecap: round; stroke-linejoin: round;" id="ezcGraphLine_77"/><path d=" M 208.5714,377.3651 L 254.2857,376.9256" style="fill: none; stroke: #cc0000; stroke-width: 1; stroke-opacity: 1.00; stroke-linecap: round; stroke-linejoin: round;" id="ezcGraphLine_79"/><path d=" M 254.2857,376.9256 L 300.0000,378.2442" style="fill: none; stroke: #cc0000; stroke-width: 1; stroke-opacity: 1.00; stroke-linecap: round; stroke-linejoin: round;" id="ezcGraphLine_81"/><path d=" M 300.0000,378.2442 L 345.7143,377.5849" style="fill: none; stroke: #cc0000; stroke-width: 1; stroke-opacity: 1.00; stroke-linecap: round; stroke-linejoin: round;" id="ezcGraphLine_83"/><path d=" M 345.7143,377.5849 L 391.4286,378.9035" style="fill: none; stroke: #cc0000; stroke-width: 1; stroke-opacity: 1.00; stroke-linecap: round; stroke-linejoin: round;" id="ezcGraphLine_85"/><path d=" M 391.4286,378.9035 L 437.1429,377.5849" style="fill: none; stroke: #cc0000; stroke-width: 1; stroke-opacity: 1.00; stroke-linecap: round; stroke-linejoin: round;" id="ezcGraphLine_87"/><path d=" M 162.8571,381.5407 L 162.8571,381.5407" style="fill: none; stroke: #edd400; stroke-width: 1; stroke-opacity: 1.00; stroke-linecap: round; stroke-linejoin: round;" id="ezcGraphLine_89"/><path d=" M 162.8571,381.5407 L 208.5714,381.1012" style="fill: none; stroke: #edd400; stroke-width: 1; stroke-opacity: 1.00; stroke-linecap: round; stroke-linejoin: round;" id="ezcGraphLine_91"/><path d=" M 208.5714,381.1012 L 254.2857,381.5407" style="fill: none; stroke: #edd400; stroke-width: 1; stroke-opacity: 1.00; stroke-linecap: round; stroke-linejoin: round;" id="ezcGraphLine_93"/><path d=" M 254.2857,381.5407 L 300.0000,381.5407" style="fill: none; stroke: #edd400; stroke-width: 1; stroke-opacity: 1.00; stroke-linecap: round; stroke-linejoin: round;" id="ezcGraphLine_95"/><path d=" M 300.0000,381.5407 L 345.7143,381.9802" style="fill: none; stroke: #edd400; stroke-width: 1; stroke-opacity: 1.00; stroke-linecap: round; stroke-linejoin: round;" id="ezcGraphLine_97"/><path d=" M 345.7143,381.9802 L 391.4286,381.7605" style="fill: none; stroke: #edd400; stroke-width: 1; stroke-opacity: 1.00; stroke-linecap: round; stroke-linejoin: round;" id="ezcGraphLine_99"/><path d=" M 391.4286,381.7605 L 437.1429,381.7605" style="fill: none; stroke: #edd400; stroke-width: 1; stroke-opacity: 1.00; stroke-linecap: round; stroke-linejoin: round;" id="ezcGraphLine_101"/><path d=" M 159.8571,83.4593 L 159.8571,77.4593 L 165.8571,77.4593 L 165.8571,83.4593 L 159.8571,83.4593 z " style="fill: #3465a4; fill-opacity: 1.00; stroke: none; cursor: pointer;" id="ezcGraphPolygon_103" onclick="top.location = 'http://127.0.0.1/linux-hardware.org/index.php?view=computers&amp;f=net_kind&amp;v=Ethernet&amp;p=-1&amp;p=86'"/><path d=" M 205.5714,82.8000 L 205.5714,76.8000 L 211.5714,76.8000 L 211.5714,82.8000 L 205.5714,82.8000 z " style="fill: #3465a4; fill-opacity: 1.00; stroke: none; cursor: pointer;" id="ezcGraphPolygon_104" onclick="top.location = 'http://127.0.0.1/linux-hardware.org/index.php?view=computers&amp;f=net_kind&amp;v=Ethernet&amp;p=-1&amp;p=87'"/><path d=" M 251.2857,95.3267 L 251.2857,89.3267 L 257.2857,89.3267 L 257.2857,95.3267 L 251.2857,95.3267 z " style="fill: #3465a4; fill-opacity: 1.00; stroke: none; cursor: pointer;" id="ezcGraphPolygon_105" onclick="top.location = 'http://127.0.0.1/linux-hardware.org/index.php?view=computers&amp;f=net_kind&amp;v=Ethernet&amp;p=-1&amp;p=88'"/><path d=" M 297.0000,117.5233 L 297.0000,111.5233 L 303.0000,111.5233 L 303.0000,117.5233 L 297.0000,117.5233 z " style="fill: #3465a4; fill-opacity: 1.00; stroke: none; cursor: pointer;" id="ezcGraphPolygon_106" onclick="top.location = 'http://127.0.0.1/linux-hardware.org/index.php?view=computers&amp;f=net_kind&amp;v=Ethernet&amp;p=-1&amp;p=89'"/><path d=" M 342.7143,154.2244 L 342.7143,148.2244 L 348.7143,148.2244 L 348.7143,154.2244 L 342.7143,154.2244 z " style="fill: #3465a4; fill-opacity: 1.00; stroke: none; cursor: pointer;" id="ezcGraphPolygon_107" onclick="top.location = 'http://127.0.0.1/linux-hardware.org/index.php?view=computers&amp;f=net_kind&amp;v=Ethernet&amp;p=-1&amp;p=90'"/><path d=" M 388.4286,138.4012 L 388.4286,132.4012 L 394.4286,132.4012 L 394.4286,138.4012 L 388.4286,138.4012 z " style="fill: #3465a4; fill-opacity: 1.00; stroke: none; cursor: pointer;" id="ezcGraphPolygon_108" onclick="top.location = 'http://127.0.0.1/linux-hardware.org/index.php?view=computers&amp;f=net_kind&amp;v=Ethernet&amp;p=-1&amp;p=91'"/><path d=" M 434.1429,139.0605 L 434.1429,133.0605 L 440.1429,133.0605 L 440.1429,139.0605 L 434.1429,139.0605 z " style="fill: #3465a4; fill-opacity: 1.00; stroke: none; cursor: pointer;" id="ezcGraphPolygon_109" onclick="top.location = 'http://127.0.0.1/linux-hardware.org/index.php?view=computers&amp;f=net_kind&amp;v=Ethernet&amp;p=-1&amp;p=92'"/><path d=" M 159.8571,134.4453 L 159.8571,128.4453 L 165.8571,128.4453 L 165.8571,134.4453 L 159.8571,134.4453 z " style="fill: #4e9a06; fill-opacity: 1.00; stroke: none; cursor: pointer;" id="ezcGraphPolygon_110" onclick="top.location = 'http://127.0.0.1/linux-hardware.org/index.php?view=computers&amp;f=net_kind&amp;v=WiFi&amp;p=-1&amp;p=86'"/><path d=" M 205.5714,131.8081 L 205.5714,125.8081 L 211.5714,125.8081 L 211.5714,131.8081 L 205.5714,131.8081 z " style="fill: #4e9a06; fill-opacity: 1.00; stroke: none; cursor: pointer;" id="ezcGraphPolygon_111" onclick="top.location = 'http://127.0.0.1/linux-hardware.org/index.php?view=computers&amp;f=net_kind&amp;v=WiFi&amp;p=-1&amp;p=87'"/><path d=" M 251.2857,144.9942 L 251.2857,138.9942 L 257.2857,138.9942 L 257.2857,144.9942 L 251.2857,144.9942 z " style="fill: #4e9a06; fill-opacity: 1.00; stroke: none; cursor: pointer;" id="ezcGraphPolygon_112" onclick="top.location = 'http://127.0.0.1/linux-hardware.org/index.php?view=computers&amp;f=net_kind&amp;v=WiFi&amp;p=-1&amp;p=88'"/><path d=" M 297.0000,156.2023 L 297.0000,150.2023 L 303.0000,150.2023 L 303.0000,156.2023 L 297.0000,156.2023 z " style="fill: #4e9a06; fill-opacity: 1.00; stroke: none; cursor: pointer;" id="ezcGraphPolygon_113" onclick="top.location = 'http://127.0.0.1/linux-hardware.org/index.php?view=computers&amp;f=net_kind&amp;v=WiFi&amp;p=-1&amp;p=89'"/><path d=" M 342.7143,189.1674 L 342.7143,183.1674 L 348.7143,183.1674 L 348.7143,189.1674 L 342.7143,189.1674 z " style="fill: #4e9a06; fill-opacity: 1.00; stroke: none; cursor: pointer;" id="ezcGraphPolygon_114" onclick="top.location = 'http://127.0.0.1/linux-hardware.org/index.php?view=computers&amp;f=net_kind&amp;v=WiFi&amp;p=-1&amp;p=90'"/><path d=" M 388.4286,182.3547 L 388.4286,176.3547 L 394.4286,176.3547 L 394.4286,182.3547 L 388.4286,182.3547 z " style="fill: #4e9a06; fill-opacity: 1.00; stroke: none; cursor: pointer;" id="ezcGraphPolygon_115" onclick="top.location = 'http://127.0.0.1/linux-hardware.org/index.php?view=computers&amp;f=net_kind&amp;v=WiFi&amp;p=-1&amp;p=91'"/><path d=" M 434.1429,164.9930 L 434.1429,158.9930 L 440.1429,158.9930 L 440.1429,164.9930 L 434.1429,164.9930 z " style="fill: #4e9a06; fill-opacity: 1.00; stroke: none; cursor: pointer;" id="ezcGraphPolygon_116" onclick="top.location = 'http://127.0.0.1/linux-hardware.org/index.php?view=computers&amp;f=net_kind&amp;v=WiFi&amp;p=-1&amp;p=92'"/><path d=" M 159.8571,382.1233 L 159.8571,376.1233 L 165.8571,376.1233 L 165.8571,382.1233 L 159.8571,382.1233 z " style="fill: #cc0000; fill-opacity: 1.00; stroke: none; cursor: pointer;" id="ezcGraphPolygon_117" onclick="top.location = 'http://127.0.0.1/linux-hardware.org/index.php?view=computers&amp;f=net_kind&amp;v=Modem&amp;p=-1&amp;p=86'"/><path d=" M 205.5714,380.3651 L 205.5714,374.3651 L 211.5714,374.3651 L 211.5714,380.3651 L 205.5714,380.3651 z " style="fill: #cc0000; fill-opacity: 1.00; stroke: none; cursor: pointer;" id="ezcGraphPolygon_118" onclick="top.location = 'http://127.0.0.1/linux-hardware.org/index.php?view=computers&amp;f=net_kind&amp;v=Modem&amp;p=-1&amp;p=87'"/><path d=" M 251.2857,379.9256 L 251.2857,373.9256 L 257.2857,373.9256 L 257.2857,379.9256 L 251.2857,379.9256 z " style="fill: #cc0000; fill-opacity: 1.00; stroke: none; cursor: pointer;" id="ezcGraphPolygon_119" onclick="top.location = 'http://127.0.0.1/linux-hardware.org/index.php?view=computers&amp;f=net_kind&amp;v=Modem&amp;p=-1&amp;p=88'"/><path d=" M 297.0000,381.2442 L 297.0000,375.2442 L 303.0000,375.2442 L 303.0000,381.2442 L 297.0000,381.2442 z " style="fill: #cc0000; fill-opacity: 1.00; stroke: none; cursor: pointer;" id="ezcGraphPolygon_120" onclick="top.location = 'http://127.0.0.1/linux-hardware.org/index.php?view=computers&amp;f=net_kind&amp;v=Modem&amp;p=-1&amp;p=89'"/><path d=" M 342.7143,380.5849 L 342.7143,374.5849 L 348.7143,374.5849 L 348.7143,380.5849 L 342.7143,380.5849 z " style="fill: #cc0000; fill-opacity: 1.00; stroke: none; cursor: pointer;" id="ezcGraphPolygon_121" onclick="top.location = 'http://127.0.0.1/linux-hardware.org/index.php?view=computers&amp;f=net_kind&amp;v=Modem&amp;p=-1&amp;p=90'"/><path d=" M 388.4286,381.9035 L 388.4286,375.9035 L 394.4286,375.9035 L 394.4286,381.9035 L 388.4286,381.9035 z " style="fill: #cc0000; fill-opacity: 1.00; stroke: none; cursor: pointer;" id="ezcGraphPolygon_122" onclick="top.location = 'http://127.0.0.1/linux-hardware.org/index.php?view=computers&amp;f=net_kind&amp;v=Modem&amp;p=-1&amp;p=91'"/><path d=" M 434.1429,380.5849 L 434.1429,374.5849 L 440.1429,374.5849 L 440.1429,380.5849 L 434.1429,380.5849 z " style="fill: #cc0000; fill-opacity: 1.00; stroke: none; cursor: pointer;" id="ezcGraphPolygon_123" onclick="top.location = 'http://127.0.0.1/linux-hardware.org/index.php?view=computers&amp;f=net_kind&amp;v=Modem&amp;p=-1&amp;p=92'"/><path d=" M 159.8571,384.5407 L 159.8571,378.5407 L 165.8571,378.5407 L 165.8571,384.5407 L 159.8571,384.5407 z " style="fill: #edd400; fill-opacity: 1.00; stroke: none; cursor: pointer;" id="ezcGraphPolygon_124" onclick="top.location = 'http://127.0.0.1/linux-hardware.org/index.php?view=computers&amp;f=net_kind&amp;v=&amp;p=-1&amp;p=86'"/><path d=" M 205.5714,384.1012 L 205.5714,378.1012 L 211.5714,378.1012 L 211.5714,384.1012 L 205.5714,384.1012 z " style="fill: #edd400; fill-opacity: 1.00; stroke: none; cursor: pointer;" id="ezcGraphPolygon_125" onclick="top.location = 'http://127.0.0.1/linux-hardware.org/index.php?view=computers&amp;f=net_kind&amp;v=&amp;p=-1&amp;p=87'"/><path d=" M 251.2857,384.5407 L 251.2857,378.5407 L 257.2857,378.5407 L 257.2857,384.5407 L 251.2857,384.5407 z " style="fill: #edd400; fill-opacity: 1.00; stroke: none; cursor: pointer;" id="ezcGraphPolygon_126" onclick="top.location = 'http://127.0.0.1/linux-hardware.org/index.php?view=computers&amp;f=net_kind&amp;v=&amp;p=-1&amp;p=88'"/><path d=" M 297.0000,384.5407 L 297.0000,378.5407 L 303.0000,378.5407 L 303.0000,384.5407 L 297.0000,384.5407 z " style="fill: #edd400; fill-opacity: 1.00; stroke: none; cursor: pointer;" id="ezcGraphPolygon_127" onclick="top.location = 'http://127.0.0.1/linux-hardware.org/index.php?view=computers&amp;f=net_kind&amp;v=&amp;p=-1&amp;p=89'"/><path d=" M 342.7143,384.9802 L 342.7143,378.9802 L 348.7143,378.9802 L 348.7143,384.9802 L 342.7143,384.9802 z " style="fill: #edd400; fill-opacity: 1.00; stroke: none; cursor: pointer;" id="ezcGraphPolygon_128" onclick="top.location = 'http://127.0.0.1/linux-hardware.org/index.php?view=computers&amp;f=net_kind&amp;v=&amp;p=-1&amp;p=90'"/><path d=" M 388.4286,384.7605 L 388.4286,378.7605 L 394.4286,378.7605 L 394.4286,384.7605 L 388.4286,384.7605 z " style="fill: #edd400; fill-opacity: 1.00; stroke: none; cursor: pointer;" id="ezcGraphPolygon_129" onclick="top.location = 'http://127.0.0.1/linux-hardware.org/index.php?view=computers&amp;f=net_kind&amp;v=&amp;p=-1&amp;p=91'"/><path d=" M 434.1429,384.7605 L 434.1429,378.7605 L 440.1429,378.7605 L 440.1429,384.7605 L 434.1429,384.7605 z " style="fill: #edd400; fill-opacity: 1.00; stroke: none; cursor: pointer;" id="ezcGraphPolygon_130" onclick="top.location = 'http://127.0.0.1/linux-hardware.org/index.php?view=computers&amp;f=net_kind&amp;v=&amp;p=-1&amp;p=92'"/><g id="ezcGraphTextBox_3"><path d=" M 48.1000,42.0000 L 48.1000,0.5000 L 452.4000,0.5000 L 452.4000,42.0000 L 48.1000,42.0000 z " style="fill: #ffffff; fill-opacity: 0.00; stroke: none;" id="ezcGraphPolygon_131"/><text id="ezcGraphTextBox_3_text" x="48.6000" text-length="402.8000px" y="35.0000" style="font-size: 40px; font-family: 'Arial'; fill: #2e3436; fill-opacity: 1.00; stroke: none;">Net Controller Kind</text></g><g id="ezcGraphTextBox_6" style=" cursor: pointer;" onclick="top.location = 'http://127.0.0.1/linux-hardware.org/index.php?view=computers&amp;f=net_kind&amp;v=Ethernet&amp;p=-1'"><path d=" M 16.5000,59.0000 L 16.5000,43.5000 L 77.3600,43.5000 L 77.3600,59.0000 L 16.5000,59.0000 z " style="fill: #ffffff; fill-opacity: 0.00; stroke: none;" id="ezcGraphPolygon_132"/><text id="ezcGraphTextBox_6_text" x="17.0000" text-length="59.3600px" y="55.9000" style="font-size: 14px; font-family: 'Arial'; fill: #2e3436; fill-opacity: 1.00; stroke: none;">Ethernet</text></g><g id="ezcGraphTextBox_8" style=" cursor: pointer;" onclick="top.location = 'http://127.0.0.1/linux-hardware.org/index.php?view=computers&amp;f=net_kind&amp;v=WiFi&amp;p=-1'"><path d=" M 16.5000,77.0000 L 16.5000,61.5000 L 47.6800,61.5000 L 47.6800,77.0000 L 16.5000,77.0000 z " style="fill: #ffffff; fill-opacity: 0.00; stroke: none;" id="ezcGraphPolygon_133"/><text id="ezcGraphTextBox_8_text" x="17.0000" text-length="29.6800px" y="73.9000" style="font-size: 14px; font-family: 'Arial'; fill: #2e3436; fill-opacity: 1.00; stroke: none;">WiFi</text></g><g id="ezcGraphTextBox_10" style=" cursor: pointer;" onclick="top.location = 'http://127.0.0.1/linux-hardware.org/index.php?view=computers&amp;f=net_kind&amp;v=Modem&amp;p=-1'"><path d=" M 16.5000,95.0000 L 16.5000,79.5000 L 55.1000,79.5000 L 55.1000,95.0000 L 16.5000,95.0000 z " style="fill: #ffffff; fill-opacity: 0.00; stroke: none;" id="ezcGraphPolygon_134"/><text id="ezcGraphTextBox_10_text" x="17.0000" text-length="37.1000px" y="91.9000" style="font-size: 14px; font-family: 'Arial'; fill: #2e3436; fill-opacity: 1.00; stroke: none;">Modem</text></g><g id="ezcGraphTextBox_12" style=" cursor: pointer;" onclick="top.location = 'http://127.0.0.1/linux-hardware.org/index.php?view=computers&amp;f=net_kind&amp;v=&amp;p=-1'"><path d=" M 16.5000,113.0000 L 16.5000,97.5000 L 69.9400,97.5000 L 69.9400,113.0000 L 16.5000,113.0000 z " style="fill: #ffffff; fill-opacity: 0.00; stroke: none;" id="ezcGraphPolygon_135"/><text id="ezcGraphTextBox_12_text" x="17.0000" text-length="51.9400px" y="109.9000" style="font-size: 14px; font-family: 'Arial'; fill: #2e3436; fill-opacity: 1.00; stroke: none;">Unknown</text></g><g id="ezcGraphTextBox_15" transform="rotate( 0.00 493.0000 375.2000 )"><path d=" M 460.4000,381.2000 L 460.4000,365.7000 L 499.0000,365.7000 L 499.0000,381.2000 L 460.4000,381.2000 z " style="fill: #ffffff; fill-opacity: 0.00; stroke: none;" id="ezcGraphPolygon_136"/><text id="ezcGraphTextBox_15_text" x="460.9000" text-length="37.1000px" y="378.1000" style="font-size: 14px; font-family: 'Arial'; fill: #2e3436; fill-opacity: 1.00; stroke: none;">Time </text></g><g id="ezcGraphTextBox_16"><path d=" M 144.9971,413.3000 L 144.9971,383.7000 L 181.2171,383.7000 L 181.2171,413.3000 L 144.9971,413.3000 z " style="fill: #ffffff; fill-opacity: 0.00; stroke: none;" id="ezcGraphPolygon_137"/><text id="ezcGraphTextBox_16_text" x="151.7271" text-length="22.2600px" y="396.1000" style="font-size: 14px; font-family: 'Arial'; fill: #2e3436; fill-opacity: 1.00; stroke: none;">Feb</text><text id="ezcGraphTextBox_16_text" x="145.4971" text-length="34.7200px" y="411.5000" style="font-size: 14px; font-family: 'Arial'; fill: #2e3436; fill-opacity: 1.00; stroke: none;">2021</text></g><g id="ezcGraphTextBox_19"><path d=" M 190.7114,413.3000 L 190.7114,383.7000 L 226.9314,383.7000 L 226.9314,413.3000 L 190.7114,413.3000 z " style="fill: #ffffff; fill-opacity: 0.00; stroke: none;" id="ezcGraphPolygon_138"/><text id="ezcGraphTextBox_19_text" x="197.4414" text-length="22.2600px" y="396.1000" style="font-size: 14px; font-family: 'Arial'; fill: #2e3436; fill-opacity: 1.00; stroke: none;">Mar</text><text id="ezcGraphTextBox_19_text" x="191.2114" text-length="34.7200px" y="411.5000" style="font-size: 14px; font-family: 'Arial'; fill: #2e3436; fill-opacity: 1.00; stroke: none;">2021</text></g><g id="ezcGraphTextBox_22"><path d=" M 236.4257,413.3000 L 236.4257,383.7000 L 272.6457,383.7000 L 272.6457,413.3000 L 236.4257,413.3000 z " style="fill: #ffffff; fill-opacity: 0.00; stroke: none;" id="ezcGraphPolygon_139"/><text id="ezcGraphTextBox_22_text" x="243.1557" text-length="22.2600px" y="396.1000" style="font-size: 14px; font-family: 'Arial'; fill: #2e3436; fill-opacity: 1.00; stroke: none;">Apr</text><text id="ezcGraphTextBox_22_text" x="236.9257" text-length="34.7200px" y="411.5000" style="font-size: 14px; font-family: 'Arial'; fill: #2e3436; fill-opacity: 1.00; stroke: none;">2021</text></g><g id="ezcGraphTextBox_25"><path d=" M 282.1400,413.3000 L 282.1400,383.7000 L 318.3600,383.7000 L 318.3600,413.3000 L 282.1400,413.3000 z " style="fill: #ffffff; fill-opacity: 0.00; stroke: none;" id="ezcGraphPolygon_140"/><text id="ezcGraphTextBox_25_text" x="288.8700" text-length="22.2600px" y="396.1000" style="font-size: 14px; font-family: 'Arial'; fill: #2e3436; fill-opacity: 1.00; stroke: none;">May</text><text id="ezcGraphTextBox_25_text" x="282.6400" text-length="34.7200px" y="411.5000" style="font-size: 14px; font-family: 'Arial'; fill: #2e3436; fill-opacity: 1.00; stroke: none;">2021</text></g><g id="ezcGraphTextBox_28"><path d=" M 327.8543,413.3000 L 327.8543,383.7000 L 364.0743,383.7000 L 364.0743,413.3000 L 327.8543,413.3000 z " style="fill: #ffffff; fill-opacity: 0.00; stroke: none;" id="ezcGraphPolygon_141"/><text id="ezcGraphTextBox_28_text" x="334.5843" text-length="22.2600px" y="396.1000" style="font-size: 14px; font-family: 'Arial'; fill: #2e3436; fill-opacity: 1.00; stroke: none;">Jun</text><text id="ezcGraphTextBox_28_text" x="328.3543" text-length="34.7200px" y="411.5000" style="font-size: 14px; font-family: 'Arial'; fill: #2e3436; fill-opacity: 1.00; stroke: none;">2021</text></g><g id="ezcGraphTextBox_31"><path d=" M 373.5686,413.3000 L 373.5686,383.7000 L 409.7886,383.7000 L 409.7886,413.3000 L 373.5686,413.3000 z " style="fill: #ffffff; fill-opacity: 0.00; stroke: none;" id="ezcGraphPolygon_142"/><text id="ezcGraphTextBox_31_text" x="380.2986" text-length="22.2600px" y="396.1000" style="font-size: 14px; font-family: 'Arial'; fill: #2e3436; fill-opacity: 1.00; stroke: none;">Jul</text><text id="ezcGraphTextBox_31_text" x="374.0686" text-length="34.7200px" y="411.5000" style="font-size: 14px; font-family: 'Arial'; fill: #2e3436; fill-opacity: 1.00; stroke: none;">2021</text></g><g id="ezcGraphTextBox_34"><path d=" M 419.2829,413.3000 L 419.2829,383.7000 L 455.5029,383.7000 L 455.5029,413.3000 L 419.2829,413.3000 z " style="fill: #ffffff; fill-opacity: 0.00; stroke: none;" id="ezcGraphPolygon_143"/><text id="ezcGraphTextBox_34_text" x="426.0129" text-length="22.2600px" y="396.1000" style="font-size: 14px; font-family: 'Arial'; fill: #2e3436; fill-opacity: 1.00; stroke: none;">Aug</text><text id="ezcGraphTextBox_34_text" x="419.7829" text-length="34.7200px" y="411.5000" style="font-size: 14px; font-family: 'Arial'; fill: #2e3436; fill-opacity: 1.00; stroke: none;">2021</text></g><g id="ezcGraphTextBox_39" transform="rotate( 0.00 147.0000 49.0000 )"><path d=" M 141.5000,59.0000 L 141.5000,43.5000 L 395.2800,43.5000 L 395.2800,59.0000 L 141.5000,59.0000 z " style="fill: #ffffff; fill-opacity: 0.00; stroke: none;" id="ezcGraphPolygon_144"/><text id="ezcGraphTextBox_39_text" x="142.0000" text-length="252.2800px" y="55.9000" style="font-size: 14px; font-family: 'Arial'; fill: #2e3436; fill-opacity: 1.00; stroke: none;">Computers by "Net Controller Kind"</text></g><g id="ezcGraphTextBox_40"><path d=" M 128.8200,381.2000 L 128.8200,365.7000 L 139.0000,365.7000 L 139.0000,381.2000 L 128.8200,381.2000 z " style="fill: #ffffff; fill-opacity: 0.00; stroke: none;" id="ezcGraphPolygon_145"/><text id="ezcGraphTextBox_40_text" x="129.3200" text-length="8.6800px" y="378.1000" style="font-size: 14px; font-family: 'Arial'; fill: #2e3436; fill-opacity: 1.00; stroke: none;">0</text></g><g id="ezcGraphTextBox_43"><path d=" M 111.4600,230.0000 L 111.4600,214.5000 L 139.0000,214.5000 L 139.0000,230.0000 L 111.4600,230.0000 z " style="fill: #ffffff; fill-opacity: 0.00; stroke: none;" id="ezcGraphPolygon_146"/><text id="ezcGraphTextBox_43_text" x="111.9600" text-length="26.0400px" y="226.9000" style="font-size: 14px; font-family: 'Arial'; fill: #2e3436; fill-opacity: 1.00; stroke: none;">688</text></g><g id="ezcGraphTextBox_46"><path d=" M 102.7800,96.8000 L 102.7800,81.3000 L 139.0000,81.3000 L 139.0000,96.8000 L 102.7800,96.8000 z " style="fill: #ffffff; fill-opacity: 0.00; stroke: none;" id="ezcGraphPolygon_147"/><text id="ezcGraphTextBox_46_text" x="103.2800" text-length="34.7200px" y="93.7000" style="font-size: 14px; font-family: 'Arial'; fill: #2e3436; fill-opacity: 1.00; stroke: none;">1376</text></g><g id="ezcGraphTextBox_48"><path d=" M 149.9571,75.4593 L 149.9571,63.9593 L 176.2571,63.9593 L 176.2571,75.4593 L 149.9571,75.4593 z " style="fill: #ffffff; fill-opacity: 0.00; stroke: none;" id="ezcGraphPolygon_148"/><text id="ezcGraphTextBox_48_text" x="150.4571" text-length="24.8000px" y="72.9593" style="font-size: 10px; font-family: 'Arial'; fill: #2e3436; fill-opacity: 1.00; stroke: none;">1373</text></g><g id="ezcGraphTextBox_50"><path d=" M 195.6714,74.8000 L 195.6714,63.3000 L 221.9714,63.3000 L 221.9714,74.8000 L 195.6714,74.8000 z " style="fill: #ffffff; fill-opacity: 0.00; stroke: none;" id="ezcGraphPolygon_149"/><text id="ezcGraphTextBox_50_text" x="196.1714" text-length="24.8000px" y="72.3000" style="font-size: 10px; font-family: 'Arial'; fill: #2e3436; fill-opacity: 1.00; stroke: none;">1376</text></g><g id="ezcGraphTextBox_52"><path d=" M 241.3857,87.3267 L 241.3857,75.8267 L 267.6857,75.8267 L 267.6857,87.3267 L 241.3857,87.3267 z " style="fill: #ffffff; fill-opacity: 0.00; stroke: none;" id="ezcGraphPolygon_150"/><text id="ezcGraphTextBox_52_text" x="241.8857" text-length="24.8000px" y="84.8267" style="font-size: 10px; font-family: 'Arial'; fill: #2e3436; fill-opacity: 1.00; stroke: none;">1319</text></g><g id="ezcGraphTextBox_54"><path d=" M 287.1000,109.5233 L 287.1000,98.0233 L 313.4000,98.0233 L 313.4000,109.5233 L 287.1000,109.5233 z " style="fill: #ffffff; fill-opacity: 0.00; stroke: none;" id="ezcGraphPolygon_151"/><text id="ezcGraphTextBox_54_text" x="287.6000" text-length="24.8000px" y="107.0233" style="font-size: 10px; font-family: 'Arial'; fill: #2e3436; fill-opacity: 1.00; stroke: none;">1218</text></g><g id="ezcGraphTextBox_56"><path d=" M 332.8143,146.2244 L 332.8143,134.7244 L 359.1143,134.7244 L 359.1143,146.2244 L 332.8143,146.2244 z " style="fill: #ffffff; fill-opacity: 0.00; stroke: none;" id="ezcGraphPolygon_152"/><text id="ezcGraphTextBox_56_text" x="333.3143" text-length="24.8000px" y="143.7244" style="font-size: 10px; font-family: 'Arial'; fill: #2e3436; fill-opacity: 1.00; stroke: none;">1051</text></g><g id="ezcGraphTextBox_58"><path d=" M 378.5286,130.4012 L 378.5286,118.9012 L 404.8286,118.9012 L 404.8286,130.4012 L 378.5286,130.4012 z " style="fill: #ffffff; fill-opacity: 0.00; stroke: none;" id="ezcGraphPolygon_153"/><text id="ezcGraphTextBox_58_text" x="379.0286" text-length="24.8000px" y="127.9012" style="font-size: 10px; font-family: 'Arial'; fill: #2e3436; fill-opacity: 1.00; stroke: none;">1123</text></g><g id="ezcGraphTextBox_60"><path d=" M 424.2429,131.0605 L 424.2429,119.5605 L 450.5429,119.5605 L 450.5429,131.0605 L 424.2429,131.0605 z " style="fill: #ffffff; fill-opacity: 0.00; stroke: none;" id="ezcGraphPolygon_154"/><text id="ezcGraphTextBox_60_text" x="424.7429" text-length="24.8000px" y="128.5605" style="font-size: 10px; font-family: 'Arial'; fill: #2e3436; fill-opacity: 1.00; stroke: none;">1120</text></g><g id="ezcGraphTextBox_62"><path d=" M 149.9571,126.4453 L 149.9571,114.9453 L 176.2571,114.9453 L 176.2571,126.4453 L 149.9571,126.4453 z " style="fill: #ffffff; fill-opacity: 0.00; stroke: none;" id="ezcGraphPolygon_155"/><text id="ezcGraphTextBox_62_text" x="150.4571" text-length="24.8000px" y="123.9453" style="font-size: 10px; font-family: 'Arial'; fill: #2e3436; fill-opacity: 1.00; stroke: none;">1141</text></g><g id="ezcGraphTextBox_64"><path d=" M 195.6714,123.8081 L 195.6714,112.3081 L 221.9714,112.3081 L 221.9714,123.8081 L 195.6714,123.8081 z " style="fill: #ffffff; fill-opacity: 0.00; stroke: none;" id="ezcGraphPolygon_156"/><text id="ezcGraphTextBox_64_text" x="196.1714" text-length="24.8000px" y="121.3081" style="font-size: 10px; font-family: 'Arial'; fill: #2e3436; fill-opacity: 1.00; stroke: none;">1153</text></g><g id="ezcGraphTextBox_66"><path d=" M 241.3857,136.9942 L 241.3857,125.4942 L 267.6857,125.4942 L 267.6857,136.9942 L 241.3857,136.9942 z " style="fill: #ffffff; fill-opacity: 0.00; stroke: none;" id="ezcGraphPolygon_157"/><text id="ezcGraphTextBox_66_text" x="241.8857" text-length="24.8000px" y="134.4942" style="font-size: 10px; font-family: 'Arial'; fill: #2e3436; fill-opacity: 1.00; stroke: none;">1093</text></g><g id="ezcGraphTextBox_68"><path d=" M 287.1000,148.2023 L 287.1000,136.7023 L 313.4000,136.7023 L 313.4000,148.2023 L 287.1000,148.2023 z " style="fill: #ffffff; fill-opacity: 0.00; stroke: none;" id="ezcGraphPolygon_158"/><text id="ezcGraphTextBox_68_text" x="287.6000" text-length="24.8000px" y="145.7023" style="font-size: 10px; font-family: 'Arial'; fill: #2e3436; fill-opacity: 1.00; stroke: none;">1042</text></g><g id="ezcGraphTextBox_70"><path d=" M 335.9143,181.1674 L 335.9143,169.6674 L 356.0143,169.6674 L 356.0143,181.1674 L 335.9143,181.1674 z " style="fill: #ffffff; fill-opacity: 0.00; stroke: none;" id="ezcGraphPolygon_159"/><text id="ezcGraphTextBox_70_text" x="336.4143" text-length="18.6000px" y="178.6674" style="font-size: 10px; font-family: 'Arial'; fill: #2e3436; fill-opacity: 1.00; stroke: none;">892</text></g><g id="ezcGraphTextBox_72"><path d=" M 381.6286,174.3547 L 381.6286,162.8547 L 401.7286,162.8547 L 401.7286,174.3547 L 381.6286,174.3547 z " style="fill: #ffffff; fill-opacity: 0.00; stroke: none;" id="ezcGraphPolygon_160"/><text id="ezcGraphTextBox_72_text" x="382.1286" text-length="18.6000px" y="171.8547" style="font-size: 10px; font-family: 'Arial'; fill: #2e3436; fill-opacity: 1.00; stroke: none;">923</text></g><g id="ezcGraphTextBox_74"><path d=" M 424.2429,156.9930 L 424.2429,145.4930 L 450.5429,145.4930 L 450.5429,156.9930 L 424.2429,156.9930 z " style="fill: #ffffff; fill-opacity: 0.00; stroke: none;" id="ezcGraphPolygon_161"/><text id="ezcGraphTextBox_74_text" x="424.7429" text-length="24.8000px" y="154.4930" style="font-size: 10px; font-family: 'Arial'; fill: #2e3436; fill-opacity: 1.00; stroke: none;">1002</text></g><g id="ezcGraphTextBox_76"><path d=" M 156.1571,374.1233 L 156.1571,362.6233 L 170.0571,362.6233 L 170.0571,374.1233 L 156.1571,374.1233 z " style="fill: #ffffff; fill-opacity: 0.00; stroke: none;" id="ezcGraphPolygon_162"/><text id="ezcGraphTextBox_76_text" x="156.6571" text-length="12.4000px" y="371.6233" style="font-size: 10px; font-family: 'Arial'; fill: #2e3436; fill-opacity: 1.00; stroke: none;">14</text></g><g id="ezcGraphTextBox_78"><path d=" M 201.8714,372.3651 L 201.8714,360.8651 L 215.7714,360.8651 L 215.7714,372.3651 L 201.8714,372.3651 z " style="fill: #ffffff; fill-opacity: 0.00; stroke: none;" id="ezcGraphPolygon_163"/><text id="ezcGraphTextBox_78_text" x="202.3714" text-length="12.4000px" y="369.8651" style="font-size: 10px; font-family: 'Arial'; fill: #2e3436; fill-opacity: 1.00; stroke: none;">22</text></g><g id="ezcGraphTextBox_80"><path d=" M 247.5857,371.9256 L 247.5857,360.4256 L 261.4857,360.4256 L 261.4857,371.9256 L 247.5857,371.9256 z " style="fill: #ffffff; fill-opacity: 0.00; stroke: none;" id="ezcGraphPolygon_164"/><text id="ezcGraphTextBox_80_text" x="248.0857" text-length="12.4000px" y="369.4256" style="font-size: 10px; font-family: 'Arial'; fill: #2e3436; fill-opacity: 1.00; stroke: none;">24</text></g><g id="ezcGraphTextBox_82"><path d=" M 293.3000,373.2442 L 293.3000,361.7442 L 307.2000,361.7442 L 307.2000,373.2442 L 293.3000,373.2442 z " style="fill: #ffffff; fill-opacity: 0.00; stroke: none;" id="ezcGraphPolygon_165"/><text id="ezcGraphTextBox_82_text" x="293.8000" text-length="12.4000px" y="370.7442" style="font-size: 10px; font-family: 'Arial'; fill: #2e3436; fill-opacity: 1.00; stroke: none;">18</text></g><g id="ezcGraphTextBox_84"><path d=" M 339.0143,372.5849 L 339.0143,361.0849 L 352.9143,361.0849 L 352.9143,372.5849 L 339.0143,372.5849 z " style="fill: #ffffff; fill-opacity: 0.00; stroke: none;" id="ezcGraphPolygon_166"/><text id="ezcGraphTextBox_84_text" x="339.5143" text-length="12.4000px" y="370.0849" style="font-size: 10px; font-family: 'Arial'; fill: #2e3436; fill-opacity: 1.00; stroke: none;">21</text></g><g id="ezcGraphTextBox_86"><path d=" M 384.7286,373.9035 L 384.7286,362.4035 L 398.6286,362.4035 L 398.6286,373.9035 L 384.7286,373.9035 z " style="fill: #ffffff; fill-opacity: 0.00; stroke: none;" id="ezcGraphPolygon_167"/><text id="ezcGraphTextBox_86_text" x="385.2286" text-length="12.4000px" y="371.4035" style="font-size: 10px; font-family: 'Arial'; fill: #2e3436; fill-opacity: 1.00; stroke: none;">15</text></g><g id="ezcGraphTextBox_88"><path d=" M 430.4429,372.5849 L 430.4429,361.0849 L 444.3429,361.0849 L 444.3429,372.5849 L 430.4429,372.5849 z " style="fill: #ffffff; fill-opacity: 0.00; stroke: none;" id="ezcGraphPolygon_168"/><text id="ezcGraphTextBox_88_text" x="430.9429" text-length="12.4000px" y="370.0849" style="font-size: 10px; font-family: 'Arial'; fill: #2e3436; fill-opacity: 1.00; stroke: none;">21</text></g><g id="ezcGraphTextBox_90"><path d=" M 159.2571,376.5407 L 159.2571,365.0407 L 166.9571,365.0407 L 166.9571,376.5407 L 159.2571,376.5407 z " style="fill: #ffffff; fill-opacity: 0.00; stroke: none;" id="ezcGraphPolygon_169"/><text id="ezcGraphTextBox_90_text" x="159.7571" text-length="6.2000px" y="374.0407" style="font-size: 10px; font-family: 'Arial'; fill: #2e3436; fill-opacity: 1.00; stroke: none;">3</text></g><g id="ezcGraphTextBox_92"><path d=" M 204.9714,376.1012 L 204.9714,364.6012 L 212.6714,364.6012 L 212.6714,376.1012 L 204.9714,376.1012 z " style="fill: #ffffff; fill-opacity: 0.00; stroke: none;" id="ezcGraphPolygon_170"/><text id="ezcGraphTextBox_92_text" x="205.4714" text-length="6.2000px" y="373.6012" style="font-size: 10px; font-family: 'Arial'; fill: #2e3436; fill-opacity: 1.00; stroke: none;">5</text></g><g id="ezcGraphTextBox_94"><path d=" M 250.6857,376.5407 L 250.6857,365.0407 L 258.3857,365.0407 L 258.3857,376.5407 L 250.6857,376.5407 z " style="fill: #ffffff; fill-opacity: 0.00; stroke: none;" id="ezcGraphPolygon_171"/><text id="ezcGraphTextBox_94_text" x="251.1857" text-length="6.2000px" y="374.0407" style="font-size: 10px; font-family: 'Arial'; fill: #2e3436; fill-opacity: 1.00; stroke: none;">3</text></g><g id="ezcGraphTextBox_96"><path d=" M 296.4000,376.5407 L 296.4000,365.0407 L 304.1000,365.0407 L 304.1000,376.5407 L 296.4000,376.5407 z " style="fill: #ffffff; fill-opacity: 0.00; stroke: none;" id="ezcGraphPolygon_172"/><text id="ezcGraphTextBox_96_text" x="296.9000" text-length="6.2000px" y="374.0407" style="font-size: 10px; font-family: 'Arial'; fill: #2e3436; fill-opacity: 1.00; stroke: none;">3</text></g><g id="ezcGraphTextBox_98"><path d=" M 342.1143,376.9802 L 342.1143,365.4802 L 349.8143,365.4802 L 349.8143,376.9802 L 342.1143,376.9802 z " style="fill: #ffffff; fill-opacity: 0.00; stroke: none;" id="ezcGraphPolygon_173"/><text id="ezcGraphTextBox_98_text" x="342.6143" text-length="6.2000px" y="374.4802" style="font-size: 10px; font-family: 'Arial'; fill: #2e3436; fill-opacity: 1.00; stroke: none;">1</text></g><g id="ezcGraphTextBox_100"><path d=" M 387.8286,376.7605 L 387.8286,365.2605 L 395.5286,365.2605 L 395.5286,376.7605 L 387.8286,376.7605 z " style="fill: #ffffff; fill-opacity: 0.00; stroke: none;" id="ezcGraphPolygon_174"/><text id="ezcGraphTextBox_100_text" x="388.3286" text-length="6.2000px" y="374.2605" style="font-size: 10px; font-family: 'Arial'; fill: #2e3436; fill-opacity: 1.00; stroke: none;">2</text></g><g id="ezcGraphTextBox_102"><path d=" M 433.5429,376.7605 L 433.5429,365.2605 L 441.2429,365.2605 L 441.2429,376.7605 L 433.5429,376.7605 z " style="fill: #ffffff; fill-opacity: 0.00; stroke: none;" id="ezcGraphPolygon_175"/><text id="ezcGraphTextBox_102_text" x="434.0429" text-length="6.2000px" y="374.2605" style="font-size: 10px; font-family: 'Arial'; fill: #2e3436; fill-opacity: 1.00; stroke: none;">2</text></g></g></svg>
