<?xml version="1.0"?>
<svg xmlns="http://www.w3.org/2000/svg" width="500" height="420" version="1.0" id="ezcGraph"><defs/><g id="ezcGraphChart" color-rendering="optimizeQuality" shape-rendering="geometricPrecision" text-rendering="optimizeLegibility"><path d=" M 0.0000,420.0000 L 0.0000,0.0000 L 500.0000,0.0000 L 500.0000,420.0000 L 0.0000,420.0000 z " style="fill: #eeeeec; fill-opacity: 1.00; stroke: none;" id="ezcGraphPolygon_1"/><path d=" M 0.0000,42.0000 L 0.0000,0.0000 L 500.0000,0.0000 L 500.0000,42.0000 L 0.0000,42.0000 z " style="fill: #000000; fill-opacity: 0.00; stroke: none;" id="ezcGraphPolygon_2"/><path d=" M 0.0000,420.0000 L 0.0000,42.0000 L 100.0000,42.0000 L 100.0000,420.0000 L 0.0000,420.0000 z " style="fill: #000000; fill-opacity: 0.00; stroke: none;" id="ezcGraphPolygon_4"/><path d=" M 2.0000,58.0000 L 2.0000,44.0000 L 16.0000,44.0000 L 16.0000,58.0000 L 2.0000,58.0000 z " style="fill: #3465a4; fill-opacity: 1.00; stroke: none; cursor: pointer;" id="ezcGraphPolygon_5" onclick="top.location = 'http://127.0.0.1/linux-hardware.org/index.php?view=computers&amp;f=node_location&amp;v=USA&amp;p=-1'"/><path d=" M 2.0000,76.0000 L 2.0000,62.0000 L 16.0000,62.0000 L 16.0000,76.0000 L 2.0000,76.0000 z " style="fill: #4e9a06; fill-opacity: 1.00; stroke: none; cursor: pointer;" id="ezcGraphPolygon_7" onclick="top.location = 'http://127.0.0.1/linux-hardware.org/index.php?view=computers&amp;f=node_location&amp;v=Germany&amp;p=-1'"/><path d=" M 2.0000,94.0000 L 2.0000,80.0000 L 16.0000,80.0000 L 16.0000,94.0000 L 2.0000,94.0000 z " style="fill: #cc0000; fill-opacity: 1.00; stroke: none; cursor: pointer;" id="ezcGraphPolygon_9" onclick="top.location = 'http://127.0.0.1/linux-hardware.org/index.php?view=computers&amp;f=node_location&amp;v=Brazil&amp;p=-1'"/><path d=" M 2.0000,112.0000 L 2.0000,98.0000 L 16.0000,98.0000 L 16.0000,112.0000 L 2.0000,112.0000 z " style="fill: #edd400; fill-opacity: 1.00; stroke: none; cursor: pointer;" id="ezcGraphPolygon_11" onclick="top.location = 'http://127.0.0.1/linux-hardware.org/index.php?view=computers&amp;f=node_location&amp;v=Russia&amp;p=-1'"/><path d=" M 2.0000,130.0000 L 2.0000,116.0000 L 16.0000,116.0000 L 16.0000,130.0000 L 2.0000,130.0000 z " style="fill: #75505b; fill-opacity: 1.00; stroke: none; cursor: pointer;" id="ezcGraphPolygon_13" onclick="top.location = 'http://127.0.0.1/linux-hardware.org/index.php?view=computers&amp;f=node_location&amp;v=Italy&amp;p=-1'"/><path d=" M 100.0000,382.2000 L 500.0000,382.2000" style="fill: none; stroke: #2e3436; stroke-width: 1; stroke-opacity: 1.00; stroke-linecap: round; stroke-linejoin: round;" id="ezcGraphLine_15"/><path d=" M 492.0000,378.2000 L 500.0000,382.2000 L 492.0000,386.2000 L 492.0000,378.2000 z " style="fill: #2e3436; fill-opacity: 1.00; stroke: none;" id="ezcGraphPolygon_16"/><path d=" M 185.7143,79.8000 L 185.7143,382.2000" style="fill: none; stroke: #000000; stroke-width: 1; stroke-opacity: 0.00; stroke-linecap: round; stroke-linejoin: round;" id="ezcGraphLine_19"/><path d=" M 185.7143,379.2000 L 185.7143,385.2000" style="fill: none; stroke: #2e3436; stroke-width: 1; stroke-opacity: 1.00; stroke-linecap: round; stroke-linejoin: round;" id="ezcGraphLine_20"/><path d=" M 231.4286,79.8000 L 231.4286,382.2000" style="fill: none; stroke: #000000; stroke-width: 1; stroke-opacity: 0.00; stroke-linecap: round; stroke-linejoin: round;" id="ezcGraphLine_22"/><path d=" M 231.4286,379.2000 L 231.4286,385.2000" style="fill: none; stroke: #2e3436; stroke-width: 1; stroke-opacity: 1.00; stroke-linecap: round; stroke-linejoin: round;" id="ezcGraphLine_23"/><path d=" M 277.1429,79.8000 L 277.1429,382.2000" style="fill: none; stroke: #000000; stroke-width: 1; stroke-opacity: 0.00; stroke-linecap: round; stroke-linejoin: round;" id="ezcGraphLine_25"/><path d=" M 277.1429,379.2000 L 277.1429,385.2000" style="fill: none; stroke: #2e3436; stroke-width: 1; stroke-opacity: 1.00; stroke-linecap: round; stroke-linejoin: round;" id="ezcGraphLine_26"/><path d=" M 322.8571,79.8000 L 322.8571,382.2000" style="fill: none; stroke: #000000; stroke-width: 1; stroke-opacity: 0.00; stroke-linecap: round; stroke-linejoin: round;" id="ezcGraphLine_28"/><path d=" M 322.8571,379.2000 L 322.8571,385.2000" style="fill: none; stroke: #2e3436; stroke-width: 1; stroke-opacity: 1.00; stroke-linecap: round; stroke-linejoin: round;" id="ezcGraphLine_29"/><path d=" M 368.5714,79.8000 L 368.5714,382.2000" style="fill: none; stroke: #000000; stroke-width: 1; stroke-opacity: 0.00; stroke-linecap: round; stroke-linejoin: round;" id="ezcGraphLine_31"/><path d=" M 368.5714,379.2000 L 368.5714,385.2000" style="fill: none; stroke: #2e3436; stroke-width: 1; stroke-opacity: 1.00; stroke-linecap: round; stroke-linejoin: round;" id="ezcGraphLine_32"/><path d=" M 414.2857,79.8000 L 414.2857,382.2000" style="fill: none; stroke: #000000; stroke-width: 1; stroke-opacity: 0.00; stroke-linecap: round; stroke-linejoin: round;" id="ezcGraphLine_34"/><path d=" M 414.2857,379.2000 L 414.2857,385.2000" style="fill: none; stroke: #2e3436; stroke-width: 1; stroke-opacity: 1.00; stroke-linecap: round; stroke-linejoin: round;" id="ezcGraphLine_35"/><path d=" M 460.0000,79.8000 L 460.0000,382.2000" style="fill: none; stroke: #000000; stroke-width: 1; stroke-opacity: 0.00; stroke-linecap: round; stroke-linejoin: round;" id="ezcGraphLine_37"/><path d=" M 460.0000,379.2000 L 460.0000,385.2000" style="fill: none; stroke: #2e3436; stroke-width: 1; stroke-opacity: 1.00; stroke-linecap: round; stroke-linejoin: round;" id="ezcGraphLine_38"/><path d=" M 140.0000,420.0000 L 140.0000,42.0000" style="fill: none; stroke: #2e3436; stroke-width: 1; stroke-opacity: 1.00; stroke-linecap: round; stroke-linejoin: round;" id="ezcGraphLine_39"/><path d=" M 136.0000,50.0000 L 140.0000,42.0000 L 144.0000,50.0000 L 136.0000,50.0000 z " style="fill: #2e3436; fill-opacity: 1.00; stroke: none;" id="ezcGraphPolygon_40"/><path d=" M 140.0000,231.0000 L 460.0000,231.0000" style="fill: none; stroke: #000000; stroke-width: 1; stroke-opacity: 0.00; stroke-linecap: round; stroke-linejoin: round;" id="ezcGraphLine_43"/><path d=" M 140.0000,231.0000 L 141.0000,231.0000" style="fill: none; stroke: #2e3436; stroke-width: 1; stroke-opacity: 1.00; stroke-linecap: round; stroke-linejoin: round;" id="ezcGraphLine_44"/><path d=" M 140.0000,79.8000 L 460.0000,79.8000" style="fill: none; stroke: #000000; stroke-width: 1; stroke-opacity: 0.00; stroke-linecap: round; stroke-linejoin: round;" id="ezcGraphLine_45"/><path d=" M 140.0000,79.8000 L 143.0000,79.8000" style="fill: none; stroke: #2e3436; stroke-width: 1; stroke-opacity: 1.00; stroke-linecap: round; stroke-linejoin: round;" id="ezcGraphLine_46"/><path d=" M 162.8571,98.0769 L 162.8571,98.0769" style="fill: none; stroke: #3465a4; stroke-width: 1; stroke-opacity: 1.00; stroke-linecap: round; stroke-linejoin: round;" id="ezcGraphLine_48"/><path d=" M 162.8571,98.0769 L 208.5714,84.7846" style="fill: none; stroke: #3465a4; stroke-width: 1; stroke-opacity: 1.00; stroke-linecap: round; stroke-linejoin: round;" id="ezcGraphLine_50"/><path d=" M 208.5714,84.7846 L 254.2857,99.7385" style="fill: none; stroke: #3465a4; stroke-width: 1; stroke-opacity: 1.00; stroke-linecap: round; stroke-linejoin: round;" id="ezcGraphLine_52"/><path d=" M 254.2857,99.7385 L 300.0000,151.2462" style="fill: none; stroke: #3465a4; stroke-width: 1; stroke-opacity: 1.00; stroke-linecap: round; stroke-linejoin: round;" id="ezcGraphLine_54"/><path d=" M 300.0000,151.2462 L 345.7143,151.2462" style="fill: none; stroke: #3465a4; stroke-width: 1; stroke-opacity: 1.00; stroke-linecap: round; stroke-linejoin: round;" id="ezcGraphLine_56"/><path d=" M 345.7143,151.2462 L 391.4286,126.3231" style="fill: none; stroke: #3465a4; stroke-width: 1; stroke-opacity: 1.00; stroke-linecap: round; stroke-linejoin: round;" id="ezcGraphLine_58"/><path d=" M 391.4286,126.3231 L 437.1429,81.4615" style="fill: none; stroke: #3465a4; stroke-width: 1; stroke-opacity: 1.00; stroke-linecap: round; stroke-linejoin: round;" id="ezcGraphLine_60"/><path d=" M 162.8571,239.3077 L 162.8571,239.3077" style="fill: none; stroke: #4e9a06; stroke-width: 1; stroke-opacity: 1.00; stroke-linecap: round; stroke-linejoin: round;" id="ezcGraphLine_62"/><path d=" M 162.8571,239.3077 L 208.5714,196.1077" style="fill: none; stroke: #4e9a06; stroke-width: 1; stroke-opacity: 1.00; stroke-linecap: round; stroke-linejoin: round;" id="ezcGraphLine_64"/><path d=" M 208.5714,196.1077 L 254.2857,199.4308" style="fill: none; stroke: #4e9a06; stroke-width: 1; stroke-opacity: 1.00; stroke-linecap: round; stroke-linejoin: round;" id="ezcGraphLine_66"/><path d=" M 254.2857,199.4308 L 300.0000,221.0308" style="fill: none; stroke: #4e9a06; stroke-width: 1; stroke-opacity: 1.00; stroke-linecap: round; stroke-linejoin: round;" id="ezcGraphLine_68"/><path d=" M 300.0000,221.0308 L 345.7143,222.6923" style="fill: none; stroke: #4e9a06; stroke-width: 1; stroke-opacity: 1.00; stroke-linecap: round; stroke-linejoin: round;" id="ezcGraphLine_70"/><path d=" M 345.7143,222.6923 L 391.4286,192.7846" style="fill: none; stroke: #4e9a06; stroke-width: 1; stroke-opacity: 1.00; stroke-linecap: round; stroke-linejoin: round;" id="ezcGraphLine_72"/><path d=" M 391.4286,192.7846 L 437.1429,184.4769" style="fill: none; stroke: #4e9a06; stroke-width: 1; stroke-opacity: 1.00; stroke-linecap: round; stroke-linejoin: round;" id="ezcGraphLine_74"/><path d=" M 162.8571,217.7077 L 162.8571,217.7077" style="fill: none; stroke: #cc0000; stroke-width: 1; stroke-opacity: 1.00; stroke-linecap: round; stroke-linejoin: round;" id="ezcGraphLine_76"/><path d=" M 162.8571,217.7077 L 208.5714,212.7231" style="fill: none; stroke: #cc0000; stroke-width: 1; stroke-opacity: 1.00; stroke-linecap: round; stroke-linejoin: round;" id="ezcGraphLine_78"/><path d=" M 208.5714,212.7231 L 254.2857,217.7077" style="fill: none; stroke: #cc0000; stroke-width: 1; stroke-opacity: 1.00; stroke-linecap: round; stroke-linejoin: round;" id="ezcGraphLine_80"/><path d=" M 254.2857,217.7077 L 300.0000,221.0308" style="fill: none; stroke: #cc0000; stroke-width: 1; stroke-opacity: 1.00; stroke-linecap: round; stroke-linejoin: round;" id="ezcGraphLine_82"/><path d=" M 300.0000,221.0308 L 345.7143,245.9538" style="fill: none; stroke: #cc0000; stroke-width: 1; stroke-opacity: 1.00; stroke-linecap: round; stroke-linejoin: round;" id="ezcGraphLine_84"/><path d=" M 345.7143,245.9538 L 391.4286,282.5077" style="fill: none; stroke: #cc0000; stroke-width: 1; stroke-opacity: 1.00; stroke-linecap: round; stroke-linejoin: round;" id="ezcGraphLine_86"/><path d=" M 391.4286,282.5077 L 437.1429,264.2308" style="fill: none; stroke: #cc0000; stroke-width: 1; stroke-opacity: 1.00; stroke-linecap: round; stroke-linejoin: round;" id="ezcGraphLine_88"/><path d=" M 162.8571,324.0462 L 162.8571,324.0462" style="fill: none; stroke: #edd400; stroke-width: 1; stroke-opacity: 1.00; stroke-linecap: round; stroke-linejoin: round;" id="ezcGraphLine_90"/><path d=" M 162.8571,324.0462 L 208.5714,302.4462" style="fill: none; stroke: #edd400; stroke-width: 1; stroke-opacity: 1.00; stroke-linecap: round; stroke-linejoin: round;" id="ezcGraphLine_92"/><path d=" M 208.5714,302.4462 L 254.2857,290.8154" style="fill: none; stroke: #edd400; stroke-width: 1; stroke-opacity: 1.00; stroke-linecap: round; stroke-linejoin: round;" id="ezcGraphLine_94"/><path d=" M 254.2857,290.8154 L 300.0000,345.6462" style="fill: none; stroke: #edd400; stroke-width: 1; stroke-opacity: 1.00; stroke-linecap: round; stroke-linejoin: round;" id="ezcGraphLine_96"/><path d=" M 300.0000,345.6462 L 345.7143,304.1077" style="fill: none; stroke: #edd400; stroke-width: 1; stroke-opacity: 1.00; stroke-linecap: round; stroke-linejoin: round;" id="ezcGraphLine_98"/><path d=" M 345.7143,304.1077 L 391.4286,317.4000" style="fill: none; stroke: #edd400; stroke-width: 1; stroke-opacity: 1.00; stroke-linecap: round; stroke-linejoin: round;" id="ezcGraphLine_100"/><path d=" M 391.4286,317.4000 L 437.1429,267.5538" style="fill: none; stroke: #edd400; stroke-width: 1; stroke-opacity: 1.00; stroke-linecap: round; stroke-linejoin: round;" id="ezcGraphLine_102"/><path d=" M 162.8571,309.0923 L 162.8571,309.0923" style="fill: none; stroke: #75505b; stroke-width: 1; stroke-opacity: 1.00; stroke-linecap: round; stroke-linejoin: round;" id="ezcGraphLine_104"/><path d=" M 162.8571,309.0923 L 208.5714,309.0923" style="fill: none; stroke: #75505b; stroke-width: 1; stroke-opacity: 1.00; stroke-linecap: round; stroke-linejoin: round;" id="ezcGraphLine_106"/><path d=" M 208.5714,309.0923 L 254.2857,287.4923" style="fill: none; stroke: #75505b; stroke-width: 1; stroke-opacity: 1.00; stroke-linecap: round; stroke-linejoin: round;" id="ezcGraphLine_108"/><path d=" M 254.2857,287.4923 L 300.0000,310.7538" style="fill: none; stroke: #75505b; stroke-width: 1; stroke-opacity: 1.00; stroke-linecap: round; stroke-linejoin: round;" id="ezcGraphLine_110"/><path d=" M 300.0000,310.7538 L 345.7143,315.7385" style="fill: none; stroke: #75505b; stroke-width: 1; stroke-opacity: 1.00; stroke-linecap: round; stroke-linejoin: round;" id="ezcGraphLine_112"/><path d=" M 345.7143,315.7385 L 391.4286,299.1231" style="fill: none; stroke: #75505b; stroke-width: 1; stroke-opacity: 1.00; stroke-linecap: round; stroke-linejoin: round;" id="ezcGraphLine_114"/><path d=" M 391.4286,299.1231 L 437.1429,289.1538" style="fill: none; stroke: #75505b; stroke-width: 1; stroke-opacity: 1.00; stroke-linecap: round; stroke-linejoin: round;" id="ezcGraphLine_116"/><path d=" M 159.8571,101.0769 L 159.8571,95.0769 L 165.8571,95.0769 L 165.8571,101.0769 L 159.8571,101.0769 z " style="fill: #3465a4; fill-opacity: 1.00; stroke: none; cursor: pointer;" id="ezcGraphPolygon_118" onclick="top.location = 'http://127.0.0.1/linux-hardware.org/index.php?view=computers&amp;f=node_location&amp;v=USA&amp;p=-1&amp;p=66'"/><path d=" M 205.5714,87.7846 L 205.5714,81.7846 L 211.5714,81.7846 L 211.5714,87.7846 L 205.5714,87.7846 z " style="fill: #3465a4; fill-opacity: 1.00; stroke: none; cursor: pointer;" id="ezcGraphPolygon_119" onclick="top.location = 'http://127.0.0.1/linux-hardware.org/index.php?view=computers&amp;f=node_location&amp;v=USA&amp;p=-1&amp;p=67'"/><path d=" M 251.2857,102.7385 L 251.2857,96.7385 L 257.2857,96.7385 L 257.2857,102.7385 L 251.2857,102.7385 z " style="fill: #3465a4; fill-opacity: 1.00; stroke: none; cursor: pointer;" id="ezcGraphPolygon_120" onclick="top.location = 'http://127.0.0.1/linux-hardware.org/index.php?view=computers&amp;f=node_location&amp;v=USA&amp;p=-1&amp;p=68'"/><path d=" M 297.0000,154.2462 L 297.0000,148.2462 L 303.0000,148.2462 L 303.0000,154.2462 L 297.0000,154.2462 z " style="fill: #3465a4; fill-opacity: 1.00; stroke: none; cursor: pointer;" id="ezcGraphPolygon_121" onclick="top.location = 'http://127.0.0.1/linux-hardware.org/index.php?view=computers&amp;f=node_location&amp;v=USA&amp;p=-1&amp;p=69'"/><path d=" M 342.7143,154.2462 L 342.7143,148.2462 L 348.7143,148.2462 L 348.7143,154.2462 L 342.7143,154.2462 z " style="fill: #3465a4; fill-opacity: 1.00; stroke: none; cursor: pointer;" id="ezcGraphPolygon_122" onclick="top.location = 'http://127.0.0.1/linux-hardware.org/index.php?view=computers&amp;f=node_location&amp;v=USA&amp;p=-1&amp;p=70'"/><path d=" M 388.4286,129.3231 L 388.4286,123.3231 L 394.4286,123.3231 L 394.4286,129.3231 L 388.4286,129.3231 z " style="fill: #3465a4; fill-opacity: 1.00; stroke: none; cursor: pointer;" id="ezcGraphPolygon_123" onclick="top.location = 'http://127.0.0.1/linux-hardware.org/index.php?view=computers&amp;f=node_location&amp;v=USA&amp;p=-1&amp;p=71'"/><path d=" M 434.1429,84.4615 L 434.1429,78.4615 L 440.1429,78.4615 L 440.1429,84.4615 L 434.1429,84.4615 z " style="fill: #3465a4; fill-opacity: 1.00; stroke: none; cursor: pointer;" id="ezcGraphPolygon_124" onclick="top.location = 'http://127.0.0.1/linux-hardware.org/index.php?view=computers&amp;f=node_location&amp;v=USA&amp;p=-1&amp;p=72'"/><path d=" M 159.8571,242.3077 L 159.8571,236.3077 L 165.8571,236.3077 L 165.8571,242.3077 L 159.8571,242.3077 z " style="fill: #4e9a06; fill-opacity: 1.00; stroke: none; cursor: pointer;" id="ezcGraphPolygon_125" onclick="top.location = 'http://127.0.0.1/linux-hardware.org/index.php?view=computers&amp;f=node_location&amp;v=Germany&amp;p=-1&amp;p=66'"/><path d=" M 205.5714,199.1077 L 205.5714,193.1077 L 211.5714,193.1077 L 211.5714,199.1077 L 205.5714,199.1077 z " style="fill: #4e9a06; fill-opacity: 1.00; stroke: none; cursor: pointer;" id="ezcGraphPolygon_126" onclick="top.location = 'http://127.0.0.1/linux-hardware.org/index.php?view=computers&amp;f=node_location&amp;v=Germany&amp;p=-1&amp;p=67'"/><path d=" M 251.2857,202.4308 L 251.2857,196.4308 L 257.2857,196.4308 L 257.2857,202.4308 L 251.2857,202.4308 z " style="fill: #4e9a06; fill-opacity: 1.00; stroke: none; cursor: pointer;" id="ezcGraphPolygon_127" onclick="top.location = 'http://127.0.0.1/linux-hardware.org/index.php?view=computers&amp;f=node_location&amp;v=Germany&amp;p=-1&amp;p=68'"/><path d=" M 297.0000,224.0308 L 297.0000,218.0308 L 303.0000,218.0308 L 303.0000,224.0308 L 297.0000,224.0308 z " style="fill: #4e9a06; fill-opacity: 1.00; stroke: none; cursor: pointer;" id="ezcGraphPolygon_128" onclick="top.location = 'http://127.0.0.1/linux-hardware.org/index.php?view=computers&amp;f=node_location&amp;v=Germany&amp;p=-1&amp;p=69'"/><path d=" M 342.7143,225.6923 L 342.7143,219.6923 L 348.7143,219.6923 L 348.7143,225.6923 L 342.7143,225.6923 z " style="fill: #4e9a06; fill-opacity: 1.00; stroke: none; cursor: pointer;" id="ezcGraphPolygon_129" onclick="top.location = 'http://127.0.0.1/linux-hardware.org/index.php?view=computers&amp;f=node_location&amp;v=Germany&amp;p=-1&amp;p=70'"/><path d=" M 388.4286,195.7846 L 388.4286,189.7846 L 394.4286,189.7846 L 394.4286,195.7846 L 388.4286,195.7846 z " style="fill: #4e9a06; fill-opacity: 1.00; stroke: none; cursor: pointer;" id="ezcGraphPolygon_130" onclick="top.location = 'http://127.0.0.1/linux-hardware.org/index.php?view=computers&amp;f=node_location&amp;v=Germany&amp;p=-1&amp;p=71'"/><path d=" M 434.1429,187.4769 L 434.1429,181.4769 L 440.1429,181.4769 L 440.1429,187.4769 L 434.1429,187.4769 z " style="fill: #4e9a06; fill-opacity: 1.00; stroke: none; cursor: pointer;" id="ezcGraphPolygon_131" onclick="top.location = 'http://127.0.0.1/linux-hardware.org/index.php?view=computers&amp;f=node_location&amp;v=Germany&amp;p=-1&amp;p=72'"/><path d=" M 159.8571,220.7077 L 159.8571,214.7077 L 165.8571,214.7077 L 165.8571,220.7077 L 159.8571,220.7077 z " style="fill: #cc0000; fill-opacity: 1.00; stroke: none; cursor: pointer;" id="ezcGraphPolygon_132" onclick="top.location = 'http://127.0.0.1/linux-hardware.org/index.php?view=computers&amp;f=node_location&amp;v=Brazil&amp;p=-1&amp;p=66'"/><path d=" M 205.5714,215.7231 L 205.5714,209.7231 L 211.5714,209.7231 L 211.5714,215.7231 L 205.5714,215.7231 z " style="fill: #cc0000; fill-opacity: 1.00; stroke: none; cursor: pointer;" id="ezcGraphPolygon_133" onclick="top.location = 'http://127.0.0.1/linux-hardware.org/index.php?view=computers&amp;f=node_location&amp;v=Brazil&amp;p=-1&amp;p=67'"/><path d=" M 251.2857,220.7077 L 251.2857,214.7077 L 257.2857,214.7077 L 257.2857,220.7077 L 251.2857,220.7077 z " style="fill: #cc0000; fill-opacity: 1.00; stroke: none; cursor: pointer;" id="ezcGraphPolygon_134" onclick="top.location = 'http://127.0.0.1/linux-hardware.org/index.php?view=computers&amp;f=node_location&amp;v=Brazil&amp;p=-1&amp;p=68'"/><path d=" M 297.0000,224.0308 L 297.0000,218.0308 L 303.0000,218.0308 L 303.0000,224.0308 L 297.0000,224.0308 z " style="fill: #cc0000; fill-opacity: 1.00; stroke: none; cursor: pointer;" id="ezcGraphPolygon_135" onclick="top.location = 'http://127.0.0.1/linux-hardware.org/index.php?view=computers&amp;f=node_location&amp;v=Brazil&amp;p=-1&amp;p=69'"/><path d=" M 342.7143,248.9538 L 342.7143,242.9538 L 348.7143,242.9538 L 348.7143,248.9538 L 342.7143,248.9538 z " style="fill: #cc0000; fill-opacity: 1.00; stroke: none; cursor: pointer;" id="ezcGraphPolygon_136" onclick="top.location = 'http://127.0.0.1/linux-hardware.org/index.php?view=computers&amp;f=node_location&amp;v=Brazil&amp;p=-1&amp;p=70'"/><path d=" M 388.4286,285.5077 L 388.4286,279.5077 L 394.4286,279.5077 L 394.4286,285.5077 L 388.4286,285.5077 z " style="fill: #cc0000; fill-opacity: 1.00; stroke: none; cursor: pointer;" id="ezcGraphPolygon_137" onclick="top.location = 'http://127.0.0.1/linux-hardware.org/index.php?view=computers&amp;f=node_location&amp;v=Brazil&amp;p=-1&amp;p=71'"/><path d=" M 434.1429,267.2308 L 434.1429,261.2308 L 440.1429,261.2308 L 440.1429,267.2308 L 434.1429,267.2308 z " style="fill: #cc0000; fill-opacity: 1.00; stroke: none; cursor: pointer;" id="ezcGraphPolygon_138" onclick="top.location = 'http://127.0.0.1/linux-hardware.org/index.php?view=computers&amp;f=node_location&amp;v=Brazil&amp;p=-1&amp;p=72'"/><path d=" M 159.8571,327.0462 L 159.8571,321.0462 L 165.8571,321.0462 L 165.8571,327.0462 L 159.8571,327.0462 z " style="fill: #edd400; fill-opacity: 1.00; stroke: none; cursor: pointer;" id="ezcGraphPolygon_139" onclick="top.location = 'http://127.0.0.1/linux-hardware.org/index.php?view=computers&amp;f=node_location&amp;v=Russia&amp;p=-1&amp;p=66'"/><path d=" M 205.5714,305.4462 L 205.5714,299.4462 L 211.5714,299.4462 L 211.5714,305.4462 L 205.5714,305.4462 z " style="fill: #edd400; fill-opacity: 1.00; stroke: none; cursor: pointer;" id="ezcGraphPolygon_140" onclick="top.location = 'http://127.0.0.1/linux-hardware.org/index.php?view=computers&amp;f=node_location&amp;v=Russia&amp;p=-1&amp;p=67'"/><path d=" M 251.2857,293.8154 L 251.2857,287.8154 L 257.2857,287.8154 L 257.2857,293.8154 L 251.2857,293.8154 z " style="fill: #edd400; fill-opacity: 1.00; stroke: none; cursor: pointer;" id="ezcGraphPolygon_141" onclick="top.location = 'http://127.0.0.1/linux-hardware.org/index.php?view=computers&amp;f=node_location&amp;v=Russia&amp;p=-1&amp;p=68'"/><path d=" M 297.0000,348.6462 L 297.0000,342.6462 L 303.0000,342.6462 L 303.0000,348.6462 L 297.0000,348.6462 z " style="fill: #edd400; fill-opacity: 1.00; stroke: none; cursor: pointer;" id="ezcGraphPolygon_142" onclick="top.location = 'http://127.0.0.1/linux-hardware.org/index.php?view=computers&amp;f=node_location&amp;v=Russia&amp;p=-1&amp;p=69'"/><path d=" M 342.7143,307.1077 L 342.7143,301.1077 L 348.7143,301.1077 L 348.7143,307.1077 L 342.7143,307.1077 z " style="fill: #edd400; fill-opacity: 1.00; stroke: none; cursor: pointer;" id="ezcGraphPolygon_143" onclick="top.location = 'http://127.0.0.1/linux-hardware.org/index.php?view=computers&amp;f=node_location&amp;v=Russia&amp;p=-1&amp;p=70'"/><path d=" M 388.4286,320.4000 L 388.4286,314.4000 L 394.4286,314.4000 L 394.4286,320.4000 L 388.4286,320.4000 z " style="fill: #edd400; fill-opacity: 1.00; stroke: none; cursor: pointer;" id="ezcGraphPolygon_144" onclick="top.location = 'http://127.0.0.1/linux-hardware.org/index.php?view=computers&amp;f=node_location&amp;v=Russia&amp;p=-1&amp;p=71'"/><path d=" M 434.1429,270.5538 L 434.1429,264.5538 L 440.1429,264.5538 L 440.1429,270.5538 L 434.1429,270.5538 z " style="fill: #edd400; fill-opacity: 1.00; stroke: none; cursor: pointer;" id="ezcGraphPolygon_145" onclick="top.location = 'http://127.0.0.1/linux-hardware.org/index.php?view=computers&amp;f=node_location&amp;v=Russia&amp;p=-1&amp;p=72'"/><path d=" M 159.8571,312.0923 L 159.8571,306.0923 L 165.8571,306.0923 L 165.8571,312.0923 L 159.8571,312.0923 z " style="fill: #75505b; fill-opacity: 1.00; stroke: none; cursor: pointer;" id="ezcGraphPolygon_146" onclick="top.location = 'http://127.0.0.1/linux-hardware.org/index.php?view=computers&amp;f=node_location&amp;v=Italy&amp;p=-1&amp;p=66'"/><path d=" M 205.5714,312.0923 L 205.5714,306.0923 L 211.5714,306.0923 L 211.5714,312.0923 L 205.5714,312.0923 z " style="fill: #75505b; fill-opacity: 1.00; stroke: none; cursor: pointer;" id="ezcGraphPolygon_147" onclick="top.location = 'http://127.0.0.1/linux-hardware.org/index.php?view=computers&amp;f=node_location&amp;v=Italy&amp;p=-1&amp;p=67'"/><path d=" M 251.2857,290.4923 L 251.2857,284.4923 L 257.2857,284.4923 L 257.2857,290.4923 L 251.2857,290.4923 z " style="fill: #75505b; fill-opacity: 1.00; stroke: none; cursor: pointer;" id="ezcGraphPolygon_148" onclick="top.location = 'http://127.0.0.1/linux-hardware.org/index.php?view=computers&amp;f=node_location&amp;v=Italy&amp;p=-1&amp;p=68'"/><path d=" M 297.0000,313.7538 L 297.0000,307.7538 L 303.0000,307.7538 L 303.0000,313.7538 L 297.0000,313.7538 z " style="fill: #75505b; fill-opacity: 1.00; stroke: none; cursor: pointer;" id="ezcGraphPolygon_149" onclick="top.location = 'http://127.0.0.1/linux-hardware.org/index.php?view=computers&amp;f=node_location&amp;v=Italy&amp;p=-1&amp;p=69'"/><path d=" M 342.7143,318.7385 L 342.7143,312.7385 L 348.7143,312.7385 L 348.7143,318.7385 L 342.7143,318.7385 z " style="fill: #75505b; fill-opacity: 1.00; stroke: none; cursor: pointer;" id="ezcGraphPolygon_150" onclick="top.location = 'http://127.0.0.1/linux-hardware.org/index.php?view=computers&amp;f=node_location&amp;v=Italy&amp;p=-1&amp;p=70'"/><path d=" M 388.4286,302.1231 L 388.4286,296.1231 L 394.4286,296.1231 L 394.4286,302.1231 L 388.4286,302.1231 z " style="fill: #75505b; fill-opacity: 1.00; stroke: none; cursor: pointer;" id="ezcGraphPolygon_151" onclick="top.location = 'http://127.0.0.1/linux-hardware.org/index.php?view=computers&amp;f=node_location&amp;v=Italy&amp;p=-1&amp;p=71'"/><path d=" M 434.1429,292.1538 L 434.1429,286.1538 L 440.1429,286.1538 L 440.1429,292.1538 L 434.1429,292.1538 z " style="fill: #75505b; fill-opacity: 1.00; stroke: none; cursor: pointer;" id="ezcGraphPolygon_152" onclick="top.location = 'http://127.0.0.1/linux-hardware.org/index.php?view=computers&amp;f=node_location&amp;v=Italy&amp;p=-1&amp;p=72'"/><g id="ezcGraphTextBox_3"><path d=" M 164.7000,42.0000 L 164.7000,0.5000 L 335.8000,0.5000 L 335.8000,42.0000 L 164.7000,42.0000 z " style="fill: #ffffff; fill-opacity: 0.00; stroke: none;" id="ezcGraphPolygon_153"/><text id="ezcGraphTextBox_3_text" x="165.2000" text-length="169.6000px" y="35.0000" style="font-size: 40px; font-family: 'Arial'; fill: #2e3436; fill-opacity: 1.00; stroke: none;">Timeline</text></g><g id="ezcGraphTextBox_6" style=" cursor: pointer;" onclick="top.location = 'http://127.0.0.1/linux-hardware.org/index.php?view=computers&amp;f=node_location&amp;v=USA&amp;p=-1'"><path d=" M 16.5000,59.0000 L 16.5000,43.5000 L 40.2600,43.5000 L 40.2600,59.0000 L 16.5000,59.0000 z " style="fill: #ffffff; fill-opacity: 0.00; stroke: none;" id="ezcGraphPolygon_154"/><text id="ezcGraphTextBox_6_text" x="17.0000" text-length="22.2600px" y="55.9000" style="font-size: 14px; font-family: 'Arial'; fill: #2e3436; fill-opacity: 1.00; stroke: none;">USA</text></g><g id="ezcGraphTextBox_8" style=" cursor: pointer;" onclick="top.location = 'http://127.0.0.1/linux-hardware.org/index.php?view=computers&amp;f=node_location&amp;v=Germany&amp;p=-1'"><path d=" M 16.5000,77.0000 L 16.5000,61.5000 L 69.9400,61.5000 L 69.9400,77.0000 L 16.5000,77.0000 z " style="fill: #ffffff; fill-opacity: 0.00; stroke: none;" id="ezcGraphPolygon_155"/><text id="ezcGraphTextBox_8_text" x="17.0000" text-length="51.9400px" y="73.9000" style="font-size: 14px; font-family: 'Arial'; fill: #2e3436; fill-opacity: 1.00; stroke: none;">Germany</text></g><g id="ezcGraphTextBox_10" style=" cursor: pointer;" onclick="top.location = 'http://127.0.0.1/linux-hardware.org/index.php?view=computers&amp;f=node_location&amp;v=Brazil&amp;p=-1'"><path d=" M 16.5000,95.0000 L 16.5000,79.5000 L 62.5200,79.5000 L 62.5200,95.0000 L 16.5000,95.0000 z " style="fill: #ffffff; fill-opacity: 0.00; stroke: none;" id="ezcGraphPolygon_156"/><text id="ezcGraphTextBox_10_text" x="17.0000" text-length="44.5200px" y="91.9000" style="font-size: 14px; font-family: 'Arial'; fill: #2e3436; fill-opacity: 1.00; stroke: none;">Brazil</text></g><g id="ezcGraphTextBox_12" style=" cursor: pointer;" onclick="top.location = 'http://127.0.0.1/linux-hardware.org/index.php?view=computers&amp;f=node_location&amp;v=Russia&amp;p=-1'"><path d=" M 16.5000,113.0000 L 16.5000,97.5000 L 62.5200,97.5000 L 62.5200,113.0000 L 16.5000,113.0000 z " style="fill: #ffffff; fill-opacity: 0.00; stroke: none;" id="ezcGraphPolygon_157"/><text id="ezcGraphTextBox_12_text" x="17.0000" text-length="44.5200px" y="109.9000" style="font-size: 14px; font-family: 'Arial'; fill: #2e3436; fill-opacity: 1.00; stroke: none;">Russia</text></g><g id="ezcGraphTextBox_14" style=" cursor: pointer;" onclick="top.location = 'http://127.0.0.1/linux-hardware.org/index.php?view=computers&amp;f=node_location&amp;v=Italy&amp;p=-1'"><path d=" M 16.5000,131.0000 L 16.5000,115.5000 L 55.1000,115.5000 L 55.1000,131.0000 L 16.5000,131.0000 z " style="fill: #ffffff; fill-opacity: 0.00; stroke: none;" id="ezcGraphPolygon_158"/><text id="ezcGraphTextBox_14_text" x="17.0000" text-length="37.1000px" y="127.9000" style="font-size: 14px; font-family: 'Arial'; fill: #2e3436; fill-opacity: 1.00; stroke: none;">Italy</text></g><g id="ezcGraphTextBox_17" transform="rotate( 0.00 493.0000 375.2000 )"><path d=" M 460.4000,381.2000 L 460.4000,365.7000 L 499.0000,365.7000 L 499.0000,381.2000 L 460.4000,381.2000 z " style="fill: #ffffff; fill-opacity: 0.00; stroke: none;" id="ezcGraphPolygon_159"/><text id="ezcGraphTextBox_17_text" x="460.9000" text-length="37.1000px" y="378.1000" style="font-size: 14px; font-family: 'Arial'; fill: #2e3436; fill-opacity: 1.00; stroke: none;">Time </text></g><g id="ezcGraphTextBox_18"><path d=" M 144.9971,413.3000 L 144.9971,383.7000 L 181.2171,383.7000 L 181.2171,413.3000 L 144.9971,413.3000 z " style="fill: #ffffff; fill-opacity: 0.00; stroke: none;" id="ezcGraphPolygon_160"/><text id="ezcGraphTextBox_18_text" x="151.7271" text-length="22.2600px" y="396.1000" style="font-size: 14px; font-family: 'Arial'; fill: #2e3436; fill-opacity: 1.00; stroke: none;">Jun</text><text id="ezcGraphTextBox_18_text" x="145.4971" text-length="34.7200px" y="411.5000" style="font-size: 14px; font-family: 'Arial'; fill: #2e3436; fill-opacity: 1.00; stroke: none;">2019</text></g><g id="ezcGraphTextBox_21"><path d=" M 190.7114,413.3000 L 190.7114,383.7000 L 226.9314,383.7000 L 226.9314,413.3000 L 190.7114,413.3000 z " style="fill: #ffffff; fill-opacity: 0.00; stroke: none;" id="ezcGraphPolygon_161"/><text id="ezcGraphTextBox_21_text" x="197.4414" text-length="22.2600px" y="396.1000" style="font-size: 14px; font-family: 'Arial'; fill: #2e3436; fill-opacity: 1.00; stroke: none;">Jul</text><text id="ezcGraphTextBox_21_text" x="191.2114" text-length="34.7200px" y="411.5000" style="font-size: 14px; font-family: 'Arial'; fill: #2e3436; fill-opacity: 1.00; stroke: none;">2019</text></g><g id="ezcGraphTextBox_24"><path d=" M 236.4257,413.3000 L 236.4257,383.7000 L 272.6457,383.7000 L 272.6457,413.3000 L 236.4257,413.3000 z " style="fill: #ffffff; fill-opacity: 0.00; stroke: none;" id="ezcGraphPolygon_162"/><text id="ezcGraphTextBox_24_text" x="243.1557" text-length="22.2600px" y="396.1000" style="font-size: 14px; font-family: 'Arial'; fill: #2e3436; fill-opacity: 1.00; stroke: none;">Aug</text><text id="ezcGraphTextBox_24_text" x="236.9257" text-length="34.7200px" y="411.5000" style="font-size: 14px; font-family: 'Arial'; fill: #2e3436; fill-opacity: 1.00; stroke: none;">2019</text></g><g id="ezcGraphTextBox_27"><path d=" M 282.1400,413.3000 L 282.1400,383.7000 L 318.3600,383.7000 L 318.3600,413.3000 L 282.1400,413.3000 z " style="fill: #ffffff; fill-opacity: 0.00; stroke: none;" id="ezcGraphPolygon_163"/><text id="ezcGraphTextBox_27_text" x="288.8700" text-length="22.2600px" y="396.1000" style="font-size: 14px; font-family: 'Arial'; fill: #2e3436; fill-opacity: 1.00; stroke: none;">Sep</text><text id="ezcGraphTextBox_27_text" x="282.6400" text-length="34.7200px" y="411.5000" style="font-size: 14px; font-family: 'Arial'; fill: #2e3436; fill-opacity: 1.00; stroke: none;">2019</text></g><g id="ezcGraphTextBox_30"><path d=" M 327.8543,413.3000 L 327.8543,383.7000 L 364.0743,383.7000 L 364.0743,413.3000 L 327.8543,413.3000 z " style="fill: #ffffff; fill-opacity: 0.00; stroke: none;" id="ezcGraphPolygon_164"/><text id="ezcGraphTextBox_30_text" x="334.5843" text-length="22.2600px" y="396.1000" style="font-size: 14px; font-family: 'Arial'; fill: #2e3436; fill-opacity: 1.00; stroke: none;">Oct</text><text id="ezcGraphTextBox_30_text" x="328.3543" text-length="34.7200px" y="411.5000" style="font-size: 14px; font-family: 'Arial'; fill: #2e3436; fill-opacity: 1.00; stroke: none;">2019</text></g><g id="ezcGraphTextBox_33"><path d=" M 373.5686,413.3000 L 373.5686,383.7000 L 409.7886,383.7000 L 409.7886,413.3000 L 373.5686,413.3000 z " style="fill: #ffffff; fill-opacity: 0.00; stroke: none;" id="ezcGraphPolygon_165"/><text id="ezcGraphTextBox_33_text" x="380.2986" text-length="22.2600px" y="396.1000" style="font-size: 14px; font-family: 'Arial'; fill: #2e3436; fill-opacity: 1.00; stroke: none;">Nov</text><text id="ezcGraphTextBox_33_text" x="374.0686" text-length="34.7200px" y="411.5000" style="font-size: 14px; font-family: 'Arial'; fill: #2e3436; fill-opacity: 1.00; stroke: none;">2019</text></g><g id="ezcGraphTextBox_36"><path d=" M 419.2829,413.3000 L 419.2829,383.7000 L 455.5029,383.7000 L 455.5029,413.3000 L 419.2829,413.3000 z " style="fill: #ffffff; fill-opacity: 0.00; stroke: none;" id="ezcGraphPolygon_166"/><text id="ezcGraphTextBox_36_text" x="426.0129" text-length="22.2600px" y="396.1000" style="font-size: 14px; font-family: 'Arial'; fill: #2e3436; fill-opacity: 1.00; stroke: none;">Dec</text><text id="ezcGraphTextBox_36_text" x="419.7829" text-length="34.7200px" y="411.5000" style="font-size: 14px; font-family: 'Arial'; fill: #2e3436; fill-opacity: 1.00; stroke: none;">2019</text></g><g id="ezcGraphTextBox_41" transform="rotate( 0.00 147.0000 49.0000 )"><path d=" M 141.5000,59.0000 L 141.5000,43.5000 L 291.4000,43.5000 L 291.4000,59.0000 L 141.5000,59.0000 z " style="fill: #ffffff; fill-opacity: 0.00; stroke: none;" id="ezcGraphPolygon_167"/><text id="ezcGraphTextBox_41_text" x="142.0000" text-length="148.4000px" y="55.9000" style="font-size: 14px; font-family: 'Arial'; fill: #2e3436; fill-opacity: 1.00; stroke: none;">Computers by Country</text></g><g id="ezcGraphTextBox_42"><path d=" M 128.8200,381.2000 L 128.8200,365.7000 L 139.0000,365.7000 L 139.0000,381.2000 L 128.8200,381.2000 z " style="fill: #ffffff; fill-opacity: 0.00; stroke: none;" id="ezcGraphPolygon_168"/><text id="ezcGraphTextBox_42_text" x="129.3200" text-length="8.6800px" y="378.1000" style="font-size: 14px; font-family: 'Arial'; fill: #2e3436; fill-opacity: 1.00; stroke: none;">0</text></g><g id="ezcGraphTextBox_47"><path d=" M 111.4600,96.8000 L 111.4600,81.3000 L 139.0000,81.3000 L 139.0000,96.8000 L 111.4600,96.8000 z " style="fill: #ffffff; fill-opacity: 0.00; stroke: none;" id="ezcGraphPolygon_169"/><text id="ezcGraphTextBox_47_text" x="111.9600" text-length="26.0400px" y="93.7000" style="font-size: 14px; font-family: 'Arial'; fill: #2e3436; fill-opacity: 1.00; stroke: none;">182</text></g><g id="ezcGraphTextBox_49"><path d=" M 153.0571,93.0769 L 153.0571,81.5769 L 173.1571,81.5769 L 173.1571,93.0769 L 153.0571,93.0769 z " style="fill: #ffffff; fill-opacity: 0.00; stroke: none;" id="ezcGraphPolygon_170"/><text id="ezcGraphTextBox_49_text" x="153.5571" text-length="18.6000px" y="90.5769" style="font-size: 10px; font-family: 'Arial'; fill: #2e3436; fill-opacity: 1.00; stroke: none;">171</text></g><g id="ezcGraphTextBox_51"><path d=" M 198.7714,79.7846 L 198.7714,68.2846 L 218.8714,68.2846 L 218.8714,79.7846 L 198.7714,79.7846 z " style="fill: #ffffff; fill-opacity: 0.00; stroke: none;" id="ezcGraphPolygon_171"/><text id="ezcGraphTextBox_51_text" x="199.2714" text-length="18.6000px" y="77.2846" style="font-size: 10px; font-family: 'Arial'; fill: #2e3436; fill-opacity: 1.00; stroke: none;">179</text></g><g id="ezcGraphTextBox_53"><path d=" M 244.4857,94.7385 L 244.4857,83.2385 L 264.5857,83.2385 L 264.5857,94.7385 L 244.4857,94.7385 z " style="fill: #ffffff; fill-opacity: 0.00; stroke: none;" id="ezcGraphPolygon_172"/><text id="ezcGraphTextBox_53_text" x="244.9857" text-length="18.6000px" y="92.2385" style="font-size: 10px; font-family: 'Arial'; fill: #2e3436; fill-opacity: 1.00; stroke: none;">170</text></g><g id="ezcGraphTextBox_55"><path d=" M 290.2000,146.2462 L 290.2000,134.7462 L 310.3000,134.7462 L 310.3000,146.2462 L 290.2000,146.2462 z " style="fill: #ffffff; fill-opacity: 0.00; stroke: none;" id="ezcGraphPolygon_173"/><text id="ezcGraphTextBox_55_text" x="290.7000" text-length="18.6000px" y="143.7462" style="font-size: 10px; font-family: 'Arial'; fill: #2e3436; fill-opacity: 1.00; stroke: none;">139</text></g><g id="ezcGraphTextBox_57"><path d=" M 335.9143,146.2462 L 335.9143,134.7462 L 356.0143,134.7462 L 356.0143,146.2462 L 335.9143,146.2462 z " style="fill: #ffffff; fill-opacity: 0.00; stroke: none;" id="ezcGraphPolygon_174"/><text id="ezcGraphTextBox_57_text" x="336.4143" text-length="18.6000px" y="143.7462" style="font-size: 10px; font-family: 'Arial'; fill: #2e3436; fill-opacity: 1.00; stroke: none;">139</text></g><g id="ezcGraphTextBox_59"><path d=" M 381.6286,121.3231 L 381.6286,109.8231 L 401.7286,109.8231 L 401.7286,121.3231 L 381.6286,121.3231 z " style="fill: #ffffff; fill-opacity: 0.00; stroke: none;" id="ezcGraphPolygon_175"/><text id="ezcGraphTextBox_59_text" x="382.1286" text-length="18.6000px" y="118.8231" style="font-size: 10px; font-family: 'Arial'; fill: #2e3436; fill-opacity: 1.00; stroke: none;">154</text></g><g id="ezcGraphTextBox_61"><path d=" M 427.3429,76.4615 L 427.3429,64.9615 L 447.4429,64.9615 L 447.4429,76.4615 L 427.3429,76.4615 z " style="fill: #ffffff; fill-opacity: 0.00; stroke: none;" id="ezcGraphPolygon_176"/><text id="ezcGraphTextBox_61_text" x="427.8429" text-length="18.6000px" y="73.9615" style="font-size: 10px; font-family: 'Arial'; fill: #2e3436; fill-opacity: 1.00; stroke: none;">181</text></g><g id="ezcGraphTextBox_63"><path d=" M 156.1571,234.3077 L 156.1571,222.8077 L 170.0571,222.8077 L 170.0571,234.3077 L 156.1571,234.3077 z " style="fill: #ffffff; fill-opacity: 0.00; stroke: none;" id="ezcGraphPolygon_177"/><text id="ezcGraphTextBox_63_text" x="156.6571" text-length="12.4000px" y="231.8077" style="font-size: 10px; font-family: 'Arial'; fill: #2e3436; fill-opacity: 1.00; stroke: none;">86</text></g><g id="ezcGraphTextBox_65"><path d=" M 198.7714,191.1077 L 198.7714,179.6077 L 218.8714,179.6077 L 218.8714,191.1077 L 198.7714,191.1077 z " style="fill: #ffffff; fill-opacity: 0.00; stroke: none;" id="ezcGraphPolygon_178"/><text id="ezcGraphTextBox_65_text" x="199.2714" text-length="18.6000px" y="188.6077" style="font-size: 10px; font-family: 'Arial'; fill: #2e3436; fill-opacity: 1.00; stroke: none;">112</text></g><g id="ezcGraphTextBox_67"><path d=" M 244.4857,194.4308 L 244.4857,182.9308 L 264.5857,182.9308 L 264.5857,194.4308 L 244.4857,194.4308 z " style="fill: #ffffff; fill-opacity: 0.00; stroke: none;" id="ezcGraphPolygon_179"/><text id="ezcGraphTextBox_67_text" x="244.9857" text-length="18.6000px" y="191.9308" style="font-size: 10px; font-family: 'Arial'; fill: #2e3436; fill-opacity: 1.00; stroke: none;">110</text></g><g id="ezcGraphTextBox_69"><path d=" M 293.3000,216.0308 L 293.3000,204.5308 L 307.2000,204.5308 L 307.2000,216.0308 L 293.3000,216.0308 z " style="fill: #ffffff; fill-opacity: 0.00; stroke: none;" id="ezcGraphPolygon_180"/><text id="ezcGraphTextBox_69_text" x="293.8000" text-length="12.4000px" y="213.5308" style="font-size: 10px; font-family: 'Arial'; fill: #2e3436; fill-opacity: 1.00; stroke: none;">97</text></g><g id="ezcGraphTextBox_71"><path d=" M 339.0143,217.6923 L 339.0143,206.1923 L 352.9143,206.1923 L 352.9143,217.6923 L 339.0143,217.6923 z " style="fill: #ffffff; fill-opacity: 0.00; stroke: none;" id="ezcGraphPolygon_181"/><text id="ezcGraphTextBox_71_text" x="339.5143" text-length="12.4000px" y="215.1923" style="font-size: 10px; font-family: 'Arial'; fill: #2e3436; fill-opacity: 1.00; stroke: none;">96</text></g><g id="ezcGraphTextBox_73"><path d=" M 381.6286,187.7846 L 381.6286,176.2846 L 401.7286,176.2846 L 401.7286,187.7846 L 381.6286,187.7846 z " style="fill: #ffffff; fill-opacity: 0.00; stroke: none;" id="ezcGraphPolygon_182"/><text id="ezcGraphTextBox_73_text" x="382.1286" text-length="18.6000px" y="185.2846" style="font-size: 10px; font-family: 'Arial'; fill: #2e3436; fill-opacity: 1.00; stroke: none;">114</text></g><g id="ezcGraphTextBox_75"><path d=" M 427.3429,179.4769 L 427.3429,167.9769 L 447.4429,167.9769 L 447.4429,179.4769 L 427.3429,179.4769 z " style="fill: #ffffff; fill-opacity: 0.00; stroke: none;" id="ezcGraphPolygon_183"/><text id="ezcGraphTextBox_75_text" x="427.8429" text-length="18.6000px" y="176.9769" style="font-size: 10px; font-family: 'Arial'; fill: #2e3436; fill-opacity: 1.00; stroke: none;">119</text></g><g id="ezcGraphTextBox_77"><path d=" M 156.1571,212.7077 L 156.1571,201.2077 L 170.0571,201.2077 L 170.0571,212.7077 L 156.1571,212.7077 z " style="fill: #ffffff; fill-opacity: 0.00; stroke: none;" id="ezcGraphPolygon_184"/><text id="ezcGraphTextBox_77_text" x="156.6571" text-length="12.4000px" y="210.2077" style="font-size: 10px; font-family: 'Arial'; fill: #2e3436; fill-opacity: 1.00; stroke: none;">99</text></g><g id="ezcGraphTextBox_79"><path d=" M 198.7714,207.7231 L 198.7714,196.2231 L 218.8714,196.2231 L 218.8714,207.7231 L 198.7714,207.7231 z " style="fill: #ffffff; fill-opacity: 0.00; stroke: none;" id="ezcGraphPolygon_185"/><text id="ezcGraphTextBox_79_text" x="199.2714" text-length="18.6000px" y="205.2231" style="font-size: 10px; font-family: 'Arial'; fill: #2e3436; fill-opacity: 1.00; stroke: none;">102</text></g><g id="ezcGraphTextBox_81"><path d=" M 247.5857,212.7077 L 247.5857,201.2077 L 261.4857,201.2077 L 261.4857,212.7077 L 247.5857,212.7077 z " style="fill: #ffffff; fill-opacity: 0.00; stroke: none;" id="ezcGraphPolygon_186"/><text id="ezcGraphTextBox_81_text" x="248.0857" text-length="12.4000px" y="210.2077" style="font-size: 10px; font-family: 'Arial'; fill: #2e3436; fill-opacity: 1.00; stroke: none;">99</text></g><g id="ezcGraphTextBox_83"><path d=" M 293.3000,216.0308 L 293.3000,204.5308 L 307.2000,204.5308 L 307.2000,216.0308 L 293.3000,216.0308 z " style="fill: #ffffff; fill-opacity: 0.00; stroke: none;" id="ezcGraphPolygon_187"/><text id="ezcGraphTextBox_83_text" x="293.8000" text-length="12.4000px" y="213.5308" style="font-size: 10px; font-family: 'Arial'; fill: #2e3436; fill-opacity: 1.00; stroke: none;">97</text></g><g id="ezcGraphTextBox_85"><path d=" M 339.0143,240.9538 L 339.0143,229.4538 L 352.9143,229.4538 L 352.9143,240.9538 L 339.0143,240.9538 z " style="fill: #ffffff; fill-opacity: 0.00; stroke: none;" id="ezcGraphPolygon_188"/><text id="ezcGraphTextBox_85_text" x="339.5143" text-length="12.4000px" y="238.4538" style="font-size: 10px; font-family: 'Arial'; fill: #2e3436; fill-opacity: 1.00; stroke: none;">82</text></g><g id="ezcGraphTextBox_87"><path d=" M 384.7286,277.5077 L 384.7286,266.0077 L 398.6286,266.0077 L 398.6286,277.5077 L 384.7286,277.5077 z " style="fill: #ffffff; fill-opacity: 0.00; stroke: none;" id="ezcGraphPolygon_189"/><text id="ezcGraphTextBox_87_text" x="385.2286" text-length="12.4000px" y="275.0077" style="font-size: 10px; font-family: 'Arial'; fill: #2e3436; fill-opacity: 1.00; stroke: none;">60</text></g><g id="ezcGraphTextBox_89"><path d=" M 430.4429,259.2308 L 430.4429,247.7308 L 444.3429,247.7308 L 444.3429,259.2308 L 430.4429,259.2308 z " style="fill: #ffffff; fill-opacity: 0.00; stroke: none;" id="ezcGraphPolygon_190"/><text id="ezcGraphTextBox_89_text" x="430.9429" text-length="12.4000px" y="256.7308" style="font-size: 10px; font-family: 'Arial'; fill: #2e3436; fill-opacity: 1.00; stroke: none;">71</text></g><g id="ezcGraphTextBox_91"><path d=" M 156.1571,319.0462 L 156.1571,307.5462 L 170.0571,307.5462 L 170.0571,319.0462 L 156.1571,319.0462 z " style="fill: #ffffff; fill-opacity: 0.00; stroke: none;" id="ezcGraphPolygon_191"/><text id="ezcGraphTextBox_91_text" x="156.6571" text-length="12.4000px" y="316.5462" style="font-size: 10px; font-family: 'Arial'; fill: #2e3436; fill-opacity: 1.00; stroke: none;">35</text></g><g id="ezcGraphTextBox_93"><path d=" M 201.8714,297.4462 L 201.8714,285.9462 L 215.7714,285.9462 L 215.7714,297.4462 L 201.8714,297.4462 z " style="fill: #ffffff; fill-opacity: 0.00; stroke: none;" id="ezcGraphPolygon_192"/><text id="ezcGraphTextBox_93_text" x="202.3714" text-length="12.4000px" y="294.9462" style="font-size: 10px; font-family: 'Arial'; fill: #2e3436; fill-opacity: 1.00; stroke: none;">48</text></g><g id="ezcGraphTextBox_95"><path d=" M 247.5857,285.8154 L 247.5857,274.3154 L 261.4857,274.3154 L 261.4857,285.8154 L 247.5857,285.8154 z " style="fill: #ffffff; fill-opacity: 0.00; stroke: none;" id="ezcGraphPolygon_193"/><text id="ezcGraphTextBox_95_text" x="248.0857" text-length="12.4000px" y="283.3154" style="font-size: 10px; font-family: 'Arial'; fill: #2e3436; fill-opacity: 1.00; stroke: none;">55</text></g><g id="ezcGraphTextBox_97"><path d=" M 293.3000,340.6462 L 293.3000,329.1462 L 307.2000,329.1462 L 307.2000,340.6462 L 293.3000,340.6462 z " style="fill: #ffffff; fill-opacity: 0.00; stroke: none;" id="ezcGraphPolygon_194"/><text id="ezcGraphTextBox_97_text" x="293.8000" text-length="12.4000px" y="338.1462" style="font-size: 10px; font-family: 'Arial'; fill: #2e3436; fill-opacity: 1.00; stroke: none;">22</text></g><g id="ezcGraphTextBox_99"><path d=" M 339.0143,299.1077 L 339.0143,287.6077 L 352.9143,287.6077 L 352.9143,299.1077 L 339.0143,299.1077 z " style="fill: #ffffff; fill-opacity: 0.00; stroke: none;" id="ezcGraphPolygon_195"/><text id="ezcGraphTextBox_99_text" x="339.5143" text-length="12.4000px" y="296.6077" style="font-size: 10px; font-family: 'Arial'; fill: #2e3436; fill-opacity: 1.00; stroke: none;">47</text></g><g id="ezcGraphTextBox_101"><path d=" M 384.7286,312.4000 L 384.7286,300.9000 L 398.6286,300.9000 L 398.6286,312.4000 L 384.7286,312.4000 z " style="fill: #ffffff; fill-opacity: 0.00; stroke: none;" id="ezcGraphPolygon_196"/><text id="ezcGraphTextBox_101_text" x="385.2286" text-length="12.4000px" y="309.9000" style="font-size: 10px; font-family: 'Arial'; fill: #2e3436; fill-opacity: 1.00; stroke: none;">39</text></g><g id="ezcGraphTextBox_103"><path d=" M 430.4429,262.5538 L 430.4429,251.0538 L 444.3429,251.0538 L 444.3429,262.5538 L 430.4429,262.5538 z " style="fill: #ffffff; fill-opacity: 0.00; stroke: none;" id="ezcGraphPolygon_197"/><text id="ezcGraphTextBox_103_text" x="430.9429" text-length="12.4000px" y="260.0538" style="font-size: 10px; font-family: 'Arial'; fill: #2e3436; fill-opacity: 1.00; stroke: none;">69</text></g><g id="ezcGraphTextBox_105"><path d=" M 156.1571,304.0923 L 156.1571,292.5923 L 170.0571,292.5923 L 170.0571,304.0923 L 156.1571,304.0923 z " style="fill: #ffffff; fill-opacity: 0.00; stroke: none;" id="ezcGraphPolygon_198"/><text id="ezcGraphTextBox_105_text" x="156.6571" text-length="12.4000px" y="301.5923" style="font-size: 10px; font-family: 'Arial'; fill: #2e3436; fill-opacity: 1.00; stroke: none;">44</text></g><g id="ezcGraphTextBox_107"><path d=" M 201.8714,304.0923 L 201.8714,292.5923 L 215.7714,292.5923 L 215.7714,304.0923 L 201.8714,304.0923 z " style="fill: #ffffff; fill-opacity: 0.00; stroke: none;" id="ezcGraphPolygon_199"/><text id="ezcGraphTextBox_107_text" x="202.3714" text-length="12.4000px" y="301.5923" style="font-size: 10px; font-family: 'Arial'; fill: #2e3436; fill-opacity: 1.00; stroke: none;">44</text></g><g id="ezcGraphTextBox_109"><path d=" M 247.5857,282.4923 L 247.5857,270.9923 L 261.4857,270.9923 L 261.4857,282.4923 L 247.5857,282.4923 z " style="fill: #ffffff; fill-opacity: 0.00; stroke: none;" id="ezcGraphPolygon_200"/><text id="ezcGraphTextBox_109_text" x="248.0857" text-length="12.4000px" y="279.9923" style="font-size: 10px; font-family: 'Arial'; fill: #2e3436; fill-opacity: 1.00; stroke: none;">57</text></g><g id="ezcGraphTextBox_111"><path d=" M 293.3000,305.7538 L 293.3000,294.2538 L 307.2000,294.2538 L 307.2000,305.7538 L 293.3000,305.7538 z " style="fill: #ffffff; fill-opacity: 0.00; stroke: none;" id="ezcGraphPolygon_201"/><text id="ezcGraphTextBox_111_text" x="293.8000" text-length="12.4000px" y="303.2538" style="font-size: 10px; font-family: 'Arial'; fill: #2e3436; fill-opacity: 1.00; stroke: none;">43</text></g><g id="ezcGraphTextBox_113"><path d=" M 339.0143,310.7385 L 339.0143,299.2385 L 352.9143,299.2385 L 352.9143,310.7385 L 339.0143,310.7385 z " style="fill: #ffffff; fill-opacity: 0.00; stroke: none;" id="ezcGraphPolygon_202"/><text id="ezcGraphTextBox_113_text" x="339.5143" text-length="12.4000px" y="308.2385" style="font-size: 10px; font-family: 'Arial'; fill: #2e3436; fill-opacity: 1.00; stroke: none;">40</text></g><g id="ezcGraphTextBox_115"><path d=" M 384.7286,294.1231 L 384.7286,282.6231 L 398.6286,282.6231 L 398.6286,294.1231 L 384.7286,294.1231 z " style="fill: #ffffff; fill-opacity: 0.00; stroke: none;" id="ezcGraphPolygon_203"/><text id="ezcGraphTextBox_115_text" x="385.2286" text-length="12.4000px" y="291.6231" style="font-size: 10px; font-family: 'Arial'; fill: #2e3436; fill-opacity: 1.00; stroke: none;">50</text></g><g id="ezcGraphTextBox_117"><path d=" M 430.4429,284.1538 L 430.4429,272.6538 L 444.3429,272.6538 L 444.3429,284.1538 L 430.4429,284.1538 z " style="fill: #ffffff; fill-opacity: 0.00; stroke: none;" id="ezcGraphPolygon_204"/><text id="ezcGraphTextBox_117_text" x="430.9429" text-length="12.4000px" y="281.6538" style="font-size: 10px; font-family: 'Arial'; fill: #2e3436; fill-opacity: 1.00; stroke: none;">56</text></g></g></svg>
