<?xml version="1.0"?>
<svg xmlns="http://www.w3.org/2000/svg" width="500" height="420" version="1.0" id="ezcGraph"><defs/><g id="ezcGraphChart" color-rendering="optimizeQuality" shape-rendering="geometricPrecision" text-rendering="optimizeLegibility"><path d=" M 0.0000,420.0000 L 0.0000,0.0000 L 500.0000,0.0000 L 500.0000,420.0000 L 0.0000,420.0000 z " style="fill: #eeeeec; fill-opacity: 1.00; stroke: none;" id="ezcGraphPolygon_1"/><path d=" M 0.0000,42.0000 L 0.0000,0.0000 L 500.0000,0.0000 L 500.0000,42.0000 L 0.0000,42.0000 z " style="fill: #000000; fill-opacity: 0.00; stroke: none;" id="ezcGraphPolygon_2"/><path d="M 262.06,234.28 L 374.56,234.28 A 112.50,112.50 0 0,1 359.06,291.27 z" style="fill: #3465a4; fill-opacity: 1.00; stroke: none;" id="ezcGraphCircleSector_4"/><path d="M 263.90,234.78 L 374.06,234.78 A 112.00,112.00 0 0,1 358.88,290.59 z" style="fill: none; stroke: #1a3352; stroke-width: 1; stroke-opacity: 1.00; stroke-linecap: round; stroke-linejoin: round;" id="ezcGraphCircleSector_5"/><path d="M 250.00,231.00 L 347.00,287.99 A 112.50,112.50 0 0,1 333.63,306.25 z" style="fill: #4e9a06; fill-opacity: 1.00; stroke: none;" id="ezcGraphCircleSector_6"/><path d="M 254.01,233.94 L 346.31,288.17 A 112.00,112.00 0 0,1 333.59,305.55 z" style="fill: none; stroke: #274d03; stroke-width: 1; stroke-opacity: 1.00; stroke-linecap: round; stroke-linejoin: round;" id="ezcGraphCircleSector_7"/><path d="M 250.00,231.00 L 333.63,306.25 A 112.50,112.50 0 0,1 320.14,318.96 z" style="fill: #cc0000; fill-opacity: 1.00; stroke: none;" id="ezcGraphCircleSector_8"/><path d="M 254.16,235.42 L 332.92,306.29 A 112.00,112.00 0 0,1 320.22,318.25 z" style="fill: none; stroke: #660000; stroke-width: 1; stroke-opacity: 1.00; stroke-linecap: round; stroke-linejoin: round;" id="ezcGraphCircleSector_9"/><path d="M 250.00,231.00 L 320.14,318.96 A 112.50,112.50 0 0,1 304.76,329.28 z" style="fill: #edd400; fill-opacity: 1.00; stroke: none;" id="ezcGraphCircleSector_10"/><path d="M 253.38,236.04 L 319.44,318.88 A 112.00,112.00 0 0,1 304.95,328.60 z" style="fill: none; stroke: #776a00; stroke-width: 1; stroke-opacity: 1.00; stroke-linecap: round; stroke-linejoin: round;" id="ezcGraphCircleSector_11"/><path d="M 250.00,231.00 L 304.76,329.28 A 112.50,112.50 0 0,1 291.74,335.47 z" style="fill: #75505b; fill-opacity: 1.00; stroke: none;" id="ezcGraphCircleSector_12"/><path d="M 253.35,238.05 L 304.08,329.08 A 112.00,112.00 0 0,1 292.02,334.82 z" style="fill: none; stroke: #3b282e; stroke-width: 1; stroke-opacity: 1.00; stroke-linecap: round; stroke-linejoin: round;" id="ezcGraphCircleSector_13"/><path d="M 250.00,231.00 L 291.74,335.47 A 112.50,112.50 0 1,1 362.50,231.00 z" style="fill: #f57900; fill-opacity: 1.00; stroke: none;" id="ezcGraphCircleSector_14"/><path d="M 249.26,230.50 L 291.09,335.19 A 112.00,112.00 0 1,1 362.00,230.50 z" style="fill: none; stroke: #7b3d00; stroke-width: 1; stroke-opacity: 1.00; stroke-linecap: round; stroke-linejoin: round;" id="ezcGraphCircleSector_15"/><path d=" M 181.0038,184.2671 L 141.1214,160.0000" style="fill: none; stroke: #000000; stroke-width: 1; stroke-opacity: 1.00; stroke-linecap: round; stroke-linejoin: round;" id="ezcGraphLine_16"/><ellipse cx="181.0038" cy="184.2671" rx="3.0000" ry="3.0000" style="fill: #000000; fill-opacity: 1.00; stroke: none;" id="ezcGraphCircle_17"/><ellipse cx="141.1214" cy="160.0000" rx="3.0000" ry="3.0000" style="fill: #000000; fill-opacity: 1.00; stroke: none;" id="ezcGraphCircle_18"/><path d=" M 342.4726,256.1566 L 379.7689,248.5000" style="fill: none; stroke: #000000; stroke-width: 1; stroke-opacity: 1.00; stroke-linecap: round; stroke-linejoin: round;" id="ezcGraphLine_20"/><ellipse cx="342.4726" cy="256.1566" rx="3.0000" ry="3.0000" style="fill: #000000; fill-opacity: 1.00; stroke: none;" id="ezcGraphCircle_21"/><ellipse cx="379.7689" cy="248.5000" rx="3.0000" ry="3.0000" style="fill: #000000; fill-opacity: 1.00; stroke: none;" id="ezcGraphCircle_22"/><path d=" M 317.2382,280.2288 L 369.4405,283.5000" style="fill: none; stroke: #000000; stroke-width: 1; stroke-opacity: 1.00; stroke-linecap: round; stroke-linejoin: round;" id="ezcGraphLine_24"/><ellipse cx="317.2382" cy="280.2288" rx="3.0000" ry="3.0000" style="fill: #000000; fill-opacity: 1.00; stroke: none;" id="ezcGraphCircle_25"/><ellipse cx="369.4405" cy="283.5000" rx="3.0000" ry="3.0000" style="fill: #000000; fill-opacity: 1.00; stroke: none;" id="ezcGraphCircle_26"/><path d=" M 307.1457,291.6533 L 345.2679,318.5000" style="fill: none; stroke: #000000; stroke-width: 1; stroke-opacity: 1.00; stroke-linecap: round; stroke-linejoin: round;" id="ezcGraphLine_28"/><ellipse cx="307.1457" cy="291.6533" rx="3.0000" ry="3.0000" style="fill: #000000; fill-opacity: 1.00; stroke: none;" id="ezcGraphCircle_29"/><ellipse cx="345.2679" cy="318.5000" rx="3.0000" ry="3.0000" style="fill: #000000; fill-opacity: 1.00; stroke: none;" id="ezcGraphCircle_30"/><path d=" M 296.4164,300.2095 L 280.8747,353.5000" style="fill: none; stroke: #000000; stroke-width: 1; stroke-opacity: 1.00; stroke-linecap: round; stroke-linejoin: round;" id="ezcGraphLine_32"/><ellipse cx="296.4164" cy="300.2095" rx="3.0000" ry="3.0000" style="fill: #000000; fill-opacity: 1.00; stroke: none;" id="ezcGraphCircle_33"/><ellipse cx="280.8747" cy="353.5000" rx="3.0000" ry="3.0000" style="fill: #000000; fill-opacity: 1.00; stroke: none;" id="ezcGraphCircle_34"/><path d=" M 285.8128,306.2455 L 285.8128,388.5000" style="fill: none; stroke: #000000; stroke-width: 1; stroke-opacity: 1.00; stroke-linecap: round; stroke-linejoin: round;" id="ezcGraphLine_36"/><ellipse cx="285.8128" cy="306.2455" rx="3.0000" ry="3.0000" style="fill: #000000; fill-opacity: 1.00; stroke: none;" id="ezcGraphCircle_37"/><ellipse cx="285.8128" cy="388.5000" rx="3.0000" ry="3.0000" style="fill: #000000; fill-opacity: 1.00; stroke: none;" id="ezcGraphCircle_38"/><g id="ezcGraphTextBox_3"><path d=" M 207.1000,42.0000 L 207.1000,0.5000 L 293.4000,0.5000 L 293.4000,42.0000 L 207.1000,42.0000 z " style="fill: #ffffff; fill-opacity: 0.00; stroke: none;" id="ezcGraphPolygon_40"/><text id="ezcGraphTextBox_3_text" x="207.6000" text-length="84.8000px" y="35.0000" style="font-size: 40px; font-family: 'Arial'; fill: #2e3436; fill-opacity: 1.00; stroke: none;">City</text></g><g id="ezcGraphTextBox_19"><path d=" M 15.9014,169.0000 L 15.9014,151.5000 L 136.1214,151.5000 L 136.1214,169.0000 L 15.9014,169.0000 z " style="fill: #ffffff; fill-opacity: 0.00; stroke: none;" id="ezcGraphPolygon_41"/><text id="ezcGraphTextBox_19_text" x="16.4014" text-length="118.7200px" y="165.6000" style="font-size: 16px; font-family: 'Arial'; fill: #2e3436; fill-opacity: 1.00; stroke: none;">Others (81.0%)</text></g><g id="ezcGraphTextBox_23"><path d=" M 385.2689,257.5000 L 385.2689,240.0000 L 488.5289,240.0000 L 488.5289,257.5000 L 385.2689,257.5000 z " style="fill: #ffffff; fill-opacity: 0.00; stroke: none;" id="ezcGraphPolygon_42"/><text id="ezcGraphTextBox_23_text" x="385.7689" text-length="101.7600px" y="254.1000" style="font-size: 16px; font-family: 'Arial'; fill: #2e3436; fill-opacity: 1.00; stroke: none;">Paris (8.5%)</text></g><g id="ezcGraphTextBox_27"><path d=" M 374.9405,300.5500 L 374.9405,266.9500 L 452.7605,266.9500 L 452.7605,300.5500 L 374.9405,300.5500 z " style="fill: #ffffff; fill-opacity: 0.00; stroke: none;" id="ezcGraphPolygon_43"/><text id="ezcGraphTextBox_27_text" x="375.4405" text-length="76.3200px" y="281.0500" style="font-size: 16px; font-family: 'Arial'; fill: #2e3436; fill-opacity: 1.00; stroke: none;">Marseille</text><text id="ezcGraphTextBox_27_text" x="375.4405" text-length="50.8800px" y="298.6500" style="font-size: 16px; font-family: 'Arial'; fill: #2e3436; fill-opacity: 1.00; stroke: none;">(3.2%)</text></g><g id="ezcGraphTextBox_31"><path d=" M 350.7679,335.5500 L 350.7679,301.9500 L 479.4679,301.9500 L 479.4679,335.5500 L 350.7679,335.5500 z " style="fill: #ffffff; fill-opacity: 0.00; stroke: none;" id="ezcGraphPolygon_44"/><text id="ezcGraphTextBox_31_text" x="351.2679" text-length="127.2000px" y="316.0500" style="font-size: 16px; font-family: 'Arial'; fill: #2e3436; fill-opacity: 1.00; stroke: none;">Rosny-sous-Bois</text><text id="ezcGraphTextBox_31_text" x="351.2679" text-length="50.8800px" y="333.6500" style="font-size: 16px; font-family: 'Arial'; fill: #2e3436; fill-opacity: 1.00; stroke: none;">(2.6%)</text></g><g id="ezcGraphTextBox_35"><path d=" M 286.3747,362.5000 L 286.3747,345.0000 L 415.0747,345.0000 L 415.0747,362.5000 L 286.3747,362.5000 z " style="fill: #ffffff; fill-opacity: 0.00; stroke: none;" id="ezcGraphPolygon_45"/><text id="ezcGraphTextBox_35_text" x="286.8747" text-length="127.2000px" y="359.1000" style="font-size: 16px; font-family: 'Arial'; fill: #2e3436; fill-opacity: 1.00; stroke: none;">Bordeaux (2.6%)</text></g><g id="ezcGraphTextBox_39"><path d=" M 291.3128,397.5000 L 291.3128,380.0000 L 487.8528,380.0000 L 487.8528,397.5000 L 291.3128,397.5000 z " style="fill: #ffffff; fill-opacity: 0.00; stroke: none;" id="ezcGraphPolygon_46"/><text id="ezcGraphTextBox_39_text" x="291.8128" text-length="195.0400px" y="394.1000" style="font-size: 16px; font-family: 'Arial'; fill: #2e3436; fill-opacity: 1.00; stroke: none;">Fenouillet-du... (2.0%)</text></g></g></svg>
