<?xml version="1.0"?>
<svg xmlns="http://www.w3.org/2000/svg" width="500" height="420" version="1.0" id="ezcGraph"><defs/><g id="ezcGraphChart" color-rendering="optimizeQuality" shape-rendering="geometricPrecision" text-rendering="optimizeLegibility"><path d=" M 0.0000,420.0000 L 0.0000,0.0000 L 500.0000,0.0000 L 500.0000,420.0000 L 0.0000,420.0000 z " style="fill: #eeeeec; fill-opacity: 1.00; stroke: none;" id="ezcGraphPolygon_1"/><path d=" M 0.0000,42.0000 L 0.0000,0.0000 L 500.0000,0.0000 L 500.0000,42.0000 L 0.0000,42.0000 z " style="fill: #000000; fill-opacity: 0.00; stroke: none;" id="ezcGraphPolygon_2"/><path d="M 249.75,243.50 L 362.25,243.50 A 112.50,112.50 0 1,1 137.34,239.02 z" style="fill: #3465a4; fill-opacity: 1.00; stroke: none; cursor: pointer;" id="ezcGraphCircleSector_4" onclick="top.location = 'http://127.0.0.1/linux-hardware.org/index.php?view=computers&amp;type=notebook&amp;f=mon_resolution&amp;v=1920x1080&amp;p=-1'"/><path d="M 249.74,244.00 L 361.75,244.00 A 112.00,112.00 0 1,1 137.82,239.54 z" style="fill: none; stroke: #1a3352; stroke-width: 1; stroke-opacity: 1.00; stroke-linecap: round; stroke-linejoin: round;" id="ezcGraphCircleSector_5"/><path d="M 250.00,231.00 L 137.59,226.53 A 112.50,112.50 0 0,1 212.69,124.87 z" style="fill: #4e9a06; fill-opacity: 1.00; stroke: none; cursor: pointer;" id="ezcGraphCircleSector_6" onclick="top.location = 'http://127.0.0.1/linux-hardware.org/index.php?view=computers&amp;type=notebook&amp;f=mon_resolution&amp;v=1366x768&amp;p=-1'"/><path d="M 249.28,230.47 L 138.11,226.05 A 112.00,112.00 0 0,1 212.39,125.50 z" style="fill: none; stroke: #274d03; stroke-width: 1; stroke-opacity: 1.00; stroke-linecap: round; stroke-linejoin: round;" id="ezcGraphCircleSector_7"/><path d="M 250.00,231.00 L 212.69,124.87 A 112.50,112.50 0 0,1 283.06,123.47 z" style="fill: #cc0000; fill-opacity: 1.00; stroke: none; cursor: pointer;" id="ezcGraphCircleSector_8" onclick="top.location = 'http://127.0.0.1/linux-hardware.org/index.php?view=computers&amp;type=notebook&amp;f=mon_resolution&amp;v=3840x2160&amp;p=-1'"/><path d="M 249.97,229.40 L 213.33,125.17 A 112.00,112.00 0 0,1 282.43,123.80 z" style="fill: none; stroke: #660000; stroke-width: 1; stroke-opacity: 1.00; stroke-linecap: round; stroke-linejoin: round;" id="ezcGraphCircleSector_9"/><path d="M 250.00,231.00 L 283.06,123.47 A 112.50,112.50 0 0,1 322.12,144.66 z" style="fill: #edd400; fill-opacity: 1.00; stroke: none; cursor: pointer;" id="ezcGraphCircleSector_10" onclick="top.location = 'http://127.0.0.1/linux-hardware.org/index.php?view=computers&amp;type=notebook&amp;f=mon_resolution&amp;v=2560x1440&amp;p=-1'"/><path d="M 251.21,228.78 L 283.39,124.09 A 112.00,112.00 0 0,1 321.42,144.72 z" style="fill: none; stroke: #776a00; stroke-width: 1; stroke-opacity: 1.00; stroke-linecap: round; stroke-linejoin: round;" id="ezcGraphCircleSector_11"/><path d="M 250.00,231.00 L 322.12,144.66 A 112.50,112.50 0 0,1 345.51,171.55 z" style="fill: #75505b; fill-opacity: 1.00; stroke: none; cursor: pointer;" id="ezcGraphCircleSector_12" onclick="top.location = 'http://127.0.0.1/linux-hardware.org/index.php?view=computers&amp;type=notebook&amp;f=mon_resolution&amp;v=1600x900&amp;p=-1'"/><path d="M 252.38,228.93 L 322.19,145.36 A 112.00,112.00 0 0,1 344.82,171.39 z" style="fill: none; stroke: #3b282e; stroke-width: 1; stroke-opacity: 1.00; stroke-linecap: round; stroke-linejoin: round;" id="ezcGraphCircleSector_13"/><path d="M 250.00,231.00 L 345.51,171.55 A 112.50,112.50 0 0,1 362.50,231.00 z" style="fill: #f57900; fill-opacity: 1.00; stroke: none;" id="ezcGraphCircleSector_14"/><path d="M 251.75,230.50 L 345.35,172.24 A 112.00,112.00 0 0,1 362.00,230.50 z" style="fill: none; stroke: #7b3d00; stroke-width: 1; stroke-opacity: 1.00; stroke-linecap: round; stroke-linejoin: round;" id="ezcGraphCircleSector_15"/><path d=" M 248.3432,147.6831 L 244.0000,106.0000" style="fill: none; stroke: #000000; stroke-width: 1; stroke-opacity: 1.00; stroke-linecap: round; stroke-linejoin: round;" id="ezcGraphLine_16"/><ellipse cx="248.3432" cy="147.6831" rx="3.0000" ry="3.0000" style="fill: #000000; fill-opacity: 1.00; stroke: none;" id="ezcGraphCircle_17"/><ellipse cx="244.0000" cy="106.0000" rx="3.0000" ry="3.0000" style="fill: #000000; fill-opacity: 1.00; stroke: none;" id="ezcGraphCircle_18"/><path d=" M 182.9736,181.4832 L 144.0000,156.0000" style="fill: none; stroke: #000000; stroke-width: 1; stroke-opacity: 1.00; stroke-linecap: round; stroke-linejoin: round;" id="ezcGraphLine_20"/><ellipse cx="182.9736" cy="181.4832" rx="3.0000" ry="3.0000" style="fill: #000000; fill-opacity: 1.00; stroke: none;" id="ezcGraphCircle_21"/><ellipse cx="144.0000" cy="156.0000" rx="3.0000" ry="3.0000" style="fill: #000000; fill-opacity: 1.00; stroke: none;" id="ezcGraphCircle_22"/><path d=" M 248.0946,326.8144 L 245.0000,368.0000" style="fill: none; stroke: #000000; stroke-width: 1; stroke-opacity: 1.00; stroke-linecap: round; stroke-linejoin: round;" id="ezcGraphLine_24"/><ellipse cx="248.0946" cy="326.8144" rx="3.0000" ry="3.0000" style="fill: #000000; fill-opacity: 1.00; stroke: none;" id="ezcGraphCircle_25"/><ellipse cx="245.0000" cy="368.0000" rx="3.0000" ry="3.0000" style="fill: #000000; fill-opacity: 1.00; stroke: none;" id="ezcGraphCircle_26"/><path d=" M 289.7390,157.7521 L 315.3717,121.0000" style="fill: none; stroke: #000000; stroke-width: 1; stroke-opacity: 1.00; stroke-linecap: round; stroke-linejoin: round;" id="ezcGraphLine_28"/><ellipse cx="289.7390" cy="157.7521" rx="3.0000" ry="3.0000" style="fill: #000000; fill-opacity: 1.00; stroke: none;" id="ezcGraphCircle_29"/><ellipse cx="315.3717" cy="121.0000" rx="3.0000" ry="3.0000" style="fill: #000000; fill-opacity: 1.00; stroke: none;" id="ezcGraphCircle_30"/><path d=" M 312.8804,176.3145 L 358.0400,158.8000" style="fill: none; stroke: #000000; stroke-width: 1; stroke-opacity: 1.00; stroke-linecap: round; stroke-linejoin: round;" id="ezcGraphLine_32"/><ellipse cx="312.8804" cy="176.3145" rx="3.0000" ry="3.0000" style="fill: #000000; fill-opacity: 1.00; stroke: none;" id="ezcGraphCircle_33"/><ellipse cx="358.0400" cy="158.8000" rx="3.0000" ry="3.0000" style="fill: #000000; fill-opacity: 1.00; stroke: none;" id="ezcGraphCircle_34"/><path d=" M 330.1254,208.1010 L 376.1734,196.6000" style="fill: none; stroke: #000000; stroke-width: 1; stroke-opacity: 1.00; stroke-linecap: round; stroke-linejoin: round;" id="ezcGraphLine_36"/><ellipse cx="330.1254" cy="208.1010" rx="3.0000" ry="3.0000" style="fill: #000000; fill-opacity: 1.00; stroke: none;" id="ezcGraphCircle_37"/><ellipse cx="376.1734" cy="196.6000" rx="3.0000" ry="3.0000" style="fill: #000000; fill-opacity: 1.00; stroke: none;" id="ezcGraphCircle_38"/><g id="ezcGraphTextBox_3"><path d=" M 58.7000,42.0000 L 58.7000,0.5000 L 441.8000,0.5000 L 441.8000,42.0000 L 58.7000,42.0000 z " style="fill: #ffffff; fill-opacity: 0.00; stroke: none;" id="ezcGraphPolygon_40"/><text id="ezcGraphTextBox_3_text" x="59.2000" text-length="381.6000px" y="35.0000" style="font-size: 40px; font-family: 'Arial'; fill: #2e3436; fill-opacity: 1.00; stroke: none;">Monitor Resolution</text></g><g id="ezcGraphTextBox_19" style=" cursor: pointer;" onclick="top.location = 'http://127.0.0.1/linux-hardware.org/index.php?view=computers&amp;type=notebook&amp;f=mon_resolution&amp;v=3840x2160&amp;p=-1'"><path d=" M 27.6200,116.0000 L 27.6200,96.5000 L 239.0000,96.5000 L 239.0000,116.0000 L 27.6200,116.0000 z " style="fill: #ffffff; fill-opacity: 0.00; stroke: none;" id="ezcGraphPolygon_41"/><text id="ezcGraphTextBox_19_text" x="28.1200" text-length="209.8800px" y="112.3000" style="font-size: 18px; font-family: 'Arial'; fill: #2e3436; fill-opacity: 1.00; stroke: none;">3840x2160 (4K) (10.1%)</text></g><g id="ezcGraphTextBox_23" style=" cursor: pointer;" onclick="top.location = 'http://127.0.0.1/linux-hardware.org/index.php?view=computers&amp;type=notebook&amp;f=mon_resolution&amp;v=1366x768&amp;p=-1'"><path d=" M 3.9400,175.0500 L 3.9400,137.4500 L 139.0000,137.4500 L 139.0000,175.0500 L 3.9400,175.0500 z " style="fill: #ffffff; fill-opacity: 0.00; stroke: none;" id="ezcGraphPolygon_42"/><text id="ezcGraphTextBox_23_text" x="61.6800" text-length="76.3200px" y="153.2500" style="font-size: 18px; font-family: 'Arial'; fill: #2e3436; fill-opacity: 1.00; stroke: none;">1366x768</text><text id="ezcGraphTextBox_23_text" x="4.4400" text-length="133.5600px" y="173.0500" style="font-size: 18px; font-family: 'Arial'; fill: #2e3436; fill-opacity: 1.00; stroke: none;">(WXGA) (19.0%)</text></g><g id="ezcGraphTextBox_27" style=" cursor: pointer;" onclick="top.location = 'http://127.0.0.1/linux-hardware.org/index.php?view=computers&amp;type=notebook&amp;f=mon_resolution&amp;v=1920x1080&amp;p=-1'"><path d=" M 19.0800,378.0000 L 19.0800,358.5000 L 240.0000,358.5000 L 240.0000,378.0000 L 19.0800,378.0000 z " style="fill: #ffffff; fill-opacity: 0.00; stroke: none;" id="ezcGraphPolygon_43"/><text id="ezcGraphTextBox_27_text" x="19.5800" text-length="219.4200px" y="374.3000" style="font-size: 18px; font-family: 'Arial'; fill: #2e3436; fill-opacity: 1.00; stroke: none;">1920x1080 (FHD) (50.6%)</text></g><g id="ezcGraphTextBox_31" style=" cursor: pointer;" onclick="top.location = 'http://127.0.0.1/linux-hardware.org/index.php?view=computers&amp;type=notebook&amp;f=mon_resolution&amp;v=2560x1440&amp;p=-1'"><path d=" M 320.8717,140.0500 L 320.8717,102.4500 L 465.4717,102.4500 L 465.4717,140.0500 L 320.8717,140.0500 z " style="fill: #ffffff; fill-opacity: 0.00; stroke: none;" id="ezcGraphPolygon_44"/><text id="ezcGraphTextBox_31_text" x="321.3717" text-length="143.1000px" y="118.2500" style="font-size: 18px; font-family: 'Arial'; fill: #2e3436; fill-opacity: 1.00; stroke: none;">2560x1440 (QHD)</text><text id="ezcGraphTextBox_31_text" x="321.3717" text-length="57.2400px" y="138.0500" style="font-size: 18px; font-family: 'Arial'; fill: #2e3436; fill-opacity: 1.00; stroke: none;">(6.3%)</text></g><g id="ezcGraphTextBox_35" style=" cursor: pointer;" onclick="top.location = 'http://127.0.0.1/linux-hardware.org/index.php?view=computers&amp;type=notebook&amp;f=mon_resolution&amp;v=1600x900&amp;p=-1'"><path d=" M 363.5400,177.8500 L 363.5400,140.2500 L 498.6000,140.2500 L 498.6000,177.8500 L 363.5400,177.8500 z " style="fill: #ffffff; fill-opacity: 0.00; stroke: none;" id="ezcGraphPolygon_45"/><text id="ezcGraphTextBox_35_text" x="364.0400" text-length="133.5600px" y="156.0500" style="font-size: 18px; font-family: 'Arial'; fill: #2e3436; fill-opacity: 1.00; stroke: none;">1600x900 (HD+)</text><text id="ezcGraphTextBox_35_text" x="364.0400" text-length="57.2400px" y="175.8500" style="font-size: 18px; font-family: 'Arial'; fill: #2e3436; fill-opacity: 1.00; stroke: none;">(5.1%)</text></g><g id="ezcGraphTextBox_39"><path d=" M 381.6734,215.6500 L 381.6734,178.0500 L 440.4134,178.0500 L 440.4134,215.6500 L 381.6734,215.6500 z " style="fill: #ffffff; fill-opacity: 0.00; stroke: none;" id="ezcGraphPolygon_46"/><text id="ezcGraphTextBox_39_text" x="382.1734" text-length="57.2400px" y="193.8500" style="font-size: 18px; font-family: 'Arial'; fill: #2e3436; fill-opacity: 1.00; stroke: none;">Others</text><text id="ezcGraphTextBox_39_text" x="382.1734" text-length="57.2400px" y="213.6500" style="font-size: 18px; font-family: 'Arial'; fill: #2e3436; fill-opacity: 1.00; stroke: none;">(8.9%)</text></g></g></svg>
