<?xml version="1.0"?>
<svg xmlns="http://www.w3.org/2000/svg" width="500" height="420" version="1.0" id="ezcGraph"><defs/><g id="ezcGraphChart" color-rendering="optimizeQuality" shape-rendering="geometricPrecision" text-rendering="optimizeLegibility"><path d=" M 0.0000,420.0000 L 0.0000,0.0000 L 500.0000,0.0000 L 500.0000,420.0000 L 0.0000,420.0000 z " style="fill: #eeeeec; fill-opacity: 1.00; stroke: none;" id="ezcGraphPolygon_1"/><path d=" M 0.0000,42.0000 L 0.0000,0.0000 L 500.0000,0.0000 L 500.0000,42.0000 L 0.0000,42.0000 z " style="fill: #000000; fill-opacity: 0.00; stroke: none;" id="ezcGraphPolygon_2"/><path d=" M 0.0000,420.0000 L 0.0000,42.0000 L 100.0000,42.0000 L 100.0000,420.0000 L 0.0000,420.0000 z " style="fill: #000000; fill-opacity: 0.00; stroke: none;" id="ezcGraphPolygon_4"/><path d=" M 2.0000,58.0000 L 2.0000,44.0000 L 16.0000,44.0000 L 16.0000,58.0000 L 2.0000,58.0000 z " style="fill: #3465a4; fill-opacity: 1.00; stroke: none; cursor: pointer;" id="ezcGraphPolygon_5" onclick="top.location = 'http://127.0.0.1/linux-hardware.org/index.php?view=computers&amp;f=drive_malfunc_vendor&amp;v=WDC&amp;p=-1'"/><path d=" M 2.0000,76.0000 L 2.0000,62.0000 L 16.0000,62.0000 L 16.0000,76.0000 L 2.0000,76.0000 z " style="fill: #4e9a06; fill-opacity: 1.00; stroke: none; cursor: pointer;" id="ezcGraphPolygon_7" onclick="top.location = 'http://127.0.0.1/linux-hardware.org/index.php?view=computers&amp;f=drive_malfunc_vendor&amp;v=Seagate&amp;p=-1'"/><path d=" M 2.0000,94.0000 L 2.0000,80.0000 L 16.0000,80.0000 L 16.0000,94.0000 L 2.0000,94.0000 z " style="fill: #cc0000; fill-opacity: 1.00; stroke: none; cursor: pointer;" id="ezcGraphPolygon_9" onclick="top.location = 'http://127.0.0.1/linux-hardware.org/index.php?view=computers&amp;f=drive_malfunc_vendor&amp;v=SanDisk&amp;p=-1'"/><path d=" M 2.0000,112.0000 L 2.0000,98.0000 L 16.0000,98.0000 L 16.0000,112.0000 L 2.0000,112.0000 z " style="fill: #edd400; fill-opacity: 1.00; stroke: none; cursor: pointer;" id="ezcGraphPolygon_11" onclick="top.location = 'http://127.0.0.1/linux-hardware.org/index.php?view=computers&amp;f=drive_malfunc_vendor&amp;v=Hitachi&amp;p=-1'"/><path d=" M 100.0000,382.2000 L 500.0000,382.2000" style="fill: none; stroke: #2e3436; stroke-width: 1; stroke-opacity: 1.00; stroke-linecap: round; stroke-linejoin: round;" id="ezcGraphLine_13"/><path d=" M 492.0000,378.2000 L 500.0000,382.2000 L 492.0000,386.2000 L 492.0000,378.2000 z " style="fill: #2e3436; fill-opacity: 1.00; stroke: none;" id="ezcGraphPolygon_14"/><path d=" M 193.3333,79.8000 L 193.3333,382.2000" style="fill: none; stroke: #000000; stroke-width: 1; stroke-opacity: 0.00; stroke-linecap: round; stroke-linejoin: round;" id="ezcGraphLine_17"/><path d=" M 193.3333,379.2000 L 193.3333,385.2000" style="fill: none; stroke: #2e3436; stroke-width: 1; stroke-opacity: 1.00; stroke-linecap: round; stroke-linejoin: round;" id="ezcGraphLine_18"/><path d=" M 246.6667,79.8000 L 246.6667,382.2000" style="fill: none; stroke: #000000; stroke-width: 1; stroke-opacity: 0.00; stroke-linecap: round; stroke-linejoin: round;" id="ezcGraphLine_20"/><path d=" M 246.6667,379.2000 L 246.6667,385.2000" style="fill: none; stroke: #2e3436; stroke-width: 1; stroke-opacity: 1.00; stroke-linecap: round; stroke-linejoin: round;" id="ezcGraphLine_21"/><path d=" M 300.0000,79.8000 L 300.0000,382.2000" style="fill: none; stroke: #000000; stroke-width: 1; stroke-opacity: 0.00; stroke-linecap: round; stroke-linejoin: round;" id="ezcGraphLine_23"/><path d=" M 300.0000,379.2000 L 300.0000,385.2000" style="fill: none; stroke: #2e3436; stroke-width: 1; stroke-opacity: 1.00; stroke-linecap: round; stroke-linejoin: round;" id="ezcGraphLine_24"/><path d=" M 353.3333,79.8000 L 353.3333,382.2000" style="fill: none; stroke: #000000; stroke-width: 1; stroke-opacity: 0.00; stroke-linecap: round; stroke-linejoin: round;" id="ezcGraphLine_26"/><path d=" M 353.3333,379.2000 L 353.3333,385.2000" style="fill: none; stroke: #2e3436; stroke-width: 1; stroke-opacity: 1.00; stroke-linecap: round; stroke-linejoin: round;" id="ezcGraphLine_27"/><path d=" M 406.6667,79.8000 L 406.6667,382.2000" style="fill: none; stroke: #000000; stroke-width: 1; stroke-opacity: 0.00; stroke-linecap: round; stroke-linejoin: round;" id="ezcGraphLine_29"/><path d=" M 406.6667,379.2000 L 406.6667,385.2000" style="fill: none; stroke: #2e3436; stroke-width: 1; stroke-opacity: 1.00; stroke-linecap: round; stroke-linejoin: round;" id="ezcGraphLine_30"/><path d=" M 460.0000,79.8000 L 460.0000,382.2000" style="fill: none; stroke: #000000; stroke-width: 1; stroke-opacity: 0.00; stroke-linecap: round; stroke-linejoin: round;" id="ezcGraphLine_32"/><path d=" M 460.0000,379.2000 L 460.0000,385.2000" style="fill: none; stroke: #2e3436; stroke-width: 1; stroke-opacity: 1.00; stroke-linecap: round; stroke-linejoin: round;" id="ezcGraphLine_33"/><path d=" M 140.0000,420.0000 L 140.0000,42.0000" style="fill: none; stroke: #2e3436; stroke-width: 1; stroke-opacity: 1.00; stroke-linecap: round; stroke-linejoin: round;" id="ezcGraphLine_34"/><path d=" M 136.0000,50.0000 L 140.0000,42.0000 L 144.0000,50.0000 L 136.0000,50.0000 z " style="fill: #2e3436; fill-opacity: 1.00; stroke: none;" id="ezcGraphPolygon_35"/><path d=" M 140.0000,231.0000 L 460.0000,231.0000" style="fill: none; stroke: #000000; stroke-width: 1; stroke-opacity: 0.00; stroke-linecap: round; stroke-linejoin: round;" id="ezcGraphLine_38"/><path d=" M 140.0000,231.0000 L 143.0000,231.0000" style="fill: none; stroke: #2e3436; stroke-width: 1; stroke-opacity: 1.00; stroke-linecap: round; stroke-linejoin: round;" id="ezcGraphLine_39"/><path d=" M 140.0000,79.8000 L 460.0000,79.8000" style="fill: none; stroke: #000000; stroke-width: 1; stroke-opacity: 0.00; stroke-linecap: round; stroke-linejoin: round;" id="ezcGraphLine_41"/><path d=" M 140.0000,79.8000 L 143.0000,79.8000" style="fill: none; stroke: #2e3436; stroke-width: 1; stroke-opacity: 1.00; stroke-linecap: round; stroke-linejoin: round;" id="ezcGraphLine_42"/><path d=" M 166.6667,331.8000 L 166.6667,331.8000" style="fill: none; stroke: #3465a4; stroke-width: 1; stroke-opacity: 1.00; stroke-linecap: round; stroke-linejoin: round;" id="ezcGraphLine_44"/><path d=" M 166.6667,331.8000 L 220.0000,331.8000" style="fill: none; stroke: #3465a4; stroke-width: 1; stroke-opacity: 1.00; stroke-linecap: round; stroke-linejoin: round;" id="ezcGraphLine_46"/><path d=" M 220.0000,331.8000 L 326.6667,281.4000" style="fill: none; stroke: #3465a4; stroke-width: 1; stroke-opacity: 1.00; stroke-linecap: round; stroke-linejoin: round;" id="ezcGraphLine_48"/><path d=" M 326.6667,281.4000 L 433.3333,331.8000" style="fill: none; stroke: #3465a4; stroke-width: 1; stroke-opacity: 1.00; stroke-linecap: round; stroke-linejoin: round;" id="ezcGraphLine_50"/><path d=" M 166.6667,130.2000 L 166.6667,130.2000" style="fill: none; stroke: #4e9a06; stroke-width: 1; stroke-opacity: 1.00; stroke-linecap: round; stroke-linejoin: round;" id="ezcGraphLine_52"/><path d=" M 166.6667,130.2000 L 220.0000,281.4000" style="fill: none; stroke: #4e9a06; stroke-width: 1; stroke-opacity: 1.00; stroke-linecap: round; stroke-linejoin: round;" id="ezcGraphLine_54"/><path d=" M 220.0000,281.4000 L 273.3333,281.4000" style="fill: none; stroke: #4e9a06; stroke-width: 1; stroke-opacity: 1.00; stroke-linecap: round; stroke-linejoin: round;" id="ezcGraphLine_56"/><path d=" M 273.3333,281.4000 L 326.6667,331.8000" style="fill: none; stroke: #4e9a06; stroke-width: 1; stroke-opacity: 1.00; stroke-linecap: round; stroke-linejoin: round;" id="ezcGraphLine_58"/><path d=" M 326.6667,331.8000 L 380.0000,331.8000" style="fill: none; stroke: #4e9a06; stroke-width: 1; stroke-opacity: 1.00; stroke-linecap: round; stroke-linejoin: round;" id="ezcGraphLine_60"/><path d=" M 380.0000,331.8000 L 433.3333,331.8000" style="fill: none; stroke: #4e9a06; stroke-width: 1; stroke-opacity: 1.00; stroke-linecap: round; stroke-linejoin: round;" id="ezcGraphLine_62"/><path d=" M 273.3333,331.8000 L 273.3333,331.8000" style="fill: none; stroke: #cc0000; stroke-width: 1; stroke-opacity: 1.00; stroke-linecap: round; stroke-linejoin: round;" id="ezcGraphLine_64"/><path d=" M 273.3333,331.8000 L 326.6667,331.8000" style="fill: none; stroke: #cc0000; stroke-width: 1; stroke-opacity: 1.00; stroke-linecap: round; stroke-linejoin: round;" id="ezcGraphLine_66"/><path d=" M 326.6667,331.8000 L 380.0000,331.8000" style="fill: none; stroke: #cc0000; stroke-width: 1; stroke-opacity: 1.00; stroke-linecap: round; stroke-linejoin: round;" id="ezcGraphLine_68"/><path d=" M 380.0000,331.8000 L 433.3333,331.8000" style="fill: none; stroke: #cc0000; stroke-width: 1; stroke-opacity: 1.00; stroke-linecap: round; stroke-linejoin: round;" id="ezcGraphLine_70"/><path d=" M 166.6667,281.4000 L 166.6667,281.4000" style="fill: none; stroke: #edd400; stroke-width: 1; stroke-opacity: 1.00; stroke-linecap: round; stroke-linejoin: round;" id="ezcGraphLine_72"/><path d=" M 166.6667,281.4000 L 273.3333,331.8000" style="fill: none; stroke: #edd400; stroke-width: 1; stroke-opacity: 1.00; stroke-linecap: round; stroke-linejoin: round;" id="ezcGraphLine_74"/><path d=" M 273.3333,331.8000 L 326.6667,331.8000" style="fill: none; stroke: #edd400; stroke-width: 1; stroke-opacity: 1.00; stroke-linecap: round; stroke-linejoin: round;" id="ezcGraphLine_76"/><path d=" M 326.6667,331.8000 L 433.3333,331.8000" style="fill: none; stroke: #edd400; stroke-width: 1; stroke-opacity: 1.00; stroke-linecap: round; stroke-linejoin: round;" id="ezcGraphLine_78"/><path d=" M 163.6667,334.8000 L 163.6667,328.8000 L 169.6667,328.8000 L 169.6667,334.8000 L 163.6667,334.8000 z " style="fill: #3465a4; fill-opacity: 1.00; stroke: none; cursor: pointer;" id="ezcGraphPolygon_80" onclick="top.location = 'http://127.0.0.1/linux-hardware.org/index.php?view=computers&amp;f=drive_malfunc_vendor&amp;v=WDC&amp;p=-1&amp;p=83'"/><path d=" M 217.0000,334.8000 L 217.0000,328.8000 L 223.0000,328.8000 L 223.0000,334.8000 L 217.0000,334.8000 z " style="fill: #3465a4; fill-opacity: 1.00; stroke: none; cursor: pointer;" id="ezcGraphPolygon_81" onclick="top.location = 'http://127.0.0.1/linux-hardware.org/index.php?view=computers&amp;f=drive_malfunc_vendor&amp;v=WDC&amp;p=-1&amp;p=85'"/><path d=" M 323.6667,284.4000 L 323.6667,278.4000 L 329.6667,278.4000 L 329.6667,284.4000 L 323.6667,284.4000 z " style="fill: #3465a4; fill-opacity: 1.00; stroke: none; cursor: pointer;" id="ezcGraphPolygon_82" onclick="top.location = 'http://127.0.0.1/linux-hardware.org/index.php?view=computers&amp;f=drive_malfunc_vendor&amp;v=WDC&amp;p=-1&amp;p=87'"/><path d=" M 430.3333,334.8000 L 430.3333,328.8000 L 436.3333,328.8000 L 436.3333,334.8000 L 430.3333,334.8000 z " style="fill: #3465a4; fill-opacity: 1.00; stroke: none; cursor: pointer;" id="ezcGraphPolygon_83" onclick="top.location = 'http://127.0.0.1/linux-hardware.org/index.php?view=computers&amp;f=drive_malfunc_vendor&amp;v=WDC&amp;p=-1&amp;p=89'"/><path d=" M 163.6667,133.2000 L 163.6667,127.2000 L 169.6667,127.2000 L 169.6667,133.2000 L 163.6667,133.2000 z " style="fill: #4e9a06; fill-opacity: 1.00; stroke: none; cursor: pointer;" id="ezcGraphPolygon_84" onclick="top.location = 'http://127.0.0.1/linux-hardware.org/index.php?view=computers&amp;f=drive_malfunc_vendor&amp;v=Seagate&amp;p=-1&amp;p=83'"/><path d=" M 217.0000,284.4000 L 217.0000,278.4000 L 223.0000,278.4000 L 223.0000,284.4000 L 217.0000,284.4000 z " style="fill: #4e9a06; fill-opacity: 1.00; stroke: none; cursor: pointer;" id="ezcGraphPolygon_85" onclick="top.location = 'http://127.0.0.1/linux-hardware.org/index.php?view=computers&amp;f=drive_malfunc_vendor&amp;v=Seagate&amp;p=-1&amp;p=85'"/><path d=" M 270.3333,284.4000 L 270.3333,278.4000 L 276.3333,278.4000 L 276.3333,284.4000 L 270.3333,284.4000 z " style="fill: #4e9a06; fill-opacity: 1.00; stroke: none; cursor: pointer;" id="ezcGraphPolygon_86" onclick="top.location = 'http://127.0.0.1/linux-hardware.org/index.php?view=computers&amp;f=drive_malfunc_vendor&amp;v=Seagate&amp;p=-1&amp;p=86'"/><path d=" M 323.6667,334.8000 L 323.6667,328.8000 L 329.6667,328.8000 L 329.6667,334.8000 L 323.6667,334.8000 z " style="fill: #4e9a06; fill-opacity: 1.00; stroke: none; cursor: pointer;" id="ezcGraphPolygon_87" onclick="top.location = 'http://127.0.0.1/linux-hardware.org/index.php?view=computers&amp;f=drive_malfunc_vendor&amp;v=Seagate&amp;p=-1&amp;p=87'"/><path d=" M 377.0000,334.8000 L 377.0000,328.8000 L 383.0000,328.8000 L 383.0000,334.8000 L 377.0000,334.8000 z " style="fill: #4e9a06; fill-opacity: 1.00; stroke: none; cursor: pointer;" id="ezcGraphPolygon_88" onclick="top.location = 'http://127.0.0.1/linux-hardware.org/index.php?view=computers&amp;f=drive_malfunc_vendor&amp;v=Seagate&amp;p=-1&amp;p=88'"/><path d=" M 430.3333,334.8000 L 430.3333,328.8000 L 436.3333,328.8000 L 436.3333,334.8000 L 430.3333,334.8000 z " style="fill: #4e9a06; fill-opacity: 1.00; stroke: none; cursor: pointer;" id="ezcGraphPolygon_89" onclick="top.location = 'http://127.0.0.1/linux-hardware.org/index.php?view=computers&amp;f=drive_malfunc_vendor&amp;v=Seagate&amp;p=-1&amp;p=89'"/><path d=" M 270.3333,334.8000 L 270.3333,328.8000 L 276.3333,328.8000 L 276.3333,334.8000 L 270.3333,334.8000 z " style="fill: #cc0000; fill-opacity: 1.00; stroke: none; cursor: pointer;" id="ezcGraphPolygon_90" onclick="top.location = 'http://127.0.0.1/linux-hardware.org/index.php?view=computers&amp;f=drive_malfunc_vendor&amp;v=SanDisk&amp;p=-1&amp;p=86'"/><path d=" M 323.6667,334.8000 L 323.6667,328.8000 L 329.6667,328.8000 L 329.6667,334.8000 L 323.6667,334.8000 z " style="fill: #cc0000; fill-opacity: 1.00; stroke: none; cursor: pointer;" id="ezcGraphPolygon_91" onclick="top.location = 'http://127.0.0.1/linux-hardware.org/index.php?view=computers&amp;f=drive_malfunc_vendor&amp;v=SanDisk&amp;p=-1&amp;p=87'"/><path d=" M 377.0000,334.8000 L 377.0000,328.8000 L 383.0000,328.8000 L 383.0000,334.8000 L 377.0000,334.8000 z " style="fill: #cc0000; fill-opacity: 1.00; stroke: none; cursor: pointer;" id="ezcGraphPolygon_92" onclick="top.location = 'http://127.0.0.1/linux-hardware.org/index.php?view=computers&amp;f=drive_malfunc_vendor&amp;v=SanDisk&amp;p=-1&amp;p=88'"/><path d=" M 430.3333,334.8000 L 430.3333,328.8000 L 436.3333,328.8000 L 436.3333,334.8000 L 430.3333,334.8000 z " style="fill: #cc0000; fill-opacity: 1.00; stroke: none; cursor: pointer;" id="ezcGraphPolygon_93" onclick="top.location = 'http://127.0.0.1/linux-hardware.org/index.php?view=computers&amp;f=drive_malfunc_vendor&amp;v=SanDisk&amp;p=-1&amp;p=89'"/><path d=" M 163.6667,284.4000 L 163.6667,278.4000 L 169.6667,278.4000 L 169.6667,284.4000 L 163.6667,284.4000 z " style="fill: #edd400; fill-opacity: 1.00; stroke: none; cursor: pointer;" id="ezcGraphPolygon_94" onclick="top.location = 'http://127.0.0.1/linux-hardware.org/index.php?view=computers&amp;f=drive_malfunc_vendor&amp;v=Hitachi&amp;p=-1&amp;p=83'"/><path d=" M 270.3333,334.8000 L 270.3333,328.8000 L 276.3333,328.8000 L 276.3333,334.8000 L 270.3333,334.8000 z " style="fill: #edd400; fill-opacity: 1.00; stroke: none; cursor: pointer;" id="ezcGraphPolygon_95" onclick="top.location = 'http://127.0.0.1/linux-hardware.org/index.php?view=computers&amp;f=drive_malfunc_vendor&amp;v=Hitachi&amp;p=-1&amp;p=86'"/><path d=" M 323.6667,334.8000 L 323.6667,328.8000 L 329.6667,328.8000 L 329.6667,334.8000 L 323.6667,334.8000 z " style="fill: #edd400; fill-opacity: 1.00; stroke: none; cursor: pointer;" id="ezcGraphPolygon_96" onclick="top.location = 'http://127.0.0.1/linux-hardware.org/index.php?view=computers&amp;f=drive_malfunc_vendor&amp;v=Hitachi&amp;p=-1&amp;p=87'"/><path d=" M 430.3333,334.8000 L 430.3333,328.8000 L 436.3333,328.8000 L 436.3333,334.8000 L 430.3333,334.8000 z " style="fill: #edd400; fill-opacity: 1.00; stroke: none; cursor: pointer;" id="ezcGraphPolygon_97" onclick="top.location = 'http://127.0.0.1/linux-hardware.org/index.php?view=computers&amp;f=drive_malfunc_vendor&amp;v=Hitachi&amp;p=-1&amp;p=89'"/><g id="ezcGraphTextBox_3"><path d=" M 26.9000,42.0000 L 26.9000,0.5000 L 473.6000,0.5000 L 473.6000,42.0000 L 26.9000,42.0000 z " style="fill: #ffffff; fill-opacity: 0.00; stroke: none;" id="ezcGraphPolygon_98"/><text id="ezcGraphTextBox_3_text" x="27.4000" text-length="445.2000px" y="35.0000" style="font-size: 40px; font-family: 'Arial'; fill: #2e3436; fill-opacity: 1.00; stroke: none;">Malfunc. Drive Vendor</text></g><g id="ezcGraphTextBox_6" style=" cursor: pointer;" onclick="top.location = 'http://127.0.0.1/linux-hardware.org/index.php?view=computers&amp;f=drive_malfunc_vendor&amp;v=WDC&amp;p=-1'"><path d=" M 16.5000,59.0000 L 16.5000,43.5000 L 40.2600,43.5000 L 40.2600,59.0000 L 16.5000,59.0000 z " style="fill: #ffffff; fill-opacity: 0.00; stroke: none;" id="ezcGraphPolygon_99"/><text id="ezcGraphTextBox_6_text" x="17.0000" text-length="22.2600px" y="55.9000" style="font-size: 14px; font-family: 'Arial'; fill: #2e3436; fill-opacity: 1.00; stroke: none;">WDC</text></g><g id="ezcGraphTextBox_8" style=" cursor: pointer;" onclick="top.location = 'http://127.0.0.1/linux-hardware.org/index.php?view=computers&amp;f=drive_malfunc_vendor&amp;v=Seagate&amp;p=-1'"><path d=" M 16.5000,77.0000 L 16.5000,61.5000 L 69.9400,61.5000 L 69.9400,77.0000 L 16.5000,77.0000 z " style="fill: #ffffff; fill-opacity: 0.00; stroke: none;" id="ezcGraphPolygon_100"/><text id="ezcGraphTextBox_8_text" x="17.0000" text-length="51.9400px" y="73.9000" style="font-size: 14px; font-family: 'Arial'; fill: #2e3436; fill-opacity: 1.00; stroke: none;">Seagate</text></g><g id="ezcGraphTextBox_10" style=" cursor: pointer;" onclick="top.location = 'http://127.0.0.1/linux-hardware.org/index.php?view=computers&amp;f=drive_malfunc_vendor&amp;v=SanDisk&amp;p=-1'"><path d=" M 16.5000,95.0000 L 16.5000,79.5000 L 69.9400,79.5000 L 69.9400,95.0000 L 16.5000,95.0000 z " style="fill: #ffffff; fill-opacity: 0.00; stroke: none;" id="ezcGraphPolygon_101"/><text id="ezcGraphTextBox_10_text" x="17.0000" text-length="51.9400px" y="91.9000" style="font-size: 14px; font-family: 'Arial'; fill: #2e3436; fill-opacity: 1.00; stroke: none;">SanDisk</text></g><g id="ezcGraphTextBox_12" style=" cursor: pointer;" onclick="top.location = 'http://127.0.0.1/linux-hardware.org/index.php?view=computers&amp;f=drive_malfunc_vendor&amp;v=Hitachi&amp;p=-1'"><path d=" M 16.5000,113.0000 L 16.5000,97.5000 L 69.9400,97.5000 L 69.9400,113.0000 L 16.5000,113.0000 z " style="fill: #ffffff; fill-opacity: 0.00; stroke: none;" id="ezcGraphPolygon_102"/><text id="ezcGraphTextBox_12_text" x="17.0000" text-length="51.9400px" y="109.9000" style="font-size: 14px; font-family: 'Arial'; fill: #2e3436; fill-opacity: 1.00; stroke: none;">Hitachi</text></g><g id="ezcGraphTextBox_15" transform="rotate( 0.00 493.0000 375.2000 )"><path d=" M 463.0500,381.2000 L 463.0500,366.7000 L 499.0000,366.7000 L 499.0000,381.2000 L 463.0500,381.2000 z " style="fill: #ffffff; fill-opacity: 0.00; stroke: none;" id="ezcGraphPolygon_103"/><text id="ezcGraphTextBox_15_text" x="463.5500" text-length="34.4500px" y="378.2500" style="font-size: 13px; font-family: 'Arial'; fill: #2e3436; fill-opacity: 1.00; stroke: none;">Time </text></g><g id="ezcGraphTextBox_16"><path d=" M 150.0467,411.3000 L 150.0467,383.7000 L 183.7867,383.7000 L 183.7867,411.3000 L 150.0467,411.3000 z " style="fill: #ffffff; fill-opacity: 0.00; stroke: none;" id="ezcGraphPolygon_104"/><text id="ezcGraphTextBox_16_text" x="156.3317" text-length="20.6700px" y="395.2500" style="font-size: 13px; font-family: 'Arial'; fill: #2e3436; fill-opacity: 1.00; stroke: none;">Nov</text><text id="ezcGraphTextBox_16_text" x="150.5467" text-length="32.2400px" y="409.5500" style="font-size: 13px; font-family: 'Arial'; fill: #2e3436; fill-opacity: 1.00; stroke: none;">2020</text></g><g id="ezcGraphTextBox_19"><path d=" M 203.3800,411.3000 L 203.3800,383.7000 L 237.1200,383.7000 L 237.1200,411.3000 L 203.3800,411.3000 z " style="fill: #ffffff; fill-opacity: 0.00; stroke: none;" id="ezcGraphPolygon_105"/><text id="ezcGraphTextBox_19_text" x="209.6650" text-length="20.6700px" y="395.2500" style="font-size: 13px; font-family: 'Arial'; fill: #2e3436; fill-opacity: 1.00; stroke: none;">Jan</text><text id="ezcGraphTextBox_19_text" x="203.8800" text-length="32.2400px" y="409.5500" style="font-size: 13px; font-family: 'Arial'; fill: #2e3436; fill-opacity: 1.00; stroke: none;">2021</text></g><g id="ezcGraphTextBox_22"><path d=" M 256.7133,411.3000 L 256.7133,383.7000 L 290.4533,383.7000 L 290.4533,411.3000 L 256.7133,411.3000 z " style="fill: #ffffff; fill-opacity: 0.00; stroke: none;" id="ezcGraphPolygon_106"/><text id="ezcGraphTextBox_22_text" x="262.9983" text-length="20.6700px" y="395.2500" style="font-size: 13px; font-family: 'Arial'; fill: #2e3436; fill-opacity: 1.00; stroke: none;">Feb</text><text id="ezcGraphTextBox_22_text" x="257.2133" text-length="32.2400px" y="409.5500" style="font-size: 13px; font-family: 'Arial'; fill: #2e3436; fill-opacity: 1.00; stroke: none;">2021</text></g><g id="ezcGraphTextBox_25"><path d=" M 310.0467,411.3000 L 310.0467,383.7000 L 343.7867,383.7000 L 343.7867,411.3000 L 310.0467,411.3000 z " style="fill: #ffffff; fill-opacity: 0.00; stroke: none;" id="ezcGraphPolygon_107"/><text id="ezcGraphTextBox_25_text" x="316.3317" text-length="20.6700px" y="395.2500" style="font-size: 13px; font-family: 'Arial'; fill: #2e3436; fill-opacity: 1.00; stroke: none;">Mar</text><text id="ezcGraphTextBox_25_text" x="310.5467" text-length="32.2400px" y="409.5500" style="font-size: 13px; font-family: 'Arial'; fill: #2e3436; fill-opacity: 1.00; stroke: none;">2021</text></g><g id="ezcGraphTextBox_28"><path d=" M 363.3800,411.3000 L 363.3800,383.7000 L 397.1200,383.7000 L 397.1200,411.3000 L 363.3800,411.3000 z " style="fill: #ffffff; fill-opacity: 0.00; stroke: none;" id="ezcGraphPolygon_108"/><text id="ezcGraphTextBox_28_text" x="369.6650" text-length="20.6700px" y="395.2500" style="font-size: 13px; font-family: 'Arial'; fill: #2e3436; fill-opacity: 1.00; stroke: none;">Apr</text><text id="ezcGraphTextBox_28_text" x="363.8800" text-length="32.2400px" y="409.5500" style="font-size: 13px; font-family: 'Arial'; fill: #2e3436; fill-opacity: 1.00; stroke: none;">2021</text></g><g id="ezcGraphTextBox_31"><path d=" M 416.7133,411.3000 L 416.7133,383.7000 L 450.4533,383.7000 L 450.4533,411.3000 L 416.7133,411.3000 z " style="fill: #ffffff; fill-opacity: 0.00; stroke: none;" id="ezcGraphPolygon_109"/><text id="ezcGraphTextBox_31_text" x="422.9983" text-length="20.6700px" y="395.2500" style="font-size: 13px; font-family: 'Arial'; fill: #2e3436; fill-opacity: 1.00; stroke: none;">May</text><text id="ezcGraphTextBox_31_text" x="417.2133" text-length="32.2400px" y="409.5500" style="font-size: 13px; font-family: 'Arial'; fill: #2e3436; fill-opacity: 1.00; stroke: none;">2021</text></g><g id="ezcGraphTextBox_36" transform="rotate( 0.00 147.0000 49.0000 )"><path d=" M 141.5000,58.0000 L 141.5000,43.5000 L 391.0400,43.5000 L 391.0400,58.0000 L 141.5000,58.0000 z " style="fill: #ffffff; fill-opacity: 0.00; stroke: none;" id="ezcGraphPolygon_110"/><text id="ezcGraphTextBox_36_text" x="142.0000" text-length="248.0400px" y="55.0500" style="font-size: 13px; font-family: 'Arial'; fill: #2e3436; fill-opacity: 1.00; stroke: none;">Computers by "Malfunc. Drive Vendor"</text></g><g id="ezcGraphTextBox_37"><path d=" M 129.4400,381.2000 L 129.4400,366.7000 L 139.0000,366.7000 L 139.0000,381.2000 L 129.4400,381.2000 z " style="fill: #ffffff; fill-opacity: 0.00; stroke: none;" id="ezcGraphPolygon_111"/><text id="ezcGraphTextBox_37_text" x="129.9400" text-length="8.0600px" y="378.2500" style="font-size: 13px; font-family: 'Arial'; fill: #2e3436; fill-opacity: 1.00; stroke: none;">0</text></g><g id="ezcGraphTextBox_40"><path d=" M 129.4400,230.0000 L 129.4400,215.5000 L 139.0000,215.5000 L 139.0000,230.0000 L 129.4400,230.0000 z " style="fill: #ffffff; fill-opacity: 0.00; stroke: none;" id="ezcGraphPolygon_112"/><text id="ezcGraphTextBox_40_text" x="129.9400" text-length="8.0600px" y="227.0500" style="font-size: 13px; font-family: 'Arial'; fill: #2e3436; fill-opacity: 1.00; stroke: none;">3</text></g><g id="ezcGraphTextBox_43"><path d=" M 129.4400,95.8000 L 129.4400,81.3000 L 139.0000,81.3000 L 139.0000,95.8000 L 129.4400,95.8000 z " style="fill: #ffffff; fill-opacity: 0.00; stroke: none;" id="ezcGraphPolygon_113"/><text id="ezcGraphTextBox_43_text" x="129.9400" text-length="8.0600px" y="92.8500" style="font-size: 13px; font-family: 'Arial'; fill: #2e3436; fill-opacity: 1.00; stroke: none;">6</text></g><g id="ezcGraphTextBox_45"><path d=" M 163.0667,326.8000 L 163.0667,315.3000 L 170.7667,315.3000 L 170.7667,326.8000 L 163.0667,326.8000 z " style="fill: #ffffff; fill-opacity: 0.00; stroke: none;" id="ezcGraphPolygon_114"/><text id="ezcGraphTextBox_45_text" x="163.5667" text-length="6.2000px" y="324.3000" style="font-size: 10px; font-family: 'Arial'; fill: #2e3436; fill-opacity: 1.00; stroke: none;">1</text></g><g id="ezcGraphTextBox_47"><path d=" M 216.4000,326.8000 L 216.4000,315.3000 L 224.1000,315.3000 L 224.1000,326.8000 L 216.4000,326.8000 z " style="fill: #ffffff; fill-opacity: 0.00; stroke: none;" id="ezcGraphPolygon_115"/><text id="ezcGraphTextBox_47_text" x="216.9000" text-length="6.2000px" y="324.3000" style="font-size: 10px; font-family: 'Arial'; fill: #2e3436; fill-opacity: 1.00; stroke: none;">1</text></g><g id="ezcGraphTextBox_49"><path d=" M 323.0667,276.4000 L 323.0667,264.9000 L 330.7667,264.9000 L 330.7667,276.4000 L 323.0667,276.4000 z " style="fill: #ffffff; fill-opacity: 0.00; stroke: none;" id="ezcGraphPolygon_116"/><text id="ezcGraphTextBox_49_text" x="323.5667" text-length="6.2000px" y="273.9000" style="font-size: 10px; font-family: 'Arial'; fill: #2e3436; fill-opacity: 1.00; stroke: none;">2</text></g><g id="ezcGraphTextBox_51"><path d=" M 429.7333,326.8000 L 429.7333,315.3000 L 437.4333,315.3000 L 437.4333,326.8000 L 429.7333,326.8000 z " style="fill: #ffffff; fill-opacity: 0.00; stroke: none;" id="ezcGraphPolygon_117"/><text id="ezcGraphTextBox_51_text" x="430.2333" text-length="6.2000px" y="324.3000" style="font-size: 10px; font-family: 'Arial'; fill: #2e3436; fill-opacity: 1.00; stroke: none;">1</text></g><g id="ezcGraphTextBox_53"><path d=" M 163.0667,125.2000 L 163.0667,113.7000 L 170.7667,113.7000 L 170.7667,125.2000 L 163.0667,125.2000 z " style="fill: #ffffff; fill-opacity: 0.00; stroke: none;" id="ezcGraphPolygon_118"/><text id="ezcGraphTextBox_53_text" x="163.5667" text-length="6.2000px" y="122.7000" style="font-size: 10px; font-family: 'Arial'; fill: #2e3436; fill-opacity: 1.00; stroke: none;">5</text></g><g id="ezcGraphTextBox_55"><path d=" M 216.4000,276.4000 L 216.4000,264.9000 L 224.1000,264.9000 L 224.1000,276.4000 L 216.4000,276.4000 z " style="fill: #ffffff; fill-opacity: 0.00; stroke: none;" id="ezcGraphPolygon_119"/><text id="ezcGraphTextBox_55_text" x="216.9000" text-length="6.2000px" y="273.9000" style="font-size: 10px; font-family: 'Arial'; fill: #2e3436; fill-opacity: 1.00; stroke: none;">2</text></g><g id="ezcGraphTextBox_57"><path d=" M 269.7333,276.4000 L 269.7333,264.9000 L 277.4333,264.9000 L 277.4333,276.4000 L 269.7333,276.4000 z " style="fill: #ffffff; fill-opacity: 0.00; stroke: none;" id="ezcGraphPolygon_120"/><text id="ezcGraphTextBox_57_text" x="270.2333" text-length="6.2000px" y="273.9000" style="font-size: 10px; font-family: 'Arial'; fill: #2e3436; fill-opacity: 1.00; stroke: none;">2</text></g><g id="ezcGraphTextBox_59"><path d=" M 323.0667,326.8000 L 323.0667,315.3000 L 330.7667,315.3000 L 330.7667,326.8000 L 323.0667,326.8000 z " style="fill: #ffffff; fill-opacity: 0.00; stroke: none;" id="ezcGraphPolygon_121"/><text id="ezcGraphTextBox_59_text" x="323.5667" text-length="6.2000px" y="324.3000" style="font-size: 10px; font-family: 'Arial'; fill: #2e3436; fill-opacity: 1.00; stroke: none;">1</text></g><g id="ezcGraphTextBox_61"><path d=" M 376.4000,326.8000 L 376.4000,315.3000 L 384.1000,315.3000 L 384.1000,326.8000 L 376.4000,326.8000 z " style="fill: #ffffff; fill-opacity: 0.00; stroke: none;" id="ezcGraphPolygon_122"/><text id="ezcGraphTextBox_61_text" x="376.9000" text-length="6.2000px" y="324.3000" style="font-size: 10px; font-family: 'Arial'; fill: #2e3436; fill-opacity: 1.00; stroke: none;">1</text></g><g id="ezcGraphTextBox_63"><path d=" M 429.7333,326.8000 L 429.7333,315.3000 L 437.4333,315.3000 L 437.4333,326.8000 L 429.7333,326.8000 z " style="fill: #ffffff; fill-opacity: 0.00; stroke: none;" id="ezcGraphPolygon_123"/><text id="ezcGraphTextBox_63_text" x="430.2333" text-length="6.2000px" y="324.3000" style="font-size: 10px; font-family: 'Arial'; fill: #2e3436; fill-opacity: 1.00; stroke: none;">1</text></g><g id="ezcGraphTextBox_65"><path d=" M 269.7333,326.8000 L 269.7333,315.3000 L 277.4333,315.3000 L 277.4333,326.8000 L 269.7333,326.8000 z " style="fill: #ffffff; fill-opacity: 0.00; stroke: none;" id="ezcGraphPolygon_124"/><text id="ezcGraphTextBox_65_text" x="270.2333" text-length="6.2000px" y="324.3000" style="font-size: 10px; font-family: 'Arial'; fill: #2e3436; fill-opacity: 1.00; stroke: none;">1</text></g><g id="ezcGraphTextBox_67"><path d=" M 323.0667,326.8000 L 323.0667,315.3000 L 330.7667,315.3000 L 330.7667,326.8000 L 323.0667,326.8000 z " style="fill: #ffffff; fill-opacity: 0.00; stroke: none;" id="ezcGraphPolygon_125"/><text id="ezcGraphTextBox_67_text" x="323.5667" text-length="6.2000px" y="324.3000" style="font-size: 10px; font-family: 'Arial'; fill: #2e3436; fill-opacity: 1.00; stroke: none;">1</text></g><g id="ezcGraphTextBox_69"><path d=" M 376.4000,326.8000 L 376.4000,315.3000 L 384.1000,315.3000 L 384.1000,326.8000 L 376.4000,326.8000 z " style="fill: #ffffff; fill-opacity: 0.00; stroke: none;" id="ezcGraphPolygon_126"/><text id="ezcGraphTextBox_69_text" x="376.9000" text-length="6.2000px" y="324.3000" style="font-size: 10px; font-family: 'Arial'; fill: #2e3436; fill-opacity: 1.00; stroke: none;">1</text></g><g id="ezcGraphTextBox_71"><path d=" M 429.7333,326.8000 L 429.7333,315.3000 L 437.4333,315.3000 L 437.4333,326.8000 L 429.7333,326.8000 z " style="fill: #ffffff; fill-opacity: 0.00; stroke: none;" id="ezcGraphPolygon_127"/><text id="ezcGraphTextBox_71_text" x="430.2333" text-length="6.2000px" y="324.3000" style="font-size: 10px; font-family: 'Arial'; fill: #2e3436; fill-opacity: 1.00; stroke: none;">1</text></g><g id="ezcGraphTextBox_73"><path d=" M 163.0667,276.4000 L 163.0667,264.9000 L 170.7667,264.9000 L 170.7667,276.4000 L 163.0667,276.4000 z " style="fill: #ffffff; fill-opacity: 0.00; stroke: none;" id="ezcGraphPolygon_128"/><text id="ezcGraphTextBox_73_text" x="163.5667" text-length="6.2000px" y="273.9000" style="font-size: 10px; font-family: 'Arial'; fill: #2e3436; fill-opacity: 1.00; stroke: none;">2</text></g><g id="ezcGraphTextBox_75"><path d=" M 269.7333,326.8000 L 269.7333,315.3000 L 277.4333,315.3000 L 277.4333,326.8000 L 269.7333,326.8000 z " style="fill: #ffffff; fill-opacity: 0.00; stroke: none;" id="ezcGraphPolygon_129"/><text id="ezcGraphTextBox_75_text" x="270.2333" text-length="6.2000px" y="324.3000" style="font-size: 10px; font-family: 'Arial'; fill: #2e3436; fill-opacity: 1.00; stroke: none;">1</text></g><g id="ezcGraphTextBox_77"><path d=" M 323.0667,326.8000 L 323.0667,315.3000 L 330.7667,315.3000 L 330.7667,326.8000 L 323.0667,326.8000 z " style="fill: #ffffff; fill-opacity: 0.00; stroke: none;" id="ezcGraphPolygon_130"/><text id="ezcGraphTextBox_77_text" x="323.5667" text-length="6.2000px" y="324.3000" style="font-size: 10px; font-family: 'Arial'; fill: #2e3436; fill-opacity: 1.00; stroke: none;">1</text></g><g id="ezcGraphTextBox_79"><path d=" M 429.7333,326.8000 L 429.7333,315.3000 L 437.4333,315.3000 L 437.4333,326.8000 L 429.7333,326.8000 z " style="fill: #ffffff; fill-opacity: 0.00; stroke: none;" id="ezcGraphPolygon_131"/><text id="ezcGraphTextBox_79_text" x="430.2333" text-length="6.2000px" y="324.3000" style="font-size: 10px; font-family: 'Arial'; fill: #2e3436; fill-opacity: 1.00; stroke: none;">1</text></g></g></svg>
