<?xml version="1.0"?>
<svg xmlns="http://www.w3.org/2000/svg" width="500" height="420" version="1.0" id="ezcGraph"><defs/><g id="ezcGraphChart" color-rendering="optimizeQuality" shape-rendering="geometricPrecision" text-rendering="optimizeLegibility"><path d=" M 0.0000,420.0000 L 0.0000,0.0000 L 500.0000,0.0000 L 500.0000,420.0000 L 0.0000,420.0000 z " style="fill: #eeeeec; fill-opacity: 1.00; stroke: none;" id="ezcGraphPolygon_1"/><path d=" M 0.0000,42.0000 L 0.0000,0.0000 L 500.0000,0.0000 L 500.0000,42.0000 L 0.0000,42.0000 z " style="fill: #000000; fill-opacity: 0.00; stroke: none;" id="ezcGraphPolygon_2"/><path d="M 242.47,240.98 L 354.97,240.98 A 112.50,112.50 0 1,1 211.68,132.77 z" style="fill: #3465a4; fill-opacity: 1.00; stroke: none; cursor: pointer;" id="ezcGraphCircleSector_4" onclick="top.location = 'http://127.0.0.1/linux-hardware.org/index.php?view=computers&amp;f=scanner_vendor&amp;v=Canon&amp;p=-1'"/><path d="M 242.09,241.48 L 354.47,241.48 A 112.00,112.00 0 1,1 211.34,133.39 z" style="fill: none; stroke: #1a3352; stroke-width: 1; stroke-opacity: 1.00; stroke-linecap: round; stroke-linejoin: round;" id="ezcGraphCircleSector_5"/><path d="M 250.00,231.00 L 219.21,122.79 A 112.50,112.50 0 0,1 317.80,141.22 z" style="fill: #4e9a06; fill-opacity: 1.00; stroke: none; cursor: pointer;" id="ezcGraphCircleSector_6" onclick="top.location = 'http://127.0.0.1/linux-hardware.org/index.php?view=computers&amp;f=scanner_vendor&amp;v=Seiko+Epson&amp;p=-1'"/><path d="M 250.21,229.90 L 219.83,123.14 A 112.00,112.00 0 0,1 317.10,141.32 z" style="fill: none; stroke: #274d03; stroke-width: 1; stroke-opacity: 1.00; stroke-linecap: round; stroke-linejoin: round;" id="ezcGraphCircleSector_7"/><path d="M 250.00,231.00 L 317.80,141.22 A 112.50,112.50 0 0,1 360.58,210.33 z" style="fill: #cc0000; fill-opacity: 1.00; stroke: none; cursor: pointer;" id="ezcGraphCircleSector_8" onclick="top.location = 'http://127.0.0.1/linux-hardware.org/index.php?view=computers&amp;f=scanner_vendor&amp;v=Hewlett-Packard&amp;p=-1'"/><path d="M 251.18,230.27 L 317.89,141.92 A 112.00,112.00 0 0,1 360.00,209.93 z" style="fill: none; stroke: #660000; stroke-width: 1; stroke-opacity: 1.00; stroke-linecap: round; stroke-linejoin: round;" id="ezcGraphCircleSector_9"/><path d="M 250.00,231.00 L 360.58,210.33 A 112.50,112.50 0 0,1 362.50,231.00 z" style="fill: #edd400; fill-opacity: 1.00; stroke: none; cursor: pointer;" id="ezcGraphCircleSector_10" onclick="top.location = 'http://127.0.0.1/linux-hardware.org/index.php?view=computers&amp;f=scanner_vendor&amp;v=Ultima+Electronics&amp;p=-1'"/><path d="M 255.40,230.50 L 360.18,210.91 A 112.00,112.00 0 0,1 362.00,230.50 z" style="fill: none; stroke: #776a00; stroke-width: 1; stroke-opacity: 1.00; stroke-linecap: round; stroke-linejoin: round;" id="ezcGraphCircleSector_11"/><path d=" M 192.2475,307.4767 L 182.8118,340.0000" style="fill: none; stroke: #000000; stroke-width: 1; stroke-opacity: 1.00; stroke-linecap: round; stroke-linejoin: round;" id="ezcGraphLine_12"/><ellipse cx="192.2475" cy="307.4767" rx="3.0000" ry="3.0000" style="fill: #000000; fill-opacity: 1.00; stroke: none;" id="ezcGraphCircle_13"/><ellipse cx="182.8118" cy="340.0000" rx="3.0000" ry="3.0000" style="fill: #000000; fill-opacity: 1.00; stroke: none;" id="ezcGraphCircle_14"/><path d=" M 265.3125,149.0856 L 278.2711,108.0000" style="fill: none; stroke: #000000; stroke-width: 1; stroke-opacity: 1.00; stroke-linecap: round; stroke-linejoin: round;" id="ezcGraphLine_16"/><ellipse cx="265.3125" cy="149.0856" rx="3.0000" ry="3.0000" style="fill: #000000; fill-opacity: 1.00; stroke: none;" id="ezcGraphCircle_17"/><ellipse cx="278.2711" cy="108.0000" rx="3.0000" ry="3.0000" style="fill: #000000; fill-opacity: 1.00; stroke: none;" id="ezcGraphCircle_18"/><path d=" M 320.8514,187.1307 L 362.1555,165.0000" style="fill: none; stroke: #000000; stroke-width: 1; stroke-opacity: 1.00; stroke-linecap: round; stroke-linejoin: round;" id="ezcGraphLine_20"/><ellipse cx="320.8514" cy="187.1307" rx="3.0000" ry="3.0000" style="fill: #000000; fill-opacity: 1.00; stroke: none;" id="ezcGraphCircle_21"/><ellipse cx="362.1555" cy="165.0000" rx="3.0000" ry="3.0000" style="fill: #000000; fill-opacity: 1.00; stroke: none;" id="ezcGraphCircle_22"/><path d=" M 332.9778,223.3110 L 380.4227,219.0000" style="fill: none; stroke: #000000; stroke-width: 1; stroke-opacity: 1.00; stroke-linecap: round; stroke-linejoin: round;" id="ezcGraphLine_24"/><ellipse cx="332.9778" cy="223.3110" rx="3.0000" ry="3.0000" style="fill: #000000; fill-opacity: 1.00; stroke: none;" id="ezcGraphCircle_25"/><ellipse cx="380.4227" cy="219.0000" rx="3.0000" ry="3.0000" style="fill: #000000; fill-opacity: 1.00; stroke: none;" id="ezcGraphCircle_26"/><g id="ezcGraphTextBox_3"><path d=" M 101.1000,42.0000 L 101.1000,0.5000 L 399.4000,0.5000 L 399.4000,42.0000 L 101.1000,42.0000 z " style="fill: #ffffff; fill-opacity: 0.00; stroke: none;" id="ezcGraphPolygon_28"/><text id="ezcGraphTextBox_3_text" x="101.6000" text-length="296.8000px" y="35.0000" style="font-size: 40px; font-family: 'Arial'; fill: #2e3436; fill-opacity: 1.00; stroke: none;">Scanner Vendor</text></g><g id="ezcGraphTextBox_15" style=" cursor: pointer;" onclick="top.location = 'http://127.0.0.1/linux-hardware.org/index.php?view=computers&amp;f=scanner_vendor&amp;v=Canon&amp;p=-1'"><path d=" M 86.7418,347.5000 L 86.7418,333.0000 L 177.8118,333.0000 L 177.8118,347.5000 L 86.7418,347.5000 z " style="fill: #ffffff; fill-opacity: 0.00; stroke: none;" id="ezcGraphPolygon_29"/><text id="ezcGraphTextBox_15_text" x="87.2418" text-length="89.5700px" y="344.5500" style="font-size: 13px; font-family: 'Arial'; fill: #2e3436; fill-opacity: 1.00; stroke: none;">Canon (70.6%)</text></g><g id="ezcGraphTextBox_19" style=" cursor: pointer;" onclick="top.location = 'http://127.0.0.1/linux-hardware.org/index.php?view=computers&amp;f=scanner_vendor&amp;v=Seiko+Epson&amp;p=-1'"><path d=" M 283.7711,115.5000 L 283.7711,101.0000 L 416.1811,101.0000 L 416.1811,115.5000 L 283.7711,115.5000 z " style="fill: #ffffff; fill-opacity: 0.00; stroke: none;" id="ezcGraphPolygon_30"/><text id="ezcGraphTextBox_19_text" x="284.2711" text-length="130.9100px" y="112.5500" style="font-size: 13px; font-family: 'Arial'; fill: #2e3436; fill-opacity: 1.00; stroke: none;">Seiko Epson (14.7%)</text></g><g id="ezcGraphTextBox_23" style=" cursor: pointer;" onclick="top.location = 'http://127.0.0.1/linux-hardware.org/index.php?view=computers&amp;f=scanner_vendor&amp;v=Hewlett-Packard&amp;p=-1'"><path d=" M 367.6555,179.0500 L 367.6555,151.4500 L 472.5055,151.4500 L 472.5055,179.0500 L 367.6555,179.0500 z " style="fill: #ffffff; fill-opacity: 0.00; stroke: none;" id="ezcGraphPolygon_31"/><text id="ezcGraphTextBox_23_text" x="368.1555" text-length="103.3500px" y="163.0000" style="font-size: 13px; font-family: 'Arial'; fill: #2e3436; fill-opacity: 1.00; stroke: none;">Hewlett-Packard</text><text id="ezcGraphTextBox_23_text" x="368.1555" text-length="48.2300px" y="177.3000" style="font-size: 13px; font-family: 'Arial'; fill: #2e3436; fill-opacity: 1.00; stroke: none;">(11.8%)</text></g><g id="ezcGraphTextBox_27" style=" cursor: pointer;" onclick="top.location = 'http://127.0.0.1/linux-hardware.org/index.php?view=computers&amp;f=scanner_vendor&amp;v=Ultima+Electronics&amp;p=-1'"><path d=" M 385.9227,233.0500 L 385.9227,205.4500 L 497.6627,205.4500 L 497.6627,233.0500 L 385.9227,233.0500 z " style="fill: #ffffff; fill-opacity: 0.00; stroke: none;" id="ezcGraphPolygon_32"/><text id="ezcGraphTextBox_27_text" x="386.4227" text-length="110.2400px" y="217.0000" style="font-size: 13px; font-family: 'Arial'; fill: #2e3436; fill-opacity: 1.00; stroke: none;">Ultima Electr...</text><text id="ezcGraphTextBox_27_text" x="386.4227" text-length="41.3400px" y="231.3000" style="font-size: 13px; font-family: 'Arial'; fill: #2e3436; fill-opacity: 1.00; stroke: none;">(2.9%)</text></g></g></svg>
