<?xml version="1.0"?>
<svg xmlns="http://www.w3.org/2000/svg" width="500" height="420" version="1.0" id="ezcGraph"><defs/><g id="ezcGraphChart" color-rendering="optimizeQuality" shape-rendering="geometricPrecision" text-rendering="optimizeLegibility"><path d=" M 0.0000,420.0000 L 0.0000,0.0000 L 500.0000,0.0000 L 500.0000,420.0000 L 0.0000,420.0000 z " style="fill: #eeeeec; fill-opacity: 1.00; stroke: none;" id="ezcGraphPolygon_1"/><path d=" M 0.0000,42.0000 L 0.0000,0.0000 L 500.0000,0.0000 L 500.0000,42.0000 L 0.0000,42.0000 z " style="fill: #000000; fill-opacity: 0.00; stroke: none;" id="ezcGraphPolygon_2"/><path d=" M 0.0000,420.0000 L 0.0000,42.0000 L 100.0000,42.0000 L 100.0000,420.0000 L 0.0000,420.0000 z " style="fill: #000000; fill-opacity: 0.00; stroke: none;" id="ezcGraphPolygon_4"/><path d=" M 2.0000,58.0000 L 2.0000,44.0000 L 16.0000,44.0000 L 16.0000,58.0000 L 2.0000,58.0000 z " style="fill: #3465a4; fill-opacity: 1.00; stroke: none; cursor: pointer;" id="ezcGraphPolygon_5" onclick="top.location = 'https://linux-hardware.org/?view=computers&amp;type=desktop&amp;vendor=MSI&amp;p=-1'"/><path d=" M 2.0000,76.0000 L 2.0000,62.0000 L 16.0000,62.0000 L 16.0000,76.0000 L 2.0000,76.0000 z " style="fill: #4e9a06; fill-opacity: 1.00; stroke: none; cursor: pointer;" id="ezcGraphPolygon_7" onclick="top.location = 'https://linux-hardware.org/?view=computers&amp;type=desktop&amp;vendor=Gigabyte+Technology&amp;p=-1'"/><path d=" M 2.0000,94.0000 L 2.0000,80.0000 L 16.0000,80.0000 L 16.0000,94.0000 L 2.0000,94.0000 z " style="fill: #cc0000; fill-opacity: 1.00; stroke: none; cursor: pointer;" id="ezcGraphPolygon_9" onclick="top.location = 'https://linux-hardware.org/?view=computers&amp;type=desktop&amp;vendor=ASUSTek+Computer&amp;p=-1'"/><path d=" M 2.0000,112.0000 L 2.0000,98.0000 L 16.0000,98.0000 L 16.0000,112.0000 L 2.0000,112.0000 z " style="fill: #edd400; fill-opacity: 1.00; stroke: none; cursor: pointer;" id="ezcGraphPolygon_11" onclick="top.location = 'https://linux-hardware.org/?view=computers&amp;type=desktop&amp;vendor=ASRock&amp;p=-1'"/><path d=" M 2.0000,130.0000 L 2.0000,116.0000 L 16.0000,116.0000 L 16.0000,130.0000 L 2.0000,130.0000 z " style="fill: #75505b; fill-opacity: 1.00; stroke: none; cursor: pointer;" id="ezcGraphPolygon_13" onclick="top.location = 'https://linux-hardware.org/?view=computers&amp;type=desktop&amp;vendor=Hewlett-Packard&amp;p=-1'"/><path d=" M 2.0000,148.0000 L 2.0000,134.0000 L 16.0000,134.0000 L 16.0000,148.0000 L 2.0000,148.0000 z " style="fill: #f57900; fill-opacity: 1.00; stroke: none;" id="ezcGraphPolygon_15"/><path d=" M 100.0000,382.2000 L 500.0000,382.2000" style="fill: none; stroke: #2e3436; stroke-width: 1; stroke-opacity: 1.00; stroke-linecap: round; stroke-linejoin: round;" id="ezcGraphLine_17"/><path d=" M 492.0000,378.2000 L 500.0000,382.2000 L 492.0000,386.2000 L 492.0000,378.2000 z " style="fill: #2e3436; fill-opacity: 1.00; stroke: none;" id="ezcGraphPolygon_18"/><path d=" M 185.7143,79.8000 L 185.7143,382.2000" style="fill: none; stroke: #000000; stroke-width: 1; stroke-opacity: 0.00; stroke-linecap: round; stroke-linejoin: round;" id="ezcGraphLine_21"/><path d=" M 185.7143,379.2000 L 185.7143,385.2000" style="fill: none; stroke: #2e3436; stroke-width: 1; stroke-opacity: 1.00; stroke-linecap: round; stroke-linejoin: round;" id="ezcGraphLine_22"/><path d=" M 231.4286,79.8000 L 231.4286,382.2000" style="fill: none; stroke: #000000; stroke-width: 1; stroke-opacity: 0.00; stroke-linecap: round; stroke-linejoin: round;" id="ezcGraphLine_24"/><path d=" M 231.4286,379.2000 L 231.4286,385.2000" style="fill: none; stroke: #2e3436; stroke-width: 1; stroke-opacity: 1.00; stroke-linecap: round; stroke-linejoin: round;" id="ezcGraphLine_25"/><path d=" M 277.1429,79.8000 L 277.1429,382.2000" style="fill: none; stroke: #000000; stroke-width: 1; stroke-opacity: 0.00; stroke-linecap: round; stroke-linejoin: round;" id="ezcGraphLine_27"/><path d=" M 277.1429,379.2000 L 277.1429,385.2000" style="fill: none; stroke: #2e3436; stroke-width: 1; stroke-opacity: 1.00; stroke-linecap: round; stroke-linejoin: round;" id="ezcGraphLine_28"/><path d=" M 322.8571,79.8000 L 322.8571,382.2000" style="fill: none; stroke: #000000; stroke-width: 1; stroke-opacity: 0.00; stroke-linecap: round; stroke-linejoin: round;" id="ezcGraphLine_30"/><path d=" M 322.8571,379.2000 L 322.8571,385.2000" style="fill: none; stroke: #2e3436; stroke-width: 1; stroke-opacity: 1.00; stroke-linecap: round; stroke-linejoin: round;" id="ezcGraphLine_31"/><path d=" M 368.5714,79.8000 L 368.5714,382.2000" style="fill: none; stroke: #000000; stroke-width: 1; stroke-opacity: 0.00; stroke-linecap: round; stroke-linejoin: round;" id="ezcGraphLine_33"/><path d=" M 368.5714,379.2000 L 368.5714,385.2000" style="fill: none; stroke: #2e3436; stroke-width: 1; stroke-opacity: 1.00; stroke-linecap: round; stroke-linejoin: round;" id="ezcGraphLine_34"/><path d=" M 414.2857,79.8000 L 414.2857,382.2000" style="fill: none; stroke: #000000; stroke-width: 1; stroke-opacity: 0.00; stroke-linecap: round; stroke-linejoin: round;" id="ezcGraphLine_36"/><path d=" M 414.2857,379.2000 L 414.2857,385.2000" style="fill: none; stroke: #2e3436; stroke-width: 1; stroke-opacity: 1.00; stroke-linecap: round; stroke-linejoin: round;" id="ezcGraphLine_37"/><path d=" M 460.0000,79.8000 L 460.0000,382.2000" style="fill: none; stroke: #000000; stroke-width: 1; stroke-opacity: 0.00; stroke-linecap: round; stroke-linejoin: round;" id="ezcGraphLine_39"/><path d=" M 460.0000,379.2000 L 460.0000,385.2000" style="fill: none; stroke: #2e3436; stroke-width: 1; stroke-opacity: 1.00; stroke-linecap: round; stroke-linejoin: round;" id="ezcGraphLine_40"/><path d=" M 140.0000,420.0000 L 140.0000,42.0000" style="fill: none; stroke: #2e3436; stroke-width: 1; stroke-opacity: 1.00; stroke-linecap: round; stroke-linejoin: round;" id="ezcGraphLine_41"/><path d=" M 136.0000,50.0000 L 140.0000,42.0000 L 144.0000,50.0000 L 136.0000,50.0000 z " style="fill: #2e3436; fill-opacity: 1.00; stroke: none;" id="ezcGraphPolygon_42"/><path d=" M 140.0000,79.8000 L 460.0000,79.8000" style="fill: none; stroke: #000000; stroke-width: 1; stroke-opacity: 0.00; stroke-linecap: round; stroke-linejoin: round;" id="ezcGraphLine_45"/><path d=" M 140.0000,79.8000 L 143.0000,79.8000" style="fill: none; stroke: #2e3436; stroke-width: 1; stroke-opacity: 1.00; stroke-linecap: round; stroke-linejoin: round;" id="ezcGraphLine_46"/><path d=" M 162.8571,140.2800 L 162.8571,140.2800" style="fill: none; stroke: #3465a4; stroke-width: 1; stroke-opacity: 1.00; stroke-linecap: round; stroke-linejoin: round;" id="ezcGraphLine_48"/><path d=" M 162.8571,140.2800 L 208.5714,250.9584" style="fill: none; stroke: #3465a4; stroke-width: 1; stroke-opacity: 1.00; stroke-linecap: round; stroke-linejoin: round;" id="ezcGraphLine_50"/><path d=" M 208.5714,250.9584 L 254.2857,267.2880" style="fill: none; stroke: #3465a4; stroke-width: 1; stroke-opacity: 1.00; stroke-linecap: round; stroke-linejoin: round;" id="ezcGraphLine_52"/><path d=" M 254.2857,267.2880 L 300.0000,212.2512" style="fill: none; stroke: #3465a4; stroke-width: 1; stroke-opacity: 1.00; stroke-linecap: round; stroke-linejoin: round;" id="ezcGraphLine_54"/><path d=" M 300.0000,212.2512 L 345.7143,281.1984" style="fill: none; stroke: #3465a4; stroke-width: 1; stroke-opacity: 1.00; stroke-linecap: round; stroke-linejoin: round;" id="ezcGraphLine_56"/><path d=" M 345.7143,281.1984 L 391.4286,295.7136" style="fill: none; stroke: #3465a4; stroke-width: 1; stroke-opacity: 1.00; stroke-linecap: round; stroke-linejoin: round;" id="ezcGraphLine_58"/><path d=" M 391.4286,295.7136 L 437.1429,241.2816" style="fill: none; stroke: #3465a4; stroke-width: 1; stroke-opacity: 1.00; stroke-linecap: round; stroke-linejoin: round;" id="ezcGraphLine_60"/><path d=" M 208.5714,276.9648 L 208.5714,276.9648" style="fill: none; stroke: #4e9a06; stroke-width: 1; stroke-opacity: 1.00; stroke-linecap: round; stroke-linejoin: round;" id="ezcGraphLine_62"/><path d=" M 208.5714,276.9648 L 254.2857,295.7136" style="fill: none; stroke: #4e9a06; stroke-width: 1; stroke-opacity: 1.00; stroke-linecap: round; stroke-linejoin: round;" id="ezcGraphLine_64"/><path d=" M 254.2857,295.7136 L 300.0000,306.6000" style="fill: none; stroke: #4e9a06; stroke-width: 1; stroke-opacity: 1.00; stroke-linecap: round; stroke-linejoin: round;" id="ezcGraphLine_66"/><path d=" M 300.0000,306.6000 L 345.7143,321.7200" style="fill: none; stroke: #4e9a06; stroke-width: 1; stroke-opacity: 1.00; stroke-linecap: round; stroke-linejoin: round;" id="ezcGraphLine_68"/><path d=" M 345.7143,321.7200 L 391.4286,273.9408" style="fill: none; stroke: #4e9a06; stroke-width: 1; stroke-opacity: 1.00; stroke-linecap: round; stroke-linejoin: round;" id="ezcGraphLine_70"/><path d=" M 391.4286,273.9408 L 437.1429,261.2400" style="fill: none; stroke: #4e9a06; stroke-width: 1; stroke-opacity: 1.00; stroke-linecap: round; stroke-linejoin: round;" id="ezcGraphLine_72"/><path d=" M 162.8571,261.2400 L 162.8571,261.2400" style="fill: none; stroke: #cc0000; stroke-width: 1; stroke-opacity: 1.00; stroke-linecap: round; stroke-linejoin: round;" id="ezcGraphLine_74"/><path d=" M 162.8571,261.2400 L 208.5714,224.3472" style="fill: none; stroke: #cc0000; stroke-width: 1; stroke-opacity: 1.00; stroke-linecap: round; stroke-linejoin: round;" id="ezcGraphLine_76"/><path d=" M 208.5714,224.3472 L 254.2857,209.2272" style="fill: none; stroke: #cc0000; stroke-width: 1; stroke-opacity: 1.00; stroke-linecap: round; stroke-linejoin: round;" id="ezcGraphLine_78"/><path d=" M 254.2857,209.2272 L 300.0000,117.2976" style="fill: none; stroke: #cc0000; stroke-width: 1; stroke-opacity: 1.00; stroke-linecap: round; stroke-linejoin: round;" id="ezcGraphLine_80"/><path d=" M 300.0000,117.2976 L 345.7143,140.2800" style="fill: none; stroke: #cc0000; stroke-width: 1; stroke-opacity: 1.00; stroke-linecap: round; stroke-linejoin: round;" id="ezcGraphLine_82"/><path d=" M 345.7143,140.2800 L 391.4286,166.2864" style="fill: none; stroke: #cc0000; stroke-width: 1; stroke-opacity: 1.00; stroke-linecap: round; stroke-linejoin: round;" id="ezcGraphLine_84"/><path d=" M 391.4286,166.2864 L 437.1429,261.2400" style="fill: none; stroke: #cc0000; stroke-width: 1; stroke-opacity: 1.00; stroke-linecap: round; stroke-linejoin: round;" id="ezcGraphLine_86"/><path d=" M 208.5714,329.5824 L 208.5714,329.5824" style="fill: none; stroke: #edd400; stroke-width: 1; stroke-opacity: 1.00; stroke-linecap: round; stroke-linejoin: round;" id="ezcGraphLine_88"/><path d=" M 208.5714,329.5824 L 254.2857,324.7440" style="fill: none; stroke: #edd400; stroke-width: 1; stroke-opacity: 1.00; stroke-linecap: round; stroke-linejoin: round;" id="ezcGraphLine_90"/><path d=" M 254.2857,324.7440 L 300.0000,325.3488" style="fill: none; stroke: #edd400; stroke-width: 1; stroke-opacity: 1.00; stroke-linecap: round; stroke-linejoin: round;" id="ezcGraphLine_92"/><path d=" M 300.0000,325.3488 L 345.7143,281.1984" style="fill: none; stroke: #edd400; stroke-width: 1; stroke-opacity: 1.00; stroke-linecap: round; stroke-linejoin: round;" id="ezcGraphLine_94"/><path d=" M 345.7143,281.1984 L 391.4286,295.7136" style="fill: none; stroke: #edd400; stroke-width: 1; stroke-opacity: 1.00; stroke-linecap: round; stroke-linejoin: round;" id="ezcGraphLine_96"/><path d=" M 391.4286,295.7136 L 437.1429,321.7200" style="fill: none; stroke: #edd400; stroke-width: 1; stroke-opacity: 1.00; stroke-linecap: round; stroke-linejoin: round;" id="ezcGraphLine_98"/><path d=" M 208.5714,356.1936 L 208.5714,356.1936" style="fill: none; stroke: #75505b; stroke-width: 1; stroke-opacity: 1.00; stroke-linecap: round; stroke-linejoin: round;" id="ezcGraphLine_100"/><path d=" M 208.5714,356.1936 L 300.0000,344.0976" style="fill: none; stroke: #75505b; stroke-width: 1; stroke-opacity: 1.00; stroke-linecap: round; stroke-linejoin: round;" id="ezcGraphLine_102"/><path d=" M 300.0000,344.0976 L 391.4286,360.4272" style="fill: none; stroke: #75505b; stroke-width: 1; stroke-opacity: 1.00; stroke-linecap: round; stroke-linejoin: round;" id="ezcGraphLine_104"/><path d=" M 391.4286,360.4272 L 437.1429,341.6784" style="fill: none; stroke: #75505b; stroke-width: 1; stroke-opacity: 1.00; stroke-linecap: round; stroke-linejoin: round;" id="ezcGraphLine_106"/><path d=" M 162.8571,140.2800 L 162.8571,140.2800" style="fill: none; stroke: #f57900; stroke-width: 1; stroke-opacity: 1.00; stroke-linecap: round; stroke-linejoin: round;" id="ezcGraphLine_108"/><path d=" M 162.8571,140.2800 L 208.5714,250.9584" style="fill: none; stroke: #f57900; stroke-width: 1; stroke-opacity: 1.00; stroke-linecap: round; stroke-linejoin: round;" id="ezcGraphLine_110"/><path d=" M 208.5714,250.9584 L 254.2857,209.2272" style="fill: none; stroke: #f57900; stroke-width: 1; stroke-opacity: 1.00; stroke-linecap: round; stroke-linejoin: round;" id="ezcGraphLine_112"/><path d=" M 254.2857,209.2272 L 345.7143,281.1984" style="fill: none; stroke: #f57900; stroke-width: 1; stroke-opacity: 1.00; stroke-linecap: round; stroke-linejoin: round;" id="ezcGraphLine_114"/><path d=" M 345.7143,281.1984 L 391.4286,295.7136" style="fill: none; stroke: #f57900; stroke-width: 1; stroke-opacity: 1.00; stroke-linecap: round; stroke-linejoin: round;" id="ezcGraphLine_116"/><path d=" M 391.4286,295.7136 L 437.1429,261.2400" style="fill: none; stroke: #f57900; stroke-width: 1; stroke-opacity: 1.00; stroke-linecap: round; stroke-linejoin: round;" id="ezcGraphLine_118"/><path d=" M 159.8571,143.2800 L 159.8571,137.2800 L 165.8571,137.2800 L 165.8571,143.2800 L 159.8571,143.2800 z " style="fill: #3465a4; fill-opacity: 1.00; stroke: none; cursor: pointer;" id="ezcGraphPolygon_120" onclick="top.location = 'https://linux-hardware.org/?view=computers&amp;type=desktop&amp;vendor=MSI&amp;p=-1&amp;p=103'"/><path d=" M 205.5714,253.9584 L 205.5714,247.9584 L 211.5714,247.9584 L 211.5714,253.9584 L 205.5714,253.9584 z " style="fill: #3465a4; fill-opacity: 1.00; stroke: none; cursor: pointer;" id="ezcGraphPolygon_121" onclick="top.location = 'https://linux-hardware.org/?view=computers&amp;type=desktop&amp;vendor=MSI&amp;p=-1&amp;p=105'"/><path d=" M 251.2857,270.2880 L 251.2857,264.2880 L 257.2857,264.2880 L 257.2857,270.2880 L 251.2857,270.2880 z " style="fill: #3465a4; fill-opacity: 1.00; stroke: none; cursor: pointer;" id="ezcGraphPolygon_122" onclick="top.location = 'https://linux-hardware.org/?view=computers&amp;type=desktop&amp;vendor=MSI&amp;p=-1&amp;p=107'"/><path d=" M 297.0000,215.2512 L 297.0000,209.2512 L 303.0000,209.2512 L 303.0000,215.2512 L 297.0000,215.2512 z " style="fill: #3465a4; fill-opacity: 1.00; stroke: none; cursor: pointer;" id="ezcGraphPolygon_123" onclick="top.location = 'https://linux-hardware.org/?view=computers&amp;type=desktop&amp;vendor=MSI&amp;p=-1&amp;p=109'"/><path d=" M 342.7143,284.1984 L 342.7143,278.1984 L 348.7143,278.1984 L 348.7143,284.1984 L 342.7143,284.1984 z " style="fill: #3465a4; fill-opacity: 1.00; stroke: none; cursor: pointer;" id="ezcGraphPolygon_124" onclick="top.location = 'https://linux-hardware.org/?view=computers&amp;type=desktop&amp;vendor=MSI&amp;p=-1&amp;p=111'"/><path d=" M 388.4286,298.7136 L 388.4286,292.7136 L 394.4286,292.7136 L 394.4286,298.7136 L 388.4286,298.7136 z " style="fill: #3465a4; fill-opacity: 1.00; stroke: none; cursor: pointer;" id="ezcGraphPolygon_125" onclick="top.location = 'https://linux-hardware.org/?view=computers&amp;type=desktop&amp;vendor=MSI&amp;p=-1&amp;p=113'"/><path d=" M 434.1429,244.2816 L 434.1429,238.2816 L 440.1429,238.2816 L 440.1429,244.2816 L 434.1429,244.2816 z " style="fill: #3465a4; fill-opacity: 1.00; stroke: none; cursor: pointer;" id="ezcGraphPolygon_126" onclick="top.location = 'https://linux-hardware.org/?view=computers&amp;type=desktop&amp;vendor=MSI&amp;p=-1&amp;p=115'"/><path d=" M 205.5714,279.9648 L 205.5714,273.9648 L 211.5714,273.9648 L 211.5714,279.9648 L 205.5714,279.9648 z " style="fill: #4e9a06; fill-opacity: 1.00; stroke: none; cursor: pointer;" id="ezcGraphPolygon_127" onclick="top.location = 'https://linux-hardware.org/?view=computers&amp;type=desktop&amp;vendor=Gigabyte+Technology&amp;p=-1&amp;p=105'"/><path d=" M 251.2857,298.7136 L 251.2857,292.7136 L 257.2857,292.7136 L 257.2857,298.7136 L 251.2857,298.7136 z " style="fill: #4e9a06; fill-opacity: 1.00; stroke: none; cursor: pointer;" id="ezcGraphPolygon_128" onclick="top.location = 'https://linux-hardware.org/?view=computers&amp;type=desktop&amp;vendor=Gigabyte+Technology&amp;p=-1&amp;p=107'"/><path d=" M 297.0000,309.6000 L 297.0000,303.6000 L 303.0000,303.6000 L 303.0000,309.6000 L 297.0000,309.6000 z " style="fill: #4e9a06; fill-opacity: 1.00; stroke: none; cursor: pointer;" id="ezcGraphPolygon_129" onclick="top.location = 'https://linux-hardware.org/?view=computers&amp;type=desktop&amp;vendor=Gigabyte+Technology&amp;p=-1&amp;p=109'"/><path d=" M 342.7143,324.7200 L 342.7143,318.7200 L 348.7143,318.7200 L 348.7143,324.7200 L 342.7143,324.7200 z " style="fill: #4e9a06; fill-opacity: 1.00; stroke: none; cursor: pointer;" id="ezcGraphPolygon_130" onclick="top.location = 'https://linux-hardware.org/?view=computers&amp;type=desktop&amp;vendor=Gigabyte+Technology&amp;p=-1&amp;p=111'"/><path d=" M 388.4286,276.9408 L 388.4286,270.9408 L 394.4286,270.9408 L 394.4286,276.9408 L 388.4286,276.9408 z " style="fill: #4e9a06; fill-opacity: 1.00; stroke: none; cursor: pointer;" id="ezcGraphPolygon_131" onclick="top.location = 'https://linux-hardware.org/?view=computers&amp;type=desktop&amp;vendor=Gigabyte+Technology&amp;p=-1&amp;p=113'"/><path d=" M 434.1429,264.2400 L 434.1429,258.2400 L 440.1429,258.2400 L 440.1429,264.2400 L 434.1429,264.2400 z " style="fill: #4e9a06; fill-opacity: 1.00; stroke: none; cursor: pointer;" id="ezcGraphPolygon_132" onclick="top.location = 'https://linux-hardware.org/?view=computers&amp;type=desktop&amp;vendor=Gigabyte+Technology&amp;p=-1&amp;p=115'"/><path d=" M 159.8571,264.2400 L 159.8571,258.2400 L 165.8571,258.2400 L 165.8571,264.2400 L 159.8571,264.2400 z " style="fill: #cc0000; fill-opacity: 1.00; stroke: none; cursor: pointer;" id="ezcGraphPolygon_133" onclick="top.location = 'https://linux-hardware.org/?view=computers&amp;type=desktop&amp;vendor=ASUSTek+Computer&amp;p=-1&amp;p=103'"/><path d=" M 205.5714,227.3472 L 205.5714,221.3472 L 211.5714,221.3472 L 211.5714,227.3472 L 205.5714,227.3472 z " style="fill: #cc0000; fill-opacity: 1.00; stroke: none; cursor: pointer;" id="ezcGraphPolygon_134" onclick="top.location = 'https://linux-hardware.org/?view=computers&amp;type=desktop&amp;vendor=ASUSTek+Computer&amp;p=-1&amp;p=105'"/><path d=" M 251.2857,212.2272 L 251.2857,206.2272 L 257.2857,206.2272 L 257.2857,212.2272 L 251.2857,212.2272 z " style="fill: #cc0000; fill-opacity: 1.00; stroke: none; cursor: pointer;" id="ezcGraphPolygon_135" onclick="top.location = 'https://linux-hardware.org/?view=computers&amp;type=desktop&amp;vendor=ASUSTek+Computer&amp;p=-1&amp;p=107'"/><path d=" M 297.0000,120.2976 L 297.0000,114.2976 L 303.0000,114.2976 L 303.0000,120.2976 L 297.0000,120.2976 z " style="fill: #cc0000; fill-opacity: 1.00; stroke: none; cursor: pointer;" id="ezcGraphPolygon_136" onclick="top.location = 'https://linux-hardware.org/?view=computers&amp;type=desktop&amp;vendor=ASUSTek+Computer&amp;p=-1&amp;p=109'"/><path d=" M 342.7143,143.2800 L 342.7143,137.2800 L 348.7143,137.2800 L 348.7143,143.2800 L 342.7143,143.2800 z " style="fill: #cc0000; fill-opacity: 1.00; stroke: none; cursor: pointer;" id="ezcGraphPolygon_137" onclick="top.location = 'https://linux-hardware.org/?view=computers&amp;type=desktop&amp;vendor=ASUSTek+Computer&amp;p=-1&amp;p=111'"/><path d=" M 388.4286,169.2864 L 388.4286,163.2864 L 394.4286,163.2864 L 394.4286,169.2864 L 388.4286,169.2864 z " style="fill: #cc0000; fill-opacity: 1.00; stroke: none; cursor: pointer;" id="ezcGraphPolygon_138" onclick="top.location = 'https://linux-hardware.org/?view=computers&amp;type=desktop&amp;vendor=ASUSTek+Computer&amp;p=-1&amp;p=113'"/><path d=" M 434.1429,264.2400 L 434.1429,258.2400 L 440.1429,258.2400 L 440.1429,264.2400 L 434.1429,264.2400 z " style="fill: #cc0000; fill-opacity: 1.00; stroke: none; cursor: pointer;" id="ezcGraphPolygon_139" onclick="top.location = 'https://linux-hardware.org/?view=computers&amp;type=desktop&amp;vendor=ASUSTek+Computer&amp;p=-1&amp;p=115'"/><path d=" M 205.5714,332.5824 L 205.5714,326.5824 L 211.5714,326.5824 L 211.5714,332.5824 L 205.5714,332.5824 z " style="fill: #edd400; fill-opacity: 1.00; stroke: none; cursor: pointer;" id="ezcGraphPolygon_140" onclick="top.location = 'https://linux-hardware.org/?view=computers&amp;type=desktop&amp;vendor=ASRock&amp;p=-1&amp;p=105'"/><path d=" M 251.2857,327.7440 L 251.2857,321.7440 L 257.2857,321.7440 L 257.2857,327.7440 L 251.2857,327.7440 z " style="fill: #edd400; fill-opacity: 1.00; stroke: none; cursor: pointer;" id="ezcGraphPolygon_141" onclick="top.location = 'https://linux-hardware.org/?view=computers&amp;type=desktop&amp;vendor=ASRock&amp;p=-1&amp;p=107'"/><path d=" M 297.0000,328.3488 L 297.0000,322.3488 L 303.0000,322.3488 L 303.0000,328.3488 L 297.0000,328.3488 z " style="fill: #edd400; fill-opacity: 1.00; stroke: none; cursor: pointer;" id="ezcGraphPolygon_142" onclick="top.location = 'https://linux-hardware.org/?view=computers&amp;type=desktop&amp;vendor=ASRock&amp;p=-1&amp;p=109'"/><path d=" M 342.7143,284.1984 L 342.7143,278.1984 L 348.7143,278.1984 L 348.7143,284.1984 L 342.7143,284.1984 z " style="fill: #edd400; fill-opacity: 1.00; stroke: none; cursor: pointer;" id="ezcGraphPolygon_143" onclick="top.location = 'https://linux-hardware.org/?view=computers&amp;type=desktop&amp;vendor=ASRock&amp;p=-1&amp;p=111'"/><path d=" M 388.4286,298.7136 L 388.4286,292.7136 L 394.4286,292.7136 L 394.4286,298.7136 L 388.4286,298.7136 z " style="fill: #edd400; fill-opacity: 1.00; stroke: none; cursor: pointer;" id="ezcGraphPolygon_144" onclick="top.location = 'https://linux-hardware.org/?view=computers&amp;type=desktop&amp;vendor=ASRock&amp;p=-1&amp;p=113'"/><path d=" M 434.1429,324.7200 L 434.1429,318.7200 L 440.1429,318.7200 L 440.1429,324.7200 L 434.1429,324.7200 z " style="fill: #edd400; fill-opacity: 1.00; stroke: none; cursor: pointer;" id="ezcGraphPolygon_145" onclick="top.location = 'https://linux-hardware.org/?view=computers&amp;type=desktop&amp;vendor=ASRock&amp;p=-1&amp;p=115'"/><path d=" M 205.5714,359.1936 L 205.5714,353.1936 L 211.5714,353.1936 L 211.5714,359.1936 L 205.5714,359.1936 z " style="fill: #75505b; fill-opacity: 1.00; stroke: none; cursor: pointer;" id="ezcGraphPolygon_146" onclick="top.location = 'https://linux-hardware.org/?view=computers&amp;type=desktop&amp;vendor=Hewlett-Packard&amp;p=-1&amp;p=105'"/><path d=" M 297.0000,347.0976 L 297.0000,341.0976 L 303.0000,341.0976 L 303.0000,347.0976 L 297.0000,347.0976 z " style="fill: #75505b; fill-opacity: 1.00; stroke: none; cursor: pointer;" id="ezcGraphPolygon_147" onclick="top.location = 'https://linux-hardware.org/?view=computers&amp;type=desktop&amp;vendor=Hewlett-Packard&amp;p=-1&amp;p=109'"/><path d=" M 388.4286,363.4272 L 388.4286,357.4272 L 394.4286,357.4272 L 394.4286,363.4272 L 388.4286,363.4272 z " style="fill: #75505b; fill-opacity: 1.00; stroke: none; cursor: pointer;" id="ezcGraphPolygon_148" onclick="top.location = 'https://linux-hardware.org/?view=computers&amp;type=desktop&amp;vendor=Hewlett-Packard&amp;p=-1&amp;p=113'"/><path d=" M 434.1429,344.6784 L 434.1429,338.6784 L 440.1429,338.6784 L 440.1429,344.6784 L 434.1429,344.6784 z " style="fill: #75505b; fill-opacity: 1.00; stroke: none; cursor: pointer;" id="ezcGraphPolygon_149" onclick="top.location = 'https://linux-hardware.org/?view=computers&amp;type=desktop&amp;vendor=Hewlett-Packard&amp;p=-1&amp;p=115'"/><path d=" M 159.8571,143.2800 L 159.8571,137.2800 L 165.8571,137.2800 L 165.8571,143.2800 L 159.8571,143.2800 z " style="fill: #f57900; fill-opacity: 1.00; stroke: none;" id="ezcGraphPolygon_150"/><path d=" M 205.5714,253.9584 L 205.5714,247.9584 L 211.5714,247.9584 L 211.5714,253.9584 L 205.5714,253.9584 z " style="fill: #f57900; fill-opacity: 1.00; stroke: none;" id="ezcGraphPolygon_151"/><path d=" M 251.2857,212.2272 L 251.2857,206.2272 L 257.2857,206.2272 L 257.2857,212.2272 L 251.2857,212.2272 z " style="fill: #f57900; fill-opacity: 1.00; stroke: none;" id="ezcGraphPolygon_152"/><path d=" M 342.7143,284.1984 L 342.7143,278.1984 L 348.7143,278.1984 L 348.7143,284.1984 L 342.7143,284.1984 z " style="fill: #f57900; fill-opacity: 1.00; stroke: none;" id="ezcGraphPolygon_153"/><path d=" M 388.4286,298.7136 L 388.4286,292.7136 L 394.4286,292.7136 L 394.4286,298.7136 L 388.4286,298.7136 z " style="fill: #f57900; fill-opacity: 1.00; stroke: none;" id="ezcGraphPolygon_154"/><path d=" M 434.1429,264.2400 L 434.1429,258.2400 L 440.1429,258.2400 L 440.1429,264.2400 L 434.1429,264.2400 z " style="fill: #f57900; fill-opacity: 1.00; stroke: none;" id="ezcGraphPolygon_155"/><g id="ezcGraphTextBox_3"><path d=" M 185.9000,42.0000 L 185.9000,0.5000 L 314.6000,0.5000 L 314.6000,42.0000 L 185.9000,42.0000 z " style="fill: #ffffff; fill-opacity: 0.00; stroke: none;" id="ezcGraphPolygon_156"/><text id="ezcGraphTextBox_3_text" x="186.4000" text-length="127.2000px" y="35.0000" style="font-size: 40px; font-family: 'Arial'; fill: #2e3436; fill-opacity: 1.00; stroke: none;">Vendor</text></g><g id="ezcGraphTextBox_6" style=" cursor: pointer;" onclick="top.location = 'https://linux-hardware.org/?view=computers&amp;type=desktop&amp;vendor=MSI&amp;p=-1'"><path d=" M 16.5000,59.0000 L 16.5000,43.5000 L 40.2600,43.5000 L 40.2600,59.0000 L 16.5000,59.0000 z " style="fill: #ffffff; fill-opacity: 0.00; stroke: none;" id="ezcGraphPolygon_157"/><text id="ezcGraphTextBox_6_text" x="17.0000" text-length="22.2600px" y="55.9000" style="font-size: 14px; font-family: 'Arial'; fill: #2e3436; fill-opacity: 1.00; stroke: none;">MSI</text></g><g id="ezcGraphTextBox_8" style=" cursor: pointer;" onclick="top.location = 'https://linux-hardware.org/?view=computers&amp;type=desktop&amp;vendor=Gigabyte+Technology&amp;p=-1'"><path d=" M 16.5000,77.0000 L 16.5000,61.5000 L 77.3600,61.5000 L 77.3600,77.0000 L 16.5000,77.0000 z " style="fill: #ffffff; fill-opacity: 0.00; stroke: none;" id="ezcGraphPolygon_158"/><text id="ezcGraphTextBox_8_text" x="17.0000" text-length="59.3600px" y="73.9000" style="font-size: 14px; font-family: 'Arial'; fill: #2e3436; fill-opacity: 1.00; stroke: none;">Gigabyte</text></g><g id="ezcGraphTextBox_10" style=" cursor: pointer;" onclick="top.location = 'https://linux-hardware.org/?view=computers&amp;type=desktop&amp;vendor=ASUSTek+Computer&amp;p=-1'"><path d=" M 16.5000,95.0000 L 16.5000,79.5000 L 69.9400,79.5000 L 69.9400,95.0000 L 16.5000,95.0000 z " style="fill: #ffffff; fill-opacity: 0.00; stroke: none;" id="ezcGraphPolygon_159"/><text id="ezcGraphTextBox_10_text" x="17.0000" text-length="51.9400px" y="91.9000" style="font-size: 14px; font-family: 'Arial'; fill: #2e3436; fill-opacity: 1.00; stroke: none;">ASUSTek</text></g><g id="ezcGraphTextBox_12" style=" cursor: pointer;" onclick="top.location = 'https://linux-hardware.org/?view=computers&amp;type=desktop&amp;vendor=ASRock&amp;p=-1'"><path d=" M 16.5000,113.0000 L 16.5000,97.5000 L 62.5200,97.5000 L 62.5200,113.0000 L 16.5000,113.0000 z " style="fill: #ffffff; fill-opacity: 0.00; stroke: none;" id="ezcGraphPolygon_160"/><text id="ezcGraphTextBox_12_text" x="17.0000" text-length="44.5200px" y="109.9000" style="font-size: 14px; font-family: 'Arial'; fill: #2e3436; fill-opacity: 1.00; stroke: none;">ASRock</text></g><g id="ezcGraphTextBox_14" style=" cursor: pointer;" onclick="top.location = 'https://linux-hardware.org/?view=computers&amp;type=desktop&amp;vendor=Hewlett-Packard&amp;p=-1'"><path d=" M 16.5000,131.0000 L 16.5000,115.5000 L 32.8400,115.5000 L 32.8400,131.0000 L 16.5000,131.0000 z " style="fill: #ffffff; fill-opacity: 0.00; stroke: none;" id="ezcGraphPolygon_161"/><text id="ezcGraphTextBox_14_text" x="17.0000" text-length="14.8400px" y="127.9000" style="font-size: 14px; font-family: 'Arial'; fill: #2e3436; fill-opacity: 1.00; stroke: none;">HP</text></g><g id="ezcGraphTextBox_16"><path d=" M 16.5000,149.0000 L 16.5000,133.5000 L 62.5200,133.5000 L 62.5200,149.0000 L 16.5000,149.0000 z " style="fill: #ffffff; fill-opacity: 0.00; stroke: none;" id="ezcGraphPolygon_162"/><text id="ezcGraphTextBox_16_text" x="17.0000" text-length="44.5200px" y="145.9000" style="font-size: 14px; font-family: 'Arial'; fill: #2e3436; fill-opacity: 1.00; stroke: none;">Others</text></g><g id="ezcGraphTextBox_19" transform="rotate( 0.00 493.0000 375.2000 )"><path d=" M 460.4000,381.2000 L 460.4000,365.7000 L 499.0000,365.7000 L 499.0000,381.2000 L 460.4000,381.2000 z " style="fill: #ffffff; fill-opacity: 0.00; stroke: none;" id="ezcGraphPolygon_163"/><text id="ezcGraphTextBox_19_text" x="460.9000" text-length="37.1000px" y="378.1000" style="font-size: 14px; font-family: 'Arial'; fill: #2e3436; fill-opacity: 1.00; stroke: none;">Time </text></g><g id="ezcGraphTextBox_20"><path d=" M 144.9971,413.3000 L 144.9971,383.7000 L 181.2171,383.7000 L 181.2171,413.3000 L 144.9971,413.3000 z " style="fill: #ffffff; fill-opacity: 0.00; stroke: none;" id="ezcGraphPolygon_164"/><text id="ezcGraphTextBox_20_text" x="151.7271" text-length="22.2600px" y="396.1000" style="font-size: 14px; font-family: 'Arial'; fill: #2e3436; fill-opacity: 1.00; stroke: none;">Jul</text><text id="ezcGraphTextBox_20_text" x="145.4971" text-length="34.7200px" y="411.5000" style="font-size: 14px; font-family: 'Arial'; fill: #2e3436; fill-opacity: 1.00; stroke: none;">2022</text></g><g id="ezcGraphTextBox_23"><path d=" M 190.7114,413.3000 L 190.7114,383.7000 L 226.9314,383.7000 L 226.9314,413.3000 L 190.7114,413.3000 z " style="fill: #ffffff; fill-opacity: 0.00; stroke: none;" id="ezcGraphPolygon_165"/><text id="ezcGraphTextBox_23_text" x="197.4414" text-length="22.2600px" y="396.1000" style="font-size: 14px; font-family: 'Arial'; fill: #2e3436; fill-opacity: 1.00; stroke: none;">Sep</text><text id="ezcGraphTextBox_23_text" x="191.2114" text-length="34.7200px" y="411.5000" style="font-size: 14px; font-family: 'Arial'; fill: #2e3436; fill-opacity: 1.00; stroke: none;">2022</text></g><g id="ezcGraphTextBox_26"><path d=" M 236.4257,413.3000 L 236.4257,383.7000 L 272.6457,383.7000 L 272.6457,413.3000 L 236.4257,413.3000 z " style="fill: #ffffff; fill-opacity: 0.00; stroke: none;" id="ezcGraphPolygon_166"/><text id="ezcGraphTextBox_26_text" x="243.1557" text-length="22.2600px" y="396.1000" style="font-size: 14px; font-family: 'Arial'; fill: #2e3436; fill-opacity: 1.00; stroke: none;">Nov</text><text id="ezcGraphTextBox_26_text" x="236.9257" text-length="34.7200px" y="411.5000" style="font-size: 14px; font-family: 'Arial'; fill: #2e3436; fill-opacity: 1.00; stroke: none;">2022</text></g><g id="ezcGraphTextBox_29"><path d=" M 282.1400,413.3000 L 282.1400,383.7000 L 318.3600,383.7000 L 318.3600,413.3000 L 282.1400,413.3000 z " style="fill: #ffffff; fill-opacity: 0.00; stroke: none;" id="ezcGraphPolygon_167"/><text id="ezcGraphTextBox_29_text" x="288.8700" text-length="22.2600px" y="396.1000" style="font-size: 14px; font-family: 'Arial'; fill: #2e3436; fill-opacity: 1.00; stroke: none;">Jan</text><text id="ezcGraphTextBox_29_text" x="282.6400" text-length="34.7200px" y="411.5000" style="font-size: 14px; font-family: 'Arial'; fill: #2e3436; fill-opacity: 1.00; stroke: none;">2023</text></g><g id="ezcGraphTextBox_32"><path d=" M 327.8543,413.3000 L 327.8543,383.7000 L 364.0743,383.7000 L 364.0743,413.3000 L 327.8543,413.3000 z " style="fill: #ffffff; fill-opacity: 0.00; stroke: none;" id="ezcGraphPolygon_168"/><text id="ezcGraphTextBox_32_text" x="334.5843" text-length="22.2600px" y="396.1000" style="font-size: 14px; font-family: 'Arial'; fill: #2e3436; fill-opacity: 1.00; stroke: none;">Mar</text><text id="ezcGraphTextBox_32_text" x="328.3543" text-length="34.7200px" y="411.5000" style="font-size: 14px; font-family: 'Arial'; fill: #2e3436; fill-opacity: 1.00; stroke: none;">2023</text></g><g id="ezcGraphTextBox_35"><path d=" M 373.5686,413.3000 L 373.5686,383.7000 L 409.7886,383.7000 L 409.7886,413.3000 L 373.5686,413.3000 z " style="fill: #ffffff; fill-opacity: 0.00; stroke: none;" id="ezcGraphPolygon_169"/><text id="ezcGraphTextBox_35_text" x="380.2986" text-length="22.2600px" y="396.1000" style="font-size: 14px; font-family: 'Arial'; fill: #2e3436; fill-opacity: 1.00; stroke: none;">May</text><text id="ezcGraphTextBox_35_text" x="374.0686" text-length="34.7200px" y="411.5000" style="font-size: 14px; font-family: 'Arial'; fill: #2e3436; fill-opacity: 1.00; stroke: none;">2023</text></g><g id="ezcGraphTextBox_38"><path d=" M 419.2829,413.3000 L 419.2829,383.7000 L 455.5029,383.7000 L 455.5029,413.3000 L 419.2829,413.3000 z " style="fill: #ffffff; fill-opacity: 0.00; stroke: none;" id="ezcGraphPolygon_170"/><text id="ezcGraphTextBox_38_text" x="426.0129" text-length="22.2600px" y="396.1000" style="font-size: 14px; font-family: 'Arial'; fill: #2e3436; fill-opacity: 1.00; stroke: none;">Jul</text><text id="ezcGraphTextBox_38_text" x="419.7829" text-length="34.7200px" y="411.5000" style="font-size: 14px; font-family: 'Arial'; fill: #2e3436; fill-opacity: 1.00; stroke: none;">2023</text></g><g id="ezcGraphTextBox_43" transform="rotate( 0.00 147.0000 49.0000 )"><path d=" M 141.5000,59.0000 L 141.5000,43.5000 L 313.6600,43.5000 L 313.6600,59.0000 L 141.5000,59.0000 z " style="fill: #ffffff; fill-opacity: 0.00; stroke: none;" id="ezcGraphPolygon_171"/><text id="ezcGraphTextBox_43_text" x="142.0000" text-length="170.6600px" y="55.9000" style="font-size: 14px; font-family: 'Arial'; fill: #2e3436; fill-opacity: 1.00; stroke: none;">Desktops by Vendor in %</text></g><g id="ezcGraphTextBox_44"><path d=" M 128.8200,381.2000 L 128.8200,365.7000 L 139.0000,365.7000 L 139.0000,381.2000 L 128.8200,381.2000 z " style="fill: #ffffff; fill-opacity: 0.00; stroke: none;" id="ezcGraphPolygon_172"/><text id="ezcGraphTextBox_44_text" x="129.3200" text-length="8.6800px" y="378.1000" style="font-size: 14px; font-family: 'Arial'; fill: #2e3436; fill-opacity: 1.00; stroke: none;">0</text></g><g id="ezcGraphTextBox_47"><path d=" M 120.1400,96.8000 L 120.1400,81.3000 L 139.0000,81.3000 L 139.0000,96.8000 L 120.1400,96.8000 z " style="fill: #ffffff; fill-opacity: 0.00; stroke: none;" id="ezcGraphPolygon_173"/><text id="ezcGraphTextBox_47_text" x="120.6400" text-length="17.3600px" y="93.7000" style="font-size: 14px; font-family: 'Arial'; fill: #2e3436; fill-opacity: 1.00; stroke: none;">50</text></g><g id="ezcGraphTextBox_49"><path d=" M 156.1571,135.2800 L 156.1571,123.7800 L 170.0571,123.7800 L 170.0571,135.2800 L 156.1571,135.2800 z " style="fill: #ffffff; fill-opacity: 0.00; stroke: none;" id="ezcGraphPolygon_174"/><text id="ezcGraphTextBox_49_text" x="156.6571" text-length="12.4000px" y="132.7800" style="font-size: 10px; font-family: 'Arial'; fill: #2e3436; fill-opacity: 1.00; stroke: none;">40</text></g><g id="ezcGraphTextBox_51"><path d=" M 195.6714,245.9584 L 195.6714,234.4584 L 221.9714,234.4584 L 221.9714,245.9584 L 195.6714,245.9584 z " style="fill: #ffffff; fill-opacity: 0.00; stroke: none;" id="ezcGraphPolygon_175"/><text id="ezcGraphTextBox_51_text" x="196.1714" text-length="24.8000px" y="243.4584" style="font-size: 10px; font-family: 'Arial'; fill: #2e3436; fill-opacity: 1.00; stroke: none;">21.7</text></g><g id="ezcGraphTextBox_53"><path d=" M 247.5857,262.2880 L 247.5857,250.7880 L 261.4857,250.7880 L 261.4857,262.2880 L 247.5857,262.2880 z " style="fill: #ffffff; fill-opacity: 0.00; stroke: none;" id="ezcGraphPolygon_176"/><text id="ezcGraphTextBox_53_text" x="248.0857" text-length="12.4000px" y="259.7880" style="font-size: 10px; font-family: 'Arial'; fill: #2e3436; fill-opacity: 1.00; stroke: none;">19</text></g><g id="ezcGraphTextBox_55"><path d=" M 287.1000,207.2512 L 287.1000,195.7512 L 313.4000,195.7512 L 313.4000,207.2512 L 287.1000,207.2512 z " style="fill: #ffffff; fill-opacity: 0.00; stroke: none;" id="ezcGraphPolygon_177"/><text id="ezcGraphTextBox_55_text" x="287.6000" text-length="24.8000px" y="204.7512" style="font-size: 10px; font-family: 'Arial'; fill: #2e3436; fill-opacity: 1.00; stroke: none;">28.1</text></g><g id="ezcGraphTextBox_57"><path d=" M 332.8143,276.1984 L 332.8143,264.6984 L 359.1143,264.6984 L 359.1143,276.1984 L 332.8143,276.1984 z " style="fill: #ffffff; fill-opacity: 0.00; stroke: none;" id="ezcGraphPolygon_178"/><text id="ezcGraphTextBox_57_text" x="333.3143" text-length="24.8000px" y="273.6984" style="font-size: 10px; font-family: 'Arial'; fill: #2e3436; fill-opacity: 1.00; stroke: none;">16.7</text></g><g id="ezcGraphTextBox_59"><path d=" M 378.5286,290.7136 L 378.5286,279.2136 L 404.8286,279.2136 L 404.8286,290.7136 L 378.5286,290.7136 z " style="fill: #ffffff; fill-opacity: 0.00; stroke: none;" id="ezcGraphPolygon_179"/><text id="ezcGraphTextBox_59_text" x="379.0286" text-length="24.8000px" y="288.2136" style="font-size: 10px; font-family: 'Arial'; fill: #2e3436; fill-opacity: 1.00; stroke: none;">14.3</text></g><g id="ezcGraphTextBox_61"><path d=" M 424.2429,236.2816 L 424.2429,224.7816 L 450.5429,224.7816 L 450.5429,236.2816 L 424.2429,236.2816 z " style="fill: #ffffff; fill-opacity: 0.00; stroke: none;" id="ezcGraphPolygon_180"/><text id="ezcGraphTextBox_61_text" x="424.7429" text-length="24.8000px" y="233.7816" style="font-size: 10px; font-family: 'Arial'; fill: #2e3436; fill-opacity: 1.00; stroke: none;">23.3</text></g><g id="ezcGraphTextBox_63"><path d=" M 195.6714,271.9648 L 195.6714,260.4648 L 221.9714,260.4648 L 221.9714,271.9648 L 195.6714,271.9648 z " style="fill: #ffffff; fill-opacity: 0.00; stroke: none;" id="ezcGraphPolygon_181"/><text id="ezcGraphTextBox_63_text" x="196.1714" text-length="24.8000px" y="269.4648" style="font-size: 10px; font-family: 'Arial'; fill: #2e3436; fill-opacity: 1.00; stroke: none;">17.4</text></g><g id="ezcGraphTextBox_65"><path d=" M 241.3857,290.7136 L 241.3857,279.2136 L 267.6857,279.2136 L 267.6857,290.7136 L 241.3857,290.7136 z " style="fill: #ffffff; fill-opacity: 0.00; stroke: none;" id="ezcGraphPolygon_182"/><text id="ezcGraphTextBox_65_text" x="241.8857" text-length="24.8000px" y="288.2136" style="font-size: 10px; font-family: 'Arial'; fill: #2e3436; fill-opacity: 1.00; stroke: none;">14.3</text></g><g id="ezcGraphTextBox_67"><path d=" M 287.1000,301.6000 L 287.1000,290.1000 L 313.4000,290.1000 L 313.4000,301.6000 L 287.1000,301.6000 z " style="fill: #ffffff; fill-opacity: 0.00; stroke: none;" id="ezcGraphPolygon_183"/><text id="ezcGraphTextBox_67_text" x="287.6000" text-length="24.8000px" y="299.1000" style="font-size: 10px; font-family: 'Arial'; fill: #2e3436; fill-opacity: 1.00; stroke: none;">12.5</text></g><g id="ezcGraphTextBox_69"><path d=" M 339.0143,316.7200 L 339.0143,305.2200 L 352.9143,305.2200 L 352.9143,316.7200 L 339.0143,316.7200 z " style="fill: #ffffff; fill-opacity: 0.00; stroke: none;" id="ezcGraphPolygon_184"/><text id="ezcGraphTextBox_69_text" x="339.5143" text-length="12.4000px" y="314.2200" style="font-size: 10px; font-family: 'Arial'; fill: #2e3436; fill-opacity: 1.00; stroke: none;">10</text></g><g id="ezcGraphTextBox_71"><path d=" M 378.5286,268.9408 L 378.5286,257.4408 L 404.8286,257.4408 L 404.8286,268.9408 L 378.5286,268.9408 z " style="fill: #ffffff; fill-opacity: 0.00; stroke: none;" id="ezcGraphPolygon_185"/><text id="ezcGraphTextBox_71_text" x="379.0286" text-length="24.8000px" y="266.4408" style="font-size: 10px; font-family: 'Arial'; fill: #2e3436; fill-opacity: 1.00; stroke: none;">17.9</text></g><g id="ezcGraphTextBox_73"><path d=" M 430.4429,256.2400 L 430.4429,244.7400 L 444.3429,244.7400 L 444.3429,256.2400 L 430.4429,256.2400 z " style="fill: #ffffff; fill-opacity: 0.00; stroke: none;" id="ezcGraphPolygon_186"/><text id="ezcGraphTextBox_73_text" x="430.9429" text-length="12.4000px" y="253.7400" style="font-size: 10px; font-family: 'Arial'; fill: #2e3436; fill-opacity: 1.00; stroke: none;">20</text></g><g id="ezcGraphTextBox_75"><path d=" M 156.1571,256.2400 L 156.1571,244.7400 L 170.0571,244.7400 L 170.0571,256.2400 L 156.1571,256.2400 z " style="fill: #ffffff; fill-opacity: 0.00; stroke: none;" id="ezcGraphPolygon_187"/><text id="ezcGraphTextBox_75_text" x="156.6571" text-length="12.4000px" y="253.7400" style="font-size: 10px; font-family: 'Arial'; fill: #2e3436; fill-opacity: 1.00; stroke: none;">20</text></g><g id="ezcGraphTextBox_77"><path d=" M 195.6714,219.3472 L 195.6714,207.8472 L 221.9714,207.8472 L 221.9714,219.3472 L 195.6714,219.3472 z " style="fill: #ffffff; fill-opacity: 0.00; stroke: none;" id="ezcGraphPolygon_188"/><text id="ezcGraphTextBox_77_text" x="196.1714" text-length="24.8000px" y="216.8472" style="font-size: 10px; font-family: 'Arial'; fill: #2e3436; fill-opacity: 1.00; stroke: none;">26.1</text></g><g id="ezcGraphTextBox_79"><path d=" M 241.3857,204.2272 L 241.3857,192.7272 L 267.6857,192.7272 L 267.6857,204.2272 L 241.3857,204.2272 z " style="fill: #ffffff; fill-opacity: 0.00; stroke: none;" id="ezcGraphPolygon_189"/><text id="ezcGraphTextBox_79_text" x="241.8857" text-length="24.8000px" y="201.7272" style="font-size: 10px; font-family: 'Arial'; fill: #2e3436; fill-opacity: 1.00; stroke: none;">28.6</text></g><g id="ezcGraphTextBox_81"><path d=" M 287.1000,112.2976 L 287.1000,100.7976 L 313.4000,100.7976 L 313.4000,112.2976 L 287.1000,112.2976 z " style="fill: #ffffff; fill-opacity: 0.00; stroke: none;" id="ezcGraphPolygon_190"/><text id="ezcGraphTextBox_81_text" x="287.6000" text-length="24.8000px" y="109.7976" style="font-size: 10px; font-family: 'Arial'; fill: #2e3436; fill-opacity: 1.00; stroke: none;">43.8</text></g><g id="ezcGraphTextBox_83"><path d=" M 339.0143,135.2800 L 339.0143,123.7800 L 352.9143,123.7800 L 352.9143,135.2800 L 339.0143,135.2800 z " style="fill: #ffffff; fill-opacity: 0.00; stroke: none;" id="ezcGraphPolygon_191"/><text id="ezcGraphTextBox_83_text" x="339.5143" text-length="12.4000px" y="132.7800" style="font-size: 10px; font-family: 'Arial'; fill: #2e3436; fill-opacity: 1.00; stroke: none;">40</text></g><g id="ezcGraphTextBox_85"><path d=" M 378.5286,161.2864 L 378.5286,149.7864 L 404.8286,149.7864 L 404.8286,161.2864 L 378.5286,161.2864 z " style="fill: #ffffff; fill-opacity: 0.00; stroke: none;" id="ezcGraphPolygon_192"/><text id="ezcGraphTextBox_85_text" x="379.0286" text-length="24.8000px" y="158.7864" style="font-size: 10px; font-family: 'Arial'; fill: #2e3436; fill-opacity: 1.00; stroke: none;">35.7</text></g><g id="ezcGraphTextBox_87"><path d=" M 430.4429,256.2400 L 430.4429,244.7400 L 444.3429,244.7400 L 444.3429,256.2400 L 430.4429,256.2400 z " style="fill: #ffffff; fill-opacity: 0.00; stroke: none;" id="ezcGraphPolygon_193"/><text id="ezcGraphTextBox_87_text" x="430.9429" text-length="12.4000px" y="253.7400" style="font-size: 10px; font-family: 'Arial'; fill: #2e3436; fill-opacity: 1.00; stroke: none;">20</text></g><g id="ezcGraphTextBox_89"><path d=" M 198.7714,324.5824 L 198.7714,313.0824 L 218.8714,313.0824 L 218.8714,324.5824 L 198.7714,324.5824 z " style="fill: #ffffff; fill-opacity: 0.00; stroke: none;" id="ezcGraphPolygon_194"/><text id="ezcGraphTextBox_89_text" x="199.2714" text-length="18.6000px" y="322.0824" style="font-size: 10px; font-family: 'Arial'; fill: #2e3436; fill-opacity: 1.00; stroke: none;">8.7</text></g><g id="ezcGraphTextBox_91"><path d=" M 244.4857,319.7440 L 244.4857,308.2440 L 264.5857,308.2440 L 264.5857,319.7440 L 244.4857,319.7440 z " style="fill: #ffffff; fill-opacity: 0.00; stroke: none;" id="ezcGraphPolygon_195"/><text id="ezcGraphTextBox_91_text" x="244.9857" text-length="18.6000px" y="317.2440" style="font-size: 10px; font-family: 'Arial'; fill: #2e3436; fill-opacity: 1.00; stroke: none;">9.5</text></g><g id="ezcGraphTextBox_93"><path d=" M 290.2000,320.3488 L 290.2000,308.8488 L 310.3000,308.8488 L 310.3000,320.3488 L 290.2000,320.3488 z " style="fill: #ffffff; fill-opacity: 0.00; stroke: none;" id="ezcGraphPolygon_196"/><text id="ezcGraphTextBox_93_text" x="290.7000" text-length="18.6000px" y="317.8488" style="font-size: 10px; font-family: 'Arial'; fill: #2e3436; fill-opacity: 1.00; stroke: none;">9.4</text></g><g id="ezcGraphTextBox_95"><path d=" M 332.8143,276.1984 L 332.8143,264.6984 L 359.1143,264.6984 L 359.1143,276.1984 L 332.8143,276.1984 z " style="fill: #ffffff; fill-opacity: 0.00; stroke: none;" id="ezcGraphPolygon_197"/><text id="ezcGraphTextBox_95_text" x="333.3143" text-length="24.8000px" y="273.6984" style="font-size: 10px; font-family: 'Arial'; fill: #2e3436; fill-opacity: 1.00; stroke: none;">16.7</text></g><g id="ezcGraphTextBox_97"><path d=" M 378.5286,290.7136 L 378.5286,279.2136 L 404.8286,279.2136 L 404.8286,290.7136 L 378.5286,290.7136 z " style="fill: #ffffff; fill-opacity: 0.00; stroke: none;" id="ezcGraphPolygon_198"/><text id="ezcGraphTextBox_97_text" x="379.0286" text-length="24.8000px" y="288.2136" style="font-size: 10px; font-family: 'Arial'; fill: #2e3436; fill-opacity: 1.00; stroke: none;">14.3</text></g><g id="ezcGraphTextBox_99"><path d=" M 430.4429,316.7200 L 430.4429,305.2200 L 444.3429,305.2200 L 444.3429,316.7200 L 430.4429,316.7200 z " style="fill: #ffffff; fill-opacity: 0.00; stroke: none;" id="ezcGraphPolygon_199"/><text id="ezcGraphTextBox_99_text" x="430.9429" text-length="12.4000px" y="314.2200" style="font-size: 10px; font-family: 'Arial'; fill: #2e3436; fill-opacity: 1.00; stroke: none;">10</text></g><g id="ezcGraphTextBox_101"><path d=" M 198.7714,351.1936 L 198.7714,339.6936 L 218.8714,339.6936 L 218.8714,351.1936 L 198.7714,351.1936 z " style="fill: #ffffff; fill-opacity: 0.00; stroke: none;" id="ezcGraphPolygon_200"/><text id="ezcGraphTextBox_101_text" x="199.2714" text-length="18.6000px" y="348.6936" style="font-size: 10px; font-family: 'Arial'; fill: #2e3436; fill-opacity: 1.00; stroke: none;">4.3</text></g><g id="ezcGraphTextBox_103"><path d=" M 290.2000,339.0976 L 290.2000,327.5976 L 310.3000,327.5976 L 310.3000,339.0976 L 290.2000,339.0976 z " style="fill: #ffffff; fill-opacity: 0.00; stroke: none;" id="ezcGraphPolygon_201"/><text id="ezcGraphTextBox_103_text" x="290.7000" text-length="18.6000px" y="336.5976" style="font-size: 10px; font-family: 'Arial'; fill: #2e3436; fill-opacity: 1.00; stroke: none;">6.3</text></g><g id="ezcGraphTextBox_105"><path d=" M 381.6286,355.4272 L 381.6286,343.9272 L 401.7286,343.9272 L 401.7286,355.4272 L 381.6286,355.4272 z " style="fill: #ffffff; fill-opacity: 0.00; stroke: none;" id="ezcGraphPolygon_202"/><text id="ezcGraphTextBox_105_text" x="382.1286" text-length="18.6000px" y="352.9272" style="font-size: 10px; font-family: 'Arial'; fill: #2e3436; fill-opacity: 1.00; stroke: none;">3.6</text></g><g id="ezcGraphTextBox_107"><path d=" M 427.3429,336.6784 L 427.3429,325.1784 L 447.4429,325.1784 L 447.4429,336.6784 L 427.3429,336.6784 z " style="fill: #ffffff; fill-opacity: 0.00; stroke: none;" id="ezcGraphPolygon_203"/><text id="ezcGraphTextBox_107_text" x="427.8429" text-length="18.6000px" y="334.1784" style="font-size: 10px; font-family: 'Arial'; fill: #2e3436; fill-opacity: 1.00; stroke: none;">6.7</text></g><g id="ezcGraphTextBox_109"><path d=" M 156.1571,135.2800 L 156.1571,123.7800 L 170.0571,123.7800 L 170.0571,135.2800 L 156.1571,135.2800 z " style="fill: #ffffff; fill-opacity: 0.00; stroke: none;" id="ezcGraphPolygon_204"/><text id="ezcGraphTextBox_109_text" x="156.6571" text-length="12.4000px" y="132.7800" style="font-size: 10px; font-family: 'Arial'; fill: #2e3436; fill-opacity: 1.00; stroke: none;">40</text></g><g id="ezcGraphTextBox_111"><path d=" M 195.6714,245.9584 L 195.6714,234.4584 L 221.9714,234.4584 L 221.9714,245.9584 L 195.6714,245.9584 z " style="fill: #ffffff; fill-opacity: 0.00; stroke: none;" id="ezcGraphPolygon_205"/><text id="ezcGraphTextBox_111_text" x="196.1714" text-length="24.8000px" y="243.4584" style="font-size: 10px; font-family: 'Arial'; fill: #2e3436; fill-opacity: 1.00; stroke: none;">21.7</text></g><g id="ezcGraphTextBox_113"><path d=" M 241.3857,204.2272 L 241.3857,192.7272 L 267.6857,192.7272 L 267.6857,204.2272 L 241.3857,204.2272 z " style="fill: #ffffff; fill-opacity: 0.00; stroke: none;" id="ezcGraphPolygon_206"/><text id="ezcGraphTextBox_113_text" x="241.8857" text-length="24.8000px" y="201.7272" style="font-size: 10px; font-family: 'Arial'; fill: #2e3436; fill-opacity: 1.00; stroke: none;">28.6</text></g><g id="ezcGraphTextBox_115"><path d=" M 332.8143,276.1984 L 332.8143,264.6984 L 359.1143,264.6984 L 359.1143,276.1984 L 332.8143,276.1984 z " style="fill: #ffffff; fill-opacity: 0.00; stroke: none;" id="ezcGraphPolygon_207"/><text id="ezcGraphTextBox_115_text" x="333.3143" text-length="24.8000px" y="273.6984" style="font-size: 10px; font-family: 'Arial'; fill: #2e3436; fill-opacity: 1.00; stroke: none;">16.7</text></g><g id="ezcGraphTextBox_117"><path d=" M 378.5286,290.7136 L 378.5286,279.2136 L 404.8286,279.2136 L 404.8286,290.7136 L 378.5286,290.7136 z " style="fill: #ffffff; fill-opacity: 0.00; stroke: none;" id="ezcGraphPolygon_208"/><text id="ezcGraphTextBox_117_text" x="379.0286" text-length="24.8000px" y="288.2136" style="font-size: 10px; font-family: 'Arial'; fill: #2e3436; fill-opacity: 1.00; stroke: none;">14.3</text></g><g id="ezcGraphTextBox_119"><path d=" M 430.4429,256.2400 L 430.4429,244.7400 L 444.3429,244.7400 L 444.3429,256.2400 L 430.4429,256.2400 z " style="fill: #ffffff; fill-opacity: 0.00; stroke: none;" id="ezcGraphPolygon_209"/><text id="ezcGraphTextBox_119_text" x="430.9429" text-length="12.4000px" y="253.7400" style="font-size: 10px; font-family: 'Arial'; fill: #2e3436; fill-opacity: 1.00; stroke: none;">20</text></g></g></svg>
