<?xml version="1.0"?>
<svg xmlns="http://www.w3.org/2000/svg" width="500" height="420" version="1.0" id="ezcGraph"><defs/><g id="ezcGraphChart" color-rendering="optimizeQuality" shape-rendering="geometricPrecision" text-rendering="optimizeLegibility"><path d=" M 0.0000,420.0000 L 0.0000,0.0000 L 500.0000,0.0000 L 500.0000,420.0000 L 0.0000,420.0000 z " style="fill: #eeeeec; fill-opacity: 1.00; stroke: none;" id="ezcGraphPolygon_1"/><path d=" M 0.0000,42.0000 L 0.0000,0.0000 L 500.0000,0.0000 L 500.0000,42.0000 L 0.0000,42.0000 z " style="fill: #000000; fill-opacity: 0.00; stroke: none;" id="ezcGraphPolygon_2"/><path d=" M 0.0000,420.0000 L 0.0000,42.0000 L 100.0000,42.0000 L 100.0000,420.0000 L 0.0000,420.0000 z " style="fill: #000000; fill-opacity: 0.00; stroke: none;" id="ezcGraphPolygon_4"/><path d=" M 2.0000,58.0000 L 2.0000,44.0000 L 16.0000,44.0000 L 16.0000,58.0000 L 2.0000,58.0000 z " style="fill: #3465a4; fill-opacity: 1.00; stroke: none; cursor: pointer;" id="ezcGraphPolygon_5" onclick="top.location = 'https://linux-hardware.org/?view=computers&amp;type=notebook&amp;f=os_display_server&amp;v=X11&amp;p=-1&amp;c=Canada'"/><path d=" M 2.0000,76.0000 L 2.0000,62.0000 L 16.0000,62.0000 L 16.0000,76.0000 L 2.0000,76.0000 z " style="fill: #4e9a06; fill-opacity: 1.00; stroke: none; cursor: pointer;" id="ezcGraphPolygon_7" onclick="top.location = 'https://linux-hardware.org/?view=computers&amp;type=notebook&amp;f=os_display_server&amp;v=Wayland&amp;p=-1&amp;c=Canada'"/><path d=" M 2.0000,94.0000 L 2.0000,80.0000 L 16.0000,80.0000 L 16.0000,94.0000 L 2.0000,94.0000 z " style="fill: #cc0000; fill-opacity: 1.00; stroke: none; cursor: pointer;" id="ezcGraphPolygon_9" onclick="top.location = 'https://linux-hardware.org/?view=computers&amp;type=notebook&amp;f=os_display_server&amp;v=&amp;p=-1&amp;c=Canada'"/><path d=" M 2.0000,112.0000 L 2.0000,98.0000 L 16.0000,98.0000 L 16.0000,112.0000 L 2.0000,112.0000 z " style="fill: #edd400; fill-opacity: 1.00; stroke: none;" id="ezcGraphPolygon_11"/><path d=" M 100.0000,382.2000 L 500.0000,382.2000" style="fill: none; stroke: #2e3436; stroke-width: 1; stroke-opacity: 1.00; stroke-linecap: round; stroke-linejoin: round;" id="ezcGraphLine_13"/><path d=" M 492.0000,378.2000 L 500.0000,382.2000 L 492.0000,386.2000 L 492.0000,378.2000 z " style="fill: #2e3436; fill-opacity: 1.00; stroke: none;" id="ezcGraphPolygon_14"/><path d=" M 185.7143,79.8000 L 185.7143,382.2000" style="fill: none; stroke: #000000; stroke-width: 1; stroke-opacity: 0.00; stroke-linecap: round; stroke-linejoin: round;" id="ezcGraphLine_17"/><path d=" M 185.7143,379.2000 L 185.7143,385.2000" style="fill: none; stroke: #2e3436; stroke-width: 1; stroke-opacity: 1.00; stroke-linecap: round; stroke-linejoin: round;" id="ezcGraphLine_18"/><path d=" M 231.4286,79.8000 L 231.4286,382.2000" style="fill: none; stroke: #000000; stroke-width: 1; stroke-opacity: 0.00; stroke-linecap: round; stroke-linejoin: round;" id="ezcGraphLine_20"/><path d=" M 231.4286,379.2000 L 231.4286,385.2000" style="fill: none; stroke: #2e3436; stroke-width: 1; stroke-opacity: 1.00; stroke-linecap: round; stroke-linejoin: round;" id="ezcGraphLine_21"/><path d=" M 277.1429,79.8000 L 277.1429,382.2000" style="fill: none; stroke: #000000; stroke-width: 1; stroke-opacity: 0.00; stroke-linecap: round; stroke-linejoin: round;" id="ezcGraphLine_23"/><path d=" M 277.1429,379.2000 L 277.1429,385.2000" style="fill: none; stroke: #2e3436; stroke-width: 1; stroke-opacity: 1.00; stroke-linecap: round; stroke-linejoin: round;" id="ezcGraphLine_24"/><path d=" M 322.8571,79.8000 L 322.8571,382.2000" style="fill: none; stroke: #000000; stroke-width: 1; stroke-opacity: 0.00; stroke-linecap: round; stroke-linejoin: round;" id="ezcGraphLine_26"/><path d=" M 322.8571,379.2000 L 322.8571,385.2000" style="fill: none; stroke: #2e3436; stroke-width: 1; stroke-opacity: 1.00; stroke-linecap: round; stroke-linejoin: round;" id="ezcGraphLine_27"/><path d=" M 368.5714,79.8000 L 368.5714,382.2000" style="fill: none; stroke: #000000; stroke-width: 1; stroke-opacity: 0.00; stroke-linecap: round; stroke-linejoin: round;" id="ezcGraphLine_29"/><path d=" M 368.5714,379.2000 L 368.5714,385.2000" style="fill: none; stroke: #2e3436; stroke-width: 1; stroke-opacity: 1.00; stroke-linecap: round; stroke-linejoin: round;" id="ezcGraphLine_30"/><path d=" M 414.2857,79.8000 L 414.2857,382.2000" style="fill: none; stroke: #000000; stroke-width: 1; stroke-opacity: 0.00; stroke-linecap: round; stroke-linejoin: round;" id="ezcGraphLine_32"/><path d=" M 414.2857,379.2000 L 414.2857,385.2000" style="fill: none; stroke: #2e3436; stroke-width: 1; stroke-opacity: 1.00; stroke-linecap: round; stroke-linejoin: round;" id="ezcGraphLine_33"/><path d=" M 460.0000,79.8000 L 460.0000,382.2000" style="fill: none; stroke: #000000; stroke-width: 1; stroke-opacity: 0.00; stroke-linecap: round; stroke-linejoin: round;" id="ezcGraphLine_35"/><path d=" M 460.0000,379.2000 L 460.0000,385.2000" style="fill: none; stroke: #2e3436; stroke-width: 1; stroke-opacity: 1.00; stroke-linecap: round; stroke-linejoin: round;" id="ezcGraphLine_36"/><path d=" M 140.0000,420.0000 L 140.0000,42.0000" style="fill: none; stroke: #2e3436; stroke-width: 1; stroke-opacity: 1.00; stroke-linecap: round; stroke-linejoin: round;" id="ezcGraphLine_37"/><path d=" M 136.0000,50.0000 L 140.0000,42.0000 L 144.0000,50.0000 L 136.0000,50.0000 z " style="fill: #2e3436; fill-opacity: 1.00; stroke: none;" id="ezcGraphPolygon_38"/><path d=" M 140.0000,231.0000 L 460.0000,231.0000" style="fill: none; stroke: #000000; stroke-width: 1; stroke-opacity: 0.00; stroke-linecap: round; stroke-linejoin: round;" id="ezcGraphLine_41"/><path d=" M 140.0000,231.0000 L 143.0000,231.0000" style="fill: none; stroke: #2e3436; stroke-width: 1; stroke-opacity: 1.00; stroke-linecap: round; stroke-linejoin: round;" id="ezcGraphLine_42"/><path d=" M 140.0000,79.8000 L 460.0000,79.8000" style="fill: none; stroke: #000000; stroke-width: 1; stroke-opacity: 0.00; stroke-linecap: round; stroke-linejoin: round;" id="ezcGraphLine_44"/><path d=" M 140.0000,79.8000 L 143.0000,79.8000" style="fill: none; stroke: #2e3436; stroke-width: 1; stroke-opacity: 1.00; stroke-linecap: round; stroke-linejoin: round;" id="ezcGraphLine_45"/><path d=" M 162.8571,162.0528 L 162.8571,162.0528" style="fill: none; stroke: #3465a4; stroke-width: 1; stroke-opacity: 1.00; stroke-linecap: round; stroke-linejoin: round;" id="ezcGraphLine_47"/><path d=" M 162.8571,162.0528 L 208.5714,205.9008" style="fill: none; stroke: #3465a4; stroke-width: 1; stroke-opacity: 1.00; stroke-linecap: round; stroke-linejoin: round;" id="ezcGraphLine_49"/><path d=" M 208.5714,205.9008 L 254.2857,189.8736" style="fill: none; stroke: #3465a4; stroke-width: 1; stroke-opacity: 1.00; stroke-linecap: round; stroke-linejoin: round;" id="ezcGraphLine_51"/><path d=" M 254.2857,189.8736 L 300.0000,222.2304" style="fill: none; stroke: #3465a4; stroke-width: 1; stroke-opacity: 1.00; stroke-linecap: round; stroke-linejoin: round;" id="ezcGraphLine_53"/><path d=" M 300.0000,222.2304 L 345.7143,231.0000" style="fill: none; stroke: #3465a4; stroke-width: 1; stroke-opacity: 1.00; stroke-linecap: round; stroke-linejoin: round;" id="ezcGraphLine_55"/><path d=" M 345.7143,231.0000 L 391.4286,217.3920" style="fill: none; stroke: #3465a4; stroke-width: 1; stroke-opacity: 1.00; stroke-linecap: round; stroke-linejoin: round;" id="ezcGraphLine_57"/><path d=" M 391.4286,217.3920 L 437.1429,166.2864" style="fill: none; stroke: #3465a4; stroke-width: 1; stroke-opacity: 1.00; stroke-linecap: round; stroke-linejoin: round;" id="ezcGraphLine_59"/><path d=" M 162.8571,318.6960 L 162.8571,318.6960" style="fill: none; stroke: #4e9a06; stroke-width: 1; stroke-opacity: 1.00; stroke-linecap: round; stroke-linejoin: round;" id="ezcGraphLine_61"/><path d=" M 162.8571,318.6960 L 208.5714,261.2400" style="fill: none; stroke: #4e9a06; stroke-width: 1; stroke-opacity: 1.00; stroke-linecap: round; stroke-linejoin: round;" id="ezcGraphLine_63"/><path d=" M 208.5714,261.2400 L 254.2857,286.0368" style="fill: none; stroke: #4e9a06; stroke-width: 1; stroke-opacity: 1.00; stroke-linecap: round; stroke-linejoin: round;" id="ezcGraphLine_65"/><path d=" M 254.2857,286.0368 L 300.0000,248.8416" style="fill: none; stroke: #4e9a06; stroke-width: 1; stroke-opacity: 1.00; stroke-linecap: round; stroke-linejoin: round;" id="ezcGraphLine_67"/><path d=" M 300.0000,248.8416 L 345.7143,240.6768" style="fill: none; stroke: #4e9a06; stroke-width: 1; stroke-opacity: 1.00; stroke-linecap: round; stroke-linejoin: round;" id="ezcGraphLine_69"/><path d=" M 345.7143,240.6768 L 391.4286,252.4704" style="fill: none; stroke: #4e9a06; stroke-width: 1; stroke-opacity: 1.00; stroke-linecap: round; stroke-linejoin: round;" id="ezcGraphLine_71"/><path d=" M 391.4286,252.4704 L 437.1429,300.5520" style="fill: none; stroke: #4e9a06; stroke-width: 1; stroke-opacity: 1.00; stroke-linecap: round; stroke-linejoin: round;" id="ezcGraphLine_73"/><path d=" M 162.8571,374.6400 L 162.8571,374.6400" style="fill: none; stroke: #cc0000; stroke-width: 1; stroke-opacity: 1.00; stroke-linecap: round; stroke-linejoin: round;" id="ezcGraphLine_75"/><path d=" M 162.8571,374.6400 L 300.0000,373.4304" style="fill: none; stroke: #cc0000; stroke-width: 1; stroke-opacity: 1.00; stroke-linecap: round; stroke-linejoin: round;" id="ezcGraphLine_77"/><path d=" M 300.0000,373.4304 L 345.7143,372.5232" style="fill: none; stroke: #cc0000; stroke-width: 1; stroke-opacity: 1.00; stroke-linecap: round; stroke-linejoin: round;" id="ezcGraphLine_79"/><path d=" M 345.7143,372.5232 L 437.1429,377.3616" style="fill: none; stroke: #cc0000; stroke-width: 1; stroke-opacity: 1.00; stroke-linecap: round; stroke-linejoin: round;" id="ezcGraphLine_81"/><path d=" M 162.8571,371.0112 L 162.8571,371.0112" style="fill: none; stroke: #edd400; stroke-width: 1; stroke-opacity: 1.00; stroke-linecap: round; stroke-linejoin: round;" id="ezcGraphLine_83"/><path d=" M 162.8571,371.0112 L 208.5714,377.0592" style="fill: none; stroke: #edd400; stroke-width: 1; stroke-opacity: 1.00; stroke-linecap: round; stroke-linejoin: round;" id="ezcGraphLine_85"/><path d=" M 208.5714,377.0592 L 254.2857,368.5920" style="fill: none; stroke: #edd400; stroke-width: 1; stroke-opacity: 1.00; stroke-linecap: round; stroke-linejoin: round;" id="ezcGraphLine_87"/><path d=" M 254.2857,368.5920 L 391.4286,374.3376" style="fill: none; stroke: #edd400; stroke-width: 1; stroke-opacity: 1.00; stroke-linecap: round; stroke-linejoin: round;" id="ezcGraphLine_89"/><path d=" M 159.8571,165.0528 L 159.8571,159.0528 L 165.8571,159.0528 L 165.8571,165.0528 L 159.8571,165.0528 z " style="fill: #3465a4; fill-opacity: 1.00; stroke: none; cursor: pointer;" id="ezcGraphPolygon_91" onclick="top.location = 'https://linux-hardware.org/?view=computers&amp;type=notebook&amp;f=os_display_server&amp;v=X11&amp;p=-1&amp;c=Canada&amp;p=108'"/><path d=" M 205.5714,208.9008 L 205.5714,202.9008 L 211.5714,202.9008 L 211.5714,208.9008 L 205.5714,208.9008 z " style="fill: #3465a4; fill-opacity: 1.00; stroke: none; cursor: pointer;" id="ezcGraphPolygon_92" onclick="top.location = 'https://linux-hardware.org/?view=computers&amp;type=notebook&amp;f=os_display_server&amp;v=X11&amp;p=-1&amp;c=Canada&amp;p=110'"/><path d=" M 251.2857,192.8736 L 251.2857,186.8736 L 257.2857,186.8736 L 257.2857,192.8736 L 251.2857,192.8736 z " style="fill: #3465a4; fill-opacity: 1.00; stroke: none; cursor: pointer;" id="ezcGraphPolygon_93" onclick="top.location = 'https://linux-hardware.org/?view=computers&amp;type=notebook&amp;f=os_display_server&amp;v=X11&amp;p=-1&amp;c=Canada&amp;p=112'"/><path d=" M 297.0000,225.2304 L 297.0000,219.2304 L 303.0000,219.2304 L 303.0000,225.2304 L 297.0000,225.2304 z " style="fill: #3465a4; fill-opacity: 1.00; stroke: none; cursor: pointer;" id="ezcGraphPolygon_94" onclick="top.location = 'https://linux-hardware.org/?view=computers&amp;type=notebook&amp;f=os_display_server&amp;v=X11&amp;p=-1&amp;c=Canada&amp;p=114'"/><path d=" M 342.7143,234.0000 L 342.7143,228.0000 L 348.7143,228.0000 L 348.7143,234.0000 L 342.7143,234.0000 z " style="fill: #3465a4; fill-opacity: 1.00; stroke: none; cursor: pointer;" id="ezcGraphPolygon_95" onclick="top.location = 'https://linux-hardware.org/?view=computers&amp;type=notebook&amp;f=os_display_server&amp;v=X11&amp;p=-1&amp;c=Canada&amp;p=116'"/><path d=" M 388.4286,220.3920 L 388.4286,214.3920 L 394.4286,214.3920 L 394.4286,220.3920 L 388.4286,220.3920 z " style="fill: #3465a4; fill-opacity: 1.00; stroke: none; cursor: pointer;" id="ezcGraphPolygon_96" onclick="top.location = 'https://linux-hardware.org/?view=computers&amp;type=notebook&amp;f=os_display_server&amp;v=X11&amp;p=-1&amp;c=Canada&amp;p=118'"/><path d=" M 434.1429,169.2864 L 434.1429,163.2864 L 440.1429,163.2864 L 440.1429,169.2864 L 434.1429,169.2864 z " style="fill: #3465a4; fill-opacity: 1.00; stroke: none; cursor: pointer;" id="ezcGraphPolygon_97" onclick="top.location = 'https://linux-hardware.org/?view=computers&amp;type=notebook&amp;f=os_display_server&amp;v=X11&amp;p=-1&amp;c=Canada&amp;p=120'"/><path d=" M 159.8571,321.6960 L 159.8571,315.6960 L 165.8571,315.6960 L 165.8571,321.6960 L 159.8571,321.6960 z " style="fill: #4e9a06; fill-opacity: 1.00; stroke: none; cursor: pointer;" id="ezcGraphPolygon_98" onclick="top.location = 'https://linux-hardware.org/?view=computers&amp;type=notebook&amp;f=os_display_server&amp;v=Wayland&amp;p=-1&amp;c=Canada&amp;p=108'"/><path d=" M 205.5714,264.2400 L 205.5714,258.2400 L 211.5714,258.2400 L 211.5714,264.2400 L 205.5714,264.2400 z " style="fill: #4e9a06; fill-opacity: 1.00; stroke: none; cursor: pointer;" id="ezcGraphPolygon_99" onclick="top.location = 'https://linux-hardware.org/?view=computers&amp;type=notebook&amp;f=os_display_server&amp;v=Wayland&amp;p=-1&amp;c=Canada&amp;p=110'"/><path d=" M 251.2857,289.0368 L 251.2857,283.0368 L 257.2857,283.0368 L 257.2857,289.0368 L 251.2857,289.0368 z " style="fill: #4e9a06; fill-opacity: 1.00; stroke: none; cursor: pointer;" id="ezcGraphPolygon_100" onclick="top.location = 'https://linux-hardware.org/?view=computers&amp;type=notebook&amp;f=os_display_server&amp;v=Wayland&amp;p=-1&amp;c=Canada&amp;p=112'"/><path d=" M 297.0000,251.8416 L 297.0000,245.8416 L 303.0000,245.8416 L 303.0000,251.8416 L 297.0000,251.8416 z " style="fill: #4e9a06; fill-opacity: 1.00; stroke: none; cursor: pointer;" id="ezcGraphPolygon_101" onclick="top.location = 'https://linux-hardware.org/?view=computers&amp;type=notebook&amp;f=os_display_server&amp;v=Wayland&amp;p=-1&amp;c=Canada&amp;p=114'"/><path d=" M 342.7143,243.6768 L 342.7143,237.6768 L 348.7143,237.6768 L 348.7143,243.6768 L 342.7143,243.6768 z " style="fill: #4e9a06; fill-opacity: 1.00; stroke: none; cursor: pointer;" id="ezcGraphPolygon_102" onclick="top.location = 'https://linux-hardware.org/?view=computers&amp;type=notebook&amp;f=os_display_server&amp;v=Wayland&amp;p=-1&amp;c=Canada&amp;p=116'"/><path d=" M 388.4286,255.4704 L 388.4286,249.4704 L 394.4286,249.4704 L 394.4286,255.4704 L 388.4286,255.4704 z " style="fill: #4e9a06; fill-opacity: 1.00; stroke: none; cursor: pointer;" id="ezcGraphPolygon_103" onclick="top.location = 'https://linux-hardware.org/?view=computers&amp;type=notebook&amp;f=os_display_server&amp;v=Wayland&amp;p=-1&amp;c=Canada&amp;p=118'"/><path d=" M 434.1429,303.5520 L 434.1429,297.5520 L 440.1429,297.5520 L 440.1429,303.5520 L 434.1429,303.5520 z " style="fill: #4e9a06; fill-opacity: 1.00; stroke: none; cursor: pointer;" id="ezcGraphPolygon_104" onclick="top.location = 'https://linux-hardware.org/?view=computers&amp;type=notebook&amp;f=os_display_server&amp;v=Wayland&amp;p=-1&amp;c=Canada&amp;p=120'"/><path d=" M 159.8571,377.6400 L 159.8571,371.6400 L 165.8571,371.6400 L 165.8571,377.6400 L 159.8571,377.6400 z " style="fill: #cc0000; fill-opacity: 1.00; stroke: none; cursor: pointer;" id="ezcGraphPolygon_105" onclick="top.location = 'https://linux-hardware.org/?view=computers&amp;type=notebook&amp;f=os_display_server&amp;v=&amp;p=-1&amp;c=Canada&amp;p=108'"/><path d=" M 297.0000,376.4304 L 297.0000,370.4304 L 303.0000,370.4304 L 303.0000,376.4304 L 297.0000,376.4304 z " style="fill: #cc0000; fill-opacity: 1.00; stroke: none; cursor: pointer;" id="ezcGraphPolygon_106" onclick="top.location = 'https://linux-hardware.org/?view=computers&amp;type=notebook&amp;f=os_display_server&amp;v=&amp;p=-1&amp;c=Canada&amp;p=114'"/><path d=" M 342.7143,375.5232 L 342.7143,369.5232 L 348.7143,369.5232 L 348.7143,375.5232 L 342.7143,375.5232 z " style="fill: #cc0000; fill-opacity: 1.00; stroke: none; cursor: pointer;" id="ezcGraphPolygon_107" onclick="top.location = 'https://linux-hardware.org/?view=computers&amp;type=notebook&amp;f=os_display_server&amp;v=&amp;p=-1&amp;c=Canada&amp;p=116'"/><path d=" M 434.1429,380.3616 L 434.1429,374.3616 L 440.1429,374.3616 L 440.1429,380.3616 L 434.1429,380.3616 z " style="fill: #cc0000; fill-opacity: 1.00; stroke: none; cursor: pointer;" id="ezcGraphPolygon_108" onclick="top.location = 'https://linux-hardware.org/?view=computers&amp;type=notebook&amp;f=os_display_server&amp;v=&amp;p=-1&amp;c=Canada&amp;p=120'"/><path d=" M 159.8571,374.0112 L 159.8571,368.0112 L 165.8571,368.0112 L 165.8571,374.0112 L 159.8571,374.0112 z " style="fill: #edd400; fill-opacity: 1.00; stroke: none;" id="ezcGraphPolygon_109"/><path d=" M 205.5714,380.0592 L 205.5714,374.0592 L 211.5714,374.0592 L 211.5714,380.0592 L 205.5714,380.0592 z " style="fill: #edd400; fill-opacity: 1.00; stroke: none;" id="ezcGraphPolygon_110"/><path d=" M 251.2857,371.5920 L 251.2857,365.5920 L 257.2857,365.5920 L 257.2857,371.5920 L 251.2857,371.5920 z " style="fill: #edd400; fill-opacity: 1.00; stroke: none;" id="ezcGraphPolygon_111"/><path d=" M 388.4286,377.3376 L 388.4286,371.3376 L 394.4286,371.3376 L 394.4286,377.3376 L 388.4286,377.3376 z " style="fill: #edd400; fill-opacity: 1.00; stroke: none;" id="ezcGraphPolygon_112"/><g id="ezcGraphTextBox_3"><path d=" M 101.1000,42.0000 L 101.1000,0.5000 L 399.4000,0.5000 L 399.4000,42.0000 L 101.1000,42.0000 z " style="fill: #ffffff; fill-opacity: 0.00; stroke: none;" id="ezcGraphPolygon_113"/><text id="ezcGraphTextBox_3_text" x="101.6000" text-length="296.8000px" y="35.0000" style="font-size: 40px; font-family: 'Arial'; fill: #2e3436; fill-opacity: 1.00; stroke: none;">Display Server</text></g><g id="ezcGraphTextBox_6" style=" cursor: pointer;" onclick="top.location = 'https://linux-hardware.org/?view=computers&amp;type=notebook&amp;f=os_display_server&amp;v=X11&amp;p=-1&amp;c=Canada'"><path d=" M 16.5000,59.0000 L 16.5000,43.5000 L 40.2600,43.5000 L 40.2600,59.0000 L 16.5000,59.0000 z " style="fill: #ffffff; fill-opacity: 0.00; stroke: none;" id="ezcGraphPolygon_114"/><text id="ezcGraphTextBox_6_text" x="17.0000" text-length="22.2600px" y="55.9000" style="font-size: 14px; font-family: 'Arial'; fill: #2e3436; fill-opacity: 1.00; stroke: none;">X11</text></g><g id="ezcGraphTextBox_8" style=" cursor: pointer;" onclick="top.location = 'https://linux-hardware.org/?view=computers&amp;type=notebook&amp;f=os_display_server&amp;v=Wayland&amp;p=-1&amp;c=Canada'"><path d=" M 16.5000,77.0000 L 16.5000,61.5000 L 69.9400,61.5000 L 69.9400,77.0000 L 16.5000,77.0000 z " style="fill: #ffffff; fill-opacity: 0.00; stroke: none;" id="ezcGraphPolygon_115"/><text id="ezcGraphTextBox_8_text" x="17.0000" text-length="51.9400px" y="73.9000" style="font-size: 14px; font-family: 'Arial'; fill: #2e3436; fill-opacity: 1.00; stroke: none;">Wayland</text></g><g id="ezcGraphTextBox_10" style=" cursor: pointer;" onclick="top.location = 'https://linux-hardware.org/?view=computers&amp;type=notebook&amp;f=os_display_server&amp;v=&amp;p=-1&amp;c=Canada'"><path d=" M 16.5000,95.0000 L 16.5000,79.5000 L 69.9400,79.5000 L 69.9400,95.0000 L 16.5000,95.0000 z " style="fill: #ffffff; fill-opacity: 0.00; stroke: none;" id="ezcGraphPolygon_116"/><text id="ezcGraphTextBox_10_text" x="17.0000" text-length="51.9400px" y="91.9000" style="font-size: 14px; font-family: 'Arial'; fill: #2e3436; fill-opacity: 1.00; stroke: none;">Unknown</text></g><g id="ezcGraphTextBox_12"><path d=" M 16.5000,113.0000 L 16.5000,97.5000 L 62.5200,97.5000 L 62.5200,113.0000 L 16.5000,113.0000 z " style="fill: #ffffff; fill-opacity: 0.00; stroke: none;" id="ezcGraphPolygon_117"/><text id="ezcGraphTextBox_12_text" x="17.0000" text-length="44.5200px" y="109.9000" style="font-size: 14px; font-family: 'Arial'; fill: #2e3436; fill-opacity: 1.00; stroke: none;">Others</text></g><g id="ezcGraphTextBox_15" transform="rotate( 0.00 493.0000 375.2000 )"><path d=" M 460.4000,381.2000 L 460.4000,365.7000 L 499.0000,365.7000 L 499.0000,381.2000 L 460.4000,381.2000 z " style="fill: #ffffff; fill-opacity: 0.00; stroke: none;" id="ezcGraphPolygon_118"/><text id="ezcGraphTextBox_15_text" x="460.9000" text-length="37.1000px" y="378.1000" style="font-size: 14px; font-family: 'Arial'; fill: #2e3436; fill-opacity: 1.00; stroke: none;">Time </text></g><g id="ezcGraphTextBox_16"><path d=" M 144.9971,413.3000 L 144.9971,383.7000 L 181.2171,383.7000 L 181.2171,413.3000 L 144.9971,413.3000 z " style="fill: #ffffff; fill-opacity: 0.00; stroke: none;" id="ezcGraphPolygon_119"/><text id="ezcGraphTextBox_16_text" x="151.7271" text-length="22.2600px" y="396.1000" style="font-size: 14px; font-family: 'Arial'; fill: #2e3436; fill-opacity: 1.00; stroke: none;">Dec</text><text id="ezcGraphTextBox_16_text" x="145.4971" text-length="34.7200px" y="411.5000" style="font-size: 14px; font-family: 'Arial'; fill: #2e3436; fill-opacity: 1.00; stroke: none;">2022</text></g><g id="ezcGraphTextBox_19"><path d=" M 190.7114,413.3000 L 190.7114,383.7000 L 226.9314,383.7000 L 226.9314,413.3000 L 190.7114,413.3000 z " style="fill: #ffffff; fill-opacity: 0.00; stroke: none;" id="ezcGraphPolygon_120"/><text id="ezcGraphTextBox_19_text" x="197.4414" text-length="22.2600px" y="396.1000" style="font-size: 14px; font-family: 'Arial'; fill: #2e3436; fill-opacity: 1.00; stroke: none;">Feb</text><text id="ezcGraphTextBox_19_text" x="191.2114" text-length="34.7200px" y="411.5000" style="font-size: 14px; font-family: 'Arial'; fill: #2e3436; fill-opacity: 1.00; stroke: none;">2023</text></g><g id="ezcGraphTextBox_22"><path d=" M 236.4257,413.3000 L 236.4257,383.7000 L 272.6457,383.7000 L 272.6457,413.3000 L 236.4257,413.3000 z " style="fill: #ffffff; fill-opacity: 0.00; stroke: none;" id="ezcGraphPolygon_121"/><text id="ezcGraphTextBox_22_text" x="243.1557" text-length="22.2600px" y="396.1000" style="font-size: 14px; font-family: 'Arial'; fill: #2e3436; fill-opacity: 1.00; stroke: none;">Apr</text><text id="ezcGraphTextBox_22_text" x="236.9257" text-length="34.7200px" y="411.5000" style="font-size: 14px; font-family: 'Arial'; fill: #2e3436; fill-opacity: 1.00; stroke: none;">2023</text></g><g id="ezcGraphTextBox_25"><path d=" M 282.1400,413.3000 L 282.1400,383.7000 L 318.3600,383.7000 L 318.3600,413.3000 L 282.1400,413.3000 z " style="fill: #ffffff; fill-opacity: 0.00; stroke: none;" id="ezcGraphPolygon_122"/><text id="ezcGraphTextBox_25_text" x="288.8700" text-length="22.2600px" y="396.1000" style="font-size: 14px; font-family: 'Arial'; fill: #2e3436; fill-opacity: 1.00; stroke: none;">Jun</text><text id="ezcGraphTextBox_25_text" x="282.6400" text-length="34.7200px" y="411.5000" style="font-size: 14px; font-family: 'Arial'; fill: #2e3436; fill-opacity: 1.00; stroke: none;">2023</text></g><g id="ezcGraphTextBox_28"><path d=" M 327.8543,413.3000 L 327.8543,383.7000 L 364.0743,383.7000 L 364.0743,413.3000 L 327.8543,413.3000 z " style="fill: #ffffff; fill-opacity: 0.00; stroke: none;" id="ezcGraphPolygon_123"/><text id="ezcGraphTextBox_28_text" x="334.5843" text-length="22.2600px" y="396.1000" style="font-size: 14px; font-family: 'Arial'; fill: #2e3436; fill-opacity: 1.00; stroke: none;">Aug</text><text id="ezcGraphTextBox_28_text" x="328.3543" text-length="34.7200px" y="411.5000" style="font-size: 14px; font-family: 'Arial'; fill: #2e3436; fill-opacity: 1.00; stroke: none;">2023</text></g><g id="ezcGraphTextBox_31"><path d=" M 373.5686,413.3000 L 373.5686,383.7000 L 409.7886,383.7000 L 409.7886,413.3000 L 373.5686,413.3000 z " style="fill: #ffffff; fill-opacity: 0.00; stroke: none;" id="ezcGraphPolygon_124"/><text id="ezcGraphTextBox_31_text" x="380.2986" text-length="22.2600px" y="396.1000" style="font-size: 14px; font-family: 'Arial'; fill: #2e3436; fill-opacity: 1.00; stroke: none;">Oct</text><text id="ezcGraphTextBox_31_text" x="374.0686" text-length="34.7200px" y="411.5000" style="font-size: 14px; font-family: 'Arial'; fill: #2e3436; fill-opacity: 1.00; stroke: none;">2023</text></g><g id="ezcGraphTextBox_34"><path d=" M 419.2829,413.3000 L 419.2829,383.7000 L 455.5029,383.7000 L 455.5029,413.3000 L 419.2829,413.3000 z " style="fill: #ffffff; fill-opacity: 0.00; stroke: none;" id="ezcGraphPolygon_125"/><text id="ezcGraphTextBox_34_text" x="426.0129" text-length="22.2600px" y="396.1000" style="font-size: 14px; font-family: 'Arial'; fill: #2e3436; fill-opacity: 1.00; stroke: none;">Dec</text><text id="ezcGraphTextBox_34_text" x="419.7829" text-length="34.7200px" y="411.5000" style="font-size: 14px; font-family: 'Arial'; fill: #2e3436; fill-opacity: 1.00; stroke: none;">2023</text></g><g id="ezcGraphTextBox_39" transform="rotate( 0.00 147.0000 49.0000 )"><path d=" M 141.5000,59.0000 L 141.5000,43.5000 L 395.2800,43.5000 L 395.2800,59.0000 L 141.5000,59.0000 z " style="fill: #ffffff; fill-opacity: 0.00; stroke: none;" id="ezcGraphPolygon_126"/><text id="ezcGraphTextBox_39_text" x="142.0000" text-length="252.2800px" y="55.9000" style="font-size: 14px; font-family: 'Arial'; fill: #2e3436; fill-opacity: 1.00; stroke: none;">Notebooks by "Display Server" in %</text></g><g id="ezcGraphTextBox_40"><path d=" M 128.8200,381.2000 L 128.8200,365.7000 L 139.0000,365.7000 L 139.0000,381.2000 L 128.8200,381.2000 z " style="fill: #ffffff; fill-opacity: 0.00; stroke: none;" id="ezcGraphPolygon_127"/><text id="ezcGraphTextBox_40_text" x="129.3200" text-length="8.6800px" y="378.1000" style="font-size: 14px; font-family: 'Arial'; fill: #2e3436; fill-opacity: 1.00; stroke: none;">0</text></g><g id="ezcGraphTextBox_43"><path d=" M 120.1400,230.0000 L 120.1400,214.5000 L 139.0000,214.5000 L 139.0000,230.0000 L 120.1400,230.0000 z " style="fill: #ffffff; fill-opacity: 0.00; stroke: none;" id="ezcGraphPolygon_128"/><text id="ezcGraphTextBox_43_text" x="120.6400" text-length="17.3600px" y="226.9000" style="font-size: 14px; font-family: 'Arial'; fill: #2e3436; fill-opacity: 1.00; stroke: none;">50</text></g><g id="ezcGraphTextBox_46"><path d=" M 111.4600,96.8000 L 111.4600,81.3000 L 139.0000,81.3000 L 139.0000,96.8000 L 111.4600,96.8000 z " style="fill: #ffffff; fill-opacity: 0.00; stroke: none;" id="ezcGraphPolygon_129"/><text id="ezcGraphTextBox_46_text" x="111.9600" text-length="26.0400px" y="93.7000" style="font-size: 14px; font-family: 'Arial'; fill: #2e3436; fill-opacity: 1.00; stroke: none;">100</text></g><g id="ezcGraphTextBox_48"><path d=" M 149.9571,157.0528 L 149.9571,145.5528 L 176.2571,145.5528 L 176.2571,157.0528 L 149.9571,157.0528 z " style="fill: #ffffff; fill-opacity: 0.00; stroke: none;" id="ezcGraphPolygon_130"/><text id="ezcGraphTextBox_48_text" x="150.4571" text-length="24.8000px" y="154.5528" style="font-size: 10px; font-family: 'Arial'; fill: #2e3436; fill-opacity: 1.00; stroke: none;">72.8</text></g><g id="ezcGraphTextBox_50"><path d=" M 195.6714,200.9008 L 195.6714,189.4008 L 221.9714,189.4008 L 221.9714,200.9008 L 195.6714,200.9008 z " style="fill: #ffffff; fill-opacity: 0.00; stroke: none;" id="ezcGraphPolygon_131"/><text id="ezcGraphTextBox_50_text" x="196.1714" text-length="24.8000px" y="198.4008" style="font-size: 10px; font-family: 'Arial'; fill: #2e3436; fill-opacity: 1.00; stroke: none;">58.3</text></g><g id="ezcGraphTextBox_52"><path d=" M 241.3857,184.8736 L 241.3857,173.3736 L 267.6857,173.3736 L 267.6857,184.8736 L 241.3857,184.8736 z " style="fill: #ffffff; fill-opacity: 0.00; stroke: none;" id="ezcGraphPolygon_132"/><text id="ezcGraphTextBox_52_text" x="241.8857" text-length="24.8000px" y="182.3736" style="font-size: 10px; font-family: 'Arial'; fill: #2e3436; fill-opacity: 1.00; stroke: none;">63.6</text></g><g id="ezcGraphTextBox_54"><path d=" M 287.1000,217.2304 L 287.1000,205.7304 L 313.4000,205.7304 L 313.4000,217.2304 L 287.1000,217.2304 z " style="fill: #ffffff; fill-opacity: 0.00; stroke: none;" id="ezcGraphPolygon_133"/><text id="ezcGraphTextBox_54_text" x="287.6000" text-length="24.8000px" y="214.7304" style="font-size: 10px; font-family: 'Arial'; fill: #2e3436; fill-opacity: 1.00; stroke: none;">52.9</text></g><g id="ezcGraphTextBox_56"><path d=" M 339.0143,226.0000 L 339.0143,214.5000 L 352.9143,214.5000 L 352.9143,226.0000 L 339.0143,226.0000 z " style="fill: #ffffff; fill-opacity: 0.00; stroke: none;" id="ezcGraphPolygon_134"/><text id="ezcGraphTextBox_56_text" x="339.5143" text-length="12.4000px" y="223.5000" style="font-size: 10px; font-family: 'Arial'; fill: #2e3436; fill-opacity: 1.00; stroke: none;">50</text></g><g id="ezcGraphTextBox_58"><path d=" M 378.5286,212.3920 L 378.5286,200.8920 L 404.8286,200.8920 L 404.8286,212.3920 L 378.5286,212.3920 z " style="fill: #ffffff; fill-opacity: 0.00; stroke: none;" id="ezcGraphPolygon_135"/><text id="ezcGraphTextBox_58_text" x="379.0286" text-length="24.8000px" y="209.8920" style="font-size: 10px; font-family: 'Arial'; fill: #2e3436; fill-opacity: 1.00; stroke: none;">54.5</text></g><g id="ezcGraphTextBox_60"><path d=" M 424.2429,161.2864 L 424.2429,149.7864 L 450.5429,149.7864 L 450.5429,161.2864 L 424.2429,161.2864 z " style="fill: #ffffff; fill-opacity: 0.00; stroke: none;" id="ezcGraphPolygon_136"/><text id="ezcGraphTextBox_60_text" x="424.7429" text-length="24.8000px" y="158.7864" style="font-size: 10px; font-family: 'Arial'; fill: #2e3436; fill-opacity: 1.00; stroke: none;">71.4</text></g><g id="ezcGraphTextBox_62"><path d=" M 156.1571,313.6960 L 156.1571,302.1960 L 170.0571,302.1960 L 170.0571,313.6960 L 156.1571,313.6960 z " style="fill: #ffffff; fill-opacity: 0.00; stroke: none;" id="ezcGraphPolygon_137"/><text id="ezcGraphTextBox_62_text" x="156.6571" text-length="12.4000px" y="311.1960" style="font-size: 10px; font-family: 'Arial'; fill: #2e3436; fill-opacity: 1.00; stroke: none;">21</text></g><g id="ezcGraphTextBox_64"><path d=" M 201.8714,256.2400 L 201.8714,244.7400 L 215.7714,244.7400 L 215.7714,256.2400 L 201.8714,256.2400 z " style="fill: #ffffff; fill-opacity: 0.00; stroke: none;" id="ezcGraphPolygon_138"/><text id="ezcGraphTextBox_64_text" x="202.3714" text-length="12.4000px" y="253.7400" style="font-size: 10px; font-family: 'Arial'; fill: #2e3436; fill-opacity: 1.00; stroke: none;">40</text></g><g id="ezcGraphTextBox_66"><path d=" M 241.3857,281.0368 L 241.3857,269.5368 L 267.6857,269.5368 L 267.6857,281.0368 L 241.3857,281.0368 z " style="fill: #ffffff; fill-opacity: 0.00; stroke: none;" id="ezcGraphPolygon_139"/><text id="ezcGraphTextBox_66_text" x="241.8857" text-length="24.8000px" y="278.5368" style="font-size: 10px; font-family: 'Arial'; fill: #2e3436; fill-opacity: 1.00; stroke: none;">31.8</text></g><g id="ezcGraphTextBox_68"><path d=" M 287.1000,243.8416 L 287.1000,232.3416 L 313.4000,232.3416 L 313.4000,243.8416 L 287.1000,243.8416 z " style="fill: #ffffff; fill-opacity: 0.00; stroke: none;" id="ezcGraphPolygon_140"/><text id="ezcGraphTextBox_68_text" x="287.6000" text-length="24.8000px" y="241.3416" style="font-size: 10px; font-family: 'Arial'; fill: #2e3436; fill-opacity: 1.00; stroke: none;">44.1</text></g><g id="ezcGraphTextBox_70"><path d=" M 332.8143,235.6768 L 332.8143,224.1768 L 359.1143,224.1768 L 359.1143,235.6768 L 332.8143,235.6768 z " style="fill: #ffffff; fill-opacity: 0.00; stroke: none;" id="ezcGraphPolygon_141"/><text id="ezcGraphTextBox_70_text" x="333.3143" text-length="24.8000px" y="233.1768" style="font-size: 10px; font-family: 'Arial'; fill: #2e3436; fill-opacity: 1.00; stroke: none;">46.8</text></g><g id="ezcGraphTextBox_72"><path d=" M 378.5286,247.4704 L 378.5286,235.9704 L 404.8286,235.9704 L 404.8286,247.4704 L 378.5286,247.4704 z " style="fill: #ffffff; fill-opacity: 0.00; stroke: none;" id="ezcGraphPolygon_142"/><text id="ezcGraphTextBox_72_text" x="379.0286" text-length="24.8000px" y="244.9704" style="font-size: 10px; font-family: 'Arial'; fill: #2e3436; fill-opacity: 1.00; stroke: none;">42.9</text></g><g id="ezcGraphTextBox_74"><path d=" M 430.4429,295.5520 L 430.4429,284.0520 L 444.3429,284.0520 L 444.3429,295.5520 L 430.4429,295.5520 z " style="fill: #ffffff; fill-opacity: 0.00; stroke: none;" id="ezcGraphPolygon_143"/><text id="ezcGraphTextBox_74_text" x="430.9429" text-length="12.4000px" y="293.0520" style="font-size: 10px; font-family: 'Arial'; fill: #2e3436; fill-opacity: 1.00; stroke: none;">27</text></g><g id="ezcGraphTextBox_76"><path d=" M 153.0571,369.6400 L 153.0571,358.1400 L 173.1571,358.1400 L 173.1571,369.6400 L 153.0571,369.6400 z " style="fill: #ffffff; fill-opacity: 0.00; stroke: none;" id="ezcGraphPolygon_144"/><text id="ezcGraphTextBox_76_text" x="153.5571" text-length="18.6000px" y="367.1400" style="font-size: 10px; font-family: 'Arial'; fill: #2e3436; fill-opacity: 1.00; stroke: none;">2.5</text></g><g id="ezcGraphTextBox_78"><path d=" M 290.2000,368.4304 L 290.2000,356.9304 L 310.3000,356.9304 L 310.3000,368.4304 L 290.2000,368.4304 z " style="fill: #ffffff; fill-opacity: 0.00; stroke: none;" id="ezcGraphPolygon_145"/><text id="ezcGraphTextBox_78_text" x="290.7000" text-length="18.6000px" y="365.9304" style="font-size: 10px; font-family: 'Arial'; fill: #2e3436; fill-opacity: 1.00; stroke: none;">2.9</text></g><g id="ezcGraphTextBox_80"><path d=" M 335.9143,367.5232 L 335.9143,356.0232 L 356.0143,356.0232 L 356.0143,367.5232 L 335.9143,367.5232 z " style="fill: #ffffff; fill-opacity: 0.00; stroke: none;" id="ezcGraphPolygon_146"/><text id="ezcGraphTextBox_80_text" x="336.4143" text-length="18.6000px" y="365.0232" style="font-size: 10px; font-family: 'Arial'; fill: #2e3436; fill-opacity: 1.00; stroke: none;">3.2</text></g><g id="ezcGraphTextBox_82"><path d=" M 427.3429,372.3616 L 427.3429,360.8616 L 447.4429,360.8616 L 447.4429,372.3616 L 427.3429,372.3616 z " style="fill: #ffffff; fill-opacity: 0.00; stroke: none;" id="ezcGraphPolygon_147"/><text id="ezcGraphTextBox_82_text" x="427.8429" text-length="18.6000px" y="369.8616" style="font-size: 10px; font-family: 'Arial'; fill: #2e3436; fill-opacity: 1.00; stroke: none;">1.6</text></g><g id="ezcGraphTextBox_84"><path d=" M 153.0571,366.0112 L 153.0571,354.5112 L 173.1571,354.5112 L 173.1571,366.0112 L 153.0571,366.0112 z " style="fill: #ffffff; fill-opacity: 0.00; stroke: none;" id="ezcGraphPolygon_148"/><text id="ezcGraphTextBox_84_text" x="153.5571" text-length="18.6000px" y="363.5112" style="font-size: 10px; font-family: 'Arial'; fill: #2e3436; fill-opacity: 1.00; stroke: none;">3.7</text></g><g id="ezcGraphTextBox_86"><path d=" M 198.7714,372.0592 L 198.7714,360.5592 L 218.8714,360.5592 L 218.8714,372.0592 L 198.7714,372.0592 z " style="fill: #ffffff; fill-opacity: 0.00; stroke: none;" id="ezcGraphPolygon_149"/><text id="ezcGraphTextBox_86_text" x="199.2714" text-length="18.6000px" y="369.5592" style="font-size: 10px; font-family: 'Arial'; fill: #2e3436; fill-opacity: 1.00; stroke: none;">1.7</text></g><g id="ezcGraphTextBox_88"><path d=" M 244.4857,363.5920 L 244.4857,352.0920 L 264.5857,352.0920 L 264.5857,363.5920 L 244.4857,363.5920 z " style="fill: #ffffff; fill-opacity: 0.00; stroke: none;" id="ezcGraphPolygon_150"/><text id="ezcGraphTextBox_88_text" x="244.9857" text-length="18.6000px" y="361.0920" style="font-size: 10px; font-family: 'Arial'; fill: #2e3436; fill-opacity: 1.00; stroke: none;">4.5</text></g><g id="ezcGraphTextBox_90"><path d=" M 381.6286,369.3376 L 381.6286,357.8376 L 401.7286,357.8376 L 401.7286,369.3376 L 381.6286,369.3376 z " style="fill: #ffffff; fill-opacity: 0.00; stroke: none;" id="ezcGraphPolygon_151"/><text id="ezcGraphTextBox_90_text" x="382.1286" text-length="18.6000px" y="366.8376" style="font-size: 10px; font-family: 'Arial'; fill: #2e3436; fill-opacity: 1.00; stroke: none;">2.6</text></g></g></svg>
