<?xml version="1.0"?>
<svg xmlns="http://www.w3.org/2000/svg" width="500" height="420" version="1.0" id="ezcGraph"><defs/><g id="ezcGraphChart" color-rendering="optimizeQuality" shape-rendering="geometricPrecision" text-rendering="optimizeLegibility"><path d=" M 0.0000,420.0000 L 0.0000,0.0000 L 500.0000,0.0000 L 500.0000,420.0000 L 0.0000,420.0000 z " style="fill: #eeeeec; fill-opacity: 1.00; stroke: none;" id="ezcGraphPolygon_1"/><path d=" M 0.0000,42.0000 L 0.0000,0.0000 L 500.0000,0.0000 L 500.0000,42.0000 L 0.0000,42.0000 z " style="fill: #000000; fill-opacity: 0.00; stroke: none;" id="ezcGraphPolygon_2"/><path d=" M 0.0000,420.0000 L 0.0000,42.0000 L 100.0000,42.0000 L 100.0000,420.0000 L 0.0000,420.0000 z " style="fill: #000000; fill-opacity: 0.00; stroke: none;" id="ezcGraphPolygon_4"/><path d=" M 2.0000,58.0000 L 2.0000,44.0000 L 16.0000,44.0000 L 16.0000,58.0000 L 2.0000,58.0000 z " style="fill: #3465a4; fill-opacity: 1.00; stroke: none; cursor: pointer;" id="ezcGraphPolygon_5" onclick="top.location = 'https://linux-hardware.org/?view=computers&amp;f=os_dual_boot&amp;v=0&amp;p=-1'"/><path d=" M 2.0000,76.0000 L 2.0000,62.0000 L 16.0000,62.0000 L 16.0000,76.0000 L 2.0000,76.0000 z " style="fill: #4e9a06; fill-opacity: 1.00; stroke: none; cursor: pointer;" id="ezcGraphPolygon_7" onclick="top.location = 'https://linux-hardware.org/?view=computers&amp;f=os_dual_boot&amp;v=1&amp;p=-1'"/><path d=" M 100.0000,382.2000 L 500.0000,382.2000" style="fill: none; stroke: #2e3436; stroke-width: 1; stroke-opacity: 1.00; stroke-linecap: round; stroke-linejoin: round;" id="ezcGraphLine_9"/><path d=" M 492.0000,378.2000 L 500.0000,382.2000 L 492.0000,386.2000 L 492.0000,378.2000 z " style="fill: #2e3436; fill-opacity: 1.00; stroke: none;" id="ezcGraphPolygon_10"/><path d=" M 185.7143,79.8000 L 185.7143,382.2000" style="fill: none; stroke: #000000; stroke-width: 1; stroke-opacity: 0.00; stroke-linecap: round; stroke-linejoin: round;" id="ezcGraphLine_13"/><path d=" M 185.7143,379.2000 L 185.7143,385.2000" style="fill: none; stroke: #2e3436; stroke-width: 1; stroke-opacity: 1.00; stroke-linecap: round; stroke-linejoin: round;" id="ezcGraphLine_14"/><path d=" M 231.4286,79.8000 L 231.4286,382.2000" style="fill: none; stroke: #000000; stroke-width: 1; stroke-opacity: 0.00; stroke-linecap: round; stroke-linejoin: round;" id="ezcGraphLine_16"/><path d=" M 231.4286,379.2000 L 231.4286,385.2000" style="fill: none; stroke: #2e3436; stroke-width: 1; stroke-opacity: 1.00; stroke-linecap: round; stroke-linejoin: round;" id="ezcGraphLine_17"/><path d=" M 277.1429,79.8000 L 277.1429,382.2000" style="fill: none; stroke: #000000; stroke-width: 1; stroke-opacity: 0.00; stroke-linecap: round; stroke-linejoin: round;" id="ezcGraphLine_19"/><path d=" M 277.1429,379.2000 L 277.1429,385.2000" style="fill: none; stroke: #2e3436; stroke-width: 1; stroke-opacity: 1.00; stroke-linecap: round; stroke-linejoin: round;" id="ezcGraphLine_20"/><path d=" M 322.8571,79.8000 L 322.8571,382.2000" style="fill: none; stroke: #000000; stroke-width: 1; stroke-opacity: 0.00; stroke-linecap: round; stroke-linejoin: round;" id="ezcGraphLine_22"/><path d=" M 322.8571,379.2000 L 322.8571,385.2000" style="fill: none; stroke: #2e3436; stroke-width: 1; stroke-opacity: 1.00; stroke-linecap: round; stroke-linejoin: round;" id="ezcGraphLine_23"/><path d=" M 368.5714,79.8000 L 368.5714,382.2000" style="fill: none; stroke: #000000; stroke-width: 1; stroke-opacity: 0.00; stroke-linecap: round; stroke-linejoin: round;" id="ezcGraphLine_25"/><path d=" M 368.5714,379.2000 L 368.5714,385.2000" style="fill: none; stroke: #2e3436; stroke-width: 1; stroke-opacity: 1.00; stroke-linecap: round; stroke-linejoin: round;" id="ezcGraphLine_26"/><path d=" M 414.2857,79.8000 L 414.2857,382.2000" style="fill: none; stroke: #000000; stroke-width: 1; stroke-opacity: 0.00; stroke-linecap: round; stroke-linejoin: round;" id="ezcGraphLine_28"/><path d=" M 414.2857,379.2000 L 414.2857,385.2000" style="fill: none; stroke: #2e3436; stroke-width: 1; stroke-opacity: 1.00; stroke-linecap: round; stroke-linejoin: round;" id="ezcGraphLine_29"/><path d=" M 460.0000,79.8000 L 460.0000,382.2000" style="fill: none; stroke: #000000; stroke-width: 1; stroke-opacity: 0.00; stroke-linecap: round; stroke-linejoin: round;" id="ezcGraphLine_31"/><path d=" M 460.0000,379.2000 L 460.0000,385.2000" style="fill: none; stroke: #2e3436; stroke-width: 1; stroke-opacity: 1.00; stroke-linecap: round; stroke-linejoin: round;" id="ezcGraphLine_32"/><path d=" M 140.0000,420.0000 L 140.0000,42.0000" style="fill: none; stroke: #2e3436; stroke-width: 1; stroke-opacity: 1.00; stroke-linecap: round; stroke-linejoin: round;" id="ezcGraphLine_33"/><path d=" M 136.0000,50.0000 L 140.0000,42.0000 L 144.0000,50.0000 L 136.0000,50.0000 z " style="fill: #2e3436; fill-opacity: 1.00; stroke: none;" id="ezcGraphPolygon_34"/><path d=" M 140.0000,231.0000 L 460.0000,231.0000" style="fill: none; stroke: #000000; stroke-width: 1; stroke-opacity: 0.00; stroke-linecap: round; stroke-linejoin: round;" id="ezcGraphLine_37"/><path d=" M 140.0000,231.0000 L 143.0000,231.0000" style="fill: none; stroke: #2e3436; stroke-width: 1; stroke-opacity: 1.00; stroke-linecap: round; stroke-linejoin: round;" id="ezcGraphLine_38"/><path d=" M 140.0000,79.8000 L 460.0000,79.8000" style="fill: none; stroke: #000000; stroke-width: 1; stroke-opacity: 0.00; stroke-linecap: round; stroke-linejoin: round;" id="ezcGraphLine_40"/><path d=" M 140.0000,79.8000 L 143.0000,79.8000" style="fill: none; stroke: #2e3436; stroke-width: 1; stroke-opacity: 1.00; stroke-linecap: round; stroke-linejoin: round;" id="ezcGraphLine_41"/><path d=" M 162.8571,166.5541 L 162.8571,166.5541" style="fill: none; stroke: #3465a4; stroke-width: 1; stroke-opacity: 1.00; stroke-linecap: round; stroke-linejoin: round;" id="ezcGraphLine_43"/><path d=" M 162.8571,166.5541 L 208.5714,82.2787" style="fill: none; stroke: #3465a4; stroke-width: 1; stroke-opacity: 1.00; stroke-linecap: round; stroke-linejoin: round;" id="ezcGraphLine_45"/><path d=" M 208.5714,82.2787 L 254.2857,166.5541" style="fill: none; stroke: #3465a4; stroke-width: 1; stroke-opacity: 1.00; stroke-linecap: round; stroke-linejoin: round;" id="ezcGraphLine_47"/><path d=" M 254.2857,166.5541 L 300.0000,141.7672" style="fill: none; stroke: #3465a4; stroke-width: 1; stroke-opacity: 1.00; stroke-linecap: round; stroke-linejoin: round;" id="ezcGraphLine_49"/><path d=" M 300.0000,141.7672 L 345.7143,181.4262" style="fill: none; stroke: #3465a4; stroke-width: 1; stroke-opacity: 1.00; stroke-linecap: round; stroke-linejoin: round;" id="ezcGraphLine_51"/><path d=" M 345.7143,181.4262 L 391.4286,116.9803" style="fill: none; stroke: #3465a4; stroke-width: 1; stroke-opacity: 1.00; stroke-linecap: round; stroke-linejoin: round;" id="ezcGraphLine_53"/><path d=" M 391.4286,116.9803 L 437.1429,94.6721" style="fill: none; stroke: #3465a4; stroke-width: 1; stroke-opacity: 1.00; stroke-linecap: round; stroke-linejoin: round;" id="ezcGraphLine_55"/><path d=" M 162.8571,362.3705 L 162.8571,362.3705" style="fill: none; stroke: #4e9a06; stroke-width: 1; stroke-opacity: 1.00; stroke-linecap: round; stroke-linejoin: round;" id="ezcGraphLine_57"/><path d=" M 162.8571,362.3705 L 208.5714,359.8918" style="fill: none; stroke: #4e9a06; stroke-width: 1; stroke-opacity: 1.00; stroke-linecap: round; stroke-linejoin: round;" id="ezcGraphLine_59"/><path d=" M 208.5714,359.8918 L 254.2857,369.8066" style="fill: none; stroke: #4e9a06; stroke-width: 1; stroke-opacity: 1.00; stroke-linecap: round; stroke-linejoin: round;" id="ezcGraphLine_61"/><path d=" M 254.2857,369.8066 L 300.0000,369.8066" style="fill: none; stroke: #4e9a06; stroke-width: 1; stroke-opacity: 1.00; stroke-linecap: round; stroke-linejoin: round;" id="ezcGraphLine_63"/><path d=" M 300.0000,369.8066 L 345.7143,367.3279" style="fill: none; stroke: #4e9a06; stroke-width: 1; stroke-opacity: 1.00; stroke-linecap: round; stroke-linejoin: round;" id="ezcGraphLine_65"/><path d=" M 345.7143,367.3279 L 391.4286,377.2426" style="fill: none; stroke: #4e9a06; stroke-width: 1; stroke-opacity: 1.00; stroke-linecap: round; stroke-linejoin: round;" id="ezcGraphLine_67"/><path d=" M 391.4286,377.2426 L 437.1429,372.2852" style="fill: none; stroke: #4e9a06; stroke-width: 1; stroke-opacity: 1.00; stroke-linecap: round; stroke-linejoin: round;" id="ezcGraphLine_69"/><path d=" M 159.8571,169.5541 L 159.8571,163.5541 L 165.8571,163.5541 L 165.8571,169.5541 L 159.8571,169.5541 z " style="fill: #3465a4; fill-opacity: 1.00; stroke: none; cursor: pointer;" id="ezcGraphPolygon_71" onclick="top.location = 'https://linux-hardware.org/?view=computers&amp;f=os_dual_boot&amp;v=0&amp;p=-1&amp;p=91'"/><path d=" M 205.5714,85.2787 L 205.5714,79.2787 L 211.5714,79.2787 L 211.5714,85.2787 L 205.5714,85.2787 z " style="fill: #3465a4; fill-opacity: 1.00; stroke: none; cursor: pointer;" id="ezcGraphPolygon_72" onclick="top.location = 'https://linux-hardware.org/?view=computers&amp;f=os_dual_boot&amp;v=0&amp;p=-1&amp;p=92'"/><path d=" M 251.2857,169.5541 L 251.2857,163.5541 L 257.2857,163.5541 L 257.2857,169.5541 L 251.2857,169.5541 z " style="fill: #3465a4; fill-opacity: 1.00; stroke: none; cursor: pointer;" id="ezcGraphPolygon_73" onclick="top.location = 'https://linux-hardware.org/?view=computers&amp;f=os_dual_boot&amp;v=0&amp;p=-1&amp;p=93'"/><path d=" M 297.0000,144.7672 L 297.0000,138.7672 L 303.0000,138.7672 L 303.0000,144.7672 L 297.0000,144.7672 z " style="fill: #3465a4; fill-opacity: 1.00; stroke: none; cursor: pointer;" id="ezcGraphPolygon_74" onclick="top.location = 'https://linux-hardware.org/?view=computers&amp;f=os_dual_boot&amp;v=0&amp;p=-1&amp;p=94'"/><path d=" M 342.7143,184.4262 L 342.7143,178.4262 L 348.7143,178.4262 L 348.7143,184.4262 L 342.7143,184.4262 z " style="fill: #3465a4; fill-opacity: 1.00; stroke: none; cursor: pointer;" id="ezcGraphPolygon_75" onclick="top.location = 'https://linux-hardware.org/?view=computers&amp;f=os_dual_boot&amp;v=0&amp;p=-1&amp;p=95'"/><path d=" M 388.4286,119.9803 L 388.4286,113.9803 L 394.4286,113.9803 L 394.4286,119.9803 L 388.4286,119.9803 z " style="fill: #3465a4; fill-opacity: 1.00; stroke: none; cursor: pointer;" id="ezcGraphPolygon_76" onclick="top.location = 'https://linux-hardware.org/?view=computers&amp;f=os_dual_boot&amp;v=0&amp;p=-1&amp;p=96'"/><path d=" M 434.1429,97.6721 L 434.1429,91.6721 L 440.1429,91.6721 L 440.1429,97.6721 L 434.1429,97.6721 z " style="fill: #3465a4; fill-opacity: 1.00; stroke: none; cursor: pointer;" id="ezcGraphPolygon_77" onclick="top.location = 'https://linux-hardware.org/?view=computers&amp;f=os_dual_boot&amp;v=0&amp;p=-1&amp;p=97'"/><path d=" M 159.8571,365.3705 L 159.8571,359.3705 L 165.8571,359.3705 L 165.8571,365.3705 L 159.8571,365.3705 z " style="fill: #4e9a06; fill-opacity: 1.00; stroke: none; cursor: pointer;" id="ezcGraphPolygon_78" onclick="top.location = 'https://linux-hardware.org/?view=computers&amp;f=os_dual_boot&amp;v=1&amp;p=-1&amp;p=91'"/><path d=" M 205.5714,362.8918 L 205.5714,356.8918 L 211.5714,356.8918 L 211.5714,362.8918 L 205.5714,362.8918 z " style="fill: #4e9a06; fill-opacity: 1.00; stroke: none; cursor: pointer;" id="ezcGraphPolygon_79" onclick="top.location = 'https://linux-hardware.org/?view=computers&amp;f=os_dual_boot&amp;v=1&amp;p=-1&amp;p=92'"/><path d=" M 251.2857,372.8066 L 251.2857,366.8066 L 257.2857,366.8066 L 257.2857,372.8066 L 251.2857,372.8066 z " style="fill: #4e9a06; fill-opacity: 1.00; stroke: none; cursor: pointer;" id="ezcGraphPolygon_80" onclick="top.location = 'https://linux-hardware.org/?view=computers&amp;f=os_dual_boot&amp;v=1&amp;p=-1&amp;p=93'"/><path d=" M 297.0000,372.8066 L 297.0000,366.8066 L 303.0000,366.8066 L 303.0000,372.8066 L 297.0000,372.8066 z " style="fill: #4e9a06; fill-opacity: 1.00; stroke: none; cursor: pointer;" id="ezcGraphPolygon_81" onclick="top.location = 'https://linux-hardware.org/?view=computers&amp;f=os_dual_boot&amp;v=1&amp;p=-1&amp;p=94'"/><path d=" M 342.7143,370.3279 L 342.7143,364.3279 L 348.7143,364.3279 L 348.7143,370.3279 L 342.7143,370.3279 z " style="fill: #4e9a06; fill-opacity: 1.00; stroke: none; cursor: pointer;" id="ezcGraphPolygon_82" onclick="top.location = 'https://linux-hardware.org/?view=computers&amp;f=os_dual_boot&amp;v=1&amp;p=-1&amp;p=95'"/><path d=" M 388.4286,380.2426 L 388.4286,374.2426 L 394.4286,374.2426 L 394.4286,380.2426 L 388.4286,380.2426 z " style="fill: #4e9a06; fill-opacity: 1.00; stroke: none; cursor: pointer;" id="ezcGraphPolygon_83" onclick="top.location = 'https://linux-hardware.org/?view=computers&amp;f=os_dual_boot&amp;v=1&amp;p=-1&amp;p=96'"/><path d=" M 434.1429,375.2852 L 434.1429,369.2852 L 440.1429,369.2852 L 440.1429,375.2852 L 434.1429,375.2852 z " style="fill: #4e9a06; fill-opacity: 1.00; stroke: none; cursor: pointer;" id="ezcGraphPolygon_84" onclick="top.location = 'https://linux-hardware.org/?view=computers&amp;f=os_dual_boot&amp;v=1&amp;p=-1&amp;p=97'"/><g id="ezcGraphTextBox_3"><path d=" M 1.4600,41.5000 L 1.4600,1.0000 L 499.0400,1.0000 L 499.0400,41.5000 L 1.4600,41.5000 z " style="fill: #ffffff; fill-opacity: 0.00; stroke: none;" id="ezcGraphPolygon_85"/><text id="ezcGraphTextBox_3_text" x="1.9600" text-length="496.0800px" y="34.6500" style="font-size: 39px; font-family: 'Arial'; fill: #2e3436; fill-opacity: 1.00; stroke: none;">Dual Boot with Linux/BSD</text></g><g id="ezcGraphTextBox_6" style=" cursor: pointer;" onclick="top.location = 'https://linux-hardware.org/?view=computers&amp;f=os_dual_boot&amp;v=0&amp;p=-1'"><path d=" M 16.5000,59.0000 L 16.5000,43.5000 L 32.8400,43.5000 L 32.8400,59.0000 L 16.5000,59.0000 z " style="fill: #ffffff; fill-opacity: 0.00; stroke: none;" id="ezcGraphPolygon_86"/><text id="ezcGraphTextBox_6_text" x="17.0000" text-length="14.8400px" y="55.9000" style="font-size: 14px; font-family: 'Arial'; fill: #2e3436; fill-opacity: 1.00; stroke: none;">No</text></g><g id="ezcGraphTextBox_8" style=" cursor: pointer;" onclick="top.location = 'https://linux-hardware.org/?view=computers&amp;f=os_dual_boot&amp;v=1&amp;p=-1'"><path d=" M 16.5000,77.0000 L 16.5000,61.5000 L 40.2600,61.5000 L 40.2600,77.0000 L 16.5000,77.0000 z " style="fill: #ffffff; fill-opacity: 0.00; stroke: none;" id="ezcGraphPolygon_87"/><text id="ezcGraphTextBox_8_text" x="17.0000" text-length="22.2600px" y="73.9000" style="font-size: 14px; font-family: 'Arial'; fill: #2e3436; fill-opacity: 1.00; stroke: none;">Yes</text></g><g id="ezcGraphTextBox_11" transform="rotate( 0.00 493.0000 375.2000 )"><path d=" M 465.7000,381.2000 L 465.7000,367.7000 L 499.0000,367.7000 L 499.0000,381.2000 L 465.7000,381.2000 z " style="fill: #ffffff; fill-opacity: 0.00; stroke: none;" id="ezcGraphPolygon_88"/><text id="ezcGraphTextBox_11_text" x="466.2000" text-length="31.8000px" y="378.4000" style="font-size: 12px; font-family: 'Arial'; fill: #2e3436; fill-opacity: 1.00; stroke: none;">Time </text></g><g id="ezcGraphTextBox_12"><path d=" M 147.4771,409.3000 L 147.4771,383.7000 L 178.7371,383.7000 L 178.7371,409.3000 L 147.4771,409.3000 z " style="fill: #ffffff; fill-opacity: 0.00; stroke: none;" id="ezcGraphPolygon_89"/><text id="ezcGraphTextBox_12_text" x="153.3171" text-length="19.0800px" y="394.4000" style="font-size: 12px; font-family: 'Arial'; fill: #2e3436; fill-opacity: 1.00; stroke: none;">Jul</text><text id="ezcGraphTextBox_12_text" x="147.9771" text-length="29.7600px" y="407.6000" style="font-size: 12px; font-family: 'Arial'; fill: #2e3436; fill-opacity: 1.00; stroke: none;">2021</text></g><g id="ezcGraphTextBox_15"><path d=" M 193.1914,409.3000 L 193.1914,383.7000 L 224.4514,383.7000 L 224.4514,409.3000 L 193.1914,409.3000 z " style="fill: #ffffff; fill-opacity: 0.00; stroke: none;" id="ezcGraphPolygon_90"/><text id="ezcGraphTextBox_15_text" x="199.0314" text-length="19.0800px" y="394.4000" style="font-size: 12px; font-family: 'Arial'; fill: #2e3436; fill-opacity: 1.00; stroke: none;">Aug</text><text id="ezcGraphTextBox_15_text" x="193.6914" text-length="29.7600px" y="407.6000" style="font-size: 12px; font-family: 'Arial'; fill: #2e3436; fill-opacity: 1.00; stroke: none;">2021</text></g><g id="ezcGraphTextBox_18"><path d=" M 238.9057,409.3000 L 238.9057,383.7000 L 270.1657,383.7000 L 270.1657,409.3000 L 238.9057,409.3000 z " style="fill: #ffffff; fill-opacity: 0.00; stroke: none;" id="ezcGraphPolygon_91"/><text id="ezcGraphTextBox_18_text" x="244.7457" text-length="19.0800px" y="394.4000" style="font-size: 12px; font-family: 'Arial'; fill: #2e3436; fill-opacity: 1.00; stroke: none;">Sep</text><text id="ezcGraphTextBox_18_text" x="239.4057" text-length="29.7600px" y="407.6000" style="font-size: 12px; font-family: 'Arial'; fill: #2e3436; fill-opacity: 1.00; stroke: none;">2021</text></g><g id="ezcGraphTextBox_21"><path d=" M 284.6200,409.3000 L 284.6200,383.7000 L 315.8800,383.7000 L 315.8800,409.3000 L 284.6200,409.3000 z " style="fill: #ffffff; fill-opacity: 0.00; stroke: none;" id="ezcGraphPolygon_92"/><text id="ezcGraphTextBox_21_text" x="290.4600" text-length="19.0800px" y="394.4000" style="font-size: 12px; font-family: 'Arial'; fill: #2e3436; fill-opacity: 1.00; stroke: none;">Oct</text><text id="ezcGraphTextBox_21_text" x="285.1200" text-length="29.7600px" y="407.6000" style="font-size: 12px; font-family: 'Arial'; fill: #2e3436; fill-opacity: 1.00; stroke: none;">2021</text></g><g id="ezcGraphTextBox_24"><path d=" M 330.3343,409.3000 L 330.3343,383.7000 L 361.5943,383.7000 L 361.5943,409.3000 L 330.3343,409.3000 z " style="fill: #ffffff; fill-opacity: 0.00; stroke: none;" id="ezcGraphPolygon_93"/><text id="ezcGraphTextBox_24_text" x="336.1743" text-length="19.0800px" y="394.4000" style="font-size: 12px; font-family: 'Arial'; fill: #2e3436; fill-opacity: 1.00; stroke: none;">Nov</text><text id="ezcGraphTextBox_24_text" x="330.8343" text-length="29.7600px" y="407.6000" style="font-size: 12px; font-family: 'Arial'; fill: #2e3436; fill-opacity: 1.00; stroke: none;">2021</text></g><g id="ezcGraphTextBox_27"><path d=" M 376.0486,409.3000 L 376.0486,383.7000 L 407.3086,383.7000 L 407.3086,409.3000 L 376.0486,409.3000 z " style="fill: #ffffff; fill-opacity: 0.00; stroke: none;" id="ezcGraphPolygon_94"/><text id="ezcGraphTextBox_27_text" x="381.8886" text-length="19.0800px" y="394.4000" style="font-size: 12px; font-family: 'Arial'; fill: #2e3436; fill-opacity: 1.00; stroke: none;">Dec</text><text id="ezcGraphTextBox_27_text" x="376.5486" text-length="29.7600px" y="407.6000" style="font-size: 12px; font-family: 'Arial'; fill: #2e3436; fill-opacity: 1.00; stroke: none;">2021</text></g><g id="ezcGraphTextBox_30"><path d=" M 421.7629,409.3000 L 421.7629,383.7000 L 453.0229,383.7000 L 453.0229,409.3000 L 421.7629,409.3000 z " style="fill: #ffffff; fill-opacity: 0.00; stroke: none;" id="ezcGraphPolygon_95"/><text id="ezcGraphTextBox_30_text" x="427.6029" text-length="19.0800px" y="394.4000" style="font-size: 12px; font-family: 'Arial'; fill: #2e3436; fill-opacity: 1.00; stroke: none;">Jan</text><text id="ezcGraphTextBox_30_text" x="422.2629" text-length="29.7600px" y="407.6000" style="font-size: 12px; font-family: 'Arial'; fill: #2e3436; fill-opacity: 1.00; stroke: none;">2022</text></g><g id="ezcGraphTextBox_35" transform="rotate( 0.00 147.0000 49.0000 )"><path d=" M 141.5000,57.0000 L 141.5000,43.5000 L 391.0400,43.5000 L 391.0400,57.0000 L 141.5000,57.0000 z " style="fill: #ffffff; fill-opacity: 0.00; stroke: none;" id="ezcGraphPolygon_96"/><text id="ezcGraphTextBox_35_text" x="142.0000" text-length="248.0400px" y="54.2000" style="font-size: 12px; font-family: 'Arial'; fill: #2e3436; fill-opacity: 1.00; stroke: none;">Computers by "Dual Boot with Linux/BSD"</text></g><g id="ezcGraphTextBox_36"><path d=" M 130.0600,381.2000 L 130.0600,367.7000 L 139.0000,367.7000 L 139.0000,381.2000 L 130.0600,381.2000 z " style="fill: #ffffff; fill-opacity: 0.00; stroke: none;" id="ezcGraphPolygon_97"/><text id="ezcGraphTextBox_36_text" x="130.5600" text-length="7.4400px" y="378.4000" style="font-size: 12px; font-family: 'Arial'; fill: #2e3436; fill-opacity: 1.00; stroke: none;">0</text></g><g id="ezcGraphTextBox_39"><path d=" M 122.6200,230.0000 L 122.6200,216.5000 L 139.0000,216.5000 L 139.0000,230.0000 L 122.6200,230.0000 z " style="fill: #ffffff; fill-opacity: 0.00; stroke: none;" id="ezcGraphPolygon_98"/><text id="ezcGraphTextBox_39_text" x="123.1200" text-length="14.8800px" y="227.2000" style="font-size: 12px; font-family: 'Arial'; fill: #2e3436; fill-opacity: 1.00; stroke: none;">61</text></g><g id="ezcGraphTextBox_42"><path d=" M 115.1800,94.8000 L 115.1800,81.3000 L 139.0000,81.3000 L 139.0000,94.8000 L 115.1800,94.8000 z " style="fill: #ffffff; fill-opacity: 0.00; stroke: none;" id="ezcGraphPolygon_99"/><text id="ezcGraphTextBox_42_text" x="115.6800" text-length="22.3200px" y="92.0000" style="font-size: 12px; font-family: 'Arial'; fill: #2e3436; fill-opacity: 1.00; stroke: none;">122</text></g><g id="ezcGraphTextBox_44"><path d=" M 156.1571,161.5541 L 156.1571,150.0541 L 170.0571,150.0541 L 170.0571,161.5541 L 156.1571,161.5541 z " style="fill: #ffffff; fill-opacity: 0.00; stroke: none;" id="ezcGraphPolygon_100"/><text id="ezcGraphTextBox_44_text" x="156.6571" text-length="12.4000px" y="159.0541" style="font-size: 10px; font-family: 'Arial'; fill: #2e3436; fill-opacity: 1.00; stroke: none;">87</text></g><g id="ezcGraphTextBox_46"><path d=" M 198.7714,77.2787 L 198.7714,65.7787 L 218.8714,65.7787 L 218.8714,77.2787 L 198.7714,77.2787 z " style="fill: #ffffff; fill-opacity: 0.00; stroke: none;" id="ezcGraphPolygon_101"/><text id="ezcGraphTextBox_46_text" x="199.2714" text-length="18.6000px" y="74.7787" style="font-size: 10px; font-family: 'Arial'; fill: #2e3436; fill-opacity: 1.00; stroke: none;">121</text></g><g id="ezcGraphTextBox_48"><path d=" M 247.5857,161.5541 L 247.5857,150.0541 L 261.4857,150.0541 L 261.4857,161.5541 L 247.5857,161.5541 z " style="fill: #ffffff; fill-opacity: 0.00; stroke: none;" id="ezcGraphPolygon_102"/><text id="ezcGraphTextBox_48_text" x="248.0857" text-length="12.4000px" y="159.0541" style="font-size: 10px; font-family: 'Arial'; fill: #2e3436; fill-opacity: 1.00; stroke: none;">87</text></g><g id="ezcGraphTextBox_50"><path d=" M 293.3000,136.7672 L 293.3000,125.2672 L 307.2000,125.2672 L 307.2000,136.7672 L 293.3000,136.7672 z " style="fill: #ffffff; fill-opacity: 0.00; stroke: none;" id="ezcGraphPolygon_103"/><text id="ezcGraphTextBox_50_text" x="293.8000" text-length="12.4000px" y="134.2672" style="font-size: 10px; font-family: 'Arial'; fill: #2e3436; fill-opacity: 1.00; stroke: none;">97</text></g><g id="ezcGraphTextBox_52"><path d=" M 339.0143,176.4262 L 339.0143,164.9262 L 352.9143,164.9262 L 352.9143,176.4262 L 339.0143,176.4262 z " style="fill: #ffffff; fill-opacity: 0.00; stroke: none;" id="ezcGraphPolygon_104"/><text id="ezcGraphTextBox_52_text" x="339.5143" text-length="12.4000px" y="173.9262" style="font-size: 10px; font-family: 'Arial'; fill: #2e3436; fill-opacity: 1.00; stroke: none;">81</text></g><g id="ezcGraphTextBox_54"><path d=" M 381.6286,111.9803 L 381.6286,100.4803 L 401.7286,100.4803 L 401.7286,111.9803 L 381.6286,111.9803 z " style="fill: #ffffff; fill-opacity: 0.00; stroke: none;" id="ezcGraphPolygon_105"/><text id="ezcGraphTextBox_54_text" x="382.1286" text-length="18.6000px" y="109.4803" style="font-size: 10px; font-family: 'Arial'; fill: #2e3436; fill-opacity: 1.00; stroke: none;">107</text></g><g id="ezcGraphTextBox_56"><path d=" M 427.3429,89.6721 L 427.3429,78.1721 L 447.4429,78.1721 L 447.4429,89.6721 L 427.3429,89.6721 z " style="fill: #ffffff; fill-opacity: 0.00; stroke: none;" id="ezcGraphPolygon_106"/><text id="ezcGraphTextBox_56_text" x="427.8429" text-length="18.6000px" y="87.1721" style="font-size: 10px; font-family: 'Arial'; fill: #2e3436; fill-opacity: 1.00; stroke: none;">116</text></g><g id="ezcGraphTextBox_58"><path d=" M 159.2571,357.3705 L 159.2571,345.8705 L 166.9571,345.8705 L 166.9571,357.3705 L 159.2571,357.3705 z " style="fill: #ffffff; fill-opacity: 0.00; stroke: none;" id="ezcGraphPolygon_107"/><text id="ezcGraphTextBox_58_text" x="159.7571" text-length="6.2000px" y="354.8705" style="font-size: 10px; font-family: 'Arial'; fill: #2e3436; fill-opacity: 1.00; stroke: none;">8</text></g><g id="ezcGraphTextBox_60"><path d=" M 204.9714,354.8918 L 204.9714,343.3918 L 212.6714,343.3918 L 212.6714,354.8918 L 204.9714,354.8918 z " style="fill: #ffffff; fill-opacity: 0.00; stroke: none;" id="ezcGraphPolygon_108"/><text id="ezcGraphTextBox_60_text" x="205.4714" text-length="6.2000px" y="352.3918" style="font-size: 10px; font-family: 'Arial'; fill: #2e3436; fill-opacity: 1.00; stroke: none;">9</text></g><g id="ezcGraphTextBox_62"><path d=" M 250.6857,364.8066 L 250.6857,353.3066 L 258.3857,353.3066 L 258.3857,364.8066 L 250.6857,364.8066 z " style="fill: #ffffff; fill-opacity: 0.00; stroke: none;" id="ezcGraphPolygon_109"/><text id="ezcGraphTextBox_62_text" x="251.1857" text-length="6.2000px" y="362.3066" style="font-size: 10px; font-family: 'Arial'; fill: #2e3436; fill-opacity: 1.00; stroke: none;">5</text></g><g id="ezcGraphTextBox_64"><path d=" M 296.4000,364.8066 L 296.4000,353.3066 L 304.1000,353.3066 L 304.1000,364.8066 L 296.4000,364.8066 z " style="fill: #ffffff; fill-opacity: 0.00; stroke: none;" id="ezcGraphPolygon_110"/><text id="ezcGraphTextBox_64_text" x="296.9000" text-length="6.2000px" y="362.3066" style="font-size: 10px; font-family: 'Arial'; fill: #2e3436; fill-opacity: 1.00; stroke: none;">5</text></g><g id="ezcGraphTextBox_66"><path d=" M 342.1143,362.3279 L 342.1143,350.8279 L 349.8143,350.8279 L 349.8143,362.3279 L 342.1143,362.3279 z " style="fill: #ffffff; fill-opacity: 0.00; stroke: none;" id="ezcGraphPolygon_111"/><text id="ezcGraphTextBox_66_text" x="342.6143" text-length="6.2000px" y="359.8279" style="font-size: 10px; font-family: 'Arial'; fill: #2e3436; fill-opacity: 1.00; stroke: none;">6</text></g><g id="ezcGraphTextBox_68"><path d=" M 387.8286,372.2426 L 387.8286,360.7426 L 395.5286,360.7426 L 395.5286,372.2426 L 387.8286,372.2426 z " style="fill: #ffffff; fill-opacity: 0.00; stroke: none;" id="ezcGraphPolygon_112"/><text id="ezcGraphTextBox_68_text" x="388.3286" text-length="6.2000px" y="369.7426" style="font-size: 10px; font-family: 'Arial'; fill: #2e3436; fill-opacity: 1.00; stroke: none;">2</text></g><g id="ezcGraphTextBox_70"><path d=" M 433.5429,367.2852 L 433.5429,355.7852 L 441.2429,355.7852 L 441.2429,367.2852 L 433.5429,367.2852 z " style="fill: #ffffff; fill-opacity: 0.00; stroke: none;" id="ezcGraphPolygon_113"/><text id="ezcGraphTextBox_70_text" x="434.0429" text-length="6.2000px" y="364.7852" style="font-size: 10px; font-family: 'Arial'; fill: #2e3436; fill-opacity: 1.00; stroke: none;">4</text></g></g></svg>
