<?xml version="1.0"?>
<svg xmlns="http://www.w3.org/2000/svg" width="500" height="420" version="1.0" id="ezcGraph"><defs/><g id="ezcGraphChart" color-rendering="optimizeQuality" shape-rendering="geometricPrecision" text-rendering="optimizeLegibility"><path d=" M 0.0000,420.0000 L 0.0000,0.0000 L 500.0000,0.0000 L 500.0000,420.0000 L 0.0000,420.0000 z " style="fill: #eeeeec; fill-opacity: 1.00; stroke: none;" id="ezcGraphPolygon_1"/><path d=" M 0.0000,42.0000 L 0.0000,0.0000 L 500.0000,0.0000 L 500.0000,42.0000 L 0.0000,42.0000 z " style="fill: #000000; fill-opacity: 0.00; stroke: none;" id="ezcGraphPolygon_2"/><path d=" M 0.0000,420.0000 L 0.0000,42.0000 L 100.0000,42.0000 L 100.0000,420.0000 L 0.0000,420.0000 z " style="fill: #000000; fill-opacity: 0.00; stroke: none;" id="ezcGraphPolygon_4"/><path d=" M 2.0000,58.0000 L 2.0000,44.0000 L 16.0000,44.0000 L 16.0000,58.0000 L 2.0000,58.0000 z " style="fill: #3465a4; fill-opacity: 1.00; stroke: none; cursor: pointer;" id="ezcGraphPolygon_5" onclick="top.location = 'https://linux-hardware.org/?view=computers&amp;f=chipcard_model&amp;v=Alcor+Micro+AU9540+Smartcard+Reader&amp;p=-1'"/><path d=" M 2.0000,76.0000 L 2.0000,62.0000 L 16.0000,62.0000 L 16.0000,76.0000 L 2.0000,76.0000 z " style="fill: #4e9a06; fill-opacity: 1.00; stroke: none; cursor: pointer;" id="ezcGraphPolygon_7" onclick="top.location = 'https://linux-hardware.org/?view=computers&amp;f=chipcard_model&amp;v=Broadcom+BCM5880+Secure+Applications+Processor&amp;p=-1'"/><path d=" M 2.0000,94.0000 L 2.0000,80.0000 L 16.0000,80.0000 L 16.0000,94.0000 L 2.0000,94.0000 z " style="fill: #cc0000; fill-opacity: 1.00; stroke: none; cursor: pointer;" id="ezcGraphPolygon_9" onclick="top.location = 'https://linux-hardware.org/?view=computers&amp;f=chipcard_model&amp;v=Broadcom+BCM5880+Secure+Applications+Processor+with+fingerprint+swipe+sensor&amp;p=-1'"/><path d=" M 2.0000,112.0000 L 2.0000,98.0000 L 16.0000,98.0000 L 16.0000,112.0000 L 2.0000,112.0000 z " style="fill: #edd400; fill-opacity: 1.00; stroke: none; cursor: pointer;" id="ezcGraphPolygon_11" onclick="top.location = 'https://linux-hardware.org/?view=computers&amp;f=chipcard_model&amp;v=Broadcom+58200&amp;p=-1'"/><path d=" M 2.0000,130.0000 L 2.0000,116.0000 L 16.0000,116.0000 L 16.0000,130.0000 L 2.0000,130.0000 z " style="fill: #75505b; fill-opacity: 1.00; stroke: none; cursor: pointer;" id="ezcGraphPolygon_13" onclick="top.location = 'https://linux-hardware.org/?view=computers&amp;f=chipcard_model&amp;v=Broadcom+5880&amp;p=-1'"/><path d=" M 100.0000,382.2000 L 500.0000,382.2000" style="fill: none; stroke: #2e3436; stroke-width: 1; stroke-opacity: 1.00; stroke-linecap: round; stroke-linejoin: round;" id="ezcGraphLine_15"/><path d=" M 492.0000,378.2000 L 500.0000,382.2000 L 492.0000,386.2000 L 492.0000,378.2000 z " style="fill: #2e3436; fill-opacity: 1.00; stroke: none;" id="ezcGraphPolygon_16"/><path d=" M 204.0000,79.8000 L 204.0000,382.2000" style="fill: none; stroke: #000000; stroke-width: 1; stroke-opacity: 0.00; stroke-linecap: round; stroke-linejoin: round;" id="ezcGraphLine_19"/><path d=" M 204.0000,379.2000 L 204.0000,385.2000" style="fill: none; stroke: #2e3436; stroke-width: 1; stroke-opacity: 1.00; stroke-linecap: round; stroke-linejoin: round;" id="ezcGraphLine_20"/><path d=" M 268.0000,79.8000 L 268.0000,382.2000" style="fill: none; stroke: #000000; stroke-width: 1; stroke-opacity: 0.00; stroke-linecap: round; stroke-linejoin: round;" id="ezcGraphLine_22"/><path d=" M 268.0000,379.2000 L 268.0000,385.2000" style="fill: none; stroke: #2e3436; stroke-width: 1; stroke-opacity: 1.00; stroke-linecap: round; stroke-linejoin: round;" id="ezcGraphLine_23"/><path d=" M 332.0000,79.8000 L 332.0000,382.2000" style="fill: none; stroke: #000000; stroke-width: 1; stroke-opacity: 0.00; stroke-linecap: round; stroke-linejoin: round;" id="ezcGraphLine_25"/><path d=" M 332.0000,379.2000 L 332.0000,385.2000" style="fill: none; stroke: #2e3436; stroke-width: 1; stroke-opacity: 1.00; stroke-linecap: round; stroke-linejoin: round;" id="ezcGraphLine_26"/><path d=" M 396.0000,79.8000 L 396.0000,382.2000" style="fill: none; stroke: #000000; stroke-width: 1; stroke-opacity: 0.00; stroke-linecap: round; stroke-linejoin: round;" id="ezcGraphLine_28"/><path d=" M 396.0000,379.2000 L 396.0000,385.2000" style="fill: none; stroke: #2e3436; stroke-width: 1; stroke-opacity: 1.00; stroke-linecap: round; stroke-linejoin: round;" id="ezcGraphLine_29"/><path d=" M 460.0000,79.8000 L 460.0000,382.2000" style="fill: none; stroke: #000000; stroke-width: 1; stroke-opacity: 0.00; stroke-linecap: round; stroke-linejoin: round;" id="ezcGraphLine_31"/><path d=" M 460.0000,379.2000 L 460.0000,385.2000" style="fill: none; stroke: #2e3436; stroke-width: 1; stroke-opacity: 1.00; stroke-linecap: round; stroke-linejoin: round;" id="ezcGraphLine_32"/><path d=" M 140.0000,420.0000 L 140.0000,42.0000" style="fill: none; stroke: #2e3436; stroke-width: 1; stroke-opacity: 1.00; stroke-linecap: round; stroke-linejoin: round;" id="ezcGraphLine_33"/><path d=" M 136.0000,50.0000 L 140.0000,42.0000 L 144.0000,50.0000 L 136.0000,50.0000 z " style="fill: #2e3436; fill-opacity: 1.00; stroke: none;" id="ezcGraphPolygon_34"/><path d=" M 140.0000,231.0000 L 460.0000,231.0000" style="fill: none; stroke: #000000; stroke-width: 1; stroke-opacity: 0.00; stroke-linecap: round; stroke-linejoin: round;" id="ezcGraphLine_37"/><path d=" M 140.0000,231.0000 L 143.0000,231.0000" style="fill: none; stroke: #2e3436; stroke-width: 1; stroke-opacity: 1.00; stroke-linecap: round; stroke-linejoin: round;" id="ezcGraphLine_38"/><path d=" M 140.0000,79.8000 L 460.0000,79.8000" style="fill: none; stroke: #000000; stroke-width: 1; stroke-opacity: 0.00; stroke-linecap: round; stroke-linejoin: round;" id="ezcGraphLine_40"/><path d=" M 140.0000,79.8000 L 143.0000,79.8000" style="fill: none; stroke: #2e3436; stroke-width: 1; stroke-opacity: 1.00; stroke-linecap: round; stroke-linejoin: round;" id="ezcGraphLine_41"/><path d=" M 172.0000,326.2560 L 172.0000,326.2560" style="fill: none; stroke: #3465a4; stroke-width: 1; stroke-opacity: 1.00; stroke-linecap: round; stroke-linejoin: round;" id="ezcGraphLine_43"/><path d=" M 172.0000,326.2560 L 236.0000,265.7760" style="fill: none; stroke: #3465a4; stroke-width: 1; stroke-opacity: 1.00; stroke-linecap: round; stroke-linejoin: round;" id="ezcGraphLine_45"/><path d=" M 236.0000,265.7760 L 300.0000,305.3904" style="fill: none; stroke: #3465a4; stroke-width: 1; stroke-opacity: 1.00; stroke-linecap: round; stroke-linejoin: round;" id="ezcGraphLine_47"/><path d=" M 300.0000,305.3904 L 364.0000,276.0576" style="fill: none; stroke: #3465a4; stroke-width: 1; stroke-opacity: 1.00; stroke-linecap: round; stroke-linejoin: round;" id="ezcGraphLine_49"/><path d=" M 364.0000,276.0576 L 428.0000,268.4976" style="fill: none; stroke: #3465a4; stroke-width: 1; stroke-opacity: 1.00; stroke-linecap: round; stroke-linejoin: round;" id="ezcGraphLine_51"/><path d=" M 172.0000,191.6880 L 172.0000,191.6880" style="fill: none; stroke: #4e9a06; stroke-width: 1; stroke-opacity: 1.00; stroke-linecap: round; stroke-linejoin: round;" id="ezcGraphLine_53"/><path d=" M 172.0000,191.6880 L 236.0000,281.5008" style="fill: none; stroke: #4e9a06; stroke-width: 1; stroke-opacity: 1.00; stroke-linecap: round; stroke-linejoin: round;" id="ezcGraphLine_55"/><path d=" M 236.0000,281.5008 L 300.0000,248.5392" style="fill: none; stroke: #4e9a06; stroke-width: 1; stroke-opacity: 1.00; stroke-linecap: round; stroke-linejoin: round;" id="ezcGraphLine_57"/><path d=" M 300.0000,248.5392 L 364.0000,293.8992" style="fill: none; stroke: #4e9a06; stroke-width: 1; stroke-opacity: 1.00; stroke-linecap: round; stroke-linejoin: round;" id="ezcGraphLine_59"/><path d=" M 364.0000,293.8992 L 428.0000,308.7168" style="fill: none; stroke: #4e9a06; stroke-width: 1; stroke-opacity: 1.00; stroke-linecap: round; stroke-linejoin: round;" id="ezcGraphLine_61"/><path d=" M 172.0000,337.4448 L 172.0000,337.4448" style="fill: none; stroke: #cc0000; stroke-width: 1; stroke-opacity: 1.00; stroke-linecap: round; stroke-linejoin: round;" id="ezcGraphLine_63"/><path d=" M 172.0000,337.4448 L 236.0000,320.2080" style="fill: none; stroke: #cc0000; stroke-width: 1; stroke-opacity: 1.00; stroke-linecap: round; stroke-linejoin: round;" id="ezcGraphLine_65"/><path d=" M 236.0000,320.2080 L 300.0000,339.2592" style="fill: none; stroke: #cc0000; stroke-width: 1; stroke-opacity: 1.00; stroke-linecap: round; stroke-linejoin: round;" id="ezcGraphLine_67"/><path d=" M 300.0000,339.2592 L 364.0000,336.8400" style="fill: none; stroke: #cc0000; stroke-width: 1; stroke-opacity: 1.00; stroke-linecap: round; stroke-linejoin: round;" id="ezcGraphLine_69"/><path d=" M 364.0000,336.8400 L 428.0000,342.8880" style="fill: none; stroke: #cc0000; stroke-width: 1; stroke-opacity: 1.00; stroke-linecap: round; stroke-linejoin: round;" id="ezcGraphLine_71"/><path d=" M 300.0000,378.2688 L 300.0000,378.2688" style="fill: none; stroke: #edd400; stroke-width: 1; stroke-opacity: 1.00; stroke-linecap: round; stroke-linejoin: round;" id="ezcGraphLine_73"/><path d=" M 300.0000,378.2688 L 364.0000,363.1488" style="fill: none; stroke: #edd400; stroke-width: 1; stroke-opacity: 1.00; stroke-linecap: round; stroke-linejoin: round;" id="ezcGraphLine_75"/><path d=" M 364.0000,363.1488 L 428.0000,345.3072" style="fill: none; stroke: #edd400; stroke-width: 1; stroke-opacity: 1.00; stroke-linecap: round; stroke-linejoin: round;" id="ezcGraphLine_77"/><path d=" M 172.0000,371.0112 L 172.0000,371.0112" style="fill: none; stroke: #75505b; stroke-width: 1; stroke-opacity: 1.00; stroke-linecap: round; stroke-linejoin: round;" id="ezcGraphLine_79"/><path d=" M 172.0000,371.0112 L 236.0000,358.9152" style="fill: none; stroke: #75505b; stroke-width: 1; stroke-opacity: 1.00; stroke-linecap: round; stroke-linejoin: round;" id="ezcGraphLine_81"/><path d=" M 236.0000,358.9152 L 300.0000,337.1424" style="fill: none; stroke: #75505b; stroke-width: 1; stroke-opacity: 1.00; stroke-linecap: round; stroke-linejoin: round;" id="ezcGraphLine_83"/><path d=" M 300.0000,337.1424 L 364.0000,338.9568" style="fill: none; stroke: #75505b; stroke-width: 1; stroke-opacity: 1.00; stroke-linecap: round; stroke-linejoin: round;" id="ezcGraphLine_85"/><path d=" M 364.0000,338.9568 L 428.0000,343.1904" style="fill: none; stroke: #75505b; stroke-width: 1; stroke-opacity: 1.00; stroke-linecap: round; stroke-linejoin: round;" id="ezcGraphLine_87"/><path d=" M 169.0000,329.2560 L 169.0000,323.2560 L 175.0000,323.2560 L 175.0000,329.2560 L 169.0000,329.2560 z " style="fill: #3465a4; fill-opacity: 1.00; stroke: none; cursor: pointer;" id="ezcGraphPolygon_89" onclick="top.location = 'https://linux-hardware.org/?view=computers&amp;f=chipcard_model&amp;v=Alcor+Micro+AU9540+Smartcard+Reader&amp;p=-1&amp;p=45'"/><path d=" M 233.0000,268.7760 L 233.0000,262.7760 L 239.0000,262.7760 L 239.0000,268.7760 L 233.0000,268.7760 z " style="fill: #3465a4; fill-opacity: 1.00; stroke: none; cursor: pointer;" id="ezcGraphPolygon_90" onclick="top.location = 'https://linux-hardware.org/?view=computers&amp;f=chipcard_model&amp;v=Alcor+Micro+AU9540+Smartcard+Reader&amp;p=-1&amp;p=57'"/><path d=" M 297.0000,308.3904 L 297.0000,302.3904 L 303.0000,302.3904 L 303.0000,308.3904 L 297.0000,308.3904 z " style="fill: #3465a4; fill-opacity: 1.00; stroke: none; cursor: pointer;" id="ezcGraphPolygon_91" onclick="top.location = 'https://linux-hardware.org/?view=computers&amp;f=chipcard_model&amp;v=Alcor+Micro+AU9540+Smartcard+Reader&amp;p=-1&amp;p=69'"/><path d=" M 361.0000,279.0576 L 361.0000,273.0576 L 367.0000,273.0576 L 367.0000,279.0576 L 361.0000,279.0576 z " style="fill: #3465a4; fill-opacity: 1.00; stroke: none; cursor: pointer;" id="ezcGraphPolygon_92" onclick="top.location = 'https://linux-hardware.org/?view=computers&amp;f=chipcard_model&amp;v=Alcor+Micro+AU9540+Smartcard+Reader&amp;p=-1&amp;p=81'"/><path d=" M 425.0000,271.4976 L 425.0000,265.4976 L 431.0000,265.4976 L 431.0000,271.4976 L 425.0000,271.4976 z " style="fill: #3465a4; fill-opacity: 1.00; stroke: none; cursor: pointer;" id="ezcGraphPolygon_93" onclick="top.location = 'https://linux-hardware.org/?view=computers&amp;f=chipcard_model&amp;v=Alcor+Micro+AU9540+Smartcard+Reader&amp;p=-1&amp;p=93'"/><path d=" M 169.0000,194.6880 L 169.0000,188.6880 L 175.0000,188.6880 L 175.0000,194.6880 L 169.0000,194.6880 z " style="fill: #4e9a06; fill-opacity: 1.00; stroke: none; cursor: pointer;" id="ezcGraphPolygon_94" onclick="top.location = 'https://linux-hardware.org/?view=computers&amp;f=chipcard_model&amp;v=Broadcom+BCM5880+Secure+Applications+Processor&amp;p=-1&amp;p=45'"/><path d=" M 233.0000,284.5008 L 233.0000,278.5008 L 239.0000,278.5008 L 239.0000,284.5008 L 233.0000,284.5008 z " style="fill: #4e9a06; fill-opacity: 1.00; stroke: none; cursor: pointer;" id="ezcGraphPolygon_95" onclick="top.location = 'https://linux-hardware.org/?view=computers&amp;f=chipcard_model&amp;v=Broadcom+BCM5880+Secure+Applications+Processor&amp;p=-1&amp;p=57'"/><path d=" M 297.0000,251.5392 L 297.0000,245.5392 L 303.0000,245.5392 L 303.0000,251.5392 L 297.0000,251.5392 z " style="fill: #4e9a06; fill-opacity: 1.00; stroke: none; cursor: pointer;" id="ezcGraphPolygon_96" onclick="top.location = 'https://linux-hardware.org/?view=computers&amp;f=chipcard_model&amp;v=Broadcom+BCM5880+Secure+Applications+Processor&amp;p=-1&amp;p=69'"/><path d=" M 361.0000,296.8992 L 361.0000,290.8992 L 367.0000,290.8992 L 367.0000,296.8992 L 361.0000,296.8992 z " style="fill: #4e9a06; fill-opacity: 1.00; stroke: none; cursor: pointer;" id="ezcGraphPolygon_97" onclick="top.location = 'https://linux-hardware.org/?view=computers&amp;f=chipcard_model&amp;v=Broadcom+BCM5880+Secure+Applications+Processor&amp;p=-1&amp;p=81'"/><path d=" M 425.0000,311.7168 L 425.0000,305.7168 L 431.0000,305.7168 L 431.0000,311.7168 L 425.0000,311.7168 z " style="fill: #4e9a06; fill-opacity: 1.00; stroke: none; cursor: pointer;" id="ezcGraphPolygon_98" onclick="top.location = 'https://linux-hardware.org/?view=computers&amp;f=chipcard_model&amp;v=Broadcom+BCM5880+Secure+Applications+Processor&amp;p=-1&amp;p=93'"/><path d=" M 169.0000,340.4448 L 169.0000,334.4448 L 175.0000,334.4448 L 175.0000,340.4448 L 169.0000,340.4448 z " style="fill: #cc0000; fill-opacity: 1.00; stroke: none; cursor: pointer;" id="ezcGraphPolygon_99" onclick="top.location = 'https://linux-hardware.org/?view=computers&amp;f=chipcard_model&amp;v=Broadcom+BCM5880+Secure+Applications+Processor+with+fingerprint+swipe+sensor&amp;p=-1&amp;p=45'"/><path d=" M 233.0000,323.2080 L 233.0000,317.2080 L 239.0000,317.2080 L 239.0000,323.2080 L 233.0000,323.2080 z " style="fill: #cc0000; fill-opacity: 1.00; stroke: none; cursor: pointer;" id="ezcGraphPolygon_100" onclick="top.location = 'https://linux-hardware.org/?view=computers&amp;f=chipcard_model&amp;v=Broadcom+BCM5880+Secure+Applications+Processor+with+fingerprint+swipe+sensor&amp;p=-1&amp;p=57'"/><path d=" M 297.0000,342.2592 L 297.0000,336.2592 L 303.0000,336.2592 L 303.0000,342.2592 L 297.0000,342.2592 z " style="fill: #cc0000; fill-opacity: 1.00; stroke: none; cursor: pointer;" id="ezcGraphPolygon_101" onclick="top.location = 'https://linux-hardware.org/?view=computers&amp;f=chipcard_model&amp;v=Broadcom+BCM5880+Secure+Applications+Processor+with+fingerprint+swipe+sensor&amp;p=-1&amp;p=69'"/><path d=" M 361.0000,339.8400 L 361.0000,333.8400 L 367.0000,333.8400 L 367.0000,339.8400 L 361.0000,339.8400 z " style="fill: #cc0000; fill-opacity: 1.00; stroke: none; cursor: pointer;" id="ezcGraphPolygon_102" onclick="top.location = 'https://linux-hardware.org/?view=computers&amp;f=chipcard_model&amp;v=Broadcom+BCM5880+Secure+Applications+Processor+with+fingerprint+swipe+sensor&amp;p=-1&amp;p=81'"/><path d=" M 425.0000,345.8880 L 425.0000,339.8880 L 431.0000,339.8880 L 431.0000,345.8880 L 425.0000,345.8880 z " style="fill: #cc0000; fill-opacity: 1.00; stroke: none; cursor: pointer;" id="ezcGraphPolygon_103" onclick="top.location = 'https://linux-hardware.org/?view=computers&amp;f=chipcard_model&amp;v=Broadcom+BCM5880+Secure+Applications+Processor+with+fingerprint+swipe+sensor&amp;p=-1&amp;p=93'"/><path d=" M 297.0000,381.2688 L 297.0000,375.2688 L 303.0000,375.2688 L 303.0000,381.2688 L 297.0000,381.2688 z " style="fill: #edd400; fill-opacity: 1.00; stroke: none; cursor: pointer;" id="ezcGraphPolygon_104" onclick="top.location = 'https://linux-hardware.org/?view=computers&amp;f=chipcard_model&amp;v=Broadcom+58200&amp;p=-1&amp;p=69'"/><path d=" M 361.0000,366.1488 L 361.0000,360.1488 L 367.0000,360.1488 L 367.0000,366.1488 L 361.0000,366.1488 z " style="fill: #edd400; fill-opacity: 1.00; stroke: none; cursor: pointer;" id="ezcGraphPolygon_105" onclick="top.location = 'https://linux-hardware.org/?view=computers&amp;f=chipcard_model&amp;v=Broadcom+58200&amp;p=-1&amp;p=81'"/><path d=" M 425.0000,348.3072 L 425.0000,342.3072 L 431.0000,342.3072 L 431.0000,348.3072 L 425.0000,348.3072 z " style="fill: #edd400; fill-opacity: 1.00; stroke: none; cursor: pointer;" id="ezcGraphPolygon_106" onclick="top.location = 'https://linux-hardware.org/?view=computers&amp;f=chipcard_model&amp;v=Broadcom+58200&amp;p=-1&amp;p=93'"/><path d=" M 169.0000,374.0112 L 169.0000,368.0112 L 175.0000,368.0112 L 175.0000,374.0112 L 169.0000,374.0112 z " style="fill: #75505b; fill-opacity: 1.00; stroke: none; cursor: pointer;" id="ezcGraphPolygon_107" onclick="top.location = 'https://linux-hardware.org/?view=computers&amp;f=chipcard_model&amp;v=Broadcom+5880&amp;p=-1&amp;p=45'"/><path d=" M 233.0000,361.9152 L 233.0000,355.9152 L 239.0000,355.9152 L 239.0000,361.9152 L 233.0000,361.9152 z " style="fill: #75505b; fill-opacity: 1.00; stroke: none; cursor: pointer;" id="ezcGraphPolygon_108" onclick="top.location = 'https://linux-hardware.org/?view=computers&amp;f=chipcard_model&amp;v=Broadcom+5880&amp;p=-1&amp;p=57'"/><path d=" M 297.0000,340.1424 L 297.0000,334.1424 L 303.0000,334.1424 L 303.0000,340.1424 L 297.0000,340.1424 z " style="fill: #75505b; fill-opacity: 1.00; stroke: none; cursor: pointer;" id="ezcGraphPolygon_109" onclick="top.location = 'https://linux-hardware.org/?view=computers&amp;f=chipcard_model&amp;v=Broadcom+5880&amp;p=-1&amp;p=69'"/><path d=" M 361.0000,341.9568 L 361.0000,335.9568 L 367.0000,335.9568 L 367.0000,341.9568 L 361.0000,341.9568 z " style="fill: #75505b; fill-opacity: 1.00; stroke: none; cursor: pointer;" id="ezcGraphPolygon_110" onclick="top.location = 'https://linux-hardware.org/?view=computers&amp;f=chipcard_model&amp;v=Broadcom+5880&amp;p=-1&amp;p=81'"/><path d=" M 425.0000,346.1904 L 425.0000,340.1904 L 431.0000,340.1904 L 431.0000,346.1904 L 425.0000,346.1904 z " style="fill: #75505b; fill-opacity: 1.00; stroke: none; cursor: pointer;" id="ezcGraphPolygon_111" onclick="top.location = 'https://linux-hardware.org/?view=computers&amp;f=chipcard_model&amp;v=Broadcom+5880&amp;p=-1&amp;p=93'"/><g id="ezcGraphTextBox_3"><path d=" M 101.1000,42.0000 L 101.1000,0.5000 L 399.4000,0.5000 L 399.4000,42.0000 L 101.1000,42.0000 z " style="fill: #ffffff; fill-opacity: 0.00; stroke: none;" id="ezcGraphPolygon_112"/><text id="ezcGraphTextBox_3_text" x="101.6000" text-length="296.8000px" y="35.0000" style="font-size: 40px; font-family: 'Arial'; fill: #2e3436; fill-opacity: 1.00; stroke: none;">Chipcard Model</text></g><g id="ezcGraphTextBox_6" style=" cursor: pointer;" onclick="top.location = 'https://linux-hardware.org/?view=computers&amp;f=chipcard_model&amp;v=Alcor+Micro+AU9540+Smartcard+Reader&amp;p=-1'"><path d=" M 16.5000,56.0000 L 16.5000,46.5000 L 85.8400,46.5000 L 85.8400,56.0000 L 16.5000,56.0000 z " style="fill: #ffffff; fill-opacity: 0.00; stroke: none;" id="ezcGraphPolygon_113"/><text id="ezcGraphTextBox_6_text" x="17.0000" text-length="67.8400px" y="53.8000" style="font-size: 8px; font-family: 'Arial'; fill: #2e3436; fill-opacity: 1.00; stroke: none;">AU9540 Smartc...</text></g><g id="ezcGraphTextBox_8" style=" cursor: pointer;" onclick="top.location = 'https://linux-hardware.org/?view=computers&amp;f=chipcard_model&amp;v=Broadcom+BCM5880+Secure+Applications+Processor&amp;p=-1'"><path d=" M 16.5000,74.0000 L 16.5000,64.5000 L 85.8400,64.5000 L 85.8400,74.0000 L 16.5000,74.0000 z " style="fill: #ffffff; fill-opacity: 0.00; stroke: none;" id="ezcGraphPolygon_114"/><text id="ezcGraphTextBox_8_text" x="17.0000" text-length="67.8400px" y="71.8000" style="font-size: 8px; font-family: 'Arial'; fill: #2e3436; fill-opacity: 1.00; stroke: none;">BCM5880 Secur...</text></g><g id="ezcGraphTextBox_10" style=" cursor: pointer;" onclick="top.location = 'https://linux-hardware.org/?view=computers&amp;f=chipcard_model&amp;v=Broadcom+BCM5880+Secure+Applications+Processor+with+fingerprint+swipe+sensor&amp;p=-1'"><path d=" M 16.5000,92.0000 L 16.5000,82.5000 L 90.0800,82.5000 L 90.0800,92.0000 L 16.5000,92.0000 z " style="fill: #ffffff; fill-opacity: 0.00; stroke: none;" id="ezcGraphPolygon_115"/><text id="ezcGraphTextBox_10_text" x="17.0000" text-length="72.0800px" y="89.8000" style="font-size: 8px; font-family: 'Arial'; fill: #2e3436; fill-opacity: 1.00; stroke: none;">BCM5880 Secur... </text></g><g id="ezcGraphTextBox_12" style=" cursor: pointer;" onclick="top.location = 'https://linux-hardware.org/?view=computers&amp;f=chipcard_model&amp;v=Broadcom+58200&amp;p=-1'"><path d=" M 16.5000,110.0000 L 16.5000,100.5000 L 42.8000,100.5000 L 42.8000,110.0000 L 16.5000,110.0000 z " style="fill: #ffffff; fill-opacity: 0.00; stroke: none;" id="ezcGraphPolygon_116"/><text id="ezcGraphTextBox_12_text" x="17.0000" text-length="24.8000px" y="107.8000" style="font-size: 8px; font-family: 'Arial'; fill: #2e3436; fill-opacity: 1.00; stroke: none;">58200</text></g><g id="ezcGraphTextBox_14" style=" cursor: pointer;" onclick="top.location = 'https://linux-hardware.org/?view=computers&amp;f=chipcard_model&amp;v=Broadcom+5880&amp;p=-1'"><path d=" M 16.5000,128.0000 L 16.5000,118.5000 L 37.8400,118.5000 L 37.8400,128.0000 L 16.5000,128.0000 z " style="fill: #ffffff; fill-opacity: 0.00; stroke: none;" id="ezcGraphPolygon_117"/><text id="ezcGraphTextBox_14_text" x="17.0000" text-length="19.8400px" y="125.8000" style="font-size: 8px; font-family: 'Arial'; fill: #2e3436; fill-opacity: 1.00; stroke: none;">5880</text></g><g id="ezcGraphTextBox_17" transform="rotate( 0.00 493.0000 375.2000 )"><path d=" M 460.4000,381.2000 L 460.4000,365.7000 L 499.0000,365.7000 L 499.0000,381.2000 L 460.4000,381.2000 z " style="fill: #ffffff; fill-opacity: 0.00; stroke: none;" id="ezcGraphPolygon_118"/><text id="ezcGraphTextBox_17_text" x="460.9000" text-length="37.1000px" y="378.1000" style="font-size: 14px; font-family: 'Arial'; fill: #2e3436; fill-opacity: 1.00; stroke: none;">Time </text></g><g id="ezcGraphTextBox_18"><path d=" M 154.1400,413.3000 L 154.1400,383.7000 L 190.3600,383.7000 L 190.3600,413.3000 L 154.1400,413.3000 z " style="fill: #ffffff; fill-opacity: 0.00; stroke: none;" id="ezcGraphPolygon_119"/><text id="ezcGraphTextBox_18_text" x="160.8700" text-length="22.2600px" y="396.1000" style="font-size: 14px; font-family: 'Arial'; fill: #2e3436; fill-opacity: 1.00; stroke: none;">Sep</text><text id="ezcGraphTextBox_18_text" x="154.6400" text-length="34.7200px" y="411.5000" style="font-size: 14px; font-family: 'Arial'; fill: #2e3436; fill-opacity: 1.00; stroke: none;">2017</text></g><g id="ezcGraphTextBox_21"><path d=" M 218.1400,413.3000 L 218.1400,383.7000 L 254.3600,383.7000 L 254.3600,413.3000 L 218.1400,413.3000 z " style="fill: #ffffff; fill-opacity: 0.00; stroke: none;" id="ezcGraphPolygon_120"/><text id="ezcGraphTextBox_21_text" x="224.8700" text-length="22.2600px" y="396.1000" style="font-size: 14px; font-family: 'Arial'; fill: #2e3436; fill-opacity: 1.00; stroke: none;">Sep</text><text id="ezcGraphTextBox_21_text" x="218.6400" text-length="34.7200px" y="411.5000" style="font-size: 14px; font-family: 'Arial'; fill: #2e3436; fill-opacity: 1.00; stroke: none;">2018</text></g><g id="ezcGraphTextBox_24"><path d=" M 282.1400,413.3000 L 282.1400,383.7000 L 318.3600,383.7000 L 318.3600,413.3000 L 282.1400,413.3000 z " style="fill: #ffffff; fill-opacity: 0.00; stroke: none;" id="ezcGraphPolygon_121"/><text id="ezcGraphTextBox_24_text" x="288.8700" text-length="22.2600px" y="396.1000" style="font-size: 14px; font-family: 'Arial'; fill: #2e3436; fill-opacity: 1.00; stroke: none;">Sep</text><text id="ezcGraphTextBox_24_text" x="282.6400" text-length="34.7200px" y="411.5000" style="font-size: 14px; font-family: 'Arial'; fill: #2e3436; fill-opacity: 1.00; stroke: none;">2019</text></g><g id="ezcGraphTextBox_27"><path d=" M 346.1400,413.3000 L 346.1400,383.7000 L 382.3600,383.7000 L 382.3600,413.3000 L 346.1400,413.3000 z " style="fill: #ffffff; fill-opacity: 0.00; stroke: none;" id="ezcGraphPolygon_122"/><text id="ezcGraphTextBox_27_text" x="352.8700" text-length="22.2600px" y="396.1000" style="font-size: 14px; font-family: 'Arial'; fill: #2e3436; fill-opacity: 1.00; stroke: none;">Sep</text><text id="ezcGraphTextBox_27_text" x="346.6400" text-length="34.7200px" y="411.5000" style="font-size: 14px; font-family: 'Arial'; fill: #2e3436; fill-opacity: 1.00; stroke: none;">2020</text></g><g id="ezcGraphTextBox_30"><path d=" M 410.1400,413.3000 L 410.1400,383.7000 L 446.3600,383.7000 L 446.3600,413.3000 L 410.1400,413.3000 z " style="fill: #ffffff; fill-opacity: 0.00; stroke: none;" id="ezcGraphPolygon_123"/><text id="ezcGraphTextBox_30_text" x="416.8700" text-length="22.2600px" y="396.1000" style="font-size: 14px; font-family: 'Arial'; fill: #2e3436; fill-opacity: 1.00; stroke: none;">Sep</text><text id="ezcGraphTextBox_30_text" x="410.6400" text-length="34.7200px" y="411.5000" style="font-size: 14px; font-family: 'Arial'; fill: #2e3436; fill-opacity: 1.00; stroke: none;">2021</text></g><g id="ezcGraphTextBox_35" transform="rotate( 0.00 147.0000 49.0000 )"><path d=" M 141.5000,59.0000 L 141.5000,43.5000 L 395.2800,43.5000 L 395.2800,59.0000 L 141.5000,59.0000 z " style="fill: #ffffff; fill-opacity: 0.00; stroke: none;" id="ezcGraphPolygon_124"/><text id="ezcGraphTextBox_35_text" x="142.0000" text-length="252.2800px" y="55.9000" style="font-size: 14px; font-family: 'Arial'; fill: #2e3436; fill-opacity: 1.00; stroke: none;">Computers by "Chipcard Model" in %</text></g><g id="ezcGraphTextBox_36"><path d=" M 128.8200,381.2000 L 128.8200,365.7000 L 139.0000,365.7000 L 139.0000,381.2000 L 128.8200,381.2000 z " style="fill: #ffffff; fill-opacity: 0.00; stroke: none;" id="ezcGraphPolygon_125"/><text id="ezcGraphTextBox_36_text" x="129.3200" text-length="8.6800px" y="378.1000" style="font-size: 14px; font-family: 'Arial'; fill: #2e3436; fill-opacity: 1.00; stroke: none;">0</text></g><g id="ezcGraphTextBox_39"><path d=" M 120.1400,230.0000 L 120.1400,214.5000 L 139.0000,214.5000 L 139.0000,230.0000 L 120.1400,230.0000 z " style="fill: #ffffff; fill-opacity: 0.00; stroke: none;" id="ezcGraphPolygon_126"/><text id="ezcGraphTextBox_39_text" x="120.6400" text-length="17.3600px" y="226.9000" style="font-size: 14px; font-family: 'Arial'; fill: #2e3436; fill-opacity: 1.00; stroke: none;">50</text></g><g id="ezcGraphTextBox_42"><path d=" M 111.4600,96.8000 L 111.4600,81.3000 L 139.0000,81.3000 L 139.0000,96.8000 L 111.4600,96.8000 z " style="fill: #ffffff; fill-opacity: 0.00; stroke: none;" id="ezcGraphPolygon_127"/><text id="ezcGraphTextBox_42_text" x="111.9600" text-length="26.0400px" y="93.7000" style="font-size: 14px; font-family: 'Arial'; fill: #2e3436; fill-opacity: 1.00; stroke: none;">100</text></g><g id="ezcGraphTextBox_44"><path d=" M 159.1000,321.2560 L 159.1000,309.7560 L 185.4000,309.7560 L 185.4000,321.2560 L 159.1000,321.2560 z " style="fill: #ffffff; fill-opacity: 0.00; stroke: none;" id="ezcGraphPolygon_128"/><text id="ezcGraphTextBox_44_text" x="159.6000" text-length="24.8000px" y="318.7560" style="font-size: 10px; font-family: 'Arial'; fill: #2e3436; fill-opacity: 1.00; stroke: none;">18.5</text></g><g id="ezcGraphTextBox_46"><path d=" M 223.1000,260.7760 L 223.1000,249.2760 L 249.4000,249.2760 L 249.4000,260.7760 L 223.1000,260.7760 z " style="fill: #ffffff; fill-opacity: 0.00; stroke: none;" id="ezcGraphPolygon_129"/><text id="ezcGraphTextBox_46_text" x="223.6000" text-length="24.8000px" y="258.2760" style="font-size: 10px; font-family: 'Arial'; fill: #2e3436; fill-opacity: 1.00; stroke: none;">38.5</text></g><g id="ezcGraphTextBox_48"><path d=" M 287.1000,300.3904 L 287.1000,288.8904 L 313.4000,288.8904 L 313.4000,300.3904 L 287.1000,300.3904 z " style="fill: #ffffff; fill-opacity: 0.00; stroke: none;" id="ezcGraphPolygon_130"/><text id="ezcGraphTextBox_48_text" x="287.6000" text-length="24.8000px" y="297.8904" style="font-size: 10px; font-family: 'Arial'; fill: #2e3436; fill-opacity: 1.00; stroke: none;">25.4</text></g><g id="ezcGraphTextBox_50"><path d=" M 351.1000,271.0576 L 351.1000,259.5576 L 377.4000,259.5576 L 377.4000,271.0576 L 351.1000,271.0576 z " style="fill: #ffffff; fill-opacity: 0.00; stroke: none;" id="ezcGraphPolygon_131"/><text id="ezcGraphTextBox_50_text" x="351.6000" text-length="24.8000px" y="268.5576" style="font-size: 10px; font-family: 'Arial'; fill: #2e3436; fill-opacity: 1.00; stroke: none;">35.1</text></g><g id="ezcGraphTextBox_52"><path d=" M 415.1000,263.4976 L 415.1000,251.9976 L 441.4000,251.9976 L 441.4000,263.4976 L 415.1000,263.4976 z " style="fill: #ffffff; fill-opacity: 0.00; stroke: none;" id="ezcGraphPolygon_132"/><text id="ezcGraphTextBox_52_text" x="415.6000" text-length="24.8000px" y="260.9976" style="font-size: 10px; font-family: 'Arial'; fill: #2e3436; fill-opacity: 1.00; stroke: none;">37.6</text></g><g id="ezcGraphTextBox_54"><path d=" M 165.3000,186.6880 L 165.3000,175.1880 L 179.2000,175.1880 L 179.2000,186.6880 L 165.3000,186.6880 z " style="fill: #ffffff; fill-opacity: 0.00; stroke: none;" id="ezcGraphPolygon_133"/><text id="ezcGraphTextBox_54_text" x="165.8000" text-length="12.4000px" y="184.1880" style="font-size: 10px; font-family: 'Arial'; fill: #2e3436; fill-opacity: 1.00; stroke: none;">63</text></g><g id="ezcGraphTextBox_56"><path d=" M 223.1000,276.5008 L 223.1000,265.0008 L 249.4000,265.0008 L 249.4000,276.5008 L 223.1000,276.5008 z " style="fill: #ffffff; fill-opacity: 0.00; stroke: none;" id="ezcGraphPolygon_134"/><text id="ezcGraphTextBox_56_text" x="223.6000" text-length="24.8000px" y="274.0008" style="font-size: 10px; font-family: 'Arial'; fill: #2e3436; fill-opacity: 1.00; stroke: none;">33.3</text></g><g id="ezcGraphTextBox_58"><path d=" M 287.1000,243.5392 L 287.1000,232.0392 L 313.4000,232.0392 L 313.4000,243.5392 L 287.1000,243.5392 z " style="fill: #ffffff; fill-opacity: 0.00; stroke: none;" id="ezcGraphPolygon_135"/><text id="ezcGraphTextBox_58_text" x="287.6000" text-length="24.8000px" y="241.0392" style="font-size: 10px; font-family: 'Arial'; fill: #2e3436; fill-opacity: 1.00; stroke: none;">44.2</text></g><g id="ezcGraphTextBox_60"><path d=" M 351.1000,288.8992 L 351.1000,277.3992 L 377.4000,277.3992 L 377.4000,288.8992 L 351.1000,288.8992 z " style="fill: #ffffff; fill-opacity: 0.00; stroke: none;" id="ezcGraphPolygon_136"/><text id="ezcGraphTextBox_60_text" x="351.6000" text-length="24.8000px" y="286.3992" style="font-size: 10px; font-family: 'Arial'; fill: #2e3436; fill-opacity: 1.00; stroke: none;">29.2</text></g><g id="ezcGraphTextBox_62"><path d=" M 415.1000,303.7168 L 415.1000,292.2168 L 441.4000,292.2168 L 441.4000,303.7168 L 415.1000,303.7168 z " style="fill: #ffffff; fill-opacity: 0.00; stroke: none;" id="ezcGraphPolygon_137"/><text id="ezcGraphTextBox_62_text" x="415.6000" text-length="24.8000px" y="301.2168" style="font-size: 10px; font-family: 'Arial'; fill: #2e3436; fill-opacity: 1.00; stroke: none;">24.3</text></g><g id="ezcGraphTextBox_64"><path d=" M 159.1000,332.4448 L 159.1000,320.9448 L 185.4000,320.9448 L 185.4000,332.4448 L 159.1000,332.4448 z " style="fill: #ffffff; fill-opacity: 0.00; stroke: none;" id="ezcGraphPolygon_138"/><text id="ezcGraphTextBox_64_text" x="159.6000" text-length="24.8000px" y="329.9448" style="font-size: 10px; font-family: 'Arial'; fill: #2e3436; fill-opacity: 1.00; stroke: none;">14.8</text></g><g id="ezcGraphTextBox_66"><path d=" M 223.1000,315.2080 L 223.1000,303.7080 L 249.4000,303.7080 L 249.4000,315.2080 L 223.1000,315.2080 z " style="fill: #ffffff; fill-opacity: 0.00; stroke: none;" id="ezcGraphPolygon_139"/><text id="ezcGraphTextBox_66_text" x="223.6000" text-length="24.8000px" y="312.7080" style="font-size: 10px; font-family: 'Arial'; fill: #2e3436; fill-opacity: 1.00; stroke: none;">20.5</text></g><g id="ezcGraphTextBox_68"><path d=" M 287.1000,334.2592 L 287.1000,322.7592 L 313.4000,322.7592 L 313.4000,334.2592 L 287.1000,334.2592 z " style="fill: #ffffff; fill-opacity: 0.00; stroke: none;" id="ezcGraphPolygon_140"/><text id="ezcGraphTextBox_68_text" x="287.6000" text-length="24.8000px" y="331.7592" style="font-size: 10px; font-family: 'Arial'; fill: #2e3436; fill-opacity: 1.00; stroke: none;">14.2</text></g><g id="ezcGraphTextBox_70"><path d=" M 357.3000,331.8400 L 357.3000,320.3400 L 371.2000,320.3400 L 371.2000,331.8400 L 357.3000,331.8400 z " style="fill: #ffffff; fill-opacity: 0.00; stroke: none;" id="ezcGraphPolygon_141"/><text id="ezcGraphTextBox_70_text" x="357.8000" text-length="12.4000px" y="329.3400" style="font-size: 10px; font-family: 'Arial'; fill: #2e3436; fill-opacity: 1.00; stroke: none;">15</text></g><g id="ezcGraphTextBox_72"><path d=" M 421.3000,337.8880 L 421.3000,326.3880 L 435.2000,326.3880 L 435.2000,337.8880 L 421.3000,337.8880 z " style="fill: #ffffff; fill-opacity: 0.00; stroke: none;" id="ezcGraphPolygon_142"/><text id="ezcGraphTextBox_72_text" x="421.8000" text-length="12.4000px" y="335.3880" style="font-size: 10px; font-family: 'Arial'; fill: #2e3436; fill-opacity: 1.00; stroke: none;">13</text></g><g id="ezcGraphTextBox_74"><path d=" M 290.2000,373.2688 L 290.2000,361.7688 L 310.3000,361.7688 L 310.3000,373.2688 L 290.2000,373.2688 z " style="fill: #ffffff; fill-opacity: 0.00; stroke: none;" id="ezcGraphPolygon_143"/><text id="ezcGraphTextBox_74_text" x="290.7000" text-length="18.6000px" y="370.7688" style="font-size: 10px; font-family: 'Arial'; fill: #2e3436; fill-opacity: 1.00; stroke: none;">1.3</text></g><g id="ezcGraphTextBox_76"><path d=" M 354.2000,358.1488 L 354.2000,346.6488 L 374.3000,346.6488 L 374.3000,358.1488 L 354.2000,358.1488 z " style="fill: #ffffff; fill-opacity: 0.00; stroke: none;" id="ezcGraphPolygon_144"/><text id="ezcGraphTextBox_76_text" x="354.7000" text-length="18.6000px" y="355.6488" style="font-size: 10px; font-family: 'Arial'; fill: #2e3436; fill-opacity: 1.00; stroke: none;">6.3</text></g><g id="ezcGraphTextBox_78"><path d=" M 415.1000,340.3072 L 415.1000,328.8072 L 441.4000,328.8072 L 441.4000,340.3072 L 415.1000,340.3072 z " style="fill: #ffffff; fill-opacity: 0.00; stroke: none;" id="ezcGraphPolygon_145"/><text id="ezcGraphTextBox_78_text" x="415.6000" text-length="24.8000px" y="337.8072" style="font-size: 10px; font-family: 'Arial'; fill: #2e3436; fill-opacity: 1.00; stroke: none;">12.2</text></g><g id="ezcGraphTextBox_80"><path d=" M 162.2000,366.0112 L 162.2000,354.5112 L 182.3000,354.5112 L 182.3000,366.0112 L 162.2000,366.0112 z " style="fill: #ffffff; fill-opacity: 0.00; stroke: none;" id="ezcGraphPolygon_146"/><text id="ezcGraphTextBox_80_text" x="162.7000" text-length="18.6000px" y="363.5112" style="font-size: 10px; font-family: 'Arial'; fill: #2e3436; fill-opacity: 1.00; stroke: none;">3.7</text></g><g id="ezcGraphTextBox_82"><path d=" M 226.2000,353.9152 L 226.2000,342.4152 L 246.3000,342.4152 L 246.3000,353.9152 L 226.2000,353.9152 z " style="fill: #ffffff; fill-opacity: 0.00; stroke: none;" id="ezcGraphPolygon_147"/><text id="ezcGraphTextBox_82_text" x="226.7000" text-length="18.6000px" y="351.4152" style="font-size: 10px; font-family: 'Arial'; fill: #2e3436; fill-opacity: 1.00; stroke: none;">7.7</text></g><g id="ezcGraphTextBox_84"><path d=" M 287.1000,332.1424 L 287.1000,320.6424 L 313.4000,320.6424 L 313.4000,332.1424 L 287.1000,332.1424 z " style="fill: #ffffff; fill-opacity: 0.00; stroke: none;" id="ezcGraphPolygon_148"/><text id="ezcGraphTextBox_84_text" x="287.6000" text-length="24.8000px" y="329.6424" style="font-size: 10px; font-family: 'Arial'; fill: #2e3436; fill-opacity: 1.00; stroke: none;">14.9</text></g><g id="ezcGraphTextBox_86"><path d=" M 351.1000,333.9568 L 351.1000,322.4568 L 377.4000,322.4568 L 377.4000,333.9568 L 351.1000,333.9568 z " style="fill: #ffffff; fill-opacity: 0.00; stroke: none;" id="ezcGraphPolygon_149"/><text id="ezcGraphTextBox_86_text" x="351.6000" text-length="24.8000px" y="331.4568" style="font-size: 10px; font-family: 'Arial'; fill: #2e3436; fill-opacity: 1.00; stroke: none;">14.3</text></g><g id="ezcGraphTextBox_88"><path d=" M 415.1000,338.1904 L 415.1000,326.6904 L 441.4000,326.6904 L 441.4000,338.1904 L 415.1000,338.1904 z " style="fill: #ffffff; fill-opacity: 0.00; stroke: none;" id="ezcGraphPolygon_150"/><text id="ezcGraphTextBox_88_text" x="415.6000" text-length="24.8000px" y="335.6904" style="font-size: 10px; font-family: 'Arial'; fill: #2e3436; fill-opacity: 1.00; stroke: none;">12.9</text></g></g></svg>
