<?xml version="1.0"?>
<svg xmlns="http://www.w3.org/2000/svg" width="500" height="420" version="1.0" id="ezcGraph"><defs/><g id="ezcGraphChart" color-rendering="optimizeQuality" shape-rendering="geometricPrecision" text-rendering="optimizeLegibility"><path d=" M 0.0000,420.0000 L 0.0000,0.0000 L 500.0000,0.0000 L 500.0000,420.0000 L 0.0000,420.0000 z " style="fill: #eeeeec; fill-opacity: 1.00; stroke: none;" id="ezcGraphPolygon_1"/><path d=" M 0.0000,42.0000 L 0.0000,0.0000 L 500.0000,0.0000 L 500.0000,42.0000 L 0.0000,42.0000 z " style="fill: #000000; fill-opacity: 0.00; stroke: none;" id="ezcGraphPolygon_2"/><path d="M 262.48,231.79 L 374.98,231.79 A 112.50,112.50 0 0,1 374.09,245.91 z" style="fill: #3465a4; fill-opacity: 1.00; stroke: none; cursor: pointer;" id="ezcGraphCircleSector_4" onclick="top.location = 'https://linux-hardware.org/?view=computers&amp;f=memory_model&amp;v=&amp;p=-1&amp;c=USA'"/><path d="M 270.41,232.29 L 374.48,232.29 A 112.00,112.00 0 0,1 373.65,245.35 z" style="fill: none; stroke: #1a3352; stroke-width: 1; stroke-opacity: 1.00; stroke-linecap: round; stroke-linejoin: round;" id="ezcGraphCircleSector_5"/><path d="M 250.00,231.00 L 361.61,245.12 A 112.50,112.50 0 0,1 360.27,253.27 z" style="fill: #4e9a06; fill-opacity: 1.00; stroke: none; cursor: pointer;" id="ezcGraphCircleSector_6" onclick="top.location = 'https://linux-hardware.org/?view=computers&amp;f=memory_model&amp;v=Unknown+%28ABCD%29+RAM+123456789012345678+2GB+SODIMM+LPDDR4+2400MT%2Fs&amp;p=-1&amp;c=USA'"/><path d="M 263.44,233.21 L 361.05,245.56 A 112.00,112.00 0 0,1 359.88,252.68 z" style="fill: none; stroke: #274d03; stroke-width: 1; stroke-opacity: 1.00; stroke-linecap: round; stroke-linejoin: round;" id="ezcGraphCircleSector_7"/><path d="M 250.00,231.00 L 360.27,253.27 A 112.50,112.50 0 0,1 358.65,260.16 z" style="fill: #cc0000; fill-opacity: 1.00; stroke: none; cursor: pointer;" id="ezcGraphCircleSector_8" onclick="top.location = 'https://linux-hardware.org/?view=computers&amp;f=memory_model&amp;v=Samsung+Electronics+RAM+M471B5273CH0-CH9+4GB+SODIMM+DDR3+1334MT%2Fs&amp;p=-1&amp;c=USA'"/><path d="M 265.47,234.63 L 359.68,253.66 A 112.00,112.00 0 0,1 358.30,259.55 z" style="fill: none; stroke: #660000; stroke-width: 1; stroke-opacity: 1.00; stroke-linecap: round; stroke-linejoin: round;" id="ezcGraphCircleSector_9"/><path d="M 250.00,231.00 L 358.65,260.16 A 112.50,112.50 0 0,1 356.98,265.82 z" style="fill: #edd400; fill-opacity: 1.00; stroke: none; cursor: pointer;" id="ezcGraphCircleSector_10" onclick="top.location = 'https://linux-hardware.org/?view=computers&amp;f=memory_model&amp;v=Samsung+Electronics+RAM+M471A5244CB0-CTD+4GB+SODIMM+DDR4+3266MT%2Fs&amp;p=-1&amp;c=USA'"/><path d="M 268.28,236.42 L 358.04,260.52 A 112.00,112.00 0 0,1 356.65,265.19 z" style="fill: none; stroke: #776a00; stroke-width: 1; stroke-opacity: 1.00; stroke-linecap: round; stroke-linejoin: round;" id="ezcGraphCircleSector_11"/><path d="M 250.00,231.00 L 356.98,265.82 A 112.50,112.50 0 0,1 355.00,271.38 z" style="fill: #75505b; fill-opacity: 1.00; stroke: none; cursor: pointer;" id="ezcGraphCircleSector_12" onclick="top.location = 'https://linux-hardware.org/?view=computers&amp;f=memory_model&amp;v=SK+hynix+RAM+HMT351S6CFR8C-PB+4GB+SODIMM+DDR3+1600MT%2Fs&amp;p=-1&amp;c=USA'"/><path d="M 267.97,237.38 L 356.35,266.14 A 112.00,112.00 0 0,1 354.72,270.73 z" style="fill: none; stroke: #3b282e; stroke-width: 1; stroke-opacity: 1.00; stroke-linecap: round; stroke-linejoin: round;" id="ezcGraphCircleSector_13"/><path d="M 250.00,231.00 L 355.00,271.38 A 112.50,112.50 0 1,1 362.50,231.00 z" style="fill: #f57900; fill-opacity: 1.00; stroke: none;" id="ezcGraphCircleSector_14"/><path d="M 247.31,230.50 L 354.36,271.67 A 112.00,112.00 0 1,1 362.00,230.50 z" style="fill: none; stroke: #7b3d00; stroke-width: 1; stroke-opacity: 1.00; stroke-linecap: round; stroke-linejoin: round;" id="ezcGraphCircleSector_15"/><path d=" M 168.0667,215.7886 L 121.1342,208.0000" style="fill: none; stroke: #000000; stroke-width: 1; stroke-opacity: 1.00; stroke-linecap: round; stroke-linejoin: round;" id="ezcGraphLine_16"/><ellipse cx="168.0667" cy="215.7886" rx="3.0000" ry="3.0000" style="fill: #000000; fill-opacity: 1.00; stroke: none;" id="ezcGraphCircle_17"/><ellipse cx="121.1342" cy="208.0000" rx="3.0000" ry="3.0000" style="fill: #000000; fill-opacity: 1.00; stroke: none;" id="ezcGraphCircle_18"/><path d=" M 345.6436,237.0275 L 380.7437,239.0000" style="fill: none; stroke: #000000; stroke-width: 1; stroke-opacity: 1.00; stroke-linecap: round; stroke-linejoin: round;" id="ezcGraphLine_20"/><ellipse cx="345.6436" cy="237.0275" rx="3.0000" ry="3.0000" style="fill: #000000; fill-opacity: 1.00; stroke: none;" id="ezcGraphCircle_21"/><ellipse cx="380.7437" cy="239.0000" rx="3.0000" ry="3.0000" style="fill: #000000; fill-opacity: 1.00; stroke: none;" id="ezcGraphCircle_22"/><path d=" M 332.2343,244.4893 L 373.3712,274.0000" style="fill: none; stroke: #000000; stroke-width: 1; stroke-opacity: 1.00; stroke-linecap: round; stroke-linejoin: round;" id="ezcGraphLine_24"/><ellipse cx="332.2343" cy="244.4893" rx="3.0000" ry="3.0000" style="fill: #000000; fill-opacity: 1.00; stroke: none;" id="ezcGraphCircle_25"/><ellipse cx="373.3712" cy="274.0000" rx="3.0000" ry="3.0000" style="fill: #000000; fill-opacity: 1.00; stroke: none;" id="ezcGraphCircle_26"/><path d=" M 331.1243,250.0604 L 353.6780,309.0000" style="fill: none; stroke: #000000; stroke-width: 1; stroke-opacity: 1.00; stroke-linecap: round; stroke-linejoin: round;" id="ezcGraphLine_28"/><ellipse cx="331.1243" cy="250.0604" rx="3.0000" ry="3.0000" style="fill: #000000; fill-opacity: 1.00; stroke: none;" id="ezcGraphCircle_29"/><ellipse cx="353.6780" cy="309.0000" rx="3.0000" ry="3.0000" style="fill: #000000; fill-opacity: 1.00; stroke: none;" id="ezcGraphCircle_30"/><path d=" M 329.8903,254.7064 L 309.4416,344.0000" style="fill: none; stroke: #000000; stroke-width: 1; stroke-opacity: 1.00; stroke-linecap: round; stroke-linejoin: round;" id="ezcGraphLine_32"/><ellipse cx="329.8903" cy="254.7064" rx="3.0000" ry="3.0000" style="fill: #000000; fill-opacity: 1.00; stroke: none;" id="ezcGraphCircle_33"/><ellipse cx="309.4416" cy="344.0000" rx="3.0000" ry="3.0000" style="fill: #000000; fill-opacity: 1.00; stroke: none;" id="ezcGraphCircle_34"/><path d=" M 328.5376,258.8619 L 328.5376,379.0000" style="fill: none; stroke: #000000; stroke-width: 1; stroke-opacity: 1.00; stroke-linecap: round; stroke-linejoin: round;" id="ezcGraphLine_36"/><ellipse cx="328.5376" cy="258.8619" rx="3.0000" ry="3.0000" style="fill: #000000; fill-opacity: 1.00; stroke: none;" id="ezcGraphCircle_37"/><ellipse cx="328.5376" cy="379.0000" rx="3.0000" ry="3.0000" style="fill: #000000; fill-opacity: 1.00; stroke: none;" id="ezcGraphCircle_38"/><g id="ezcGraphTextBox_3"><path d=" M 122.3000,42.0000 L 122.3000,0.5000 L 378.2000,0.5000 L 378.2000,42.0000 L 122.3000,42.0000 z " style="fill: #ffffff; fill-opacity: 0.00; stroke: none;" id="ezcGraphPolygon_40"/><text id="ezcGraphTextBox_3_text" x="122.8000" text-length="254.4000px" y="35.0000" style="font-size: 40px; font-family: 'Arial'; fill: #2e3436; fill-opacity: 1.00; stroke: none;">Memory Model</text></g><g id="ezcGraphTextBox_19"><path d=" M 62.6942,223.0500 L 62.6942,193.4500 L 116.1342,193.4500 L 116.1342,223.0500 L 62.6942,223.0500 z " style="fill: #ffffff; fill-opacity: 0.00; stroke: none;" id="ezcGraphPolygon_41"/><text id="ezcGraphTextBox_19_text" x="70.6142" text-length="44.5200px" y="205.8500" style="font-size: 14px; font-family: 'Arial'; fill: #2e3436; fill-opacity: 1.00; stroke: none;">Others</text><text id="ezcGraphTextBox_19_text" x="63.1942" text-length="51.9400px" y="221.2500" style="font-size: 14px; font-family: 'Arial'; fill: #2e3436; fill-opacity: 1.00; stroke: none;">(94.2%)</text></g><g id="ezcGraphTextBox_23" style=" cursor: pointer;" onclick="top.location = 'https://linux-hardware.org/?view=computers&amp;f=memory_model&amp;v=&amp;p=-1&amp;c=USA'"><path d=" M 386.2437,254.0500 L 386.2437,224.4500 L 469.3637,224.4500 L 469.3637,254.0500 L 386.2437,254.0500 z " style="fill: #ffffff; fill-opacity: 0.00; stroke: none;" id="ezcGraphPolygon_42"/><text id="ezcGraphTextBox_23_text" x="386.7437" text-length="81.6200px" y="236.8500" style="font-size: 14px; font-family: 'Arial'; fill: #2e3436; fill-opacity: 1.00; stroke: none;">Module 16GB</text><text id="ezcGraphTextBox_23_text" x="386.7437" text-length="81.6200px" y="252.2500" style="font-size: 14px; font-family: 'Arial'; fill: #2e3436; fill-opacity: 1.00; stroke: none;">R... (2.0%)</text></g><g id="ezcGraphTextBox_27" style=" cursor: pointer;" onclick="top.location = 'https://linux-hardware.org/?view=computers&amp;f=memory_model&amp;v=Unknown+%28ABCD%29+RAM+123456789012345678+2GB+SODIMM+LPDDR4+2400MT%2Fs&amp;p=-1&amp;c=USA'"><path d=" M 378.8712,289.0500 L 378.8712,259.4500 L 499.0912,259.4500 L 499.0912,289.0500 L 378.8712,289.0500 z " style="fill: #ffffff; fill-opacity: 0.00; stroke: none;" id="ezcGraphPolygon_43"/><text id="ezcGraphTextBox_27_text" x="379.3712" text-length="118.7200px" y="271.8500" style="font-size: 14px; font-family: 'Arial'; fill: #2e3436; fill-opacity: 1.00; stroke: none;">1234567890123...</text><text id="ezcGraphTextBox_27_text" x="379.3712" text-length="44.5200px" y="287.2500" style="font-size: 14px; font-family: 'Arial'; fill: #2e3436; fill-opacity: 1.00; stroke: none;">(1.2%)</text></g><g id="ezcGraphTextBox_31" style=" cursor: pointer;" onclick="top.location = 'https://linux-hardware.org/?view=computers&amp;f=memory_model&amp;v=Samsung+Electronics+RAM+M471B5273CH0-CH9+4GB+SODIMM+DDR3+1334MT%2Fs&amp;p=-1&amp;c=USA'"><path d=" M 359.1780,324.0500 L 359.1780,294.4500 L 479.3980,294.4500 L 479.3980,324.0500 L 359.1780,324.0500 z " style="fill: #ffffff; fill-opacity: 0.00; stroke: none;" id="ezcGraphPolygon_44"/><text id="ezcGraphTextBox_31_text" x="359.6780" text-length="118.7200px" y="306.8500" style="font-size: 14px; font-family: 'Arial'; fill: #2e3436; fill-opacity: 1.00; stroke: none;">M471B5273CH0-...</text><text id="ezcGraphTextBox_31_text" x="359.6780" text-length="44.5200px" y="322.2500" style="font-size: 14px; font-family: 'Arial'; fill: #2e3436; fill-opacity: 1.00; stroke: none;">(1.0%)</text></g><g id="ezcGraphTextBox_35" style=" cursor: pointer;" onclick="top.location = 'https://linux-hardware.org/?view=computers&amp;f=memory_model&amp;v=Samsung+Electronics+RAM+M471A5244CB0-CTD+4GB+SODIMM+DDR4+3266MT%2Fs&amp;p=-1&amp;c=USA'"><path d=" M 314.9416,359.0500 L 314.9416,329.4500 L 435.1616,329.4500 L 435.1616,359.0500 L 314.9416,359.0500 z " style="fill: #ffffff; fill-opacity: 0.00; stroke: none;" id="ezcGraphPolygon_45"/><text id="ezcGraphTextBox_35_text" x="315.4416" text-length="118.7200px" y="341.8500" style="font-size: 14px; font-family: 'Arial'; fill: #2e3436; fill-opacity: 1.00; stroke: none;">M471A5244CB0-...</text><text id="ezcGraphTextBox_35_text" x="315.4416" text-length="44.5200px" y="357.2500" style="font-size: 14px; font-family: 'Arial'; fill: #2e3436; fill-opacity: 1.00; stroke: none;">(0.8%)</text></g><g id="ezcGraphTextBox_39" style=" cursor: pointer;" onclick="top.location = 'https://linux-hardware.org/?view=computers&amp;f=memory_model&amp;v=SK+hynix+RAM+HMT351S6CFR8C-PB+4GB+SODIMM+DDR3+1600MT%2Fs&amp;p=-1&amp;c=USA'"><path d=" M 334.0376,394.0500 L 334.0376,364.4500 L 454.2576,364.4500 L 454.2576,394.0500 L 334.0376,394.0500 z " style="fill: #ffffff; fill-opacity: 0.00; stroke: none;" id="ezcGraphPolygon_46"/><text id="ezcGraphTextBox_39_text" x="334.5376" text-length="118.7200px" y="376.8500" style="font-size: 14px; font-family: 'Arial'; fill: #2e3436; fill-opacity: 1.00; stroke: none;">HMT351S6CFR8C...</text><text id="ezcGraphTextBox_39_text" x="334.5376" text-length="44.5200px" y="392.2500" style="font-size: 14px; font-family: 'Arial'; fill: #2e3436; fill-opacity: 1.00; stroke: none;">(0.8%)</text></g></g></svg>
