<?xml version="1.0"?>
<svg xmlns="http://www.w3.org/2000/svg" width="500" height="420" version="1.0" id="ezcGraph"><defs/><g id="ezcGraphChart" color-rendering="optimizeQuality" shape-rendering="geometricPrecision" text-rendering="optimizeLegibility"><path d=" M 0.0000,420.0000 L 0.0000,0.0000 L 500.0000,0.0000 L 500.0000,420.0000 L 0.0000,420.0000 z " style="fill: #eeeeec; fill-opacity: 1.00; stroke: none;" id="ezcGraphPolygon_1"/><path d=" M 0.0000,42.0000 L 0.0000,0.0000 L 500.0000,0.0000 L 500.0000,42.0000 L 0.0000,42.0000 z " style="fill: #000000; fill-opacity: 0.00; stroke: none;" id="ezcGraphPolygon_2"/><path d="M 244.45,242.20 L 356.95,242.20 A 112.50,112.50 0 1,1 176.29,152.70 z" style="fill: #3465a4; fill-opacity: 1.00; stroke: none; cursor: pointer;" id="ezcGraphCircleSector_4" onclick="top.location = 'https://linux-hardware.org/?view=computers&amp;type=desktop&amp;f=cpu_vendor&amp;v=Intel&amp;p=-1'"/><path d="M 244.20,242.70 L 356.45,242.70 A 112.00,112.00 0 1,1 176.20,153.40 z" style="fill: none; stroke: #1a3352; stroke-width: 1; stroke-opacity: 1.00; stroke-linecap: round; stroke-linejoin: round;" id="ezcGraphCircleSector_5"/><path d="M 250.00,231.00 L 181.84,141.50 A 112.50,112.50 0 0,1 362.48,228.95 z" style="fill: #4e9a06; fill-opacity: 1.00; stroke: none; cursor: pointer;" id="ezcGraphCircleSector_6" onclick="top.location = 'https://linux-hardware.org/?view=computers&amp;type=desktop&amp;f=cpu_vendor&amp;v=AMD&amp;p=-1'"/><path d="M 250.24,230.50 L 182.54,141.59 A 112.00,112.00 0 0,1 361.97,228.46 z" style="fill: none; stroke: #274d03; stroke-width: 1; stroke-opacity: 1.00; stroke-linecap: round; stroke-linejoin: round;" id="ezcGraphCircleSector_7"/><path d="M 250.00,231.00 L 362.48,228.95 A 112.50,112.50 0 0,1 362.49,229.77 z" style="fill: #cc0000; fill-opacity: 1.00; stroke: none; cursor: pointer;" id="ezcGraphCircleSector_8" onclick="top.location = 'https://linux-hardware.org/?view=computers&amp;type=desktop&amp;f=cpu_vendor&amp;v=sifive%2Cu74-mc&amp;p=-1'"/><path d="M 387.50,229.00 L 361.99,229.46 A 112.00,112.00 0 0,1 361.99,229.28 z" style="fill: none; stroke: #660000; stroke-width: 1; stroke-opacity: 1.00; stroke-linecap: round; stroke-linejoin: round;" id="ezcGraphCircleSector_9"/><path d="M 250.00,231.00 L 362.49,229.77 A 112.50,112.50 0 0,1 362.50,230.59 z" style="fill: #edd400; fill-opacity: 1.00; stroke: none; cursor: pointer;" id="ezcGraphCircleSector_10" onclick="top.location = 'https://linux-hardware.org/?view=computers&amp;type=desktop&amp;f=cpu_vendor&amp;v=sifive%2Cbullet0&amp;p=-1'"/><path d="M 387.51,230.00 L 362.00,230.28 A 112.00,112.00 0 0,1 362.00,230.09 z" style="fill: none; stroke: #776a00; stroke-width: 1; stroke-opacity: 1.00; stroke-linecap: round; stroke-linejoin: round;" id="ezcGraphCircleSector_11"/><path d="M 250.00,231.00 L 362.50,230.59 A 112.50,112.50 0 0,1 362.50,231.00 z" style="fill: #75505b; fill-opacity: 1.00; stroke: none; cursor: pointer;" id="ezcGraphCircleSector_12" onclick="top.location = 'https://linux-hardware.org/?view=computers&amp;type=desktop&amp;f=cpu_vendor&amp;v=PowerBook6%2C7&amp;p=-1'"/><path d=" M 207.4578,316.8731 L 221.7289,354.0000" style="fill: none; stroke: #000000; stroke-width: 1; stroke-opacity: 1.00; stroke-linecap: round; stroke-linejoin: round;" id="ezcGraphLine_13"/><ellipse cx="207.4578" cy="316.8731" rx="3.0000" ry="3.0000" style="fill: #000000; fill-opacity: 1.00; stroke: none;" id="ezcGraphCircle_14"/><ellipse cx="221.7289" cy="354.0000" rx="3.0000" ry="3.0000" style="fill: #000000; fill-opacity: 1.00; stroke: none;" id="ezcGraphCircle_15"/><path d=" M 286.3129,155.9945 L 309.4416,118.0000" style="fill: none; stroke: #000000; stroke-width: 1; stroke-opacity: 1.00; stroke-linecap: round; stroke-linejoin: round;" id="ezcGraphLine_17"/><ellipse cx="286.3129" cy="155.9945" rx="3.0000" ry="3.0000" style="fill: #000000; fill-opacity: 1.00; stroke: none;" id="ezcGraphCircle_18"/><ellipse cx="309.4416" cy="118.0000" rx="3.0000" ry="3.0000" style="fill: #000000; fill-opacity: 1.00; stroke: none;" id="ezcGraphCircle_19"/><path d=" M 333.3245,229.7880 L 380.9840,229.0000" style="fill: none; stroke: #000000; stroke-width: 1; stroke-opacity: 1.00; stroke-linecap: round; stroke-linejoin: round;" id="ezcGraphLine_21"/><ellipse cx="333.3245" cy="229.7880" rx="3.0000" ry="3.0000" style="fill: #000000; fill-opacity: 1.00; stroke: none;" id="ezcGraphCircle_22"/><ellipse cx="380.9840" cy="229.0000" rx="3.0000" ry="3.0000" style="fill: #000000; fill-opacity: 1.00; stroke: none;" id="ezcGraphCircle_23"/><path d=" M 333.3332,230.8485 L 375.7638,266.8000" style="fill: none; stroke: #000000; stroke-width: 1; stroke-opacity: 1.00; stroke-linecap: round; stroke-linejoin: round;" id="ezcGraphLine_25"/><ellipse cx="333.3332" cy="230.8485" rx="3.0000" ry="3.0000" style="fill: #000000; fill-opacity: 1.00; stroke: none;" id="ezcGraphCircle_26"/><ellipse cx="375.7638" cy="266.8000" rx="3.0000" ry="3.0000" style="fill: #000000; fill-opacity: 1.00; stroke: none;" id="ezcGraphCircle_27"/><g id="ezcGraphTextBox_3"><path d=" M 143.5000,42.0000 L 143.5000,0.5000 L 357.0000,0.5000 L 357.0000,42.0000 L 143.5000,42.0000 z " style="fill: #ffffff; fill-opacity: 0.00; stroke: none;" id="ezcGraphPolygon_29"/><text id="ezcGraphTextBox_3_text" x="144.0000" text-length="212.0000px" y="35.0000" style="font-size: 40px; font-family: 'Arial'; fill: #2e3436; fill-opacity: 1.00; stroke: none;">CPU Vendor</text></g><g id="ezcGraphTextBox_16" style=" cursor: pointer;" onclick="top.location = 'https://linux-hardware.org/?view=computers&amp;type=desktop&amp;f=cpu_vendor&amp;v=Intel&amp;p=-1'"><path d=" M 104.9889,363.0000 L 104.9889,345.5000 L 216.7289,345.5000 L 216.7289,363.0000 L 104.9889,363.0000 z " style="fill: #ffffff; fill-opacity: 0.00; stroke: none;" id="ezcGraphPolygon_30"/><text id="ezcGraphTextBox_16_text" x="105.4889" text-length="110.2400px" y="359.6000" style="font-size: 16px; font-family: 'Arial'; fill: #2e3436; fill-opacity: 1.00; stroke: none;">Intel (64.6%)</text></g><g id="ezcGraphTextBox_20" style=" cursor: pointer;" onclick="top.location = 'https://linux-hardware.org/?view=computers&amp;type=desktop&amp;f=cpu_vendor&amp;v=AMD&amp;p=-1'"><path d=" M 314.9416,127.0000 L 314.9416,109.5000 L 409.7216,109.5000 L 409.7216,127.0000 L 314.9416,127.0000 z " style="fill: #ffffff; fill-opacity: 0.00; stroke: none;" id="ezcGraphPolygon_31"/><text id="ezcGraphTextBox_20_text" x="315.4416" text-length="93.2800px" y="123.6000" style="font-size: 16px; font-family: 'Arial'; fill: #2e3436; fill-opacity: 1.00; stroke: none;">AMD (35.1%)</text></g><g id="ezcGraphTextBox_24" style=" cursor: pointer;" onclick="top.location = 'https://linux-hardware.org/?view=computers&amp;type=desktop&amp;f=cpu_vendor&amp;v=sifive%2Cu74-mc&amp;p=-1'"><path d=" M 386.4840,246.0500 L 386.4840,212.4500 L 498.2240,212.4500 L 498.2240,246.0500 L 386.4840,246.0500 z " style="fill: #ffffff; fill-opacity: 0.00; stroke: none;" id="ezcGraphPolygon_32"/><text id="ezcGraphTextBox_24_text" x="386.9840" text-length="110.2400px" y="226.5500" style="font-size: 16px; font-family: 'Arial'; fill: #2e3436; fill-opacity: 1.00; stroke: none;">sifive,u74-mc</text><text id="ezcGraphTextBox_24_text" x="386.9840" text-length="50.8800px" y="244.1500" style="font-size: 16px; font-family: 'Arial'; fill: #2e3436; fill-opacity: 1.00; stroke: none;">(0.1%)</text></g><g id="ezcGraphTextBox_28" style=" cursor: pointer;" onclick="top.location = 'https://linux-hardware.org/?view=computers&amp;type=desktop&amp;f=cpu_vendor&amp;v=PowerBook6%2C7&amp;p=-1'"><path d=" M 381.2638,283.8500 L 381.2638,250.2500 L 484.5238,250.2500 L 484.5238,283.8500 L 381.2638,283.8500 z " style="fill: #ffffff; fill-opacity: 0.00; stroke: none;" id="ezcGraphPolygon_33"/><text id="ezcGraphTextBox_28_text" x="381.7638" text-length="101.7600px" y="264.3500" style="font-size: 16px; font-family: 'Arial'; fill: #2e3436; fill-opacity: 1.00; stroke: none;">PowerBook6,7</text><text id="ezcGraphTextBox_28_text" x="381.7638" text-length="50.8800px" y="281.9500" style="font-size: 16px; font-family: 'Arial'; fill: #2e3436; fill-opacity: 1.00; stroke: none;">(0.1%)</text></g></g></svg>
