<?xml version="1.0"?>
<svg xmlns="http://www.w3.org/2000/svg" width="500" height="420" version="1.0" id="ezcGraph"><defs/><g id="ezcGraphChart" color-rendering="optimizeQuality" shape-rendering="geometricPrecision" text-rendering="optimizeLegibility"><path d=" M 0.0000,420.0000 L 0.0000,0.0000 L 500.0000,0.0000 L 500.0000,420.0000 L 0.0000,420.0000 z " style="fill: #eeeeec; fill-opacity: 1.00; stroke: none;" id="ezcGraphPolygon_1"/><path d=" M 0.0000,42.0000 L 0.0000,0.0000 L 500.0000,0.0000 L 500.0000,42.0000 L 0.0000,42.0000 z " style="fill: #000000; fill-opacity: 0.00; stroke: none;" id="ezcGraphPolygon_2"/><path d=" M 0.0000,420.0000 L 0.0000,42.0000 L 100.0000,42.0000 L 100.0000,420.0000 L 0.0000,420.0000 z " style="fill: #000000; fill-opacity: 0.00; stroke: none;" id="ezcGraphPolygon_4"/><path d=" M 2.0000,58.0000 L 2.0000,44.0000 L 16.0000,44.0000 L 16.0000,58.0000 L 2.0000,58.0000 z " style="fill: #3465a4; fill-opacity: 1.00; stroke: none; cursor: pointer;" id="ezcGraphPolygon_5" onclick="top.location = 'http://127.0.0.1/linux-hardware.org/index.php?view=computers&amp;type=desktop&amp;f=mon_ratio&amp;v=16%2F9&amp;p=-1'"/><path d=" M 2.0000,76.0000 L 2.0000,62.0000 L 16.0000,62.0000 L 16.0000,76.0000 L 2.0000,76.0000 z " style="fill: #4e9a06; fill-opacity: 1.00; stroke: none; cursor: pointer;" id="ezcGraphPolygon_7" onclick="top.location = 'http://127.0.0.1/linux-hardware.org/index.php?view=computers&amp;type=desktop&amp;f=mon_ratio&amp;v=16%2F10&amp;p=-1'"/><path d=" M 2.0000,94.0000 L 2.0000,80.0000 L 16.0000,80.0000 L 16.0000,94.0000 L 2.0000,94.0000 z " style="fill: #cc0000; fill-opacity: 1.00; stroke: none; cursor: pointer;" id="ezcGraphPolygon_9" onclick="top.location = 'http://127.0.0.1/linux-hardware.org/index.php?view=computers&amp;type=desktop&amp;f=mon_ratio&amp;v=&amp;p=-1'"/><path d=" M 2.0000,112.0000 L 2.0000,98.0000 L 16.0000,98.0000 L 16.0000,112.0000 L 2.0000,112.0000 z " style="fill: #edd400; fill-opacity: 1.00; stroke: none; cursor: pointer;" id="ezcGraphPolygon_11" onclick="top.location = 'http://127.0.0.1/linux-hardware.org/index.php?view=computers&amp;type=desktop&amp;f=mon_ratio&amp;v=5%2F4&amp;p=-1'"/><path d=" M 2.0000,130.0000 L 2.0000,116.0000 L 16.0000,116.0000 L 16.0000,130.0000 L 2.0000,130.0000 z " style="fill: #75505b; fill-opacity: 1.00; stroke: none; cursor: pointer;" id="ezcGraphPolygon_13" onclick="top.location = 'http://127.0.0.1/linux-hardware.org/index.php?view=computers&amp;type=desktop&amp;f=mon_ratio&amp;v=21%2F9&amp;p=-1'"/><path d=" M 100.0000,382.2000 L 500.0000,382.2000" style="fill: none; stroke: #2e3436; stroke-width: 1; stroke-opacity: 1.00; stroke-linecap: round; stroke-linejoin: round;" id="ezcGraphLine_15"/><path d=" M 492.0000,378.2000 L 500.0000,382.2000 L 492.0000,386.2000 L 492.0000,378.2000 z " style="fill: #2e3436; fill-opacity: 1.00; stroke: none;" id="ezcGraphPolygon_16"/><path d=" M 204.0000,79.8000 L 204.0000,382.2000" style="fill: none; stroke: #000000; stroke-width: 1; stroke-opacity: 0.00; stroke-linecap: round; stroke-linejoin: round;" id="ezcGraphLine_19"/><path d=" M 204.0000,379.2000 L 204.0000,385.2000" style="fill: none; stroke: #2e3436; stroke-width: 1; stroke-opacity: 1.00; stroke-linecap: round; stroke-linejoin: round;" id="ezcGraphLine_20"/><path d=" M 268.0000,79.8000 L 268.0000,382.2000" style="fill: none; stroke: #000000; stroke-width: 1; stroke-opacity: 0.00; stroke-linecap: round; stroke-linejoin: round;" id="ezcGraphLine_22"/><path d=" M 268.0000,379.2000 L 268.0000,385.2000" style="fill: none; stroke: #2e3436; stroke-width: 1; stroke-opacity: 1.00; stroke-linecap: round; stroke-linejoin: round;" id="ezcGraphLine_23"/><path d=" M 332.0000,79.8000 L 332.0000,382.2000" style="fill: none; stroke: #000000; stroke-width: 1; stroke-opacity: 0.00; stroke-linecap: round; stroke-linejoin: round;" id="ezcGraphLine_25"/><path d=" M 332.0000,379.2000 L 332.0000,385.2000" style="fill: none; stroke: #2e3436; stroke-width: 1; stroke-opacity: 1.00; stroke-linecap: round; stroke-linejoin: round;" id="ezcGraphLine_26"/><path d=" M 396.0000,79.8000 L 396.0000,382.2000" style="fill: none; stroke: #000000; stroke-width: 1; stroke-opacity: 0.00; stroke-linecap: round; stroke-linejoin: round;" id="ezcGraphLine_28"/><path d=" M 396.0000,379.2000 L 396.0000,385.2000" style="fill: none; stroke: #2e3436; stroke-width: 1; stroke-opacity: 1.00; stroke-linecap: round; stroke-linejoin: round;" id="ezcGraphLine_29"/><path d=" M 460.0000,79.8000 L 460.0000,382.2000" style="fill: none; stroke: #000000; stroke-width: 1; stroke-opacity: 0.00; stroke-linecap: round; stroke-linejoin: round;" id="ezcGraphLine_31"/><path d=" M 460.0000,379.2000 L 460.0000,385.2000" style="fill: none; stroke: #2e3436; stroke-width: 1; stroke-opacity: 1.00; stroke-linecap: round; stroke-linejoin: round;" id="ezcGraphLine_32"/><path d=" M 140.0000,420.0000 L 140.0000,42.0000" style="fill: none; stroke: #2e3436; stroke-width: 1; stroke-opacity: 1.00; stroke-linecap: round; stroke-linejoin: round;" id="ezcGraphLine_33"/><path d=" M 136.0000,50.0000 L 140.0000,42.0000 L 144.0000,50.0000 L 136.0000,50.0000 z " style="fill: #2e3436; fill-opacity: 1.00; stroke: none;" id="ezcGraphPolygon_34"/><path d=" M 140.0000,231.0000 L 460.0000,231.0000" style="fill: none; stroke: #000000; stroke-width: 1; stroke-opacity: 0.00; stroke-linecap: round; stroke-linejoin: round;" id="ezcGraphLine_37"/><path d=" M 140.0000,231.0000 L 143.0000,231.0000" style="fill: none; stroke: #2e3436; stroke-width: 1; stroke-opacity: 1.00; stroke-linecap: round; stroke-linejoin: round;" id="ezcGraphLine_38"/><path d=" M 140.0000,79.8000 L 460.0000,79.8000" style="fill: none; stroke: #000000; stroke-width: 1; stroke-opacity: 0.00; stroke-linecap: round; stroke-linejoin: round;" id="ezcGraphLine_40"/><path d=" M 140.0000,79.8000 L 143.0000,79.8000" style="fill: none; stroke: #2e3436; stroke-width: 1; stroke-opacity: 1.00; stroke-linecap: round; stroke-linejoin: round;" id="ezcGraphLine_41"/><path d=" M 172.0000,212.5536 L 172.0000,212.5536" style="fill: none; stroke: #3465a4; stroke-width: 1; stroke-opacity: 1.00; stroke-linecap: round; stroke-linejoin: round;" id="ezcGraphLine_43"/><path d=" M 172.0000,212.5536 L 236.0000,214.9728" style="fill: none; stroke: #3465a4; stroke-width: 1; stroke-opacity: 1.00; stroke-linecap: round; stroke-linejoin: round;" id="ezcGraphLine_45"/><path d=" M 236.0000,214.9728 L 300.0000,208.9248" style="fill: none; stroke: #3465a4; stroke-width: 1; stroke-opacity: 1.00; stroke-linecap: round; stroke-linejoin: round;" id="ezcGraphLine_47"/><path d=" M 300.0000,208.9248 L 364.0000,211.9488" style="fill: none; stroke: #3465a4; stroke-width: 1; stroke-opacity: 1.00; stroke-linecap: round; stroke-linejoin: round;" id="ezcGraphLine_49"/><path d=" M 364.0000,211.9488 L 428.0000,196.5264" style="fill: none; stroke: #3465a4; stroke-width: 1; stroke-opacity: 1.00; stroke-linecap: round; stroke-linejoin: round;" id="ezcGraphLine_51"/><path d=" M 172.0000,329.2800 L 172.0000,329.2800" style="fill: none; stroke: #4e9a06; stroke-width: 1; stroke-opacity: 1.00; stroke-linecap: round; stroke-linejoin: round;" id="ezcGraphLine_53"/><path d=" M 172.0000,329.2800 L 236.0000,327.7680" style="fill: none; stroke: #4e9a06; stroke-width: 1; stroke-opacity: 1.00; stroke-linecap: round; stroke-linejoin: round;" id="ezcGraphLine_55"/><path d=" M 236.0000,327.7680 L 300.0000,333.8160" style="fill: none; stroke: #4e9a06; stroke-width: 1; stroke-opacity: 1.00; stroke-linecap: round; stroke-linejoin: round;" id="ezcGraphLine_57"/><path d=" M 300.0000,333.8160 L 364.0000,337.7472" style="fill: none; stroke: #4e9a06; stroke-width: 1; stroke-opacity: 1.00; stroke-linecap: round; stroke-linejoin: round;" id="ezcGraphLine_59"/><path d=" M 364.0000,337.7472 L 428.0000,342.2832" style="fill: none; stroke: #4e9a06; stroke-width: 1; stroke-opacity: 1.00; stroke-linecap: round; stroke-linejoin: round;" id="ezcGraphLine_61"/><path d=" M 172.0000,381.8976 L 172.0000,381.8976" style="fill: none; stroke: #cc0000; stroke-width: 1; stroke-opacity: 1.00; stroke-linecap: round; stroke-linejoin: round;" id="ezcGraphLine_63"/><path d=" M 172.0000,381.8976 L 236.0000,381.2928" style="fill: none; stroke: #cc0000; stroke-width: 1; stroke-opacity: 1.00; stroke-linecap: round; stroke-linejoin: round;" id="ezcGraphLine_65"/><path d=" M 236.0000,381.2928 L 300.0000,354.3792" style="fill: none; stroke: #cc0000; stroke-width: 1; stroke-opacity: 1.00; stroke-linecap: round; stroke-linejoin: round;" id="ezcGraphLine_67"/><path d=" M 300.0000,354.3792 L 364.0000,338.0496" style="fill: none; stroke: #cc0000; stroke-width: 1; stroke-opacity: 1.00; stroke-linecap: round; stroke-linejoin: round;" id="ezcGraphLine_69"/><path d=" M 364.0000,338.0496 L 428.0000,341.9808" style="fill: none; stroke: #cc0000; stroke-width: 1; stroke-opacity: 1.00; stroke-linecap: round; stroke-linejoin: round;" id="ezcGraphLine_71"/><path d=" M 172.0000,304.1808 L 172.0000,304.1808" style="fill: none; stroke: #edd400; stroke-width: 1; stroke-opacity: 1.00; stroke-linecap: round; stroke-linejoin: round;" id="ezcGraphLine_73"/><path d=" M 172.0000,304.1808 L 236.0000,304.4832" style="fill: none; stroke: #edd400; stroke-width: 1; stroke-opacity: 1.00; stroke-linecap: round; stroke-linejoin: round;" id="ezcGraphLine_75"/><path d=" M 236.0000,304.4832 L 300.0000,332.6064" style="fill: none; stroke: #edd400; stroke-width: 1; stroke-opacity: 1.00; stroke-linecap: round; stroke-linejoin: round;" id="ezcGraphLine_77"/><path d=" M 300.0000,332.6064 L 364.0000,343.1904" style="fill: none; stroke: #edd400; stroke-width: 1; stroke-opacity: 1.00; stroke-linecap: round; stroke-linejoin: round;" id="ezcGraphLine_79"/><path d=" M 364.0000,343.1904 L 428.0000,353.4720" style="fill: none; stroke: #edd400; stroke-width: 1; stroke-opacity: 1.00; stroke-linecap: round; stroke-linejoin: round;" id="ezcGraphLine_81"/><path d=" M 172.0000,380.9904 L 172.0000,380.9904" style="fill: none; stroke: #75505b; stroke-width: 1; stroke-opacity: 1.00; stroke-linecap: round; stroke-linejoin: round;" id="ezcGraphLine_83"/><path d=" M 172.0000,380.9904 L 236.0000,380.3856" style="fill: none; stroke: #75505b; stroke-width: 1; stroke-opacity: 1.00; stroke-linecap: round; stroke-linejoin: round;" id="ezcGraphLine_85"/><path d=" M 236.0000,380.3856 L 300.0000,378.8736" style="fill: none; stroke: #75505b; stroke-width: 1; stroke-opacity: 1.00; stroke-linecap: round; stroke-linejoin: round;" id="ezcGraphLine_87"/><path d=" M 300.0000,378.8736 L 364.0000,377.6640" style="fill: none; stroke: #75505b; stroke-width: 1; stroke-opacity: 1.00; stroke-linecap: round; stroke-linejoin: round;" id="ezcGraphLine_89"/><path d=" M 364.0000,377.6640 L 428.0000,374.0352" style="fill: none; stroke: #75505b; stroke-width: 1; stroke-opacity: 1.00; stroke-linecap: round; stroke-linejoin: round;" id="ezcGraphLine_91"/><path d=" M 169.0000,215.5536 L 169.0000,209.5536 L 175.0000,209.5536 L 175.0000,215.5536 L 169.0000,215.5536 z " style="fill: #3465a4; fill-opacity: 1.00; stroke: none; cursor: pointer;" id="ezcGraphPolygon_93" onclick="top.location = 'http://127.0.0.1/linux-hardware.org/index.php?view=computers&amp;type=desktop&amp;f=mon_ratio&amp;v=16%2F9&amp;p=-1&amp;p=40'"/><path d=" M 233.0000,217.9728 L 233.0000,211.9728 L 239.0000,211.9728 L 239.0000,217.9728 L 233.0000,217.9728 z " style="fill: #3465a4; fill-opacity: 1.00; stroke: none; cursor: pointer;" id="ezcGraphPolygon_94" onclick="top.location = 'http://127.0.0.1/linux-hardware.org/index.php?view=computers&amp;type=desktop&amp;f=mon_ratio&amp;v=16%2F9&amp;p=-1&amp;p=52'"/><path d=" M 297.0000,211.9248 L 297.0000,205.9248 L 303.0000,205.9248 L 303.0000,211.9248 L 297.0000,211.9248 z " style="fill: #3465a4; fill-opacity: 1.00; stroke: none; cursor: pointer;" id="ezcGraphPolygon_95" onclick="top.location = 'http://127.0.0.1/linux-hardware.org/index.php?view=computers&amp;type=desktop&amp;f=mon_ratio&amp;v=16%2F9&amp;p=-1&amp;p=64'"/><path d=" M 361.0000,214.9488 L 361.0000,208.9488 L 367.0000,208.9488 L 367.0000,214.9488 L 361.0000,214.9488 z " style="fill: #3465a4; fill-opacity: 1.00; stroke: none; cursor: pointer;" id="ezcGraphPolygon_96" onclick="top.location = 'http://127.0.0.1/linux-hardware.org/index.php?view=computers&amp;type=desktop&amp;f=mon_ratio&amp;v=16%2F9&amp;p=-1&amp;p=76'"/><path d=" M 425.0000,199.5264 L 425.0000,193.5264 L 431.0000,193.5264 L 431.0000,199.5264 L 425.0000,199.5264 z " style="fill: #3465a4; fill-opacity: 1.00; stroke: none; cursor: pointer;" id="ezcGraphPolygon_97" onclick="top.location = 'http://127.0.0.1/linux-hardware.org/index.php?view=computers&amp;type=desktop&amp;f=mon_ratio&amp;v=16%2F9&amp;p=-1&amp;p=88'"/><path d=" M 169.0000,332.2800 L 169.0000,326.2800 L 175.0000,326.2800 L 175.0000,332.2800 L 169.0000,332.2800 z " style="fill: #4e9a06; fill-opacity: 1.00; stroke: none; cursor: pointer;" id="ezcGraphPolygon_98" onclick="top.location = 'http://127.0.0.1/linux-hardware.org/index.php?view=computers&amp;type=desktop&amp;f=mon_ratio&amp;v=16%2F10&amp;p=-1&amp;p=40'"/><path d=" M 233.0000,330.7680 L 233.0000,324.7680 L 239.0000,324.7680 L 239.0000,330.7680 L 233.0000,330.7680 z " style="fill: #4e9a06; fill-opacity: 1.00; stroke: none; cursor: pointer;" id="ezcGraphPolygon_99" onclick="top.location = 'http://127.0.0.1/linux-hardware.org/index.php?view=computers&amp;type=desktop&amp;f=mon_ratio&amp;v=16%2F10&amp;p=-1&amp;p=52'"/><path d=" M 297.0000,336.8160 L 297.0000,330.8160 L 303.0000,330.8160 L 303.0000,336.8160 L 297.0000,336.8160 z " style="fill: #4e9a06; fill-opacity: 1.00; stroke: none; cursor: pointer;" id="ezcGraphPolygon_100" onclick="top.location = 'http://127.0.0.1/linux-hardware.org/index.php?view=computers&amp;type=desktop&amp;f=mon_ratio&amp;v=16%2F10&amp;p=-1&amp;p=64'"/><path d=" M 361.0000,340.7472 L 361.0000,334.7472 L 367.0000,334.7472 L 367.0000,340.7472 L 361.0000,340.7472 z " style="fill: #4e9a06; fill-opacity: 1.00; stroke: none; cursor: pointer;" id="ezcGraphPolygon_101" onclick="top.location = 'http://127.0.0.1/linux-hardware.org/index.php?view=computers&amp;type=desktop&amp;f=mon_ratio&amp;v=16%2F10&amp;p=-1&amp;p=76'"/><path d=" M 425.0000,345.2832 L 425.0000,339.2832 L 431.0000,339.2832 L 431.0000,345.2832 L 425.0000,345.2832 z " style="fill: #4e9a06; fill-opacity: 1.00; stroke: none; cursor: pointer;" id="ezcGraphPolygon_102" onclick="top.location = 'http://127.0.0.1/linux-hardware.org/index.php?view=computers&amp;type=desktop&amp;f=mon_ratio&amp;v=16%2F10&amp;p=-1&amp;p=88'"/><path d=" M 169.0000,384.8976 L 169.0000,378.8976 L 175.0000,378.8976 L 175.0000,384.8976 L 169.0000,384.8976 z " style="fill: #cc0000; fill-opacity: 1.00; stroke: none; cursor: pointer;" id="ezcGraphPolygon_103" onclick="top.location = 'http://127.0.0.1/linux-hardware.org/index.php?view=computers&amp;type=desktop&amp;f=mon_ratio&amp;v=&amp;p=-1&amp;p=40'"/><path d=" M 233.0000,384.2928 L 233.0000,378.2928 L 239.0000,378.2928 L 239.0000,384.2928 L 233.0000,384.2928 z " style="fill: #cc0000; fill-opacity: 1.00; stroke: none; cursor: pointer;" id="ezcGraphPolygon_104" onclick="top.location = 'http://127.0.0.1/linux-hardware.org/index.php?view=computers&amp;type=desktop&amp;f=mon_ratio&amp;v=&amp;p=-1&amp;p=52'"/><path d=" M 297.0000,357.3792 L 297.0000,351.3792 L 303.0000,351.3792 L 303.0000,357.3792 L 297.0000,357.3792 z " style="fill: #cc0000; fill-opacity: 1.00; stroke: none; cursor: pointer;" id="ezcGraphPolygon_105" onclick="top.location = 'http://127.0.0.1/linux-hardware.org/index.php?view=computers&amp;type=desktop&amp;f=mon_ratio&amp;v=&amp;p=-1&amp;p=64'"/><path d=" M 361.0000,341.0496 L 361.0000,335.0496 L 367.0000,335.0496 L 367.0000,341.0496 L 361.0000,341.0496 z " style="fill: #cc0000; fill-opacity: 1.00; stroke: none; cursor: pointer;" id="ezcGraphPolygon_106" onclick="top.location = 'http://127.0.0.1/linux-hardware.org/index.php?view=computers&amp;type=desktop&amp;f=mon_ratio&amp;v=&amp;p=-1&amp;p=76'"/><path d=" M 425.0000,344.9808 L 425.0000,338.9808 L 431.0000,338.9808 L 431.0000,344.9808 L 425.0000,344.9808 z " style="fill: #cc0000; fill-opacity: 1.00; stroke: none; cursor: pointer;" id="ezcGraphPolygon_107" onclick="top.location = 'http://127.0.0.1/linux-hardware.org/index.php?view=computers&amp;type=desktop&amp;f=mon_ratio&amp;v=&amp;p=-1&amp;p=88'"/><path d=" M 169.0000,307.1808 L 169.0000,301.1808 L 175.0000,301.1808 L 175.0000,307.1808 L 169.0000,307.1808 z " style="fill: #edd400; fill-opacity: 1.00; stroke: none; cursor: pointer;" id="ezcGraphPolygon_108" onclick="top.location = 'http://127.0.0.1/linux-hardware.org/index.php?view=computers&amp;type=desktop&amp;f=mon_ratio&amp;v=5%2F4&amp;p=-1&amp;p=40'"/><path d=" M 233.0000,307.4832 L 233.0000,301.4832 L 239.0000,301.4832 L 239.0000,307.4832 L 233.0000,307.4832 z " style="fill: #edd400; fill-opacity: 1.00; stroke: none; cursor: pointer;" id="ezcGraphPolygon_109" onclick="top.location = 'http://127.0.0.1/linux-hardware.org/index.php?view=computers&amp;type=desktop&amp;f=mon_ratio&amp;v=5%2F4&amp;p=-1&amp;p=52'"/><path d=" M 297.0000,335.6064 L 297.0000,329.6064 L 303.0000,329.6064 L 303.0000,335.6064 L 297.0000,335.6064 z " style="fill: #edd400; fill-opacity: 1.00; stroke: none; cursor: pointer;" id="ezcGraphPolygon_110" onclick="top.location = 'http://127.0.0.1/linux-hardware.org/index.php?view=computers&amp;type=desktop&amp;f=mon_ratio&amp;v=5%2F4&amp;p=-1&amp;p=64'"/><path d=" M 361.0000,346.1904 L 361.0000,340.1904 L 367.0000,340.1904 L 367.0000,346.1904 L 361.0000,346.1904 z " style="fill: #edd400; fill-opacity: 1.00; stroke: none; cursor: pointer;" id="ezcGraphPolygon_111" onclick="top.location = 'http://127.0.0.1/linux-hardware.org/index.php?view=computers&amp;type=desktop&amp;f=mon_ratio&amp;v=5%2F4&amp;p=-1&amp;p=76'"/><path d=" M 425.0000,356.4720 L 425.0000,350.4720 L 431.0000,350.4720 L 431.0000,356.4720 L 425.0000,356.4720 z " style="fill: #edd400; fill-opacity: 1.00; stroke: none; cursor: pointer;" id="ezcGraphPolygon_112" onclick="top.location = 'http://127.0.0.1/linux-hardware.org/index.php?view=computers&amp;type=desktop&amp;f=mon_ratio&amp;v=5%2F4&amp;p=-1&amp;p=88'"/><path d=" M 169.0000,383.9904 L 169.0000,377.9904 L 175.0000,377.9904 L 175.0000,383.9904 L 169.0000,383.9904 z " style="fill: #75505b; fill-opacity: 1.00; stroke: none; cursor: pointer;" id="ezcGraphPolygon_113" onclick="top.location = 'http://127.0.0.1/linux-hardware.org/index.php?view=computers&amp;type=desktop&amp;f=mon_ratio&amp;v=21%2F9&amp;p=-1&amp;p=40'"/><path d=" M 233.0000,383.3856 L 233.0000,377.3856 L 239.0000,377.3856 L 239.0000,383.3856 L 233.0000,383.3856 z " style="fill: #75505b; fill-opacity: 1.00; stroke: none; cursor: pointer;" id="ezcGraphPolygon_114" onclick="top.location = 'http://127.0.0.1/linux-hardware.org/index.php?view=computers&amp;type=desktop&amp;f=mon_ratio&amp;v=21%2F9&amp;p=-1&amp;p=52'"/><path d=" M 297.0000,381.8736 L 297.0000,375.8736 L 303.0000,375.8736 L 303.0000,381.8736 L 297.0000,381.8736 z " style="fill: #75505b; fill-opacity: 1.00; stroke: none; cursor: pointer;" id="ezcGraphPolygon_115" onclick="top.location = 'http://127.0.0.1/linux-hardware.org/index.php?view=computers&amp;type=desktop&amp;f=mon_ratio&amp;v=21%2F9&amp;p=-1&amp;p=64'"/><path d=" M 361.0000,380.6640 L 361.0000,374.6640 L 367.0000,374.6640 L 367.0000,380.6640 L 361.0000,380.6640 z " style="fill: #75505b; fill-opacity: 1.00; stroke: none; cursor: pointer;" id="ezcGraphPolygon_116" onclick="top.location = 'http://127.0.0.1/linux-hardware.org/index.php?view=computers&amp;type=desktop&amp;f=mon_ratio&amp;v=21%2F9&amp;p=-1&amp;p=76'"/><path d=" M 425.0000,377.0352 L 425.0000,371.0352 L 431.0000,371.0352 L 431.0000,377.0352 L 425.0000,377.0352 z " style="fill: #75505b; fill-opacity: 1.00; stroke: none; cursor: pointer;" id="ezcGraphPolygon_117" onclick="top.location = 'http://127.0.0.1/linux-hardware.org/index.php?view=computers&amp;type=desktop&amp;f=mon_ratio&amp;v=21%2F9&amp;p=-1&amp;p=88'"/><g id="ezcGraphTextBox_3"><path d=" M 122.3000,42.0000 L 122.3000,0.5000 L 378.2000,0.5000 L 378.2000,42.0000 L 122.3000,42.0000 z " style="fill: #ffffff; fill-opacity: 0.00; stroke: none;" id="ezcGraphPolygon_118"/><text id="ezcGraphTextBox_3_text" x="122.8000" text-length="254.4000px" y="35.0000" style="font-size: 40px; font-family: 'Arial'; fill: #2e3436; fill-opacity: 1.00; stroke: none;">Aspect Ratio</text></g><g id="ezcGraphTextBox_6" style=" cursor: pointer;" onclick="top.location = 'http://127.0.0.1/linux-hardware.org/index.php?view=computers&amp;type=desktop&amp;f=mon_ratio&amp;v=16%2F9&amp;p=-1'"><path d=" M 16.5000,59.0000 L 16.5000,43.5000 L 47.6800,43.5000 L 47.6800,59.0000 L 16.5000,59.0000 z " style="fill: #ffffff; fill-opacity: 0.00; stroke: none;" id="ezcGraphPolygon_119"/><text id="ezcGraphTextBox_6_text" x="17.0000" text-length="29.6800px" y="55.9000" style="font-size: 14px; font-family: 'Arial'; fill: #2e3436; fill-opacity: 1.00; stroke: none;">16/9</text></g><g id="ezcGraphTextBox_8" style=" cursor: pointer;" onclick="top.location = 'http://127.0.0.1/linux-hardware.org/index.php?view=computers&amp;type=desktop&amp;f=mon_ratio&amp;v=16%2F10&amp;p=-1'"><path d=" M 16.5000,77.0000 L 16.5000,61.5000 L 55.1000,61.5000 L 55.1000,77.0000 L 16.5000,77.0000 z " style="fill: #ffffff; fill-opacity: 0.00; stroke: none;" id="ezcGraphPolygon_120"/><text id="ezcGraphTextBox_8_text" x="17.0000" text-length="37.1000px" y="73.9000" style="font-size: 14px; font-family: 'Arial'; fill: #2e3436; fill-opacity: 1.00; stroke: none;">16/10</text></g><g id="ezcGraphTextBox_10" style=" cursor: pointer;" onclick="top.location = 'http://127.0.0.1/linux-hardware.org/index.php?view=computers&amp;type=desktop&amp;f=mon_ratio&amp;v=&amp;p=-1'"><path d=" M 16.5000,95.0000 L 16.5000,79.5000 L 69.9400,79.5000 L 69.9400,95.0000 L 16.5000,95.0000 z " style="fill: #ffffff; fill-opacity: 0.00; stroke: none;" id="ezcGraphPolygon_121"/><text id="ezcGraphTextBox_10_text" x="17.0000" text-length="51.9400px" y="91.9000" style="font-size: 14px; font-family: 'Arial'; fill: #2e3436; fill-opacity: 1.00; stroke: none;">Unknown</text></g><g id="ezcGraphTextBox_12" style=" cursor: pointer;" onclick="top.location = 'http://127.0.0.1/linux-hardware.org/index.php?view=computers&amp;type=desktop&amp;f=mon_ratio&amp;v=5%2F4&amp;p=-1'"><path d=" M 16.5000,113.0000 L 16.5000,97.5000 L 40.2600,97.5000 L 40.2600,113.0000 L 16.5000,113.0000 z " style="fill: #ffffff; fill-opacity: 0.00; stroke: none;" id="ezcGraphPolygon_122"/><text id="ezcGraphTextBox_12_text" x="17.0000" text-length="22.2600px" y="109.9000" style="font-size: 14px; font-family: 'Arial'; fill: #2e3436; fill-opacity: 1.00; stroke: none;">5/4</text></g><g id="ezcGraphTextBox_14" style=" cursor: pointer;" onclick="top.location = 'http://127.0.0.1/linux-hardware.org/index.php?view=computers&amp;type=desktop&amp;f=mon_ratio&amp;v=21%2F9&amp;p=-1'"><path d=" M 16.5000,131.0000 L 16.5000,115.5000 L 47.6800,115.5000 L 47.6800,131.0000 L 16.5000,131.0000 z " style="fill: #ffffff; fill-opacity: 0.00; stroke: none;" id="ezcGraphPolygon_123"/><text id="ezcGraphTextBox_14_text" x="17.0000" text-length="29.6800px" y="127.9000" style="font-size: 14px; font-family: 'Arial'; fill: #2e3436; fill-opacity: 1.00; stroke: none;">21/9</text></g><g id="ezcGraphTextBox_17" transform="rotate( 0.00 493.0000 375.2000 )"><path d=" M 460.4000,381.2000 L 460.4000,365.7000 L 499.0000,365.7000 L 499.0000,381.2000 L 460.4000,381.2000 z " style="fill: #ffffff; fill-opacity: 0.00; stroke: none;" id="ezcGraphPolygon_124"/><text id="ezcGraphTextBox_17_text" x="460.9000" text-length="37.1000px" y="378.1000" style="font-size: 14px; font-family: 'Arial'; fill: #2e3436; fill-opacity: 1.00; stroke: none;">Time </text></g><g id="ezcGraphTextBox_18"><path d=" M 154.1400,413.3000 L 154.1400,383.7000 L 190.3600,383.7000 L 190.3600,413.3000 L 154.1400,413.3000 z " style="fill: #ffffff; fill-opacity: 0.00; stroke: none;" id="ezcGraphPolygon_125"/><text id="ezcGraphTextBox_18_text" x="160.8700" text-length="22.2600px" y="396.1000" style="font-size: 14px; font-family: 'Arial'; fill: #2e3436; fill-opacity: 1.00; stroke: none;">Apr</text><text id="ezcGraphTextBox_18_text" x="154.6400" text-length="34.7200px" y="411.5000" style="font-size: 14px; font-family: 'Arial'; fill: #2e3436; fill-opacity: 1.00; stroke: none;">2017</text></g><g id="ezcGraphTextBox_21"><path d=" M 218.1400,413.3000 L 218.1400,383.7000 L 254.3600,383.7000 L 254.3600,413.3000 L 218.1400,413.3000 z " style="fill: #ffffff; fill-opacity: 0.00; stroke: none;" id="ezcGraphPolygon_126"/><text id="ezcGraphTextBox_21_text" x="224.8700" text-length="22.2600px" y="396.1000" style="font-size: 14px; font-family: 'Arial'; fill: #2e3436; fill-opacity: 1.00; stroke: none;">Apr</text><text id="ezcGraphTextBox_21_text" x="218.6400" text-length="34.7200px" y="411.5000" style="font-size: 14px; font-family: 'Arial'; fill: #2e3436; fill-opacity: 1.00; stroke: none;">2018</text></g><g id="ezcGraphTextBox_24"><path d=" M 282.1400,413.3000 L 282.1400,383.7000 L 318.3600,383.7000 L 318.3600,413.3000 L 282.1400,413.3000 z " style="fill: #ffffff; fill-opacity: 0.00; stroke: none;" id="ezcGraphPolygon_127"/><text id="ezcGraphTextBox_24_text" x="288.8700" text-length="22.2600px" y="396.1000" style="font-size: 14px; font-family: 'Arial'; fill: #2e3436; fill-opacity: 1.00; stroke: none;">Apr</text><text id="ezcGraphTextBox_24_text" x="282.6400" text-length="34.7200px" y="411.5000" style="font-size: 14px; font-family: 'Arial'; fill: #2e3436; fill-opacity: 1.00; stroke: none;">2019</text></g><g id="ezcGraphTextBox_27"><path d=" M 346.1400,413.3000 L 346.1400,383.7000 L 382.3600,383.7000 L 382.3600,413.3000 L 346.1400,413.3000 z " style="fill: #ffffff; fill-opacity: 0.00; stroke: none;" id="ezcGraphPolygon_128"/><text id="ezcGraphTextBox_27_text" x="352.8700" text-length="22.2600px" y="396.1000" style="font-size: 14px; font-family: 'Arial'; fill: #2e3436; fill-opacity: 1.00; stroke: none;">Apr</text><text id="ezcGraphTextBox_27_text" x="346.6400" text-length="34.7200px" y="411.5000" style="font-size: 14px; font-family: 'Arial'; fill: #2e3436; fill-opacity: 1.00; stroke: none;">2020</text></g><g id="ezcGraphTextBox_30"><path d=" M 410.1400,413.3000 L 410.1400,383.7000 L 446.3600,383.7000 L 446.3600,413.3000 L 410.1400,413.3000 z " style="fill: #ffffff; fill-opacity: 0.00; stroke: none;" id="ezcGraphPolygon_129"/><text id="ezcGraphTextBox_30_text" x="416.8700" text-length="22.2600px" y="396.1000" style="font-size: 14px; font-family: 'Arial'; fill: #2e3436; fill-opacity: 1.00; stroke: none;">Apr</text><text id="ezcGraphTextBox_30_text" x="410.6400" text-length="34.7200px" y="411.5000" style="font-size: 14px; font-family: 'Arial'; fill: #2e3436; fill-opacity: 1.00; stroke: none;">2021</text></g><g id="ezcGraphTextBox_35" transform="rotate( 0.00 147.0000 49.0000 )"><path d=" M 141.5000,59.0000 L 141.5000,43.5000 L 373.0200,43.5000 L 373.0200,59.0000 L 141.5000,59.0000 z " style="fill: #ffffff; fill-opacity: 0.00; stroke: none;" id="ezcGraphPolygon_130"/><text id="ezcGraphTextBox_35_text" x="142.0000" text-length="230.0200px" y="55.9000" style="font-size: 14px; font-family: 'Arial'; fill: #2e3436; fill-opacity: 1.00; stroke: none;">Desktops by "Aspect Ratio" in %</text></g><g id="ezcGraphTextBox_36"><path d=" M 128.8200,381.2000 L 128.8200,365.7000 L 139.0000,365.7000 L 139.0000,381.2000 L 128.8200,381.2000 z " style="fill: #ffffff; fill-opacity: 0.00; stroke: none;" id="ezcGraphPolygon_131"/><text id="ezcGraphTextBox_36_text" x="129.3200" text-length="8.6800px" y="378.1000" style="font-size: 14px; font-family: 'Arial'; fill: #2e3436; fill-opacity: 1.00; stroke: none;">0</text></g><g id="ezcGraphTextBox_39"><path d=" M 120.1400,230.0000 L 120.1400,214.5000 L 139.0000,214.5000 L 139.0000,230.0000 L 120.1400,230.0000 z " style="fill: #ffffff; fill-opacity: 0.00; stroke: none;" id="ezcGraphPolygon_132"/><text id="ezcGraphTextBox_39_text" x="120.6400" text-length="17.3600px" y="226.9000" style="font-size: 14px; font-family: 'Arial'; fill: #2e3436; fill-opacity: 1.00; stroke: none;">50</text></g><g id="ezcGraphTextBox_42"><path d=" M 111.4600,96.8000 L 111.4600,81.3000 L 139.0000,81.3000 L 139.0000,96.8000 L 111.4600,96.8000 z " style="fill: #ffffff; fill-opacity: 0.00; stroke: none;" id="ezcGraphPolygon_133"/><text id="ezcGraphTextBox_42_text" x="111.9600" text-length="26.0400px" y="93.7000" style="font-size: 14px; font-family: 'Arial'; fill: #2e3436; fill-opacity: 1.00; stroke: none;">100</text></g><g id="ezcGraphTextBox_44"><path d=" M 159.1000,207.5536 L 159.1000,196.0536 L 185.4000,196.0536 L 185.4000,207.5536 L 159.1000,207.5536 z " style="fill: #ffffff; fill-opacity: 0.00; stroke: none;" id="ezcGraphPolygon_134"/><text id="ezcGraphTextBox_44_text" x="159.6000" text-length="24.8000px" y="205.0536" style="font-size: 10px; font-family: 'Arial'; fill: #2e3436; fill-opacity: 1.00; stroke: none;">56.1</text></g><g id="ezcGraphTextBox_46"><path d=" M 223.1000,209.9728 L 223.1000,198.4728 L 249.4000,198.4728 L 249.4000,209.9728 L 223.1000,209.9728 z " style="fill: #ffffff; fill-opacity: 0.00; stroke: none;" id="ezcGraphPolygon_135"/><text id="ezcGraphTextBox_46_text" x="223.6000" text-length="24.8000px" y="207.4728" style="font-size: 10px; font-family: 'Arial'; fill: #2e3436; fill-opacity: 1.00; stroke: none;">55.3</text></g><g id="ezcGraphTextBox_48"><path d=" M 287.1000,203.9248 L 287.1000,192.4248 L 313.4000,192.4248 L 313.4000,203.9248 L 287.1000,203.9248 z " style="fill: #ffffff; fill-opacity: 0.00; stroke: none;" id="ezcGraphPolygon_136"/><text id="ezcGraphTextBox_48_text" x="287.6000" text-length="24.8000px" y="201.4248" style="font-size: 10px; font-family: 'Arial'; fill: #2e3436; fill-opacity: 1.00; stroke: none;">57.3</text></g><g id="ezcGraphTextBox_50"><path d=" M 351.1000,206.9488 L 351.1000,195.4488 L 377.4000,195.4488 L 377.4000,206.9488 L 351.1000,206.9488 z " style="fill: #ffffff; fill-opacity: 0.00; stroke: none;" id="ezcGraphPolygon_137"/><text id="ezcGraphTextBox_50_text" x="351.6000" text-length="24.8000px" y="204.4488" style="font-size: 10px; font-family: 'Arial'; fill: #2e3436; fill-opacity: 1.00; stroke: none;">56.3</text></g><g id="ezcGraphTextBox_52"><path d=" M 415.1000,191.5264 L 415.1000,180.0264 L 441.4000,180.0264 L 441.4000,191.5264 L 415.1000,191.5264 z " style="fill: #ffffff; fill-opacity: 0.00; stroke: none;" id="ezcGraphPolygon_138"/><text id="ezcGraphTextBox_52_text" x="415.6000" text-length="24.8000px" y="189.0264" style="font-size: 10px; font-family: 'Arial'; fill: #2e3436; fill-opacity: 1.00; stroke: none;">61.4</text></g><g id="ezcGraphTextBox_54"><path d=" M 159.1000,324.2800 L 159.1000,312.7800 L 185.4000,312.7800 L 185.4000,324.2800 L 159.1000,324.2800 z " style="fill: #ffffff; fill-opacity: 0.00; stroke: none;" id="ezcGraphPolygon_139"/><text id="ezcGraphTextBox_54_text" x="159.6000" text-length="24.8000px" y="321.7800" style="font-size: 10px; font-family: 'Arial'; fill: #2e3436; fill-opacity: 1.00; stroke: none;">17.5</text></g><g id="ezcGraphTextBox_56"><path d=" M 229.3000,322.7680 L 229.3000,311.2680 L 243.2000,311.2680 L 243.2000,322.7680 L 229.3000,322.7680 z " style="fill: #ffffff; fill-opacity: 0.00; stroke: none;" id="ezcGraphPolygon_140"/><text id="ezcGraphTextBox_56_text" x="229.8000" text-length="12.4000px" y="320.2680" style="font-size: 10px; font-family: 'Arial'; fill: #2e3436; fill-opacity: 1.00; stroke: none;">18</text></g><g id="ezcGraphTextBox_58"><path d=" M 293.3000,328.8160 L 293.3000,317.3160 L 307.2000,317.3160 L 307.2000,328.8160 L 293.3000,328.8160 z " style="fill: #ffffff; fill-opacity: 0.00; stroke: none;" id="ezcGraphPolygon_141"/><text id="ezcGraphTextBox_58_text" x="293.8000" text-length="12.4000px" y="326.3160" style="font-size: 10px; font-family: 'Arial'; fill: #2e3436; fill-opacity: 1.00; stroke: none;">16</text></g><g id="ezcGraphTextBox_60"><path d=" M 351.1000,332.7472 L 351.1000,321.2472 L 377.4000,321.2472 L 377.4000,332.7472 L 351.1000,332.7472 z " style="fill: #ffffff; fill-opacity: 0.00; stroke: none;" id="ezcGraphPolygon_142"/><text id="ezcGraphTextBox_60_text" x="351.6000" text-length="24.8000px" y="330.2472" style="font-size: 10px; font-family: 'Arial'; fill: #2e3436; fill-opacity: 1.00; stroke: none;">14.7</text></g><g id="ezcGraphTextBox_62"><path d=" M 415.1000,337.2832 L 415.1000,325.7832 L 441.4000,325.7832 L 441.4000,337.2832 L 415.1000,337.2832 z " style="fill: #ffffff; fill-opacity: 0.00; stroke: none;" id="ezcGraphPolygon_143"/><text id="ezcGraphTextBox_62_text" x="415.6000" text-length="24.8000px" y="334.7832" style="font-size: 10px; font-family: 'Arial'; fill: #2e3436; fill-opacity: 1.00; stroke: none;">13.2</text></g><g id="ezcGraphTextBox_64"><path d=" M 162.2000,376.8976 L 162.2000,365.3976 L 182.3000,365.3976 L 182.3000,376.8976 L 162.2000,376.8976 z " style="fill: #ffffff; fill-opacity: 0.00; stroke: none;" id="ezcGraphPolygon_144"/><text id="ezcGraphTextBox_64_text" x="162.7000" text-length="18.6000px" y="374.3976" style="font-size: 10px; font-family: 'Arial'; fill: #2e3436; fill-opacity: 1.00; stroke: none;">0.1</text></g><g id="ezcGraphTextBox_66"><path d=" M 226.2000,376.2928 L 226.2000,364.7928 L 246.3000,364.7928 L 246.3000,376.2928 L 226.2000,376.2928 z " style="fill: #ffffff; fill-opacity: 0.00; stroke: none;" id="ezcGraphPolygon_145"/><text id="ezcGraphTextBox_66_text" x="226.7000" text-length="18.6000px" y="373.7928" style="font-size: 10px; font-family: 'Arial'; fill: #2e3436; fill-opacity: 1.00; stroke: none;">0.3</text></g><g id="ezcGraphTextBox_68"><path d=" M 290.2000,349.3792 L 290.2000,337.8792 L 310.3000,337.8792 L 310.3000,349.3792 L 290.2000,349.3792 z " style="fill: #ffffff; fill-opacity: 0.00; stroke: none;" id="ezcGraphPolygon_146"/><text id="ezcGraphTextBox_68_text" x="290.7000" text-length="18.6000px" y="346.8792" style="font-size: 10px; font-family: 'Arial'; fill: #2e3436; fill-opacity: 1.00; stroke: none;">9.2</text></g><g id="ezcGraphTextBox_70"><path d=" M 351.1000,333.0496 L 351.1000,321.5496 L 377.4000,321.5496 L 377.4000,333.0496 L 351.1000,333.0496 z " style="fill: #ffffff; fill-opacity: 0.00; stroke: none;" id="ezcGraphPolygon_147"/><text id="ezcGraphTextBox_70_text" x="351.6000" text-length="24.8000px" y="330.5496" style="font-size: 10px; font-family: 'Arial'; fill: #2e3436; fill-opacity: 1.00; stroke: none;">14.6</text></g><g id="ezcGraphTextBox_72"><path d=" M 415.1000,336.9808 L 415.1000,325.4808 L 441.4000,325.4808 L 441.4000,336.9808 L 415.1000,336.9808 z " style="fill: #ffffff; fill-opacity: 0.00; stroke: none;" id="ezcGraphPolygon_148"/><text id="ezcGraphTextBox_72_text" x="415.6000" text-length="24.8000px" y="334.4808" style="font-size: 10px; font-family: 'Arial'; fill: #2e3436; fill-opacity: 1.00; stroke: none;">13.3</text></g><g id="ezcGraphTextBox_74"><path d=" M 159.1000,299.1808 L 159.1000,287.6808 L 185.4000,287.6808 L 185.4000,299.1808 L 159.1000,299.1808 z " style="fill: #ffffff; fill-opacity: 0.00; stroke: none;" id="ezcGraphPolygon_149"/><text id="ezcGraphTextBox_74_text" x="159.6000" text-length="24.8000px" y="296.6808" style="font-size: 10px; font-family: 'Arial'; fill: #2e3436; fill-opacity: 1.00; stroke: none;">25.8</text></g><g id="ezcGraphTextBox_76"><path d=" M 223.1000,299.4832 L 223.1000,287.9832 L 249.4000,287.9832 L 249.4000,299.4832 L 223.1000,299.4832 z " style="fill: #ffffff; fill-opacity: 0.00; stroke: none;" id="ezcGraphPolygon_150"/><text id="ezcGraphTextBox_76_text" x="223.6000" text-length="24.8000px" y="296.9832" style="font-size: 10px; font-family: 'Arial'; fill: #2e3436; fill-opacity: 1.00; stroke: none;">25.7</text></g><g id="ezcGraphTextBox_78"><path d=" M 287.1000,327.6064 L 287.1000,316.1064 L 313.4000,316.1064 L 313.4000,327.6064 L 287.1000,327.6064 z " style="fill: #ffffff; fill-opacity: 0.00; stroke: none;" id="ezcGraphPolygon_151"/><text id="ezcGraphTextBox_78_text" x="287.6000" text-length="24.8000px" y="325.1064" style="font-size: 10px; font-family: 'Arial'; fill: #2e3436; fill-opacity: 1.00; stroke: none;">16.4</text></g><g id="ezcGraphTextBox_80"><path d=" M 351.1000,338.1904 L 351.1000,326.6904 L 377.4000,326.6904 L 377.4000,338.1904 L 351.1000,338.1904 z " style="fill: #ffffff; fill-opacity: 0.00; stroke: none;" id="ezcGraphPolygon_152"/><text id="ezcGraphTextBox_80_text" x="351.6000" text-length="24.8000px" y="335.6904" style="font-size: 10px; font-family: 'Arial'; fill: #2e3436; fill-opacity: 1.00; stroke: none;">12.9</text></g><g id="ezcGraphTextBox_82"><path d=" M 418.2000,348.4720 L 418.2000,336.9720 L 438.3000,336.9720 L 438.3000,348.4720 L 418.2000,348.4720 z " style="fill: #ffffff; fill-opacity: 0.00; stroke: none;" id="ezcGraphPolygon_153"/><text id="ezcGraphTextBox_82_text" x="418.7000" text-length="18.6000px" y="345.9720" style="font-size: 10px; font-family: 'Arial'; fill: #2e3436; fill-opacity: 1.00; stroke: none;">9.5</text></g><g id="ezcGraphTextBox_84"><path d=" M 162.2000,375.9904 L 162.2000,364.4904 L 182.3000,364.4904 L 182.3000,375.9904 L 162.2000,375.9904 z " style="fill: #ffffff; fill-opacity: 0.00; stroke: none;" id="ezcGraphPolygon_154"/><text id="ezcGraphTextBox_84_text" x="162.7000" text-length="18.6000px" y="373.4904" style="font-size: 10px; font-family: 'Arial'; fill: #2e3436; fill-opacity: 1.00; stroke: none;">0.4</text></g><g id="ezcGraphTextBox_86"><path d=" M 226.2000,375.3856 L 226.2000,363.8856 L 246.3000,363.8856 L 246.3000,375.3856 L 226.2000,375.3856 z " style="fill: #ffffff; fill-opacity: 0.00; stroke: none;" id="ezcGraphPolygon_155"/><text id="ezcGraphTextBox_86_text" x="226.7000" text-length="18.6000px" y="372.8856" style="font-size: 10px; font-family: 'Arial'; fill: #2e3436; fill-opacity: 1.00; stroke: none;">0.6</text></g><g id="ezcGraphTextBox_88"><path d=" M 290.2000,373.8736 L 290.2000,362.3736 L 310.3000,362.3736 L 310.3000,373.8736 L 290.2000,373.8736 z " style="fill: #ffffff; fill-opacity: 0.00; stroke: none;" id="ezcGraphPolygon_156"/><text id="ezcGraphTextBox_88_text" x="290.7000" text-length="18.6000px" y="371.3736" style="font-size: 10px; font-family: 'Arial'; fill: #2e3436; fill-opacity: 1.00; stroke: none;">1.1</text></g><g id="ezcGraphTextBox_90"><path d=" M 354.2000,372.6640 L 354.2000,361.1640 L 374.3000,361.1640 L 374.3000,372.6640 L 354.2000,372.6640 z " style="fill: #ffffff; fill-opacity: 0.00; stroke: none;" id="ezcGraphPolygon_157"/><text id="ezcGraphTextBox_90_text" x="354.7000" text-length="18.6000px" y="370.1640" style="font-size: 10px; font-family: 'Arial'; fill: #2e3436; fill-opacity: 1.00; stroke: none;">1.5</text></g><g id="ezcGraphTextBox_92"><path d=" M 418.2000,369.0352 L 418.2000,357.5352 L 438.3000,357.5352 L 438.3000,369.0352 L 418.2000,369.0352 z " style="fill: #ffffff; fill-opacity: 0.00; stroke: none;" id="ezcGraphPolygon_158"/><text id="ezcGraphTextBox_92_text" x="418.7000" text-length="18.6000px" y="366.5352" style="font-size: 10px; font-family: 'Arial'; fill: #2e3436; fill-opacity: 1.00; stroke: none;">2.7</text></g></g></svg>
