<?xml version="1.0"?>
<svg xmlns="http://www.w3.org/2000/svg" width="500" height="420" version="1.0" id="ezcGraph"><defs/><g id="ezcGraphChart" color-rendering="optimizeQuality" shape-rendering="geometricPrecision" text-rendering="optimizeLegibility"><path d=" M 0.0000,420.0000 L 0.0000,0.0000 L 500.0000,0.0000 L 500.0000,420.0000 L 0.0000,420.0000 z " style="fill: #eeeeec; fill-opacity: 1.00; stroke: none;" id="ezcGraphPolygon_1"/><path d=" M 0.0000,42.0000 L 0.0000,0.0000 L 500.0000,0.0000 L 500.0000,42.0000 L 0.0000,42.0000 z " style="fill: #000000; fill-opacity: 0.00; stroke: none;" id="ezcGraphPolygon_2"/><path d=" M 0.0000,420.0000 L 0.0000,42.0000 L 100.0000,42.0000 L 100.0000,420.0000 L 0.0000,420.0000 z " style="fill: #000000; fill-opacity: 0.00; stroke: none;" id="ezcGraphPolygon_4"/><path d=" M 2.0000,58.0000 L 2.0000,44.0000 L 16.0000,44.0000 L 16.0000,58.0000 L 2.0000,58.0000 z " style="fill: #3465a4; fill-opacity: 1.00; stroke: none; cursor: pointer;" id="ezcGraphPolygon_5" onclick="top.location = 'https://linux-hardware.org/?view=computers&amp;f=cpu_threads&amp;v=2&amp;p=-1'"/><path d=" M 2.0000,76.0000 L 2.0000,62.0000 L 16.0000,62.0000 L 16.0000,76.0000 L 2.0000,76.0000 z " style="fill: #4e9a06; fill-opacity: 1.00; stroke: none; cursor: pointer;" id="ezcGraphPolygon_7" onclick="top.location = 'https://linux-hardware.org/?view=computers&amp;f=cpu_threads&amp;v=1&amp;p=-1'"/><path d=" M 2.0000,94.0000 L 2.0000,80.0000 L 16.0000,80.0000 L 16.0000,94.0000 L 2.0000,94.0000 z " style="fill: #cc0000; fill-opacity: 1.00; stroke: none; cursor: pointer;" id="ezcGraphPolygon_9" onclick="top.location = 'https://linux-hardware.org/?view=computers&amp;f=cpu_threads&amp;v=&amp;p=-1'"/><path d=" M 100.0000,382.2000 L 500.0000,382.2000" style="fill: none; stroke: #2e3436; stroke-width: 1; stroke-opacity: 1.00; stroke-linecap: round; stroke-linejoin: round;" id="ezcGraphLine_11"/><path d=" M 492.0000,378.2000 L 500.0000,382.2000 L 492.0000,386.2000 L 492.0000,378.2000 z " style="fill: #2e3436; fill-opacity: 1.00; stroke: none;" id="ezcGraphPolygon_12"/><path d=" M 185.7143,79.8000 L 185.7143,382.2000" style="fill: none; stroke: #000000; stroke-width: 1; stroke-opacity: 0.00; stroke-linecap: round; stroke-linejoin: round;" id="ezcGraphLine_15"/><path d=" M 185.7143,379.2000 L 185.7143,385.2000" style="fill: none; stroke: #2e3436; stroke-width: 1; stroke-opacity: 1.00; stroke-linecap: round; stroke-linejoin: round;" id="ezcGraphLine_16"/><path d=" M 231.4286,79.8000 L 231.4286,382.2000" style="fill: none; stroke: #000000; stroke-width: 1; stroke-opacity: 0.00; stroke-linecap: round; stroke-linejoin: round;" id="ezcGraphLine_18"/><path d=" M 231.4286,379.2000 L 231.4286,385.2000" style="fill: none; stroke: #2e3436; stroke-width: 1; stroke-opacity: 1.00; stroke-linecap: round; stroke-linejoin: round;" id="ezcGraphLine_19"/><path d=" M 277.1429,79.8000 L 277.1429,382.2000" style="fill: none; stroke: #000000; stroke-width: 1; stroke-opacity: 0.00; stroke-linecap: round; stroke-linejoin: round;" id="ezcGraphLine_21"/><path d=" M 277.1429,379.2000 L 277.1429,385.2000" style="fill: none; stroke: #2e3436; stroke-width: 1; stroke-opacity: 1.00; stroke-linecap: round; stroke-linejoin: round;" id="ezcGraphLine_22"/><path d=" M 322.8571,79.8000 L 322.8571,382.2000" style="fill: none; stroke: #000000; stroke-width: 1; stroke-opacity: 0.00; stroke-linecap: round; stroke-linejoin: round;" id="ezcGraphLine_24"/><path d=" M 322.8571,379.2000 L 322.8571,385.2000" style="fill: none; stroke: #2e3436; stroke-width: 1; stroke-opacity: 1.00; stroke-linecap: round; stroke-linejoin: round;" id="ezcGraphLine_25"/><path d=" M 368.5714,79.8000 L 368.5714,382.2000" style="fill: none; stroke: #000000; stroke-width: 1; stroke-opacity: 0.00; stroke-linecap: round; stroke-linejoin: round;" id="ezcGraphLine_27"/><path d=" M 368.5714,379.2000 L 368.5714,385.2000" style="fill: none; stroke: #2e3436; stroke-width: 1; stroke-opacity: 1.00; stroke-linecap: round; stroke-linejoin: round;" id="ezcGraphLine_28"/><path d=" M 414.2857,79.8000 L 414.2857,382.2000" style="fill: none; stroke: #000000; stroke-width: 1; stroke-opacity: 0.00; stroke-linecap: round; stroke-linejoin: round;" id="ezcGraphLine_30"/><path d=" M 414.2857,379.2000 L 414.2857,385.2000" style="fill: none; stroke: #2e3436; stroke-width: 1; stroke-opacity: 1.00; stroke-linecap: round; stroke-linejoin: round;" id="ezcGraphLine_31"/><path d=" M 460.0000,79.8000 L 460.0000,382.2000" style="fill: none; stroke: #000000; stroke-width: 1; stroke-opacity: 0.00; stroke-linecap: round; stroke-linejoin: round;" id="ezcGraphLine_33"/><path d=" M 460.0000,379.2000 L 460.0000,385.2000" style="fill: none; stroke: #2e3436; stroke-width: 1; stroke-opacity: 1.00; stroke-linecap: round; stroke-linejoin: round;" id="ezcGraphLine_34"/><path d=" M 140.0000,420.0000 L 140.0000,42.0000" style="fill: none; stroke: #2e3436; stroke-width: 1; stroke-opacity: 1.00; stroke-linecap: round; stroke-linejoin: round;" id="ezcGraphLine_35"/><path d=" M 136.0000,50.0000 L 140.0000,42.0000 L 144.0000,50.0000 L 136.0000,50.0000 z " style="fill: #2e3436; fill-opacity: 1.00; stroke: none;" id="ezcGraphPolygon_36"/><path d=" M 140.0000,231.0000 L 460.0000,231.0000" style="fill: none; stroke: #000000; stroke-width: 1; stroke-opacity: 0.00; stroke-linecap: round; stroke-linejoin: round;" id="ezcGraphLine_39"/><path d=" M 140.0000,231.0000 L 143.0000,231.0000" style="fill: none; stroke: #2e3436; stroke-width: 1; stroke-opacity: 1.00; stroke-linecap: round; stroke-linejoin: round;" id="ezcGraphLine_40"/><path d=" M 140.0000,79.8000 L 460.0000,79.8000" style="fill: none; stroke: #000000; stroke-width: 1; stroke-opacity: 0.00; stroke-linecap: round; stroke-linejoin: round;" id="ezcGraphLine_42"/><path d=" M 140.0000,79.8000 L 143.0000,79.8000" style="fill: none; stroke: #2e3436; stroke-width: 1; stroke-opacity: 1.00; stroke-linecap: round; stroke-linejoin: round;" id="ezcGraphLine_43"/><path d=" M 162.8571,128.1840 L 162.8571,128.1840" style="fill: none; stroke: #3465a4; stroke-width: 1; stroke-opacity: 1.00; stroke-linecap: round; stroke-linejoin: round;" id="ezcGraphLine_45"/><path d=" M 162.8571,128.1840 L 208.5714,132.1152" style="fill: none; stroke: #3465a4; stroke-width: 1; stroke-opacity: 1.00; stroke-linecap: round; stroke-linejoin: round;" id="ezcGraphLine_47"/><path d=" M 208.5714,132.1152 L 254.2857,120.3216" style="fill: none; stroke: #3465a4; stroke-width: 1; stroke-opacity: 1.00; stroke-linecap: round; stroke-linejoin: round;" id="ezcGraphLine_49"/><path d=" M 254.2857,120.3216 L 300.0000,139.3728" style="fill: none; stroke: #3465a4; stroke-width: 1; stroke-opacity: 1.00; stroke-linecap: round; stroke-linejoin: round;" id="ezcGraphLine_51"/><path d=" M 300.0000,139.3728 L 345.7143,140.2800" style="fill: none; stroke: #3465a4; stroke-width: 1; stroke-opacity: 1.00; stroke-linecap: round; stroke-linejoin: round;" id="ezcGraphLine_53"/><path d=" M 345.7143,140.2800 L 391.4286,136.6512" style="fill: none; stroke: #3465a4; stroke-width: 1; stroke-opacity: 1.00; stroke-linecap: round; stroke-linejoin: round;" id="ezcGraphLine_55"/><path d=" M 391.4286,136.6512 L 437.1429,129.3936" style="fill: none; stroke: #3465a4; stroke-width: 1; stroke-opacity: 1.00; stroke-linecap: round; stroke-linejoin: round;" id="ezcGraphLine_57"/><path d=" M 162.8571,333.8160 L 162.8571,333.8160" style="fill: none; stroke: #4e9a06; stroke-width: 1; stroke-opacity: 1.00; stroke-linecap: round; stroke-linejoin: round;" id="ezcGraphLine_59"/><path d=" M 162.8571,333.8160 L 208.5714,329.8848" style="fill: none; stroke: #4e9a06; stroke-width: 1; stroke-opacity: 1.00; stroke-linecap: round; stroke-linejoin: round;" id="ezcGraphLine_61"/><path d=" M 208.5714,329.8848 L 254.2857,341.6784" style="fill: none; stroke: #4e9a06; stroke-width: 1; stroke-opacity: 1.00; stroke-linecap: round; stroke-linejoin: round;" id="ezcGraphLine_63"/><path d=" M 254.2857,341.6784 L 300.0000,322.6272" style="fill: none; stroke: #4e9a06; stroke-width: 1; stroke-opacity: 1.00; stroke-linecap: round; stroke-linejoin: round;" id="ezcGraphLine_65"/><path d=" M 300.0000,322.6272 L 345.7143,321.7200" style="fill: none; stroke: #4e9a06; stroke-width: 1; stroke-opacity: 1.00; stroke-linecap: round; stroke-linejoin: round;" id="ezcGraphLine_67"/><path d=" M 345.7143,321.7200 L 391.4286,325.3488" style="fill: none; stroke: #4e9a06; stroke-width: 1; stroke-opacity: 1.00; stroke-linecap: round; stroke-linejoin: round;" id="ezcGraphLine_69"/><path d=" M 391.4286,325.3488 L 437.1429,332.9088" style="fill: none; stroke: #4e9a06; stroke-width: 1; stroke-opacity: 1.00; stroke-linecap: round; stroke-linejoin: round;" id="ezcGraphLine_71"/><path d=" M 437.1429,381.5952 L 437.1429,381.5952" style="fill: none; stroke: #cc0000; stroke-width: 1; stroke-opacity: 1.00; stroke-linecap: round; stroke-linejoin: round;" id="ezcGraphLine_73"/><path d=" M 159.8571,131.1840 L 159.8571,125.1840 L 165.8571,125.1840 L 165.8571,131.1840 L 159.8571,131.1840 z " style="fill: #3465a4; fill-opacity: 1.00; stroke: none; cursor: pointer;" id="ezcGraphPolygon_75" onclick="top.location = 'https://linux-hardware.org/?view=computers&amp;f=cpu_threads&amp;v=2&amp;p=-1&amp;p=106'"/><path d=" M 205.5714,135.1152 L 205.5714,129.1152 L 211.5714,129.1152 L 211.5714,135.1152 L 205.5714,135.1152 z " style="fill: #3465a4; fill-opacity: 1.00; stroke: none; cursor: pointer;" id="ezcGraphPolygon_76" onclick="top.location = 'https://linux-hardware.org/?view=computers&amp;f=cpu_threads&amp;v=2&amp;p=-1&amp;p=108'"/><path d=" M 251.2857,123.3216 L 251.2857,117.3216 L 257.2857,117.3216 L 257.2857,123.3216 L 251.2857,123.3216 z " style="fill: #3465a4; fill-opacity: 1.00; stroke: none; cursor: pointer;" id="ezcGraphPolygon_77" onclick="top.location = 'https://linux-hardware.org/?view=computers&amp;f=cpu_threads&amp;v=2&amp;p=-1&amp;p=110'"/><path d=" M 297.0000,142.3728 L 297.0000,136.3728 L 303.0000,136.3728 L 303.0000,142.3728 L 297.0000,142.3728 z " style="fill: #3465a4; fill-opacity: 1.00; stroke: none; cursor: pointer;" id="ezcGraphPolygon_78" onclick="top.location = 'https://linux-hardware.org/?view=computers&amp;f=cpu_threads&amp;v=2&amp;p=-1&amp;p=112'"/><path d=" M 342.7143,143.2800 L 342.7143,137.2800 L 348.7143,137.2800 L 348.7143,143.2800 L 342.7143,143.2800 z " style="fill: #3465a4; fill-opacity: 1.00; stroke: none; cursor: pointer;" id="ezcGraphPolygon_79" onclick="top.location = 'https://linux-hardware.org/?view=computers&amp;f=cpu_threads&amp;v=2&amp;p=-1&amp;p=114'"/><path d=" M 388.4286,139.6512 L 388.4286,133.6512 L 394.4286,133.6512 L 394.4286,139.6512 L 388.4286,139.6512 z " style="fill: #3465a4; fill-opacity: 1.00; stroke: none; cursor: pointer;" id="ezcGraphPolygon_80" onclick="top.location = 'https://linux-hardware.org/?view=computers&amp;f=cpu_threads&amp;v=2&amp;p=-1&amp;p=116'"/><path d=" M 434.1429,132.3936 L 434.1429,126.3936 L 440.1429,126.3936 L 440.1429,132.3936 L 434.1429,132.3936 z " style="fill: #3465a4; fill-opacity: 1.00; stroke: none; cursor: pointer;" id="ezcGraphPolygon_81" onclick="top.location = 'https://linux-hardware.org/?view=computers&amp;f=cpu_threads&amp;v=2&amp;p=-1&amp;p=118'"/><path d=" M 159.8571,336.8160 L 159.8571,330.8160 L 165.8571,330.8160 L 165.8571,336.8160 L 159.8571,336.8160 z " style="fill: #4e9a06; fill-opacity: 1.00; stroke: none; cursor: pointer;" id="ezcGraphPolygon_82" onclick="top.location = 'https://linux-hardware.org/?view=computers&amp;f=cpu_threads&amp;v=1&amp;p=-1&amp;p=106'"/><path d=" M 205.5714,332.8848 L 205.5714,326.8848 L 211.5714,326.8848 L 211.5714,332.8848 L 205.5714,332.8848 z " style="fill: #4e9a06; fill-opacity: 1.00; stroke: none; cursor: pointer;" id="ezcGraphPolygon_83" onclick="top.location = 'https://linux-hardware.org/?view=computers&amp;f=cpu_threads&amp;v=1&amp;p=-1&amp;p=108'"/><path d=" M 251.2857,344.6784 L 251.2857,338.6784 L 257.2857,338.6784 L 257.2857,344.6784 L 251.2857,344.6784 z " style="fill: #4e9a06; fill-opacity: 1.00; stroke: none; cursor: pointer;" id="ezcGraphPolygon_84" onclick="top.location = 'https://linux-hardware.org/?view=computers&amp;f=cpu_threads&amp;v=1&amp;p=-1&amp;p=110'"/><path d=" M 297.0000,325.6272 L 297.0000,319.6272 L 303.0000,319.6272 L 303.0000,325.6272 L 297.0000,325.6272 z " style="fill: #4e9a06; fill-opacity: 1.00; stroke: none; cursor: pointer;" id="ezcGraphPolygon_85" onclick="top.location = 'https://linux-hardware.org/?view=computers&amp;f=cpu_threads&amp;v=1&amp;p=-1&amp;p=112'"/><path d=" M 342.7143,324.7200 L 342.7143,318.7200 L 348.7143,318.7200 L 348.7143,324.7200 L 342.7143,324.7200 z " style="fill: #4e9a06; fill-opacity: 1.00; stroke: none; cursor: pointer;" id="ezcGraphPolygon_86" onclick="top.location = 'https://linux-hardware.org/?view=computers&amp;f=cpu_threads&amp;v=1&amp;p=-1&amp;p=114'"/><path d=" M 388.4286,328.3488 L 388.4286,322.3488 L 394.4286,322.3488 L 394.4286,328.3488 L 388.4286,328.3488 z " style="fill: #4e9a06; fill-opacity: 1.00; stroke: none; cursor: pointer;" id="ezcGraphPolygon_87" onclick="top.location = 'https://linux-hardware.org/?view=computers&amp;f=cpu_threads&amp;v=1&amp;p=-1&amp;p=116'"/><path d=" M 434.1429,335.9088 L 434.1429,329.9088 L 440.1429,329.9088 L 440.1429,335.9088 L 434.1429,335.9088 z " style="fill: #4e9a06; fill-opacity: 1.00; stroke: none; cursor: pointer;" id="ezcGraphPolygon_88" onclick="top.location = 'https://linux-hardware.org/?view=computers&amp;f=cpu_threads&amp;v=1&amp;p=-1&amp;p=118'"/><path d=" M 434.1429,384.5952 L 434.1429,378.5952 L 440.1429,378.5952 L 440.1429,384.5952 L 434.1429,384.5952 z " style="fill: #cc0000; fill-opacity: 1.00; stroke: none; cursor: pointer;" id="ezcGraphPolygon_89" onclick="top.location = 'https://linux-hardware.org/?view=computers&amp;f=cpu_threads&amp;v=&amp;p=-1&amp;p=118'"/><g id="ezcGraphTextBox_3"><path d=" M 132.9000,42.0000 L 132.9000,0.5000 L 367.6000,0.5000 L 367.6000,42.0000 L 132.9000,42.0000 z " style="fill: #ffffff; fill-opacity: 0.00; stroke: none;" id="ezcGraphPolygon_90"/><text id="ezcGraphTextBox_3_text" x="133.4000" text-length="233.2000px" y="35.0000" style="font-size: 40px; font-family: 'Arial'; fill: #2e3436; fill-opacity: 1.00; stroke: none;">CPU Threads</text></g><g id="ezcGraphTextBox_6" style=" cursor: pointer;" onclick="top.location = 'https://linux-hardware.org/?view=computers&amp;f=cpu_threads&amp;v=2&amp;p=-1'"><path d=" M 16.5000,59.0000 L 16.5000,43.5000 L 26.6800,43.5000 L 26.6800,59.0000 L 16.5000,59.0000 z " style="fill: #ffffff; fill-opacity: 0.00; stroke: none;" id="ezcGraphPolygon_91"/><text id="ezcGraphTextBox_6_text" x="17.0000" text-length="8.6800px" y="55.9000" style="font-size: 14px; font-family: 'Arial'; fill: #2e3436; fill-opacity: 1.00; stroke: none;">2</text></g><g id="ezcGraphTextBox_8" style=" cursor: pointer;" onclick="top.location = 'https://linux-hardware.org/?view=computers&amp;f=cpu_threads&amp;v=1&amp;p=-1'"><path d=" M 16.5000,77.0000 L 16.5000,61.5000 L 26.6800,61.5000 L 26.6800,77.0000 L 16.5000,77.0000 z " style="fill: #ffffff; fill-opacity: 0.00; stroke: none;" id="ezcGraphPolygon_92"/><text id="ezcGraphTextBox_8_text" x="17.0000" text-length="8.6800px" y="73.9000" style="font-size: 14px; font-family: 'Arial'; fill: #2e3436; fill-opacity: 1.00; stroke: none;">1</text></g><g id="ezcGraphTextBox_10" style=" cursor: pointer;" onclick="top.location = 'https://linux-hardware.org/?view=computers&amp;f=cpu_threads&amp;v=&amp;p=-1'"><path d=" M 16.5000,95.0000 L 16.5000,79.5000 L 69.9400,79.5000 L 69.9400,95.0000 L 16.5000,95.0000 z " style="fill: #ffffff; fill-opacity: 0.00; stroke: none;" id="ezcGraphPolygon_93"/><text id="ezcGraphTextBox_10_text" x="17.0000" text-length="51.9400px" y="91.9000" style="font-size: 14px; font-family: 'Arial'; fill: #2e3436; fill-opacity: 1.00; stroke: none;">Unknown</text></g><g id="ezcGraphTextBox_13" transform="rotate( 0.00 493.0000 375.2000 )"><path d=" M 460.4000,381.2000 L 460.4000,365.7000 L 499.0000,365.7000 L 499.0000,381.2000 L 460.4000,381.2000 z " style="fill: #ffffff; fill-opacity: 0.00; stroke: none;" id="ezcGraphPolygon_94"/><text id="ezcGraphTextBox_13_text" x="460.9000" text-length="37.1000px" y="378.1000" style="font-size: 14px; font-family: 'Arial'; fill: #2e3436; fill-opacity: 1.00; stroke: none;">Time </text></g><g id="ezcGraphTextBox_14"><path d=" M 144.9971,413.3000 L 144.9971,383.7000 L 181.2171,383.7000 L 181.2171,413.3000 L 144.9971,413.3000 z " style="fill: #ffffff; fill-opacity: 0.00; stroke: none;" id="ezcGraphPolygon_95"/><text id="ezcGraphTextBox_14_text" x="151.7271" text-length="22.2600px" y="396.1000" style="font-size: 14px; font-family: 'Arial'; fill: #2e3436; fill-opacity: 1.00; stroke: none;">Oct</text><text id="ezcGraphTextBox_14_text" x="145.4971" text-length="34.7200px" y="411.5000" style="font-size: 14px; font-family: 'Arial'; fill: #2e3436; fill-opacity: 1.00; stroke: none;">2022</text></g><g id="ezcGraphTextBox_17"><path d=" M 190.7114,413.3000 L 190.7114,383.7000 L 226.9314,383.7000 L 226.9314,413.3000 L 190.7114,413.3000 z " style="fill: #ffffff; fill-opacity: 0.00; stroke: none;" id="ezcGraphPolygon_96"/><text id="ezcGraphTextBox_17_text" x="197.4414" text-length="22.2600px" y="396.1000" style="font-size: 14px; font-family: 'Arial'; fill: #2e3436; fill-opacity: 1.00; stroke: none;">Dec</text><text id="ezcGraphTextBox_17_text" x="191.2114" text-length="34.7200px" y="411.5000" style="font-size: 14px; font-family: 'Arial'; fill: #2e3436; fill-opacity: 1.00; stroke: none;">2022</text></g><g id="ezcGraphTextBox_20"><path d=" M 236.4257,413.3000 L 236.4257,383.7000 L 272.6457,383.7000 L 272.6457,413.3000 L 236.4257,413.3000 z " style="fill: #ffffff; fill-opacity: 0.00; stroke: none;" id="ezcGraphPolygon_97"/><text id="ezcGraphTextBox_20_text" x="243.1557" text-length="22.2600px" y="396.1000" style="font-size: 14px; font-family: 'Arial'; fill: #2e3436; fill-opacity: 1.00; stroke: none;">Feb</text><text id="ezcGraphTextBox_20_text" x="236.9257" text-length="34.7200px" y="411.5000" style="font-size: 14px; font-family: 'Arial'; fill: #2e3436; fill-opacity: 1.00; stroke: none;">2023</text></g><g id="ezcGraphTextBox_23"><path d=" M 282.1400,413.3000 L 282.1400,383.7000 L 318.3600,383.7000 L 318.3600,413.3000 L 282.1400,413.3000 z " style="fill: #ffffff; fill-opacity: 0.00; stroke: none;" id="ezcGraphPolygon_98"/><text id="ezcGraphTextBox_23_text" x="288.8700" text-length="22.2600px" y="396.1000" style="font-size: 14px; font-family: 'Arial'; fill: #2e3436; fill-opacity: 1.00; stroke: none;">Apr</text><text id="ezcGraphTextBox_23_text" x="282.6400" text-length="34.7200px" y="411.5000" style="font-size: 14px; font-family: 'Arial'; fill: #2e3436; fill-opacity: 1.00; stroke: none;">2023</text></g><g id="ezcGraphTextBox_26"><path d=" M 327.8543,413.3000 L 327.8543,383.7000 L 364.0743,383.7000 L 364.0743,413.3000 L 327.8543,413.3000 z " style="fill: #ffffff; fill-opacity: 0.00; stroke: none;" id="ezcGraphPolygon_99"/><text id="ezcGraphTextBox_26_text" x="334.5843" text-length="22.2600px" y="396.1000" style="font-size: 14px; font-family: 'Arial'; fill: #2e3436; fill-opacity: 1.00; stroke: none;">Jun</text><text id="ezcGraphTextBox_26_text" x="328.3543" text-length="34.7200px" y="411.5000" style="font-size: 14px; font-family: 'Arial'; fill: #2e3436; fill-opacity: 1.00; stroke: none;">2023</text></g><g id="ezcGraphTextBox_29"><path d=" M 373.5686,413.3000 L 373.5686,383.7000 L 409.7886,383.7000 L 409.7886,413.3000 L 373.5686,413.3000 z " style="fill: #ffffff; fill-opacity: 0.00; stroke: none;" id="ezcGraphPolygon_100"/><text id="ezcGraphTextBox_29_text" x="380.2986" text-length="22.2600px" y="396.1000" style="font-size: 14px; font-family: 'Arial'; fill: #2e3436; fill-opacity: 1.00; stroke: none;">Aug</text><text id="ezcGraphTextBox_29_text" x="374.0686" text-length="34.7200px" y="411.5000" style="font-size: 14px; font-family: 'Arial'; fill: #2e3436; fill-opacity: 1.00; stroke: none;">2023</text></g><g id="ezcGraphTextBox_32"><path d=" M 419.2829,413.3000 L 419.2829,383.7000 L 455.5029,383.7000 L 455.5029,413.3000 L 419.2829,413.3000 z " style="fill: #ffffff; fill-opacity: 0.00; stroke: none;" id="ezcGraphPolygon_101"/><text id="ezcGraphTextBox_32_text" x="426.0129" text-length="22.2600px" y="396.1000" style="font-size: 14px; font-family: 'Arial'; fill: #2e3436; fill-opacity: 1.00; stroke: none;">Oct</text><text id="ezcGraphTextBox_32_text" x="419.7829" text-length="34.7200px" y="411.5000" style="font-size: 14px; font-family: 'Arial'; fill: #2e3436; fill-opacity: 1.00; stroke: none;">2023</text></g><g id="ezcGraphTextBox_37" transform="rotate( 0.00 147.0000 49.0000 )"><path d=" M 141.5000,59.0000 L 141.5000,43.5000 L 373.0200,43.5000 L 373.0200,59.0000 L 141.5000,59.0000 z " style="fill: #ffffff; fill-opacity: 0.00; stroke: none;" id="ezcGraphPolygon_102"/><text id="ezcGraphTextBox_37_text" x="142.0000" text-length="230.0200px" y="55.9000" style="font-size: 14px; font-family: 'Arial'; fill: #2e3436; fill-opacity: 1.00; stroke: none;">Computers by "CPU Threads" in %</text></g><g id="ezcGraphTextBox_38"><path d=" M 128.8200,381.2000 L 128.8200,365.7000 L 139.0000,365.7000 L 139.0000,381.2000 L 128.8200,381.2000 z " style="fill: #ffffff; fill-opacity: 0.00; stroke: none;" id="ezcGraphPolygon_103"/><text id="ezcGraphTextBox_38_text" x="129.3200" text-length="8.6800px" y="378.1000" style="font-size: 14px; font-family: 'Arial'; fill: #2e3436; fill-opacity: 1.00; stroke: none;">0</text></g><g id="ezcGraphTextBox_41"><path d=" M 120.1400,230.0000 L 120.1400,214.5000 L 139.0000,214.5000 L 139.0000,230.0000 L 120.1400,230.0000 z " style="fill: #ffffff; fill-opacity: 0.00; stroke: none;" id="ezcGraphPolygon_104"/><text id="ezcGraphTextBox_41_text" x="120.6400" text-length="17.3600px" y="226.9000" style="font-size: 14px; font-family: 'Arial'; fill: #2e3436; fill-opacity: 1.00; stroke: none;">50</text></g><g id="ezcGraphTextBox_44"><path d=" M 111.4600,96.8000 L 111.4600,81.3000 L 139.0000,81.3000 L 139.0000,96.8000 L 111.4600,96.8000 z " style="fill: #ffffff; fill-opacity: 0.00; stroke: none;" id="ezcGraphPolygon_105"/><text id="ezcGraphTextBox_44_text" x="111.9600" text-length="26.0400px" y="93.7000" style="font-size: 14px; font-family: 'Arial'; fill: #2e3436; fill-opacity: 1.00; stroke: none;">100</text></g><g id="ezcGraphTextBox_46"><path d=" M 156.1571,123.1840 L 156.1571,111.6840 L 170.0571,111.6840 L 170.0571,123.1840 L 156.1571,123.1840 z " style="fill: #ffffff; fill-opacity: 0.00; stroke: none;" id="ezcGraphPolygon_106"/><text id="ezcGraphTextBox_46_text" x="156.6571" text-length="12.4000px" y="120.6840" style="font-size: 10px; font-family: 'Arial'; fill: #2e3436; fill-opacity: 1.00; stroke: none;">84</text></g><g id="ezcGraphTextBox_48"><path d=" M 195.6714,127.1152 L 195.6714,115.6152 L 221.9714,115.6152 L 221.9714,127.1152 L 195.6714,127.1152 z " style="fill: #ffffff; fill-opacity: 0.00; stroke: none;" id="ezcGraphPolygon_107"/><text id="ezcGraphTextBox_48_text" x="196.1714" text-length="24.8000px" y="124.6152" style="font-size: 10px; font-family: 'Arial'; fill: #2e3436; fill-opacity: 1.00; stroke: none;">82.7</text></g><g id="ezcGraphTextBox_50"><path d=" M 241.3857,115.3216 L 241.3857,103.8216 L 267.6857,103.8216 L 267.6857,115.3216 L 241.3857,115.3216 z " style="fill: #ffffff; fill-opacity: 0.00; stroke: none;" id="ezcGraphPolygon_108"/><text id="ezcGraphTextBox_50_text" x="241.8857" text-length="24.8000px" y="112.8216" style="font-size: 10px; font-family: 'Arial'; fill: #2e3436; fill-opacity: 1.00; stroke: none;">86.6</text></g><g id="ezcGraphTextBox_52"><path d=" M 287.1000,134.3728 L 287.1000,122.8728 L 313.4000,122.8728 L 313.4000,134.3728 L 287.1000,134.3728 z " style="fill: #ffffff; fill-opacity: 0.00; stroke: none;" id="ezcGraphPolygon_109"/><text id="ezcGraphTextBox_52_text" x="287.6000" text-length="24.8000px" y="131.8728" style="font-size: 10px; font-family: 'Arial'; fill: #2e3436; fill-opacity: 1.00; stroke: none;">80.3</text></g><g id="ezcGraphTextBox_54"><path d=" M 339.0143,135.2800 L 339.0143,123.7800 L 352.9143,123.7800 L 352.9143,135.2800 L 339.0143,135.2800 z " style="fill: #ffffff; fill-opacity: 0.00; stroke: none;" id="ezcGraphPolygon_110"/><text id="ezcGraphTextBox_54_text" x="339.5143" text-length="12.4000px" y="132.7800" style="font-size: 10px; font-family: 'Arial'; fill: #2e3436; fill-opacity: 1.00; stroke: none;">80</text></g><g id="ezcGraphTextBox_56"><path d=" M 378.5286,131.6512 L 378.5286,120.1512 L 404.8286,120.1512 L 404.8286,131.6512 L 378.5286,131.6512 z " style="fill: #ffffff; fill-opacity: 0.00; stroke: none;" id="ezcGraphPolygon_111"/><text id="ezcGraphTextBox_56_text" x="379.0286" text-length="24.8000px" y="129.1512" style="font-size: 10px; font-family: 'Arial'; fill: #2e3436; fill-opacity: 1.00; stroke: none;">81.2</text></g><g id="ezcGraphTextBox_58"><path d=" M 424.2429,124.3936 L 424.2429,112.8936 L 450.5429,112.8936 L 450.5429,124.3936 L 424.2429,124.3936 z " style="fill: #ffffff; fill-opacity: 0.00; stroke: none;" id="ezcGraphPolygon_112"/><text id="ezcGraphTextBox_58_text" x="424.7429" text-length="24.8000px" y="121.8936" style="font-size: 10px; font-family: 'Arial'; fill: #2e3436; fill-opacity: 1.00; stroke: none;">83.6</text></g><g id="ezcGraphTextBox_60"><path d=" M 156.1571,328.8160 L 156.1571,317.3160 L 170.0571,317.3160 L 170.0571,328.8160 L 156.1571,328.8160 z " style="fill: #ffffff; fill-opacity: 0.00; stroke: none;" id="ezcGraphPolygon_113"/><text id="ezcGraphTextBox_60_text" x="156.6571" text-length="12.4000px" y="326.3160" style="font-size: 10px; font-family: 'Arial'; fill: #2e3436; fill-opacity: 1.00; stroke: none;">16</text></g><g id="ezcGraphTextBox_62"><path d=" M 195.6714,324.8848 L 195.6714,313.3848 L 221.9714,313.3848 L 221.9714,324.8848 L 195.6714,324.8848 z " style="fill: #ffffff; fill-opacity: 0.00; stroke: none;" id="ezcGraphPolygon_114"/><text id="ezcGraphTextBox_62_text" x="196.1714" text-length="24.8000px" y="322.3848" style="font-size: 10px; font-family: 'Arial'; fill: #2e3436; fill-opacity: 1.00; stroke: none;">17.3</text></g><g id="ezcGraphTextBox_64"><path d=" M 241.3857,336.6784 L 241.3857,325.1784 L 267.6857,325.1784 L 267.6857,336.6784 L 241.3857,336.6784 z " style="fill: #ffffff; fill-opacity: 0.00; stroke: none;" id="ezcGraphPolygon_115"/><text id="ezcGraphTextBox_64_text" x="241.8857" text-length="24.8000px" y="334.1784" style="font-size: 10px; font-family: 'Arial'; fill: #2e3436; fill-opacity: 1.00; stroke: none;">13.4</text></g><g id="ezcGraphTextBox_66"><path d=" M 287.1000,317.6272 L 287.1000,306.1272 L 313.4000,306.1272 L 313.4000,317.6272 L 287.1000,317.6272 z " style="fill: #ffffff; fill-opacity: 0.00; stroke: none;" id="ezcGraphPolygon_116"/><text id="ezcGraphTextBox_66_text" x="287.6000" text-length="24.8000px" y="315.1272" style="font-size: 10px; font-family: 'Arial'; fill: #2e3436; fill-opacity: 1.00; stroke: none;">19.7</text></g><g id="ezcGraphTextBox_68"><path d=" M 339.0143,316.7200 L 339.0143,305.2200 L 352.9143,305.2200 L 352.9143,316.7200 L 339.0143,316.7200 z " style="fill: #ffffff; fill-opacity: 0.00; stroke: none;" id="ezcGraphPolygon_117"/><text id="ezcGraphTextBox_68_text" x="339.5143" text-length="12.4000px" y="314.2200" style="font-size: 10px; font-family: 'Arial'; fill: #2e3436; fill-opacity: 1.00; stroke: none;">20</text></g><g id="ezcGraphTextBox_70"><path d=" M 378.5286,320.3488 L 378.5286,308.8488 L 404.8286,308.8488 L 404.8286,320.3488 L 378.5286,320.3488 z " style="fill: #ffffff; fill-opacity: 0.00; stroke: none;" id="ezcGraphPolygon_118"/><text id="ezcGraphTextBox_70_text" x="379.0286" text-length="24.8000px" y="317.8488" style="font-size: 10px; font-family: 'Arial'; fill: #2e3436; fill-opacity: 1.00; stroke: none;">18.8</text></g><g id="ezcGraphTextBox_72"><path d=" M 424.2429,327.9088 L 424.2429,316.4088 L 450.5429,316.4088 L 450.5429,327.9088 L 424.2429,327.9088 z " style="fill: #ffffff; fill-opacity: 0.00; stroke: none;" id="ezcGraphPolygon_119"/><text id="ezcGraphTextBox_72_text" x="424.7429" text-length="24.8000px" y="325.4088" style="font-size: 10px; font-family: 'Arial'; fill: #2e3436; fill-opacity: 1.00; stroke: none;">16.3</text></g><g id="ezcGraphTextBox_74"><path d=" M 427.3429,376.5952 L 427.3429,365.0952 L 447.4429,365.0952 L 447.4429,376.5952 L 427.3429,376.5952 z " style="fill: #ffffff; fill-opacity: 0.00; stroke: none;" id="ezcGraphPolygon_120"/><text id="ezcGraphTextBox_74_text" x="427.8429" text-length="18.6000px" y="374.0952" style="font-size: 10px; font-family: 'Arial'; fill: #2e3436; fill-opacity: 1.00; stroke: none;">0.2</text></g></g></svg>
