<?xml version="1.0"?>
<svg xmlns="http://www.w3.org/2000/svg" width="500" height="420" version="1.0" id="ezcGraph"><defs/><g id="ezcGraphChart" color-rendering="optimizeQuality" shape-rendering="geometricPrecision" text-rendering="optimizeLegibility"><path d=" M 0.0000,420.0000 L 0.0000,0.0000 L 500.0000,0.0000 L 500.0000,420.0000 L 0.0000,420.0000 z " style="fill: #eeeeec; fill-opacity: 1.00; stroke: none;" id="ezcGraphPolygon_1"/><path d=" M 0.0000,42.0000 L 0.0000,0.0000 L 500.0000,0.0000 L 500.0000,42.0000 L 0.0000,42.0000 z " style="fill: #000000; fill-opacity: 0.00; stroke: none;" id="ezcGraphPolygon_2"/><path d="M 260.56,237.68 L 373.06,237.68 A 112.50,112.50 0 0,1 308.79,339.32 z" style="fill: #3465a4; fill-opacity: 1.00; stroke: none; cursor: pointer;" id="ezcGraphCircleSector_4" onclick="top.location = 'https://linux-hardware.org/?view=computers&amp;f=storage_model&amp;v=AMD+FCH+SATA+Controller+%5BAHCI+mode%5D&amp;p=-1'"/><path d="M 261.36,238.18 L 372.56,238.18 A 112.00,112.00 0 0,1 309.03,338.65 z" style="fill: none; stroke: #1a3352; stroke-width: 1; stroke-opacity: 1.00; stroke-linecap: round; stroke-linejoin: round;" id="ezcGraphCircleSector_5"/><path d="M 250.00,231.00 L 298.23,332.64 A 112.50,112.50 0 0,1 263.56,342.68 z" style="fill: #4e9a06; fill-opacity: 1.00; stroke: none; cursor: pointer;" id="ezcGraphCircleSector_6" onclick="top.location = 'https://linux-hardware.org/?view=computers&amp;f=storage_model&amp;v=Intel+Sunrise+Point-LP+SATA+Controller+%5BAHCI+mode%5D&amp;p=-1'"/><path d="M 250.87,233.99 L 297.56,332.40 A 112.00,112.00 0 0,1 264.00,342.12 z" style="fill: none; stroke: #274d03; stroke-width: 1; stroke-opacity: 1.00; stroke-linecap: round; stroke-linejoin: round;" id="ezcGraphCircleSector_7"/><path d="M 250.00,231.00 L 263.56,342.68 A 112.50,112.50 0 0,1 227.50,341.23 z" style="fill: #cc0000; fill-opacity: 1.00; stroke: none; cursor: pointer;" id="ezcGraphCircleSector_8" onclick="top.location = 'https://linux-hardware.org/?view=computers&amp;f=storage_model&amp;v=Intel+6+Series%2FC200+Series+Chipset+Family+6+port+Desktop+SATA+AHCI+Controller&amp;p=-1'"/><path d="M 249.87,234.11 L 263.00,342.24 A 112.00,112.00 0 0,1 228.09,340.84 z" style="fill: none; stroke: #660000; stroke-width: 1; stroke-opacity: 1.00; stroke-linecap: round; stroke-linejoin: round;" id="ezcGraphCircleSector_9"/><path d="M 250.00,231.00 L 227.50,341.23 A 112.50,112.50 0 0,1 193.75,328.43 z" style="fill: #edd400; fill-opacity: 1.00; stroke: none; cursor: pointer;" id="ezcGraphCircleSector_10" onclick="top.location = 'https://linux-hardware.org/?view=computers&amp;f=storage_model&amp;v=AMD+FCH+SATA+Controller+%5BIDE+mode%5D&amp;p=-1'"/><path d="M 248.89,233.91 L 227.11,340.64 A 112.00,112.00 0 0,1 194.43,328.24 z" style="fill: none; stroke: #776a00; stroke-width: 1; stroke-opacity: 1.00; stroke-linecap: round; stroke-linejoin: round;" id="ezcGraphCircleSector_11"/><path d="M 250.00,231.00 L 193.75,328.43 A 112.50,112.50 0 0,1 178.85,318.14 z" style="fill: #75505b; fill-opacity: 1.00; stroke: none; cursor: pointer;" id="ezcGraphCircleSector_12" onclick="top.location = 'https://linux-hardware.org/?view=computers&amp;f=storage_model&amp;v=Silicon+Integrated+Systems+%5BSiS%5D+5513+IDE+Controller&amp;p=-1'"/><path d="M 246.47,236.11 L 193.57,327.74 A 112.00,112.00 0 0,1 179.55,318.07 z" style="fill: none; stroke: #3b282e; stroke-width: 1; stroke-opacity: 1.00; stroke-linecap: round; stroke-linejoin: round;" id="ezcGraphCircleSector_13"/><path d="M 250.00,231.00 L 178.85,318.14 A 112.50,112.50 0 1,1 362.50,231.00 z" style="fill: #f57900; fill-opacity: 1.00; stroke: none;" id="ezcGraphCircleSector_14"/><path d="M 249.76,230.50 L 178.78,317.44 A 112.00,112.00 0 1,1 362.00,230.50 z" style="fill: none; stroke: #7b3d00; stroke-width: 1; stroke-opacity: 1.00; stroke-linecap: round; stroke-linejoin: round;" id="ezcGraphCircleSector_15"/><path d=" M 214.2756,155.7125 L 190.5584,118.0000" style="fill: none; stroke: #000000; stroke-width: 1; stroke-opacity: 1.00; stroke-linecap: round; stroke-linejoin: round;" id="ezcGraphLine_16"/><ellipse cx="214.2756" cy="155.7125" rx="3.0000" ry="3.0000" style="fill: #000000; fill-opacity: 1.00; stroke: none;" id="ezcGraphCircle_17"/><ellipse cx="190.5584" cy="118.0000" rx="3.0000" ry="3.0000" style="fill: #000000; fill-opacity: 1.00; stroke: none;" id="ezcGraphCircle_18"/><path d=" M 202.6613,299.5820 L 161.3203,324.7500" style="fill: none; stroke: #000000; stroke-width: 1; stroke-opacity: 1.00; stroke-linecap: round; stroke-linejoin: round;" id="ezcGraphLine_20"/><ellipse cx="202.6613" cy="299.5820" rx="3.0000" ry="3.0000" style="fill: #000000; fill-opacity: 1.00; stroke: none;" id="ezcGraphCircle_21"/><ellipse cx="161.3203" cy="324.7500" rx="3.0000" ry="3.0000" style="fill: #000000; fill-opacity: 1.00; stroke: none;" id="ezcGraphCircle_22"/><path d=" M 220.4496,308.9180 L 220.4496,362.2500" style="fill: none; stroke: #000000; stroke-width: 1; stroke-opacity: 1.00; stroke-linecap: round; stroke-linejoin: round;" id="ezcGraphLine_24"/><ellipse cx="220.4496" cy="308.9180" rx="3.0000" ry="3.0000" style="fill: #000000; fill-opacity: 1.00; stroke: none;" id="ezcGraphCircle_25"/><ellipse cx="220.4496" cy="362.2500" rx="3.0000" ry="3.0000" style="fill: #000000; fill-opacity: 1.00; stroke: none;" id="ezcGraphCircle_26"/><path d=" M 246.6445,314.2657 L 245.0000,399.7500" style="fill: none; stroke: #000000; stroke-width: 1; stroke-opacity: 1.00; stroke-linecap: round; stroke-linejoin: round;" id="ezcGraphLine_28"/><ellipse cx="246.6445" cy="314.2657" rx="3.0000" ry="3.0000" style="fill: #000000; fill-opacity: 1.00; stroke: none;" id="ezcGraphCircle_29"/><ellipse cx="245.0000" cy="399.7500" rx="3.0000" ry="3.0000" style="fill: #000000; fill-opacity: 1.00; stroke: none;" id="ezcGraphCircle_30"/><path d=" M 330.9974,282.2196 L 357.4692,304.0000" style="fill: none; stroke: #000000; stroke-width: 1; stroke-opacity: 1.00; stroke-linecap: round; stroke-linejoin: round;" id="ezcGraphLine_32"/><ellipse cx="330.9974" cy="282.2196" rx="3.0000" ry="3.0000" style="fill: #000000; fill-opacity: 1.00; stroke: none;" id="ezcGraphCircle_33"/><ellipse cx="357.4692" cy="304.0000" rx="3.0000" ry="3.0000" style="fill: #000000; fill-opacity: 1.00; stroke: none;" id="ezcGraphCircle_34"/><path d=" M 273.1848,311.0432 L 291.0000,351.0000" style="fill: none; stroke: #000000; stroke-width: 1; stroke-opacity: 1.00; stroke-linecap: round; stroke-linejoin: round;" id="ezcGraphLine_36"/><ellipse cx="273.1848" cy="311.0432" rx="3.0000" ry="3.0000" style="fill: #000000; fill-opacity: 1.00; stroke: none;" id="ezcGraphCircle_37"/><ellipse cx="291.0000" cy="351.0000" rx="3.0000" ry="3.0000" style="fill: #000000; fill-opacity: 1.00; stroke: none;" id="ezcGraphCircle_38"/><g id="ezcGraphTextBox_3"><path d=" M 111.7000,42.0000 L 111.7000,0.5000 L 388.8000,0.5000 L 388.8000,42.0000 L 111.7000,42.0000 z " style="fill: #ffffff; fill-opacity: 0.00; stroke: none;" id="ezcGraphPolygon_40"/><text id="ezcGraphTextBox_3_text" x="112.2000" text-length="275.6000px" y="35.0000" style="font-size: 40px; font-family: 'Arial'; fill: #2e3436; fill-opacity: 1.00; stroke: none;">Storage Model</text></g><g id="ezcGraphTextBox_19"><path d=" M 61.6284,127.2500 L 61.6284,109.2500 L 185.5584,109.2500 L 185.5584,127.2500 L 61.6284,127.2500 z " style="fill: #ffffff; fill-opacity: 0.00; stroke: none;" id="ezcGraphPolygon_41"/><text id="ezcGraphTextBox_19_text" x="62.1284" text-length="122.4300px" y="123.7750" style="font-size: 16px; font-family: 'Arial'; fill: #2e3436; fill-opacity: 1.00; stroke: none;">Others (64.1%)</text></g><g id="ezcGraphTextBox_23" style=" cursor: pointer;" onclick="top.location = 'https://linux-hardware.org/?view=computers&amp;f=storage_model&amp;v=Silicon+Integrated+Systems+%5BSiS%5D+5513+IDE+Controller&amp;p=-1'"><path d=" M 14.9003,342.3000 L 14.9003,307.7000 L 156.3203,307.7000 L 156.3203,342.3000 L 14.9003,342.3000 z " style="fill: #ffffff; fill-opacity: 0.00; stroke: none;" id="ezcGraphPolygon_42"/><text id="ezcGraphTextBox_23_text" x="15.4003" text-length="139.9200px" y="322.2250" style="font-size: 16px; font-family: 'Arial'; fill: #2e3436; fill-opacity: 1.00; stroke: none;">5513 IDE Cont...</text><text id="ezcGraphTextBox_23_text" x="102.8503" text-length="52.4700px" y="340.3750" style="font-size: 16px; font-family: 'Arial'; fill: #2e3436; fill-opacity: 1.00; stroke: none;">(2.6%)</text></g><g id="ezcGraphTextBox_27" style=" cursor: pointer;" onclick="top.location = 'https://linux-hardware.org/?view=computers&amp;f=storage_model&amp;v=AMD+FCH+SATA+Controller+%5BIDE+mode%5D&amp;p=-1'"><path d=" M 12.8146,371.5000 L 12.8146,353.5000 L 215.4496,353.5000 L 215.4496,371.5000 L 12.8146,371.5000 z " style="fill: #ffffff; fill-opacity: 0.00; stroke: none;" id="ezcGraphPolygon_43"/><text id="ezcGraphTextBox_27_text" x="13.3146" text-length="201.1350px" y="368.0250" style="font-size: 16px; font-family: 'Arial'; fill: #2e3436; fill-opacity: 1.00; stroke: none;">FCH SATA Cont... (5.1%)</text></g><g id="ezcGraphTextBox_31" style=" cursor: pointer;" onclick="top.location = 'https://linux-hardware.org/?view=computers&amp;f=storage_model&amp;v=Intel+6+Series%2FC200+Series+Chipset+Family+6+port+Desktop+SATA+AHCI+Controller&amp;p=-1'"><path d=" M 37.3650,409.0000 L 37.3650,391.0000 L 240.0000,391.0000 L 240.0000,409.0000 L 37.3650,409.0000 z " style="fill: #ffffff; fill-opacity: 0.00; stroke: none;" id="ezcGraphPolygon_44"/><text id="ezcGraphTextBox_31_text" x="37.8650" text-length="201.1350px" y="405.5250" style="font-size: 16px; font-family: 'Arial'; fill: #2e3436; fill-opacity: 1.00; stroke: none;">6 Series/C200... (5.1%)</text></g><g id="ezcGraphTextBox_35" style=" cursor: pointer;" onclick="top.location = 'https://linux-hardware.org/?view=computers&amp;f=storage_model&amp;v=AMD+FCH+SATA+Controller+%5BAHCI+mode%5D&amp;p=-1'"><path d=" M 362.9692,321.5500 L 362.9692,286.9500 L 495.6442,286.9500 L 495.6442,321.5500 L 362.9692,321.5500 z " style="fill: #ffffff; fill-opacity: 0.00; stroke: none;" id="ezcGraphPolygon_45"/><text id="ezcGraphTextBox_35_text" x="363.4692" text-length="69.9600px" y="301.4750" style="font-size: 16px; font-family: 'Arial'; fill: #2e3436; fill-opacity: 1.00; stroke: none;">FCH SATA</text><text id="ezcGraphTextBox_35_text" x="363.4692" text-length="131.1750px" y="319.6250" style="font-size: 16px; font-family: 'Arial'; fill: #2e3436; fill-opacity: 1.00; stroke: none;">Cont... (17.9%)</text></g><g id="ezcGraphTextBox_39" style=" cursor: pointer;" onclick="top.location = 'https://linux-hardware.org/?view=computers&amp;f=storage_model&amp;v=Intel+Sunrise+Point-LP+SATA+Controller+%5BAHCI+mode%5D&amp;p=-1'"><path d=" M 296.5000,368.5500 L 296.5000,333.9500 L 437.9200,333.9500 L 437.9200,368.5500 L 296.5000,368.5500 z " style="fill: #ffffff; fill-opacity: 0.00; stroke: none;" id="ezcGraphPolygon_46"/><text id="ezcGraphTextBox_39_text" x="297.0000" text-length="139.9200px" y="348.4750" style="font-size: 16px; font-family: 'Arial'; fill: #2e3436; fill-opacity: 1.00; stroke: none;">Sunrise Point...</text><text id="ezcGraphTextBox_39_text" x="297.0000" text-length="52.4700px" y="366.6250" style="font-size: 16px; font-family: 'Arial'; fill: #2e3436; fill-opacity: 1.00; stroke: none;">(5.1%)</text></g></g></svg>
