<?xml version="1.0"?>
<svg xmlns="http://www.w3.org/2000/svg" width="500" height="420" version="1.0" id="ezcGraph"><defs/><g id="ezcGraphChart" color-rendering="optimizeQuality" shape-rendering="geometricPrecision" text-rendering="optimizeLegibility"><path d=" M 0.0000,420.0000 L 0.0000,0.0000 L 500.0000,0.0000 L 500.0000,420.0000 L 0.0000,420.0000 z " style="fill: #eeeeec; fill-opacity: 1.00; stroke: none;" id="ezcGraphPolygon_1"/><path d=" M 0.0000,42.0000 L 0.0000,0.0000 L 500.0000,0.0000 L 500.0000,42.0000 L 0.0000,42.0000 z " style="fill: #000000; fill-opacity: 0.00; stroke: none;" id="ezcGraphPolygon_2"/><path d="M 258.19,240.45 L 370.69,240.45 A 112.50,112.50 0 0,1 242.18,351.80 z" style="fill: #3465a4; fill-opacity: 1.00; stroke: none; cursor: pointer;" id="ezcGraphCircleSector_4" onclick="top.location = 'http://127.0.0.1/linux-hardware.org/index.php?view=computers&amp;type=desktop&amp;f=device_unsupported_type&amp;v=communication+controller&amp;p=-1'"/><path d="M 258.62,240.95 L 370.19,240.95 A 112.00,112.00 0 0,1 242.74,351.38 z" style="fill: none; stroke: #1a3352; stroke-width: 1; stroke-opacity: 1.00; stroke-linecap: round; stroke-linejoin: round;" id="ezcGraphCircleSector_5"/><path d="M 250.00,231.00 L 233.99,342.35 A 112.50,112.50 0 0,1 137.50,231.00 z" style="fill: #4e9a06; fill-opacity: 1.00; stroke: none; cursor: pointer;" id="ezcGraphCircleSector_6" onclick="top.location = 'http://127.0.0.1/linux-hardware.org/index.php?view=computers&amp;type=desktop&amp;f=device_unsupported_type&amp;v=net%2Fwireless&amp;p=-1'"/><path d="M 249.42,231.50 L 233.57,341.79 A 112.00,112.00 0 0,1 138.00,231.50 z" style="fill: none; stroke: #274d03; stroke-width: 1; stroke-opacity: 1.00; stroke-linecap: round; stroke-linejoin: round;" id="ezcGraphCircleSector_7"/><path d="M 250.00,231.00 L 137.50,231.00 A 112.50,112.50 0 0,1 155.36,170.18 z" style="fill: #cc0000; fill-opacity: 1.00; stroke: none; cursor: pointer;" id="ezcGraphCircleSector_8" onclick="top.location = 'http://127.0.0.1/linux-hardware.org/index.php?view=computers&amp;type=desktop&amp;f=device_unsupported_type&amp;v=unassigned+class&amp;p=-1'"/><path d="M 248.30,230.50 L 138.00,230.50 A 112.00,112.00 0 0,1 155.51,170.87 z" style="fill: none; stroke: #660000; stroke-width: 1; stroke-opacity: 1.00; stroke-linecap: round; stroke-linejoin: round;" id="ezcGraphCircleSector_9"/><path d="M 250.00,231.00 L 155.36,170.18 A 112.50,112.50 0 0,1 203.27,128.67 z" style="fill: #edd400; fill-opacity: 1.00; stroke: none; cursor: pointer;" id="ezcGraphCircleSector_10" onclick="top.location = 'http://127.0.0.1/linux-hardware.org/index.php?view=computers&amp;type=desktop&amp;f=device_unsupported_type&amp;v=sound&amp;p=-1'"/><path d="M 248.84,229.66 L 156.05,170.03 A 112.00,112.00 0 0,1 203.02,129.33 z" style="fill: none; stroke: #776a00; stroke-width: 1; stroke-opacity: 1.00; stroke-linecap: round; stroke-linejoin: round;" id="ezcGraphCircleSector_11"/><path d="M 250.00,231.00 L 203.27,128.67 A 112.50,112.50 0 0,1 266.01,119.65 z" style="fill: #75505b; fill-opacity: 1.00; stroke: none; cursor: pointer;" id="ezcGraphCircleSector_12" onclick="top.location = 'http://127.0.0.1/linux-hardware.org/index.php?view=computers&amp;type=desktop&amp;f=device_unsupported_type&amp;v=graphics+card&amp;p=-1'"/><path d="M 249.75,229.24 L 203.93,128.91 A 112.00,112.00 0 0,1 265.44,120.07 z" style="fill: none; stroke: #3b282e; stroke-width: 1; stroke-opacity: 1.00; stroke-linecap: round; stroke-linejoin: round;" id="ezcGraphCircleSector_13"/><path d="M 250.00,231.00 L 266.01,119.65 A 112.50,112.50 0 0,1 362.50,231.00 z" style="fill: #f57900; fill-opacity: 1.00; stroke: none;" id="ezcGraphCircleSector_14"/><path d="M 250.58,230.50 L 266.43,120.21 A 112.00,112.00 0 0,1 362.00,230.50 z" style="fill: none; stroke: #7b3d00; stroke-width: 1; stroke-opacity: 1.00; stroke-linecap: round; stroke-linejoin: round;" id="ezcGraphCircleSector_15"/><path d=" M 238.1404,148.5149 L 228.2203,107.0000" style="fill: none; stroke: #000000; stroke-width: 1; stroke-opacity: 1.00; stroke-linecap: round; stroke-linejoin: round;" id="ezcGraphLine_16"/><ellipse cx="238.1404" cy="148.5149" rx="3.0000" ry="3.0000" style="fill: #000000; fill-opacity: 1.00; stroke: none;" id="ezcGraphCircle_17"/><ellipse cx="228.2203" cy="107.0000" rx="3.0000" ry="3.0000" style="fill: #000000; fill-opacity: 1.00; stroke: none;" id="ezcGraphCircle_18"/><path d=" M 195.4283,168.0209 L 153.7628,144.5000" style="fill: none; stroke: #000000; stroke-width: 1; stroke-opacity: 1.00; stroke-linecap: round; stroke-linejoin: round;" id="ezcGraphLine_20"/><ellipse cx="195.4283" cy="168.0209" rx="3.0000" ry="3.0000" style="fill: #000000; fill-opacity: 1.00; stroke: none;" id="ezcGraphCircle_21"/><ellipse cx="153.7628" cy="144.5000" rx="3.0000" ry="3.0000" style="fill: #000000; fill-opacity: 1.00; stroke: none;" id="ezcGraphCircle_22"/><path d=" M 170.0423,207.5223 L 124.2962,195.0000" style="fill: none; stroke: #000000; stroke-width: 1; stroke-opacity: 1.00; stroke-linecap: round; stroke-linejoin: round;" id="ezcGraphLine_24"/><ellipse cx="170.0423" cy="207.5223" rx="3.0000" ry="3.0000" style="fill: #000000; fill-opacity: 1.00; stroke: none;" id="ezcGraphCircle_25"/><ellipse cx="124.2962" cy="195.0000" rx="3.0000" ry="3.0000" style="fill: #000000; fill-opacity: 1.00; stroke: none;" id="ezcGraphCircle_26"/><path d=" M 187.0209,285.5717 L 148.7950,312.0000" style="fill: none; stroke: #000000; stroke-width: 1; stroke-opacity: 1.00; stroke-linecap: round; stroke-linejoin: round;" id="ezcGraphLine_28"/><ellipse cx="187.0209" cy="285.5717" rx="3.0000" ry="3.0000" style="fill: #000000; fill-opacity: 1.00; stroke: none;" id="ezcGraphCircle_29"/><ellipse cx="148.7950" cy="312.0000" rx="3.0000" ry="3.0000" style="fill: #000000; fill-opacity: 1.00; stroke: none;" id="ezcGraphCircle_30"/><path d=" M 312.9791,176.4283 L 350.3451,149.0000" style="fill: none; stroke: #000000; stroke-width: 1; stroke-opacity: 1.00; stroke-linecap: round; stroke-linejoin: round;" id="ezcGraphLine_32"/><ellipse cx="312.9791" cy="176.4283" rx="3.0000" ry="3.0000" style="fill: #000000; fill-opacity: 1.00; stroke: none;" id="ezcGraphCircle_33"/><ellipse cx="350.3451" cy="149.0000" rx="3.0000" ry="3.0000" style="fill: #000000; fill-opacity: 1.00; stroke: none;" id="ezcGraphCircle_34"/><path d=" M 312.7575,303.4260 L 326.8237,334.0000" style="fill: none; stroke: #000000; stroke-width: 1; stroke-opacity: 1.00; stroke-linecap: round; stroke-linejoin: round;" id="ezcGraphLine_36"/><ellipse cx="312.7575" cy="303.4260" rx="3.0000" ry="3.0000" style="fill: #000000; fill-opacity: 1.00; stroke: none;" id="ezcGraphCircle_37"/><ellipse cx="326.8237" cy="334.0000" rx="3.0000" ry="3.0000" style="fill: #000000; fill-opacity: 1.00; stroke: none;" id="ezcGraphCircle_38"/><g id="ezcGraphTextBox_3"><path d=" M 1.4600,41.5000 L 1.4600,1.0000 L 499.0400,1.0000 L 499.0400,41.5000 L 1.4600,41.5000 z " style="fill: #ffffff; fill-opacity: 0.00; stroke: none;" id="ezcGraphPolygon_40"/><text id="ezcGraphTextBox_3_text" x="1.9600" text-length="496.0800px" y="34.6500" style="font-size: 39px; font-family: 'Arial'; fill: #2e3436; fill-opacity: 1.00; stroke: none;">Unsupported Device Types</text></g><g id="ezcGraphTextBox_19" style=" cursor: pointer;" onclick="top.location = 'http://127.0.0.1/linux-hardware.org/index.php?view=computers&amp;type=desktop&amp;f=device_unsupported_type&amp;v=graphics+card&amp;p=-1'"><path d=" M 41.5203,116.5000 L 41.5203,98.0000 L 223.2203,98.0000 L 223.2203,116.5000 L 41.5203,116.5000 z " style="fill: #ffffff; fill-opacity: 0.00; stroke: none;" id="ezcGraphPolygon_41"/><text id="ezcGraphTextBox_19_text" x="42.0203" text-length="180.2000px" y="112.9500" style="font-size: 17px; font-family: 'Arial'; fill: #2e3436; fill-opacity: 1.00; stroke: none;">Graphics card (9.1%)</text></g><g id="ezcGraphTextBox_23" style=" cursor: pointer;" onclick="top.location = 'http://127.0.0.1/linux-hardware.org/index.php?view=computers&amp;type=desktop&amp;f=device_unsupported_type&amp;v=sound&amp;p=-1'"><path d=" M 39.1428,154.0000 L 39.1428,135.5000 L 148.7628,135.5000 L 148.7628,154.0000 L 39.1428,154.0000 z " style="fill: #ffffff; fill-opacity: 0.00; stroke: none;" id="ezcGraphPolygon_42"/><text id="ezcGraphTextBox_23_text" x="39.6428" text-length="108.1200px" y="150.4500" style="font-size: 17px; font-family: 'Arial'; fill: #2e3436; fill-opacity: 1.00; stroke: none;">Sound (9.1%)</text></g><g id="ezcGraphTextBox_27" style=" cursor: pointer;" onclick="top.location = 'http://127.0.0.1/linux-hardware.org/index.php?view=computers&amp;type=desktop&amp;f=device_unsupported_type&amp;v=unassigned+class&amp;p=-1'"><path d=" M 9.6762,213.0500 L 9.6762,177.4500 L 119.2962,177.4500 L 119.2962,213.0500 L 9.6762,213.0500 z " style="fill: #ffffff; fill-opacity: 0.00; stroke: none;" id="ezcGraphPolygon_43"/><text id="ezcGraphTextBox_27_text" x="28.1962" text-length="90.1000px" y="192.4000" style="font-size: 17px; font-family: 'Arial'; fill: #2e3436; fill-opacity: 1.00; stroke: none;">Unassigned</text><text id="ezcGraphTextBox_27_text" x="10.1762" text-length="108.1200px" y="211.1000" style="font-size: 17px; font-family: 'Arial'; fill: #2e3436; fill-opacity: 1.00; stroke: none;">class (9.1%)</text></g><g id="ezcGraphTextBox_31" style=" cursor: pointer;" onclick="top.location = 'http://127.0.0.1/linux-hardware.org/index.php?view=computers&amp;type=desktop&amp;f=device_unsupported_type&amp;v=net%2Fwireless&amp;p=-1'"><path d=" M 34.1750,330.0500 L 34.1750,294.4500 L 143.7950,294.4500 L 143.7950,330.0500 L 34.1750,330.0500 z " style="fill: #ffffff; fill-opacity: 0.00; stroke: none;" id="ezcGraphPolygon_44"/><text id="ezcGraphTextBox_31_text" x="34.6750" text-length="108.1200px" y="309.4000" style="font-size: 17px; font-family: 'Arial'; fill: #2e3436; fill-opacity: 1.00; stroke: none;">Net/wireless</text><text id="ezcGraphTextBox_31_text" x="79.7250" text-length="63.0700px" y="328.1000" style="font-size: 17px; font-family: 'Arial'; fill: #2e3436; fill-opacity: 1.00; stroke: none;">(22.7%)</text></g><g id="ezcGraphTextBox_35"><path d=" M 355.8451,158.5000 L 355.8451,140.0000 L 483.4851,140.0000 L 483.4851,158.5000 L 355.8451,158.5000 z " style="fill: #ffffff; fill-opacity: 0.00; stroke: none;" id="ezcGraphPolygon_45"/><text id="ezcGraphTextBox_35_text" x="356.3451" text-length="126.1400px" y="154.9500" style="font-size: 17px; font-family: 'Arial'; fill: #2e3436; fill-opacity: 1.00; stroke: none;">Others (22.7%)</text></g><g id="ezcGraphTextBox_39" style=" cursor: pointer;" onclick="top.location = 'http://127.0.0.1/linux-hardware.org/index.php?view=computers&amp;type=desktop&amp;f=device_unsupported_type&amp;v=communication+controller&amp;p=-1'"><path d=" M 332.3237,352.0500 L 332.3237,316.4500 L 477.9837,316.4500 L 477.9837,352.0500 L 332.3237,352.0500 z " style="fill: #ffffff; fill-opacity: 0.00; stroke: none;" id="ezcGraphPolygon_46"/><text id="ezcGraphTextBox_39_text" x="332.8237" text-length="144.1600px" y="331.4000" style="font-size: 17px; font-family: 'Arial'; fill: #2e3436; fill-opacity: 1.00; stroke: none;">Communication...</text><text id="ezcGraphTextBox_39_text" x="332.8237" text-length="63.0700px" y="350.1000" style="font-size: 17px; font-family: 'Arial'; fill: #2e3436; fill-opacity: 1.00; stroke: none;">(27.3%)</text></g></g></svg>
