<?xml version="1.0"?>
<svg xmlns="http://www.w3.org/2000/svg" width="500" height="420" version="1.0" id="ezcGraph"><defs/><g id="ezcGraphChart" color-rendering="optimizeQuality" shape-rendering="geometricPrecision" text-rendering="optimizeLegibility"><path d=" M 0.0000,420.0000 L 0.0000,0.0000 L 500.0000,0.0000 L 500.0000,420.0000 L 0.0000,420.0000 z " style="fill: #eeeeec; fill-opacity: 1.00; stroke: none;" id="ezcGraphPolygon_1"/><path d=" M 0.0000,42.0000 L 0.0000,0.0000 L 500.0000,0.0000 L 500.0000,42.0000 L 0.0000,42.0000 z " style="fill: #000000; fill-opacity: 0.00; stroke: none;" id="ezcGraphPolygon_2"/><path d=" M 0.0000,420.0000 L 0.0000,42.0000 L 100.0000,42.0000 L 100.0000,420.0000 L 0.0000,420.0000 z " style="fill: #000000; fill-opacity: 0.00; stroke: none;" id="ezcGraphPolygon_4"/><path d=" M 2.0000,58.0000 L 2.0000,44.0000 L 16.0000,44.0000 L 16.0000,58.0000 L 2.0000,58.0000 z " style="fill: #3465a4; fill-opacity: 1.00; stroke: none; cursor: pointer;" id="ezcGraphPolygon_5" onclick="top.location = 'https://linux-hardware.org/?view=computers&amp;type=desktop&amp;f=gpu_driver&amp;v=free&amp;p=-1&amp;c=Spain'"/><path d=" M 2.0000,76.0000 L 2.0000,62.0000 L 16.0000,62.0000 L 16.0000,76.0000 L 2.0000,76.0000 z " style="fill: #4e9a06; fill-opacity: 1.00; stroke: none; cursor: pointer;" id="ezcGraphPolygon_7" onclick="top.location = 'https://linux-hardware.org/?view=computers&amp;type=desktop&amp;f=gpu_driver&amp;v=proprietary&amp;p=-1&amp;c=Spain'"/><path d=" M 2.0000,94.0000 L 2.0000,80.0000 L 16.0000,80.0000 L 16.0000,94.0000 L 2.0000,94.0000 z " style="fill: #cc0000; fill-opacity: 1.00; stroke: none; cursor: pointer;" id="ezcGraphPolygon_9" onclick="top.location = 'https://linux-hardware.org/?view=computers&amp;type=desktop&amp;f=gpu_driver&amp;v=&amp;p=-1&amp;c=Spain'"/><path d=" M 100.0000,382.2000 L 500.0000,382.2000" style="fill: none; stroke: #2e3436; stroke-width: 1; stroke-opacity: 1.00; stroke-linecap: round; stroke-linejoin: round;" id="ezcGraphLine_11"/><path d=" M 492.0000,378.2000 L 500.0000,382.2000 L 492.0000,386.2000 L 492.0000,378.2000 z " style="fill: #2e3436; fill-opacity: 1.00; stroke: none;" id="ezcGraphPolygon_12"/><path d=" M 185.7143,79.8000 L 185.7143,382.2000" style="fill: none; stroke: #000000; stroke-width: 1; stroke-opacity: 0.00; stroke-linecap: round; stroke-linejoin: round;" id="ezcGraphLine_15"/><path d=" M 185.7143,379.2000 L 185.7143,385.2000" style="fill: none; stroke: #2e3436; stroke-width: 1; stroke-opacity: 1.00; stroke-linecap: round; stroke-linejoin: round;" id="ezcGraphLine_16"/><path d=" M 231.4286,79.8000 L 231.4286,382.2000" style="fill: none; stroke: #000000; stroke-width: 1; stroke-opacity: 0.00; stroke-linecap: round; stroke-linejoin: round;" id="ezcGraphLine_18"/><path d=" M 231.4286,379.2000 L 231.4286,385.2000" style="fill: none; stroke: #2e3436; stroke-width: 1; stroke-opacity: 1.00; stroke-linecap: round; stroke-linejoin: round;" id="ezcGraphLine_19"/><path d=" M 277.1429,79.8000 L 277.1429,382.2000" style="fill: none; stroke: #000000; stroke-width: 1; stroke-opacity: 0.00; stroke-linecap: round; stroke-linejoin: round;" id="ezcGraphLine_21"/><path d=" M 277.1429,379.2000 L 277.1429,385.2000" style="fill: none; stroke: #2e3436; stroke-width: 1; stroke-opacity: 1.00; stroke-linecap: round; stroke-linejoin: round;" id="ezcGraphLine_22"/><path d=" M 322.8571,79.8000 L 322.8571,382.2000" style="fill: none; stroke: #000000; stroke-width: 1; stroke-opacity: 0.00; stroke-linecap: round; stroke-linejoin: round;" id="ezcGraphLine_24"/><path d=" M 322.8571,379.2000 L 322.8571,385.2000" style="fill: none; stroke: #2e3436; stroke-width: 1; stroke-opacity: 1.00; stroke-linecap: round; stroke-linejoin: round;" id="ezcGraphLine_25"/><path d=" M 368.5714,79.8000 L 368.5714,382.2000" style="fill: none; stroke: #000000; stroke-width: 1; stroke-opacity: 0.00; stroke-linecap: round; stroke-linejoin: round;" id="ezcGraphLine_27"/><path d=" M 368.5714,379.2000 L 368.5714,385.2000" style="fill: none; stroke: #2e3436; stroke-width: 1; stroke-opacity: 1.00; stroke-linecap: round; stroke-linejoin: round;" id="ezcGraphLine_28"/><path d=" M 414.2857,79.8000 L 414.2857,382.2000" style="fill: none; stroke: #000000; stroke-width: 1; stroke-opacity: 0.00; stroke-linecap: round; stroke-linejoin: round;" id="ezcGraphLine_30"/><path d=" M 414.2857,379.2000 L 414.2857,385.2000" style="fill: none; stroke: #2e3436; stroke-width: 1; stroke-opacity: 1.00; stroke-linecap: round; stroke-linejoin: round;" id="ezcGraphLine_31"/><path d=" M 460.0000,79.8000 L 460.0000,382.2000" style="fill: none; stroke: #000000; stroke-width: 1; stroke-opacity: 0.00; stroke-linecap: round; stroke-linejoin: round;" id="ezcGraphLine_33"/><path d=" M 460.0000,379.2000 L 460.0000,385.2000" style="fill: none; stroke: #2e3436; stroke-width: 1; stroke-opacity: 1.00; stroke-linecap: round; stroke-linejoin: round;" id="ezcGraphLine_34"/><path d=" M 140.0000,420.0000 L 140.0000,42.0000" style="fill: none; stroke: #2e3436; stroke-width: 1; stroke-opacity: 1.00; stroke-linecap: round; stroke-linejoin: round;" id="ezcGraphLine_35"/><path d=" M 136.0000,50.0000 L 140.0000,42.0000 L 144.0000,50.0000 L 136.0000,50.0000 z " style="fill: #2e3436; fill-opacity: 1.00; stroke: none;" id="ezcGraphPolygon_36"/><path d=" M 140.0000,231.0000 L 460.0000,231.0000" style="fill: none; stroke: #000000; stroke-width: 1; stroke-opacity: 0.00; stroke-linecap: round; stroke-linejoin: round;" id="ezcGraphLine_39"/><path d=" M 140.0000,231.0000 L 143.0000,231.0000" style="fill: none; stroke: #2e3436; stroke-width: 1; stroke-opacity: 1.00; stroke-linecap: round; stroke-linejoin: round;" id="ezcGraphLine_40"/><path d=" M 140.0000,79.8000 L 460.0000,79.8000" style="fill: none; stroke: #000000; stroke-width: 1; stroke-opacity: 0.00; stroke-linecap: round; stroke-linejoin: round;" id="ezcGraphLine_42"/><path d=" M 140.0000,79.8000 L 143.0000,79.8000" style="fill: none; stroke: #2e3436; stroke-width: 1; stroke-opacity: 1.00; stroke-linecap: round; stroke-linejoin: round;" id="ezcGraphLine_43"/><path d=" M 162.8571,161.4480 L 162.8571,161.4480" style="fill: none; stroke: #3465a4; stroke-width: 1; stroke-opacity: 1.00; stroke-linecap: round; stroke-linejoin: round;" id="ezcGraphLine_45"/><path d=" M 162.8571,161.4480 L 208.5714,180.4992" style="fill: none; stroke: #3465a4; stroke-width: 1; stroke-opacity: 1.00; stroke-linecap: round; stroke-linejoin: round;" id="ezcGraphLine_47"/><path d=" M 208.5714,180.4992 L 254.2857,162.3552" style="fill: none; stroke: #3465a4; stroke-width: 1; stroke-opacity: 1.00; stroke-linecap: round; stroke-linejoin: round;" id="ezcGraphLine_49"/><path d=" M 254.2857,162.3552 L 300.0000,150.2592" style="fill: none; stroke: #3465a4; stroke-width: 1; stroke-opacity: 1.00; stroke-linecap: round; stroke-linejoin: round;" id="ezcGraphLine_51"/><path d=" M 300.0000,150.2592 L 345.7143,178.9872" style="fill: none; stroke: #3465a4; stroke-width: 1; stroke-opacity: 1.00; stroke-linecap: round; stroke-linejoin: round;" id="ezcGraphLine_53"/><path d=" M 345.7143,178.9872 L 391.4286,190.4784" style="fill: none; stroke: #3465a4; stroke-width: 1; stroke-opacity: 1.00; stroke-linecap: round; stroke-linejoin: round;" id="ezcGraphLine_55"/><path d=" M 391.4286,190.4784 L 437.1429,207.4128" style="fill: none; stroke: #3465a4; stroke-width: 1; stroke-opacity: 1.00; stroke-linecap: round; stroke-linejoin: round;" id="ezcGraphLine_57"/><path d=" M 162.8571,319.9056 L 162.8571,319.9056" style="fill: none; stroke: #4e9a06; stroke-width: 1; stroke-opacity: 1.00; stroke-linecap: round; stroke-linejoin: round;" id="ezcGraphLine_59"/><path d=" M 162.8571,319.9056 L 208.5714,286.6416" style="fill: none; stroke: #4e9a06; stroke-width: 1; stroke-opacity: 1.00; stroke-linecap: round; stroke-linejoin: round;" id="ezcGraphLine_61"/><path d=" M 208.5714,286.6416 L 254.2857,305.0880" style="fill: none; stroke: #4e9a06; stroke-width: 1; stroke-opacity: 1.00; stroke-linecap: round; stroke-linejoin: round;" id="ezcGraphLine_63"/><path d=" M 254.2857,305.0880 L 300.0000,321.7200" style="fill: none; stroke: #4e9a06; stroke-width: 1; stroke-opacity: 1.00; stroke-linecap: round; stroke-linejoin: round;" id="ezcGraphLine_65"/><path d=" M 300.0000,321.7200 L 345.7143,288.1536" style="fill: none; stroke: #4e9a06; stroke-width: 1; stroke-opacity: 1.00; stroke-linecap: round; stroke-linejoin: round;" id="ezcGraphLine_67"/><path d=" M 345.7143,288.1536 L 391.4286,301.1568" style="fill: none; stroke: #4e9a06; stroke-width: 1; stroke-opacity: 1.00; stroke-linecap: round; stroke-linejoin: round;" id="ezcGraphLine_69"/><path d=" M 391.4286,301.1568 L 437.1429,311.4384" style="fill: none; stroke: #4e9a06; stroke-width: 1; stroke-opacity: 1.00; stroke-linecap: round; stroke-linejoin: round;" id="ezcGraphLine_71"/><path d=" M 162.8571,363.1488 L 162.8571,363.1488" style="fill: none; stroke: #cc0000; stroke-width: 1; stroke-opacity: 1.00; stroke-linecap: round; stroke-linejoin: round;" id="ezcGraphLine_73"/><path d=" M 162.8571,363.1488 L 208.5714,376.7568" style="fill: none; stroke: #cc0000; stroke-width: 1; stroke-opacity: 1.00; stroke-linecap: round; stroke-linejoin: round;" id="ezcGraphLine_75"/><path d=" M 208.5714,376.7568 L 254.2857,376.7568" style="fill: none; stroke: #cc0000; stroke-width: 1; stroke-opacity: 1.00; stroke-linecap: round; stroke-linejoin: round;" id="ezcGraphLine_77"/><path d=" M 254.2857,376.7568 L 300.0000,372.2208" style="fill: none; stroke: #cc0000; stroke-width: 1; stroke-opacity: 1.00; stroke-linecap: round; stroke-linejoin: round;" id="ezcGraphLine_79"/><path d=" M 300.0000,372.2208 L 345.7143,377.3616" style="fill: none; stroke: #cc0000; stroke-width: 1; stroke-opacity: 1.00; stroke-linecap: round; stroke-linejoin: round;" id="ezcGraphLine_81"/><path d=" M 345.7143,377.3616 L 391.4286,352.5648" style="fill: none; stroke: #cc0000; stroke-width: 1; stroke-opacity: 1.00; stroke-linecap: round; stroke-linejoin: round;" id="ezcGraphLine_83"/><path d=" M 391.4286,352.5648 L 437.1429,325.3488" style="fill: none; stroke: #cc0000; stroke-width: 1; stroke-opacity: 1.00; stroke-linecap: round; stroke-linejoin: round;" id="ezcGraphLine_85"/><path d=" M 159.8571,164.4480 L 159.8571,158.4480 L 165.8571,158.4480 L 165.8571,164.4480 L 159.8571,164.4480 z " style="fill: #3465a4; fill-opacity: 1.00; stroke: none; cursor: pointer;" id="ezcGraphPolygon_87" onclick="top.location = 'https://linux-hardware.org/?view=computers&amp;type=desktop&amp;f=gpu_driver&amp;v=free&amp;p=-1&amp;c=Spain&amp;p=112'"/><path d=" M 205.5714,183.4992 L 205.5714,177.4992 L 211.5714,177.4992 L 211.5714,183.4992 L 205.5714,183.4992 z " style="fill: #3465a4; fill-opacity: 1.00; stroke: none; cursor: pointer;" id="ezcGraphPolygon_88" onclick="top.location = 'https://linux-hardware.org/?view=computers&amp;type=desktop&amp;f=gpu_driver&amp;v=free&amp;p=-1&amp;c=Spain&amp;p=114'"/><path d=" M 251.2857,165.3552 L 251.2857,159.3552 L 257.2857,159.3552 L 257.2857,165.3552 L 251.2857,165.3552 z " style="fill: #3465a4; fill-opacity: 1.00; stroke: none; cursor: pointer;" id="ezcGraphPolygon_89" onclick="top.location = 'https://linux-hardware.org/?view=computers&amp;type=desktop&amp;f=gpu_driver&amp;v=free&amp;p=-1&amp;c=Spain&amp;p=116'"/><path d=" M 297.0000,153.2592 L 297.0000,147.2592 L 303.0000,147.2592 L 303.0000,153.2592 L 297.0000,153.2592 z " style="fill: #3465a4; fill-opacity: 1.00; stroke: none; cursor: pointer;" id="ezcGraphPolygon_90" onclick="top.location = 'https://linux-hardware.org/?view=computers&amp;type=desktop&amp;f=gpu_driver&amp;v=free&amp;p=-1&amp;c=Spain&amp;p=118'"/><path d=" M 342.7143,181.9872 L 342.7143,175.9872 L 348.7143,175.9872 L 348.7143,181.9872 L 342.7143,181.9872 z " style="fill: #3465a4; fill-opacity: 1.00; stroke: none; cursor: pointer;" id="ezcGraphPolygon_91" onclick="top.location = 'https://linux-hardware.org/?view=computers&amp;type=desktop&amp;f=gpu_driver&amp;v=free&amp;p=-1&amp;c=Spain&amp;p=120'"/><path d=" M 388.4286,193.4784 L 388.4286,187.4784 L 394.4286,187.4784 L 394.4286,193.4784 L 388.4286,193.4784 z " style="fill: #3465a4; fill-opacity: 1.00; stroke: none; cursor: pointer;" id="ezcGraphPolygon_92" onclick="top.location = 'https://linux-hardware.org/?view=computers&amp;type=desktop&amp;f=gpu_driver&amp;v=free&amp;p=-1&amp;c=Spain&amp;p=122'"/><path d=" M 434.1429,210.4128 L 434.1429,204.4128 L 440.1429,204.4128 L 440.1429,210.4128 L 434.1429,210.4128 z " style="fill: #3465a4; fill-opacity: 1.00; stroke: none; cursor: pointer;" id="ezcGraphPolygon_93" onclick="top.location = 'https://linux-hardware.org/?view=computers&amp;type=desktop&amp;f=gpu_driver&amp;v=free&amp;p=-1&amp;c=Spain&amp;p=124'"/><path d=" M 159.8571,322.9056 L 159.8571,316.9056 L 165.8571,316.9056 L 165.8571,322.9056 L 159.8571,322.9056 z " style="fill: #4e9a06; fill-opacity: 1.00; stroke: none; cursor: pointer;" id="ezcGraphPolygon_94" onclick="top.location = 'https://linux-hardware.org/?view=computers&amp;type=desktop&amp;f=gpu_driver&amp;v=proprietary&amp;p=-1&amp;c=Spain&amp;p=112'"/><path d=" M 205.5714,289.6416 L 205.5714,283.6416 L 211.5714,283.6416 L 211.5714,289.6416 L 205.5714,289.6416 z " style="fill: #4e9a06; fill-opacity: 1.00; stroke: none; cursor: pointer;" id="ezcGraphPolygon_95" onclick="top.location = 'https://linux-hardware.org/?view=computers&amp;type=desktop&amp;f=gpu_driver&amp;v=proprietary&amp;p=-1&amp;c=Spain&amp;p=114'"/><path d=" M 251.2857,308.0880 L 251.2857,302.0880 L 257.2857,302.0880 L 257.2857,308.0880 L 251.2857,308.0880 z " style="fill: #4e9a06; fill-opacity: 1.00; stroke: none; cursor: pointer;" id="ezcGraphPolygon_96" onclick="top.location = 'https://linux-hardware.org/?view=computers&amp;type=desktop&amp;f=gpu_driver&amp;v=proprietary&amp;p=-1&amp;c=Spain&amp;p=116'"/><path d=" M 297.0000,324.7200 L 297.0000,318.7200 L 303.0000,318.7200 L 303.0000,324.7200 L 297.0000,324.7200 z " style="fill: #4e9a06; fill-opacity: 1.00; stroke: none; cursor: pointer;" id="ezcGraphPolygon_97" onclick="top.location = 'https://linux-hardware.org/?view=computers&amp;type=desktop&amp;f=gpu_driver&amp;v=proprietary&amp;p=-1&amp;c=Spain&amp;p=118'"/><path d=" M 342.7143,291.1536 L 342.7143,285.1536 L 348.7143,285.1536 L 348.7143,291.1536 L 342.7143,291.1536 z " style="fill: #4e9a06; fill-opacity: 1.00; stroke: none; cursor: pointer;" id="ezcGraphPolygon_98" onclick="top.location = 'https://linux-hardware.org/?view=computers&amp;type=desktop&amp;f=gpu_driver&amp;v=proprietary&amp;p=-1&amp;c=Spain&amp;p=120'"/><path d=" M 388.4286,304.1568 L 388.4286,298.1568 L 394.4286,298.1568 L 394.4286,304.1568 L 388.4286,304.1568 z " style="fill: #4e9a06; fill-opacity: 1.00; stroke: none; cursor: pointer;" id="ezcGraphPolygon_99" onclick="top.location = 'https://linux-hardware.org/?view=computers&amp;type=desktop&amp;f=gpu_driver&amp;v=proprietary&amp;p=-1&amp;c=Spain&amp;p=122'"/><path d=" M 434.1429,314.4384 L 434.1429,308.4384 L 440.1429,308.4384 L 440.1429,314.4384 L 434.1429,314.4384 z " style="fill: #4e9a06; fill-opacity: 1.00; stroke: none; cursor: pointer;" id="ezcGraphPolygon_100" onclick="top.location = 'https://linux-hardware.org/?view=computers&amp;type=desktop&amp;f=gpu_driver&amp;v=proprietary&amp;p=-1&amp;c=Spain&amp;p=124'"/><path d=" M 159.8571,366.1488 L 159.8571,360.1488 L 165.8571,360.1488 L 165.8571,366.1488 L 159.8571,366.1488 z " style="fill: #cc0000; fill-opacity: 1.00; stroke: none; cursor: pointer;" id="ezcGraphPolygon_101" onclick="top.location = 'https://linux-hardware.org/?view=computers&amp;type=desktop&amp;f=gpu_driver&amp;v=&amp;p=-1&amp;c=Spain&amp;p=112'"/><path d=" M 205.5714,379.7568 L 205.5714,373.7568 L 211.5714,373.7568 L 211.5714,379.7568 L 205.5714,379.7568 z " style="fill: #cc0000; fill-opacity: 1.00; stroke: none; cursor: pointer;" id="ezcGraphPolygon_102" onclick="top.location = 'https://linux-hardware.org/?view=computers&amp;type=desktop&amp;f=gpu_driver&amp;v=&amp;p=-1&amp;c=Spain&amp;p=114'"/><path d=" M 251.2857,379.7568 L 251.2857,373.7568 L 257.2857,373.7568 L 257.2857,379.7568 L 251.2857,379.7568 z " style="fill: #cc0000; fill-opacity: 1.00; stroke: none; cursor: pointer;" id="ezcGraphPolygon_103" onclick="top.location = 'https://linux-hardware.org/?view=computers&amp;type=desktop&amp;f=gpu_driver&amp;v=&amp;p=-1&amp;c=Spain&amp;p=116'"/><path d=" M 297.0000,375.2208 L 297.0000,369.2208 L 303.0000,369.2208 L 303.0000,375.2208 L 297.0000,375.2208 z " style="fill: #cc0000; fill-opacity: 1.00; stroke: none; cursor: pointer;" id="ezcGraphPolygon_104" onclick="top.location = 'https://linux-hardware.org/?view=computers&amp;type=desktop&amp;f=gpu_driver&amp;v=&amp;p=-1&amp;c=Spain&amp;p=118'"/><path d=" M 342.7143,380.3616 L 342.7143,374.3616 L 348.7143,374.3616 L 348.7143,380.3616 L 342.7143,380.3616 z " style="fill: #cc0000; fill-opacity: 1.00; stroke: none; cursor: pointer;" id="ezcGraphPolygon_105" onclick="top.location = 'https://linux-hardware.org/?view=computers&amp;type=desktop&amp;f=gpu_driver&amp;v=&amp;p=-1&amp;c=Spain&amp;p=120'"/><path d=" M 388.4286,355.5648 L 388.4286,349.5648 L 394.4286,349.5648 L 394.4286,355.5648 L 388.4286,355.5648 z " style="fill: #cc0000; fill-opacity: 1.00; stroke: none; cursor: pointer;" id="ezcGraphPolygon_106" onclick="top.location = 'https://linux-hardware.org/?view=computers&amp;type=desktop&amp;f=gpu_driver&amp;v=&amp;p=-1&amp;c=Spain&amp;p=122'"/><path d=" M 434.1429,328.3488 L 434.1429,322.3488 L 440.1429,322.3488 L 440.1429,328.3488 L 434.1429,328.3488 z " style="fill: #cc0000; fill-opacity: 1.00; stroke: none; cursor: pointer;" id="ezcGraphPolygon_107" onclick="top.location = 'https://linux-hardware.org/?view=computers&amp;type=desktop&amp;f=gpu_driver&amp;v=&amp;p=-1&amp;c=Spain&amp;p=124'"/><g id="ezcGraphTextBox_3"><path d=" M 143.5000,42.0000 L 143.5000,0.5000 L 357.0000,0.5000 L 357.0000,42.0000 L 143.5000,42.0000 z " style="fill: #ffffff; fill-opacity: 0.00; stroke: none;" id="ezcGraphPolygon_108"/><text id="ezcGraphTextBox_3_text" x="144.0000" text-length="212.0000px" y="35.0000" style="font-size: 40px; font-family: 'Arial'; fill: #2e3436; fill-opacity: 1.00; stroke: none;">GPU Driver</text></g><g id="ezcGraphTextBox_6" style=" cursor: pointer;" onclick="top.location = 'https://linux-hardware.org/?view=computers&amp;type=desktop&amp;f=gpu_driver&amp;v=free&amp;p=-1&amp;c=Spain'"><path d=" M 16.5000,58.5000 L 16.5000,44.0000 L 45.5600,44.0000 L 45.5600,58.5000 L 16.5000,58.5000 z " style="fill: #ffffff; fill-opacity: 0.00; stroke: none;" id="ezcGraphPolygon_109"/><text id="ezcGraphTextBox_6_text" x="17.0000" text-length="27.5600px" y="55.5500" style="font-size: 13px; font-family: 'Arial'; fill: #2e3436; fill-opacity: 1.00; stroke: none;">Free</text></g><g id="ezcGraphTextBox_8" style=" cursor: pointer;" onclick="top.location = 'https://linux-hardware.org/?view=computers&amp;type=desktop&amp;f=gpu_driver&amp;v=proprietary&amp;p=-1&amp;c=Spain'"><path d=" M 16.5000,76.5000 L 16.5000,62.0000 L 93.7900,62.0000 L 93.7900,76.5000 L 16.5000,76.5000 z " style="fill: #ffffff; fill-opacity: 0.00; stroke: none;" id="ezcGraphPolygon_110"/><text id="ezcGraphTextBox_8_text" x="17.0000" text-length="75.7900px" y="73.5500" style="font-size: 13px; font-family: 'Arial'; fill: #2e3436; fill-opacity: 1.00; stroke: none;">Proprietary</text></g><g id="ezcGraphTextBox_10" style=" cursor: pointer;" onclick="top.location = 'https://linux-hardware.org/?view=computers&amp;type=desktop&amp;f=gpu_driver&amp;v=&amp;p=-1&amp;c=Spain'"><path d=" M 16.5000,94.5000 L 16.5000,80.0000 L 66.2300,80.0000 L 66.2300,94.5000 L 16.5000,94.5000 z " style="fill: #ffffff; fill-opacity: 0.00; stroke: none;" id="ezcGraphPolygon_111"/><text id="ezcGraphTextBox_10_text" x="17.0000" text-length="48.2300px" y="91.5500" style="font-size: 13px; font-family: 'Arial'; fill: #2e3436; fill-opacity: 1.00; stroke: none;">Unknown</text></g><g id="ezcGraphTextBox_13" transform="rotate( 0.00 493.0000 375.2000 )"><path d=" M 460.4000,381.2000 L 460.4000,365.7000 L 499.0000,365.7000 L 499.0000,381.2000 L 460.4000,381.2000 z " style="fill: #ffffff; fill-opacity: 0.00; stroke: none;" id="ezcGraphPolygon_112"/><text id="ezcGraphTextBox_13_text" x="460.9000" text-length="37.1000px" y="378.1000" style="font-size: 14px; font-family: 'Arial'; fill: #2e3436; fill-opacity: 1.00; stroke: none;">Time </text></g><g id="ezcGraphTextBox_14"><path d=" M 144.9971,413.3000 L 144.9971,383.7000 L 181.2171,383.7000 L 181.2171,413.3000 L 144.9971,413.3000 z " style="fill: #ffffff; fill-opacity: 0.00; stroke: none;" id="ezcGraphPolygon_113"/><text id="ezcGraphTextBox_14_text" x="151.7271" text-length="22.2600px" y="396.1000" style="font-size: 14px; font-family: 'Arial'; fill: #2e3436; fill-opacity: 1.00; stroke: none;">Apr</text><text id="ezcGraphTextBox_14_text" x="145.4971" text-length="34.7200px" y="411.5000" style="font-size: 14px; font-family: 'Arial'; fill: #2e3436; fill-opacity: 1.00; stroke: none;">2023</text></g><g id="ezcGraphTextBox_17"><path d=" M 190.7114,413.3000 L 190.7114,383.7000 L 226.9314,383.7000 L 226.9314,413.3000 L 190.7114,413.3000 z " style="fill: #ffffff; fill-opacity: 0.00; stroke: none;" id="ezcGraphPolygon_114"/><text id="ezcGraphTextBox_17_text" x="197.4414" text-length="22.2600px" y="396.1000" style="font-size: 14px; font-family: 'Arial'; fill: #2e3436; fill-opacity: 1.00; stroke: none;">Jun</text><text id="ezcGraphTextBox_17_text" x="191.2114" text-length="34.7200px" y="411.5000" style="font-size: 14px; font-family: 'Arial'; fill: #2e3436; fill-opacity: 1.00; stroke: none;">2023</text></g><g id="ezcGraphTextBox_20"><path d=" M 236.4257,413.3000 L 236.4257,383.7000 L 272.6457,383.7000 L 272.6457,413.3000 L 236.4257,413.3000 z " style="fill: #ffffff; fill-opacity: 0.00; stroke: none;" id="ezcGraphPolygon_115"/><text id="ezcGraphTextBox_20_text" x="243.1557" text-length="22.2600px" y="396.1000" style="font-size: 14px; font-family: 'Arial'; fill: #2e3436; fill-opacity: 1.00; stroke: none;">Aug</text><text id="ezcGraphTextBox_20_text" x="236.9257" text-length="34.7200px" y="411.5000" style="font-size: 14px; font-family: 'Arial'; fill: #2e3436; fill-opacity: 1.00; stroke: none;">2023</text></g><g id="ezcGraphTextBox_23"><path d=" M 282.1400,413.3000 L 282.1400,383.7000 L 318.3600,383.7000 L 318.3600,413.3000 L 282.1400,413.3000 z " style="fill: #ffffff; fill-opacity: 0.00; stroke: none;" id="ezcGraphPolygon_116"/><text id="ezcGraphTextBox_23_text" x="288.8700" text-length="22.2600px" y="396.1000" style="font-size: 14px; font-family: 'Arial'; fill: #2e3436; fill-opacity: 1.00; stroke: none;">Oct</text><text id="ezcGraphTextBox_23_text" x="282.6400" text-length="34.7200px" y="411.5000" style="font-size: 14px; font-family: 'Arial'; fill: #2e3436; fill-opacity: 1.00; stroke: none;">2023</text></g><g id="ezcGraphTextBox_26"><path d=" M 327.8543,413.3000 L 327.8543,383.7000 L 364.0743,383.7000 L 364.0743,413.3000 L 327.8543,413.3000 z " style="fill: #ffffff; fill-opacity: 0.00; stroke: none;" id="ezcGraphPolygon_117"/><text id="ezcGraphTextBox_26_text" x="334.5843" text-length="22.2600px" y="396.1000" style="font-size: 14px; font-family: 'Arial'; fill: #2e3436; fill-opacity: 1.00; stroke: none;">Dec</text><text id="ezcGraphTextBox_26_text" x="328.3543" text-length="34.7200px" y="411.5000" style="font-size: 14px; font-family: 'Arial'; fill: #2e3436; fill-opacity: 1.00; stroke: none;">2023</text></g><g id="ezcGraphTextBox_29"><path d=" M 373.5686,413.3000 L 373.5686,383.7000 L 409.7886,383.7000 L 409.7886,413.3000 L 373.5686,413.3000 z " style="fill: #ffffff; fill-opacity: 0.00; stroke: none;" id="ezcGraphPolygon_118"/><text id="ezcGraphTextBox_29_text" x="380.2986" text-length="22.2600px" y="396.1000" style="font-size: 14px; font-family: 'Arial'; fill: #2e3436; fill-opacity: 1.00; stroke: none;">Feb</text><text id="ezcGraphTextBox_29_text" x="374.0686" text-length="34.7200px" y="411.5000" style="font-size: 14px; font-family: 'Arial'; fill: #2e3436; fill-opacity: 1.00; stroke: none;">2024</text></g><g id="ezcGraphTextBox_32"><path d=" M 419.2829,413.3000 L 419.2829,383.7000 L 455.5029,383.7000 L 455.5029,413.3000 L 419.2829,413.3000 z " style="fill: #ffffff; fill-opacity: 0.00; stroke: none;" id="ezcGraphPolygon_119"/><text id="ezcGraphTextBox_32_text" x="426.0129" text-length="22.2600px" y="396.1000" style="font-size: 14px; font-family: 'Arial'; fill: #2e3436; fill-opacity: 1.00; stroke: none;">Apr</text><text id="ezcGraphTextBox_32_text" x="419.7829" text-length="34.7200px" y="411.5000" style="font-size: 14px; font-family: 'Arial'; fill: #2e3436; fill-opacity: 1.00; stroke: none;">2024</text></g><g id="ezcGraphTextBox_37" transform="rotate( 0.00 147.0000 49.0000 )"><path d=" M 141.5000,59.0000 L 141.5000,43.5000 L 358.1800,43.5000 L 358.1800,59.0000 L 141.5000,59.0000 z " style="fill: #ffffff; fill-opacity: 0.00; stroke: none;" id="ezcGraphPolygon_120"/><text id="ezcGraphTextBox_37_text" x="142.0000" text-length="215.1800px" y="55.9000" style="font-size: 14px; font-family: 'Arial'; fill: #2e3436; fill-opacity: 1.00; stroke: none;">Desktops by "GPU Driver" in %</text></g><g id="ezcGraphTextBox_38"><path d=" M 128.8200,381.2000 L 128.8200,365.7000 L 139.0000,365.7000 L 139.0000,381.2000 L 128.8200,381.2000 z " style="fill: #ffffff; fill-opacity: 0.00; stroke: none;" id="ezcGraphPolygon_121"/><text id="ezcGraphTextBox_38_text" x="129.3200" text-length="8.6800px" y="378.1000" style="font-size: 14px; font-family: 'Arial'; fill: #2e3436; fill-opacity: 1.00; stroke: none;">0</text></g><g id="ezcGraphTextBox_41"><path d=" M 120.1400,230.0000 L 120.1400,214.5000 L 139.0000,214.5000 L 139.0000,230.0000 L 120.1400,230.0000 z " style="fill: #ffffff; fill-opacity: 0.00; stroke: none;" id="ezcGraphPolygon_122"/><text id="ezcGraphTextBox_41_text" x="120.6400" text-length="17.3600px" y="226.9000" style="font-size: 14px; font-family: 'Arial'; fill: #2e3436; fill-opacity: 1.00; stroke: none;">50</text></g><g id="ezcGraphTextBox_44"><path d=" M 111.4600,96.8000 L 111.4600,81.3000 L 139.0000,81.3000 L 139.0000,96.8000 L 111.4600,96.8000 z " style="fill: #ffffff; fill-opacity: 0.00; stroke: none;" id="ezcGraphPolygon_123"/><text id="ezcGraphTextBox_44_text" x="111.9600" text-length="26.0400px" y="93.7000" style="font-size: 14px; font-family: 'Arial'; fill: #2e3436; fill-opacity: 1.00; stroke: none;">100</text></g><g id="ezcGraphTextBox_46"><path d=" M 156.1571,156.4480 L 156.1571,144.9480 L 170.0571,144.9480 L 170.0571,156.4480 L 156.1571,156.4480 z " style="fill: #ffffff; fill-opacity: 0.00; stroke: none;" id="ezcGraphPolygon_124"/><text id="ezcGraphTextBox_46_text" x="156.6571" text-length="12.4000px" y="153.9480" style="font-size: 10px; font-family: 'Arial'; fill: #2e3436; fill-opacity: 1.00; stroke: none;">73</text></g><g id="ezcGraphTextBox_48"><path d=" M 195.6714,175.4992 L 195.6714,163.9992 L 221.9714,163.9992 L 221.9714,175.4992 L 195.6714,175.4992 z " style="fill: #ffffff; fill-opacity: 0.00; stroke: none;" id="ezcGraphPolygon_125"/><text id="ezcGraphTextBox_48_text" x="196.1714" text-length="24.8000px" y="172.9992" style="font-size: 10px; font-family: 'Arial'; fill: #2e3436; fill-opacity: 1.00; stroke: none;">66.7</text></g><g id="ezcGraphTextBox_50"><path d=" M 241.3857,157.3552 L 241.3857,145.8552 L 267.6857,145.8552 L 267.6857,157.3552 L 241.3857,157.3552 z " style="fill: #ffffff; fill-opacity: 0.00; stroke: none;" id="ezcGraphPolygon_126"/><text id="ezcGraphTextBox_50_text" x="241.8857" text-length="24.8000px" y="154.8552" style="font-size: 10px; font-family: 'Arial'; fill: #2e3436; fill-opacity: 1.00; stroke: none;">72.7</text></g><g id="ezcGraphTextBox_52"><path d=" M 287.1000,145.2592 L 287.1000,133.7592 L 313.4000,133.7592 L 313.4000,145.2592 L 287.1000,145.2592 z " style="fill: #ffffff; fill-opacity: 0.00; stroke: none;" id="ezcGraphPolygon_127"/><text id="ezcGraphTextBox_52_text" x="287.6000" text-length="24.8000px" y="142.7592" style="font-size: 10px; font-family: 'Arial'; fill: #2e3436; fill-opacity: 1.00; stroke: none;">76.7</text></g><g id="ezcGraphTextBox_54"><path d=" M 332.8143,173.9872 L 332.8143,162.4872 L 359.1143,162.4872 L 359.1143,173.9872 L 332.8143,173.9872 z " style="fill: #ffffff; fill-opacity: 0.00; stroke: none;" id="ezcGraphPolygon_128"/><text id="ezcGraphTextBox_54_text" x="333.3143" text-length="24.8000px" y="171.4872" style="font-size: 10px; font-family: 'Arial'; fill: #2e3436; fill-opacity: 1.00; stroke: none;">67.2</text></g><g id="ezcGraphTextBox_56"><path d=" M 378.5286,185.4784 L 378.5286,173.9784 L 404.8286,173.9784 L 404.8286,185.4784 L 378.5286,185.4784 z " style="fill: #ffffff; fill-opacity: 0.00; stroke: none;" id="ezcGraphPolygon_129"/><text id="ezcGraphTextBox_56_text" x="379.0286" text-length="24.8000px" y="182.9784" style="font-size: 10px; font-family: 'Arial'; fill: #2e3436; fill-opacity: 1.00; stroke: none;">63.4</text></g><g id="ezcGraphTextBox_58"><path d=" M 424.2429,202.4128 L 424.2429,190.9128 L 450.5429,190.9128 L 450.5429,202.4128 L 424.2429,202.4128 z " style="fill: #ffffff; fill-opacity: 0.00; stroke: none;" id="ezcGraphPolygon_130"/><text id="ezcGraphTextBox_58_text" x="424.7429" text-length="24.8000px" y="199.9128" style="font-size: 10px; font-family: 'Arial'; fill: #2e3436; fill-opacity: 1.00; stroke: none;">57.8</text></g><g id="ezcGraphTextBox_60"><path d=" M 149.9571,314.9056 L 149.9571,303.4056 L 176.2571,303.4056 L 176.2571,314.9056 L 149.9571,314.9056 z " style="fill: #ffffff; fill-opacity: 0.00; stroke: none;" id="ezcGraphPolygon_131"/><text id="ezcGraphTextBox_60_text" x="150.4571" text-length="24.8000px" y="312.4056" style="font-size: 10px; font-family: 'Arial'; fill: #2e3436; fill-opacity: 1.00; stroke: none;">20.6</text></g><g id="ezcGraphTextBox_62"><path d=" M 195.6714,281.6416 L 195.6714,270.1416 L 221.9714,270.1416 L 221.9714,281.6416 L 195.6714,281.6416 z " style="fill: #ffffff; fill-opacity: 0.00; stroke: none;" id="ezcGraphPolygon_132"/><text id="ezcGraphTextBox_62_text" x="196.1714" text-length="24.8000px" y="279.1416" style="font-size: 10px; font-family: 'Arial'; fill: #2e3436; fill-opacity: 1.00; stroke: none;">31.6</text></g><g id="ezcGraphTextBox_64"><path d=" M 241.3857,300.0880 L 241.3857,288.5880 L 267.6857,288.5880 L 267.6857,300.0880 L 241.3857,300.0880 z " style="fill: #ffffff; fill-opacity: 0.00; stroke: none;" id="ezcGraphPolygon_133"/><text id="ezcGraphTextBox_64_text" x="241.8857" text-length="24.8000px" y="297.5880" style="font-size: 10px; font-family: 'Arial'; fill: #2e3436; fill-opacity: 1.00; stroke: none;">25.5</text></g><g id="ezcGraphTextBox_66"><path d=" M 293.3000,316.7200 L 293.3000,305.2200 L 307.2000,305.2200 L 307.2000,316.7200 L 293.3000,316.7200 z " style="fill: #ffffff; fill-opacity: 0.00; stroke: none;" id="ezcGraphPolygon_134"/><text id="ezcGraphTextBox_66_text" x="293.8000" text-length="12.4000px" y="314.2200" style="font-size: 10px; font-family: 'Arial'; fill: #2e3436; fill-opacity: 1.00; stroke: none;">20</text></g><g id="ezcGraphTextBox_68"><path d=" M 332.8143,283.1536 L 332.8143,271.6536 L 359.1143,271.6536 L 359.1143,283.1536 L 332.8143,283.1536 z " style="fill: #ffffff; fill-opacity: 0.00; stroke: none;" id="ezcGraphPolygon_135"/><text id="ezcGraphTextBox_68_text" x="333.3143" text-length="24.8000px" y="280.6536" style="font-size: 10px; font-family: 'Arial'; fill: #2e3436; fill-opacity: 1.00; stroke: none;">31.1</text></g><g id="ezcGraphTextBox_70"><path d=" M 378.5286,296.1568 L 378.5286,284.6568 L 404.8286,284.6568 L 404.8286,296.1568 L 378.5286,296.1568 z " style="fill: #ffffff; fill-opacity: 0.00; stroke: none;" id="ezcGraphPolygon_136"/><text id="ezcGraphTextBox_70_text" x="379.0286" text-length="24.8000px" y="293.6568" style="font-size: 10px; font-family: 'Arial'; fill: #2e3436; fill-opacity: 1.00; stroke: none;">26.8</text></g><g id="ezcGraphTextBox_72"><path d=" M 424.2429,306.4384 L 424.2429,294.9384 L 450.5429,294.9384 L 450.5429,306.4384 L 424.2429,306.4384 z " style="fill: #ffffff; fill-opacity: 0.00; stroke: none;" id="ezcGraphPolygon_137"/><text id="ezcGraphTextBox_72_text" x="424.7429" text-length="24.8000px" y="303.9384" style="font-size: 10px; font-family: 'Arial'; fill: #2e3436; fill-opacity: 1.00; stroke: none;">23.4</text></g><g id="ezcGraphTextBox_74"><path d=" M 153.0571,358.1488 L 153.0571,346.6488 L 173.1571,346.6488 L 173.1571,358.1488 L 153.0571,358.1488 z " style="fill: #ffffff; fill-opacity: 0.00; stroke: none;" id="ezcGraphPolygon_138"/><text id="ezcGraphTextBox_74_text" x="153.5571" text-length="18.6000px" y="355.6488" style="font-size: 10px; font-family: 'Arial'; fill: #2e3436; fill-opacity: 1.00; stroke: none;">6.3</text></g><g id="ezcGraphTextBox_76"><path d=" M 198.7714,371.7568 L 198.7714,360.2568 L 218.8714,360.2568 L 218.8714,371.7568 L 198.7714,371.7568 z " style="fill: #ffffff; fill-opacity: 0.00; stroke: none;" id="ezcGraphPolygon_139"/><text id="ezcGraphTextBox_76_text" x="199.2714" text-length="18.6000px" y="369.2568" style="font-size: 10px; font-family: 'Arial'; fill: #2e3436; fill-opacity: 1.00; stroke: none;">1.8</text></g><g id="ezcGraphTextBox_78"><path d=" M 244.4857,371.7568 L 244.4857,360.2568 L 264.5857,360.2568 L 264.5857,371.7568 L 244.4857,371.7568 z " style="fill: #ffffff; fill-opacity: 0.00; stroke: none;" id="ezcGraphPolygon_140"/><text id="ezcGraphTextBox_78_text" x="244.9857" text-length="18.6000px" y="369.2568" style="font-size: 10px; font-family: 'Arial'; fill: #2e3436; fill-opacity: 1.00; stroke: none;">1.8</text></g><g id="ezcGraphTextBox_80"><path d=" M 290.2000,367.2208 L 290.2000,355.7208 L 310.3000,355.7208 L 310.3000,367.2208 L 290.2000,367.2208 z " style="fill: #ffffff; fill-opacity: 0.00; stroke: none;" id="ezcGraphPolygon_141"/><text id="ezcGraphTextBox_80_text" x="290.7000" text-length="18.6000px" y="364.7208" style="font-size: 10px; font-family: 'Arial'; fill: #2e3436; fill-opacity: 1.00; stroke: none;">3.3</text></g><g id="ezcGraphTextBox_82"><path d=" M 335.9143,372.3616 L 335.9143,360.8616 L 356.0143,360.8616 L 356.0143,372.3616 L 335.9143,372.3616 z " style="fill: #ffffff; fill-opacity: 0.00; stroke: none;" id="ezcGraphPolygon_142"/><text id="ezcGraphTextBox_82_text" x="336.4143" text-length="18.6000px" y="369.8616" style="font-size: 10px; font-family: 'Arial'; fill: #2e3436; fill-opacity: 1.00; stroke: none;">1.6</text></g><g id="ezcGraphTextBox_84"><path d=" M 381.6286,347.5648 L 381.6286,336.0648 L 401.7286,336.0648 L 401.7286,347.5648 L 381.6286,347.5648 z " style="fill: #ffffff; fill-opacity: 0.00; stroke: none;" id="ezcGraphPolygon_143"/><text id="ezcGraphTextBox_84_text" x="382.1286" text-length="18.6000px" y="345.0648" style="font-size: 10px; font-family: 'Arial'; fill: #2e3436; fill-opacity: 1.00; stroke: none;">9.8</text></g><g id="ezcGraphTextBox_86"><path d=" M 424.2429,320.3488 L 424.2429,308.8488 L 450.5429,308.8488 L 450.5429,320.3488 L 424.2429,320.3488 z " style="fill: #ffffff; fill-opacity: 0.00; stroke: none;" id="ezcGraphPolygon_144"/><text id="ezcGraphTextBox_86_text" x="424.7429" text-length="24.8000px" y="317.8488" style="font-size: 10px; font-family: 'Arial'; fill: #2e3436; fill-opacity: 1.00; stroke: none;">18.8</text></g></g></svg>
