<?xml version="1.0"?>
<svg xmlns="http://www.w3.org/2000/svg" width="500" height="420" version="1.0" id="ezcGraph"><defs/><g id="ezcGraphChart" color-rendering="optimizeQuality" shape-rendering="geometricPrecision" text-rendering="optimizeLegibility"><path d=" M 0.0000,420.0000 L 0.0000,0.0000 L 500.0000,0.0000 L 500.0000,420.0000 L 0.0000,420.0000 z " style="fill: #eeeeec; fill-opacity: 1.00; stroke: none;" id="ezcGraphPolygon_1"/><path d=" M 0.0000,42.0000 L 0.0000,0.0000 L 500.0000,0.0000 L 500.0000,42.0000 L 0.0000,42.0000 z " style="fill: #000000; fill-opacity: 0.00; stroke: none;" id="ezcGraphPolygon_2"/><path d=" M 0.0000,420.0000 L 0.0000,42.0000 L 100.0000,42.0000 L 100.0000,420.0000 L 0.0000,420.0000 z " style="fill: #000000; fill-opacity: 0.00; stroke: none;" id="ezcGraphPolygon_4"/><path d=" M 2.0000,58.0000 L 2.0000,44.0000 L 16.0000,44.0000 L 16.0000,58.0000 L 2.0000,58.0000 z " style="fill: #3465a4; fill-opacity: 1.00; stroke: none; cursor: pointer;" id="ezcGraphPolygon_5" onclick="top.location = 'http://127.0.0.1/linux-hardware.org/index.php?view=computers&amp;type=notebook&amp;f=bt_model&amp;v=Intel+Bluetooth+wireless+interface&amp;p=-1'"/><path d=" M 2.0000,76.0000 L 2.0000,62.0000 L 16.0000,62.0000 L 16.0000,76.0000 L 2.0000,76.0000 z " style="fill: #4e9a06; fill-opacity: 1.00; stroke: none; cursor: pointer;" id="ezcGraphPolygon_7" onclick="top.location = 'http://127.0.0.1/linux-hardware.org/index.php?view=computers&amp;type=notebook&amp;f=bt_model&amp;v=Intel+Bluetooth+Device&amp;p=-1'"/><path d=" M 2.0000,94.0000 L 2.0000,80.0000 L 16.0000,80.0000 L 16.0000,94.0000 L 2.0000,94.0000 z " style="fill: #cc0000; fill-opacity: 1.00; stroke: none; cursor: pointer;" id="ezcGraphPolygon_9" onclick="top.location = 'http://127.0.0.1/linux-hardware.org/index.php?view=computers&amp;type=notebook&amp;f=bt_model&amp;v=Intel+Bluetooth+9460%2F9560+Jefferson+Peak+%28JfP%29&amp;p=-1'"/><path d=" M 2.0000,112.0000 L 2.0000,98.0000 L 16.0000,98.0000 L 16.0000,112.0000 L 2.0000,112.0000 z " style="fill: #edd400; fill-opacity: 1.00; stroke: none; cursor: pointer;" id="ezcGraphPolygon_11" onclick="top.location = 'http://127.0.0.1/linux-hardware.org/index.php?view=computers&amp;type=notebook&amp;f=bt_model&amp;v=Realtek+Semiconductor+Bluetooth+Radio&amp;p=-1'"/><path d=" M 2.0000,130.0000 L 2.0000,116.0000 L 16.0000,116.0000 L 16.0000,130.0000 L 2.0000,130.0000 z " style="fill: #75505b; fill-opacity: 1.00; stroke: none; cursor: pointer;" id="ezcGraphPolygon_13" onclick="top.location = 'http://127.0.0.1/linux-hardware.org/index.php?view=computers&amp;type=notebook&amp;f=bt_model&amp;v=Intel+AX200+Bluetooth&amp;p=-1'"/><path d=" M 100.0000,382.2000 L 500.0000,382.2000" style="fill: none; stroke: #2e3436; stroke-width: 1; stroke-opacity: 1.00; stroke-linecap: round; stroke-linejoin: round;" id="ezcGraphLine_15"/><path d=" M 492.0000,378.2000 L 500.0000,382.2000 L 492.0000,386.2000 L 492.0000,378.2000 z " style="fill: #2e3436; fill-opacity: 1.00; stroke: none;" id="ezcGraphPolygon_16"/><path d=" M 204.0000,79.8000 L 204.0000,382.2000" style="fill: none; stroke: #000000; stroke-width: 1; stroke-opacity: 0.00; stroke-linecap: round; stroke-linejoin: round;" id="ezcGraphLine_19"/><path d=" M 204.0000,379.2000 L 204.0000,385.2000" style="fill: none; stroke: #2e3436; stroke-width: 1; stroke-opacity: 1.00; stroke-linecap: round; stroke-linejoin: round;" id="ezcGraphLine_20"/><path d=" M 268.0000,79.8000 L 268.0000,382.2000" style="fill: none; stroke: #000000; stroke-width: 1; stroke-opacity: 0.00; stroke-linecap: round; stroke-linejoin: round;" id="ezcGraphLine_22"/><path d=" M 268.0000,379.2000 L 268.0000,385.2000" style="fill: none; stroke: #2e3436; stroke-width: 1; stroke-opacity: 1.00; stroke-linecap: round; stroke-linejoin: round;" id="ezcGraphLine_23"/><path d=" M 332.0000,79.8000 L 332.0000,382.2000" style="fill: none; stroke: #000000; stroke-width: 1; stroke-opacity: 0.00; stroke-linecap: round; stroke-linejoin: round;" id="ezcGraphLine_25"/><path d=" M 332.0000,379.2000 L 332.0000,385.2000" style="fill: none; stroke: #2e3436; stroke-width: 1; stroke-opacity: 1.00; stroke-linecap: round; stroke-linejoin: round;" id="ezcGraphLine_26"/><path d=" M 396.0000,79.8000 L 396.0000,382.2000" style="fill: none; stroke: #000000; stroke-width: 1; stroke-opacity: 0.00; stroke-linecap: round; stroke-linejoin: round;" id="ezcGraphLine_28"/><path d=" M 396.0000,379.2000 L 396.0000,385.2000" style="fill: none; stroke: #2e3436; stroke-width: 1; stroke-opacity: 1.00; stroke-linecap: round; stroke-linejoin: round;" id="ezcGraphLine_29"/><path d=" M 460.0000,79.8000 L 460.0000,382.2000" style="fill: none; stroke: #000000; stroke-width: 1; stroke-opacity: 0.00; stroke-linecap: round; stroke-linejoin: round;" id="ezcGraphLine_31"/><path d=" M 460.0000,379.2000 L 460.0000,385.2000" style="fill: none; stroke: #2e3436; stroke-width: 1; stroke-opacity: 1.00; stroke-linecap: round; stroke-linejoin: round;" id="ezcGraphLine_32"/><path d=" M 140.0000,420.0000 L 140.0000,42.0000" style="fill: none; stroke: #2e3436; stroke-width: 1; stroke-opacity: 1.00; stroke-linecap: round; stroke-linejoin: round;" id="ezcGraphLine_33"/><path d=" M 136.0000,50.0000 L 140.0000,42.0000 L 144.0000,50.0000 L 136.0000,50.0000 z " style="fill: #2e3436; fill-opacity: 1.00; stroke: none;" id="ezcGraphPolygon_34"/><path d=" M 140.0000,231.0000 L 460.0000,231.0000" style="fill: none; stroke: #000000; stroke-width: 1; stroke-opacity: 0.00; stroke-linecap: round; stroke-linejoin: round;" id="ezcGraphLine_37"/><path d=" M 140.0000,231.0000 L 143.0000,231.0000" style="fill: none; stroke: #2e3436; stroke-width: 1; stroke-opacity: 1.00; stroke-linecap: round; stroke-linejoin: round;" id="ezcGraphLine_38"/><path d=" M 140.0000,79.8000 L 460.0000,79.8000" style="fill: none; stroke: #000000; stroke-width: 1; stroke-opacity: 0.00; stroke-linecap: round; stroke-linejoin: round;" id="ezcGraphLine_40"/><path d=" M 140.0000,79.8000 L 143.0000,79.8000" style="fill: none; stroke: #2e3436; stroke-width: 1; stroke-opacity: 1.00; stroke-linecap: round; stroke-linejoin: round;" id="ezcGraphLine_41"/><path d=" M 172.0000,216.4848 L 172.0000,216.4848" style="fill: none; stroke: #3465a4; stroke-width: 1; stroke-opacity: 1.00; stroke-linecap: round; stroke-linejoin: round;" id="ezcGraphLine_43"/><path d=" M 172.0000,216.4848 L 236.0000,199.2480" style="fill: none; stroke: #3465a4; stroke-width: 1; stroke-opacity: 1.00; stroke-linecap: round; stroke-linejoin: round;" id="ezcGraphLine_45"/><path d=" M 236.0000,199.2480 L 300.0000,163.8672" style="fill: none; stroke: #3465a4; stroke-width: 1; stroke-opacity: 1.00; stroke-linecap: round; stroke-linejoin: round;" id="ezcGraphLine_47"/><path d=" M 300.0000,163.8672 L 364.0000,211.9488" style="fill: none; stroke: #3465a4; stroke-width: 1; stroke-opacity: 1.00; stroke-linecap: round; stroke-linejoin: round;" id="ezcGraphLine_49"/><path d=" M 364.0000,211.9488 L 428.0000,249.4464" style="fill: none; stroke: #3465a4; stroke-width: 1; stroke-opacity: 1.00; stroke-linecap: round; stroke-linejoin: round;" id="ezcGraphLine_51"/><path d=" M 364.0000,376.7568 L 364.0000,376.7568" style="fill: none; stroke: #4e9a06; stroke-width: 1; stroke-opacity: 1.00; stroke-linecap: round; stroke-linejoin: round;" id="ezcGraphLine_53"/><path d=" M 364.0000,376.7568 L 428.0000,345.3072" style="fill: none; stroke: #4e9a06; stroke-width: 1; stroke-opacity: 1.00; stroke-linecap: round; stroke-linejoin: round;" id="ezcGraphLine_55"/><path d=" M 300.0000,354.6816 L 300.0000,354.6816" style="fill: none; stroke: #cc0000; stroke-width: 1; stroke-opacity: 1.00; stroke-linecap: round; stroke-linejoin: round;" id="ezcGraphLine_57"/><path d=" M 300.0000,354.6816 L 364.0000,318.9984" style="fill: none; stroke: #cc0000; stroke-width: 1; stroke-opacity: 1.00; stroke-linecap: round; stroke-linejoin: round;" id="ezcGraphLine_59"/><path d=" M 364.0000,318.9984 L 428.0000,333.8160" style="fill: none; stroke: #cc0000; stroke-width: 1; stroke-opacity: 1.00; stroke-linecap: round; stroke-linejoin: round;" id="ezcGraphLine_61"/><path d=" M 172.0000,245.5152 L 172.0000,245.5152" style="fill: none; stroke: #edd400; stroke-width: 1; stroke-opacity: 1.00; stroke-linecap: round; stroke-linejoin: round;" id="ezcGraphLine_63"/><path d=" M 172.0000,245.5152 L 236.0000,262.7520" style="fill: none; stroke: #edd400; stroke-width: 1; stroke-opacity: 1.00; stroke-linecap: round; stroke-linejoin: round;" id="ezcGraphLine_65"/><path d=" M 236.0000,262.7520 L 300.0000,325.9536" style="fill: none; stroke: #edd400; stroke-width: 1; stroke-opacity: 1.00; stroke-linecap: round; stroke-linejoin: round;" id="ezcGraphLine_67"/><path d=" M 300.0000,325.9536 L 364.0000,337.4448" style="fill: none; stroke: #edd400; stroke-width: 1; stroke-opacity: 1.00; stroke-linecap: round; stroke-linejoin: round;" id="ezcGraphLine_69"/><path d=" M 364.0000,337.4448 L 428.0000,340.1664" style="fill: none; stroke: #edd400; stroke-width: 1; stroke-opacity: 1.00; stroke-linecap: round; stroke-linejoin: round;" id="ezcGraphLine_71"/><path d=" M 300.0000,381.8976 L 300.0000,381.8976" style="fill: none; stroke: #75505b; stroke-width: 1; stroke-opacity: 1.00; stroke-linecap: round; stroke-linejoin: round;" id="ezcGraphLine_73"/><path d=" M 300.0000,381.8976 L 364.0000,363.4512" style="fill: none; stroke: #75505b; stroke-width: 1; stroke-opacity: 1.00; stroke-linecap: round; stroke-linejoin: round;" id="ezcGraphLine_75"/><path d=" M 364.0000,363.4512 L 428.0000,339.5616" style="fill: none; stroke: #75505b; stroke-width: 1; stroke-opacity: 1.00; stroke-linecap: round; stroke-linejoin: round;" id="ezcGraphLine_77"/><path d=" M 169.0000,219.4848 L 169.0000,213.4848 L 175.0000,213.4848 L 175.0000,219.4848 L 169.0000,219.4848 z " style="fill: #3465a4; fill-opacity: 1.00; stroke: none; cursor: pointer;" id="ezcGraphPolygon_79" onclick="top.location = 'http://127.0.0.1/linux-hardware.org/index.php?view=computers&amp;type=notebook&amp;f=bt_model&amp;v=Intel+Bluetooth+wireless+interface&amp;p=-1&amp;p=42'"/><path d=" M 233.0000,202.2480 L 233.0000,196.2480 L 239.0000,196.2480 L 239.0000,202.2480 L 233.0000,202.2480 z " style="fill: #3465a4; fill-opacity: 1.00; stroke: none; cursor: pointer;" id="ezcGraphPolygon_80" onclick="top.location = 'http://127.0.0.1/linux-hardware.org/index.php?view=computers&amp;type=notebook&amp;f=bt_model&amp;v=Intel+Bluetooth+wireless+interface&amp;p=-1&amp;p=54'"/><path d=" M 297.0000,166.8672 L 297.0000,160.8672 L 303.0000,160.8672 L 303.0000,166.8672 L 297.0000,166.8672 z " style="fill: #3465a4; fill-opacity: 1.00; stroke: none; cursor: pointer;" id="ezcGraphPolygon_81" onclick="top.location = 'http://127.0.0.1/linux-hardware.org/index.php?view=computers&amp;type=notebook&amp;f=bt_model&amp;v=Intel+Bluetooth+wireless+interface&amp;p=-1&amp;p=66'"/><path d=" M 361.0000,214.9488 L 361.0000,208.9488 L 367.0000,208.9488 L 367.0000,214.9488 L 361.0000,214.9488 z " style="fill: #3465a4; fill-opacity: 1.00; stroke: none; cursor: pointer;" id="ezcGraphPolygon_82" onclick="top.location = 'http://127.0.0.1/linux-hardware.org/index.php?view=computers&amp;type=notebook&amp;f=bt_model&amp;v=Intel+Bluetooth+wireless+interface&amp;p=-1&amp;p=78'"/><path d=" M 425.0000,252.4464 L 425.0000,246.4464 L 431.0000,246.4464 L 431.0000,252.4464 L 425.0000,252.4464 z " style="fill: #3465a4; fill-opacity: 1.00; stroke: none; cursor: pointer;" id="ezcGraphPolygon_83" onclick="top.location = 'http://127.0.0.1/linux-hardware.org/index.php?view=computers&amp;type=notebook&amp;f=bt_model&amp;v=Intel+Bluetooth+wireless+interface&amp;p=-1&amp;p=90'"/><path d=" M 361.0000,379.7568 L 361.0000,373.7568 L 367.0000,373.7568 L 367.0000,379.7568 L 361.0000,379.7568 z " style="fill: #4e9a06; fill-opacity: 1.00; stroke: none; cursor: pointer;" id="ezcGraphPolygon_84" onclick="top.location = 'http://127.0.0.1/linux-hardware.org/index.php?view=computers&amp;type=notebook&amp;f=bt_model&amp;v=Intel+Bluetooth+Device&amp;p=-1&amp;p=78'"/><path d=" M 425.0000,348.3072 L 425.0000,342.3072 L 431.0000,342.3072 L 431.0000,348.3072 L 425.0000,348.3072 z " style="fill: #4e9a06; fill-opacity: 1.00; stroke: none; cursor: pointer;" id="ezcGraphPolygon_85" onclick="top.location = 'http://127.0.0.1/linux-hardware.org/index.php?view=computers&amp;type=notebook&amp;f=bt_model&amp;v=Intel+Bluetooth+Device&amp;p=-1&amp;p=90'"/><path d=" M 297.0000,357.6816 L 297.0000,351.6816 L 303.0000,351.6816 L 303.0000,357.6816 L 297.0000,357.6816 z " style="fill: #cc0000; fill-opacity: 1.00; stroke: none; cursor: pointer;" id="ezcGraphPolygon_86" onclick="top.location = 'http://127.0.0.1/linux-hardware.org/index.php?view=computers&amp;type=notebook&amp;f=bt_model&amp;v=Intel+Bluetooth+9460%2F9560+Jefferson+Peak+%28JfP%29&amp;p=-1&amp;p=66'"/><path d=" M 361.0000,321.9984 L 361.0000,315.9984 L 367.0000,315.9984 L 367.0000,321.9984 L 361.0000,321.9984 z " style="fill: #cc0000; fill-opacity: 1.00; stroke: none; cursor: pointer;" id="ezcGraphPolygon_87" onclick="top.location = 'http://127.0.0.1/linux-hardware.org/index.php?view=computers&amp;type=notebook&amp;f=bt_model&amp;v=Intel+Bluetooth+9460%2F9560+Jefferson+Peak+%28JfP%29&amp;p=-1&amp;p=78'"/><path d=" M 425.0000,336.8160 L 425.0000,330.8160 L 431.0000,330.8160 L 431.0000,336.8160 L 425.0000,336.8160 z " style="fill: #cc0000; fill-opacity: 1.00; stroke: none; cursor: pointer;" id="ezcGraphPolygon_88" onclick="top.location = 'http://127.0.0.1/linux-hardware.org/index.php?view=computers&amp;type=notebook&amp;f=bt_model&amp;v=Intel+Bluetooth+9460%2F9560+Jefferson+Peak+%28JfP%29&amp;p=-1&amp;p=90'"/><path d=" M 169.0000,248.5152 L 169.0000,242.5152 L 175.0000,242.5152 L 175.0000,248.5152 L 169.0000,248.5152 z " style="fill: #edd400; fill-opacity: 1.00; stroke: none; cursor: pointer;" id="ezcGraphPolygon_89" onclick="top.location = 'http://127.0.0.1/linux-hardware.org/index.php?view=computers&amp;type=notebook&amp;f=bt_model&amp;v=Realtek+Semiconductor+Bluetooth+Radio&amp;p=-1&amp;p=42'"/><path d=" M 233.0000,265.7520 L 233.0000,259.7520 L 239.0000,259.7520 L 239.0000,265.7520 L 233.0000,265.7520 z " style="fill: #edd400; fill-opacity: 1.00; stroke: none; cursor: pointer;" id="ezcGraphPolygon_90" onclick="top.location = 'http://127.0.0.1/linux-hardware.org/index.php?view=computers&amp;type=notebook&amp;f=bt_model&amp;v=Realtek+Semiconductor+Bluetooth+Radio&amp;p=-1&amp;p=54'"/><path d=" M 297.0000,328.9536 L 297.0000,322.9536 L 303.0000,322.9536 L 303.0000,328.9536 L 297.0000,328.9536 z " style="fill: #edd400; fill-opacity: 1.00; stroke: none; cursor: pointer;" id="ezcGraphPolygon_91" onclick="top.location = 'http://127.0.0.1/linux-hardware.org/index.php?view=computers&amp;type=notebook&amp;f=bt_model&amp;v=Realtek+Semiconductor+Bluetooth+Radio&amp;p=-1&amp;p=66'"/><path d=" M 361.0000,340.4448 L 361.0000,334.4448 L 367.0000,334.4448 L 367.0000,340.4448 L 361.0000,340.4448 z " style="fill: #edd400; fill-opacity: 1.00; stroke: none; cursor: pointer;" id="ezcGraphPolygon_92" onclick="top.location = 'http://127.0.0.1/linux-hardware.org/index.php?view=computers&amp;type=notebook&amp;f=bt_model&amp;v=Realtek+Semiconductor+Bluetooth+Radio&amp;p=-1&amp;p=78'"/><path d=" M 425.0000,343.1664 L 425.0000,337.1664 L 431.0000,337.1664 L 431.0000,343.1664 L 425.0000,343.1664 z " style="fill: #edd400; fill-opacity: 1.00; stroke: none; cursor: pointer;" id="ezcGraphPolygon_93" onclick="top.location = 'http://127.0.0.1/linux-hardware.org/index.php?view=computers&amp;type=notebook&amp;f=bt_model&amp;v=Realtek+Semiconductor+Bluetooth+Radio&amp;p=-1&amp;p=90'"/><path d=" M 297.0000,384.8976 L 297.0000,378.8976 L 303.0000,378.8976 L 303.0000,384.8976 L 297.0000,384.8976 z " style="fill: #75505b; fill-opacity: 1.00; stroke: none; cursor: pointer;" id="ezcGraphPolygon_94" onclick="top.location = 'http://127.0.0.1/linux-hardware.org/index.php?view=computers&amp;type=notebook&amp;f=bt_model&amp;v=Intel+AX200+Bluetooth&amp;p=-1&amp;p=66'"/><path d=" M 361.0000,366.4512 L 361.0000,360.4512 L 367.0000,360.4512 L 367.0000,366.4512 L 361.0000,366.4512 z " style="fill: #75505b; fill-opacity: 1.00; stroke: none; cursor: pointer;" id="ezcGraphPolygon_95" onclick="top.location = 'http://127.0.0.1/linux-hardware.org/index.php?view=computers&amp;type=notebook&amp;f=bt_model&amp;v=Intel+AX200+Bluetooth&amp;p=-1&amp;p=78'"/><path d=" M 425.0000,342.5616 L 425.0000,336.5616 L 431.0000,336.5616 L 431.0000,342.5616 L 425.0000,342.5616 z " style="fill: #75505b; fill-opacity: 1.00; stroke: none; cursor: pointer;" id="ezcGraphPolygon_96" onclick="top.location = 'http://127.0.0.1/linux-hardware.org/index.php?view=computers&amp;type=notebook&amp;f=bt_model&amp;v=Intel+AX200+Bluetooth&amp;p=-1&amp;p=90'"/><g id="ezcGraphTextBox_3"><path d=" M 90.5000,42.0000 L 90.5000,0.5000 L 410.0000,0.5000 L 410.0000,42.0000 L 90.5000,42.0000 z " style="fill: #ffffff; fill-opacity: 0.00; stroke: none;" id="ezcGraphPolygon_97"/><text id="ezcGraphTextBox_3_text" x="91.0000" text-length="318.0000px" y="35.0000" style="font-size: 40px; font-family: 'Arial'; fill: #2e3436; fill-opacity: 1.00; stroke: none;">Bluetooth Model</text></g><g id="ezcGraphTextBox_6" style=" cursor: pointer;" onclick="top.location = 'http://127.0.0.1/linux-hardware.org/index.php?view=computers&amp;type=notebook&amp;f=bt_model&amp;v=Intel+Bluetooth+wireless+interface&amp;p=-1'"><path d=" M 16.5000,56.5000 L 16.5000,46.0000 L 94.3200,46.0000 L 94.3200,56.5000 L 16.5000,56.5000 z " style="fill: #ffffff; fill-opacity: 0.00; stroke: none;" id="ezcGraphPolygon_98"/><text id="ezcGraphTextBox_6_text" x="17.0000" text-length="76.3200px" y="54.1500" style="font-size: 9px; font-family: 'Arial'; fill: #2e3436; fill-opacity: 1.00; stroke: none;">Bluetooth wir...</text></g><g id="ezcGraphTextBox_8" style=" cursor: pointer;" onclick="top.location = 'http://127.0.0.1/linux-hardware.org/index.php?view=computers&amp;type=notebook&amp;f=bt_model&amp;v=Intel+Bluetooth+Device&amp;p=-1'"><path d=" M 16.5000,74.5000 L 16.5000,64.0000 L 94.3200,64.0000 L 94.3200,74.5000 L 16.5000,74.5000 z " style="fill: #ffffff; fill-opacity: 0.00; stroke: none;" id="ezcGraphPolygon_99"/><text id="ezcGraphTextBox_8_text" x="17.0000" text-length="76.3200px" y="72.1500" style="font-size: 9px; font-family: 'Arial'; fill: #2e3436; fill-opacity: 1.00; stroke: none;">Bluetooth Device</text></g><g id="ezcGraphTextBox_10" style=" cursor: pointer;" onclick="top.location = 'http://127.0.0.1/linux-hardware.org/index.php?view=computers&amp;type=notebook&amp;f=bt_model&amp;v=Intel+Bluetooth+9460%2F9560+Jefferson+Peak+%28JfP%29&amp;p=-1'"><path d=" M 16.5000,92.5000 L 16.5000,82.0000 L 94.3200,82.0000 L 94.3200,92.5000 L 16.5000,92.5000 z " style="fill: #ffffff; fill-opacity: 0.00; stroke: none;" id="ezcGraphPolygon_100"/><text id="ezcGraphTextBox_10_text" x="17.0000" text-length="76.3200px" y="90.1500" style="font-size: 9px; font-family: 'Arial'; fill: #2e3436; fill-opacity: 1.00; stroke: none;">Bluetooth 946...</text></g><g id="ezcGraphTextBox_12" style=" cursor: pointer;" onclick="top.location = 'http://127.0.0.1/linux-hardware.org/index.php?view=computers&amp;type=notebook&amp;f=bt_model&amp;v=Realtek+Semiconductor+Bluetooth+Radio&amp;p=-1'"><path d=" M 16.5000,110.5000 L 16.5000,100.0000 L 89.5500,100.0000 L 89.5500,110.5000 L 16.5000,110.5000 z " style="fill: #ffffff; fill-opacity: 0.00; stroke: none;" id="ezcGraphPolygon_101"/><text id="ezcGraphTextBox_12_text" x="17.0000" text-length="71.5500px" y="108.1500" style="font-size: 9px; font-family: 'Arial'; fill: #2e3436; fill-opacity: 1.00; stroke: none;">Bluetooth Radio</text></g><g id="ezcGraphTextBox_14" style=" cursor: pointer;" onclick="top.location = 'http://127.0.0.1/linux-hardware.org/index.php?view=computers&amp;type=notebook&amp;f=bt_model&amp;v=Intel+AX200+Bluetooth&amp;p=-1'"><path d=" M 16.5000,128.5000 L 16.5000,118.0000 L 89.5500,118.0000 L 89.5500,128.5000 L 16.5000,128.5000 z " style="fill: #ffffff; fill-opacity: 0.00; stroke: none;" id="ezcGraphPolygon_102"/><text id="ezcGraphTextBox_14_text" x="17.0000" text-length="71.5500px" y="126.1500" style="font-size: 9px; font-family: 'Arial'; fill: #2e3436; fill-opacity: 1.00; stroke: none;">AX200 Bluetooth</text></g><g id="ezcGraphTextBox_17" transform="rotate( 0.00 493.0000 375.2000 )"><path d=" M 463.0500,381.2000 L 463.0500,366.7000 L 499.0000,366.7000 L 499.0000,381.2000 L 463.0500,381.2000 z " style="fill: #ffffff; fill-opacity: 0.00; stroke: none;" id="ezcGraphPolygon_103"/><text id="ezcGraphTextBox_17_text" x="463.5500" text-length="34.4500px" y="378.2500" style="font-size: 13px; font-family: 'Arial'; fill: #2e3436; fill-opacity: 1.00; stroke: none;">Time </text></g><g id="ezcGraphTextBox_18"><path d=" M 155.3800,411.3000 L 155.3800,383.7000 L 189.1200,383.7000 L 189.1200,411.3000 L 155.3800,411.3000 z " style="fill: #ffffff; fill-opacity: 0.00; stroke: none;" id="ezcGraphPolygon_104"/><text id="ezcGraphTextBox_18_text" x="161.6650" text-length="20.6700px" y="395.2500" style="font-size: 13px; font-family: 'Arial'; fill: #2e3436; fill-opacity: 1.00; stroke: none;">Jun</text><text id="ezcGraphTextBox_18_text" x="155.8800" text-length="32.2400px" y="409.5500" style="font-size: 13px; font-family: 'Arial'; fill: #2e3436; fill-opacity: 1.00; stroke: none;">2017</text></g><g id="ezcGraphTextBox_21"><path d=" M 219.3800,411.3000 L 219.3800,383.7000 L 253.1200,383.7000 L 253.1200,411.3000 L 219.3800,411.3000 z " style="fill: #ffffff; fill-opacity: 0.00; stroke: none;" id="ezcGraphPolygon_105"/><text id="ezcGraphTextBox_21_text" x="225.6650" text-length="20.6700px" y="395.2500" style="font-size: 13px; font-family: 'Arial'; fill: #2e3436; fill-opacity: 1.00; stroke: none;">Jun</text><text id="ezcGraphTextBox_21_text" x="219.8800" text-length="32.2400px" y="409.5500" style="font-size: 13px; font-family: 'Arial'; fill: #2e3436; fill-opacity: 1.00; stroke: none;">2018</text></g><g id="ezcGraphTextBox_24"><path d=" M 283.3800,411.3000 L 283.3800,383.7000 L 317.1200,383.7000 L 317.1200,411.3000 L 283.3800,411.3000 z " style="fill: #ffffff; fill-opacity: 0.00; stroke: none;" id="ezcGraphPolygon_106"/><text id="ezcGraphTextBox_24_text" x="289.6650" text-length="20.6700px" y="395.2500" style="font-size: 13px; font-family: 'Arial'; fill: #2e3436; fill-opacity: 1.00; stroke: none;">Jun</text><text id="ezcGraphTextBox_24_text" x="283.8800" text-length="32.2400px" y="409.5500" style="font-size: 13px; font-family: 'Arial'; fill: #2e3436; fill-opacity: 1.00; stroke: none;">2019</text></g><g id="ezcGraphTextBox_27"><path d=" M 347.3800,411.3000 L 347.3800,383.7000 L 381.1200,383.7000 L 381.1200,411.3000 L 347.3800,411.3000 z " style="fill: #ffffff; fill-opacity: 0.00; stroke: none;" id="ezcGraphPolygon_107"/><text id="ezcGraphTextBox_27_text" x="353.6650" text-length="20.6700px" y="395.2500" style="font-size: 13px; font-family: 'Arial'; fill: #2e3436; fill-opacity: 1.00; stroke: none;">Jun</text><text id="ezcGraphTextBox_27_text" x="347.8800" text-length="32.2400px" y="409.5500" style="font-size: 13px; font-family: 'Arial'; fill: #2e3436; fill-opacity: 1.00; stroke: none;">2020</text></g><g id="ezcGraphTextBox_30"><path d=" M 411.3800,411.3000 L 411.3800,383.7000 L 445.1200,383.7000 L 445.1200,411.3000 L 411.3800,411.3000 z " style="fill: #ffffff; fill-opacity: 0.00; stroke: none;" id="ezcGraphPolygon_108"/><text id="ezcGraphTextBox_30_text" x="417.6650" text-length="20.6700px" y="395.2500" style="font-size: 13px; font-family: 'Arial'; fill: #2e3436; fill-opacity: 1.00; stroke: none;">Jun</text><text id="ezcGraphTextBox_30_text" x="411.8800" text-length="32.2400px" y="409.5500" style="font-size: 13px; font-family: 'Arial'; fill: #2e3436; fill-opacity: 1.00; stroke: none;">2021</text></g><g id="ezcGraphTextBox_35" transform="rotate( 0.00 147.0000 49.0000 )"><path d=" M 141.5000,58.0000 L 141.5000,43.5000 L 384.1500,43.5000 L 384.1500,58.0000 L 141.5000,58.0000 z " style="fill: #ffffff; fill-opacity: 0.00; stroke: none;" id="ezcGraphPolygon_109"/><text id="ezcGraphTextBox_35_text" x="142.0000" text-length="241.1500px" y="55.0500" style="font-size: 13px; font-family: 'Arial'; fill: #2e3436; fill-opacity: 1.00; stroke: none;">Notebooks by "Bluetooth Model" in %</text></g><g id="ezcGraphTextBox_36"><path d=" M 129.4400,381.2000 L 129.4400,366.7000 L 139.0000,366.7000 L 139.0000,381.2000 L 129.4400,381.2000 z " style="fill: #ffffff; fill-opacity: 0.00; stroke: none;" id="ezcGraphPolygon_110"/><text id="ezcGraphTextBox_36_text" x="129.9400" text-length="8.0600px" y="378.2500" style="font-size: 13px; font-family: 'Arial'; fill: #2e3436; fill-opacity: 1.00; stroke: none;">0</text></g><g id="ezcGraphTextBox_39"><path d=" M 121.3800,230.0000 L 121.3800,215.5000 L 139.0000,215.5000 L 139.0000,230.0000 L 121.3800,230.0000 z " style="fill: #ffffff; fill-opacity: 0.00; stroke: none;" id="ezcGraphPolygon_111"/><text id="ezcGraphTextBox_39_text" x="121.8800" text-length="16.1200px" y="227.0500" style="font-size: 13px; font-family: 'Arial'; fill: #2e3436; fill-opacity: 1.00; stroke: none;">50</text></g><g id="ezcGraphTextBox_42"><path d=" M 113.3200,95.8000 L 113.3200,81.3000 L 139.0000,81.3000 L 139.0000,95.8000 L 113.3200,95.8000 z " style="fill: #ffffff; fill-opacity: 0.00; stroke: none;" id="ezcGraphPolygon_112"/><text id="ezcGraphTextBox_42_text" x="113.8200" text-length="24.1800px" y="92.8500" style="font-size: 13px; font-family: 'Arial'; fill: #2e3436; fill-opacity: 1.00; stroke: none;">100</text></g><g id="ezcGraphTextBox_44"><path d=" M 159.1000,211.4848 L 159.1000,199.9848 L 185.4000,199.9848 L 185.4000,211.4848 L 159.1000,211.4848 z " style="fill: #ffffff; fill-opacity: 0.00; stroke: none;" id="ezcGraphPolygon_113"/><text id="ezcGraphTextBox_44_text" x="159.6000" text-length="24.8000px" y="208.9848" style="font-size: 10px; font-family: 'Arial'; fill: #2e3436; fill-opacity: 1.00; stroke: none;">54.8</text></g><g id="ezcGraphTextBox_46"><path d=" M 223.1000,194.2480 L 223.1000,182.7480 L 249.4000,182.7480 L 249.4000,194.2480 L 223.1000,194.2480 z " style="fill: #ffffff; fill-opacity: 0.00; stroke: none;" id="ezcGraphPolygon_114"/><text id="ezcGraphTextBox_46_text" x="223.6000" text-length="24.8000px" y="191.7480" style="font-size: 10px; font-family: 'Arial'; fill: #2e3436; fill-opacity: 1.00; stroke: none;">60.5</text></g><g id="ezcGraphTextBox_48"><path d=" M 287.1000,158.8672 L 287.1000,147.3672 L 313.4000,147.3672 L 313.4000,158.8672 L 287.1000,158.8672 z " style="fill: #ffffff; fill-opacity: 0.00; stroke: none;" id="ezcGraphPolygon_115"/><text id="ezcGraphTextBox_48_text" x="287.6000" text-length="24.8000px" y="156.3672" style="font-size: 10px; font-family: 'Arial'; fill: #2e3436; fill-opacity: 1.00; stroke: none;">72.2</text></g><g id="ezcGraphTextBox_50"><path d=" M 351.1000,206.9488 L 351.1000,195.4488 L 377.4000,195.4488 L 377.4000,206.9488 L 351.1000,206.9488 z " style="fill: #ffffff; fill-opacity: 0.00; stroke: none;" id="ezcGraphPolygon_116"/><text id="ezcGraphTextBox_50_text" x="351.6000" text-length="24.8000px" y="204.4488" style="font-size: 10px; font-family: 'Arial'; fill: #2e3436; fill-opacity: 1.00; stroke: none;">56.3</text></g><g id="ezcGraphTextBox_52"><path d=" M 415.1000,244.4464 L 415.1000,232.9464 L 441.4000,232.9464 L 441.4000,244.4464 L 415.1000,244.4464 z " style="fill: #ffffff; fill-opacity: 0.00; stroke: none;" id="ezcGraphPolygon_117"/><text id="ezcGraphTextBox_52_text" x="415.6000" text-length="24.8000px" y="241.9464" style="font-size: 10px; font-family: 'Arial'; fill: #2e3436; fill-opacity: 1.00; stroke: none;">43.9</text></g><g id="ezcGraphTextBox_54"><path d=" M 354.2000,371.7568 L 354.2000,360.2568 L 374.3000,360.2568 L 374.3000,371.7568 L 354.2000,371.7568 z " style="fill: #ffffff; fill-opacity: 0.00; stroke: none;" id="ezcGraphPolygon_118"/><text id="ezcGraphTextBox_54_text" x="354.7000" text-length="18.6000px" y="369.2568" style="font-size: 10px; font-family: 'Arial'; fill: #2e3436; fill-opacity: 1.00; stroke: none;">1.8</text></g><g id="ezcGraphTextBox_56"><path d=" M 415.1000,340.3072 L 415.1000,328.8072 L 441.4000,328.8072 L 441.4000,340.3072 L 415.1000,340.3072 z " style="fill: #ffffff; fill-opacity: 0.00; stroke: none;" id="ezcGraphPolygon_119"/><text id="ezcGraphTextBox_56_text" x="415.6000" text-length="24.8000px" y="337.8072" style="font-size: 10px; font-family: 'Arial'; fill: #2e3436; fill-opacity: 1.00; stroke: none;">12.2</text></g><g id="ezcGraphTextBox_58"><path d=" M 290.2000,349.6816 L 290.2000,338.1816 L 310.3000,338.1816 L 310.3000,349.6816 L 290.2000,349.6816 z " style="fill: #ffffff; fill-opacity: 0.00; stroke: none;" id="ezcGraphPolygon_120"/><text id="ezcGraphTextBox_58_text" x="290.7000" text-length="18.6000px" y="347.1816" style="font-size: 10px; font-family: 'Arial'; fill: #2e3436; fill-opacity: 1.00; stroke: none;">9.1</text></g><g id="ezcGraphTextBox_60"><path d=" M 351.1000,313.9984 L 351.1000,302.4984 L 377.4000,302.4984 L 377.4000,313.9984 L 351.1000,313.9984 z " style="fill: #ffffff; fill-opacity: 0.00; stroke: none;" id="ezcGraphPolygon_121"/><text id="ezcGraphTextBox_60_text" x="351.6000" text-length="24.8000px" y="311.4984" style="font-size: 10px; font-family: 'Arial'; fill: #2e3436; fill-opacity: 1.00; stroke: none;">20.9</text></g><g id="ezcGraphTextBox_62"><path d=" M 421.3000,328.8160 L 421.3000,317.3160 L 435.2000,317.3160 L 435.2000,328.8160 L 421.3000,328.8160 z " style="fill: #ffffff; fill-opacity: 0.00; stroke: none;" id="ezcGraphPolygon_122"/><text id="ezcGraphTextBox_62_text" x="421.8000" text-length="12.4000px" y="326.3160" style="font-size: 10px; font-family: 'Arial'; fill: #2e3436; fill-opacity: 1.00; stroke: none;">16</text></g><g id="ezcGraphTextBox_64"><path d=" M 159.1000,240.5152 L 159.1000,229.0152 L 185.4000,229.0152 L 185.4000,240.5152 L 159.1000,240.5152 z " style="fill: #ffffff; fill-opacity: 0.00; stroke: none;" id="ezcGraphPolygon_123"/><text id="ezcGraphTextBox_64_text" x="159.6000" text-length="24.8000px" y="238.0152" style="font-size: 10px; font-family: 'Arial'; fill: #2e3436; fill-opacity: 1.00; stroke: none;">45.2</text></g><g id="ezcGraphTextBox_66"><path d=" M 223.1000,257.7520 L 223.1000,246.2520 L 249.4000,246.2520 L 249.4000,257.7520 L 223.1000,257.7520 z " style="fill: #ffffff; fill-opacity: 0.00; stroke: none;" id="ezcGraphPolygon_124"/><text id="ezcGraphTextBox_66_text" x="223.6000" text-length="24.8000px" y="255.2520" style="font-size: 10px; font-family: 'Arial'; fill: #2e3436; fill-opacity: 1.00; stroke: none;">39.5</text></g><g id="ezcGraphTextBox_68"><path d=" M 287.1000,320.9536 L 287.1000,309.4536 L 313.4000,309.4536 L 313.4000,320.9536 L 287.1000,320.9536 z " style="fill: #ffffff; fill-opacity: 0.00; stroke: none;" id="ezcGraphPolygon_125"/><text id="ezcGraphTextBox_68_text" x="287.6000" text-length="24.8000px" y="318.4536" style="font-size: 10px; font-family: 'Arial'; fill: #2e3436; fill-opacity: 1.00; stroke: none;">18.6</text></g><g id="ezcGraphTextBox_70"><path d=" M 351.1000,332.4448 L 351.1000,320.9448 L 377.4000,320.9448 L 377.4000,332.4448 L 351.1000,332.4448 z " style="fill: #ffffff; fill-opacity: 0.00; stroke: none;" id="ezcGraphPolygon_126"/><text id="ezcGraphTextBox_70_text" x="351.6000" text-length="24.8000px" y="329.9448" style="font-size: 10px; font-family: 'Arial'; fill: #2e3436; fill-opacity: 1.00; stroke: none;">14.8</text></g><g id="ezcGraphTextBox_72"><path d=" M 415.1000,335.1664 L 415.1000,323.6664 L 441.4000,323.6664 L 441.4000,335.1664 L 415.1000,335.1664 z " style="fill: #ffffff; fill-opacity: 0.00; stroke: none;" id="ezcGraphPolygon_127"/><text id="ezcGraphTextBox_72_text" x="415.6000" text-length="24.8000px" y="332.6664" style="font-size: 10px; font-family: 'Arial'; fill: #2e3436; fill-opacity: 1.00; stroke: none;">13.9</text></g><g id="ezcGraphTextBox_74"><path d=" M 290.2000,376.8976 L 290.2000,365.3976 L 310.3000,365.3976 L 310.3000,376.8976 L 290.2000,376.8976 z " style="fill: #ffffff; fill-opacity: 0.00; stroke: none;" id="ezcGraphPolygon_128"/><text id="ezcGraphTextBox_74_text" x="290.7000" text-length="18.6000px" y="374.3976" style="font-size: 10px; font-family: 'Arial'; fill: #2e3436; fill-opacity: 1.00; stroke: none;">0.1</text></g><g id="ezcGraphTextBox_76"><path d=" M 354.2000,358.4512 L 354.2000,346.9512 L 374.3000,346.9512 L 374.3000,358.4512 L 354.2000,358.4512 z " style="fill: #ffffff; fill-opacity: 0.00; stroke: none;" id="ezcGraphPolygon_129"/><text id="ezcGraphTextBox_76_text" x="354.7000" text-length="18.6000px" y="355.9512" style="font-size: 10px; font-family: 'Arial'; fill: #2e3436; fill-opacity: 1.00; stroke: none;">6.2</text></g><g id="ezcGraphTextBox_78"><path d=" M 415.1000,334.5616 L 415.1000,323.0616 L 441.4000,323.0616 L 441.4000,334.5616 L 415.1000,334.5616 z " style="fill: #ffffff; fill-opacity: 0.00; stroke: none;" id="ezcGraphPolygon_130"/><text id="ezcGraphTextBox_78_text" x="415.6000" text-length="24.8000px" y="332.0616" style="font-size: 10px; font-family: 'Arial'; fill: #2e3436; fill-opacity: 1.00; stroke: none;">14.1</text></g></g></svg>
