<?xml version="1.0"?>
<svg xmlns="http://www.w3.org/2000/svg" width="500" height="420" version="1.0" id="ezcGraph"><defs/><g id="ezcGraphChart" color-rendering="optimizeQuality" shape-rendering="geometricPrecision" text-rendering="optimizeLegibility"><path d=" M 0.0000,420.0000 L 0.0000,0.0000 L 500.0000,0.0000 L 500.0000,420.0000 L 0.0000,420.0000 z " style="fill: #eeeeec; fill-opacity: 1.00; stroke: none;" id="ezcGraphPolygon_1"/><path d=" M 0.0000,42.0000 L 0.0000,0.0000 L 500.0000,0.0000 L 500.0000,42.0000 L 0.0000,42.0000 z " style="fill: #000000; fill-opacity: 0.00; stroke: none;" id="ezcGraphPolygon_2"/><path d=" M 0.0000,420.0000 L 0.0000,42.0000 L 100.0000,42.0000 L 100.0000,420.0000 L 0.0000,420.0000 z " style="fill: #000000; fill-opacity: 0.00; stroke: none;" id="ezcGraphPolygon_4"/><path d=" M 2.0000,58.0000 L 2.0000,44.0000 L 16.0000,44.0000 L 16.0000,58.0000 L 2.0000,58.0000 z " style="fill: #3465a4; fill-opacity: 1.00; stroke: none; cursor: pointer;" id="ezcGraphPolygon_5" onclick="top.location = 'http://127.0.0.1/linux-hardware.org/index.php?view=computers&amp;type=notebook&amp;f=gpu_driver&amp;v=free&amp;p=-1'"/><path d=" M 2.0000,76.0000 L 2.0000,62.0000 L 16.0000,62.0000 L 16.0000,76.0000 L 2.0000,76.0000 z " style="fill: #4e9a06; fill-opacity: 1.00; stroke: none; cursor: pointer;" id="ezcGraphPolygon_7" onclick="top.location = 'http://127.0.0.1/linux-hardware.org/index.php?view=computers&amp;type=notebook&amp;f=gpu_driver&amp;v=proprietary&amp;p=-1'"/><path d=" M 2.0000,94.0000 L 2.0000,80.0000 L 16.0000,80.0000 L 16.0000,94.0000 L 2.0000,94.0000 z " style="fill: #cc0000; fill-opacity: 1.00; stroke: none; cursor: pointer;" id="ezcGraphPolygon_9" onclick="top.location = 'http://127.0.0.1/linux-hardware.org/index.php?view=computers&amp;type=notebook&amp;f=gpu_driver&amp;v=&amp;p=-1'"/><path d=" M 100.0000,382.2000 L 500.0000,382.2000" style="fill: none; stroke: #2e3436; stroke-width: 1; stroke-opacity: 1.00; stroke-linecap: round; stroke-linejoin: round;" id="ezcGraphLine_11"/><path d=" M 492.0000,378.2000 L 500.0000,382.2000 L 492.0000,386.2000 L 492.0000,378.2000 z " style="fill: #2e3436; fill-opacity: 1.00; stroke: none;" id="ezcGraphPolygon_12"/><path d=" M 204.0000,79.8000 L 204.0000,382.2000" style="fill: none; stroke: #000000; stroke-width: 1; stroke-opacity: 0.00; stroke-linecap: round; stroke-linejoin: round;" id="ezcGraphLine_15"/><path d=" M 204.0000,379.2000 L 204.0000,385.2000" style="fill: none; stroke: #2e3436; stroke-width: 1; stroke-opacity: 1.00; stroke-linecap: round; stroke-linejoin: round;" id="ezcGraphLine_16"/><path d=" M 268.0000,79.8000 L 268.0000,382.2000" style="fill: none; stroke: #000000; stroke-width: 1; stroke-opacity: 0.00; stroke-linecap: round; stroke-linejoin: round;" id="ezcGraphLine_18"/><path d=" M 268.0000,379.2000 L 268.0000,385.2000" style="fill: none; stroke: #2e3436; stroke-width: 1; stroke-opacity: 1.00; stroke-linecap: round; stroke-linejoin: round;" id="ezcGraphLine_19"/><path d=" M 332.0000,79.8000 L 332.0000,382.2000" style="fill: none; stroke: #000000; stroke-width: 1; stroke-opacity: 0.00; stroke-linecap: round; stroke-linejoin: round;" id="ezcGraphLine_21"/><path d=" M 332.0000,379.2000 L 332.0000,385.2000" style="fill: none; stroke: #2e3436; stroke-width: 1; stroke-opacity: 1.00; stroke-linecap: round; stroke-linejoin: round;" id="ezcGraphLine_22"/><path d=" M 396.0000,79.8000 L 396.0000,382.2000" style="fill: none; stroke: #000000; stroke-width: 1; stroke-opacity: 0.00; stroke-linecap: round; stroke-linejoin: round;" id="ezcGraphLine_24"/><path d=" M 396.0000,379.2000 L 396.0000,385.2000" style="fill: none; stroke: #2e3436; stroke-width: 1; stroke-opacity: 1.00; stroke-linecap: round; stroke-linejoin: round;" id="ezcGraphLine_25"/><path d=" M 460.0000,79.8000 L 460.0000,382.2000" style="fill: none; stroke: #000000; stroke-width: 1; stroke-opacity: 0.00; stroke-linecap: round; stroke-linejoin: round;" id="ezcGraphLine_27"/><path d=" M 460.0000,379.2000 L 460.0000,385.2000" style="fill: none; stroke: #2e3436; stroke-width: 1; stroke-opacity: 1.00; stroke-linecap: round; stroke-linejoin: round;" id="ezcGraphLine_28"/><path d=" M 140.0000,420.0000 L 140.0000,42.0000" style="fill: none; stroke: #2e3436; stroke-width: 1; stroke-opacity: 1.00; stroke-linecap: round; stroke-linejoin: round;" id="ezcGraphLine_29"/><path d=" M 136.0000,50.0000 L 140.0000,42.0000 L 144.0000,50.0000 L 136.0000,50.0000 z " style="fill: #2e3436; fill-opacity: 1.00; stroke: none;" id="ezcGraphPolygon_30"/><path d=" M 140.0000,231.0000 L 460.0000,231.0000" style="fill: none; stroke: #000000; stroke-width: 1; stroke-opacity: 0.00; stroke-linecap: round; stroke-linejoin: round;" id="ezcGraphLine_33"/><path d=" M 140.0000,231.0000 L 143.0000,231.0000" style="fill: none; stroke: #2e3436; stroke-width: 1; stroke-opacity: 1.00; stroke-linecap: round; stroke-linejoin: round;" id="ezcGraphLine_34"/><path d=" M 140.0000,79.8000 L 460.0000,79.8000" style="fill: none; stroke: #000000; stroke-width: 1; stroke-opacity: 0.00; stroke-linecap: round; stroke-linejoin: round;" id="ezcGraphLine_36"/><path d=" M 140.0000,79.8000 L 143.0000,79.8000" style="fill: none; stroke: #2e3436; stroke-width: 1; stroke-opacity: 1.00; stroke-linecap: round; stroke-linejoin: round;" id="ezcGraphLine_37"/><path d=" M 172.0000,121.5312 L 172.0000,121.5312" style="fill: none; stroke: #3465a4; stroke-width: 1; stroke-opacity: 1.00; stroke-linecap: round; stroke-linejoin: round;" id="ezcGraphLine_39"/><path d=" M 172.0000,121.5312 L 236.0000,105.8064" style="fill: none; stroke: #3465a4; stroke-width: 1; stroke-opacity: 1.00; stroke-linecap: round; stroke-linejoin: round;" id="ezcGraphLine_41"/><path d=" M 236.0000,105.8064 L 300.0000,114.5760" style="fill: none; stroke: #3465a4; stroke-width: 1; stroke-opacity: 1.00; stroke-linecap: round; stroke-linejoin: round;" id="ezcGraphLine_43"/><path d=" M 300.0000,114.5760 L 364.0000,123.6480" style="fill: none; stroke: #3465a4; stroke-width: 1; stroke-opacity: 1.00; stroke-linecap: round; stroke-linejoin: round;" id="ezcGraphLine_45"/><path d=" M 364.0000,123.6480 L 428.0000,129.6960" style="fill: none; stroke: #3465a4; stroke-width: 1; stroke-opacity: 1.00; stroke-linecap: round; stroke-linejoin: round;" id="ezcGraphLine_47"/><path d=" M 172.0000,354.0768 L 172.0000,354.0768" style="fill: none; stroke: #4e9a06; stroke-width: 1; stroke-opacity: 1.00; stroke-linecap: round; stroke-linejoin: round;" id="ezcGraphLine_49"/><path d=" M 172.0000,354.0768 L 236.0000,368.2896" style="fill: none; stroke: #4e9a06; stroke-width: 1; stroke-opacity: 1.00; stroke-linecap: round; stroke-linejoin: round;" id="ezcGraphLine_51"/><path d=" M 236.0000,368.2896 L 300.0000,355.8912" style="fill: none; stroke: #4e9a06; stroke-width: 1; stroke-opacity: 1.00; stroke-linecap: round; stroke-linejoin: round;" id="ezcGraphLine_53"/><path d=" M 300.0000,355.8912 L 364.0000,346.5168" style="fill: none; stroke: #4e9a06; stroke-width: 1; stroke-opacity: 1.00; stroke-linecap: round; stroke-linejoin: round;" id="ezcGraphLine_55"/><path d=" M 364.0000,346.5168 L 428.0000,340.4688" style="fill: none; stroke: #4e9a06; stroke-width: 1; stroke-opacity: 1.00; stroke-linecap: round; stroke-linejoin: round;" id="ezcGraphLine_57"/><path d=" M 172.0000,368.5920 L 172.0000,368.5920" style="fill: none; stroke: #cc0000; stroke-width: 1; stroke-opacity: 1.00; stroke-linecap: round; stroke-linejoin: round;" id="ezcGraphLine_59"/><path d=" M 172.0000,368.5920 L 236.0000,370.1040" style="fill: none; stroke: #cc0000; stroke-width: 1; stroke-opacity: 1.00; stroke-linecap: round; stroke-linejoin: round;" id="ezcGraphLine_61"/><path d=" M 236.0000,370.1040 L 300.0000,373.7328" style="fill: none; stroke: #cc0000; stroke-width: 1; stroke-opacity: 1.00; stroke-linecap: round; stroke-linejoin: round;" id="ezcGraphLine_63"/><path d=" M 300.0000,373.7328 L 364.0000,374.0352" style="fill: none; stroke: #cc0000; stroke-width: 1; stroke-opacity: 1.00; stroke-linecap: round; stroke-linejoin: round;" id="ezcGraphLine_65"/><path d=" M 364.0000,374.0352 L 428.0000,374.0352" style="fill: none; stroke: #cc0000; stroke-width: 1; stroke-opacity: 1.00; stroke-linecap: round; stroke-linejoin: round;" id="ezcGraphLine_67"/><path d=" M 169.0000,124.5312 L 169.0000,118.5312 L 175.0000,118.5312 L 175.0000,124.5312 L 169.0000,124.5312 z " style="fill: #3465a4; fill-opacity: 1.00; stroke: none; cursor: pointer;" id="ezcGraphPolygon_69" onclick="top.location = 'http://127.0.0.1/linux-hardware.org/index.php?view=computers&amp;type=notebook&amp;f=gpu_driver&amp;v=free&amp;p=-1&amp;p=42'"/><path d=" M 233.0000,108.8064 L 233.0000,102.8064 L 239.0000,102.8064 L 239.0000,108.8064 L 233.0000,108.8064 z " style="fill: #3465a4; fill-opacity: 1.00; stroke: none; cursor: pointer;" id="ezcGraphPolygon_70" onclick="top.location = 'http://127.0.0.1/linux-hardware.org/index.php?view=computers&amp;type=notebook&amp;f=gpu_driver&amp;v=free&amp;p=-1&amp;p=54'"/><path d=" M 297.0000,117.5760 L 297.0000,111.5760 L 303.0000,111.5760 L 303.0000,117.5760 L 297.0000,117.5760 z " style="fill: #3465a4; fill-opacity: 1.00; stroke: none; cursor: pointer;" id="ezcGraphPolygon_71" onclick="top.location = 'http://127.0.0.1/linux-hardware.org/index.php?view=computers&amp;type=notebook&amp;f=gpu_driver&amp;v=free&amp;p=-1&amp;p=66'"/><path d=" M 361.0000,126.6480 L 361.0000,120.6480 L 367.0000,120.6480 L 367.0000,126.6480 L 361.0000,126.6480 z " style="fill: #3465a4; fill-opacity: 1.00; stroke: none; cursor: pointer;" id="ezcGraphPolygon_72" onclick="top.location = 'http://127.0.0.1/linux-hardware.org/index.php?view=computers&amp;type=notebook&amp;f=gpu_driver&amp;v=free&amp;p=-1&amp;p=78'"/><path d=" M 425.0000,132.6960 L 425.0000,126.6960 L 431.0000,126.6960 L 431.0000,132.6960 L 425.0000,132.6960 z " style="fill: #3465a4; fill-opacity: 1.00; stroke: none; cursor: pointer;" id="ezcGraphPolygon_73" onclick="top.location = 'http://127.0.0.1/linux-hardware.org/index.php?view=computers&amp;type=notebook&amp;f=gpu_driver&amp;v=free&amp;p=-1&amp;p=90'"/><path d=" M 169.0000,357.0768 L 169.0000,351.0768 L 175.0000,351.0768 L 175.0000,357.0768 L 169.0000,357.0768 z " style="fill: #4e9a06; fill-opacity: 1.00; stroke: none; cursor: pointer;" id="ezcGraphPolygon_74" onclick="top.location = 'http://127.0.0.1/linux-hardware.org/index.php?view=computers&amp;type=notebook&amp;f=gpu_driver&amp;v=proprietary&amp;p=-1&amp;p=42'"/><path d=" M 233.0000,371.2896 L 233.0000,365.2896 L 239.0000,365.2896 L 239.0000,371.2896 L 233.0000,371.2896 z " style="fill: #4e9a06; fill-opacity: 1.00; stroke: none; cursor: pointer;" id="ezcGraphPolygon_75" onclick="top.location = 'http://127.0.0.1/linux-hardware.org/index.php?view=computers&amp;type=notebook&amp;f=gpu_driver&amp;v=proprietary&amp;p=-1&amp;p=54'"/><path d=" M 297.0000,358.8912 L 297.0000,352.8912 L 303.0000,352.8912 L 303.0000,358.8912 L 297.0000,358.8912 z " style="fill: #4e9a06; fill-opacity: 1.00; stroke: none; cursor: pointer;" id="ezcGraphPolygon_76" onclick="top.location = 'http://127.0.0.1/linux-hardware.org/index.php?view=computers&amp;type=notebook&amp;f=gpu_driver&amp;v=proprietary&amp;p=-1&amp;p=66'"/><path d=" M 361.0000,349.5168 L 361.0000,343.5168 L 367.0000,343.5168 L 367.0000,349.5168 L 361.0000,349.5168 z " style="fill: #4e9a06; fill-opacity: 1.00; stroke: none; cursor: pointer;" id="ezcGraphPolygon_77" onclick="top.location = 'http://127.0.0.1/linux-hardware.org/index.php?view=computers&amp;type=notebook&amp;f=gpu_driver&amp;v=proprietary&amp;p=-1&amp;p=78'"/><path d=" M 425.0000,343.4688 L 425.0000,337.4688 L 431.0000,337.4688 L 431.0000,343.4688 L 425.0000,343.4688 z " style="fill: #4e9a06; fill-opacity: 1.00; stroke: none; cursor: pointer;" id="ezcGraphPolygon_78" onclick="top.location = 'http://127.0.0.1/linux-hardware.org/index.php?view=computers&amp;type=notebook&amp;f=gpu_driver&amp;v=proprietary&amp;p=-1&amp;p=90'"/><path d=" M 169.0000,371.5920 L 169.0000,365.5920 L 175.0000,365.5920 L 175.0000,371.5920 L 169.0000,371.5920 z " style="fill: #cc0000; fill-opacity: 1.00; stroke: none; cursor: pointer;" id="ezcGraphPolygon_79" onclick="top.location = 'http://127.0.0.1/linux-hardware.org/index.php?view=computers&amp;type=notebook&amp;f=gpu_driver&amp;v=&amp;p=-1&amp;p=42'"/><path d=" M 233.0000,373.1040 L 233.0000,367.1040 L 239.0000,367.1040 L 239.0000,373.1040 L 233.0000,373.1040 z " style="fill: #cc0000; fill-opacity: 1.00; stroke: none; cursor: pointer;" id="ezcGraphPolygon_80" onclick="top.location = 'http://127.0.0.1/linux-hardware.org/index.php?view=computers&amp;type=notebook&amp;f=gpu_driver&amp;v=&amp;p=-1&amp;p=54'"/><path d=" M 297.0000,376.7328 L 297.0000,370.7328 L 303.0000,370.7328 L 303.0000,376.7328 L 297.0000,376.7328 z " style="fill: #cc0000; fill-opacity: 1.00; stroke: none; cursor: pointer;" id="ezcGraphPolygon_81" onclick="top.location = 'http://127.0.0.1/linux-hardware.org/index.php?view=computers&amp;type=notebook&amp;f=gpu_driver&amp;v=&amp;p=-1&amp;p=66'"/><path d=" M 361.0000,377.0352 L 361.0000,371.0352 L 367.0000,371.0352 L 367.0000,377.0352 L 361.0000,377.0352 z " style="fill: #cc0000; fill-opacity: 1.00; stroke: none; cursor: pointer;" id="ezcGraphPolygon_82" onclick="top.location = 'http://127.0.0.1/linux-hardware.org/index.php?view=computers&amp;type=notebook&amp;f=gpu_driver&amp;v=&amp;p=-1&amp;p=78'"/><path d=" M 425.0000,377.0352 L 425.0000,371.0352 L 431.0000,371.0352 L 431.0000,377.0352 L 425.0000,377.0352 z " style="fill: #cc0000; fill-opacity: 1.00; stroke: none; cursor: pointer;" id="ezcGraphPolygon_83" onclick="top.location = 'http://127.0.0.1/linux-hardware.org/index.php?view=computers&amp;type=notebook&amp;f=gpu_driver&amp;v=&amp;p=-1&amp;p=90'"/><g id="ezcGraphTextBox_3"><path d=" M 143.5000,42.0000 L 143.5000,0.5000 L 357.0000,0.5000 L 357.0000,42.0000 L 143.5000,42.0000 z " style="fill: #ffffff; fill-opacity: 0.00; stroke: none;" id="ezcGraphPolygon_84"/><text id="ezcGraphTextBox_3_text" x="144.0000" text-length="212.0000px" y="35.0000" style="font-size: 40px; font-family: 'Arial'; fill: #2e3436; fill-opacity: 1.00; stroke: none;">GPU Driver</text></g><g id="ezcGraphTextBox_6" style=" cursor: pointer;" onclick="top.location = 'http://127.0.0.1/linux-hardware.org/index.php?view=computers&amp;type=notebook&amp;f=gpu_driver&amp;v=free&amp;p=-1'"><path d=" M 16.5000,58.5000 L 16.5000,44.0000 L 45.5600,44.0000 L 45.5600,58.5000 L 16.5000,58.5000 z " style="fill: #ffffff; fill-opacity: 0.00; stroke: none;" id="ezcGraphPolygon_85"/><text id="ezcGraphTextBox_6_text" x="17.0000" text-length="27.5600px" y="55.5500" style="font-size: 13px; font-family: 'Arial'; fill: #2e3436; fill-opacity: 1.00; stroke: none;">Free</text></g><g id="ezcGraphTextBox_8" style=" cursor: pointer;" onclick="top.location = 'http://127.0.0.1/linux-hardware.org/index.php?view=computers&amp;type=notebook&amp;f=gpu_driver&amp;v=proprietary&amp;p=-1'"><path d=" M 16.5000,76.5000 L 16.5000,62.0000 L 93.7900,62.0000 L 93.7900,76.5000 L 16.5000,76.5000 z " style="fill: #ffffff; fill-opacity: 0.00; stroke: none;" id="ezcGraphPolygon_86"/><text id="ezcGraphTextBox_8_text" x="17.0000" text-length="75.7900px" y="73.5500" style="font-size: 13px; font-family: 'Arial'; fill: #2e3436; fill-opacity: 1.00; stroke: none;">Proprietary</text></g><g id="ezcGraphTextBox_10" style=" cursor: pointer;" onclick="top.location = 'http://127.0.0.1/linux-hardware.org/index.php?view=computers&amp;type=notebook&amp;f=gpu_driver&amp;v=&amp;p=-1'"><path d=" M 16.5000,94.5000 L 16.5000,80.0000 L 66.2300,80.0000 L 66.2300,94.5000 L 16.5000,94.5000 z " style="fill: #ffffff; fill-opacity: 0.00; stroke: none;" id="ezcGraphPolygon_87"/><text id="ezcGraphTextBox_10_text" x="17.0000" text-length="48.2300px" y="91.5500" style="font-size: 13px; font-family: 'Arial'; fill: #2e3436; fill-opacity: 1.00; stroke: none;">Unknown</text></g><g id="ezcGraphTextBox_13" transform="rotate( 0.00 493.0000 375.2000 )"><path d=" M 460.4000,381.2000 L 460.4000,365.7000 L 499.0000,365.7000 L 499.0000,381.2000 L 460.4000,381.2000 z " style="fill: #ffffff; fill-opacity: 0.00; stroke: none;" id="ezcGraphPolygon_88"/><text id="ezcGraphTextBox_13_text" x="460.9000" text-length="37.1000px" y="378.1000" style="font-size: 14px; font-family: 'Arial'; fill: #2e3436; fill-opacity: 1.00; stroke: none;">Time </text></g><g id="ezcGraphTextBox_14"><path d=" M 154.1400,413.3000 L 154.1400,383.7000 L 190.3600,383.7000 L 190.3600,413.3000 L 154.1400,413.3000 z " style="fill: #ffffff; fill-opacity: 0.00; stroke: none;" id="ezcGraphPolygon_89"/><text id="ezcGraphTextBox_14_text" x="160.8700" text-length="22.2600px" y="396.1000" style="font-size: 14px; font-family: 'Arial'; fill: #2e3436; fill-opacity: 1.00; stroke: none;">Jun</text><text id="ezcGraphTextBox_14_text" x="154.6400" text-length="34.7200px" y="411.5000" style="font-size: 14px; font-family: 'Arial'; fill: #2e3436; fill-opacity: 1.00; stroke: none;">2017</text></g><g id="ezcGraphTextBox_17"><path d=" M 218.1400,413.3000 L 218.1400,383.7000 L 254.3600,383.7000 L 254.3600,413.3000 L 218.1400,413.3000 z " style="fill: #ffffff; fill-opacity: 0.00; stroke: none;" id="ezcGraphPolygon_90"/><text id="ezcGraphTextBox_17_text" x="224.8700" text-length="22.2600px" y="396.1000" style="font-size: 14px; font-family: 'Arial'; fill: #2e3436; fill-opacity: 1.00; stroke: none;">Jun</text><text id="ezcGraphTextBox_17_text" x="218.6400" text-length="34.7200px" y="411.5000" style="font-size: 14px; font-family: 'Arial'; fill: #2e3436; fill-opacity: 1.00; stroke: none;">2018</text></g><g id="ezcGraphTextBox_20"><path d=" M 282.1400,413.3000 L 282.1400,383.7000 L 318.3600,383.7000 L 318.3600,413.3000 L 282.1400,413.3000 z " style="fill: #ffffff; fill-opacity: 0.00; stroke: none;" id="ezcGraphPolygon_91"/><text id="ezcGraphTextBox_20_text" x="288.8700" text-length="22.2600px" y="396.1000" style="font-size: 14px; font-family: 'Arial'; fill: #2e3436; fill-opacity: 1.00; stroke: none;">Jun</text><text id="ezcGraphTextBox_20_text" x="282.6400" text-length="34.7200px" y="411.5000" style="font-size: 14px; font-family: 'Arial'; fill: #2e3436; fill-opacity: 1.00; stroke: none;">2019</text></g><g id="ezcGraphTextBox_23"><path d=" M 346.1400,413.3000 L 346.1400,383.7000 L 382.3600,383.7000 L 382.3600,413.3000 L 346.1400,413.3000 z " style="fill: #ffffff; fill-opacity: 0.00; stroke: none;" id="ezcGraphPolygon_92"/><text id="ezcGraphTextBox_23_text" x="352.8700" text-length="22.2600px" y="396.1000" style="font-size: 14px; font-family: 'Arial'; fill: #2e3436; fill-opacity: 1.00; stroke: none;">Jun</text><text id="ezcGraphTextBox_23_text" x="346.6400" text-length="34.7200px" y="411.5000" style="font-size: 14px; font-family: 'Arial'; fill: #2e3436; fill-opacity: 1.00; stroke: none;">2020</text></g><g id="ezcGraphTextBox_26"><path d=" M 410.1400,413.3000 L 410.1400,383.7000 L 446.3600,383.7000 L 446.3600,413.3000 L 410.1400,413.3000 z " style="fill: #ffffff; fill-opacity: 0.00; stroke: none;" id="ezcGraphPolygon_93"/><text id="ezcGraphTextBox_26_text" x="416.8700" text-length="22.2600px" y="396.1000" style="font-size: 14px; font-family: 'Arial'; fill: #2e3436; fill-opacity: 1.00; stroke: none;">Jun</text><text id="ezcGraphTextBox_26_text" x="410.6400" text-length="34.7200px" y="411.5000" style="font-size: 14px; font-family: 'Arial'; fill: #2e3436; fill-opacity: 1.00; stroke: none;">2021</text></g><g id="ezcGraphTextBox_31" transform="rotate( 0.00 147.0000 49.0000 )"><path d=" M 141.5000,59.0000 L 141.5000,43.5000 L 365.6000,43.5000 L 365.6000,59.0000 L 141.5000,59.0000 z " style="fill: #ffffff; fill-opacity: 0.00; stroke: none;" id="ezcGraphPolygon_94"/><text id="ezcGraphTextBox_31_text" x="142.0000" text-length="222.6000px" y="55.9000" style="font-size: 14px; font-family: 'Arial'; fill: #2e3436; fill-opacity: 1.00; stroke: none;">Notebooks by "GPU Driver" in %</text></g><g id="ezcGraphTextBox_32"><path d=" M 128.8200,381.2000 L 128.8200,365.7000 L 139.0000,365.7000 L 139.0000,381.2000 L 128.8200,381.2000 z " style="fill: #ffffff; fill-opacity: 0.00; stroke: none;" id="ezcGraphPolygon_95"/><text id="ezcGraphTextBox_32_text" x="129.3200" text-length="8.6800px" y="378.1000" style="font-size: 14px; font-family: 'Arial'; fill: #2e3436; fill-opacity: 1.00; stroke: none;">0</text></g><g id="ezcGraphTextBox_35"><path d=" M 120.1400,230.0000 L 120.1400,214.5000 L 139.0000,214.5000 L 139.0000,230.0000 L 120.1400,230.0000 z " style="fill: #ffffff; fill-opacity: 0.00; stroke: none;" id="ezcGraphPolygon_96"/><text id="ezcGraphTextBox_35_text" x="120.6400" text-length="17.3600px" y="226.9000" style="font-size: 14px; font-family: 'Arial'; fill: #2e3436; fill-opacity: 1.00; stroke: none;">50</text></g><g id="ezcGraphTextBox_38"><path d=" M 111.4600,96.8000 L 111.4600,81.3000 L 139.0000,81.3000 L 139.0000,96.8000 L 111.4600,96.8000 z " style="fill: #ffffff; fill-opacity: 0.00; stroke: none;" id="ezcGraphPolygon_97"/><text id="ezcGraphTextBox_38_text" x="111.9600" text-length="26.0400px" y="93.7000" style="font-size: 14px; font-family: 'Arial'; fill: #2e3436; fill-opacity: 1.00; stroke: none;">100</text></g><g id="ezcGraphTextBox_40"><path d=" M 159.1000,116.5312 L 159.1000,105.0312 L 185.4000,105.0312 L 185.4000,116.5312 L 159.1000,116.5312 z " style="fill: #ffffff; fill-opacity: 0.00; stroke: none;" id="ezcGraphPolygon_98"/><text id="ezcGraphTextBox_40_text" x="159.6000" text-length="24.8000px" y="114.0312" style="font-size: 10px; font-family: 'Arial'; fill: #2e3436; fill-opacity: 1.00; stroke: none;">86.2</text></g><g id="ezcGraphTextBox_42"><path d=" M 223.1000,100.8064 L 223.1000,89.3064 L 249.4000,89.3064 L 249.4000,100.8064 L 223.1000,100.8064 z " style="fill: #ffffff; fill-opacity: 0.00; stroke: none;" id="ezcGraphPolygon_99"/><text id="ezcGraphTextBox_42_text" x="223.6000" text-length="24.8000px" y="98.3064" style="font-size: 10px; font-family: 'Arial'; fill: #2e3436; fill-opacity: 1.00; stroke: none;">91.4</text></g><g id="ezcGraphTextBox_44"><path d=" M 287.1000,109.5760 L 287.1000,98.0760 L 313.4000,98.0760 L 313.4000,109.5760 L 287.1000,109.5760 z " style="fill: #ffffff; fill-opacity: 0.00; stroke: none;" id="ezcGraphPolygon_100"/><text id="ezcGraphTextBox_44_text" x="287.6000" text-length="24.8000px" y="107.0760" style="font-size: 10px; font-family: 'Arial'; fill: #2e3436; fill-opacity: 1.00; stroke: none;">88.5</text></g><g id="ezcGraphTextBox_46"><path d=" M 351.1000,118.6480 L 351.1000,107.1480 L 377.4000,107.1480 L 377.4000,118.6480 L 351.1000,118.6480 z " style="fill: #ffffff; fill-opacity: 0.00; stroke: none;" id="ezcGraphPolygon_101"/><text id="ezcGraphTextBox_46_text" x="351.6000" text-length="24.8000px" y="116.1480" style="font-size: 10px; font-family: 'Arial'; fill: #2e3436; fill-opacity: 1.00; stroke: none;">85.5</text></g><g id="ezcGraphTextBox_48"><path d=" M 415.1000,124.6960 L 415.1000,113.1960 L 441.4000,113.1960 L 441.4000,124.6960 L 415.1000,124.6960 z " style="fill: #ffffff; fill-opacity: 0.00; stroke: none;" id="ezcGraphPolygon_102"/><text id="ezcGraphTextBox_48_text" x="415.6000" text-length="24.8000px" y="122.1960" style="font-size: 10px; font-family: 'Arial'; fill: #2e3436; fill-opacity: 1.00; stroke: none;">83.5</text></g><g id="ezcGraphTextBox_50"><path d=" M 162.2000,349.0768 L 162.2000,337.5768 L 182.3000,337.5768 L 182.3000,349.0768 L 162.2000,349.0768 z " style="fill: #ffffff; fill-opacity: 0.00; stroke: none;" id="ezcGraphPolygon_103"/><text id="ezcGraphTextBox_50_text" x="162.7000" text-length="18.6000px" y="346.5768" style="font-size: 10px; font-family: 'Arial'; fill: #2e3436; fill-opacity: 1.00; stroke: none;">9.3</text></g><g id="ezcGraphTextBox_52"><path d=" M 226.2000,363.2896 L 226.2000,351.7896 L 246.3000,351.7896 L 246.3000,363.2896 L 226.2000,363.2896 z " style="fill: #ffffff; fill-opacity: 0.00; stroke: none;" id="ezcGraphPolygon_104"/><text id="ezcGraphTextBox_52_text" x="226.7000" text-length="18.6000px" y="360.7896" style="font-size: 10px; font-family: 'Arial'; fill: #2e3436; fill-opacity: 1.00; stroke: none;">4.6</text></g><g id="ezcGraphTextBox_54"><path d=" M 290.2000,350.8912 L 290.2000,339.3912 L 310.3000,339.3912 L 310.3000,350.8912 L 290.2000,350.8912 z " style="fill: #ffffff; fill-opacity: 0.00; stroke: none;" id="ezcGraphPolygon_105"/><text id="ezcGraphTextBox_54_text" x="290.7000" text-length="18.6000px" y="348.3912" style="font-size: 10px; font-family: 'Arial'; fill: #2e3436; fill-opacity: 1.00; stroke: none;">8.7</text></g><g id="ezcGraphTextBox_56"><path d=" M 351.1000,341.5168 L 351.1000,330.0168 L 377.4000,330.0168 L 377.4000,341.5168 L 351.1000,341.5168 z " style="fill: #ffffff; fill-opacity: 0.00; stroke: none;" id="ezcGraphPolygon_106"/><text id="ezcGraphTextBox_56_text" x="351.6000" text-length="24.8000px" y="339.0168" style="font-size: 10px; font-family: 'Arial'; fill: #2e3436; fill-opacity: 1.00; stroke: none;">11.8</text></g><g id="ezcGraphTextBox_58"><path d=" M 415.1000,335.4688 L 415.1000,323.9688 L 441.4000,323.9688 L 441.4000,335.4688 L 415.1000,335.4688 z " style="fill: #ffffff; fill-opacity: 0.00; stroke: none;" id="ezcGraphPolygon_107"/><text id="ezcGraphTextBox_58_text" x="415.6000" text-length="24.8000px" y="332.9688" style="font-size: 10px; font-family: 'Arial'; fill: #2e3436; fill-opacity: 1.00; stroke: none;">13.8</text></g><g id="ezcGraphTextBox_60"><path d=" M 162.2000,363.5920 L 162.2000,352.0920 L 182.3000,352.0920 L 182.3000,363.5920 L 162.2000,363.5920 z " style="fill: #ffffff; fill-opacity: 0.00; stroke: none;" id="ezcGraphPolygon_108"/><text id="ezcGraphTextBox_60_text" x="162.7000" text-length="18.6000px" y="361.0920" style="font-size: 10px; font-family: 'Arial'; fill: #2e3436; fill-opacity: 1.00; stroke: none;">4.5</text></g><g id="ezcGraphTextBox_62"><path d=" M 232.4000,365.1040 L 232.4000,353.6040 L 240.1000,353.6040 L 240.1000,365.1040 L 232.4000,365.1040 z " style="fill: #ffffff; fill-opacity: 0.00; stroke: none;" id="ezcGraphPolygon_109"/><text id="ezcGraphTextBox_62_text" x="232.9000" text-length="6.2000px" y="362.6040" style="font-size: 10px; font-family: 'Arial'; fill: #2e3436; fill-opacity: 1.00; stroke: none;">4</text></g><g id="ezcGraphTextBox_64"><path d=" M 290.2000,368.7328 L 290.2000,357.2328 L 310.3000,357.2328 L 310.3000,368.7328 L 290.2000,368.7328 z " style="fill: #ffffff; fill-opacity: 0.00; stroke: none;" id="ezcGraphPolygon_110"/><text id="ezcGraphTextBox_64_text" x="290.7000" text-length="18.6000px" y="366.2328" style="font-size: 10px; font-family: 'Arial'; fill: #2e3436; fill-opacity: 1.00; stroke: none;">2.8</text></g><g id="ezcGraphTextBox_66"><path d=" M 354.2000,369.0352 L 354.2000,357.5352 L 374.3000,357.5352 L 374.3000,369.0352 L 354.2000,369.0352 z " style="fill: #ffffff; fill-opacity: 0.00; stroke: none;" id="ezcGraphPolygon_111"/><text id="ezcGraphTextBox_66_text" x="354.7000" text-length="18.6000px" y="366.5352" style="font-size: 10px; font-family: 'Arial'; fill: #2e3436; fill-opacity: 1.00; stroke: none;">2.7</text></g><g id="ezcGraphTextBox_68"><path d=" M 418.2000,369.0352 L 418.2000,357.5352 L 438.3000,357.5352 L 438.3000,369.0352 L 418.2000,369.0352 z " style="fill: #ffffff; fill-opacity: 0.00; stroke: none;" id="ezcGraphPolygon_112"/><text id="ezcGraphTextBox_68_text" x="418.7000" text-length="18.6000px" y="366.5352" style="font-size: 10px; font-family: 'Arial'; fill: #2e3436; fill-opacity: 1.00; stroke: none;">2.7</text></g></g></svg>
