<?xml version="1.0"?>
<svg xmlns="http://www.w3.org/2000/svg" width="500" height="420" version="1.0" id="ezcGraph"><defs/><g id="ezcGraphChart" color-rendering="optimizeQuality" shape-rendering="geometricPrecision" text-rendering="optimizeLegibility"><path d=" M 0.0000,420.0000 L 0.0000,0.0000 L 500.0000,0.0000 L 500.0000,420.0000 L 0.0000,420.0000 z " style="fill: #eeeeec; fill-opacity: 1.00; stroke: none;" id="ezcGraphPolygon_1"/><path d=" M 0.0000,42.0000 L 0.0000,0.0000 L 500.0000,0.0000 L 500.0000,42.0000 L 0.0000,42.0000 z " style="fill: #000000; fill-opacity: 0.00; stroke: none;" id="ezcGraphPolygon_2"/><path d=" M 0.0000,420.0000 L 0.0000,42.0000 L 100.0000,42.0000 L 100.0000,420.0000 L 0.0000,420.0000 z " style="fill: #000000; fill-opacity: 0.00; stroke: none;" id="ezcGraphPolygon_4"/><path d=" M 2.0000,58.0000 L 2.0000,44.0000 L 16.0000,44.0000 L 16.0000,58.0000 L 2.0000,58.0000 z " style="fill: #3465a4; fill-opacity: 1.00; stroke: none; cursor: pointer;" id="ezcGraphPolygon_5" onclick="top.location = 'https://linux-hardware.org/?view=computers&amp;type=notebook&amp;f=memory_vendor&amp;v=Samsung+Electronics&amp;p=-1'"/><path d=" M 2.0000,76.0000 L 2.0000,62.0000 L 16.0000,62.0000 L 16.0000,76.0000 L 2.0000,76.0000 z " style="fill: #4e9a06; fill-opacity: 1.00; stroke: none; cursor: pointer;" id="ezcGraphPolygon_7" onclick="top.location = 'https://linux-hardware.org/?view=computers&amp;type=notebook&amp;f=memory_vendor&amp;v=SK+Hynix&amp;p=-1'"/><path d=" M 2.0000,94.0000 L 2.0000,80.0000 L 16.0000,80.0000 L 16.0000,94.0000 L 2.0000,94.0000 z " style="fill: #cc0000; fill-opacity: 1.00; stroke: none; cursor: pointer;" id="ezcGraphPolygon_9" onclick="top.location = 'https://linux-hardware.org/?view=computers&amp;type=notebook&amp;f=memory_vendor&amp;v=Micron+Technology&amp;p=-1'"/><path d=" M 2.0000,112.0000 L 2.0000,98.0000 L 16.0000,98.0000 L 16.0000,112.0000 L 2.0000,112.0000 z " style="fill: #edd400; fill-opacity: 1.00; stroke: none; cursor: pointer;" id="ezcGraphPolygon_11" onclick="top.location = 'https://linux-hardware.org/?view=computers&amp;type=notebook&amp;f=memory_vendor&amp;v=Kingston&amp;p=-1'"/><path d=" M 2.0000,130.0000 L 2.0000,116.0000 L 16.0000,116.0000 L 16.0000,130.0000 L 2.0000,130.0000 z " style="fill: #75505b; fill-opacity: 1.00; stroke: none; cursor: pointer;" id="ezcGraphPolygon_13" onclick="top.location = 'https://linux-hardware.org/?view=computers&amp;type=notebook&amp;f=memory_vendor&amp;v=Unknown&amp;p=-1'"/><path d=" M 100.0000,382.2000 L 500.0000,382.2000" style="fill: none; stroke: #2e3436; stroke-width: 1; stroke-opacity: 1.00; stroke-linecap: round; stroke-linejoin: round;" id="ezcGraphLine_15"/><path d=" M 492.0000,378.2000 L 500.0000,382.2000 L 492.0000,386.2000 L 492.0000,378.2000 z " style="fill: #2e3436; fill-opacity: 1.00; stroke: none;" id="ezcGraphPolygon_16"/><path d=" M 204.0000,79.8000 L 204.0000,382.2000" style="fill: none; stroke: #000000; stroke-width: 1; stroke-opacity: 0.00; stroke-linecap: round; stroke-linejoin: round;" id="ezcGraphLine_19"/><path d=" M 204.0000,379.2000 L 204.0000,385.2000" style="fill: none; stroke: #2e3436; stroke-width: 1; stroke-opacity: 1.00; stroke-linecap: round; stroke-linejoin: round;" id="ezcGraphLine_20"/><path d=" M 268.0000,79.8000 L 268.0000,382.2000" style="fill: none; stroke: #000000; stroke-width: 1; stroke-opacity: 0.00; stroke-linecap: round; stroke-linejoin: round;" id="ezcGraphLine_22"/><path d=" M 268.0000,379.2000 L 268.0000,385.2000" style="fill: none; stroke: #2e3436; stroke-width: 1; stroke-opacity: 1.00; stroke-linecap: round; stroke-linejoin: round;" id="ezcGraphLine_23"/><path d=" M 332.0000,79.8000 L 332.0000,382.2000" style="fill: none; stroke: #000000; stroke-width: 1; stroke-opacity: 0.00; stroke-linecap: round; stroke-linejoin: round;" id="ezcGraphLine_25"/><path d=" M 332.0000,379.2000 L 332.0000,385.2000" style="fill: none; stroke: #2e3436; stroke-width: 1; stroke-opacity: 1.00; stroke-linecap: round; stroke-linejoin: round;" id="ezcGraphLine_26"/><path d=" M 396.0000,79.8000 L 396.0000,382.2000" style="fill: none; stroke: #000000; stroke-width: 1; stroke-opacity: 0.00; stroke-linecap: round; stroke-linejoin: round;" id="ezcGraphLine_28"/><path d=" M 396.0000,379.2000 L 396.0000,385.2000" style="fill: none; stroke: #2e3436; stroke-width: 1; stroke-opacity: 1.00; stroke-linecap: round; stroke-linejoin: round;" id="ezcGraphLine_29"/><path d=" M 460.0000,79.8000 L 460.0000,382.2000" style="fill: none; stroke: #000000; stroke-width: 1; stroke-opacity: 0.00; stroke-linecap: round; stroke-linejoin: round;" id="ezcGraphLine_31"/><path d=" M 460.0000,379.2000 L 460.0000,385.2000" style="fill: none; stroke: #2e3436; stroke-width: 1; stroke-opacity: 1.00; stroke-linecap: round; stroke-linejoin: round;" id="ezcGraphLine_32"/><path d=" M 140.0000,420.0000 L 140.0000,42.0000" style="fill: none; stroke: #2e3436; stroke-width: 1; stroke-opacity: 1.00; stroke-linecap: round; stroke-linejoin: round;" id="ezcGraphLine_33"/><path d=" M 136.0000,50.0000 L 140.0000,42.0000 L 144.0000,50.0000 L 136.0000,50.0000 z " style="fill: #2e3436; fill-opacity: 1.00; stroke: none;" id="ezcGraphPolygon_34"/><path d=" M 140.0000,79.8000 L 460.0000,79.8000" style="fill: none; stroke: #000000; stroke-width: 1; stroke-opacity: 0.00; stroke-linecap: round; stroke-linejoin: round;" id="ezcGraphLine_37"/><path d=" M 140.0000,79.8000 L 143.0000,79.8000" style="fill: none; stroke: #2e3436; stroke-width: 1; stroke-opacity: 1.00; stroke-linecap: round; stroke-linejoin: round;" id="ezcGraphLine_38"/><path d=" M 172.0000,201.3648 L 172.0000,201.3648" style="fill: none; stroke: #3465a4; stroke-width: 1; stroke-opacity: 1.00; stroke-linecap: round; stroke-linejoin: round;" id="ezcGraphLine_40"/><path d=" M 172.0000,201.3648 L 236.0000,197.1312" style="fill: none; stroke: #3465a4; stroke-width: 1; stroke-opacity: 1.00; stroke-linecap: round; stroke-linejoin: round;" id="ezcGraphLine_42"/><path d=" M 236.0000,197.1312 L 300.0000,182.6160" style="fill: none; stroke: #3465a4; stroke-width: 1; stroke-opacity: 1.00; stroke-linecap: round; stroke-linejoin: round;" id="ezcGraphLine_44"/><path d=" M 300.0000,182.6160 L 364.0000,167.4960" style="fill: none; stroke: #3465a4; stroke-width: 1; stroke-opacity: 1.00; stroke-linecap: round; stroke-linejoin: round;" id="ezcGraphLine_46"/><path d=" M 364.0000,167.4960 L 428.0000,162.6576" style="fill: none; stroke: #3465a4; stroke-width: 1; stroke-opacity: 1.00; stroke-linecap: round; stroke-linejoin: round;" id="ezcGraphLine_48"/><path d=" M 172.0000,224.3472 L 172.0000,224.3472" style="fill: none; stroke: #4e9a06; stroke-width: 1; stroke-opacity: 1.00; stroke-linecap: round; stroke-linejoin: round;" id="ezcGraphLine_50"/><path d=" M 172.0000,224.3472 L 236.0000,220.1136" style="fill: none; stroke: #4e9a06; stroke-width: 1; stroke-opacity: 1.00; stroke-linecap: round; stroke-linejoin: round;" id="ezcGraphLine_52"/><path d=" M 236.0000,220.1136 L 300.0000,217.0896" style="fill: none; stroke: #4e9a06; stroke-width: 1; stroke-opacity: 1.00; stroke-linecap: round; stroke-linejoin: round;" id="ezcGraphLine_54"/><path d=" M 300.0000,217.0896 L 364.0000,208.6224" style="fill: none; stroke: #4e9a06; stroke-width: 1; stroke-opacity: 1.00; stroke-linecap: round; stroke-linejoin: round;" id="ezcGraphLine_56"/><path d=" M 364.0000,208.6224 L 428.0000,208.0176" style="fill: none; stroke: #4e9a06; stroke-width: 1; stroke-opacity: 1.00; stroke-linecap: round; stroke-linejoin: round;" id="ezcGraphLine_58"/><path d=" M 172.0000,335.6304 L 172.0000,335.6304" style="fill: none; stroke: #cc0000; stroke-width: 1; stroke-opacity: 1.00; stroke-linecap: round; stroke-linejoin: round;" id="ezcGraphLine_60"/><path d=" M 172.0000,335.6304 L 236.0000,331.3968" style="fill: none; stroke: #cc0000; stroke-width: 1; stroke-opacity: 1.00; stroke-linecap: round; stroke-linejoin: round;" id="ezcGraphLine_62"/><path d=" M 236.0000,331.3968 L 300.0000,312.6480" style="fill: none; stroke: #cc0000; stroke-width: 1; stroke-opacity: 1.00; stroke-linecap: round; stroke-linejoin: round;" id="ezcGraphLine_64"/><path d=" M 300.0000,312.6480 L 364.0000,302.3664" style="fill: none; stroke: #cc0000; stroke-width: 1; stroke-opacity: 1.00; stroke-linecap: round; stroke-linejoin: round;" id="ezcGraphLine_66"/><path d=" M 364.0000,302.3664 L 428.0000,293.8992" style="fill: none; stroke: #cc0000; stroke-width: 1; stroke-opacity: 1.00; stroke-linecap: round; stroke-linejoin: round;" id="ezcGraphLine_68"/><path d=" M 172.0000,292.6896 L 172.0000,292.6896" style="fill: none; stroke: #edd400; stroke-width: 1; stroke-opacity: 1.00; stroke-linecap: round; stroke-linejoin: round;" id="ezcGraphLine_70"/><path d=" M 172.0000,292.6896 L 236.0000,286.6416" style="fill: none; stroke: #edd400; stroke-width: 1; stroke-opacity: 1.00; stroke-linecap: round; stroke-linejoin: round;" id="ezcGraphLine_72"/><path d=" M 236.0000,286.6416 L 300.0000,301.1568" style="fill: none; stroke: #edd400; stroke-width: 1; stroke-opacity: 1.00; stroke-linecap: round; stroke-linejoin: round;" id="ezcGraphLine_74"/><path d=" M 300.0000,301.1568 L 364.0000,307.8096" style="fill: none; stroke: #edd400; stroke-width: 1; stroke-opacity: 1.00; stroke-linecap: round; stroke-linejoin: round;" id="ezcGraphLine_76"/><path d=" M 364.0000,307.8096 L 428.0000,313.8576" style="fill: none; stroke: #edd400; stroke-width: 1; stroke-opacity: 1.00; stroke-linecap: round; stroke-linejoin: round;" id="ezcGraphLine_78"/><path d=" M 172.0000,252.1680 L 172.0000,252.1680" style="fill: none; stroke: #75505b; stroke-width: 1; stroke-opacity: 1.00; stroke-linecap: round; stroke-linejoin: round;" id="ezcGraphLine_80"/><path d=" M 172.0000,252.1680 L 236.0000,270.9168" style="fill: none; stroke: #75505b; stroke-width: 1; stroke-opacity: 1.00; stroke-linecap: round; stroke-linejoin: round;" id="ezcGraphLine_82"/><path d=" M 236.0000,270.9168 L 300.0000,292.0848" style="fill: none; stroke: #75505b; stroke-width: 1; stroke-opacity: 1.00; stroke-linecap: round; stroke-linejoin: round;" id="ezcGraphLine_84"/><path d=" M 300.0000,292.0848 L 364.0000,319.9056" style="fill: none; stroke: #75505b; stroke-width: 1; stroke-opacity: 1.00; stroke-linecap: round; stroke-linejoin: round;" id="ezcGraphLine_86"/><path d=" M 364.0000,319.9056 L 428.0000,327.7680" style="fill: none; stroke: #75505b; stroke-width: 1; stroke-opacity: 1.00; stroke-linecap: round; stroke-linejoin: round;" id="ezcGraphLine_88"/><path d=" M 169.0000,204.3648 L 169.0000,198.3648 L 175.0000,198.3648 L 175.0000,204.3648 L 169.0000,204.3648 z " style="fill: #3465a4; fill-opacity: 1.00; stroke: none; cursor: pointer;" id="ezcGraphPolygon_90" onclick="top.location = 'https://linux-hardware.org/?view=computers&amp;type=notebook&amp;f=memory_vendor&amp;v=Samsung+Electronics&amp;p=-1&amp;p=47'"/><path d=" M 233.0000,200.1312 L 233.0000,194.1312 L 239.0000,194.1312 L 239.0000,200.1312 L 233.0000,200.1312 z " style="fill: #3465a4; fill-opacity: 1.00; stroke: none; cursor: pointer;" id="ezcGraphPolygon_91" onclick="top.location = 'https://linux-hardware.org/?view=computers&amp;type=notebook&amp;f=memory_vendor&amp;v=Samsung+Electronics&amp;p=-1&amp;p=59'"/><path d=" M 297.0000,185.6160 L 297.0000,179.6160 L 303.0000,179.6160 L 303.0000,185.6160 L 297.0000,185.6160 z " style="fill: #3465a4; fill-opacity: 1.00; stroke: none; cursor: pointer;" id="ezcGraphPolygon_92" onclick="top.location = 'https://linux-hardware.org/?view=computers&amp;type=notebook&amp;f=memory_vendor&amp;v=Samsung+Electronics&amp;p=-1&amp;p=71'"/><path d=" M 361.0000,170.4960 L 361.0000,164.4960 L 367.0000,164.4960 L 367.0000,170.4960 L 361.0000,170.4960 z " style="fill: #3465a4; fill-opacity: 1.00; stroke: none; cursor: pointer;" id="ezcGraphPolygon_93" onclick="top.location = 'https://linux-hardware.org/?view=computers&amp;type=notebook&amp;f=memory_vendor&amp;v=Samsung+Electronics&amp;p=-1&amp;p=83'"/><path d=" M 425.0000,165.6576 L 425.0000,159.6576 L 431.0000,159.6576 L 431.0000,165.6576 L 425.0000,165.6576 z " style="fill: #3465a4; fill-opacity: 1.00; stroke: none; cursor: pointer;" id="ezcGraphPolygon_94" onclick="top.location = 'https://linux-hardware.org/?view=computers&amp;type=notebook&amp;f=memory_vendor&amp;v=Samsung+Electronics&amp;p=-1&amp;p=95'"/><path d=" M 169.0000,227.3472 L 169.0000,221.3472 L 175.0000,221.3472 L 175.0000,227.3472 L 169.0000,227.3472 z " style="fill: #4e9a06; fill-opacity: 1.00; stroke: none; cursor: pointer;" id="ezcGraphPolygon_95" onclick="top.location = 'https://linux-hardware.org/?view=computers&amp;type=notebook&amp;f=memory_vendor&amp;v=SK+Hynix&amp;p=-1&amp;p=47'"/><path d=" M 233.0000,223.1136 L 233.0000,217.1136 L 239.0000,217.1136 L 239.0000,223.1136 L 233.0000,223.1136 z " style="fill: #4e9a06; fill-opacity: 1.00; stroke: none; cursor: pointer;" id="ezcGraphPolygon_96" onclick="top.location = 'https://linux-hardware.org/?view=computers&amp;type=notebook&amp;f=memory_vendor&amp;v=SK+Hynix&amp;p=-1&amp;p=59'"/><path d=" M 297.0000,220.0896 L 297.0000,214.0896 L 303.0000,214.0896 L 303.0000,220.0896 L 297.0000,220.0896 z " style="fill: #4e9a06; fill-opacity: 1.00; stroke: none; cursor: pointer;" id="ezcGraphPolygon_97" onclick="top.location = 'https://linux-hardware.org/?view=computers&amp;type=notebook&amp;f=memory_vendor&amp;v=SK+Hynix&amp;p=-1&amp;p=71'"/><path d=" M 361.0000,211.6224 L 361.0000,205.6224 L 367.0000,205.6224 L 367.0000,211.6224 L 361.0000,211.6224 z " style="fill: #4e9a06; fill-opacity: 1.00; stroke: none; cursor: pointer;" id="ezcGraphPolygon_98" onclick="top.location = 'https://linux-hardware.org/?view=computers&amp;type=notebook&amp;f=memory_vendor&amp;v=SK+Hynix&amp;p=-1&amp;p=83'"/><path d=" M 425.0000,211.0176 L 425.0000,205.0176 L 431.0000,205.0176 L 431.0000,211.0176 L 425.0000,211.0176 z " style="fill: #4e9a06; fill-opacity: 1.00; stroke: none; cursor: pointer;" id="ezcGraphPolygon_99" onclick="top.location = 'https://linux-hardware.org/?view=computers&amp;type=notebook&amp;f=memory_vendor&amp;v=SK+Hynix&amp;p=-1&amp;p=95'"/><path d=" M 169.0000,338.6304 L 169.0000,332.6304 L 175.0000,332.6304 L 175.0000,338.6304 L 169.0000,338.6304 z " style="fill: #cc0000; fill-opacity: 1.00; stroke: none; cursor: pointer;" id="ezcGraphPolygon_100" onclick="top.location = 'https://linux-hardware.org/?view=computers&amp;type=notebook&amp;f=memory_vendor&amp;v=Micron+Technology&amp;p=-1&amp;p=47'"/><path d=" M 233.0000,334.3968 L 233.0000,328.3968 L 239.0000,328.3968 L 239.0000,334.3968 L 233.0000,334.3968 z " style="fill: #cc0000; fill-opacity: 1.00; stroke: none; cursor: pointer;" id="ezcGraphPolygon_101" onclick="top.location = 'https://linux-hardware.org/?view=computers&amp;type=notebook&amp;f=memory_vendor&amp;v=Micron+Technology&amp;p=-1&amp;p=59'"/><path d=" M 297.0000,315.6480 L 297.0000,309.6480 L 303.0000,309.6480 L 303.0000,315.6480 L 297.0000,315.6480 z " style="fill: #cc0000; fill-opacity: 1.00; stroke: none; cursor: pointer;" id="ezcGraphPolygon_102" onclick="top.location = 'https://linux-hardware.org/?view=computers&amp;type=notebook&amp;f=memory_vendor&amp;v=Micron+Technology&amp;p=-1&amp;p=71'"/><path d=" M 361.0000,305.3664 L 361.0000,299.3664 L 367.0000,299.3664 L 367.0000,305.3664 L 361.0000,305.3664 z " style="fill: #cc0000; fill-opacity: 1.00; stroke: none; cursor: pointer;" id="ezcGraphPolygon_103" onclick="top.location = 'https://linux-hardware.org/?view=computers&amp;type=notebook&amp;f=memory_vendor&amp;v=Micron+Technology&amp;p=-1&amp;p=83'"/><path d=" M 425.0000,296.8992 L 425.0000,290.8992 L 431.0000,290.8992 L 431.0000,296.8992 L 425.0000,296.8992 z " style="fill: #cc0000; fill-opacity: 1.00; stroke: none; cursor: pointer;" id="ezcGraphPolygon_104" onclick="top.location = 'https://linux-hardware.org/?view=computers&amp;type=notebook&amp;f=memory_vendor&amp;v=Micron+Technology&amp;p=-1&amp;p=95'"/><path d=" M 169.0000,295.6896 L 169.0000,289.6896 L 175.0000,289.6896 L 175.0000,295.6896 L 169.0000,295.6896 z " style="fill: #edd400; fill-opacity: 1.00; stroke: none; cursor: pointer;" id="ezcGraphPolygon_105" onclick="top.location = 'https://linux-hardware.org/?view=computers&amp;type=notebook&amp;f=memory_vendor&amp;v=Kingston&amp;p=-1&amp;p=47'"/><path d=" M 233.0000,289.6416 L 233.0000,283.6416 L 239.0000,283.6416 L 239.0000,289.6416 L 233.0000,289.6416 z " style="fill: #edd400; fill-opacity: 1.00; stroke: none; cursor: pointer;" id="ezcGraphPolygon_106" onclick="top.location = 'https://linux-hardware.org/?view=computers&amp;type=notebook&amp;f=memory_vendor&amp;v=Kingston&amp;p=-1&amp;p=59'"/><path d=" M 297.0000,304.1568 L 297.0000,298.1568 L 303.0000,298.1568 L 303.0000,304.1568 L 297.0000,304.1568 z " style="fill: #edd400; fill-opacity: 1.00; stroke: none; cursor: pointer;" id="ezcGraphPolygon_107" onclick="top.location = 'https://linux-hardware.org/?view=computers&amp;type=notebook&amp;f=memory_vendor&amp;v=Kingston&amp;p=-1&amp;p=71'"/><path d=" M 361.0000,310.8096 L 361.0000,304.8096 L 367.0000,304.8096 L 367.0000,310.8096 L 361.0000,310.8096 z " style="fill: #edd400; fill-opacity: 1.00; stroke: none; cursor: pointer;" id="ezcGraphPolygon_108" onclick="top.location = 'https://linux-hardware.org/?view=computers&amp;type=notebook&amp;f=memory_vendor&amp;v=Kingston&amp;p=-1&amp;p=83'"/><path d=" M 425.0000,316.8576 L 425.0000,310.8576 L 431.0000,310.8576 L 431.0000,316.8576 L 425.0000,316.8576 z " style="fill: #edd400; fill-opacity: 1.00; stroke: none; cursor: pointer;" id="ezcGraphPolygon_109" onclick="top.location = 'https://linux-hardware.org/?view=computers&amp;type=notebook&amp;f=memory_vendor&amp;v=Kingston&amp;p=-1&amp;p=95'"/><path d=" M 169.0000,255.1680 L 169.0000,249.1680 L 175.0000,249.1680 L 175.0000,255.1680 L 169.0000,255.1680 z " style="fill: #75505b; fill-opacity: 1.00; stroke: none; cursor: pointer;" id="ezcGraphPolygon_110" onclick="top.location = 'https://linux-hardware.org/?view=computers&amp;type=notebook&amp;f=memory_vendor&amp;v=Unknown&amp;p=-1&amp;p=47'"/><path d=" M 233.0000,273.9168 L 233.0000,267.9168 L 239.0000,267.9168 L 239.0000,273.9168 L 233.0000,273.9168 z " style="fill: #75505b; fill-opacity: 1.00; stroke: none; cursor: pointer;" id="ezcGraphPolygon_111" onclick="top.location = 'https://linux-hardware.org/?view=computers&amp;type=notebook&amp;f=memory_vendor&amp;v=Unknown&amp;p=-1&amp;p=59'"/><path d=" M 297.0000,295.0848 L 297.0000,289.0848 L 303.0000,289.0848 L 303.0000,295.0848 L 297.0000,295.0848 z " style="fill: #75505b; fill-opacity: 1.00; stroke: none; cursor: pointer;" id="ezcGraphPolygon_112" onclick="top.location = 'https://linux-hardware.org/?view=computers&amp;type=notebook&amp;f=memory_vendor&amp;v=Unknown&amp;p=-1&amp;p=71'"/><path d=" M 361.0000,322.9056 L 361.0000,316.9056 L 367.0000,316.9056 L 367.0000,322.9056 L 361.0000,322.9056 z " style="fill: #75505b; fill-opacity: 1.00; stroke: none; cursor: pointer;" id="ezcGraphPolygon_113" onclick="top.location = 'https://linux-hardware.org/?view=computers&amp;type=notebook&amp;f=memory_vendor&amp;v=Unknown&amp;p=-1&amp;p=83'"/><path d=" M 425.0000,330.7680 L 425.0000,324.7680 L 431.0000,324.7680 L 431.0000,330.7680 L 425.0000,330.7680 z " style="fill: #75505b; fill-opacity: 1.00; stroke: none; cursor: pointer;" id="ezcGraphPolygon_114" onclick="top.location = 'https://linux-hardware.org/?view=computers&amp;type=notebook&amp;f=memory_vendor&amp;v=Unknown&amp;p=-1&amp;p=95'"/><g id="ezcGraphTextBox_3"><path d=" M 111.7000,42.0000 L 111.7000,0.5000 L 388.8000,0.5000 L 388.8000,42.0000 L 111.7000,42.0000 z " style="fill: #ffffff; fill-opacity: 0.00; stroke: none;" id="ezcGraphPolygon_115"/><text id="ezcGraphTextBox_3_text" x="112.2000" text-length="275.6000px" y="35.0000" style="font-size: 40px; font-family: 'Arial'; fill: #2e3436; fill-opacity: 1.00; stroke: none;">Memory Vendor</text></g><g id="ezcGraphTextBox_6" style=" cursor: pointer;" onclick="top.location = 'https://linux-hardware.org/?view=computers&amp;type=notebook&amp;f=memory_vendor&amp;v=Samsung+Electronics&amp;p=-1'"><path d=" M 16.5000,56.5000 L 16.5000,46.0000 L 94.3200,46.0000 L 94.3200,56.5000 L 16.5000,56.5000 z " style="fill: #ffffff; fill-opacity: 0.00; stroke: none;" id="ezcGraphPolygon_116"/><text id="ezcGraphTextBox_6_text" x="17.0000" text-length="76.3200px" y="54.1500" style="font-size: 9px; font-family: 'Arial'; fill: #2e3436; fill-opacity: 1.00; stroke: none;">Samsung Elect...</text></g><g id="ezcGraphTextBox_8" style=" cursor: pointer;" onclick="top.location = 'https://linux-hardware.org/?view=computers&amp;type=notebook&amp;f=memory_vendor&amp;v=SK+Hynix&amp;p=-1'"><path d=" M 16.5000,74.5000 L 16.5000,64.0000 L 56.1600,64.0000 L 56.1600,74.5000 L 16.5000,74.5000 z " style="fill: #ffffff; fill-opacity: 0.00; stroke: none;" id="ezcGraphPolygon_117"/><text id="ezcGraphTextBox_8_text" x="17.0000" text-length="38.1600px" y="72.1500" style="font-size: 9px; font-family: 'Arial'; fill: #2e3436; fill-opacity: 1.00; stroke: none;">SK Hynix</text></g><g id="ezcGraphTextBox_10" style=" cursor: pointer;" onclick="top.location = 'https://linux-hardware.org/?view=computers&amp;type=notebook&amp;f=memory_vendor&amp;v=Micron+Technology&amp;p=-1'"><path d=" M 16.5000,92.5000 L 16.5000,82.0000 L 94.3200,82.0000 L 94.3200,92.5000 L 16.5000,92.5000 z " style="fill: #ffffff; fill-opacity: 0.00; stroke: none;" id="ezcGraphPolygon_118"/><text id="ezcGraphTextBox_10_text" x="17.0000" text-length="76.3200px" y="90.1500" style="font-size: 9px; font-family: 'Arial'; fill: #2e3436; fill-opacity: 1.00; stroke: none;">Micron Techno...</text></g><g id="ezcGraphTextBox_12" style=" cursor: pointer;" onclick="top.location = 'https://linux-hardware.org/?view=computers&amp;type=notebook&amp;f=memory_vendor&amp;v=Kingston&amp;p=-1'"><path d=" M 16.5000,110.5000 L 16.5000,100.0000 L 56.1600,100.0000 L 56.1600,110.5000 L 16.5000,110.5000 z " style="fill: #ffffff; fill-opacity: 0.00; stroke: none;" id="ezcGraphPolygon_119"/><text id="ezcGraphTextBox_12_text" x="17.0000" text-length="38.1600px" y="108.1500" style="font-size: 9px; font-family: 'Arial'; fill: #2e3436; fill-opacity: 1.00; stroke: none;">Kingston</text></g><g id="ezcGraphTextBox_14" style=" cursor: pointer;" onclick="top.location = 'https://linux-hardware.org/?view=computers&amp;type=notebook&amp;f=memory_vendor&amp;v=Unknown&amp;p=-1'"><path d=" M 16.5000,128.5000 L 16.5000,118.0000 L 51.3900,118.0000 L 51.3900,128.5000 L 16.5000,128.5000 z " style="fill: #ffffff; fill-opacity: 0.00; stroke: none;" id="ezcGraphPolygon_120"/><text id="ezcGraphTextBox_14_text" x="17.0000" text-length="33.3900px" y="126.1500" style="font-size: 9px; font-family: 'Arial'; fill: #2e3436; fill-opacity: 1.00; stroke: none;">Unknown</text></g><g id="ezcGraphTextBox_17" transform="rotate( 0.00 493.0000 375.2000 )"><path d=" M 460.4000,381.2000 L 460.4000,365.7000 L 499.0000,365.7000 L 499.0000,381.2000 L 460.4000,381.2000 z " style="fill: #ffffff; fill-opacity: 0.00; stroke: none;" id="ezcGraphPolygon_121"/><text id="ezcGraphTextBox_17_text" x="460.9000" text-length="37.1000px" y="378.1000" style="font-size: 14px; font-family: 'Arial'; fill: #2e3436; fill-opacity: 1.00; stroke: none;">Time </text></g><g id="ezcGraphTextBox_18"><path d=" M 154.1400,413.3000 L 154.1400,383.7000 L 190.3600,383.7000 L 190.3600,413.3000 L 154.1400,413.3000 z " style="fill: #ffffff; fill-opacity: 0.00; stroke: none;" id="ezcGraphPolygon_122"/><text id="ezcGraphTextBox_18_text" x="160.8700" text-length="22.2600px" y="396.1000" style="font-size: 14px; font-family: 'Arial'; fill: #2e3436; fill-opacity: 1.00; stroke: none;">Nov</text><text id="ezcGraphTextBox_18_text" x="154.6400" text-length="34.7200px" y="411.5000" style="font-size: 14px; font-family: 'Arial'; fill: #2e3436; fill-opacity: 1.00; stroke: none;">2017</text></g><g id="ezcGraphTextBox_21"><path d=" M 218.1400,413.3000 L 218.1400,383.7000 L 254.3600,383.7000 L 254.3600,413.3000 L 218.1400,413.3000 z " style="fill: #ffffff; fill-opacity: 0.00; stroke: none;" id="ezcGraphPolygon_123"/><text id="ezcGraphTextBox_21_text" x="224.8700" text-length="22.2600px" y="396.1000" style="font-size: 14px; font-family: 'Arial'; fill: #2e3436; fill-opacity: 1.00; stroke: none;">Nov</text><text id="ezcGraphTextBox_21_text" x="218.6400" text-length="34.7200px" y="411.5000" style="font-size: 14px; font-family: 'Arial'; fill: #2e3436; fill-opacity: 1.00; stroke: none;">2018</text></g><g id="ezcGraphTextBox_24"><path d=" M 282.1400,413.3000 L 282.1400,383.7000 L 318.3600,383.7000 L 318.3600,413.3000 L 282.1400,413.3000 z " style="fill: #ffffff; fill-opacity: 0.00; stroke: none;" id="ezcGraphPolygon_124"/><text id="ezcGraphTextBox_24_text" x="288.8700" text-length="22.2600px" y="396.1000" style="font-size: 14px; font-family: 'Arial'; fill: #2e3436; fill-opacity: 1.00; stroke: none;">Nov</text><text id="ezcGraphTextBox_24_text" x="282.6400" text-length="34.7200px" y="411.5000" style="font-size: 14px; font-family: 'Arial'; fill: #2e3436; fill-opacity: 1.00; stroke: none;">2019</text></g><g id="ezcGraphTextBox_27"><path d=" M 346.1400,413.3000 L 346.1400,383.7000 L 382.3600,383.7000 L 382.3600,413.3000 L 346.1400,413.3000 z " style="fill: #ffffff; fill-opacity: 0.00; stroke: none;" id="ezcGraphPolygon_125"/><text id="ezcGraphTextBox_27_text" x="352.8700" text-length="22.2600px" y="396.1000" style="font-size: 14px; font-family: 'Arial'; fill: #2e3436; fill-opacity: 1.00; stroke: none;">Nov</text><text id="ezcGraphTextBox_27_text" x="346.6400" text-length="34.7200px" y="411.5000" style="font-size: 14px; font-family: 'Arial'; fill: #2e3436; fill-opacity: 1.00; stroke: none;">2020</text></g><g id="ezcGraphTextBox_30"><path d=" M 410.1400,413.3000 L 410.1400,383.7000 L 446.3600,383.7000 L 446.3600,413.3000 L 410.1400,413.3000 z " style="fill: #ffffff; fill-opacity: 0.00; stroke: none;" id="ezcGraphPolygon_126"/><text id="ezcGraphTextBox_30_text" x="416.8700" text-length="22.2600px" y="396.1000" style="font-size: 14px; font-family: 'Arial'; fill: #2e3436; fill-opacity: 1.00; stroke: none;">Nov</text><text id="ezcGraphTextBox_30_text" x="410.6400" text-length="34.7200px" y="411.5000" style="font-size: 14px; font-family: 'Arial'; fill: #2e3436; fill-opacity: 1.00; stroke: none;">2021</text></g><g id="ezcGraphTextBox_35" transform="rotate( 0.00 147.0000 49.0000 )"><path d=" M 141.5000,59.0000 L 141.5000,43.5000 L 387.8600,43.5000 L 387.8600,59.0000 L 141.5000,59.0000 z " style="fill: #ffffff; fill-opacity: 0.00; stroke: none;" id="ezcGraphPolygon_127"/><text id="ezcGraphTextBox_35_text" x="142.0000" text-length="244.8600px" y="55.9000" style="font-size: 14px; font-family: 'Arial'; fill: #2e3436; fill-opacity: 1.00; stroke: none;">Notebooks by "Memory Vendor" in %</text></g><g id="ezcGraphTextBox_36"><path d=" M 128.8200,381.2000 L 128.8200,365.7000 L 139.0000,365.7000 L 139.0000,381.2000 L 128.8200,381.2000 z " style="fill: #ffffff; fill-opacity: 0.00; stroke: none;" id="ezcGraphPolygon_128"/><text id="ezcGraphTextBox_36_text" x="129.3200" text-length="8.6800px" y="378.1000" style="font-size: 14px; font-family: 'Arial'; fill: #2e3436; fill-opacity: 1.00; stroke: none;">0</text></g><g id="ezcGraphTextBox_39"><path d=" M 120.1400,96.8000 L 120.1400,81.3000 L 139.0000,81.3000 L 139.0000,96.8000 L 120.1400,96.8000 z " style="fill: #ffffff; fill-opacity: 0.00; stroke: none;" id="ezcGraphPolygon_129"/><text id="ezcGraphTextBox_39_text" x="120.6400" text-length="17.3600px" y="93.7000" style="font-size: 14px; font-family: 'Arial'; fill: #2e3436; fill-opacity: 1.00; stroke: none;">50</text></g><g id="ezcGraphTextBox_41"><path d=" M 159.1000,196.3648 L 159.1000,184.8648 L 185.4000,184.8648 L 185.4000,196.3648 L 159.1000,196.3648 z " style="fill: #ffffff; fill-opacity: 0.00; stroke: none;" id="ezcGraphPolygon_130"/><text id="ezcGraphTextBox_41_text" x="159.6000" text-length="24.8000px" y="193.8648" style="font-size: 10px; font-family: 'Arial'; fill: #2e3436; fill-opacity: 1.00; stroke: none;">29.9</text></g><g id="ezcGraphTextBox_43"><path d=" M 223.1000,192.1312 L 223.1000,180.6312 L 249.4000,180.6312 L 249.4000,192.1312 L 223.1000,192.1312 z " style="fill: #ffffff; fill-opacity: 0.00; stroke: none;" id="ezcGraphPolygon_131"/><text id="ezcGraphTextBox_43_text" x="223.6000" text-length="24.8000px" y="189.6312" style="font-size: 10px; font-family: 'Arial'; fill: #2e3436; fill-opacity: 1.00; stroke: none;">30.6</text></g><g id="ezcGraphTextBox_45"><path d=" M 293.3000,177.6160 L 293.3000,166.1160 L 307.2000,166.1160 L 307.2000,177.6160 L 293.3000,177.6160 z " style="fill: #ffffff; fill-opacity: 0.00; stroke: none;" id="ezcGraphPolygon_132"/><text id="ezcGraphTextBox_45_text" x="293.8000" text-length="12.4000px" y="175.1160" style="font-size: 10px; font-family: 'Arial'; fill: #2e3436; fill-opacity: 1.00; stroke: none;">33</text></g><g id="ezcGraphTextBox_47"><path d=" M 351.1000,162.4960 L 351.1000,150.9960 L 377.4000,150.9960 L 377.4000,162.4960 L 351.1000,162.4960 z " style="fill: #ffffff; fill-opacity: 0.00; stroke: none;" id="ezcGraphPolygon_133"/><text id="ezcGraphTextBox_47_text" x="351.6000" text-length="24.8000px" y="159.9960" style="font-size: 10px; font-family: 'Arial'; fill: #2e3436; fill-opacity: 1.00; stroke: none;">35.5</text></g><g id="ezcGraphTextBox_49"><path d=" M 415.1000,157.6576 L 415.1000,146.1576 L 441.4000,146.1576 L 441.4000,157.6576 L 415.1000,157.6576 z " style="fill: #ffffff; fill-opacity: 0.00; stroke: none;" id="ezcGraphPolygon_134"/><text id="ezcGraphTextBox_49_text" x="415.6000" text-length="24.8000px" y="155.1576" style="font-size: 10px; font-family: 'Arial'; fill: #2e3436; fill-opacity: 1.00; stroke: none;">36.3</text></g><g id="ezcGraphTextBox_51"><path d=" M 159.1000,219.3472 L 159.1000,207.8472 L 185.4000,207.8472 L 185.4000,219.3472 L 159.1000,219.3472 z " style="fill: #ffffff; fill-opacity: 0.00; stroke: none;" id="ezcGraphPolygon_135"/><text id="ezcGraphTextBox_51_text" x="159.6000" text-length="24.8000px" y="216.8472" style="font-size: 10px; font-family: 'Arial'; fill: #2e3436; fill-opacity: 1.00; stroke: none;">26.1</text></g><g id="ezcGraphTextBox_53"><path d=" M 223.1000,215.1136 L 223.1000,203.6136 L 249.4000,203.6136 L 249.4000,215.1136 L 223.1000,215.1136 z " style="fill: #ffffff; fill-opacity: 0.00; stroke: none;" id="ezcGraphPolygon_136"/><text id="ezcGraphTextBox_53_text" x="223.6000" text-length="24.8000px" y="212.6136" style="font-size: 10px; font-family: 'Arial'; fill: #2e3436; fill-opacity: 1.00; stroke: none;">26.8</text></g><g id="ezcGraphTextBox_55"><path d=" M 287.1000,212.0896 L 287.1000,200.5896 L 313.4000,200.5896 L 313.4000,212.0896 L 287.1000,212.0896 z " style="fill: #ffffff; fill-opacity: 0.00; stroke: none;" id="ezcGraphPolygon_137"/><text id="ezcGraphTextBox_55_text" x="287.6000" text-length="24.8000px" y="209.5896" style="font-size: 10px; font-family: 'Arial'; fill: #2e3436; fill-opacity: 1.00; stroke: none;">27.3</text></g><g id="ezcGraphTextBox_57"><path d=" M 351.1000,203.6224 L 351.1000,192.1224 L 377.4000,192.1224 L 377.4000,203.6224 L 351.1000,203.6224 z " style="fill: #ffffff; fill-opacity: 0.00; stroke: none;" id="ezcGraphPolygon_138"/><text id="ezcGraphTextBox_57_text" x="351.6000" text-length="24.8000px" y="201.1224" style="font-size: 10px; font-family: 'Arial'; fill: #2e3436; fill-opacity: 1.00; stroke: none;">28.7</text></g><g id="ezcGraphTextBox_59"><path d=" M 415.1000,203.0176 L 415.1000,191.5176 L 441.4000,191.5176 L 441.4000,203.0176 L 415.1000,203.0176 z " style="fill: #ffffff; fill-opacity: 0.00; stroke: none;" id="ezcGraphPolygon_139"/><text id="ezcGraphTextBox_59_text" x="415.6000" text-length="24.8000px" y="200.5176" style="font-size: 10px; font-family: 'Arial'; fill: #2e3436; fill-opacity: 1.00; stroke: none;">28.8</text></g><g id="ezcGraphTextBox_61"><path d=" M 162.2000,330.6304 L 162.2000,319.1304 L 182.3000,319.1304 L 182.3000,330.6304 L 162.2000,330.6304 z " style="fill: #ffffff; fill-opacity: 0.00; stroke: none;" id="ezcGraphPolygon_140"/><text id="ezcGraphTextBox_61_text" x="162.7000" text-length="18.6000px" y="328.1304" style="font-size: 10px; font-family: 'Arial'; fill: #2e3436; fill-opacity: 1.00; stroke: none;">7.7</text></g><g id="ezcGraphTextBox_63"><path d=" M 226.2000,326.3968 L 226.2000,314.8968 L 246.3000,314.8968 L 246.3000,326.3968 L 226.2000,326.3968 z " style="fill: #ffffff; fill-opacity: 0.00; stroke: none;" id="ezcGraphPolygon_141"/><text id="ezcGraphTextBox_63_text" x="226.7000" text-length="18.6000px" y="323.8968" style="font-size: 10px; font-family: 'Arial'; fill: #2e3436; fill-opacity: 1.00; stroke: none;">8.4</text></g><g id="ezcGraphTextBox_65"><path d=" M 287.1000,307.6480 L 287.1000,296.1480 L 313.4000,296.1480 L 313.4000,307.6480 L 287.1000,307.6480 z " style="fill: #ffffff; fill-opacity: 0.00; stroke: none;" id="ezcGraphPolygon_142"/><text id="ezcGraphTextBox_65_text" x="287.6000" text-length="24.8000px" y="305.1480" style="font-size: 10px; font-family: 'Arial'; fill: #2e3436; fill-opacity: 1.00; stroke: none;">11.5</text></g><g id="ezcGraphTextBox_67"><path d=" M 351.1000,297.3664 L 351.1000,285.8664 L 377.4000,285.8664 L 377.4000,297.3664 L 351.1000,297.3664 z " style="fill: #ffffff; fill-opacity: 0.00; stroke: none;" id="ezcGraphPolygon_143"/><text id="ezcGraphTextBox_67_text" x="351.6000" text-length="24.8000px" y="294.8664" style="font-size: 10px; font-family: 'Arial'; fill: #2e3436; fill-opacity: 1.00; stroke: none;">13.2</text></g><g id="ezcGraphTextBox_69"><path d=" M 415.1000,288.8992 L 415.1000,277.3992 L 441.4000,277.3992 L 441.4000,288.8992 L 415.1000,288.8992 z " style="fill: #ffffff; fill-opacity: 0.00; stroke: none;" id="ezcGraphPolygon_144"/><text id="ezcGraphTextBox_69_text" x="415.6000" text-length="24.8000px" y="286.3992" style="font-size: 10px; font-family: 'Arial'; fill: #2e3436; fill-opacity: 1.00; stroke: none;">14.6</text></g><g id="ezcGraphTextBox_71"><path d=" M 159.1000,287.6896 L 159.1000,276.1896 L 185.4000,276.1896 L 185.4000,287.6896 L 159.1000,287.6896 z " style="fill: #ffffff; fill-opacity: 0.00; stroke: none;" id="ezcGraphPolygon_145"/><text id="ezcGraphTextBox_71_text" x="159.6000" text-length="24.8000px" y="285.1896" style="font-size: 10px; font-family: 'Arial'; fill: #2e3436; fill-opacity: 1.00; stroke: none;">14.8</text></g><g id="ezcGraphTextBox_73"><path d=" M 223.1000,281.6416 L 223.1000,270.1416 L 249.4000,270.1416 L 249.4000,281.6416 L 223.1000,281.6416 z " style="fill: #ffffff; fill-opacity: 0.00; stroke: none;" id="ezcGraphPolygon_146"/><text id="ezcGraphTextBox_73_text" x="223.6000" text-length="24.8000px" y="279.1416" style="font-size: 10px; font-family: 'Arial'; fill: #2e3436; fill-opacity: 1.00; stroke: none;">15.8</text></g><g id="ezcGraphTextBox_75"><path d=" M 287.1000,296.1568 L 287.1000,284.6568 L 313.4000,284.6568 L 313.4000,296.1568 L 287.1000,296.1568 z " style="fill: #ffffff; fill-opacity: 0.00; stroke: none;" id="ezcGraphPolygon_147"/><text id="ezcGraphTextBox_75_text" x="287.6000" text-length="24.8000px" y="293.6568" style="font-size: 10px; font-family: 'Arial'; fill: #2e3436; fill-opacity: 1.00; stroke: none;">13.4</text></g><g id="ezcGraphTextBox_77"><path d=" M 351.1000,302.8096 L 351.1000,291.3096 L 377.4000,291.3096 L 377.4000,302.8096 L 351.1000,302.8096 z " style="fill: #ffffff; fill-opacity: 0.00; stroke: none;" id="ezcGraphPolygon_148"/><text id="ezcGraphTextBox_77_text" x="351.6000" text-length="24.8000px" y="300.3096" style="font-size: 10px; font-family: 'Arial'; fill: #2e3436; fill-opacity: 1.00; stroke: none;">12.3</text></g><g id="ezcGraphTextBox_79"><path d=" M 415.1000,308.8576 L 415.1000,297.3576 L 441.4000,297.3576 L 441.4000,308.8576 L 415.1000,308.8576 z " style="fill: #ffffff; fill-opacity: 0.00; stroke: none;" id="ezcGraphPolygon_149"/><text id="ezcGraphTextBox_79_text" x="415.6000" text-length="24.8000px" y="306.3576" style="font-size: 10px; font-family: 'Arial'; fill: #2e3436; fill-opacity: 1.00; stroke: none;">11.3</text></g><g id="ezcGraphTextBox_81"><path d=" M 159.1000,247.1680 L 159.1000,235.6680 L 185.4000,235.6680 L 185.4000,247.1680 L 159.1000,247.1680 z " style="fill: #ffffff; fill-opacity: 0.00; stroke: none;" id="ezcGraphPolygon_150"/><text id="ezcGraphTextBox_81_text" x="159.6000" text-length="24.8000px" y="244.6680" style="font-size: 10px; font-family: 'Arial'; fill: #2e3436; fill-opacity: 1.00; stroke: none;">21.5</text></g><g id="ezcGraphTextBox_83"><path d=" M 223.1000,265.9168 L 223.1000,254.4168 L 249.4000,254.4168 L 249.4000,265.9168 L 223.1000,265.9168 z " style="fill: #ffffff; fill-opacity: 0.00; stroke: none;" id="ezcGraphPolygon_151"/><text id="ezcGraphTextBox_83_text" x="223.6000" text-length="24.8000px" y="263.4168" style="font-size: 10px; font-family: 'Arial'; fill: #2e3436; fill-opacity: 1.00; stroke: none;">18.4</text></g><g id="ezcGraphTextBox_85"><path d=" M 287.1000,287.0848 L 287.1000,275.5848 L 313.4000,275.5848 L 313.4000,287.0848 L 287.1000,287.0848 z " style="fill: #ffffff; fill-opacity: 0.00; stroke: none;" id="ezcGraphPolygon_152"/><text id="ezcGraphTextBox_85_text" x="287.6000" text-length="24.8000px" y="284.5848" style="font-size: 10px; font-family: 'Arial'; fill: #2e3436; fill-opacity: 1.00; stroke: none;">14.9</text></g><g id="ezcGraphTextBox_87"><path d=" M 351.1000,314.9056 L 351.1000,303.4056 L 377.4000,303.4056 L 377.4000,314.9056 L 351.1000,314.9056 z " style="fill: #ffffff; fill-opacity: 0.00; stroke: none;" id="ezcGraphPolygon_153"/><text id="ezcGraphTextBox_87_text" x="351.6000" text-length="24.8000px" y="312.4056" style="font-size: 10px; font-family: 'Arial'; fill: #2e3436; fill-opacity: 1.00; stroke: none;">10.3</text></g><g id="ezcGraphTextBox_89"><path d=" M 424.4000,322.7680 L 424.4000,311.2680 L 432.1000,311.2680 L 432.1000,322.7680 L 424.4000,322.7680 z " style="fill: #ffffff; fill-opacity: 0.00; stroke: none;" id="ezcGraphPolygon_154"/><text id="ezcGraphTextBox_89_text" x="424.9000" text-length="6.2000px" y="320.2680" style="font-size: 10px; font-family: 'Arial'; fill: #2e3436; fill-opacity: 1.00; stroke: none;">9</text></g></g></svg>
