<?xml version="1.0"?>
<svg xmlns="http://www.w3.org/2000/svg" width="500" height="420" version="1.0" id="ezcGraph"><defs/><g id="ezcGraphChart" color-rendering="optimizeQuality" shape-rendering="geometricPrecision" text-rendering="optimizeLegibility"><path d=" M 0.0000,420.0000 L 0.0000,0.0000 L 500.0000,0.0000 L 500.0000,420.0000 L 0.0000,420.0000 z " style="fill: #eeeeec; fill-opacity: 1.00; stroke: none;" id="ezcGraphPolygon_1"/><path d=" M 0.0000,42.0000 L 0.0000,0.0000 L 500.0000,0.0000 L 500.0000,42.0000 L 0.0000,42.0000 z " style="fill: #000000; fill-opacity: 0.00; stroke: none;" id="ezcGraphPolygon_2"/><path d=" M 0.0000,420.0000 L 0.0000,42.0000 L 100.0000,42.0000 L 100.0000,420.0000 L 0.0000,420.0000 z " style="fill: #000000; fill-opacity: 0.00; stroke: none;" id="ezcGraphPolygon_4"/><path d=" M 2.0000,58.0000 L 2.0000,44.0000 L 16.0000,44.0000 L 16.0000,58.0000 L 2.0000,58.0000 z " style="fill: #3465a4; fill-opacity: 1.00; stroke: none; cursor: pointer;" id="ezcGraphPolygon_5" onclick="top.location = 'http://127.0.0.1/linux-hardware.org/index.php?view=computers&amp;type=desktop&amp;f=net_kind&amp;v=Ethernet&amp;p=-1'"/><path d=" M 2.0000,76.0000 L 2.0000,62.0000 L 16.0000,62.0000 L 16.0000,76.0000 L 2.0000,76.0000 z " style="fill: #4e9a06; fill-opacity: 1.00; stroke: none; cursor: pointer;" id="ezcGraphPolygon_7" onclick="top.location = 'http://127.0.0.1/linux-hardware.org/index.php?view=computers&amp;type=desktop&amp;f=net_kind&amp;v=WiFi&amp;p=-1'"/><path d=" M 2.0000,94.0000 L 2.0000,80.0000 L 16.0000,80.0000 L 16.0000,94.0000 L 2.0000,94.0000 z " style="fill: #cc0000; fill-opacity: 1.00; stroke: none; cursor: pointer;" id="ezcGraphPolygon_9" onclick="top.location = 'http://127.0.0.1/linux-hardware.org/index.php?view=computers&amp;type=desktop&amp;f=net_kind&amp;v=Modem&amp;p=-1'"/><path d=" M 100.0000,382.2000 L 500.0000,382.2000" style="fill: none; stroke: #2e3436; stroke-width: 1; stroke-opacity: 1.00; stroke-linecap: round; stroke-linejoin: round;" id="ezcGraphLine_11"/><path d=" M 492.0000,378.2000 L 500.0000,382.2000 L 492.0000,386.2000 L 492.0000,378.2000 z " style="fill: #2e3436; fill-opacity: 1.00; stroke: none;" id="ezcGraphPolygon_12"/><path d=" M 246.6667,79.8000 L 246.6667,382.2000" style="fill: none; stroke: #000000; stroke-width: 1; stroke-opacity: 0.00; stroke-linecap: round; stroke-linejoin: round;" id="ezcGraphLine_15"/><path d=" M 246.6667,379.2000 L 246.6667,385.2000" style="fill: none; stroke: #2e3436; stroke-width: 1; stroke-opacity: 1.00; stroke-linecap: round; stroke-linejoin: round;" id="ezcGraphLine_16"/><path d=" M 353.3333,79.8000 L 353.3333,382.2000" style="fill: none; stroke: #000000; stroke-width: 1; stroke-opacity: 0.00; stroke-linecap: round; stroke-linejoin: round;" id="ezcGraphLine_18"/><path d=" M 353.3333,379.2000 L 353.3333,385.2000" style="fill: none; stroke: #2e3436; stroke-width: 1; stroke-opacity: 1.00; stroke-linecap: round; stroke-linejoin: round;" id="ezcGraphLine_19"/><path d=" M 460.0000,79.8000 L 460.0000,382.2000" style="fill: none; stroke: #000000; stroke-width: 1; stroke-opacity: 0.00; stroke-linecap: round; stroke-linejoin: round;" id="ezcGraphLine_21"/><path d=" M 460.0000,379.2000 L 460.0000,385.2000" style="fill: none; stroke: #2e3436; stroke-width: 1; stroke-opacity: 1.00; stroke-linecap: round; stroke-linejoin: round;" id="ezcGraphLine_22"/><path d=" M 140.0000,420.0000 L 140.0000,42.0000" style="fill: none; stroke: #2e3436; stroke-width: 1; stroke-opacity: 1.00; stroke-linecap: round; stroke-linejoin: round;" id="ezcGraphLine_23"/><path d=" M 136.0000,50.0000 L 140.0000,42.0000 L 144.0000,50.0000 L 136.0000,50.0000 z " style="fill: #2e3436; fill-opacity: 1.00; stroke: none;" id="ezcGraphPolygon_24"/><path d=" M 140.0000,231.0000 L 460.0000,231.0000" style="fill: none; stroke: #000000; stroke-width: 1; stroke-opacity: 0.00; stroke-linecap: round; stroke-linejoin: round;" id="ezcGraphLine_27"/><path d=" M 140.0000,231.0000 L 143.0000,231.0000" style="fill: none; stroke: #2e3436; stroke-width: 1; stroke-opacity: 1.00; stroke-linecap: round; stroke-linejoin: round;" id="ezcGraphLine_28"/><path d=" M 140.0000,79.8000 L 460.0000,79.8000" style="fill: none; stroke: #000000; stroke-width: 1; stroke-opacity: 0.00; stroke-linecap: round; stroke-linejoin: round;" id="ezcGraphLine_30"/><path d=" M 140.0000,79.8000 L 143.0000,79.8000" style="fill: none; stroke: #2e3436; stroke-width: 1; stroke-opacity: 1.00; stroke-linecap: round; stroke-linejoin: round;" id="ezcGraphLine_31"/><path d=" M 193.3333,261.2400 L 193.3333,261.2400" style="fill: none; stroke: #3465a4; stroke-width: 1; stroke-opacity: 1.00; stroke-linecap: round; stroke-linejoin: round;" id="ezcGraphLine_33"/><path d=" M 193.3333,261.2400 L 300.0000,168.7056" style="fill: none; stroke: #3465a4; stroke-width: 1; stroke-opacity: 1.00; stroke-linecap: round; stroke-linejoin: round;" id="ezcGraphLine_35"/><path d=" M 300.0000,168.7056 L 406.6667,182.0112" style="fill: none; stroke: #3465a4; stroke-width: 1; stroke-opacity: 1.00; stroke-linecap: round; stroke-linejoin: round;" id="ezcGraphLine_37"/><path d=" M 193.3333,261.2400 L 193.3333,261.2400" style="fill: none; stroke: #4e9a06; stroke-width: 1; stroke-opacity: 1.00; stroke-linecap: round; stroke-linejoin: round;" id="ezcGraphLine_39"/><path d=" M 193.3333,261.2400 L 300.0000,293.2944" style="fill: none; stroke: #4e9a06; stroke-width: 1; stroke-opacity: 1.00; stroke-linecap: round; stroke-linejoin: round;" id="ezcGraphLine_41"/><path d=" M 300.0000,293.2944 L 406.6667,283.9200" style="fill: none; stroke: #4e9a06; stroke-width: 1; stroke-opacity: 1.00; stroke-linecap: round; stroke-linejoin: round;" id="ezcGraphLine_43"/><path d=" M 193.3333,321.7200 L 193.3333,321.7200" style="fill: none; stroke: #cc0000; stroke-width: 1; stroke-opacity: 1.00; stroke-linecap: round; stroke-linejoin: round;" id="ezcGraphLine_45"/><path d=" M 193.3333,321.7200 L 406.6667,378.2688" style="fill: none; stroke: #cc0000; stroke-width: 1; stroke-opacity: 1.00; stroke-linecap: round; stroke-linejoin: round;" id="ezcGraphLine_47"/><path d=" M 190.3333,264.2400 L 190.3333,258.2400 L 196.3333,258.2400 L 196.3333,264.2400 L 190.3333,264.2400 z " style="fill: #3465a4; fill-opacity: 1.00; stroke: none; cursor: pointer;" id="ezcGraphPolygon_49" onclick="top.location = 'http://127.0.0.1/linux-hardware.org/index.php?view=computers&amp;type=desktop&amp;f=net_kind&amp;v=Ethernet&amp;p=-1&amp;p=61'"/><path d=" M 297.0000,171.7056 L 297.0000,165.7056 L 303.0000,165.7056 L 303.0000,171.7056 L 297.0000,171.7056 z " style="fill: #3465a4; fill-opacity: 1.00; stroke: none; cursor: pointer;" id="ezcGraphPolygon_50" onclick="top.location = 'http://127.0.0.1/linux-hardware.org/index.php?view=computers&amp;type=desktop&amp;f=net_kind&amp;v=Ethernet&amp;p=-1&amp;p=73'"/><path d=" M 403.6667,185.0112 L 403.6667,179.0112 L 409.6667,179.0112 L 409.6667,185.0112 L 403.6667,185.0112 z " style="fill: #3465a4; fill-opacity: 1.00; stroke: none; cursor: pointer;" id="ezcGraphPolygon_51" onclick="top.location = 'http://127.0.0.1/linux-hardware.org/index.php?view=computers&amp;type=desktop&amp;f=net_kind&amp;v=Ethernet&amp;p=-1&amp;p=85'"/><path d=" M 190.3333,264.2400 L 190.3333,258.2400 L 196.3333,258.2400 L 196.3333,264.2400 L 190.3333,264.2400 z " style="fill: #4e9a06; fill-opacity: 1.00; stroke: none; cursor: pointer;" id="ezcGraphPolygon_52" onclick="top.location = 'http://127.0.0.1/linux-hardware.org/index.php?view=computers&amp;type=desktop&amp;f=net_kind&amp;v=WiFi&amp;p=-1&amp;p=61'"/><path d=" M 297.0000,296.2944 L 297.0000,290.2944 L 303.0000,290.2944 L 303.0000,296.2944 L 297.0000,296.2944 z " style="fill: #4e9a06; fill-opacity: 1.00; stroke: none; cursor: pointer;" id="ezcGraphPolygon_53" onclick="top.location = 'http://127.0.0.1/linux-hardware.org/index.php?view=computers&amp;type=desktop&amp;f=net_kind&amp;v=WiFi&amp;p=-1&amp;p=73'"/><path d=" M 403.6667,286.9200 L 403.6667,280.9200 L 409.6667,280.9200 L 409.6667,286.9200 L 403.6667,286.9200 z " style="fill: #4e9a06; fill-opacity: 1.00; stroke: none; cursor: pointer;" id="ezcGraphPolygon_54" onclick="top.location = 'http://127.0.0.1/linux-hardware.org/index.php?view=computers&amp;type=desktop&amp;f=net_kind&amp;v=WiFi&amp;p=-1&amp;p=85'"/><path d=" M 190.3333,324.7200 L 190.3333,318.7200 L 196.3333,318.7200 L 196.3333,324.7200 L 190.3333,324.7200 z " style="fill: #cc0000; fill-opacity: 1.00; stroke: none; cursor: pointer;" id="ezcGraphPolygon_55" onclick="top.location = 'http://127.0.0.1/linux-hardware.org/index.php?view=computers&amp;type=desktop&amp;f=net_kind&amp;v=Modem&amp;p=-1&amp;p=61'"/><path d=" M 403.6667,381.2688 L 403.6667,375.2688 L 409.6667,375.2688 L 409.6667,381.2688 L 403.6667,381.2688 z " style="fill: #cc0000; fill-opacity: 1.00; stroke: none; cursor: pointer;" id="ezcGraphPolygon_56" onclick="top.location = 'http://127.0.0.1/linux-hardware.org/index.php?view=computers&amp;type=desktop&amp;f=net_kind&amp;v=Modem&amp;p=-1&amp;p=85'"/><g id="ezcGraphTextBox_3"><path d=" M 48.1000,42.0000 L 48.1000,0.5000 L 452.4000,0.5000 L 452.4000,42.0000 L 48.1000,42.0000 z " style="fill: #ffffff; fill-opacity: 0.00; stroke: none;" id="ezcGraphPolygon_57"/><text id="ezcGraphTextBox_3_text" x="48.6000" text-length="402.8000px" y="35.0000" style="font-size: 40px; font-family: 'Arial'; fill: #2e3436; fill-opacity: 1.00; stroke: none;">Net Controller Kind</text></g><g id="ezcGraphTextBox_6" style=" cursor: pointer;" onclick="top.location = 'http://127.0.0.1/linux-hardware.org/index.php?view=computers&amp;type=desktop&amp;f=net_kind&amp;v=Ethernet&amp;p=-1'"><path d=" M 16.5000,59.0000 L 16.5000,43.5000 L 77.3600,43.5000 L 77.3600,59.0000 L 16.5000,59.0000 z " style="fill: #ffffff; fill-opacity: 0.00; stroke: none;" id="ezcGraphPolygon_58"/><text id="ezcGraphTextBox_6_text" x="17.0000" text-length="59.3600px" y="55.9000" style="font-size: 14px; font-family: 'Arial'; fill: #2e3436; fill-opacity: 1.00; stroke: none;">Ethernet</text></g><g id="ezcGraphTextBox_8" style=" cursor: pointer;" onclick="top.location = 'http://127.0.0.1/linux-hardware.org/index.php?view=computers&amp;type=desktop&amp;f=net_kind&amp;v=WiFi&amp;p=-1'"><path d=" M 16.5000,77.0000 L 16.5000,61.5000 L 47.6800,61.5000 L 47.6800,77.0000 L 16.5000,77.0000 z " style="fill: #ffffff; fill-opacity: 0.00; stroke: none;" id="ezcGraphPolygon_59"/><text id="ezcGraphTextBox_8_text" x="17.0000" text-length="29.6800px" y="73.9000" style="font-size: 14px; font-family: 'Arial'; fill: #2e3436; fill-opacity: 1.00; stroke: none;">WiFi</text></g><g id="ezcGraphTextBox_10" style=" cursor: pointer;" onclick="top.location = 'http://127.0.0.1/linux-hardware.org/index.php?view=computers&amp;type=desktop&amp;f=net_kind&amp;v=Modem&amp;p=-1'"><path d=" M 16.5000,95.0000 L 16.5000,79.5000 L 55.1000,79.5000 L 55.1000,95.0000 L 16.5000,95.0000 z " style="fill: #ffffff; fill-opacity: 0.00; stroke: none;" id="ezcGraphPolygon_60"/><text id="ezcGraphTextBox_10_text" x="17.0000" text-length="37.1000px" y="91.9000" style="font-size: 14px; font-family: 'Arial'; fill: #2e3436; fill-opacity: 1.00; stroke: none;">Modem</text></g><g id="ezcGraphTextBox_13" transform="rotate( 0.00 493.0000 375.2000 )"><path d=" M 465.7000,381.2000 L 465.7000,367.7000 L 499.0000,367.7000 L 499.0000,381.2000 L 465.7000,381.2000 z " style="fill: #ffffff; fill-opacity: 0.00; stroke: none;" id="ezcGraphPolygon_61"/><text id="ezcGraphTextBox_13_text" x="466.2000" text-length="31.8000px" y="378.4000" style="font-size: 12px; font-family: 'Arial'; fill: #2e3436; fill-opacity: 1.00; stroke: none;">Time </text></g><g id="ezcGraphTextBox_14"><path d=" M 167.3933,397.2000 L 167.3933,383.7000 L 219.7733,383.7000 L 219.7733,397.2000 L 167.3933,397.2000 z " style="fill: #ffffff; fill-opacity: 0.00; stroke: none;" id="ezcGraphPolygon_62"/><text id="ezcGraphTextBox_14_text" x="167.8933" text-length="50.8800px" y="394.4000" style="font-size: 12px; font-family: 'Arial'; fill: #2e3436; fill-opacity: 1.00; stroke: none;">Jan 2019</text></g><g id="ezcGraphTextBox_17"><path d=" M 274.0600,397.2000 L 274.0600,383.7000 L 326.4400,383.7000 L 326.4400,397.2000 L 274.0600,397.2000 z " style="fill: #ffffff; fill-opacity: 0.00; stroke: none;" id="ezcGraphPolygon_63"/><text id="ezcGraphTextBox_17_text" x="274.5600" text-length="50.8800px" y="394.4000" style="font-size: 12px; font-family: 'Arial'; fill: #2e3436; fill-opacity: 1.00; stroke: none;">Jan 2020</text></g><g id="ezcGraphTextBox_20"><path d=" M 380.7267,397.2000 L 380.7267,383.7000 L 433.1067,383.7000 L 433.1067,397.2000 L 380.7267,397.2000 z " style="fill: #ffffff; fill-opacity: 0.00; stroke: none;" id="ezcGraphPolygon_64"/><text id="ezcGraphTextBox_20_text" x="381.2267" text-length="50.8800px" y="394.4000" style="font-size: 12px; font-family: 'Arial'; fill: #2e3436; fill-opacity: 1.00; stroke: none;">Jan 2021</text></g><g id="ezcGraphTextBox_25" transform="rotate( 0.00 147.0000 49.0000 )"><path d=" M 141.5000,57.0000 L 141.5000,43.5000 L 384.6800,43.5000 L 384.6800,57.0000 L 141.5000,57.0000 z " style="fill: #ffffff; fill-opacity: 0.00; stroke: none;" id="ezcGraphPolygon_65"/><text id="ezcGraphTextBox_25_text" x="142.0000" text-length="241.6800px" y="54.2000" style="font-size: 12px; font-family: 'Arial'; fill: #2e3436; fill-opacity: 1.00; stroke: none;">Desktops by "Net Controller Kind" in %</text></g><g id="ezcGraphTextBox_26"><path d=" M 130.0600,381.2000 L 130.0600,367.7000 L 139.0000,367.7000 L 139.0000,381.2000 L 130.0600,381.2000 z " style="fill: #ffffff; fill-opacity: 0.00; stroke: none;" id="ezcGraphPolygon_66"/><text id="ezcGraphTextBox_26_text" x="130.5600" text-length="7.4400px" y="378.4000" style="font-size: 12px; font-family: 'Arial'; fill: #2e3436; fill-opacity: 1.00; stroke: none;">0</text></g><g id="ezcGraphTextBox_29"><path d=" M 122.6200,230.0000 L 122.6200,216.5000 L 139.0000,216.5000 L 139.0000,230.0000 L 122.6200,230.0000 z " style="fill: #ffffff; fill-opacity: 0.00; stroke: none;" id="ezcGraphPolygon_67"/><text id="ezcGraphTextBox_29_text" x="123.1200" text-length="14.8800px" y="227.2000" style="font-size: 12px; font-family: 'Arial'; fill: #2e3436; fill-opacity: 1.00; stroke: none;">50</text></g><g id="ezcGraphTextBox_32"><path d=" M 115.1800,94.8000 L 115.1800,81.3000 L 139.0000,81.3000 L 139.0000,94.8000 L 115.1800,94.8000 z " style="fill: #ffffff; fill-opacity: 0.00; stroke: none;" id="ezcGraphPolygon_68"/><text id="ezcGraphTextBox_32_text" x="115.6800" text-length="22.3200px" y="92.0000" style="font-size: 12px; font-family: 'Arial'; fill: #2e3436; fill-opacity: 1.00; stroke: none;">100</text></g><g id="ezcGraphTextBox_34"><path d=" M 186.6333,256.2400 L 186.6333,244.7400 L 200.5333,244.7400 L 200.5333,256.2400 L 186.6333,256.2400 z " style="fill: #ffffff; fill-opacity: 0.00; stroke: none;" id="ezcGraphPolygon_69"/><text id="ezcGraphTextBox_34_text" x="187.1333" text-length="12.4000px" y="253.7400" style="font-size: 10px; font-family: 'Arial'; fill: #2e3436; fill-opacity: 1.00; stroke: none;">40</text></g><g id="ezcGraphTextBox_36"><path d=" M 287.1000,163.7056 L 287.1000,152.2056 L 313.4000,152.2056 L 313.4000,163.7056 L 287.1000,163.7056 z " style="fill: #ffffff; fill-opacity: 0.00; stroke: none;" id="ezcGraphPolygon_70"/><text id="ezcGraphTextBox_36_text" x="287.6000" text-length="24.8000px" y="161.2056" style="font-size: 10px; font-family: 'Arial'; fill: #2e3436; fill-opacity: 1.00; stroke: none;">70.6</text></g><g id="ezcGraphTextBox_38"><path d=" M 393.7667,177.0112 L 393.7667,165.5112 L 420.0667,165.5112 L 420.0667,177.0112 L 393.7667,177.0112 z " style="fill: #ffffff; fill-opacity: 0.00; stroke: none;" id="ezcGraphPolygon_71"/><text id="ezcGraphTextBox_38_text" x="394.2667" text-length="24.8000px" y="174.5112" style="font-size: 10px; font-family: 'Arial'; fill: #2e3436; fill-opacity: 1.00; stroke: none;">66.2</text></g><g id="ezcGraphTextBox_40"><path d=" M 186.6333,256.2400 L 186.6333,244.7400 L 200.5333,244.7400 L 200.5333,256.2400 L 186.6333,256.2400 z " style="fill: #ffffff; fill-opacity: 0.00; stroke: none;" id="ezcGraphPolygon_72"/><text id="ezcGraphTextBox_40_text" x="187.1333" text-length="12.4000px" y="253.7400" style="font-size: 10px; font-family: 'Arial'; fill: #2e3436; fill-opacity: 1.00; stroke: none;">40</text></g><g id="ezcGraphTextBox_42"><path d=" M 287.1000,288.2944 L 287.1000,276.7944 L 313.4000,276.7944 L 313.4000,288.2944 L 287.1000,288.2944 z " style="fill: #ffffff; fill-opacity: 0.00; stroke: none;" id="ezcGraphPolygon_73"/><text id="ezcGraphTextBox_42_text" x="287.6000" text-length="24.8000px" y="285.7944" style="font-size: 10px; font-family: 'Arial'; fill: #2e3436; fill-opacity: 1.00; stroke: none;">29.4</text></g><g id="ezcGraphTextBox_44"><path d=" M 393.7667,278.9200 L 393.7667,267.4200 L 420.0667,267.4200 L 420.0667,278.9200 L 393.7667,278.9200 z " style="fill: #ffffff; fill-opacity: 0.00; stroke: none;" id="ezcGraphPolygon_74"/><text id="ezcGraphTextBox_44_text" x="394.2667" text-length="24.8000px" y="276.4200" style="font-size: 10px; font-family: 'Arial'; fill: #2e3436; fill-opacity: 1.00; stroke: none;">32.5</text></g><g id="ezcGraphTextBox_46"><path d=" M 186.6333,316.7200 L 186.6333,305.2200 L 200.5333,305.2200 L 200.5333,316.7200 L 186.6333,316.7200 z " style="fill: #ffffff; fill-opacity: 0.00; stroke: none;" id="ezcGraphPolygon_75"/><text id="ezcGraphTextBox_46_text" x="187.1333" text-length="12.4000px" y="314.2200" style="font-size: 10px; font-family: 'Arial'; fill: #2e3436; fill-opacity: 1.00; stroke: none;">20</text></g><g id="ezcGraphTextBox_48"><path d=" M 396.8667,373.2688 L 396.8667,361.7688 L 416.9667,361.7688 L 416.9667,373.2688 L 396.8667,373.2688 z " style="fill: #ffffff; fill-opacity: 0.00; stroke: none;" id="ezcGraphPolygon_76"/><text id="ezcGraphTextBox_48_text" x="397.3667" text-length="18.6000px" y="370.7688" style="font-size: 10px; font-family: 'Arial'; fill: #2e3436; fill-opacity: 1.00; stroke: none;">1.3</text></g></g></svg>
