<?xml version="1.0"?>
<svg xmlns="http://www.w3.org/2000/svg" width="500" height="420" version="1.0" id="ezcGraph"><defs/><g id="ezcGraphChart" color-rendering="optimizeQuality" shape-rendering="geometricPrecision" text-rendering="optimizeLegibility"><path d=" M 0.0000,420.0000 L 0.0000,0.0000 L 500.0000,0.0000 L 500.0000,420.0000 L 0.0000,420.0000 z " style="fill: #eeeeec; fill-opacity: 1.00; stroke: none;" id="ezcGraphPolygon_1"/><path d=" M 0.0000,42.0000 L 0.0000,0.0000 L 500.0000,0.0000 L 500.0000,42.0000 L 0.0000,42.0000 z " style="fill: #000000; fill-opacity: 0.00; stroke: none;" id="ezcGraphPolygon_2"/><path d=" M 0.0000,420.0000 L 0.0000,42.0000 L 100.0000,42.0000 L 100.0000,420.0000 L 0.0000,420.0000 z " style="fill: #000000; fill-opacity: 0.00; stroke: none;" id="ezcGraphPolygon_4"/><path d=" M 2.0000,58.0000 L 2.0000,44.0000 L 16.0000,44.0000 L 16.0000,58.0000 L 2.0000,58.0000 z " style="fill: #3465a4; fill-opacity: 1.00; stroke: none; cursor: pointer;" id="ezcGraphPolygon_5" onclick="top.location = 'https://linux-hardware.org/?view=computers&amp;type=notebook&amp;f=drive_size&amp;v=0.5&amp;p=-1'"/><path d=" M 2.0000,76.0000 L 2.0000,62.0000 L 16.0000,62.0000 L 16.0000,76.0000 L 2.0000,76.0000 z " style="fill: #4e9a06; fill-opacity: 1.00; stroke: none; cursor: pointer;" id="ezcGraphPolygon_7" onclick="top.location = 'https://linux-hardware.org/?view=computers&amp;type=notebook&amp;f=drive_size&amp;v=1.0&amp;p=-1'"/><path d=" M 2.0000,94.0000 L 2.0000,80.0000 L 16.0000,80.0000 L 16.0000,94.0000 L 2.0000,94.0000 z " style="fill: #cc0000; fill-opacity: 1.00; stroke: none; cursor: pointer;" id="ezcGraphPolygon_9" onclick="top.location = 'https://linux-hardware.org/?view=computers&amp;type=notebook&amp;f=drive_size&amp;v=2.0&amp;p=-1'"/><path d=" M 2.0000,112.0000 L 2.0000,98.0000 L 16.0000,98.0000 L 16.0000,112.0000 L 2.0000,112.0000 z " style="fill: #edd400; fill-opacity: 1.00; stroke: none; cursor: pointer;" id="ezcGraphPolygon_11" onclick="top.location = 'https://linux-hardware.org/?view=computers&amp;type=notebook&amp;f=drive_size&amp;v=3.0&amp;p=-1'"/><path d=" M 2.0000,130.0000 L 2.0000,116.0000 L 16.0000,116.0000 L 16.0000,130.0000 L 2.0000,130.0000 z " style="fill: #75505b; fill-opacity: 1.00; stroke: none; cursor: pointer;" id="ezcGraphPolygon_13" onclick="top.location = 'https://linux-hardware.org/?view=computers&amp;type=notebook&amp;f=drive_size&amp;v=10.0&amp;p=-1'"/><path d=" M 2.0000,148.0000 L 2.0000,134.0000 L 16.0000,134.0000 L 16.0000,148.0000 L 2.0000,148.0000 z " style="fill: #f57900; fill-opacity: 1.00; stroke: none;" id="ezcGraphPolygon_15"/><path d=" M 100.0000,382.2000 L 500.0000,382.2000" style="fill: none; stroke: #2e3436; stroke-width: 1; stroke-opacity: 1.00; stroke-linecap: round; stroke-linejoin: round;" id="ezcGraphLine_17"/><path d=" M 492.0000,378.2000 L 500.0000,382.2000 L 492.0000,386.2000 L 492.0000,378.2000 z " style="fill: #2e3436; fill-opacity: 1.00; stroke: none;" id="ezcGraphPolygon_18"/><path d=" M 185.7143,79.8000 L 185.7143,382.2000" style="fill: none; stroke: #000000; stroke-width: 1; stroke-opacity: 0.00; stroke-linecap: round; stroke-linejoin: round;" id="ezcGraphLine_21"/><path d=" M 185.7143,379.2000 L 185.7143,385.2000" style="fill: none; stroke: #2e3436; stroke-width: 1; stroke-opacity: 1.00; stroke-linecap: round; stroke-linejoin: round;" id="ezcGraphLine_22"/><path d=" M 231.4286,79.8000 L 231.4286,382.2000" style="fill: none; stroke: #000000; stroke-width: 1; stroke-opacity: 0.00; stroke-linecap: round; stroke-linejoin: round;" id="ezcGraphLine_24"/><path d=" M 231.4286,379.2000 L 231.4286,385.2000" style="fill: none; stroke: #2e3436; stroke-width: 1; stroke-opacity: 1.00; stroke-linecap: round; stroke-linejoin: round;" id="ezcGraphLine_25"/><path d=" M 277.1429,79.8000 L 277.1429,382.2000" style="fill: none; stroke: #000000; stroke-width: 1; stroke-opacity: 0.00; stroke-linecap: round; stroke-linejoin: round;" id="ezcGraphLine_27"/><path d=" M 277.1429,379.2000 L 277.1429,385.2000" style="fill: none; stroke: #2e3436; stroke-width: 1; stroke-opacity: 1.00; stroke-linecap: round; stroke-linejoin: round;" id="ezcGraphLine_28"/><path d=" M 322.8571,79.8000 L 322.8571,382.2000" style="fill: none; stroke: #000000; stroke-width: 1; stroke-opacity: 0.00; stroke-linecap: round; stroke-linejoin: round;" id="ezcGraphLine_30"/><path d=" M 322.8571,379.2000 L 322.8571,385.2000" style="fill: none; stroke: #2e3436; stroke-width: 1; stroke-opacity: 1.00; stroke-linecap: round; stroke-linejoin: round;" id="ezcGraphLine_31"/><path d=" M 368.5714,79.8000 L 368.5714,382.2000" style="fill: none; stroke: #000000; stroke-width: 1; stroke-opacity: 0.00; stroke-linecap: round; stroke-linejoin: round;" id="ezcGraphLine_33"/><path d=" M 368.5714,379.2000 L 368.5714,385.2000" style="fill: none; stroke: #2e3436; stroke-width: 1; stroke-opacity: 1.00; stroke-linecap: round; stroke-linejoin: round;" id="ezcGraphLine_34"/><path d=" M 414.2857,79.8000 L 414.2857,382.2000" style="fill: none; stroke: #000000; stroke-width: 1; stroke-opacity: 0.00; stroke-linecap: round; stroke-linejoin: round;" id="ezcGraphLine_36"/><path d=" M 414.2857,379.2000 L 414.2857,385.2000" style="fill: none; stroke: #2e3436; stroke-width: 1; stroke-opacity: 1.00; stroke-linecap: round; stroke-linejoin: round;" id="ezcGraphLine_37"/><path d=" M 460.0000,79.8000 L 460.0000,382.2000" style="fill: none; stroke: #000000; stroke-width: 1; stroke-opacity: 0.00; stroke-linecap: round; stroke-linejoin: round;" id="ezcGraphLine_39"/><path d=" M 460.0000,379.2000 L 460.0000,385.2000" style="fill: none; stroke: #2e3436; stroke-width: 1; stroke-opacity: 1.00; stroke-linecap: round; stroke-linejoin: round;" id="ezcGraphLine_40"/><path d=" M 140.0000,420.0000 L 140.0000,42.0000" style="fill: none; stroke: #2e3436; stroke-width: 1; stroke-opacity: 1.00; stroke-linecap: round; stroke-linejoin: round;" id="ezcGraphLine_41"/><path d=" M 136.0000,50.0000 L 140.0000,42.0000 L 144.0000,50.0000 L 136.0000,50.0000 z " style="fill: #2e3436; fill-opacity: 1.00; stroke: none;" id="ezcGraphPolygon_42"/><path d=" M 140.0000,231.0000 L 460.0000,231.0000" style="fill: none; stroke: #000000; stroke-width: 1; stroke-opacity: 0.00; stroke-linecap: round; stroke-linejoin: round;" id="ezcGraphLine_45"/><path d=" M 140.0000,231.0000 L 143.0000,231.0000" style="fill: none; stroke: #2e3436; stroke-width: 1; stroke-opacity: 1.00; stroke-linecap: round; stroke-linejoin: round;" id="ezcGraphLine_46"/><path d=" M 140.0000,79.8000 L 460.0000,79.8000" style="fill: none; stroke: #000000; stroke-width: 1; stroke-opacity: 0.00; stroke-linecap: round; stroke-linejoin: round;" id="ezcGraphLine_48"/><path d=" M 140.0000,79.8000 L 143.0000,79.8000" style="fill: none; stroke: #2e3436; stroke-width: 1; stroke-opacity: 1.00; stroke-linecap: round; stroke-linejoin: round;" id="ezcGraphLine_49"/><path d=" M 162.8571,144.4887 L 162.8571,144.4887" style="fill: none; stroke: #3465a4; stroke-width: 1; stroke-opacity: 1.00; stroke-linecap: round; stroke-linejoin: round;" id="ezcGraphLine_51"/><path d=" M 162.8571,144.4887 L 208.5714,150.7237" style="fill: none; stroke: #3465a4; stroke-width: 1; stroke-opacity: 1.00; stroke-linecap: round; stroke-linejoin: round;" id="ezcGraphLine_53"/><path d=" M 208.5714,150.7237 L 254.2857,101.6227" style="fill: none; stroke: #3465a4; stroke-width: 1; stroke-opacity: 1.00; stroke-linecap: round; stroke-linejoin: round;" id="ezcGraphLine_55"/><path d=" M 254.2857,101.6227 L 300.0000,119.5485" style="fill: none; stroke: #3465a4; stroke-width: 1; stroke-opacity: 1.00; stroke-linecap: round; stroke-linejoin: round;" id="ezcGraphLine_57"/><path d=" M 300.0000,119.5485 L 345.7143,79.8000" style="fill: none; stroke: #3465a4; stroke-width: 1; stroke-opacity: 1.00; stroke-linecap: round; stroke-linejoin: round;" id="ezcGraphLine_59"/><path d=" M 345.7143,79.8000 L 391.4286,102.4021" style="fill: none; stroke: #3465a4; stroke-width: 1; stroke-opacity: 1.00; stroke-linecap: round; stroke-linejoin: round;" id="ezcGraphLine_61"/><path d=" M 391.4286,102.4021 L 437.1429,103.9608" style="fill: none; stroke: #3465a4; stroke-width: 1; stroke-opacity: 1.00; stroke-linecap: round; stroke-linejoin: round;" id="ezcGraphLine_63"/><path d=" M 162.8571,269.1897 L 162.8571,269.1897" style="fill: none; stroke: #4e9a06; stroke-width: 1; stroke-opacity: 1.00; stroke-linecap: round; stroke-linejoin: round;" id="ezcGraphLine_65"/><path d=" M 162.8571,269.1897 L 208.5714,248.9258" style="fill: none; stroke: #4e9a06; stroke-width: 1; stroke-opacity: 1.00; stroke-linecap: round; stroke-linejoin: round;" id="ezcGraphLine_67"/><path d=" M 208.5714,248.9258 L 254.2857,241.9113" style="fill: none; stroke: #4e9a06; stroke-width: 1; stroke-opacity: 1.00; stroke-linecap: round; stroke-linejoin: round;" id="ezcGraphLine_69"/><path d=" M 254.2857,241.9113 L 300.0000,257.4990" style="fill: none; stroke: #4e9a06; stroke-width: 1; stroke-opacity: 1.00; stroke-linecap: round; stroke-linejoin: round;" id="ezcGraphLine_71"/><path d=" M 300.0000,257.4990 L 345.7143,240.3526" style="fill: none; stroke: #4e9a06; stroke-width: 1; stroke-opacity: 1.00; stroke-linecap: round; stroke-linejoin: round;" id="ezcGraphLine_73"/><path d=" M 345.7143,240.3526 L 391.4286,247.3670" style="fill: none; stroke: #4e9a06; stroke-width: 1; stroke-opacity: 1.00; stroke-linecap: round; stroke-linejoin: round;" id="ezcGraphLine_75"/><path d=" M 391.4286,247.3670 L 437.1429,266.0722" style="fill: none; stroke: #4e9a06; stroke-width: 1; stroke-opacity: 1.00; stroke-linecap: round; stroke-linejoin: round;" id="ezcGraphLine_77"/><path d=" M 162.8571,372.8474 L 162.8571,372.8474" style="fill: none; stroke: #cc0000; stroke-width: 1; stroke-opacity: 1.00; stroke-linecap: round; stroke-linejoin: round;" id="ezcGraphLine_79"/><path d=" M 162.8571,372.8474 L 208.5714,374.4062" style="fill: none; stroke: #cc0000; stroke-width: 1; stroke-opacity: 1.00; stroke-linecap: round; stroke-linejoin: round;" id="ezcGraphLine_81"/><path d=" M 208.5714,374.4062 L 254.2857,372.8474" style="fill: none; stroke: #cc0000; stroke-width: 1; stroke-opacity: 1.00; stroke-linecap: round; stroke-linejoin: round;" id="ezcGraphLine_83"/><path d=" M 254.2857,372.8474 L 300.0000,374.4062" style="fill: none; stroke: #cc0000; stroke-width: 1; stroke-opacity: 1.00; stroke-linecap: round; stroke-linejoin: round;" id="ezcGraphLine_85"/><path d=" M 300.0000,374.4062 L 345.7143,370.5093" style="fill: none; stroke: #cc0000; stroke-width: 1; stroke-opacity: 1.00; stroke-linecap: round; stroke-linejoin: round;" id="ezcGraphLine_87"/><path d=" M 345.7143,370.5093 L 391.4286,365.8330" style="fill: none; stroke: #cc0000; stroke-width: 1; stroke-opacity: 1.00; stroke-linecap: round; stroke-linejoin: round;" id="ezcGraphLine_89"/><path d=" M 391.4286,365.8330 L 437.1429,370.5093" style="fill: none; stroke: #cc0000; stroke-width: 1; stroke-opacity: 1.00; stroke-linecap: round; stroke-linejoin: round;" id="ezcGraphLine_91"/><path d=" M 208.5714,381.4206 L 208.5714,381.4206" style="fill: none; stroke: #edd400; stroke-width: 1; stroke-opacity: 1.00; stroke-linecap: round; stroke-linejoin: round;" id="ezcGraphLine_93"/><path d=" M 208.5714,381.4206 L 437.1429,381.4206" style="fill: none; stroke: #edd400; stroke-width: 1; stroke-opacity: 1.00; stroke-linecap: round; stroke-linejoin: round;" id="ezcGraphLine_95"/><path d=" M 162.8571,380.6412 L 162.8571,380.6412" style="fill: none; stroke: #75505b; stroke-width: 1; stroke-opacity: 1.00; stroke-linecap: round; stroke-linejoin: round;" id="ezcGraphLine_97"/><path d=" M 162.8571,380.6412 L 208.5714,381.4206" style="fill: none; stroke: #75505b; stroke-width: 1; stroke-opacity: 1.00; stroke-linecap: round; stroke-linejoin: round;" id="ezcGraphLine_99"/><path d=" M 208.5714,381.4206 L 254.2857,381.4206" style="fill: none; stroke: #75505b; stroke-width: 1; stroke-opacity: 1.00; stroke-linecap: round; stroke-linejoin: round;" id="ezcGraphLine_101"/><path d=" M 254.2857,381.4206 L 345.7143,381.4206" style="fill: none; stroke: #75505b; stroke-width: 1; stroke-opacity: 1.00; stroke-linecap: round; stroke-linejoin: round;" id="ezcGraphLine_103"/><path d=" M 345.7143,381.4206 L 391.4286,381.4206" style="fill: none; stroke: #75505b; stroke-width: 1; stroke-opacity: 1.00; stroke-linecap: round; stroke-linejoin: round;" id="ezcGraphLine_105"/><path d=" M 391.4286,381.4206 L 437.1429,381.4206" style="fill: none; stroke: #75505b; stroke-width: 1; stroke-opacity: 1.00; stroke-linecap: round; stroke-linejoin: round;" id="ezcGraphLine_107"/><path d=" M 162.8571,381.4206 L 162.8571,381.4206" style="fill: none; stroke: #f57900; stroke-width: 1; stroke-opacity: 1.00; stroke-linecap: round; stroke-linejoin: round;" id="ezcGraphLine_109"/><path d=" M 162.8571,381.4206 L 208.5714,376.7443" style="fill: none; stroke: #f57900; stroke-width: 1; stroke-opacity: 1.00; stroke-linecap: round; stroke-linejoin: round;" id="ezcGraphLine_111"/><path d=" M 208.5714,376.7443 L 254.2857,379.8619" style="fill: none; stroke: #f57900; stroke-width: 1; stroke-opacity: 1.00; stroke-linecap: round; stroke-linejoin: round;" id="ezcGraphLine_113"/><path d=" M 254.2857,379.8619 L 300.0000,380.6412" style="fill: none; stroke: #f57900; stroke-width: 1; stroke-opacity: 1.00; stroke-linecap: round; stroke-linejoin: round;" id="ezcGraphLine_115"/><path d=" M 300.0000,380.6412 L 345.7143,381.4206" style="fill: none; stroke: #f57900; stroke-width: 1; stroke-opacity: 1.00; stroke-linecap: round; stroke-linejoin: round;" id="ezcGraphLine_117"/><path d=" M 345.7143,381.4206 L 391.4286,381.4206" style="fill: none; stroke: #f57900; stroke-width: 1; stroke-opacity: 1.00; stroke-linecap: round; stroke-linejoin: round;" id="ezcGraphLine_119"/><path d=" M 159.8571,147.4887 L 159.8571,141.4887 L 165.8571,141.4887 L 165.8571,147.4887 L 159.8571,147.4887 z " style="fill: #3465a4; fill-opacity: 1.00; stroke: none; cursor: pointer;" id="ezcGraphPolygon_121" onclick="top.location = 'https://linux-hardware.org/?view=computers&amp;type=notebook&amp;f=drive_size&amp;v=0.5&amp;p=-1&amp;p=90'"/><path d=" M 205.5714,153.7237 L 205.5714,147.7237 L 211.5714,147.7237 L 211.5714,153.7237 L 205.5714,153.7237 z " style="fill: #3465a4; fill-opacity: 1.00; stroke: none; cursor: pointer;" id="ezcGraphPolygon_122" onclick="top.location = 'https://linux-hardware.org/?view=computers&amp;type=notebook&amp;f=drive_size&amp;v=0.5&amp;p=-1&amp;p=91'"/><path d=" M 251.2857,104.6227 L 251.2857,98.6227 L 257.2857,98.6227 L 257.2857,104.6227 L 251.2857,104.6227 z " style="fill: #3465a4; fill-opacity: 1.00; stroke: none; cursor: pointer;" id="ezcGraphPolygon_123" onclick="top.location = 'https://linux-hardware.org/?view=computers&amp;type=notebook&amp;f=drive_size&amp;v=0.5&amp;p=-1&amp;p=92'"/><path d=" M 297.0000,122.5485 L 297.0000,116.5485 L 303.0000,116.5485 L 303.0000,122.5485 L 297.0000,122.5485 z " style="fill: #3465a4; fill-opacity: 1.00; stroke: none; cursor: pointer;" id="ezcGraphPolygon_124" onclick="top.location = 'https://linux-hardware.org/?view=computers&amp;type=notebook&amp;f=drive_size&amp;v=0.5&amp;p=-1&amp;p=93'"/><path d=" M 342.7143,82.8000 L 342.7143,76.8000 L 348.7143,76.8000 L 348.7143,82.8000 L 342.7143,82.8000 z " style="fill: #3465a4; fill-opacity: 1.00; stroke: none; cursor: pointer;" id="ezcGraphPolygon_125" onclick="top.location = 'https://linux-hardware.org/?view=computers&amp;type=notebook&amp;f=drive_size&amp;v=0.5&amp;p=-1&amp;p=94'"/><path d=" M 388.4286,105.4021 L 388.4286,99.4021 L 394.4286,99.4021 L 394.4286,105.4021 L 388.4286,105.4021 z " style="fill: #3465a4; fill-opacity: 1.00; stroke: none; cursor: pointer;" id="ezcGraphPolygon_126" onclick="top.location = 'https://linux-hardware.org/?view=computers&amp;type=notebook&amp;f=drive_size&amp;v=0.5&amp;p=-1&amp;p=95'"/><path d=" M 434.1429,106.9608 L 434.1429,100.9608 L 440.1429,100.9608 L 440.1429,106.9608 L 434.1429,106.9608 z " style="fill: #3465a4; fill-opacity: 1.00; stroke: none; cursor: pointer;" id="ezcGraphPolygon_127" onclick="top.location = 'https://linux-hardware.org/?view=computers&amp;type=notebook&amp;f=drive_size&amp;v=0.5&amp;p=-1&amp;p=96'"/><path d=" M 159.8571,272.1897 L 159.8571,266.1897 L 165.8571,266.1897 L 165.8571,272.1897 L 159.8571,272.1897 z " style="fill: #4e9a06; fill-opacity: 1.00; stroke: none; cursor: pointer;" id="ezcGraphPolygon_128" onclick="top.location = 'https://linux-hardware.org/?view=computers&amp;type=notebook&amp;f=drive_size&amp;v=1.0&amp;p=-1&amp;p=90'"/><path d=" M 205.5714,251.9258 L 205.5714,245.9258 L 211.5714,245.9258 L 211.5714,251.9258 L 205.5714,251.9258 z " style="fill: #4e9a06; fill-opacity: 1.00; stroke: none; cursor: pointer;" id="ezcGraphPolygon_129" onclick="top.location = 'https://linux-hardware.org/?view=computers&amp;type=notebook&amp;f=drive_size&amp;v=1.0&amp;p=-1&amp;p=91'"/><path d=" M 251.2857,244.9113 L 251.2857,238.9113 L 257.2857,238.9113 L 257.2857,244.9113 L 251.2857,244.9113 z " style="fill: #4e9a06; fill-opacity: 1.00; stroke: none; cursor: pointer;" id="ezcGraphPolygon_130" onclick="top.location = 'https://linux-hardware.org/?view=computers&amp;type=notebook&amp;f=drive_size&amp;v=1.0&amp;p=-1&amp;p=92'"/><path d=" M 297.0000,260.4990 L 297.0000,254.4990 L 303.0000,254.4990 L 303.0000,260.4990 L 297.0000,260.4990 z " style="fill: #4e9a06; fill-opacity: 1.00; stroke: none; cursor: pointer;" id="ezcGraphPolygon_131" onclick="top.location = 'https://linux-hardware.org/?view=computers&amp;type=notebook&amp;f=drive_size&amp;v=1.0&amp;p=-1&amp;p=93'"/><path d=" M 342.7143,243.3526 L 342.7143,237.3526 L 348.7143,237.3526 L 348.7143,243.3526 L 342.7143,243.3526 z " style="fill: #4e9a06; fill-opacity: 1.00; stroke: none; cursor: pointer;" id="ezcGraphPolygon_132" onclick="top.location = 'https://linux-hardware.org/?view=computers&amp;type=notebook&amp;f=drive_size&amp;v=1.0&amp;p=-1&amp;p=94'"/><path d=" M 388.4286,250.3670 L 388.4286,244.3670 L 394.4286,244.3670 L 394.4286,250.3670 L 388.4286,250.3670 z " style="fill: #4e9a06; fill-opacity: 1.00; stroke: none; cursor: pointer;" id="ezcGraphPolygon_133" onclick="top.location = 'https://linux-hardware.org/?view=computers&amp;type=notebook&amp;f=drive_size&amp;v=1.0&amp;p=-1&amp;p=95'"/><path d=" M 434.1429,269.0722 L 434.1429,263.0722 L 440.1429,263.0722 L 440.1429,269.0722 L 434.1429,269.0722 z " style="fill: #4e9a06; fill-opacity: 1.00; stroke: none; cursor: pointer;" id="ezcGraphPolygon_134" onclick="top.location = 'https://linux-hardware.org/?view=computers&amp;type=notebook&amp;f=drive_size&amp;v=1.0&amp;p=-1&amp;p=96'"/><path d=" M 159.8571,375.8474 L 159.8571,369.8474 L 165.8571,369.8474 L 165.8571,375.8474 L 159.8571,375.8474 z " style="fill: #cc0000; fill-opacity: 1.00; stroke: none; cursor: pointer;" id="ezcGraphPolygon_135" onclick="top.location = 'https://linux-hardware.org/?view=computers&amp;type=notebook&amp;f=drive_size&amp;v=2.0&amp;p=-1&amp;p=90'"/><path d=" M 205.5714,377.4062 L 205.5714,371.4062 L 211.5714,371.4062 L 211.5714,377.4062 L 205.5714,377.4062 z " style="fill: #cc0000; fill-opacity: 1.00; stroke: none; cursor: pointer;" id="ezcGraphPolygon_136" onclick="top.location = 'https://linux-hardware.org/?view=computers&amp;type=notebook&amp;f=drive_size&amp;v=2.0&amp;p=-1&amp;p=91'"/><path d=" M 251.2857,375.8474 L 251.2857,369.8474 L 257.2857,369.8474 L 257.2857,375.8474 L 251.2857,375.8474 z " style="fill: #cc0000; fill-opacity: 1.00; stroke: none; cursor: pointer;" id="ezcGraphPolygon_137" onclick="top.location = 'https://linux-hardware.org/?view=computers&amp;type=notebook&amp;f=drive_size&amp;v=2.0&amp;p=-1&amp;p=92'"/><path d=" M 297.0000,377.4062 L 297.0000,371.4062 L 303.0000,371.4062 L 303.0000,377.4062 L 297.0000,377.4062 z " style="fill: #cc0000; fill-opacity: 1.00; stroke: none; cursor: pointer;" id="ezcGraphPolygon_138" onclick="top.location = 'https://linux-hardware.org/?view=computers&amp;type=notebook&amp;f=drive_size&amp;v=2.0&amp;p=-1&amp;p=93'"/><path d=" M 342.7143,373.5093 L 342.7143,367.5093 L 348.7143,367.5093 L 348.7143,373.5093 L 342.7143,373.5093 z " style="fill: #cc0000; fill-opacity: 1.00; stroke: none; cursor: pointer;" id="ezcGraphPolygon_139" onclick="top.location = 'https://linux-hardware.org/?view=computers&amp;type=notebook&amp;f=drive_size&amp;v=2.0&amp;p=-1&amp;p=94'"/><path d=" M 388.4286,368.8330 L 388.4286,362.8330 L 394.4286,362.8330 L 394.4286,368.8330 L 388.4286,368.8330 z " style="fill: #cc0000; fill-opacity: 1.00; stroke: none; cursor: pointer;" id="ezcGraphPolygon_140" onclick="top.location = 'https://linux-hardware.org/?view=computers&amp;type=notebook&amp;f=drive_size&amp;v=2.0&amp;p=-1&amp;p=95'"/><path d=" M 434.1429,373.5093 L 434.1429,367.5093 L 440.1429,367.5093 L 440.1429,373.5093 L 434.1429,373.5093 z " style="fill: #cc0000; fill-opacity: 1.00; stroke: none; cursor: pointer;" id="ezcGraphPolygon_141" onclick="top.location = 'https://linux-hardware.org/?view=computers&amp;type=notebook&amp;f=drive_size&amp;v=2.0&amp;p=-1&amp;p=96'"/><path d=" M 205.5714,384.4206 L 205.5714,378.4206 L 211.5714,378.4206 L 211.5714,384.4206 L 205.5714,384.4206 z " style="fill: #edd400; fill-opacity: 1.00; stroke: none; cursor: pointer;" id="ezcGraphPolygon_142" onclick="top.location = 'https://linux-hardware.org/?view=computers&amp;type=notebook&amp;f=drive_size&amp;v=3.0&amp;p=-1&amp;p=91'"/><path d=" M 434.1429,384.4206 L 434.1429,378.4206 L 440.1429,378.4206 L 440.1429,384.4206 L 434.1429,384.4206 z " style="fill: #edd400; fill-opacity: 1.00; stroke: none; cursor: pointer;" id="ezcGraphPolygon_143" onclick="top.location = 'https://linux-hardware.org/?view=computers&amp;type=notebook&amp;f=drive_size&amp;v=3.0&amp;p=-1&amp;p=96'"/><path d=" M 159.8571,383.6412 L 159.8571,377.6412 L 165.8571,377.6412 L 165.8571,383.6412 L 159.8571,383.6412 z " style="fill: #75505b; fill-opacity: 1.00; stroke: none; cursor: pointer;" id="ezcGraphPolygon_144" onclick="top.location = 'https://linux-hardware.org/?view=computers&amp;type=notebook&amp;f=drive_size&amp;v=10.0&amp;p=-1&amp;p=90'"/><path d=" M 205.5714,384.4206 L 205.5714,378.4206 L 211.5714,378.4206 L 211.5714,384.4206 L 205.5714,384.4206 z " style="fill: #75505b; fill-opacity: 1.00; stroke: none; cursor: pointer;" id="ezcGraphPolygon_145" onclick="top.location = 'https://linux-hardware.org/?view=computers&amp;type=notebook&amp;f=drive_size&amp;v=10.0&amp;p=-1&amp;p=91'"/><path d=" M 251.2857,384.4206 L 251.2857,378.4206 L 257.2857,378.4206 L 257.2857,384.4206 L 251.2857,384.4206 z " style="fill: #75505b; fill-opacity: 1.00; stroke: none; cursor: pointer;" id="ezcGraphPolygon_146" onclick="top.location = 'https://linux-hardware.org/?view=computers&amp;type=notebook&amp;f=drive_size&amp;v=10.0&amp;p=-1&amp;p=92'"/><path d=" M 342.7143,384.4206 L 342.7143,378.4206 L 348.7143,378.4206 L 348.7143,384.4206 L 342.7143,384.4206 z " style="fill: #75505b; fill-opacity: 1.00; stroke: none; cursor: pointer;" id="ezcGraphPolygon_147" onclick="top.location = 'https://linux-hardware.org/?view=computers&amp;type=notebook&amp;f=drive_size&amp;v=10.0&amp;p=-1&amp;p=94'"/><path d=" M 388.4286,384.4206 L 388.4286,378.4206 L 394.4286,378.4206 L 394.4286,384.4206 L 388.4286,384.4206 z " style="fill: #75505b; fill-opacity: 1.00; stroke: none; cursor: pointer;" id="ezcGraphPolygon_148" onclick="top.location = 'https://linux-hardware.org/?view=computers&amp;type=notebook&amp;f=drive_size&amp;v=10.0&amp;p=-1&amp;p=95'"/><path d=" M 434.1429,384.4206 L 434.1429,378.4206 L 440.1429,378.4206 L 440.1429,384.4206 L 434.1429,384.4206 z " style="fill: #75505b; fill-opacity: 1.00; stroke: none; cursor: pointer;" id="ezcGraphPolygon_149" onclick="top.location = 'https://linux-hardware.org/?view=computers&amp;type=notebook&amp;f=drive_size&amp;v=10.0&amp;p=-1&amp;p=96'"/><path d=" M 159.8571,384.4206 L 159.8571,378.4206 L 165.8571,378.4206 L 165.8571,384.4206 L 159.8571,384.4206 z " style="fill: #f57900; fill-opacity: 1.00; stroke: none;" id="ezcGraphPolygon_150"/><path d=" M 205.5714,379.7443 L 205.5714,373.7443 L 211.5714,373.7443 L 211.5714,379.7443 L 205.5714,379.7443 z " style="fill: #f57900; fill-opacity: 1.00; stroke: none;" id="ezcGraphPolygon_151"/><path d=" M 251.2857,382.8619 L 251.2857,376.8619 L 257.2857,376.8619 L 257.2857,382.8619 L 251.2857,382.8619 z " style="fill: #f57900; fill-opacity: 1.00; stroke: none;" id="ezcGraphPolygon_152"/><path d=" M 297.0000,383.6412 L 297.0000,377.6412 L 303.0000,377.6412 L 303.0000,383.6412 L 297.0000,383.6412 z " style="fill: #f57900; fill-opacity: 1.00; stroke: none;" id="ezcGraphPolygon_153"/><path d=" M 342.7143,384.4206 L 342.7143,378.4206 L 348.7143,378.4206 L 348.7143,384.4206 L 342.7143,384.4206 z " style="fill: #f57900; fill-opacity: 1.00; stroke: none;" id="ezcGraphPolygon_154"/><path d=" M 388.4286,384.4206 L 388.4286,378.4206 L 394.4286,378.4206 L 394.4286,384.4206 L 388.4286,384.4206 z " style="fill: #f57900; fill-opacity: 1.00; stroke: none;" id="ezcGraphPolygon_155"/><g id="ezcGraphTextBox_3"><path d=" M 143.5000,42.0000 L 143.5000,0.5000 L 357.0000,0.5000 L 357.0000,42.0000 L 143.5000,42.0000 z " style="fill: #ffffff; fill-opacity: 0.00; stroke: none;" id="ezcGraphPolygon_156"/><text id="ezcGraphTextBox_3_text" x="144.0000" text-length="212.0000px" y="35.0000" style="font-size: 40px; font-family: 'Arial'; fill: #2e3436; fill-opacity: 1.00; stroke: none;">Drive Size</text></g><g id="ezcGraphTextBox_6" style=" cursor: pointer;" onclick="top.location = 'https://linux-hardware.org/?view=computers&amp;type=notebook&amp;f=drive_size&amp;v=0.5&amp;p=-1'"><path d=" M 16.5000,58.0000 L 16.5000,44.5000 L 87.9600,44.5000 L 87.9600,58.0000 L 16.5000,58.0000 z " style="fill: #ffffff; fill-opacity: 0.00; stroke: none;" id="ezcGraphPolygon_157"/><text id="ezcGraphTextBox_6_text" x="17.0000" text-length="69.9600px" y="55.2000" style="font-size: 12px; font-family: 'Arial'; fill: #2e3436; fill-opacity: 1.00; stroke: none;">0.01-0.5 TB</text></g><g id="ezcGraphTextBox_8" style=" cursor: pointer;" onclick="top.location = 'https://linux-hardware.org/?view=computers&amp;type=notebook&amp;f=drive_size&amp;v=1.0&amp;p=-1'"><path d=" M 16.5000,76.0000 L 16.5000,62.5000 L 87.9600,62.5000 L 87.9600,76.0000 L 16.5000,76.0000 z " style="fill: #ffffff; fill-opacity: 0.00; stroke: none;" id="ezcGraphPolygon_158"/><text id="ezcGraphTextBox_8_text" x="17.0000" text-length="69.9600px" y="73.2000" style="font-size: 12px; font-family: 'Arial'; fill: #2e3436; fill-opacity: 1.00; stroke: none;">0.51-1.0 TB</text></g><g id="ezcGraphTextBox_10" style=" cursor: pointer;" onclick="top.location = 'https://linux-hardware.org/?view=computers&amp;type=notebook&amp;f=drive_size&amp;v=2.0&amp;p=-1'"><path d=" M 16.5000,94.0000 L 16.5000,80.5000 L 87.9600,80.5000 L 87.9600,94.0000 L 16.5000,94.0000 z " style="fill: #ffffff; fill-opacity: 0.00; stroke: none;" id="ezcGraphPolygon_159"/><text id="ezcGraphTextBox_10_text" x="17.0000" text-length="69.9600px" y="91.2000" style="font-size: 12px; font-family: 'Arial'; fill: #2e3436; fill-opacity: 1.00; stroke: none;">1.01-2.0 TB</text></g><g id="ezcGraphTextBox_12" style=" cursor: pointer;" onclick="top.location = 'https://linux-hardware.org/?view=computers&amp;type=notebook&amp;f=drive_size&amp;v=3.0&amp;p=-1'"><path d=" M 16.5000,112.0000 L 16.5000,98.5000 L 87.9600,98.5000 L 87.9600,112.0000 L 16.5000,112.0000 z " style="fill: #ffffff; fill-opacity: 0.00; stroke: none;" id="ezcGraphPolygon_160"/><text id="ezcGraphTextBox_12_text" x="17.0000" text-length="69.9600px" y="109.2000" style="font-size: 12px; font-family: 'Arial'; fill: #2e3436; fill-opacity: 1.00; stroke: none;">2.01-3.0 TB</text></g><g id="ezcGraphTextBox_14" style=" cursor: pointer;" onclick="top.location = 'https://linux-hardware.org/?view=computers&amp;type=notebook&amp;f=drive_size&amp;v=10.0&amp;p=-1'"><path d=" M 16.5000,130.0000 L 16.5000,116.5000 L 94.3200,116.5000 L 94.3200,130.0000 L 16.5000,130.0000 z " style="fill: #ffffff; fill-opacity: 0.00; stroke: none;" id="ezcGraphPolygon_161"/><text id="ezcGraphTextBox_14_text" x="17.0000" text-length="76.3200px" y="127.2000" style="font-size: 12px; font-family: 'Arial'; fill: #2e3436; fill-opacity: 1.00; stroke: none;">4.01-10.0 TB</text></g><g id="ezcGraphTextBox_16"><path d=" M 16.5000,148.0000 L 16.5000,134.5000 L 56.1600,134.5000 L 56.1600,148.0000 L 16.5000,148.0000 z " style="fill: #ffffff; fill-opacity: 0.00; stroke: none;" id="ezcGraphPolygon_162"/><text id="ezcGraphTextBox_16_text" x="17.0000" text-length="38.1600px" y="145.2000" style="font-size: 12px; font-family: 'Arial'; fill: #2e3436; fill-opacity: 1.00; stroke: none;">Others</text></g><g id="ezcGraphTextBox_19" transform="rotate( 0.00 493.0000 375.2000 )"><path d=" M 460.4000,381.2000 L 460.4000,365.7000 L 499.0000,365.7000 L 499.0000,381.2000 L 460.4000,381.2000 z " style="fill: #ffffff; fill-opacity: 0.00; stroke: none;" id="ezcGraphPolygon_163"/><text id="ezcGraphTextBox_19_text" x="460.9000" text-length="37.1000px" y="378.1000" style="font-size: 14px; font-family: 'Arial'; fill: #2e3436; fill-opacity: 1.00; stroke: none;">Time </text></g><g id="ezcGraphTextBox_20"><path d=" M 144.9971,413.3000 L 144.9971,383.7000 L 181.2171,383.7000 L 181.2171,413.3000 L 144.9971,413.3000 z " style="fill: #ffffff; fill-opacity: 0.00; stroke: none;" id="ezcGraphPolygon_164"/><text id="ezcGraphTextBox_20_text" x="151.7271" text-length="22.2600px" y="396.1000" style="font-size: 14px; font-family: 'Arial'; fill: #2e3436; fill-opacity: 1.00; stroke: none;">Jun</text><text id="ezcGraphTextBox_20_text" x="145.4971" text-length="34.7200px" y="411.5000" style="font-size: 14px; font-family: 'Arial'; fill: #2e3436; fill-opacity: 1.00; stroke: none;">2021</text></g><g id="ezcGraphTextBox_23"><path d=" M 190.7114,413.3000 L 190.7114,383.7000 L 226.9314,383.7000 L 226.9314,413.3000 L 190.7114,413.3000 z " style="fill: #ffffff; fill-opacity: 0.00; stroke: none;" id="ezcGraphPolygon_165"/><text id="ezcGraphTextBox_23_text" x="197.4414" text-length="22.2600px" y="396.1000" style="font-size: 14px; font-family: 'Arial'; fill: #2e3436; fill-opacity: 1.00; stroke: none;">Jul</text><text id="ezcGraphTextBox_23_text" x="191.2114" text-length="34.7200px" y="411.5000" style="font-size: 14px; font-family: 'Arial'; fill: #2e3436; fill-opacity: 1.00; stroke: none;">2021</text></g><g id="ezcGraphTextBox_26"><path d=" M 236.4257,413.3000 L 236.4257,383.7000 L 272.6457,383.7000 L 272.6457,413.3000 L 236.4257,413.3000 z " style="fill: #ffffff; fill-opacity: 0.00; stroke: none;" id="ezcGraphPolygon_166"/><text id="ezcGraphTextBox_26_text" x="243.1557" text-length="22.2600px" y="396.1000" style="font-size: 14px; font-family: 'Arial'; fill: #2e3436; fill-opacity: 1.00; stroke: none;">Aug</text><text id="ezcGraphTextBox_26_text" x="236.9257" text-length="34.7200px" y="411.5000" style="font-size: 14px; font-family: 'Arial'; fill: #2e3436; fill-opacity: 1.00; stroke: none;">2021</text></g><g id="ezcGraphTextBox_29"><path d=" M 282.1400,413.3000 L 282.1400,383.7000 L 318.3600,383.7000 L 318.3600,413.3000 L 282.1400,413.3000 z " style="fill: #ffffff; fill-opacity: 0.00; stroke: none;" id="ezcGraphPolygon_167"/><text id="ezcGraphTextBox_29_text" x="288.8700" text-length="22.2600px" y="396.1000" style="font-size: 14px; font-family: 'Arial'; fill: #2e3436; fill-opacity: 1.00; stroke: none;">Sep</text><text id="ezcGraphTextBox_29_text" x="282.6400" text-length="34.7200px" y="411.5000" style="font-size: 14px; font-family: 'Arial'; fill: #2e3436; fill-opacity: 1.00; stroke: none;">2021</text></g><g id="ezcGraphTextBox_32"><path d=" M 327.8543,413.3000 L 327.8543,383.7000 L 364.0743,383.7000 L 364.0743,413.3000 L 327.8543,413.3000 z " style="fill: #ffffff; fill-opacity: 0.00; stroke: none;" id="ezcGraphPolygon_168"/><text id="ezcGraphTextBox_32_text" x="334.5843" text-length="22.2600px" y="396.1000" style="font-size: 14px; font-family: 'Arial'; fill: #2e3436; fill-opacity: 1.00; stroke: none;">Oct</text><text id="ezcGraphTextBox_32_text" x="328.3543" text-length="34.7200px" y="411.5000" style="font-size: 14px; font-family: 'Arial'; fill: #2e3436; fill-opacity: 1.00; stroke: none;">2021</text></g><g id="ezcGraphTextBox_35"><path d=" M 373.5686,413.3000 L 373.5686,383.7000 L 409.7886,383.7000 L 409.7886,413.3000 L 373.5686,413.3000 z " style="fill: #ffffff; fill-opacity: 0.00; stroke: none;" id="ezcGraphPolygon_169"/><text id="ezcGraphTextBox_35_text" x="380.2986" text-length="22.2600px" y="396.1000" style="font-size: 14px; font-family: 'Arial'; fill: #2e3436; fill-opacity: 1.00; stroke: none;">Nov</text><text id="ezcGraphTextBox_35_text" x="374.0686" text-length="34.7200px" y="411.5000" style="font-size: 14px; font-family: 'Arial'; fill: #2e3436; fill-opacity: 1.00; stroke: none;">2021</text></g><g id="ezcGraphTextBox_38"><path d=" M 419.2829,413.3000 L 419.2829,383.7000 L 455.5029,383.7000 L 455.5029,413.3000 L 419.2829,413.3000 z " style="fill: #ffffff; fill-opacity: 0.00; stroke: none;" id="ezcGraphPolygon_170"/><text id="ezcGraphTextBox_38_text" x="426.0129" text-length="22.2600px" y="396.1000" style="font-size: 14px; font-family: 'Arial'; fill: #2e3436; fill-opacity: 1.00; stroke: none;">Dec</text><text id="ezcGraphTextBox_38_text" x="419.7829" text-length="34.7200px" y="411.5000" style="font-size: 14px; font-family: 'Arial'; fill: #2e3436; fill-opacity: 1.00; stroke: none;">2021</text></g><g id="ezcGraphTextBox_43" transform="rotate( 0.00 147.0000 49.0000 )"><path d=" M 141.5000,59.0000 L 141.5000,43.5000 L 328.5000,43.5000 L 328.5000,59.0000 L 141.5000,59.0000 z " style="fill: #ffffff; fill-opacity: 0.00; stroke: none;" id="ezcGraphPolygon_171"/><text id="ezcGraphTextBox_43_text" x="142.0000" text-length="185.5000px" y="55.9000" style="font-size: 14px; font-family: 'Arial'; fill: #2e3436; fill-opacity: 1.00; stroke: none;">Notebooks by "Drive Size"</text></g><g id="ezcGraphTextBox_44"><path d=" M 128.8200,381.2000 L 128.8200,365.7000 L 139.0000,365.7000 L 139.0000,381.2000 L 128.8200,381.2000 z " style="fill: #ffffff; fill-opacity: 0.00; stroke: none;" id="ezcGraphPolygon_172"/><text id="ezcGraphTextBox_44_text" x="129.3200" text-length="8.6800px" y="378.1000" style="font-size: 14px; font-family: 'Arial'; fill: #2e3436; fill-opacity: 1.00; stroke: none;">0</text></g><g id="ezcGraphTextBox_47"><path d=" M 111.4600,230.0000 L 111.4600,214.5000 L 139.0000,214.5000 L 139.0000,230.0000 L 111.4600,230.0000 z " style="fill: #ffffff; fill-opacity: 0.00; stroke: none;" id="ezcGraphPolygon_173"/><text id="ezcGraphTextBox_47_text" x="111.9600" text-length="26.0400px" y="226.9000" style="font-size: 14px; font-family: 'Arial'; fill: #2e3436; fill-opacity: 1.00; stroke: none;">194</text></g><g id="ezcGraphTextBox_50"><path d=" M 111.4600,96.8000 L 111.4600,81.3000 L 139.0000,81.3000 L 139.0000,96.8000 L 111.4600,96.8000 z " style="fill: #ffffff; fill-opacity: 0.00; stroke: none;" id="ezcGraphPolygon_174"/><text id="ezcGraphTextBox_50_text" x="111.9600" text-length="26.0400px" y="93.7000" style="font-size: 14px; font-family: 'Arial'; fill: #2e3436; fill-opacity: 1.00; stroke: none;">388</text></g><g id="ezcGraphTextBox_52"><path d=" M 153.0571,139.4887 L 153.0571,127.9887 L 173.1571,127.9887 L 173.1571,139.4887 L 153.0571,139.4887 z " style="fill: #ffffff; fill-opacity: 0.00; stroke: none;" id="ezcGraphPolygon_175"/><text id="ezcGraphTextBox_52_text" x="153.5571" text-length="18.6000px" y="136.9887" style="font-size: 10px; font-family: 'Arial'; fill: #2e3436; fill-opacity: 1.00; stroke: none;">305</text></g><g id="ezcGraphTextBox_54"><path d=" M 198.7714,145.7237 L 198.7714,134.2237 L 218.8714,134.2237 L 218.8714,145.7237 L 198.7714,145.7237 z " style="fill: #ffffff; fill-opacity: 0.00; stroke: none;" id="ezcGraphPolygon_176"/><text id="ezcGraphTextBox_54_text" x="199.2714" text-length="18.6000px" y="143.2237" style="font-size: 10px; font-family: 'Arial'; fill: #2e3436; fill-opacity: 1.00; stroke: none;">297</text></g><g id="ezcGraphTextBox_56"><path d=" M 244.4857,96.6227 L 244.4857,85.1227 L 264.5857,85.1227 L 264.5857,96.6227 L 244.4857,96.6227 z " style="fill: #ffffff; fill-opacity: 0.00; stroke: none;" id="ezcGraphPolygon_177"/><text id="ezcGraphTextBox_56_text" x="244.9857" text-length="18.6000px" y="94.1227" style="font-size: 10px; font-family: 'Arial'; fill: #2e3436; fill-opacity: 1.00; stroke: none;">360</text></g><g id="ezcGraphTextBox_58"><path d=" M 290.2000,114.5485 L 290.2000,103.0485 L 310.3000,103.0485 L 310.3000,114.5485 L 290.2000,114.5485 z " style="fill: #ffffff; fill-opacity: 0.00; stroke: none;" id="ezcGraphPolygon_178"/><text id="ezcGraphTextBox_58_text" x="290.7000" text-length="18.6000px" y="112.0485" style="font-size: 10px; font-family: 'Arial'; fill: #2e3436; fill-opacity: 1.00; stroke: none;">337</text></g><g id="ezcGraphTextBox_60"><path d=" M 335.9143,74.8000 L 335.9143,63.3000 L 356.0143,63.3000 L 356.0143,74.8000 L 335.9143,74.8000 z " style="fill: #ffffff; fill-opacity: 0.00; stroke: none;" id="ezcGraphPolygon_179"/><text id="ezcGraphTextBox_60_text" x="336.4143" text-length="18.6000px" y="72.3000" style="font-size: 10px; font-family: 'Arial'; fill: #2e3436; fill-opacity: 1.00; stroke: none;">388</text></g><g id="ezcGraphTextBox_62"><path d=" M 381.6286,97.4021 L 381.6286,85.9021 L 401.7286,85.9021 L 401.7286,97.4021 L 381.6286,97.4021 z " style="fill: #ffffff; fill-opacity: 0.00; stroke: none;" id="ezcGraphPolygon_180"/><text id="ezcGraphTextBox_62_text" x="382.1286" text-length="18.6000px" y="94.9021" style="font-size: 10px; font-family: 'Arial'; fill: #2e3436; fill-opacity: 1.00; stroke: none;">359</text></g><g id="ezcGraphTextBox_64"><path d=" M 427.3429,98.9608 L 427.3429,87.4608 L 447.4429,87.4608 L 447.4429,98.9608 L 427.3429,98.9608 z " style="fill: #ffffff; fill-opacity: 0.00; stroke: none;" id="ezcGraphPolygon_181"/><text id="ezcGraphTextBox_64_text" x="427.8429" text-length="18.6000px" y="96.4608" style="font-size: 10px; font-family: 'Arial'; fill: #2e3436; fill-opacity: 1.00; stroke: none;">357</text></g><g id="ezcGraphTextBox_66"><path d=" M 153.0571,264.1897 L 153.0571,252.6897 L 173.1571,252.6897 L 173.1571,264.1897 L 153.0571,264.1897 z " style="fill: #ffffff; fill-opacity: 0.00; stroke: none;" id="ezcGraphPolygon_182"/><text id="ezcGraphTextBox_66_text" x="153.5571" text-length="18.6000px" y="261.6897" style="font-size: 10px; font-family: 'Arial'; fill: #2e3436; fill-opacity: 1.00; stroke: none;">145</text></g><g id="ezcGraphTextBox_68"><path d=" M 198.7714,243.9258 L 198.7714,232.4258 L 218.8714,232.4258 L 218.8714,243.9258 L 198.7714,243.9258 z " style="fill: #ffffff; fill-opacity: 0.00; stroke: none;" id="ezcGraphPolygon_183"/><text id="ezcGraphTextBox_68_text" x="199.2714" text-length="18.6000px" y="241.4258" style="font-size: 10px; font-family: 'Arial'; fill: #2e3436; fill-opacity: 1.00; stroke: none;">171</text></g><g id="ezcGraphTextBox_70"><path d=" M 244.4857,236.9113 L 244.4857,225.4113 L 264.5857,225.4113 L 264.5857,236.9113 L 244.4857,236.9113 z " style="fill: #ffffff; fill-opacity: 0.00; stroke: none;" id="ezcGraphPolygon_184"/><text id="ezcGraphTextBox_70_text" x="244.9857" text-length="18.6000px" y="234.4113" style="font-size: 10px; font-family: 'Arial'; fill: #2e3436; fill-opacity: 1.00; stroke: none;">180</text></g><g id="ezcGraphTextBox_72"><path d=" M 290.2000,252.4990 L 290.2000,240.9990 L 310.3000,240.9990 L 310.3000,252.4990 L 290.2000,252.4990 z " style="fill: #ffffff; fill-opacity: 0.00; stroke: none;" id="ezcGraphPolygon_185"/><text id="ezcGraphTextBox_72_text" x="290.7000" text-length="18.6000px" y="249.9990" style="font-size: 10px; font-family: 'Arial'; fill: #2e3436; fill-opacity: 1.00; stroke: none;">160</text></g><g id="ezcGraphTextBox_74"><path d=" M 335.9143,235.3526 L 335.9143,223.8526 L 356.0143,223.8526 L 356.0143,235.3526 L 335.9143,235.3526 z " style="fill: #ffffff; fill-opacity: 0.00; stroke: none;" id="ezcGraphPolygon_186"/><text id="ezcGraphTextBox_74_text" x="336.4143" text-length="18.6000px" y="232.8526" style="font-size: 10px; font-family: 'Arial'; fill: #2e3436; fill-opacity: 1.00; stroke: none;">182</text></g><g id="ezcGraphTextBox_76"><path d=" M 381.6286,242.3670 L 381.6286,230.8670 L 401.7286,230.8670 L 401.7286,242.3670 L 381.6286,242.3670 z " style="fill: #ffffff; fill-opacity: 0.00; stroke: none;" id="ezcGraphPolygon_187"/><text id="ezcGraphTextBox_76_text" x="382.1286" text-length="18.6000px" y="239.8670" style="font-size: 10px; font-family: 'Arial'; fill: #2e3436; fill-opacity: 1.00; stroke: none;">173</text></g><g id="ezcGraphTextBox_78"><path d=" M 427.3429,261.0722 L 427.3429,249.5722 L 447.4429,249.5722 L 447.4429,261.0722 L 427.3429,261.0722 z " style="fill: #ffffff; fill-opacity: 0.00; stroke: none;" id="ezcGraphPolygon_188"/><text id="ezcGraphTextBox_78_text" x="427.8429" text-length="18.6000px" y="258.5722" style="font-size: 10px; font-family: 'Arial'; fill: #2e3436; fill-opacity: 1.00; stroke: none;">149</text></g><g id="ezcGraphTextBox_80"><path d=" M 156.1571,367.8474 L 156.1571,356.3474 L 170.0571,356.3474 L 170.0571,367.8474 L 156.1571,367.8474 z " style="fill: #ffffff; fill-opacity: 0.00; stroke: none;" id="ezcGraphPolygon_189"/><text id="ezcGraphTextBox_80_text" x="156.6571" text-length="12.4000px" y="365.3474" style="font-size: 10px; font-family: 'Arial'; fill: #2e3436; fill-opacity: 1.00; stroke: none;">12</text></g><g id="ezcGraphTextBox_82"><path d=" M 201.8714,369.4062 L 201.8714,357.9062 L 215.7714,357.9062 L 215.7714,369.4062 L 201.8714,369.4062 z " style="fill: #ffffff; fill-opacity: 0.00; stroke: none;" id="ezcGraphPolygon_190"/><text id="ezcGraphTextBox_82_text" x="202.3714" text-length="12.4000px" y="366.9062" style="font-size: 10px; font-family: 'Arial'; fill: #2e3436; fill-opacity: 1.00; stroke: none;">10</text></g><g id="ezcGraphTextBox_84"><path d=" M 247.5857,367.8474 L 247.5857,356.3474 L 261.4857,356.3474 L 261.4857,367.8474 L 247.5857,367.8474 z " style="fill: #ffffff; fill-opacity: 0.00; stroke: none;" id="ezcGraphPolygon_191"/><text id="ezcGraphTextBox_84_text" x="248.0857" text-length="12.4000px" y="365.3474" style="font-size: 10px; font-family: 'Arial'; fill: #2e3436; fill-opacity: 1.00; stroke: none;">12</text></g><g id="ezcGraphTextBox_86"><path d=" M 293.3000,369.4062 L 293.3000,357.9062 L 307.2000,357.9062 L 307.2000,369.4062 L 293.3000,369.4062 z " style="fill: #ffffff; fill-opacity: 0.00; stroke: none;" id="ezcGraphPolygon_192"/><text id="ezcGraphTextBox_86_text" x="293.8000" text-length="12.4000px" y="366.9062" style="font-size: 10px; font-family: 'Arial'; fill: #2e3436; fill-opacity: 1.00; stroke: none;">10</text></g><g id="ezcGraphTextBox_88"><path d=" M 339.0143,365.5093 L 339.0143,354.0093 L 352.9143,354.0093 L 352.9143,365.5093 L 339.0143,365.5093 z " style="fill: #ffffff; fill-opacity: 0.00; stroke: none;" id="ezcGraphPolygon_193"/><text id="ezcGraphTextBox_88_text" x="339.5143" text-length="12.4000px" y="363.0093" style="font-size: 10px; font-family: 'Arial'; fill: #2e3436; fill-opacity: 1.00; stroke: none;">15</text></g><g id="ezcGraphTextBox_90"><path d=" M 384.7286,360.8330 L 384.7286,349.3330 L 398.6286,349.3330 L 398.6286,360.8330 L 384.7286,360.8330 z " style="fill: #ffffff; fill-opacity: 0.00; stroke: none;" id="ezcGraphPolygon_194"/><text id="ezcGraphTextBox_90_text" x="385.2286" text-length="12.4000px" y="358.3330" style="font-size: 10px; font-family: 'Arial'; fill: #2e3436; fill-opacity: 1.00; stroke: none;">21</text></g><g id="ezcGraphTextBox_92"><path d=" M 430.4429,365.5093 L 430.4429,354.0093 L 444.3429,354.0093 L 444.3429,365.5093 L 430.4429,365.5093 z " style="fill: #ffffff; fill-opacity: 0.00; stroke: none;" id="ezcGraphPolygon_195"/><text id="ezcGraphTextBox_92_text" x="430.9429" text-length="12.4000px" y="363.0093" style="font-size: 10px; font-family: 'Arial'; fill: #2e3436; fill-opacity: 1.00; stroke: none;">15</text></g><g id="ezcGraphTextBox_94"><path d=" M 204.9714,376.4206 L 204.9714,364.9206 L 212.6714,364.9206 L 212.6714,376.4206 L 204.9714,376.4206 z " style="fill: #ffffff; fill-opacity: 0.00; stroke: none;" id="ezcGraphPolygon_196"/><text id="ezcGraphTextBox_94_text" x="205.4714" text-length="6.2000px" y="373.9206" style="font-size: 10px; font-family: 'Arial'; fill: #2e3436; fill-opacity: 1.00; stroke: none;">1</text></g><g id="ezcGraphTextBox_96"><path d=" M 433.5429,376.4206 L 433.5429,364.9206 L 441.2429,364.9206 L 441.2429,376.4206 L 433.5429,376.4206 z " style="fill: #ffffff; fill-opacity: 0.00; stroke: none;" id="ezcGraphPolygon_197"/><text id="ezcGraphTextBox_96_text" x="434.0429" text-length="6.2000px" y="373.9206" style="font-size: 10px; font-family: 'Arial'; fill: #2e3436; fill-opacity: 1.00; stroke: none;">1</text></g><g id="ezcGraphTextBox_98"><path d=" M 159.2571,375.6412 L 159.2571,364.1412 L 166.9571,364.1412 L 166.9571,375.6412 L 159.2571,375.6412 z " style="fill: #ffffff; fill-opacity: 0.00; stroke: none;" id="ezcGraphPolygon_198"/><text id="ezcGraphTextBox_98_text" x="159.7571" text-length="6.2000px" y="373.1412" style="font-size: 10px; font-family: 'Arial'; fill: #2e3436; fill-opacity: 1.00; stroke: none;">2</text></g><g id="ezcGraphTextBox_100"><path d=" M 204.9714,376.4206 L 204.9714,364.9206 L 212.6714,364.9206 L 212.6714,376.4206 L 204.9714,376.4206 z " style="fill: #ffffff; fill-opacity: 0.00; stroke: none;" id="ezcGraphPolygon_199"/><text id="ezcGraphTextBox_100_text" x="205.4714" text-length="6.2000px" y="373.9206" style="font-size: 10px; font-family: 'Arial'; fill: #2e3436; fill-opacity: 1.00; stroke: none;">1</text></g><g id="ezcGraphTextBox_102"><path d=" M 250.6857,376.4206 L 250.6857,364.9206 L 258.3857,364.9206 L 258.3857,376.4206 L 250.6857,376.4206 z " style="fill: #ffffff; fill-opacity: 0.00; stroke: none;" id="ezcGraphPolygon_200"/><text id="ezcGraphTextBox_102_text" x="251.1857" text-length="6.2000px" y="373.9206" style="font-size: 10px; font-family: 'Arial'; fill: #2e3436; fill-opacity: 1.00; stroke: none;">1</text></g><g id="ezcGraphTextBox_104"><path d=" M 342.1143,376.4206 L 342.1143,364.9206 L 349.8143,364.9206 L 349.8143,376.4206 L 342.1143,376.4206 z " style="fill: #ffffff; fill-opacity: 0.00; stroke: none;" id="ezcGraphPolygon_201"/><text id="ezcGraphTextBox_104_text" x="342.6143" text-length="6.2000px" y="373.9206" style="font-size: 10px; font-family: 'Arial'; fill: #2e3436; fill-opacity: 1.00; stroke: none;">1</text></g><g id="ezcGraphTextBox_106"><path d=" M 387.8286,376.4206 L 387.8286,364.9206 L 395.5286,364.9206 L 395.5286,376.4206 L 387.8286,376.4206 z " style="fill: #ffffff; fill-opacity: 0.00; stroke: none;" id="ezcGraphPolygon_202"/><text id="ezcGraphTextBox_106_text" x="388.3286" text-length="6.2000px" y="373.9206" style="font-size: 10px; font-family: 'Arial'; fill: #2e3436; fill-opacity: 1.00; stroke: none;">1</text></g><g id="ezcGraphTextBox_108"><path d=" M 433.5429,376.4206 L 433.5429,364.9206 L 441.2429,364.9206 L 441.2429,376.4206 L 433.5429,376.4206 z " style="fill: #ffffff; fill-opacity: 0.00; stroke: none;" id="ezcGraphPolygon_203"/><text id="ezcGraphTextBox_108_text" x="434.0429" text-length="6.2000px" y="373.9206" style="font-size: 10px; font-family: 'Arial'; fill: #2e3436; fill-opacity: 1.00; stroke: none;">1</text></g><g id="ezcGraphTextBox_110"><path d=" M 159.2571,376.4206 L 159.2571,364.9206 L 166.9571,364.9206 L 166.9571,376.4206 L 159.2571,376.4206 z " style="fill: #ffffff; fill-opacity: 0.00; stroke: none;" id="ezcGraphPolygon_204"/><text id="ezcGraphTextBox_110_text" x="159.7571" text-length="6.2000px" y="373.9206" style="font-size: 10px; font-family: 'Arial'; fill: #2e3436; fill-opacity: 1.00; stroke: none;">1</text></g><g id="ezcGraphTextBox_112"><path d=" M 204.9714,371.7443 L 204.9714,360.2443 L 212.6714,360.2443 L 212.6714,371.7443 L 204.9714,371.7443 z " style="fill: #ffffff; fill-opacity: 0.00; stroke: none;" id="ezcGraphPolygon_205"/><text id="ezcGraphTextBox_112_text" x="205.4714" text-length="6.2000px" y="369.2443" style="font-size: 10px; font-family: 'Arial'; fill: #2e3436; fill-opacity: 1.00; stroke: none;">7</text></g><g id="ezcGraphTextBox_114"><path d=" M 250.6857,374.8619 L 250.6857,363.3619 L 258.3857,363.3619 L 258.3857,374.8619 L 250.6857,374.8619 z " style="fill: #ffffff; fill-opacity: 0.00; stroke: none;" id="ezcGraphPolygon_206"/><text id="ezcGraphTextBox_114_text" x="251.1857" text-length="6.2000px" y="372.3619" style="font-size: 10px; font-family: 'Arial'; fill: #2e3436; fill-opacity: 1.00; stroke: none;">3</text></g><g id="ezcGraphTextBox_116"><path d=" M 296.4000,375.6412 L 296.4000,364.1412 L 304.1000,364.1412 L 304.1000,375.6412 L 296.4000,375.6412 z " style="fill: #ffffff; fill-opacity: 0.00; stroke: none;" id="ezcGraphPolygon_207"/><text id="ezcGraphTextBox_116_text" x="296.9000" text-length="6.2000px" y="373.1412" style="font-size: 10px; font-family: 'Arial'; fill: #2e3436; fill-opacity: 1.00; stroke: none;">2</text></g><g id="ezcGraphTextBox_118"><path d=" M 342.1143,376.4206 L 342.1143,364.9206 L 349.8143,364.9206 L 349.8143,376.4206 L 342.1143,376.4206 z " style="fill: #ffffff; fill-opacity: 0.00; stroke: none;" id="ezcGraphPolygon_208"/><text id="ezcGraphTextBox_118_text" x="342.6143" text-length="6.2000px" y="373.9206" style="font-size: 10px; font-family: 'Arial'; fill: #2e3436; fill-opacity: 1.00; stroke: none;">1</text></g><g id="ezcGraphTextBox_120"><path d=" M 387.8286,376.4206 L 387.8286,364.9206 L 395.5286,364.9206 L 395.5286,376.4206 L 387.8286,376.4206 z " style="fill: #ffffff; fill-opacity: 0.00; stroke: none;" id="ezcGraphPolygon_209"/><text id="ezcGraphTextBox_120_text" x="388.3286" text-length="6.2000px" y="373.9206" style="font-size: 10px; font-family: 'Arial'; fill: #2e3436; fill-opacity: 1.00; stroke: none;">1</text></g></g></svg>
