<?xml version="1.0"?>
<svg xmlns="http://www.w3.org/2000/svg" width="500" height="420" version="1.0" id="ezcGraph"><defs/><g id="ezcGraphChart" color-rendering="optimizeQuality" shape-rendering="geometricPrecision" text-rendering="optimizeLegibility"><path d=" M 0.0000,420.0000 L 0.0000,0.0000 L 500.0000,0.0000 L 500.0000,420.0000 L 0.0000,420.0000 z " style="fill: #eeeeec; fill-opacity: 1.00; stroke: none;" id="ezcGraphPolygon_1"/><path d=" M 0.0000,42.0000 L 0.0000,0.0000 L 500.0000,0.0000 L 500.0000,42.0000 L 0.0000,42.0000 z " style="fill: #000000; fill-opacity: 0.00; stroke: none;" id="ezcGraphPolygon_2"/><path d="M 262.48,231.73 L 374.98,231.73 A 112.50,112.50 0 0,1 374.20,244.92 z" style="fill: #3465a4; fill-opacity: 1.00; stroke: none; cursor: pointer;" id="ezcGraphCircleSector_4" onclick="top.location = 'https://linux-hardware.org/?view=computers&amp;f=memory_model&amp;v=Samsung+Electronics+RAM+M471A5244CB0-CTD+4GB+SODIMM+DDR4+3266MT%2Fs&amp;p=-1&amp;c=Canada'"/><path d="M 270.98,232.23 L 374.48,232.23 A 112.00,112.00 0 0,1 373.77,244.36 z" style="fill: none; stroke: #1a3352; stroke-width: 1; stroke-opacity: 1.00; stroke-linecap: round; stroke-linejoin: round;" id="ezcGraphCircleSector_5"/><path d="M 250.00,231.00 L 361.73,244.18 A 112.50,112.50 0 0,1 359.41,257.18 z" style="fill: #4e9a06; fill-opacity: 1.00; stroke: none; cursor: pointer;" id="ezcGraphCircleSector_6" onclick="top.location = 'https://linux-hardware.org/?view=computers&amp;f=memory_model&amp;v=Kingston+RAM+KHX2400C14S4%2F16G+16GB+SODIMM+DDR4+2667MT%2Fs&amp;p=-1&amp;c=Canada'"/><path d="M 258.39,232.49 L 361.17,244.62 A 112.00,112.00 0 0,1 359.04,256.58 z" style="fill: none; stroke: #274d03; stroke-width: 1; stroke-opacity: 1.00; stroke-linecap: round; stroke-linejoin: round;" id="ezcGraphCircleSector_7"/><path d="M 250.00,231.00 L 359.41,257.18 A 112.50,112.50 0 0,1 355.59,269.82 z" style="fill: #cc0000; fill-opacity: 1.00; stroke: none; cursor: pointer;" id="ezcGraphCircleSector_8" onclick="top.location = 'https://linux-hardware.org/?view=computers&amp;f=memory_model&amp;v=Kingston+RAM+KHX1600C10D3%2F8G+8GB+DIMM+DDR3+1600MT%2Fs&amp;p=-1&amp;c=Canada'"/><path d="M 258.16,233.47 L 358.81,257.55 A 112.00,112.00 0 0,1 355.29,269.18 z" style="fill: none; stroke: #660000; stroke-width: 1; stroke-opacity: 1.00; stroke-linecap: round; stroke-linejoin: round;" id="ezcGraphCircleSector_9"/><path d="M 250.00,231.00 L 355.59,269.82 A 112.50,112.50 0 0,1 350.31,281.93 z" style="fill: #edd400; fill-opacity: 1.00; stroke: none; cursor: pointer;" id="ezcGraphCircleSector_10" onclick="top.location = 'https://linux-hardware.org/?view=computers&amp;f=memory_model&amp;v=&amp;p=-1&amp;c=Canada'"/><path d="M 257.81,234.40 L 354.95,270.12 A 112.00,112.00 0 0,1 350.09,281.25 z" style="fill: none; stroke: #776a00; stroke-width: 1; stroke-opacity: 1.00; stroke-linecap: round; stroke-linejoin: round;" id="ezcGraphCircleSector_11"/><path d="M 250.00,231.00 L 350.31,281.93 A 112.50,112.50 0 0,1 347.15,287.73 z" style="fill: #75505b; fill-opacity: 1.00; stroke: none; cursor: pointer;" id="ezcGraphCircleSector_12" onclick="top.location = 'https://linux-hardware.org/?view=computers&amp;f=memory_model&amp;v=Unknown+RAM+Module+4GB+DIMM+DDR3+1333MT%2Fs&amp;p=-1&amp;c=Canada'"/><path d="M 264.95,239.15 L 349.64,282.15 A 112.00,112.00 0 0,1 346.97,287.04 z" style="fill: none; stroke: #3b282e; stroke-width: 1; stroke-opacity: 1.00; stroke-linecap: round; stroke-linejoin: round;" id="ezcGraphCircleSector_13"/><path d="M 250.00,231.00 L 347.15,287.73 A 112.50,112.50 0 1,1 362.50,231.00 z" style="fill: #f57900; fill-opacity: 1.00; stroke: none;" id="ezcGraphCircleSector_14"/><path d="M 248.15,230.50 L 346.47,287.91 A 112.00,112.00 0 1,1 362.00,230.50 z" style="fill: none; stroke: #7b3d00; stroke-width: 1; stroke-opacity: 1.00; stroke-linecap: round; stroke-linejoin: round;" id="ezcGraphCircleSector_15"/><path d=" M 169.5592,209.2349 L 123.4347,198.0000" style="fill: none; stroke: #000000; stroke-width: 1; stroke-opacity: 1.00; stroke-linecap: round; stroke-linejoin: round;" id="ezcGraphLine_16"/><ellipse cx="169.5592" cy="209.2349" rx="3.0000" ry="3.0000" style="fill: #000000; fill-opacity: 1.00; stroke: none;" id="ezcGraphCircle_17"/><ellipse cx="123.4347" cy="198.0000" rx="3.0000" ry="3.0000" style="fill: #000000; fill-opacity: 1.00; stroke: none;" id="ezcGraphCircle_18"/><path d=" M 345.6682,236.6242 L 380.7437,239.0000" style="fill: none; stroke: #000000; stroke-width: 1; stroke-opacity: 1.00; stroke-linecap: round; stroke-linejoin: round;" id="ezcGraphLine_20"/><ellipse cx="345.6682" cy="236.6242" rx="3.0000" ry="3.0000" style="fill: #000000; fill-opacity: 1.00; stroke: none;" id="ezcGraphCircle_21"/><ellipse cx="380.7437" cy="239.0000" rx="3.0000" ry="3.0000" style="fill: #000000; fill-opacity: 1.00; stroke: none;" id="ezcGraphCircle_22"/><path d=" M 332.0436,245.6045 L 373.3712,274.0000" style="fill: none; stroke: #000000; stroke-width: 1; stroke-opacity: 1.00; stroke-linecap: round; stroke-linejoin: round;" id="ezcGraphLine_24"/><ellipse cx="332.0436" cy="245.6045" rx="3.0000" ry="3.0000" style="fill: #000000; fill-opacity: 1.00; stroke: none;" id="ezcGraphCircle_25"/><ellipse cx="373.3712" cy="274.0000" rx="3.0000" ry="3.0000" style="fill: #000000; fill-opacity: 1.00; stroke: none;" id="ezcGraphCircle_26"/><path d=" M 329.7672,255.1172 L 353.6780,309.0000" style="fill: none; stroke: #000000; stroke-width: 1; stroke-opacity: 1.00; stroke-linecap: round; stroke-linejoin: round;" id="ezcGraphLine_28"/><ellipse cx="329.7672" cy="255.1172" rx="3.0000" ry="3.0000" style="fill: #000000; fill-opacity: 1.00; stroke: none;" id="ezcGraphCircle_29"/><ellipse cx="353.6780" cy="309.0000" rx="3.0000" ry="3.0000" style="fill: #000000; fill-opacity: 1.00; stroke: none;" id="ezcGraphCircle_30"/><path d=" M 326.3918,264.2976 L 309.4416,344.0000" style="fill: none; stroke: #000000; stroke-width: 1; stroke-opacity: 1.00; stroke-linecap: round; stroke-linejoin: round;" id="ezcGraphLine_32"/><ellipse cx="326.3918" cy="264.2976" rx="3.0000" ry="3.0000" style="fill: #000000; fill-opacity: 1.00; stroke: none;" id="ezcGraphCircle_33"/><ellipse cx="309.4416" cy="344.0000" rx="3.0000" ry="3.0000" style="fill: #000000; fill-opacity: 1.00; stroke: none;" id="ezcGraphCircle_34"/><path d=" M 323.1665,270.8886 L 323.1665,379.0000" style="fill: none; stroke: #000000; stroke-width: 1; stroke-opacity: 1.00; stroke-linecap: round; stroke-linejoin: round;" id="ezcGraphLine_36"/><ellipse cx="323.1665" cy="270.8886" rx="3.0000" ry="3.0000" style="fill: #000000; fill-opacity: 1.00; stroke: none;" id="ezcGraphCircle_37"/><ellipse cx="323.1665" cy="379.0000" rx="3.0000" ry="3.0000" style="fill: #000000; fill-opacity: 1.00; stroke: none;" id="ezcGraphCircle_38"/><g id="ezcGraphTextBox_3"><path d=" M 122.3000,42.0000 L 122.3000,0.5000 L 378.2000,0.5000 L 378.2000,42.0000 L 122.3000,42.0000 z " style="fill: #ffffff; fill-opacity: 0.00; stroke: none;" id="ezcGraphPolygon_40"/><text id="ezcGraphTextBox_3_text" x="122.8000" text-length="254.4000px" y="35.0000" style="font-size: 40px; font-family: 'Arial'; fill: #2e3436; fill-opacity: 1.00; stroke: none;">Memory Model</text></g><g id="ezcGraphTextBox_19"><path d=" M 68.7047,212.0500 L 68.7047,184.4500 L 118.4347,184.4500 L 118.4347,212.0500 L 68.7047,212.0500 z " style="fill: #ffffff; fill-opacity: 0.00; stroke: none;" id="ezcGraphPolygon_41"/><text id="ezcGraphTextBox_19_text" x="76.0947" text-length="41.3400px" y="196.0000" style="font-size: 13px; font-family: 'Arial'; fill: #2e3436; fill-opacity: 1.00; stroke: none;">Others</text><text id="ezcGraphTextBox_19_text" x="69.2047" text-length="48.2300px" y="210.3000" style="font-size: 13px; font-family: 'Arial'; fill: #2e3436; fill-opacity: 1.00; stroke: none;">(91.6%)</text></g><g id="ezcGraphTextBox_23" style=" cursor: pointer;" onclick="top.location = 'https://linux-hardware.org/?view=computers&amp;f=memory_model&amp;v=Samsung+Electronics+RAM+M471A5244CB0-CTD+4GB+SODIMM+DDR4+3266MT%2Fs&amp;p=-1&amp;c=Canada'"><path d=" M 386.2437,253.0500 L 386.2437,225.4500 L 497.9837,225.4500 L 497.9837,253.0500 L 386.2437,253.0500 z " style="fill: #ffffff; fill-opacity: 0.00; stroke: none;" id="ezcGraphPolygon_42"/><text id="ezcGraphTextBox_23_text" x="386.7437" text-length="110.2400px" y="237.0000" style="font-size: 13px; font-family: 'Arial'; fill: #2e3436; fill-opacity: 1.00; stroke: none;">M471A5244CB0-...</text><text id="ezcGraphTextBox_23_text" x="386.7437" text-length="41.3400px" y="251.3000" style="font-size: 13px; font-family: 'Arial'; fill: #2e3436; fill-opacity: 1.00; stroke: none;">(1.9%)</text></g><g id="ezcGraphTextBox_27" style=" cursor: pointer;" onclick="top.location = 'https://linux-hardware.org/?view=computers&amp;f=memory_model&amp;v=Kingston+RAM+KHX2400C14S4%2F16G+16GB+SODIMM+DDR4+2667MT%2Fs&amp;p=-1&amp;c=Canada'"><path d=" M 378.8712,288.0500 L 378.8712,260.4500 L 490.6112,260.4500 L 490.6112,288.0500 L 378.8712,288.0500 z " style="fill: #ffffff; fill-opacity: 0.00; stroke: none;" id="ezcGraphPolygon_43"/><text id="ezcGraphTextBox_27_text" x="379.3712" text-length="110.2400px" y="272.0000" style="font-size: 13px; font-family: 'Arial'; fill: #2e3436; fill-opacity: 1.00; stroke: none;">KHX2400C14S4/...</text><text id="ezcGraphTextBox_27_text" x="379.3712" text-length="41.3400px" y="286.3000" style="font-size: 13px; font-family: 'Arial'; fill: #2e3436; fill-opacity: 1.00; stroke: none;">(1.9%)</text></g><g id="ezcGraphTextBox_31" style=" cursor: pointer;" onclick="top.location = 'https://linux-hardware.org/?view=computers&amp;f=memory_model&amp;v=Kingston+RAM+KHX1600C10D3%2F8G+8GB+DIMM+DDR3+1600MT%2Fs&amp;p=-1&amp;c=Canada'"><path d=" M 359.1780,323.0500 L 359.1780,295.4500 L 470.9180,295.4500 L 470.9180,323.0500 L 359.1780,323.0500 z " style="fill: #ffffff; fill-opacity: 0.00; stroke: none;" id="ezcGraphPolygon_44"/><text id="ezcGraphTextBox_31_text" x="359.6780" text-length="110.2400px" y="307.0000" style="font-size: 13px; font-family: 'Arial'; fill: #2e3436; fill-opacity: 1.00; stroke: none;">KHX1600C10D3/...</text><text id="ezcGraphTextBox_31_text" x="359.6780" text-length="41.3400px" y="321.3000" style="font-size: 13px; font-family: 'Arial'; fill: #2e3436; fill-opacity: 1.00; stroke: none;">(1.9%)</text></g><g id="ezcGraphTextBox_35" style=" cursor: pointer;" onclick="top.location = 'https://linux-hardware.org/?view=computers&amp;f=memory_model&amp;v=&amp;p=-1&amp;c=Canada'"><path d=" M 314.9416,358.0500 L 314.9416,330.4500 L 426.6816,330.4500 L 426.6816,358.0500 L 314.9416,358.0500 z " style="fill: #ffffff; fill-opacity: 0.00; stroke: none;" id="ezcGraphPolygon_45"/><text id="ezcGraphTextBox_35_text" x="315.4416" text-length="110.2400px" y="342.0000" style="font-size: 13px; font-family: 'Arial'; fill: #2e3436; fill-opacity: 1.00; stroke: none;">Module 32GB S...</text><text id="ezcGraphTextBox_35_text" x="315.4416" text-length="41.3400px" y="356.3000" style="font-size: 13px; font-family: 'Arial'; fill: #2e3436; fill-opacity: 1.00; stroke: none;">(1.9%)</text></g><g id="ezcGraphTextBox_39" style=" cursor: pointer;" onclick="top.location = 'https://linux-hardware.org/?view=computers&amp;f=memory_model&amp;v=Unknown+RAM+Module+4GB+DIMM+DDR3+1333MT%2Fs&amp;p=-1&amp;c=Canada'"><path d=" M 328.6665,393.0500 L 328.6665,365.4500 L 440.4065,365.4500 L 440.4065,393.0500 L 328.6665,393.0500 z " style="fill: #ffffff; fill-opacity: 0.00; stroke: none;" id="ezcGraphPolygon_46"/><text id="ezcGraphTextBox_39_text" x="329.1665" text-length="110.2400px" y="377.0000" style="font-size: 13px; font-family: 'Arial'; fill: #2e3436; fill-opacity: 1.00; stroke: none;">Module 4GB DI...</text><text id="ezcGraphTextBox_39_text" x="329.1665" text-length="41.3400px" y="391.3000" style="font-size: 13px; font-family: 'Arial'; fill: #2e3436; fill-opacity: 1.00; stroke: none;">(0.9%)</text></g></g></svg>
