<?xml version="1.0"?>
<svg xmlns="http://www.w3.org/2000/svg" width="500" height="420" version="1.0" id="ezcGraph"><defs/><g id="ezcGraphChart" color-rendering="optimizeQuality" shape-rendering="geometricPrecision" text-rendering="optimizeLegibility"><path d=" M 0.0000,420.0000 L 0.0000,0.0000 L 500.0000,0.0000 L 500.0000,420.0000 L 0.0000,420.0000 z " style="fill: #eeeeec; fill-opacity: 1.00; stroke: none;" id="ezcGraphPolygon_1"/><path d=" M 0.0000,42.0000 L 0.0000,0.0000 L 500.0000,0.0000 L 500.0000,42.0000 L 0.0000,42.0000 z " style="fill: #000000; fill-opacity: 0.00; stroke: none;" id="ezcGraphPolygon_2"/><path d=" M 0.0000,420.0000 L 0.0000,42.0000 L 100.0000,42.0000 L 100.0000,420.0000 L 0.0000,420.0000 z " style="fill: #000000; fill-opacity: 0.00; stroke: none;" id="ezcGraphPolygon_4"/><path d=" M 2.0000,58.0000 L 2.0000,44.0000 L 16.0000,44.0000 L 16.0000,58.0000 L 2.0000,58.0000 z " style="fill: #3465a4; fill-opacity: 1.00; stroke: none; cursor: pointer;" id="ezcGraphPolygon_5" onclick="top.location = 'https://linux-hardware.org/?view=computers&amp;type=notebook&amp;f=os_kernel_family&amp;v=5.16.7&amp;p=-1'"/><path d=" M 2.0000,76.0000 L 2.0000,62.0000 L 16.0000,62.0000 L 16.0000,76.0000 L 2.0000,76.0000 z " style="fill: #4e9a06; fill-opacity: 1.00; stroke: none; cursor: pointer;" id="ezcGraphPolygon_7" onclick="top.location = 'https://linux-hardware.org/?view=computers&amp;type=notebook&amp;f=os_kernel_family&amp;v=5.10.14&amp;p=-1'"/><path d=" M 2.0000,94.0000 L 2.0000,80.0000 L 16.0000,80.0000 L 16.0000,94.0000 L 2.0000,94.0000 z " style="fill: #cc0000; fill-opacity: 1.00; stroke: none; cursor: pointer;" id="ezcGraphPolygon_9" onclick="top.location = 'https://linux-hardware.org/?view=computers&amp;type=notebook&amp;f=os_kernel_family&amp;v=5.14.7&amp;p=-1'"/><path d=" M 2.0000,112.0000 L 2.0000,98.0000 L 16.0000,98.0000 L 16.0000,112.0000 L 2.0000,112.0000 z " style="fill: #edd400; fill-opacity: 1.00; stroke: none; cursor: pointer;" id="ezcGraphPolygon_11" onclick="top.location = 'https://linux-hardware.org/?view=computers&amp;type=notebook&amp;f=os_kernel_family&amp;v=5.16.13&amp;p=-1'"/><path d=" M 2.0000,130.0000 L 2.0000,116.0000 L 16.0000,116.0000 L 16.0000,130.0000 L 2.0000,130.0000 z " style="fill: #75505b; fill-opacity: 1.00; stroke: none; cursor: pointer;" id="ezcGraphPolygon_13" onclick="top.location = 'https://linux-hardware.org/?view=computers&amp;type=notebook&amp;f=os_kernel_family&amp;v=5.17.1&amp;p=-1'"/><path d=" M 2.0000,148.0000 L 2.0000,134.0000 L 16.0000,134.0000 L 16.0000,148.0000 L 2.0000,148.0000 z " style="fill: #f57900; fill-opacity: 1.00; stroke: none;" id="ezcGraphPolygon_15"/><path d=" M 100.0000,382.2000 L 500.0000,382.2000" style="fill: none; stroke: #2e3436; stroke-width: 1; stroke-opacity: 1.00; stroke-linecap: round; stroke-linejoin: round;" id="ezcGraphLine_17"/><path d=" M 492.0000,378.2000 L 500.0000,382.2000 L 492.0000,386.2000 L 492.0000,378.2000 z " style="fill: #2e3436; fill-opacity: 1.00; stroke: none;" id="ezcGraphPolygon_18"/><path d=" M 185.7143,79.8000 L 185.7143,382.2000" style="fill: none; stroke: #000000; stroke-width: 1; stroke-opacity: 0.00; stroke-linecap: round; stroke-linejoin: round;" id="ezcGraphLine_21"/><path d=" M 185.7143,379.2000 L 185.7143,385.2000" style="fill: none; stroke: #2e3436; stroke-width: 1; stroke-opacity: 1.00; stroke-linecap: round; stroke-linejoin: round;" id="ezcGraphLine_22"/><path d=" M 231.4286,79.8000 L 231.4286,382.2000" style="fill: none; stroke: #000000; stroke-width: 1; stroke-opacity: 0.00; stroke-linecap: round; stroke-linejoin: round;" id="ezcGraphLine_24"/><path d=" M 231.4286,379.2000 L 231.4286,385.2000" style="fill: none; stroke: #2e3436; stroke-width: 1; stroke-opacity: 1.00; stroke-linecap: round; stroke-linejoin: round;" id="ezcGraphLine_25"/><path d=" M 277.1429,79.8000 L 277.1429,382.2000" style="fill: none; stroke: #000000; stroke-width: 1; stroke-opacity: 0.00; stroke-linecap: round; stroke-linejoin: round;" id="ezcGraphLine_27"/><path d=" M 277.1429,379.2000 L 277.1429,385.2000" style="fill: none; stroke: #2e3436; stroke-width: 1; stroke-opacity: 1.00; stroke-linecap: round; stroke-linejoin: round;" id="ezcGraphLine_28"/><path d=" M 322.8571,79.8000 L 322.8571,382.2000" style="fill: none; stroke: #000000; stroke-width: 1; stroke-opacity: 0.00; stroke-linecap: round; stroke-linejoin: round;" id="ezcGraphLine_30"/><path d=" M 322.8571,379.2000 L 322.8571,385.2000" style="fill: none; stroke: #2e3436; stroke-width: 1; stroke-opacity: 1.00; stroke-linecap: round; stroke-linejoin: round;" id="ezcGraphLine_31"/><path d=" M 368.5714,79.8000 L 368.5714,382.2000" style="fill: none; stroke: #000000; stroke-width: 1; stroke-opacity: 0.00; stroke-linecap: round; stroke-linejoin: round;" id="ezcGraphLine_33"/><path d=" M 368.5714,379.2000 L 368.5714,385.2000" style="fill: none; stroke: #2e3436; stroke-width: 1; stroke-opacity: 1.00; stroke-linecap: round; stroke-linejoin: round;" id="ezcGraphLine_34"/><path d=" M 414.2857,79.8000 L 414.2857,382.2000" style="fill: none; stroke: #000000; stroke-width: 1; stroke-opacity: 0.00; stroke-linecap: round; stroke-linejoin: round;" id="ezcGraphLine_36"/><path d=" M 414.2857,379.2000 L 414.2857,385.2000" style="fill: none; stroke: #2e3436; stroke-width: 1; stroke-opacity: 1.00; stroke-linecap: round; stroke-linejoin: round;" id="ezcGraphLine_37"/><path d=" M 460.0000,79.8000 L 460.0000,382.2000" style="fill: none; stroke: #000000; stroke-width: 1; stroke-opacity: 0.00; stroke-linecap: round; stroke-linejoin: round;" id="ezcGraphLine_39"/><path d=" M 460.0000,379.2000 L 460.0000,385.2000" style="fill: none; stroke: #2e3436; stroke-width: 1; stroke-opacity: 1.00; stroke-linecap: round; stroke-linejoin: round;" id="ezcGraphLine_40"/><path d=" M 140.0000,420.0000 L 140.0000,42.0000" style="fill: none; stroke: #2e3436; stroke-width: 1; stroke-opacity: 1.00; stroke-linecap: round; stroke-linejoin: round;" id="ezcGraphLine_41"/><path d=" M 136.0000,50.0000 L 140.0000,42.0000 L 144.0000,50.0000 L 136.0000,50.0000 z " style="fill: #2e3436; fill-opacity: 1.00; stroke: none;" id="ezcGraphPolygon_42"/><path d=" M 140.0000,231.0000 L 460.0000,231.0000" style="fill: none; stroke: #000000; stroke-width: 1; stroke-opacity: 0.00; stroke-linecap: round; stroke-linejoin: round;" id="ezcGraphLine_45"/><path d=" M 140.0000,231.0000 L 143.0000,231.0000" style="fill: none; stroke: #2e3436; stroke-width: 1; stroke-opacity: 1.00; stroke-linecap: round; stroke-linejoin: round;" id="ezcGraphLine_46"/><path d=" M 140.0000,79.8000 L 460.0000,79.8000" style="fill: none; stroke: #000000; stroke-width: 1; stroke-opacity: 0.00; stroke-linecap: round; stroke-linejoin: round;" id="ezcGraphLine_48"/><path d=" M 140.0000,79.8000 L 143.0000,79.8000" style="fill: none; stroke: #2e3436; stroke-width: 1; stroke-opacity: 1.00; stroke-linecap: round; stroke-linejoin: round;" id="ezcGraphLine_49"/><path d=" M 391.4286,126.9744 L 391.4286,126.9744" style="fill: none; stroke: #3465a4; stroke-width: 1; stroke-opacity: 1.00; stroke-linecap: round; stroke-linejoin: round;" id="ezcGraphLine_51"/><path d=" M 391.4286,126.9744 L 437.1429,134.5344" style="fill: none; stroke: #3465a4; stroke-width: 1; stroke-opacity: 1.00; stroke-linecap: round; stroke-linejoin: round;" id="ezcGraphLine_53"/><path d=" M 162.8571,171.4272 L 162.8571,171.4272" style="fill: none; stroke: #4e9a06; stroke-width: 1; stroke-opacity: 1.00; stroke-linecap: round; stroke-linejoin: round;" id="ezcGraphLine_55"/><path d=" M 162.8571,171.4272 L 208.5714,196.2240" style="fill: none; stroke: #4e9a06; stroke-width: 1; stroke-opacity: 1.00; stroke-linecap: round; stroke-linejoin: round;" id="ezcGraphLine_57"/><path d=" M 208.5714,196.2240 L 254.2857,123.6480" style="fill: none; stroke: #4e9a06; stroke-width: 1; stroke-opacity: 1.00; stroke-linecap: round; stroke-linejoin: round;" id="ezcGraphLine_59"/><path d=" M 254.2857,123.6480 L 300.0000,124.5552" style="fill: none; stroke: #4e9a06; stroke-width: 1; stroke-opacity: 1.00; stroke-linecap: round; stroke-linejoin: round;" id="ezcGraphLine_61"/><path d=" M 300.0000,124.5552 L 345.7143,159.6336" style="fill: none; stroke: #4e9a06; stroke-width: 1; stroke-opacity: 1.00; stroke-linecap: round; stroke-linejoin: round;" id="ezcGraphLine_63"/><path d=" M 345.7143,159.6336 L 391.4286,364.0560" style="fill: none; stroke: #4e9a06; stroke-width: 1; stroke-opacity: 1.00; stroke-linecap: round; stroke-linejoin: round;" id="ezcGraphLine_65"/><path d=" M 391.4286,364.0560 L 437.1429,357.1008" style="fill: none; stroke: #4e9a06; stroke-width: 1; stroke-opacity: 1.00; stroke-linecap: round; stroke-linejoin: round;" id="ezcGraphLine_67"/><path d=" M 300.0000,371.6160 L 300.0000,371.6160" style="fill: none; stroke: #cc0000; stroke-width: 1; stroke-opacity: 1.00; stroke-linecap: round; stroke-linejoin: round;" id="ezcGraphLine_69"/><path d=" M 300.0000,371.6160 L 345.7143,358.0080" style="fill: none; stroke: #cc0000; stroke-width: 1; stroke-opacity: 1.00; stroke-linecap: round; stroke-linejoin: round;" id="ezcGraphLine_71"/><path d=" M 345.7143,358.0080 L 391.4286,365.5680" style="fill: none; stroke: #cc0000; stroke-width: 1; stroke-opacity: 1.00; stroke-linecap: round; stroke-linejoin: round;" id="ezcGraphLine_73"/><path d=" M 391.4286,365.5680 L 437.1429,371.6160" style="fill: none; stroke: #cc0000; stroke-width: 1; stroke-opacity: 1.00; stroke-linecap: round; stroke-linejoin: round;" id="ezcGraphLine_75"/><path d=" M 391.4286,376.7568 L 391.4286,376.7568" style="fill: none; stroke: #edd400; stroke-width: 1; stroke-opacity: 1.00; stroke-linecap: round; stroke-linejoin: round;" id="ezcGraphLine_77"/><path d=" M 391.4286,376.7568 L 437.1429,375.8496" style="fill: none; stroke: #edd400; stroke-width: 1; stroke-opacity: 1.00; stroke-linecap: round; stroke-linejoin: round;" id="ezcGraphLine_79"/><path d=" M 437.1429,377.9664 L 437.1429,377.9664" style="fill: none; stroke: #75505b; stroke-width: 1; stroke-opacity: 1.00; stroke-linecap: round; stroke-linejoin: round;" id="ezcGraphLine_81"/><path d=" M 162.8571,290.5728 L 162.8571,290.5728" style="fill: none; stroke: #f57900; stroke-width: 1; stroke-opacity: 1.00; stroke-linecap: round; stroke-linejoin: round;" id="ezcGraphLine_83"/><path d=" M 162.8571,290.5728 L 208.5714,265.7760" style="fill: none; stroke: #f57900; stroke-width: 1; stroke-opacity: 1.00; stroke-linecap: round; stroke-linejoin: round;" id="ezcGraphLine_85"/><path d=" M 208.5714,265.7760 L 254.2857,338.3520" style="fill: none; stroke: #f57900; stroke-width: 1; stroke-opacity: 1.00; stroke-linecap: round; stroke-linejoin: round;" id="ezcGraphLine_87"/><path d=" M 254.2857,338.3520 L 300.0000,348.0288" style="fill: none; stroke: #f57900; stroke-width: 1; stroke-opacity: 1.00; stroke-linecap: round; stroke-linejoin: round;" id="ezcGraphLine_89"/><path d=" M 300.0000,348.0288 L 345.7143,326.5584" style="fill: none; stroke: #f57900; stroke-width: 1; stroke-opacity: 1.00; stroke-linecap: round; stroke-linejoin: round;" id="ezcGraphLine_91"/><path d=" M 345.7143,326.5584 L 391.4286,375.2448" style="fill: none; stroke: #f57900; stroke-width: 1; stroke-opacity: 1.00; stroke-linecap: round; stroke-linejoin: round;" id="ezcGraphLine_93"/><path d=" M 391.4286,375.2448 L 437.1429,373.7328" style="fill: none; stroke: #f57900; stroke-width: 1; stroke-opacity: 1.00; stroke-linecap: round; stroke-linejoin: round;" id="ezcGraphLine_95"/><path d=" M 388.4286,129.9744 L 388.4286,123.9744 L 394.4286,123.9744 L 394.4286,129.9744 L 388.4286,129.9744 z " style="fill: #3465a4; fill-opacity: 1.00; stroke: none; cursor: pointer;" id="ezcGraphPolygon_97" onclick="top.location = 'https://linux-hardware.org/?view=computers&amp;type=notebook&amp;f=os_kernel_family&amp;v=5.16.7&amp;p=-1&amp;p=99'"/><path d=" M 434.1429,137.5344 L 434.1429,131.5344 L 440.1429,131.5344 L 440.1429,137.5344 L 434.1429,137.5344 z " style="fill: #3465a4; fill-opacity: 1.00; stroke: none; cursor: pointer;" id="ezcGraphPolygon_98" onclick="top.location = 'https://linux-hardware.org/?view=computers&amp;type=notebook&amp;f=os_kernel_family&amp;v=5.16.7&amp;p=-1&amp;p=101'"/><path d=" M 159.8571,174.4272 L 159.8571,168.4272 L 165.8571,168.4272 L 165.8571,174.4272 L 159.8571,174.4272 z " style="fill: #4e9a06; fill-opacity: 1.00; stroke: none; cursor: pointer;" id="ezcGraphPolygon_99" onclick="top.location = 'https://linux-hardware.org/?view=computers&amp;type=notebook&amp;f=os_kernel_family&amp;v=5.10.14&amp;p=-1&amp;p=89'"/><path d=" M 205.5714,199.2240 L 205.5714,193.2240 L 211.5714,193.2240 L 211.5714,199.2240 L 205.5714,199.2240 z " style="fill: #4e9a06; fill-opacity: 1.00; stroke: none; cursor: pointer;" id="ezcGraphPolygon_100" onclick="top.location = 'https://linux-hardware.org/?view=computers&amp;type=notebook&amp;f=os_kernel_family&amp;v=5.10.14&amp;p=-1&amp;p=91'"/><path d=" M 251.2857,126.6480 L 251.2857,120.6480 L 257.2857,120.6480 L 257.2857,126.6480 L 251.2857,126.6480 z " style="fill: #4e9a06; fill-opacity: 1.00; stroke: none; cursor: pointer;" id="ezcGraphPolygon_101" onclick="top.location = 'https://linux-hardware.org/?view=computers&amp;type=notebook&amp;f=os_kernel_family&amp;v=5.10.14&amp;p=-1&amp;p=93'"/><path d=" M 297.0000,127.5552 L 297.0000,121.5552 L 303.0000,121.5552 L 303.0000,127.5552 L 297.0000,127.5552 z " style="fill: #4e9a06; fill-opacity: 1.00; stroke: none; cursor: pointer;" id="ezcGraphPolygon_102" onclick="top.location = 'https://linux-hardware.org/?view=computers&amp;type=notebook&amp;f=os_kernel_family&amp;v=5.10.14&amp;p=-1&amp;p=95'"/><path d=" M 342.7143,162.6336 L 342.7143,156.6336 L 348.7143,156.6336 L 348.7143,162.6336 L 342.7143,162.6336 z " style="fill: #4e9a06; fill-opacity: 1.00; stroke: none; cursor: pointer;" id="ezcGraphPolygon_103" onclick="top.location = 'https://linux-hardware.org/?view=computers&amp;type=notebook&amp;f=os_kernel_family&amp;v=5.10.14&amp;p=-1&amp;p=97'"/><path d=" M 388.4286,367.0560 L 388.4286,361.0560 L 394.4286,361.0560 L 394.4286,367.0560 L 388.4286,367.0560 z " style="fill: #4e9a06; fill-opacity: 1.00; stroke: none; cursor: pointer;" id="ezcGraphPolygon_104" onclick="top.location = 'https://linux-hardware.org/?view=computers&amp;type=notebook&amp;f=os_kernel_family&amp;v=5.10.14&amp;p=-1&amp;p=99'"/><path d=" M 434.1429,360.1008 L 434.1429,354.1008 L 440.1429,354.1008 L 440.1429,360.1008 L 434.1429,360.1008 z " style="fill: #4e9a06; fill-opacity: 1.00; stroke: none; cursor: pointer;" id="ezcGraphPolygon_105" onclick="top.location = 'https://linux-hardware.org/?view=computers&amp;type=notebook&amp;f=os_kernel_family&amp;v=5.10.14&amp;p=-1&amp;p=101'"/><path d=" M 297.0000,374.6160 L 297.0000,368.6160 L 303.0000,368.6160 L 303.0000,374.6160 L 297.0000,374.6160 z " style="fill: #cc0000; fill-opacity: 1.00; stroke: none; cursor: pointer;" id="ezcGraphPolygon_106" onclick="top.location = 'https://linux-hardware.org/?view=computers&amp;type=notebook&amp;f=os_kernel_family&amp;v=5.14.7&amp;p=-1&amp;p=95'"/><path d=" M 342.7143,361.0080 L 342.7143,355.0080 L 348.7143,355.0080 L 348.7143,361.0080 L 342.7143,361.0080 z " style="fill: #cc0000; fill-opacity: 1.00; stroke: none; cursor: pointer;" id="ezcGraphPolygon_107" onclick="top.location = 'https://linux-hardware.org/?view=computers&amp;type=notebook&amp;f=os_kernel_family&amp;v=5.14.7&amp;p=-1&amp;p=97'"/><path d=" M 388.4286,368.5680 L 388.4286,362.5680 L 394.4286,362.5680 L 394.4286,368.5680 L 388.4286,368.5680 z " style="fill: #cc0000; fill-opacity: 1.00; stroke: none; cursor: pointer;" id="ezcGraphPolygon_108" onclick="top.location = 'https://linux-hardware.org/?view=computers&amp;type=notebook&amp;f=os_kernel_family&amp;v=5.14.7&amp;p=-1&amp;p=99'"/><path d=" M 434.1429,374.6160 L 434.1429,368.6160 L 440.1429,368.6160 L 440.1429,374.6160 L 434.1429,374.6160 z " style="fill: #cc0000; fill-opacity: 1.00; stroke: none; cursor: pointer;" id="ezcGraphPolygon_109" onclick="top.location = 'https://linux-hardware.org/?view=computers&amp;type=notebook&amp;f=os_kernel_family&amp;v=5.14.7&amp;p=-1&amp;p=101'"/><path d=" M 388.4286,379.7568 L 388.4286,373.7568 L 394.4286,373.7568 L 394.4286,379.7568 L 388.4286,379.7568 z " style="fill: #edd400; fill-opacity: 1.00; stroke: none; cursor: pointer;" id="ezcGraphPolygon_110" onclick="top.location = 'https://linux-hardware.org/?view=computers&amp;type=notebook&amp;f=os_kernel_family&amp;v=5.16.13&amp;p=-1&amp;p=99'"/><path d=" M 434.1429,378.8496 L 434.1429,372.8496 L 440.1429,372.8496 L 440.1429,378.8496 L 434.1429,378.8496 z " style="fill: #edd400; fill-opacity: 1.00; stroke: none; cursor: pointer;" id="ezcGraphPolygon_111" onclick="top.location = 'https://linux-hardware.org/?view=computers&amp;type=notebook&amp;f=os_kernel_family&amp;v=5.16.13&amp;p=-1&amp;p=101'"/><path d=" M 434.1429,380.9664 L 434.1429,374.9664 L 440.1429,374.9664 L 440.1429,380.9664 L 434.1429,380.9664 z " style="fill: #75505b; fill-opacity: 1.00; stroke: none; cursor: pointer;" id="ezcGraphPolygon_112" onclick="top.location = 'https://linux-hardware.org/?view=computers&amp;type=notebook&amp;f=os_kernel_family&amp;v=5.17.1&amp;p=-1&amp;p=101'"/><path d=" M 159.8571,293.5728 L 159.8571,287.5728 L 165.8571,287.5728 L 165.8571,293.5728 L 159.8571,293.5728 z " style="fill: #f57900; fill-opacity: 1.00; stroke: none;" id="ezcGraphPolygon_113"/><path d=" M 205.5714,268.7760 L 205.5714,262.7760 L 211.5714,262.7760 L 211.5714,268.7760 L 205.5714,268.7760 z " style="fill: #f57900; fill-opacity: 1.00; stroke: none;" id="ezcGraphPolygon_114"/><path d=" M 251.2857,341.3520 L 251.2857,335.3520 L 257.2857,335.3520 L 257.2857,341.3520 L 251.2857,341.3520 z " style="fill: #f57900; fill-opacity: 1.00; stroke: none;" id="ezcGraphPolygon_115"/><path d=" M 297.0000,351.0288 L 297.0000,345.0288 L 303.0000,345.0288 L 303.0000,351.0288 L 297.0000,351.0288 z " style="fill: #f57900; fill-opacity: 1.00; stroke: none;" id="ezcGraphPolygon_116"/><path d=" M 342.7143,329.5584 L 342.7143,323.5584 L 348.7143,323.5584 L 348.7143,329.5584 L 342.7143,329.5584 z " style="fill: #f57900; fill-opacity: 1.00; stroke: none;" id="ezcGraphPolygon_117"/><path d=" M 388.4286,378.2448 L 388.4286,372.2448 L 394.4286,372.2448 L 394.4286,378.2448 L 388.4286,378.2448 z " style="fill: #f57900; fill-opacity: 1.00; stroke: none;" id="ezcGraphPolygon_118"/><path d=" M 434.1429,376.7328 L 434.1429,370.7328 L 440.1429,370.7328 L 440.1429,376.7328 L 434.1429,376.7328 z " style="fill: #f57900; fill-opacity: 1.00; stroke: none;" id="ezcGraphPolygon_119"/><g id="ezcGraphTextBox_3"><path d=" M 111.7000,42.0000 L 111.7000,0.5000 L 388.8000,0.5000 L 388.8000,42.0000 L 111.7000,42.0000 z " style="fill: #ffffff; fill-opacity: 0.00; stroke: none;" id="ezcGraphPolygon_120"/><text id="ezcGraphTextBox_3_text" x="112.2000" text-length="275.6000px" y="35.0000" style="font-size: 40px; font-family: 'Arial'; fill: #2e3436; fill-opacity: 1.00; stroke: none;">Kernel Family</text></g><g id="ezcGraphTextBox_6" style=" cursor: pointer;" onclick="top.location = 'https://linux-hardware.org/?view=computers&amp;type=notebook&amp;f=os_kernel_family&amp;v=5.16.7&amp;p=-1'"><path d=" M 16.5000,59.0000 L 16.5000,43.5000 L 62.5200,43.5000 L 62.5200,59.0000 L 16.5000,59.0000 z " style="fill: #ffffff; fill-opacity: 0.00; stroke: none;" id="ezcGraphPolygon_121"/><text id="ezcGraphTextBox_6_text" x="17.0000" text-length="44.5200px" y="55.9000" style="font-size: 14px; font-family: 'Arial'; fill: #2e3436; fill-opacity: 1.00; stroke: none;">5.16.7</text></g><g id="ezcGraphTextBox_8" style=" cursor: pointer;" onclick="top.location = 'https://linux-hardware.org/?view=computers&amp;type=notebook&amp;f=os_kernel_family&amp;v=5.10.14&amp;p=-1'"><path d=" M 16.5000,77.0000 L 16.5000,61.5000 L 69.9400,61.5000 L 69.9400,77.0000 L 16.5000,77.0000 z " style="fill: #ffffff; fill-opacity: 0.00; stroke: none;" id="ezcGraphPolygon_122"/><text id="ezcGraphTextBox_8_text" x="17.0000" text-length="51.9400px" y="73.9000" style="font-size: 14px; font-family: 'Arial'; fill: #2e3436; fill-opacity: 1.00; stroke: none;">5.10.14</text></g><g id="ezcGraphTextBox_10" style=" cursor: pointer;" onclick="top.location = 'https://linux-hardware.org/?view=computers&amp;type=notebook&amp;f=os_kernel_family&amp;v=5.14.7&amp;p=-1'"><path d=" M 16.5000,95.0000 L 16.5000,79.5000 L 62.5200,79.5000 L 62.5200,95.0000 L 16.5000,95.0000 z " style="fill: #ffffff; fill-opacity: 0.00; stroke: none;" id="ezcGraphPolygon_123"/><text id="ezcGraphTextBox_10_text" x="17.0000" text-length="44.5200px" y="91.9000" style="font-size: 14px; font-family: 'Arial'; fill: #2e3436; fill-opacity: 1.00; stroke: none;">5.14.7</text></g><g id="ezcGraphTextBox_12" style=" cursor: pointer;" onclick="top.location = 'https://linux-hardware.org/?view=computers&amp;type=notebook&amp;f=os_kernel_family&amp;v=5.16.13&amp;p=-1'"><path d=" M 16.5000,113.0000 L 16.5000,97.5000 L 69.9400,97.5000 L 69.9400,113.0000 L 16.5000,113.0000 z " style="fill: #ffffff; fill-opacity: 0.00; stroke: none;" id="ezcGraphPolygon_124"/><text id="ezcGraphTextBox_12_text" x="17.0000" text-length="51.9400px" y="109.9000" style="font-size: 14px; font-family: 'Arial'; fill: #2e3436; fill-opacity: 1.00; stroke: none;">5.16.13</text></g><g id="ezcGraphTextBox_14" style=" cursor: pointer;" onclick="top.location = 'https://linux-hardware.org/?view=computers&amp;type=notebook&amp;f=os_kernel_family&amp;v=5.17.1&amp;p=-1'"><path d=" M 16.5000,131.0000 L 16.5000,115.5000 L 62.5200,115.5000 L 62.5200,131.0000 L 16.5000,131.0000 z " style="fill: #ffffff; fill-opacity: 0.00; stroke: none;" id="ezcGraphPolygon_125"/><text id="ezcGraphTextBox_14_text" x="17.0000" text-length="44.5200px" y="127.9000" style="font-size: 14px; font-family: 'Arial'; fill: #2e3436; fill-opacity: 1.00; stroke: none;">5.17.1</text></g><g id="ezcGraphTextBox_16"><path d=" M 16.5000,149.0000 L 16.5000,133.5000 L 62.5200,133.5000 L 62.5200,149.0000 L 16.5000,149.0000 z " style="fill: #ffffff; fill-opacity: 0.00; stroke: none;" id="ezcGraphPolygon_126"/><text id="ezcGraphTextBox_16_text" x="17.0000" text-length="44.5200px" y="145.9000" style="font-size: 14px; font-family: 'Arial'; fill: #2e3436; fill-opacity: 1.00; stroke: none;">Others</text></g><g id="ezcGraphTextBox_19" transform="rotate( 0.00 493.0000 375.2000 )"><path d=" M 460.4000,381.2000 L 460.4000,365.7000 L 499.0000,365.7000 L 499.0000,381.2000 L 460.4000,381.2000 z " style="fill: #ffffff; fill-opacity: 0.00; stroke: none;" id="ezcGraphPolygon_127"/><text id="ezcGraphTextBox_19_text" x="460.9000" text-length="37.1000px" y="378.1000" style="font-size: 14px; font-family: 'Arial'; fill: #2e3436; fill-opacity: 1.00; stroke: none;">Time </text></g><g id="ezcGraphTextBox_20"><path d=" M 144.9971,413.3000 L 144.9971,383.7000 L 181.2171,383.7000 L 181.2171,413.3000 L 144.9971,413.3000 z " style="fill: #ffffff; fill-opacity: 0.00; stroke: none;" id="ezcGraphPolygon_128"/><text id="ezcGraphTextBox_20_text" x="151.7271" text-length="22.2600px" y="396.1000" style="font-size: 14px; font-family: 'Arial'; fill: #2e3436; fill-opacity: 1.00; stroke: none;">May</text><text id="ezcGraphTextBox_20_text" x="145.4971" text-length="34.7200px" y="411.5000" style="font-size: 14px; font-family: 'Arial'; fill: #2e3436; fill-opacity: 1.00; stroke: none;">2021</text></g><g id="ezcGraphTextBox_23"><path d=" M 190.7114,413.3000 L 190.7114,383.7000 L 226.9314,383.7000 L 226.9314,413.3000 L 190.7114,413.3000 z " style="fill: #ffffff; fill-opacity: 0.00; stroke: none;" id="ezcGraphPolygon_129"/><text id="ezcGraphTextBox_23_text" x="197.4414" text-length="22.2600px" y="396.1000" style="font-size: 14px; font-family: 'Arial'; fill: #2e3436; fill-opacity: 1.00; stroke: none;">Jul</text><text id="ezcGraphTextBox_23_text" x="191.2114" text-length="34.7200px" y="411.5000" style="font-size: 14px; font-family: 'Arial'; fill: #2e3436; fill-opacity: 1.00; stroke: none;">2021</text></g><g id="ezcGraphTextBox_26"><path d=" M 236.4257,413.3000 L 236.4257,383.7000 L 272.6457,383.7000 L 272.6457,413.3000 L 236.4257,413.3000 z " style="fill: #ffffff; fill-opacity: 0.00; stroke: none;" id="ezcGraphPolygon_130"/><text id="ezcGraphTextBox_26_text" x="243.1557" text-length="22.2600px" y="396.1000" style="font-size: 14px; font-family: 'Arial'; fill: #2e3436; fill-opacity: 1.00; stroke: none;">Sep</text><text id="ezcGraphTextBox_26_text" x="236.9257" text-length="34.7200px" y="411.5000" style="font-size: 14px; font-family: 'Arial'; fill: #2e3436; fill-opacity: 1.00; stroke: none;">2021</text></g><g id="ezcGraphTextBox_29"><path d=" M 282.1400,413.3000 L 282.1400,383.7000 L 318.3600,383.7000 L 318.3600,413.3000 L 282.1400,413.3000 z " style="fill: #ffffff; fill-opacity: 0.00; stroke: none;" id="ezcGraphPolygon_131"/><text id="ezcGraphTextBox_29_text" x="288.8700" text-length="22.2600px" y="396.1000" style="font-size: 14px; font-family: 'Arial'; fill: #2e3436; fill-opacity: 1.00; stroke: none;">Nov</text><text id="ezcGraphTextBox_29_text" x="282.6400" text-length="34.7200px" y="411.5000" style="font-size: 14px; font-family: 'Arial'; fill: #2e3436; fill-opacity: 1.00; stroke: none;">2021</text></g><g id="ezcGraphTextBox_32"><path d=" M 327.8543,413.3000 L 327.8543,383.7000 L 364.0743,383.7000 L 364.0743,413.3000 L 327.8543,413.3000 z " style="fill: #ffffff; fill-opacity: 0.00; stroke: none;" id="ezcGraphPolygon_132"/><text id="ezcGraphTextBox_32_text" x="334.5843" text-length="22.2600px" y="396.1000" style="font-size: 14px; font-family: 'Arial'; fill: #2e3436; fill-opacity: 1.00; stroke: none;">Jan</text><text id="ezcGraphTextBox_32_text" x="328.3543" text-length="34.7200px" y="411.5000" style="font-size: 14px; font-family: 'Arial'; fill: #2e3436; fill-opacity: 1.00; stroke: none;">2022</text></g><g id="ezcGraphTextBox_35"><path d=" M 373.5686,413.3000 L 373.5686,383.7000 L 409.7886,383.7000 L 409.7886,413.3000 L 373.5686,413.3000 z " style="fill: #ffffff; fill-opacity: 0.00; stroke: none;" id="ezcGraphPolygon_133"/><text id="ezcGraphTextBox_35_text" x="380.2986" text-length="22.2600px" y="396.1000" style="font-size: 14px; font-family: 'Arial'; fill: #2e3436; fill-opacity: 1.00; stroke: none;">Mar</text><text id="ezcGraphTextBox_35_text" x="374.0686" text-length="34.7200px" y="411.5000" style="font-size: 14px; font-family: 'Arial'; fill: #2e3436; fill-opacity: 1.00; stroke: none;">2022</text></g><g id="ezcGraphTextBox_38"><path d=" M 419.2829,413.3000 L 419.2829,383.7000 L 455.5029,383.7000 L 455.5029,413.3000 L 419.2829,413.3000 z " style="fill: #ffffff; fill-opacity: 0.00; stroke: none;" id="ezcGraphPolygon_134"/><text id="ezcGraphTextBox_38_text" x="426.0129" text-length="22.2600px" y="396.1000" style="font-size: 14px; font-family: 'Arial'; fill: #2e3436; fill-opacity: 1.00; stroke: none;">May</text><text id="ezcGraphTextBox_38_text" x="419.7829" text-length="34.7200px" y="411.5000" style="font-size: 14px; font-family: 'Arial'; fill: #2e3436; fill-opacity: 1.00; stroke: none;">2022</text></g><g id="ezcGraphTextBox_43" transform="rotate( 0.00 147.0000 49.0000 )"><path d=" M 141.5000,59.0000 L 141.5000,43.5000 L 387.8600,43.5000 L 387.8600,59.0000 L 141.5000,59.0000 z " style="fill: #ffffff; fill-opacity: 0.00; stroke: none;" id="ezcGraphPolygon_135"/><text id="ezcGraphTextBox_43_text" x="142.0000" text-length="244.8600px" y="55.9000" style="font-size: 14px; font-family: 'Arial'; fill: #2e3436; fill-opacity: 1.00; stroke: none;">Notebooks by "Kernel Family" in %</text></g><g id="ezcGraphTextBox_44"><path d=" M 128.8200,381.2000 L 128.8200,365.7000 L 139.0000,365.7000 L 139.0000,381.2000 L 128.8200,381.2000 z " style="fill: #ffffff; fill-opacity: 0.00; stroke: none;" id="ezcGraphPolygon_136"/><text id="ezcGraphTextBox_44_text" x="129.3200" text-length="8.6800px" y="378.1000" style="font-size: 14px; font-family: 'Arial'; fill: #2e3436; fill-opacity: 1.00; stroke: none;">0</text></g><g id="ezcGraphTextBox_47"><path d=" M 120.1400,230.0000 L 120.1400,214.5000 L 139.0000,214.5000 L 139.0000,230.0000 L 120.1400,230.0000 z " style="fill: #ffffff; fill-opacity: 0.00; stroke: none;" id="ezcGraphPolygon_137"/><text id="ezcGraphTextBox_47_text" x="120.6400" text-length="17.3600px" y="226.9000" style="font-size: 14px; font-family: 'Arial'; fill: #2e3436; fill-opacity: 1.00; stroke: none;">50</text></g><g id="ezcGraphTextBox_50"><path d=" M 111.4600,96.8000 L 111.4600,81.3000 L 139.0000,81.3000 L 139.0000,96.8000 L 111.4600,96.8000 z " style="fill: #ffffff; fill-opacity: 0.00; stroke: none;" id="ezcGraphPolygon_138"/><text id="ezcGraphTextBox_50_text" x="111.9600" text-length="26.0400px" y="93.7000" style="font-size: 14px; font-family: 'Arial'; fill: #2e3436; fill-opacity: 1.00; stroke: none;">100</text></g><g id="ezcGraphTextBox_52"><path d=" M 378.5286,121.9744 L 378.5286,110.4744 L 404.8286,110.4744 L 404.8286,121.9744 L 378.5286,121.9744 z " style="fill: #ffffff; fill-opacity: 0.00; stroke: none;" id="ezcGraphPolygon_139"/><text id="ezcGraphTextBox_52_text" x="379.0286" text-length="24.8000px" y="119.4744" style="font-size: 10px; font-family: 'Arial'; fill: #2e3436; fill-opacity: 1.00; stroke: none;">84.4</text></g><g id="ezcGraphTextBox_54"><path d=" M 424.2429,129.5344 L 424.2429,118.0344 L 450.5429,118.0344 L 450.5429,129.5344 L 424.2429,129.5344 z " style="fill: #ffffff; fill-opacity: 0.00; stroke: none;" id="ezcGraphPolygon_140"/><text id="ezcGraphTextBox_54_text" x="424.7429" text-length="24.8000px" y="127.0344" style="font-size: 10px; font-family: 'Arial'; fill: #2e3436; fill-opacity: 1.00; stroke: none;">81.9</text></g><g id="ezcGraphTextBox_56"><path d=" M 149.9571,166.4272 L 149.9571,154.9272 L 176.2571,154.9272 L 176.2571,166.4272 L 149.9571,166.4272 z " style="fill: #ffffff; fill-opacity: 0.00; stroke: none;" id="ezcGraphPolygon_141"/><text id="ezcGraphTextBox_56_text" x="150.4571" text-length="24.8000px" y="163.9272" style="font-size: 10px; font-family: 'Arial'; fill: #2e3436; fill-opacity: 1.00; stroke: none;">69.7</text></g><g id="ezcGraphTextBox_58"><path d=" M 195.6714,191.2240 L 195.6714,179.7240 L 221.9714,179.7240 L 221.9714,191.2240 L 195.6714,191.2240 z " style="fill: #ffffff; fill-opacity: 0.00; stroke: none;" id="ezcGraphPolygon_142"/><text id="ezcGraphTextBox_58_text" x="196.1714" text-length="24.8000px" y="188.7240" style="font-size: 10px; font-family: 'Arial'; fill: #2e3436; fill-opacity: 1.00; stroke: none;">61.5</text></g><g id="ezcGraphTextBox_60"><path d=" M 241.3857,118.6480 L 241.3857,107.1480 L 267.6857,107.1480 L 267.6857,118.6480 L 241.3857,118.6480 z " style="fill: #ffffff; fill-opacity: 0.00; stroke: none;" id="ezcGraphPolygon_143"/><text id="ezcGraphTextBox_60_text" x="241.8857" text-length="24.8000px" y="116.1480" style="font-size: 10px; font-family: 'Arial'; fill: #2e3436; fill-opacity: 1.00; stroke: none;">85.5</text></g><g id="ezcGraphTextBox_62"><path d=" M 287.1000,119.5552 L 287.1000,108.0552 L 313.4000,108.0552 L 313.4000,119.5552 L 287.1000,119.5552 z " style="fill: #ffffff; fill-opacity: 0.00; stroke: none;" id="ezcGraphPolygon_144"/><text id="ezcGraphTextBox_62_text" x="287.6000" text-length="24.8000px" y="117.0552" style="font-size: 10px; font-family: 'Arial'; fill: #2e3436; fill-opacity: 1.00; stroke: none;">85.2</text></g><g id="ezcGraphTextBox_64"><path d=" M 332.8143,154.6336 L 332.8143,143.1336 L 359.1143,143.1336 L 359.1143,154.6336 L 332.8143,154.6336 z " style="fill: #ffffff; fill-opacity: 0.00; stroke: none;" id="ezcGraphPolygon_145"/><text id="ezcGraphTextBox_64_text" x="333.3143" text-length="24.8000px" y="152.1336" style="font-size: 10px; font-family: 'Arial'; fill: #2e3436; fill-opacity: 1.00; stroke: none;">73.6</text></g><g id="ezcGraphTextBox_66"><path d=" M 387.8286,359.0560 L 387.8286,347.5560 L 395.5286,347.5560 L 395.5286,359.0560 L 387.8286,359.0560 z " style="fill: #ffffff; fill-opacity: 0.00; stroke: none;" id="ezcGraphPolygon_146"/><text id="ezcGraphTextBox_66_text" x="388.3286" text-length="6.2000px" y="356.5560" style="font-size: 10px; font-family: 'Arial'; fill: #2e3436; fill-opacity: 1.00; stroke: none;">6</text></g><g id="ezcGraphTextBox_68"><path d=" M 427.3429,352.1008 L 427.3429,340.6008 L 447.4429,340.6008 L 447.4429,352.1008 L 427.3429,352.1008 z " style="fill: #ffffff; fill-opacity: 0.00; stroke: none;" id="ezcGraphPolygon_147"/><text id="ezcGraphTextBox_68_text" x="427.8429" text-length="18.6000px" y="349.6008" style="font-size: 10px; font-family: 'Arial'; fill: #2e3436; fill-opacity: 1.00; stroke: none;">8.3</text></g><g id="ezcGraphTextBox_70"><path d=" M 290.2000,366.6160 L 290.2000,355.1160 L 310.3000,355.1160 L 310.3000,366.6160 L 290.2000,366.6160 z " style="fill: #ffffff; fill-opacity: 0.00; stroke: none;" id="ezcGraphPolygon_148"/><text id="ezcGraphTextBox_70_text" x="290.7000" text-length="18.6000px" y="364.1160" style="font-size: 10px; font-family: 'Arial'; fill: #2e3436; fill-opacity: 1.00; stroke: none;">3.5</text></g><g id="ezcGraphTextBox_72"><path d=" M 342.1143,353.0080 L 342.1143,341.5080 L 349.8143,341.5080 L 349.8143,353.0080 L 342.1143,353.0080 z " style="fill: #ffffff; fill-opacity: 0.00; stroke: none;" id="ezcGraphPolygon_149"/><text id="ezcGraphTextBox_72_text" x="342.6143" text-length="6.2000px" y="350.5080" style="font-size: 10px; font-family: 'Arial'; fill: #2e3436; fill-opacity: 1.00; stroke: none;">8</text></g><g id="ezcGraphTextBox_74"><path d=" M 381.6286,360.5680 L 381.6286,349.0680 L 401.7286,349.0680 L 401.7286,360.5680 L 381.6286,360.5680 z " style="fill: #ffffff; fill-opacity: 0.00; stroke: none;" id="ezcGraphPolygon_150"/><text id="ezcGraphTextBox_74_text" x="382.1286" text-length="18.6000px" y="358.0680" style="font-size: 10px; font-family: 'Arial'; fill: #2e3436; fill-opacity: 1.00; stroke: none;">5.5</text></g><g id="ezcGraphTextBox_76"><path d=" M 427.3429,366.6160 L 427.3429,355.1160 L 447.4429,355.1160 L 447.4429,366.6160 L 427.3429,366.6160 z " style="fill: #ffffff; fill-opacity: 0.00; stroke: none;" id="ezcGraphPolygon_151"/><text id="ezcGraphTextBox_76_text" x="427.8429" text-length="18.6000px" y="364.1160" style="font-size: 10px; font-family: 'Arial'; fill: #2e3436; fill-opacity: 1.00; stroke: none;">3.5</text></g><g id="ezcGraphTextBox_78"><path d=" M 381.6286,371.7568 L 381.6286,360.2568 L 401.7286,360.2568 L 401.7286,371.7568 L 381.6286,371.7568 z " style="fill: #ffffff; fill-opacity: 0.00; stroke: none;" id="ezcGraphPolygon_152"/><text id="ezcGraphTextBox_78_text" x="382.1286" text-length="18.6000px" y="369.2568" style="font-size: 10px; font-family: 'Arial'; fill: #2e3436; fill-opacity: 1.00; stroke: none;">1.8</text></g><g id="ezcGraphTextBox_80"><path d=" M 427.3429,370.8496 L 427.3429,359.3496 L 447.4429,359.3496 L 447.4429,370.8496 L 427.3429,370.8496 z " style="fill: #ffffff; fill-opacity: 0.00; stroke: none;" id="ezcGraphPolygon_153"/><text id="ezcGraphTextBox_80_text" x="427.8429" text-length="18.6000px" y="368.3496" style="font-size: 10px; font-family: 'Arial'; fill: #2e3436; fill-opacity: 1.00; stroke: none;">2.1</text></g><g id="ezcGraphTextBox_82"><path d=" M 427.3429,372.9664 L 427.3429,361.4664 L 447.4429,361.4664 L 447.4429,372.9664 L 427.3429,372.9664 z " style="fill: #ffffff; fill-opacity: 0.00; stroke: none;" id="ezcGraphPolygon_154"/><text id="ezcGraphTextBox_82_text" x="427.8429" text-length="18.6000px" y="370.4664" style="font-size: 10px; font-family: 'Arial'; fill: #2e3436; fill-opacity: 1.00; stroke: none;">1.4</text></g><g id="ezcGraphTextBox_84"><path d=" M 149.9571,285.5728 L 149.9571,274.0728 L 176.2571,274.0728 L 176.2571,285.5728 L 149.9571,285.5728 z " style="fill: #ffffff; fill-opacity: 0.00; stroke: none;" id="ezcGraphPolygon_155"/><text id="ezcGraphTextBox_84_text" x="150.4571" text-length="24.8000px" y="283.0728" style="font-size: 10px; font-family: 'Arial'; fill: #2e3436; fill-opacity: 1.00; stroke: none;">30.3</text></g><g id="ezcGraphTextBox_86"><path d=" M 195.6714,260.7760 L 195.6714,249.2760 L 221.9714,249.2760 L 221.9714,260.7760 L 195.6714,260.7760 z " style="fill: #ffffff; fill-opacity: 0.00; stroke: none;" id="ezcGraphPolygon_156"/><text id="ezcGraphTextBox_86_text" x="196.1714" text-length="24.8000px" y="258.2760" style="font-size: 10px; font-family: 'Arial'; fill: #2e3436; fill-opacity: 1.00; stroke: none;">38.5</text></g><g id="ezcGraphTextBox_88"><path d=" M 241.3857,333.3520 L 241.3857,321.8520 L 267.6857,321.8520 L 267.6857,333.3520 L 241.3857,333.3520 z " style="fill: #ffffff; fill-opacity: 0.00; stroke: none;" id="ezcGraphPolygon_157"/><text id="ezcGraphTextBox_88_text" x="241.8857" text-length="24.8000px" y="330.8520" style="font-size: 10px; font-family: 'Arial'; fill: #2e3436; fill-opacity: 1.00; stroke: none;">14.5</text></g><g id="ezcGraphTextBox_90"><path d=" M 287.1000,343.0288 L 287.1000,331.5288 L 313.4000,331.5288 L 313.4000,343.0288 L 287.1000,343.0288 z " style="fill: #ffffff; fill-opacity: 0.00; stroke: none;" id="ezcGraphPolygon_158"/><text id="ezcGraphTextBox_90_text" x="287.6000" text-length="24.8000px" y="340.5288" style="font-size: 10px; font-family: 'Arial'; fill: #2e3436; fill-opacity: 1.00; stroke: none;">11.3</text></g><g id="ezcGraphTextBox_92"><path d=" M 332.8143,321.5584 L 332.8143,310.0584 L 359.1143,310.0584 L 359.1143,321.5584 L 332.8143,321.5584 z " style="fill: #ffffff; fill-opacity: 0.00; stroke: none;" id="ezcGraphPolygon_159"/><text id="ezcGraphTextBox_92_text" x="333.3143" text-length="24.8000px" y="319.0584" style="font-size: 10px; font-family: 'Arial'; fill: #2e3436; fill-opacity: 1.00; stroke: none;">18.4</text></g><g id="ezcGraphTextBox_94"><path d=" M 381.6286,370.2448 L 381.6286,358.7448 L 401.7286,358.7448 L 401.7286,370.2448 L 381.6286,370.2448 z " style="fill: #ffffff; fill-opacity: 0.00; stroke: none;" id="ezcGraphPolygon_160"/><text id="ezcGraphTextBox_94_text" x="382.1286" text-length="18.6000px" y="367.7448" style="font-size: 10px; font-family: 'Arial'; fill: #2e3436; fill-opacity: 1.00; stroke: none;">2.3</text></g><g id="ezcGraphTextBox_96"><path d=" M 427.3429,368.7328 L 427.3429,357.2328 L 447.4429,357.2328 L 447.4429,368.7328 L 427.3429,368.7328 z " style="fill: #ffffff; fill-opacity: 0.00; stroke: none;" id="ezcGraphPolygon_161"/><text id="ezcGraphTextBox_96_text" x="427.8429" text-length="18.6000px" y="366.2328" style="font-size: 10px; font-family: 'Arial'; fill: #2e3436; fill-opacity: 1.00; stroke: none;">2.8</text></g></g></svg>
