<?xml version="1.0"?>
<svg xmlns="http://www.w3.org/2000/svg" width="500" height="420" version="1.0" id="ezcGraph"><defs/><g id="ezcGraphChart" color-rendering="optimizeQuality" shape-rendering="geometricPrecision" text-rendering="optimizeLegibility"><path d=" M 0.0000,420.0000 L 0.0000,0.0000 L 500.0000,0.0000 L 500.0000,420.0000 L 0.0000,420.0000 z " style="fill: #eeeeec; fill-opacity: 1.00; stroke: none;" id="ezcGraphPolygon_1"/><path d=" M 0.0000,42.0000 L 0.0000,0.0000 L 500.0000,0.0000 L 500.0000,42.0000 L 0.0000,42.0000 z " style="fill: #000000; fill-opacity: 0.00; stroke: none;" id="ezcGraphPolygon_2"/><path d="M 259.06,239.61 L 371.56,239.61 A 112.50,112.50 0 0,1 264.76,351.97 z" style="fill: #3465a4; fill-opacity: 1.00; stroke: none; cursor: pointer;" id="ezcGraphCircleSector_4" onclick="top.location = 'https://linux-hardware.org/?view=computers&amp;f=mon_diagonal&amp;v=15&amp;p=-1'"/><path d="M 259.59,240.11 L 371.06,240.11 A 112.00,112.00 0 0,1 265.23,351.44 z" style="fill: none; stroke: #1a3352; stroke-width: 1; stroke-opacity: 1.00; stroke-linecap: round; stroke-linejoin: round;" id="ezcGraphCircleSector_5"/><path d="M 250.00,231.00 L 255.70,343.36 A 112.50,112.50 0 0,1 172.49,312.54 z" style="fill: #4e9a06; fill-opacity: 1.00; stroke: none; cursor: pointer;" id="ezcGraphCircleSector_6" onclick="top.location = 'https://linux-hardware.org/?view=computers&amp;f=mon_diagonal&amp;v=27&amp;p=-1'"/><path d="M 249.56,232.19 L 255.17,342.88 A 112.00,112.00 0 0,1 173.20,312.52 z" style="fill: none; stroke: #274d03; stroke-width: 1; stroke-opacity: 1.00; stroke-linecap: round; stroke-linejoin: round;" id="ezcGraphCircleSector_7"/><path d="M 250.00,231.00 L 172.49,312.54 A 112.50,112.50 0 0,1 137.50,231.00 z" style="fill: #cc0000; fill-opacity: 1.00; stroke: none; cursor: pointer;" id="ezcGraphCircleSector_8" onclick="top.location = 'https://linux-hardware.org/?view=computers&amp;f=mon_diagonal&amp;v=23&amp;p=-1'"/><path d="M 248.83,231.50 L 172.47,311.83 A 112.00,112.00 0 0,1 138.00,231.50 z" style="fill: none; stroke: #660000; stroke-width: 1; stroke-opacity: 1.00; stroke-linecap: round; stroke-linejoin: round;" id="ezcGraphCircleSector_9"/><path d="M 250.00,231.00 L 137.50,231.00 A 112.50,112.50 0 0,1 172.49,149.46 z" style="fill: #edd400; fill-opacity: 1.00; stroke: none; cursor: pointer;" id="ezcGraphCircleSector_10" onclick="top.location = 'https://linux-hardware.org/?view=computers&amp;f=mon_diagonal&amp;v=14&amp;p=-1'"/><path d="M 248.83,230.50 L 138.00,230.50 A 112.00,112.00 0 0,1 172.47,150.17 z" style="fill: none; stroke: #776a00; stroke-width: 1; stroke-opacity: 1.00; stroke-linecap: round; stroke-linejoin: round;" id="ezcGraphCircleSector_11"/><path d="M 250.00,231.00 L 172.49,149.46 A 112.50,112.50 0 0,1 244.30,118.64 z" style="fill: #75505b; fill-opacity: 1.00; stroke: none; cursor: pointer;" id="ezcGraphCircleSector_12" onclick="top.location = 'https://linux-hardware.org/?view=computers&amp;f=mon_diagonal&amp;v=24&amp;p=-1'"/><path d="M 249.43,229.68 L 173.20,149.48 A 112.00,112.00 0 0,1 243.83,119.17 z" style="fill: none; stroke: #3b282e; stroke-width: 1; stroke-opacity: 1.00; stroke-linecap: round; stroke-linejoin: round;" id="ezcGraphCircleSector_13"/><path d="M 250.00,231.00 L 244.30,118.64 A 112.50,112.50 0 0,1 362.50,231.00 z" style="fill: #f57900; fill-opacity: 1.00; stroke: none;" id="ezcGraphCircleSector_14"/><path d="M 250.48,230.50 L 244.83,119.12 A 112.00,112.00 0 0,1 362.00,230.50 z" style="fill: none; stroke: #7b3d00; stroke-width: 1; stroke-opacity: 1.00; stroke-linecap: round; stroke-linejoin: round;" id="ezcGraphCircleSector_15"/><path d=" M 217.1370,154.4202 L 195.0102,116.0000" style="fill: none; stroke: #000000; stroke-width: 1; stroke-opacity: 1.00; stroke-linecap: round; stroke-linejoin: round;" id="ezcGraphLine_16"/><ellipse cx="217.1370" cy="154.4202" rx="3.0000" ry="3.0000" style="fill: #000000; fill-opacity: 1.00; stroke: none;" id="ezcGraphCircle_17"/><ellipse cx="195.0102" cy="116.0000" rx="3.0000" ry="3.0000" style="fill: #000000; fill-opacity: 1.00; stroke: none;" id="ezcGraphCircle_18"/><path d=" M 173.4202,198.1370 L 129.4356,181.0000" style="fill: none; stroke: #000000; stroke-width: 1; stroke-opacity: 1.00; stroke-linecap: round; stroke-linejoin: round;" id="ezcGraphLine_20"/><ellipse cx="173.4202" cy="198.1370" rx="3.0000" ry="3.0000" style="fill: #000000; fill-opacity: 1.00; stroke: none;" id="ezcGraphCircle_21"/><ellipse cx="129.4356" cy="181.0000" rx="3.0000" ry="3.0000" style="fill: #000000; fill-opacity: 1.00; stroke: none;" id="ezcGraphCircle_22"/><path d=" M 173.4202,263.8630 L 129.0043,280.0000" style="fill: none; stroke: #000000; stroke-width: 1; stroke-opacity: 1.00; stroke-linecap: round; stroke-linejoin: round;" id="ezcGraphLine_24"/><ellipse cx="173.4202" cy="263.8630" rx="3.0000" ry="3.0000" style="fill: #000000; fill-opacity: 1.00; stroke: none;" id="ezcGraphCircle_25"/><ellipse cx="129.0043" cy="280.0000" rx="3.0000" ry="3.0000" style="fill: #000000; fill-opacity: 1.00; stroke: none;" id="ezcGraphCircle_26"/><path d=" M 221.0579,309.1460 L 200.0000,348.0000" style="fill: none; stroke: #000000; stroke-width: 1; stroke-opacity: 1.00; stroke-linecap: round; stroke-linejoin: round;" id="ezcGraphLine_28"/><ellipse cx="221.0579" cy="309.1460" rx="3.0000" ry="3.0000" style="fill: #000000; fill-opacity: 1.00; stroke: none;" id="ezcGraphCircle_29"/><ellipse cx="200.0000" cy="348.0000" rx="3.0000" ry="3.0000" style="fill: #000000; fill-opacity: 1.00; stroke: none;" id="ezcGraphCircle_30"/><path d=" M 307.4139,170.6006 L 341.6971,140.0000" style="fill: none; stroke: #000000; stroke-width: 1; stroke-opacity: 1.00; stroke-linecap: round; stroke-linejoin: round;" id="ezcGraphLine_32"/><ellipse cx="307.4139" cy="170.6006" rx="3.0000" ry="3.0000" style="fill: #000000; fill-opacity: 1.00; stroke: none;" id="ezcGraphCircle_33"/><ellipse cx="341.6971" cy="140.0000" rx="3.0000" ry="3.0000" style="fill: #000000; fill-opacity: 1.00; stroke: none;" id="ezcGraphCircle_34"/><path d=" M 319.4593,297.0260 L 338.3954,325.0000" style="fill: none; stroke: #000000; stroke-width: 1; stroke-opacity: 1.00; stroke-linecap: round; stroke-linejoin: round;" id="ezcGraphLine_36"/><ellipse cx="319.4593" cy="297.0260" rx="3.0000" ry="3.0000" style="fill: #000000; fill-opacity: 1.00; stroke: none;" id="ezcGraphCircle_37"/><ellipse cx="338.3954" cy="325.0000" rx="3.0000" ry="3.0000" style="fill: #000000; fill-opacity: 1.00; stroke: none;" id="ezcGraphCircle_38"/><g id="ezcGraphTextBox_3"><path d=" M 79.9000,42.0000 L 79.9000,0.5000 L 420.6000,0.5000 L 420.6000,42.0000 L 79.9000,42.0000 z " style="fill: #ffffff; fill-opacity: 0.00; stroke: none;" id="ezcGraphPolygon_40"/><text id="ezcGraphTextBox_3_text" x="80.4000" text-length="339.2000px" y="35.0000" style="font-size: 40px; font-family: 'Arial'; fill: #2e3436; fill-opacity: 1.00; stroke: none;">Monitor Diagonal</text></g><g id="ezcGraphTextBox_19" style=" cursor: pointer;" onclick="top.location = 'https://linux-hardware.org/?view=computers&amp;f=mon_diagonal&amp;v=24&amp;p=-1'"><path d=" M 53.3602,125.5000 L 53.3602,107.0000 L 190.0102,107.0000 L 190.0102,125.5000 L 53.3602,125.5000 z " style="fill: #ffffff; fill-opacity: 0.00; stroke: none;" id="ezcGraphPolygon_41"/><text id="ezcGraphTextBox_19_text" x="53.8602" text-length="135.1500px" y="121.9500" style="font-size: 17px; font-family: 'Arial'; fill: #2e3436; fill-opacity: 1.00; stroke: none;">24-inch (11.3%)</text></g><g id="ezcGraphTextBox_23" style=" cursor: pointer;" onclick="top.location = 'https://linux-hardware.org/?view=computers&amp;f=mon_diagonal&amp;v=14&amp;p=-1'"><path d=" M 59.8656,199.0500 L 59.8656,163.4500 L 124.4356,163.4500 L 124.4356,199.0500 L 59.8656,199.0500 z " style="fill: #ffffff; fill-opacity: 0.00; stroke: none;" id="ezcGraphPolygon_42"/><text id="ezcGraphTextBox_23_text" x="60.3656" text-length="63.0700px" y="178.4000" style="font-size: 17px; font-family: 'Arial'; fill: #2e3436; fill-opacity: 1.00; stroke: none;">14-inch</text><text id="ezcGraphTextBox_23_text" x="60.3656" text-length="63.0700px" y="197.1000" style="font-size: 17px; font-family: 'Arial'; fill: #2e3436; fill-opacity: 1.00; stroke: none;">(12.9%)</text></g><g id="ezcGraphTextBox_27" style=" cursor: pointer;" onclick="top.location = 'https://linux-hardware.org/?view=computers&amp;f=mon_diagonal&amp;v=23&amp;p=-1'"><path d=" M 59.4343,298.0500 L 59.4343,262.4500 L 124.0043,262.4500 L 124.0043,298.0500 L 59.4343,298.0500 z " style="fill: #ffffff; fill-opacity: 0.00; stroke: none;" id="ezcGraphPolygon_43"/><text id="ezcGraphTextBox_27_text" x="59.9343" text-length="63.0700px" y="277.4000" style="font-size: 17px; font-family: 'Arial'; fill: #2e3436; fill-opacity: 1.00; stroke: none;">23-inch</text><text id="ezcGraphTextBox_27_text" x="59.9343" text-length="63.0700px" y="296.1000" style="font-size: 17px; font-family: 'Arial'; fill: #2e3436; fill-opacity: 1.00; stroke: none;">(12.9%)</text></g><g id="ezcGraphTextBox_31" style=" cursor: pointer;" onclick="top.location = 'https://linux-hardware.org/?view=computers&amp;f=mon_diagonal&amp;v=27&amp;p=-1'"><path d=" M 58.3500,357.5000 L 58.3500,339.0000 L 195.0000,339.0000 L 195.0000,357.5000 L 58.3500,357.5000 z " style="fill: #ffffff; fill-opacity: 0.00; stroke: none;" id="ezcGraphPolygon_44"/><text id="ezcGraphTextBox_31_text" x="58.8500" text-length="135.1500px" y="353.9500" style="font-size: 17px; font-family: 'Arial'; fill: #2e3436; fill-opacity: 1.00; stroke: none;">27-inch (12.9%)</text></g><g id="ezcGraphTextBox_35"><path d=" M 347.1971,149.5000 L 347.1971,131.0000 L 474.8371,131.0000 L 474.8371,149.5000 L 347.1971,149.5000 z " style="fill: #ffffff; fill-opacity: 0.00; stroke: none;" id="ezcGraphPolygon_45"/><text id="ezcGraphTextBox_35_text" x="347.6971" text-length="126.1400px" y="145.9500" style="font-size: 17px; font-family: 'Arial'; fill: #2e3436; fill-opacity: 1.00; stroke: none;">Others (25.8%)</text></g><g id="ezcGraphTextBox_39" style=" cursor: pointer;" onclick="top.location = 'https://linux-hardware.org/?view=computers&amp;f=mon_diagonal&amp;v=15&amp;p=-1'"><path d=" M 343.8954,334.5000 L 343.8954,316.0000 L 480.5454,316.0000 L 480.5454,334.5000 L 343.8954,334.5000 z " style="fill: #ffffff; fill-opacity: 0.00; stroke: none;" id="ezcGraphPolygon_46"/><text id="ezcGraphTextBox_39_text" x="344.3954" text-length="135.1500px" y="330.9500" style="font-size: 17px; font-family: 'Arial'; fill: #2e3436; fill-opacity: 1.00; stroke: none;">15-inch (24.2%)</text></g></g></svg>
