<?xml version="1.0"?>
<svg xmlns="http://www.w3.org/2000/svg" width="500" height="420" version="1.0" id="ezcGraph"><defs/><g id="ezcGraphChart" color-rendering="optimizeQuality" shape-rendering="geometricPrecision" text-rendering="optimizeLegibility"><path d=" M 0.0000,420.0000 L 0.0000,0.0000 L 500.0000,0.0000 L 500.0000,420.0000 L 0.0000,420.0000 z " style="fill: #eeeeec; fill-opacity: 1.00; stroke: none;" id="ezcGraphPolygon_1"/><path d=" M 0.0000,42.0000 L 0.0000,0.0000 L 500.0000,0.0000 L 500.0000,42.0000 L 0.0000,42.0000 z " style="fill: #000000; fill-opacity: 0.00; stroke: none;" id="ezcGraphPolygon_2"/><path d=" M 0.0000,420.0000 L 0.0000,42.0000 L 100.0000,42.0000 L 100.0000,420.0000 L 0.0000,420.0000 z " style="fill: #000000; fill-opacity: 0.00; stroke: none;" id="ezcGraphPolygon_4"/><path d=" M 2.0000,58.0000 L 2.0000,44.0000 L 16.0000,44.0000 L 16.0000,58.0000 L 2.0000,58.0000 z " style="fill: #3465a4; fill-opacity: 1.00; stroke: none; cursor: pointer;" id="ezcGraphPolygon_5" onclick="top.location = 'https://linux-hardware.org/?view=computers&amp;type=notebook&amp;f=drive_ssd_vendor&amp;v=Samsung+Electronics&amp;p=-1'"/><path d=" M 2.0000,76.0000 L 2.0000,62.0000 L 16.0000,62.0000 L 16.0000,76.0000 L 2.0000,76.0000 z " style="fill: #4e9a06; fill-opacity: 1.00; stroke: none; cursor: pointer;" id="ezcGraphPolygon_7" onclick="top.location = 'https://linux-hardware.org/?view=computers&amp;type=notebook&amp;f=drive_ssd_vendor&amp;v=Kingston&amp;p=-1'"/><path d=" M 2.0000,94.0000 L 2.0000,80.0000 L 16.0000,80.0000 L 16.0000,94.0000 L 2.0000,94.0000 z " style="fill: #cc0000; fill-opacity: 1.00; stroke: none; cursor: pointer;" id="ezcGraphPolygon_9" onclick="top.location = 'https://linux-hardware.org/?view=computers&amp;type=notebook&amp;f=drive_ssd_vendor&amp;v=WDC&amp;p=-1'"/><path d=" M 2.0000,112.0000 L 2.0000,98.0000 L 16.0000,98.0000 L 16.0000,112.0000 L 2.0000,112.0000 z " style="fill: #edd400; fill-opacity: 1.00; stroke: none; cursor: pointer;" id="ezcGraphPolygon_11" onclick="top.location = 'https://linux-hardware.org/?view=computers&amp;type=notebook&amp;f=drive_ssd_vendor&amp;v=PNY&amp;p=-1'"/><path d=" M 2.0000,130.0000 L 2.0000,116.0000 L 16.0000,116.0000 L 16.0000,130.0000 L 2.0000,130.0000 z " style="fill: #75505b; fill-opacity: 1.00; stroke: none; cursor: pointer;" id="ezcGraphPolygon_13" onclick="top.location = 'https://linux-hardware.org/?view=computers&amp;type=notebook&amp;f=drive_ssd_vendor&amp;v=KingSpec&amp;p=-1'"/><path d=" M 2.0000,148.0000 L 2.0000,134.0000 L 16.0000,134.0000 L 16.0000,148.0000 L 2.0000,148.0000 z " style="fill: #f57900; fill-opacity: 1.00; stroke: none;" id="ezcGraphPolygon_15"/><path d=" M 100.0000,382.2000 L 500.0000,382.2000" style="fill: none; stroke: #2e3436; stroke-width: 1; stroke-opacity: 1.00; stroke-linecap: round; stroke-linejoin: round;" id="ezcGraphLine_17"/><path d=" M 492.0000,378.2000 L 500.0000,382.2000 L 492.0000,386.2000 L 492.0000,378.2000 z " style="fill: #2e3436; fill-opacity: 1.00; stroke: none;" id="ezcGraphPolygon_18"/><path d=" M 185.7143,79.8000 L 185.7143,382.2000" style="fill: none; stroke: #000000; stroke-width: 1; stroke-opacity: 0.00; stroke-linecap: round; stroke-linejoin: round;" id="ezcGraphLine_21"/><path d=" M 185.7143,379.2000 L 185.7143,385.2000" style="fill: none; stroke: #2e3436; stroke-width: 1; stroke-opacity: 1.00; stroke-linecap: round; stroke-linejoin: round;" id="ezcGraphLine_22"/><path d=" M 231.4286,79.8000 L 231.4286,382.2000" style="fill: none; stroke: #000000; stroke-width: 1; stroke-opacity: 0.00; stroke-linecap: round; stroke-linejoin: round;" id="ezcGraphLine_24"/><path d=" M 231.4286,379.2000 L 231.4286,385.2000" style="fill: none; stroke: #2e3436; stroke-width: 1; stroke-opacity: 1.00; stroke-linecap: round; stroke-linejoin: round;" id="ezcGraphLine_25"/><path d=" M 277.1429,79.8000 L 277.1429,382.2000" style="fill: none; stroke: #000000; stroke-width: 1; stroke-opacity: 0.00; stroke-linecap: round; stroke-linejoin: round;" id="ezcGraphLine_27"/><path d=" M 277.1429,379.2000 L 277.1429,385.2000" style="fill: none; stroke: #2e3436; stroke-width: 1; stroke-opacity: 1.00; stroke-linecap: round; stroke-linejoin: round;" id="ezcGraphLine_28"/><path d=" M 322.8571,79.8000 L 322.8571,382.2000" style="fill: none; stroke: #000000; stroke-width: 1; stroke-opacity: 0.00; stroke-linecap: round; stroke-linejoin: round;" id="ezcGraphLine_30"/><path d=" M 322.8571,379.2000 L 322.8571,385.2000" style="fill: none; stroke: #2e3436; stroke-width: 1; stroke-opacity: 1.00; stroke-linecap: round; stroke-linejoin: round;" id="ezcGraphLine_31"/><path d=" M 368.5714,79.8000 L 368.5714,382.2000" style="fill: none; stroke: #000000; stroke-width: 1; stroke-opacity: 0.00; stroke-linecap: round; stroke-linejoin: round;" id="ezcGraphLine_33"/><path d=" M 368.5714,379.2000 L 368.5714,385.2000" style="fill: none; stroke: #2e3436; stroke-width: 1; stroke-opacity: 1.00; stroke-linecap: round; stroke-linejoin: round;" id="ezcGraphLine_34"/><path d=" M 414.2857,79.8000 L 414.2857,382.2000" style="fill: none; stroke: #000000; stroke-width: 1; stroke-opacity: 0.00; stroke-linecap: round; stroke-linejoin: round;" id="ezcGraphLine_36"/><path d=" M 414.2857,379.2000 L 414.2857,385.2000" style="fill: none; stroke: #2e3436; stroke-width: 1; stroke-opacity: 1.00; stroke-linecap: round; stroke-linejoin: round;" id="ezcGraphLine_37"/><path d=" M 460.0000,79.8000 L 460.0000,382.2000" style="fill: none; stroke: #000000; stroke-width: 1; stroke-opacity: 0.00; stroke-linecap: round; stroke-linejoin: round;" id="ezcGraphLine_39"/><path d=" M 460.0000,379.2000 L 460.0000,385.2000" style="fill: none; stroke: #2e3436; stroke-width: 1; stroke-opacity: 1.00; stroke-linecap: round; stroke-linejoin: round;" id="ezcGraphLine_40"/><path d=" M 140.0000,420.0000 L 140.0000,42.0000" style="fill: none; stroke: #2e3436; stroke-width: 1; stroke-opacity: 1.00; stroke-linecap: round; stroke-linejoin: round;" id="ezcGraphLine_41"/><path d=" M 136.0000,50.0000 L 140.0000,42.0000 L 144.0000,50.0000 L 136.0000,50.0000 z " style="fill: #2e3436; fill-opacity: 1.00; stroke: none;" id="ezcGraphPolygon_42"/><path d=" M 140.0000,231.0000 L 460.0000,231.0000" style="fill: none; stroke: #000000; stroke-width: 1; stroke-opacity: 0.00; stroke-linecap: round; stroke-linejoin: round;" id="ezcGraphLine_45"/><path d=" M 140.0000,231.0000 L 143.0000,231.0000" style="fill: none; stroke: #2e3436; stroke-width: 1; stroke-opacity: 1.00; stroke-linecap: round; stroke-linejoin: round;" id="ezcGraphLine_46"/><path d=" M 140.0000,79.8000 L 460.0000,79.8000" style="fill: none; stroke: #000000; stroke-width: 1; stroke-opacity: 0.00; stroke-linecap: round; stroke-linejoin: round;" id="ezcGraphLine_48"/><path d=" M 140.0000,79.8000 L 143.0000,79.8000" style="fill: none; stroke: #2e3436; stroke-width: 1; stroke-opacity: 1.00; stroke-linecap: round; stroke-linejoin: round;" id="ezcGraphLine_49"/><path d=" M 162.8571,327.1632 L 162.8571,327.1632" style="fill: none; stroke: #3465a4; stroke-width: 1; stroke-opacity: 1.00; stroke-linecap: round; stroke-linejoin: round;" id="ezcGraphLine_51"/><path d=" M 162.8571,327.1632 L 208.5714,291.4800" style="fill: none; stroke: #3465a4; stroke-width: 1; stroke-opacity: 1.00; stroke-linecap: round; stroke-linejoin: round;" id="ezcGraphLine_53"/><path d=" M 208.5714,291.4800 L 254.2857,315.0672" style="fill: none; stroke: #3465a4; stroke-width: 1; stroke-opacity: 1.00; stroke-linecap: round; stroke-linejoin: round;" id="ezcGraphLine_55"/><path d=" M 254.2857,315.0672 L 300.0000,79.8000" style="fill: none; stroke: #3465a4; stroke-width: 1; stroke-opacity: 1.00; stroke-linecap: round; stroke-linejoin: round;" id="ezcGraphLine_57"/><path d=" M 300.0000,79.8000 L 345.7143,244.6080" style="fill: none; stroke: #3465a4; stroke-width: 1; stroke-opacity: 1.00; stroke-linecap: round; stroke-linejoin: round;" id="ezcGraphLine_59"/><path d=" M 345.7143,244.6080 L 391.4286,200.7600" style="fill: none; stroke: #3465a4; stroke-width: 1; stroke-opacity: 1.00; stroke-linecap: round; stroke-linejoin: round;" id="ezcGraphLine_61"/><path d=" M 391.4286,200.7600 L 437.1429,272.1264" style="fill: none; stroke: #3465a4; stroke-width: 1; stroke-opacity: 1.00; stroke-linecap: round; stroke-linejoin: round;" id="ezcGraphLine_63"/><path d=" M 208.5714,321.7200 L 208.5714,321.7200" style="fill: none; stroke: #4e9a06; stroke-width: 1; stroke-opacity: 1.00; stroke-linecap: round; stroke-linejoin: round;" id="ezcGraphLine_65"/><path d=" M 208.5714,321.7200 L 254.2857,315.0672" style="fill: none; stroke: #4e9a06; stroke-width: 1; stroke-opacity: 1.00; stroke-linecap: round; stroke-linejoin: round;" id="ezcGraphLine_67"/><path d=" M 254.2857,315.0672 L 345.7143,354.6816" style="fill: none; stroke: #4e9a06; stroke-width: 1; stroke-opacity: 1.00; stroke-linecap: round; stroke-linejoin: round;" id="ezcGraphLine_69"/><path d=" M 345.7143,354.6816 L 391.4286,351.9600" style="fill: none; stroke: #4e9a06; stroke-width: 1; stroke-opacity: 1.00; stroke-linecap: round; stroke-linejoin: round;" id="ezcGraphLine_71"/><path d=" M 391.4286,351.9600 L 437.1429,327.1632" style="fill: none; stroke: #4e9a06; stroke-width: 1; stroke-opacity: 1.00; stroke-linecap: round; stroke-linejoin: round;" id="ezcGraphLine_73"/><path d=" M 437.1429,354.6816 L 437.1429,354.6816" style="fill: none; stroke: #cc0000; stroke-width: 1; stroke-opacity: 1.00; stroke-linecap: round; stroke-linejoin: round;" id="ezcGraphLine_75"/><path d=" M 437.1429,354.6816 L 437.1429,354.6816" style="fill: none; stroke: #edd400; stroke-width: 1; stroke-opacity: 1.00; stroke-linecap: round; stroke-linejoin: round;" id="ezcGraphLine_77"/><path d=" M 254.2857,348.6336 L 254.2857,348.6336" style="fill: none; stroke: #75505b; stroke-width: 1; stroke-opacity: 1.00; stroke-linecap: round; stroke-linejoin: round;" id="ezcGraphLine_79"/><path d=" M 254.2857,348.6336 L 437.1429,354.6816" style="fill: none; stroke: #75505b; stroke-width: 1; stroke-opacity: 1.00; stroke-linecap: round; stroke-linejoin: round;" id="ezcGraphLine_81"/><path d=" M 162.8571,134.8368 L 162.8571,134.8368" style="fill: none; stroke: #f57900; stroke-width: 1; stroke-opacity: 1.00; stroke-linecap: round; stroke-linejoin: round;" id="ezcGraphLine_83"/><path d=" M 162.8571,134.8368 L 208.5714,231.0000" style="fill: none; stroke: #f57900; stroke-width: 1; stroke-opacity: 1.00; stroke-linecap: round; stroke-linejoin: round;" id="ezcGraphLine_85"/><path d=" M 208.5714,231.0000 L 254.2857,247.9344" style="fill: none; stroke: #f57900; stroke-width: 1; stroke-opacity: 1.00; stroke-linecap: round; stroke-linejoin: round;" id="ezcGraphLine_87"/><path d=" M 254.2857,247.9344 L 345.7143,244.6080" style="fill: none; stroke: #f57900; stroke-width: 1; stroke-opacity: 1.00; stroke-linecap: round; stroke-linejoin: round;" id="ezcGraphLine_89"/><path d=" M 345.7143,244.6080 L 391.4286,291.4800" style="fill: none; stroke: #f57900; stroke-width: 1; stroke-opacity: 1.00; stroke-linecap: round; stroke-linejoin: round;" id="ezcGraphLine_91"/><path d=" M 391.4286,291.4800 L 437.1429,327.1632" style="fill: none; stroke: #f57900; stroke-width: 1; stroke-opacity: 1.00; stroke-linecap: round; stroke-linejoin: round;" id="ezcGraphLine_93"/><path d=" M 159.8571,330.1632 L 159.8571,324.1632 L 165.8571,324.1632 L 165.8571,330.1632 L 159.8571,330.1632 z " style="fill: #3465a4; fill-opacity: 1.00; stroke: none; cursor: pointer;" id="ezcGraphPolygon_95" onclick="top.location = 'https://linux-hardware.org/?view=computers&amp;type=notebook&amp;f=drive_ssd_vendor&amp;v=Samsung+Electronics&amp;p=-1&amp;p=106'"/><path d=" M 205.5714,294.4800 L 205.5714,288.4800 L 211.5714,288.4800 L 211.5714,294.4800 L 205.5714,294.4800 z " style="fill: #3465a4; fill-opacity: 1.00; stroke: none; cursor: pointer;" id="ezcGraphPolygon_96" onclick="top.location = 'https://linux-hardware.org/?view=computers&amp;type=notebook&amp;f=drive_ssd_vendor&amp;v=Samsung+Electronics&amp;p=-1&amp;p=108'"/><path d=" M 251.2857,318.0672 L 251.2857,312.0672 L 257.2857,312.0672 L 257.2857,318.0672 L 251.2857,318.0672 z " style="fill: #3465a4; fill-opacity: 1.00; stroke: none; cursor: pointer;" id="ezcGraphPolygon_97" onclick="top.location = 'https://linux-hardware.org/?view=computers&amp;type=notebook&amp;f=drive_ssd_vendor&amp;v=Samsung+Electronics&amp;p=-1&amp;p=110'"/><path d=" M 297.0000,82.8000 L 297.0000,76.8000 L 303.0000,76.8000 L 303.0000,82.8000 L 297.0000,82.8000 z " style="fill: #3465a4; fill-opacity: 1.00; stroke: none; cursor: pointer;" id="ezcGraphPolygon_98" onclick="top.location = 'https://linux-hardware.org/?view=computers&amp;type=notebook&amp;f=drive_ssd_vendor&amp;v=Samsung+Electronics&amp;p=-1&amp;p=112'"/><path d=" M 342.7143,247.6080 L 342.7143,241.6080 L 348.7143,241.6080 L 348.7143,247.6080 L 342.7143,247.6080 z " style="fill: #3465a4; fill-opacity: 1.00; stroke: none; cursor: pointer;" id="ezcGraphPolygon_99" onclick="top.location = 'https://linux-hardware.org/?view=computers&amp;type=notebook&amp;f=drive_ssd_vendor&amp;v=Samsung+Electronics&amp;p=-1&amp;p=114'"/><path d=" M 388.4286,203.7600 L 388.4286,197.7600 L 394.4286,197.7600 L 394.4286,203.7600 L 388.4286,203.7600 z " style="fill: #3465a4; fill-opacity: 1.00; stroke: none; cursor: pointer;" id="ezcGraphPolygon_100" onclick="top.location = 'https://linux-hardware.org/?view=computers&amp;type=notebook&amp;f=drive_ssd_vendor&amp;v=Samsung+Electronics&amp;p=-1&amp;p=116'"/><path d=" M 434.1429,275.1264 L 434.1429,269.1264 L 440.1429,269.1264 L 440.1429,275.1264 L 434.1429,275.1264 z " style="fill: #3465a4; fill-opacity: 1.00; stroke: none; cursor: pointer;" id="ezcGraphPolygon_101" onclick="top.location = 'https://linux-hardware.org/?view=computers&amp;type=notebook&amp;f=drive_ssd_vendor&amp;v=Samsung+Electronics&amp;p=-1&amp;p=118'"/><path d=" M 205.5714,324.7200 L 205.5714,318.7200 L 211.5714,318.7200 L 211.5714,324.7200 L 205.5714,324.7200 z " style="fill: #4e9a06; fill-opacity: 1.00; stroke: none; cursor: pointer;" id="ezcGraphPolygon_102" onclick="top.location = 'https://linux-hardware.org/?view=computers&amp;type=notebook&amp;f=drive_ssd_vendor&amp;v=Kingston&amp;p=-1&amp;p=108'"/><path d=" M 251.2857,318.0672 L 251.2857,312.0672 L 257.2857,312.0672 L 257.2857,318.0672 L 251.2857,318.0672 z " style="fill: #4e9a06; fill-opacity: 1.00; stroke: none; cursor: pointer;" id="ezcGraphPolygon_103" onclick="top.location = 'https://linux-hardware.org/?view=computers&amp;type=notebook&amp;f=drive_ssd_vendor&amp;v=Kingston&amp;p=-1&amp;p=110'"/><path d=" M 342.7143,357.6816 L 342.7143,351.6816 L 348.7143,351.6816 L 348.7143,357.6816 L 342.7143,357.6816 z " style="fill: #4e9a06; fill-opacity: 1.00; stroke: none; cursor: pointer;" id="ezcGraphPolygon_104" onclick="top.location = 'https://linux-hardware.org/?view=computers&amp;type=notebook&amp;f=drive_ssd_vendor&amp;v=Kingston&amp;p=-1&amp;p=114'"/><path d=" M 388.4286,354.9600 L 388.4286,348.9600 L 394.4286,348.9600 L 394.4286,354.9600 L 388.4286,354.9600 z " style="fill: #4e9a06; fill-opacity: 1.00; stroke: none; cursor: pointer;" id="ezcGraphPolygon_105" onclick="top.location = 'https://linux-hardware.org/?view=computers&amp;type=notebook&amp;f=drive_ssd_vendor&amp;v=Kingston&amp;p=-1&amp;p=116'"/><path d=" M 434.1429,330.1632 L 434.1429,324.1632 L 440.1429,324.1632 L 440.1429,330.1632 L 434.1429,330.1632 z " style="fill: #4e9a06; fill-opacity: 1.00; stroke: none; cursor: pointer;" id="ezcGraphPolygon_106" onclick="top.location = 'https://linux-hardware.org/?view=computers&amp;type=notebook&amp;f=drive_ssd_vendor&amp;v=Kingston&amp;p=-1&amp;p=118'"/><path d=" M 434.1429,357.6816 L 434.1429,351.6816 L 440.1429,351.6816 L 440.1429,357.6816 L 434.1429,357.6816 z " style="fill: #cc0000; fill-opacity: 1.00; stroke: none; cursor: pointer;" id="ezcGraphPolygon_107" onclick="top.location = 'https://linux-hardware.org/?view=computers&amp;type=notebook&amp;f=drive_ssd_vendor&amp;v=WDC&amp;p=-1&amp;p=118'"/><path d=" M 434.1429,357.6816 L 434.1429,351.6816 L 440.1429,351.6816 L 440.1429,357.6816 L 434.1429,357.6816 z " style="fill: #edd400; fill-opacity: 1.00; stroke: none; cursor: pointer;" id="ezcGraphPolygon_108" onclick="top.location = 'https://linux-hardware.org/?view=computers&amp;type=notebook&amp;f=drive_ssd_vendor&amp;v=PNY&amp;p=-1&amp;p=118'"/><path d=" M 251.2857,351.6336 L 251.2857,345.6336 L 257.2857,345.6336 L 257.2857,351.6336 L 251.2857,351.6336 z " style="fill: #75505b; fill-opacity: 1.00; stroke: none; cursor: pointer;" id="ezcGraphPolygon_109" onclick="top.location = 'https://linux-hardware.org/?view=computers&amp;type=notebook&amp;f=drive_ssd_vendor&amp;v=KingSpec&amp;p=-1&amp;p=110'"/><path d=" M 434.1429,357.6816 L 434.1429,351.6816 L 440.1429,351.6816 L 440.1429,357.6816 L 434.1429,357.6816 z " style="fill: #75505b; fill-opacity: 1.00; stroke: none; cursor: pointer;" id="ezcGraphPolygon_110" onclick="top.location = 'https://linux-hardware.org/?view=computers&amp;type=notebook&amp;f=drive_ssd_vendor&amp;v=KingSpec&amp;p=-1&amp;p=118'"/><path d=" M 159.8571,137.8368 L 159.8571,131.8368 L 165.8571,131.8368 L 165.8571,137.8368 L 159.8571,137.8368 z " style="fill: #f57900; fill-opacity: 1.00; stroke: none;" id="ezcGraphPolygon_111"/><path d=" M 205.5714,234.0000 L 205.5714,228.0000 L 211.5714,228.0000 L 211.5714,234.0000 L 205.5714,234.0000 z " style="fill: #f57900; fill-opacity: 1.00; stroke: none;" id="ezcGraphPolygon_112"/><path d=" M 251.2857,250.9344 L 251.2857,244.9344 L 257.2857,244.9344 L 257.2857,250.9344 L 251.2857,250.9344 z " style="fill: #f57900; fill-opacity: 1.00; stroke: none;" id="ezcGraphPolygon_113"/><path d=" M 342.7143,247.6080 L 342.7143,241.6080 L 348.7143,241.6080 L 348.7143,247.6080 L 342.7143,247.6080 z " style="fill: #f57900; fill-opacity: 1.00; stroke: none;" id="ezcGraphPolygon_114"/><path d=" M 388.4286,294.4800 L 388.4286,288.4800 L 394.4286,288.4800 L 394.4286,294.4800 L 388.4286,294.4800 z " style="fill: #f57900; fill-opacity: 1.00; stroke: none;" id="ezcGraphPolygon_115"/><path d=" M 434.1429,330.1632 L 434.1429,324.1632 L 440.1429,324.1632 L 440.1429,330.1632 L 434.1429,330.1632 z " style="fill: #f57900; fill-opacity: 1.00; stroke: none;" id="ezcGraphPolygon_116"/><g id="ezcGraphTextBox_3"><path d=" M 143.5000,42.0000 L 143.5000,0.5000 L 357.0000,0.5000 L 357.0000,42.0000 L 143.5000,42.0000 z " style="fill: #ffffff; fill-opacity: 0.00; stroke: none;" id="ezcGraphPolygon_117"/><text id="ezcGraphTextBox_3_text" x="144.0000" text-length="212.0000px" y="35.0000" style="font-size: 40px; font-family: 'Arial'; fill: #2e3436; fill-opacity: 1.00; stroke: none;">SSD Vendor</text></g><g id="ezcGraphTextBox_6" style=" cursor: pointer;" onclick="top.location = 'https://linux-hardware.org/?view=computers&amp;type=notebook&amp;f=drive_ssd_vendor&amp;v=Samsung+Electronics&amp;p=-1'"><path d=" M 16.5000,56.5000 L 16.5000,46.0000 L 94.3200,46.0000 L 94.3200,56.5000 L 16.5000,56.5000 z " style="fill: #ffffff; fill-opacity: 0.00; stroke: none;" id="ezcGraphPolygon_118"/><text id="ezcGraphTextBox_6_text" x="17.0000" text-length="76.3200px" y="54.1500" style="font-size: 9px; font-family: 'Arial'; fill: #2e3436; fill-opacity: 1.00; stroke: none;">Samsung Elect...</text></g><g id="ezcGraphTextBox_8" style=" cursor: pointer;" onclick="top.location = 'https://linux-hardware.org/?view=computers&amp;type=notebook&amp;f=drive_ssd_vendor&amp;v=Kingston&amp;p=-1'"><path d=" M 16.5000,74.5000 L 16.5000,64.0000 L 56.1600,64.0000 L 56.1600,74.5000 L 16.5000,74.5000 z " style="fill: #ffffff; fill-opacity: 0.00; stroke: none;" id="ezcGraphPolygon_119"/><text id="ezcGraphTextBox_8_text" x="17.0000" text-length="38.1600px" y="72.1500" style="font-size: 9px; font-family: 'Arial'; fill: #2e3436; fill-opacity: 1.00; stroke: none;">Kingston</text></g><g id="ezcGraphTextBox_10" style=" cursor: pointer;" onclick="top.location = 'https://linux-hardware.org/?view=computers&amp;type=notebook&amp;f=drive_ssd_vendor&amp;v=WDC&amp;p=-1'"><path d=" M 16.5000,92.5000 L 16.5000,82.0000 L 32.3100,82.0000 L 32.3100,92.5000 L 16.5000,92.5000 z " style="fill: #ffffff; fill-opacity: 0.00; stroke: none;" id="ezcGraphPolygon_120"/><text id="ezcGraphTextBox_10_text" x="17.0000" text-length="14.3100px" y="90.1500" style="font-size: 9px; font-family: 'Arial'; fill: #2e3436; fill-opacity: 1.00; stroke: none;">WDC</text></g><g id="ezcGraphTextBox_12" style=" cursor: pointer;" onclick="top.location = 'https://linux-hardware.org/?view=computers&amp;type=notebook&amp;f=drive_ssd_vendor&amp;v=PNY&amp;p=-1'"><path d=" M 16.5000,110.5000 L 16.5000,100.0000 L 32.3100,100.0000 L 32.3100,110.5000 L 16.5000,110.5000 z " style="fill: #ffffff; fill-opacity: 0.00; stroke: none;" id="ezcGraphPolygon_121"/><text id="ezcGraphTextBox_12_text" x="17.0000" text-length="14.3100px" y="108.1500" style="font-size: 9px; font-family: 'Arial'; fill: #2e3436; fill-opacity: 1.00; stroke: none;">PNY</text></g><g id="ezcGraphTextBox_14" style=" cursor: pointer;" onclick="top.location = 'https://linux-hardware.org/?view=computers&amp;type=notebook&amp;f=drive_ssd_vendor&amp;v=KingSpec&amp;p=-1'"><path d=" M 16.5000,128.5000 L 16.5000,118.0000 L 56.1600,118.0000 L 56.1600,128.5000 L 16.5000,128.5000 z " style="fill: #ffffff; fill-opacity: 0.00; stroke: none;" id="ezcGraphPolygon_122"/><text id="ezcGraphTextBox_14_text" x="17.0000" text-length="38.1600px" y="126.1500" style="font-size: 9px; font-family: 'Arial'; fill: #2e3436; fill-opacity: 1.00; stroke: none;">KingSpec</text></g><g id="ezcGraphTextBox_16"><path d=" M 16.5000,146.5000 L 16.5000,136.0000 L 46.6200,136.0000 L 46.6200,146.5000 L 16.5000,146.5000 z " style="fill: #ffffff; fill-opacity: 0.00; stroke: none;" id="ezcGraphPolygon_123"/><text id="ezcGraphTextBox_16_text" x="17.0000" text-length="28.6200px" y="144.1500" style="font-size: 9px; font-family: 'Arial'; fill: #2e3436; fill-opacity: 1.00; stroke: none;">Others</text></g><g id="ezcGraphTextBox_19" transform="rotate( 0.00 493.0000 375.2000 )"><path d=" M 460.4000,381.2000 L 460.4000,365.7000 L 499.0000,365.7000 L 499.0000,381.2000 L 460.4000,381.2000 z " style="fill: #ffffff; fill-opacity: 0.00; stroke: none;" id="ezcGraphPolygon_124"/><text id="ezcGraphTextBox_19_text" x="460.9000" text-length="37.1000px" y="378.1000" style="font-size: 14px; font-family: 'Arial'; fill: #2e3436; fill-opacity: 1.00; stroke: none;">Time </text></g><g id="ezcGraphTextBox_20"><path d=" M 144.9971,413.3000 L 144.9971,383.7000 L 181.2171,383.7000 L 181.2171,413.3000 L 144.9971,413.3000 z " style="fill: #ffffff; fill-opacity: 0.00; stroke: none;" id="ezcGraphPolygon_125"/><text id="ezcGraphTextBox_20_text" x="151.7271" text-length="22.2600px" y="396.1000" style="font-size: 14px; font-family: 'Arial'; fill: #2e3436; fill-opacity: 1.00; stroke: none;">Oct</text><text id="ezcGraphTextBox_20_text" x="145.4971" text-length="34.7200px" y="411.5000" style="font-size: 14px; font-family: 'Arial'; fill: #2e3436; fill-opacity: 1.00; stroke: none;">2022</text></g><g id="ezcGraphTextBox_23"><path d=" M 190.7114,413.3000 L 190.7114,383.7000 L 226.9314,383.7000 L 226.9314,413.3000 L 190.7114,413.3000 z " style="fill: #ffffff; fill-opacity: 0.00; stroke: none;" id="ezcGraphPolygon_126"/><text id="ezcGraphTextBox_23_text" x="197.4414" text-length="22.2600px" y="396.1000" style="font-size: 14px; font-family: 'Arial'; fill: #2e3436; fill-opacity: 1.00; stroke: none;">Dec</text><text id="ezcGraphTextBox_23_text" x="191.2114" text-length="34.7200px" y="411.5000" style="font-size: 14px; font-family: 'Arial'; fill: #2e3436; fill-opacity: 1.00; stroke: none;">2022</text></g><g id="ezcGraphTextBox_26"><path d=" M 236.4257,413.3000 L 236.4257,383.7000 L 272.6457,383.7000 L 272.6457,413.3000 L 236.4257,413.3000 z " style="fill: #ffffff; fill-opacity: 0.00; stroke: none;" id="ezcGraphPolygon_127"/><text id="ezcGraphTextBox_26_text" x="243.1557" text-length="22.2600px" y="396.1000" style="font-size: 14px; font-family: 'Arial'; fill: #2e3436; fill-opacity: 1.00; stroke: none;">Feb</text><text id="ezcGraphTextBox_26_text" x="236.9257" text-length="34.7200px" y="411.5000" style="font-size: 14px; font-family: 'Arial'; fill: #2e3436; fill-opacity: 1.00; stroke: none;">2023</text></g><g id="ezcGraphTextBox_29"><path d=" M 282.1400,413.3000 L 282.1400,383.7000 L 318.3600,383.7000 L 318.3600,413.3000 L 282.1400,413.3000 z " style="fill: #ffffff; fill-opacity: 0.00; stroke: none;" id="ezcGraphPolygon_128"/><text id="ezcGraphTextBox_29_text" x="288.8700" text-length="22.2600px" y="396.1000" style="font-size: 14px; font-family: 'Arial'; fill: #2e3436; fill-opacity: 1.00; stroke: none;">Apr</text><text id="ezcGraphTextBox_29_text" x="282.6400" text-length="34.7200px" y="411.5000" style="font-size: 14px; font-family: 'Arial'; fill: #2e3436; fill-opacity: 1.00; stroke: none;">2023</text></g><g id="ezcGraphTextBox_32"><path d=" M 327.8543,413.3000 L 327.8543,383.7000 L 364.0743,383.7000 L 364.0743,413.3000 L 327.8543,413.3000 z " style="fill: #ffffff; fill-opacity: 0.00; stroke: none;" id="ezcGraphPolygon_129"/><text id="ezcGraphTextBox_32_text" x="334.5843" text-length="22.2600px" y="396.1000" style="font-size: 14px; font-family: 'Arial'; fill: #2e3436; fill-opacity: 1.00; stroke: none;">Jun</text><text id="ezcGraphTextBox_32_text" x="328.3543" text-length="34.7200px" y="411.5000" style="font-size: 14px; font-family: 'Arial'; fill: #2e3436; fill-opacity: 1.00; stroke: none;">2023</text></g><g id="ezcGraphTextBox_35"><path d=" M 373.5686,413.3000 L 373.5686,383.7000 L 409.7886,383.7000 L 409.7886,413.3000 L 373.5686,413.3000 z " style="fill: #ffffff; fill-opacity: 0.00; stroke: none;" id="ezcGraphPolygon_130"/><text id="ezcGraphTextBox_35_text" x="380.2986" text-length="22.2600px" y="396.1000" style="font-size: 14px; font-family: 'Arial'; fill: #2e3436; fill-opacity: 1.00; stroke: none;">Aug</text><text id="ezcGraphTextBox_35_text" x="374.0686" text-length="34.7200px" y="411.5000" style="font-size: 14px; font-family: 'Arial'; fill: #2e3436; fill-opacity: 1.00; stroke: none;">2023</text></g><g id="ezcGraphTextBox_38"><path d=" M 419.2829,413.3000 L 419.2829,383.7000 L 455.5029,383.7000 L 455.5029,413.3000 L 419.2829,413.3000 z " style="fill: #ffffff; fill-opacity: 0.00; stroke: none;" id="ezcGraphPolygon_131"/><text id="ezcGraphTextBox_38_text" x="426.0129" text-length="22.2600px" y="396.1000" style="font-size: 14px; font-family: 'Arial'; fill: #2e3436; fill-opacity: 1.00; stroke: none;">Oct</text><text id="ezcGraphTextBox_38_text" x="419.7829" text-length="34.7200px" y="411.5000" style="font-size: 14px; font-family: 'Arial'; fill: #2e3436; fill-opacity: 1.00; stroke: none;">2023</text></g><g id="ezcGraphTextBox_43" transform="rotate( 0.00 147.0000 49.0000 )"><path d=" M 141.5000,59.0000 L 141.5000,43.5000 L 365.6000,43.5000 L 365.6000,59.0000 L 141.5000,59.0000 z " style="fill: #ffffff; fill-opacity: 0.00; stroke: none;" id="ezcGraphPolygon_132"/><text id="ezcGraphTextBox_43_text" x="142.0000" text-length="222.6000px" y="55.9000" style="font-size: 14px; font-family: 'Arial'; fill: #2e3436; fill-opacity: 1.00; stroke: none;">Notebooks by "SSD Vendor" in %</text></g><g id="ezcGraphTextBox_44"><path d=" M 128.8200,381.2000 L 128.8200,365.7000 L 139.0000,365.7000 L 139.0000,381.2000 L 128.8200,381.2000 z " style="fill: #ffffff; fill-opacity: 0.00; stroke: none;" id="ezcGraphPolygon_133"/><text id="ezcGraphTextBox_44_text" x="129.3200" text-length="8.6800px" y="378.1000" style="font-size: 14px; font-family: 'Arial'; fill: #2e3436; fill-opacity: 1.00; stroke: none;">0</text></g><g id="ezcGraphTextBox_47"><path d=" M 120.1400,230.0000 L 120.1400,214.5000 L 139.0000,214.5000 L 139.0000,230.0000 L 120.1400,230.0000 z " style="fill: #ffffff; fill-opacity: 0.00; stroke: none;" id="ezcGraphPolygon_134"/><text id="ezcGraphTextBox_47_text" x="120.6400" text-length="17.3600px" y="226.9000" style="font-size: 14px; font-family: 'Arial'; fill: #2e3436; fill-opacity: 1.00; stroke: none;">50</text></g><g id="ezcGraphTextBox_50"><path d=" M 111.4600,96.8000 L 111.4600,81.3000 L 139.0000,81.3000 L 139.0000,96.8000 L 111.4600,96.8000 z " style="fill: #ffffff; fill-opacity: 0.00; stroke: none;" id="ezcGraphPolygon_135"/><text id="ezcGraphTextBox_50_text" x="111.9600" text-length="26.0400px" y="93.7000" style="font-size: 14px; font-family: 'Arial'; fill: #2e3436; fill-opacity: 1.00; stroke: none;">100</text></g><g id="ezcGraphTextBox_52"><path d=" M 149.9571,322.1632 L 149.9571,310.6632 L 176.2571,310.6632 L 176.2571,322.1632 L 149.9571,322.1632 z " style="fill: #ffffff; fill-opacity: 0.00; stroke: none;" id="ezcGraphPolygon_136"/><text id="ezcGraphTextBox_52_text" x="150.4571" text-length="24.8000px" y="319.6632" style="font-size: 10px; font-family: 'Arial'; fill: #2e3436; fill-opacity: 1.00; stroke: none;">18.2</text></g><g id="ezcGraphTextBox_54"><path d=" M 201.8714,286.4800 L 201.8714,274.9800 L 215.7714,274.9800 L 215.7714,286.4800 L 201.8714,286.4800 z " style="fill: #ffffff; fill-opacity: 0.00; stroke: none;" id="ezcGraphPolygon_137"/><text id="ezcGraphTextBox_54_text" x="202.3714" text-length="12.4000px" y="283.9800" style="font-size: 10px; font-family: 'Arial'; fill: #2e3436; fill-opacity: 1.00; stroke: none;">30</text></g><g id="ezcGraphTextBox_56"><path d=" M 241.3857,310.0672 L 241.3857,298.5672 L 267.6857,298.5672 L 267.6857,310.0672 L 241.3857,310.0672 z " style="fill: #ffffff; fill-opacity: 0.00; stroke: none;" id="ezcGraphPolygon_138"/><text id="ezcGraphTextBox_56_text" x="241.8857" text-length="24.8000px" y="307.5672" style="font-size: 10px; font-family: 'Arial'; fill: #2e3436; fill-opacity: 1.00; stroke: none;">22.2</text></g><g id="ezcGraphTextBox_58"><path d=" M 290.2000,74.8000 L 290.2000,63.3000 L 310.3000,63.3000 L 310.3000,74.8000 L 290.2000,74.8000 z " style="fill: #ffffff; fill-opacity: 0.00; stroke: none;" id="ezcGraphPolygon_139"/><text id="ezcGraphTextBox_58_text" x="290.7000" text-length="18.6000px" y="72.3000" style="font-size: 10px; font-family: 'Arial'; fill: #2e3436; fill-opacity: 1.00; stroke: none;">100</text></g><g id="ezcGraphTextBox_60"><path d=" M 332.8143,239.6080 L 332.8143,228.1080 L 359.1143,228.1080 L 359.1143,239.6080 L 332.8143,239.6080 z " style="fill: #ffffff; fill-opacity: 0.00; stroke: none;" id="ezcGraphPolygon_140"/><text id="ezcGraphTextBox_60_text" x="333.3143" text-length="24.8000px" y="237.1080" style="font-size: 10px; font-family: 'Arial'; fill: #2e3436; fill-opacity: 1.00; stroke: none;">45.5</text></g><g id="ezcGraphTextBox_62"><path d=" M 384.7286,195.7600 L 384.7286,184.2600 L 398.6286,184.2600 L 398.6286,195.7600 L 384.7286,195.7600 z " style="fill: #ffffff; fill-opacity: 0.00; stroke: none;" id="ezcGraphPolygon_141"/><text id="ezcGraphTextBox_62_text" x="385.2286" text-length="12.4000px" y="193.2600" style="font-size: 10px; font-family: 'Arial'; fill: #2e3436; fill-opacity: 1.00; stroke: none;">60</text></g><g id="ezcGraphTextBox_64"><path d=" M 424.2429,267.1264 L 424.2429,255.6264 L 450.5429,255.6264 L 450.5429,267.1264 L 424.2429,267.1264 z " style="fill: #ffffff; fill-opacity: 0.00; stroke: none;" id="ezcGraphPolygon_142"/><text id="ezcGraphTextBox_64_text" x="424.7429" text-length="24.8000px" y="264.6264" style="font-size: 10px; font-family: 'Arial'; fill: #2e3436; fill-opacity: 1.00; stroke: none;">36.4</text></g><g id="ezcGraphTextBox_66"><path d=" M 201.8714,316.7200 L 201.8714,305.2200 L 215.7714,305.2200 L 215.7714,316.7200 L 201.8714,316.7200 z " style="fill: #ffffff; fill-opacity: 0.00; stroke: none;" id="ezcGraphPolygon_143"/><text id="ezcGraphTextBox_66_text" x="202.3714" text-length="12.4000px" y="314.2200" style="font-size: 10px; font-family: 'Arial'; fill: #2e3436; fill-opacity: 1.00; stroke: none;">20</text></g><g id="ezcGraphTextBox_68"><path d=" M 241.3857,310.0672 L 241.3857,298.5672 L 267.6857,298.5672 L 267.6857,310.0672 L 241.3857,310.0672 z " style="fill: #ffffff; fill-opacity: 0.00; stroke: none;" id="ezcGraphPolygon_144"/><text id="ezcGraphTextBox_68_text" x="241.8857" text-length="24.8000px" y="307.5672" style="font-size: 10px; font-family: 'Arial'; fill: #2e3436; fill-opacity: 1.00; stroke: none;">22.2</text></g><g id="ezcGraphTextBox_70"><path d=" M 335.9143,349.6816 L 335.9143,338.1816 L 356.0143,338.1816 L 356.0143,349.6816 L 335.9143,349.6816 z " style="fill: #ffffff; fill-opacity: 0.00; stroke: none;" id="ezcGraphPolygon_145"/><text id="ezcGraphTextBox_70_text" x="336.4143" text-length="18.6000px" y="347.1816" style="font-size: 10px; font-family: 'Arial'; fill: #2e3436; fill-opacity: 1.00; stroke: none;">9.1</text></g><g id="ezcGraphTextBox_72"><path d=" M 384.7286,346.9600 L 384.7286,335.4600 L 398.6286,335.4600 L 398.6286,346.9600 L 384.7286,346.9600 z " style="fill: #ffffff; fill-opacity: 0.00; stroke: none;" id="ezcGraphPolygon_146"/><text id="ezcGraphTextBox_72_text" x="385.2286" text-length="12.4000px" y="344.4600" style="font-size: 10px; font-family: 'Arial'; fill: #2e3436; fill-opacity: 1.00; stroke: none;">10</text></g><g id="ezcGraphTextBox_74"><path d=" M 424.2429,322.1632 L 424.2429,310.6632 L 450.5429,310.6632 L 450.5429,322.1632 L 424.2429,322.1632 z " style="fill: #ffffff; fill-opacity: 0.00; stroke: none;" id="ezcGraphPolygon_147"/><text id="ezcGraphTextBox_74_text" x="424.7429" text-length="24.8000px" y="319.6632" style="font-size: 10px; font-family: 'Arial'; fill: #2e3436; fill-opacity: 1.00; stroke: none;">18.2</text></g><g id="ezcGraphTextBox_76"><path d=" M 427.3429,349.6816 L 427.3429,338.1816 L 447.4429,338.1816 L 447.4429,349.6816 L 427.3429,349.6816 z " style="fill: #ffffff; fill-opacity: 0.00; stroke: none;" id="ezcGraphPolygon_148"/><text id="ezcGraphTextBox_76_text" x="427.8429" text-length="18.6000px" y="347.1816" style="font-size: 10px; font-family: 'Arial'; fill: #2e3436; fill-opacity: 1.00; stroke: none;">9.1</text></g><g id="ezcGraphTextBox_78"><path d=" M 427.3429,349.6816 L 427.3429,338.1816 L 447.4429,338.1816 L 447.4429,349.6816 L 427.3429,349.6816 z " style="fill: #ffffff; fill-opacity: 0.00; stroke: none;" id="ezcGraphPolygon_149"/><text id="ezcGraphTextBox_78_text" x="427.8429" text-length="18.6000px" y="347.1816" style="font-size: 10px; font-family: 'Arial'; fill: #2e3436; fill-opacity: 1.00; stroke: none;">9.1</text></g><g id="ezcGraphTextBox_80"><path d=" M 241.3857,343.6336 L 241.3857,332.1336 L 267.6857,332.1336 L 267.6857,343.6336 L 241.3857,343.6336 z " style="fill: #ffffff; fill-opacity: 0.00; stroke: none;" id="ezcGraphPolygon_150"/><text id="ezcGraphTextBox_80_text" x="241.8857" text-length="24.8000px" y="341.1336" style="font-size: 10px; font-family: 'Arial'; fill: #2e3436; fill-opacity: 1.00; stroke: none;">11.1</text></g><g id="ezcGraphTextBox_82"><path d=" M 427.3429,349.6816 L 427.3429,338.1816 L 447.4429,338.1816 L 447.4429,349.6816 L 427.3429,349.6816 z " style="fill: #ffffff; fill-opacity: 0.00; stroke: none;" id="ezcGraphPolygon_151"/><text id="ezcGraphTextBox_82_text" x="427.8429" text-length="18.6000px" y="347.1816" style="font-size: 10px; font-family: 'Arial'; fill: #2e3436; fill-opacity: 1.00; stroke: none;">9.1</text></g><g id="ezcGraphTextBox_84"><path d=" M 149.9571,129.8368 L 149.9571,118.3368 L 176.2571,118.3368 L 176.2571,129.8368 L 149.9571,129.8368 z " style="fill: #ffffff; fill-opacity: 0.00; stroke: none;" id="ezcGraphPolygon_152"/><text id="ezcGraphTextBox_84_text" x="150.4571" text-length="24.8000px" y="127.3368" style="font-size: 10px; font-family: 'Arial'; fill: #2e3436; fill-opacity: 1.00; stroke: none;">81.8</text></g><g id="ezcGraphTextBox_86"><path d=" M 201.8714,226.0000 L 201.8714,214.5000 L 215.7714,214.5000 L 215.7714,226.0000 L 201.8714,226.0000 z " style="fill: #ffffff; fill-opacity: 0.00; stroke: none;" id="ezcGraphPolygon_153"/><text id="ezcGraphTextBox_86_text" x="202.3714" text-length="12.4000px" y="223.5000" style="font-size: 10px; font-family: 'Arial'; fill: #2e3436; fill-opacity: 1.00; stroke: none;">50</text></g><g id="ezcGraphTextBox_88"><path d=" M 241.3857,242.9344 L 241.3857,231.4344 L 267.6857,231.4344 L 267.6857,242.9344 L 241.3857,242.9344 z " style="fill: #ffffff; fill-opacity: 0.00; stroke: none;" id="ezcGraphPolygon_154"/><text id="ezcGraphTextBox_88_text" x="241.8857" text-length="24.8000px" y="240.4344" style="font-size: 10px; font-family: 'Arial'; fill: #2e3436; fill-opacity: 1.00; stroke: none;">44.4</text></g><g id="ezcGraphTextBox_90"><path d=" M 332.8143,239.6080 L 332.8143,228.1080 L 359.1143,228.1080 L 359.1143,239.6080 L 332.8143,239.6080 z " style="fill: #ffffff; fill-opacity: 0.00; stroke: none;" id="ezcGraphPolygon_155"/><text id="ezcGraphTextBox_90_text" x="333.3143" text-length="24.8000px" y="237.1080" style="font-size: 10px; font-family: 'Arial'; fill: #2e3436; fill-opacity: 1.00; stroke: none;">45.5</text></g><g id="ezcGraphTextBox_92"><path d=" M 384.7286,286.4800 L 384.7286,274.9800 L 398.6286,274.9800 L 398.6286,286.4800 L 384.7286,286.4800 z " style="fill: #ffffff; fill-opacity: 0.00; stroke: none;" id="ezcGraphPolygon_156"/><text id="ezcGraphTextBox_92_text" x="385.2286" text-length="12.4000px" y="283.9800" style="font-size: 10px; font-family: 'Arial'; fill: #2e3436; fill-opacity: 1.00; stroke: none;">30</text></g><g id="ezcGraphTextBox_94"><path d=" M 424.2429,322.1632 L 424.2429,310.6632 L 450.5429,310.6632 L 450.5429,322.1632 L 424.2429,322.1632 z " style="fill: #ffffff; fill-opacity: 0.00; stroke: none;" id="ezcGraphPolygon_157"/><text id="ezcGraphTextBox_94_text" x="424.7429" text-length="24.8000px" y="319.6632" style="font-size: 10px; font-family: 'Arial'; fill: #2e3436; fill-opacity: 1.00; stroke: none;">18.2</text></g></g></svg>
