<?xml version="1.0"?>
<svg xmlns="http://www.w3.org/2000/svg" width="500" height="420" version="1.0" id="ezcGraph"><defs/><g id="ezcGraphChart" color-rendering="optimizeQuality" shape-rendering="geometricPrecision" text-rendering="optimizeLegibility"><path d=" M 0.0000,420.0000 L 0.0000,0.0000 L 500.0000,0.0000 L 500.0000,420.0000 L 0.0000,420.0000 z " style="fill: #eeeeec; fill-opacity: 1.00; stroke: none;" id="ezcGraphPolygon_1"/><path d=" M 0.0000,42.0000 L 0.0000,0.0000 L 500.0000,0.0000 L 500.0000,42.0000 L 0.0000,42.0000 z " style="fill: #000000; fill-opacity: 0.00; stroke: none;" id="ezcGraphPolygon_2"/><path d="M 253.68,242.94 L 366.18,242.94 A 112.50,112.50 0 0,1 160.73,306.32 z" style="fill: #3465a4; fill-opacity: 1.00; stroke: none; cursor: pointer;" id="ezcGraphCircleSector_4" onclick="top.location = 'https://linux-hardware.org/?view=computers&amp;type=desktop&amp;f=drive_kind&amp;v=NVMe&amp;p=-1'"/><path d="M 253.84,243.44 L 365.68,243.44 A 112.00,112.00 0 0,1 161.43,306.45 z" style="fill: none; stroke: #1a3352; stroke-width: 1; stroke-opacity: 1.00; stroke-linecap: round; stroke-linejoin: round;" id="ezcGraphCircleSector_5"/><path d="M 250.00,231.00 L 157.05,294.37 A 112.50,112.50 0 0,1 208.90,126.28 z" style="fill: #4e9a06; fill-opacity: 1.00; stroke: none; cursor: pointer;" id="ezcGraphCircleSector_6" onclick="top.location = 'https://linux-hardware.org/?view=computers&amp;type=desktop&amp;f=drive_kind&amp;v=SSD&amp;p=-1'"/><path d="M 249.39,230.81 L 157.18,293.68 A 112.00,112.00 0 0,1 208.62,126.92 z" style="fill: none; stroke: #274d03; stroke-width: 1; stroke-opacity: 1.00; stroke-linecap: round; stroke-linejoin: round;" id="ezcGraphCircleSector_7"/><path d="M 250.00,231.00 L 208.90,126.28 A 112.50,112.50 0 0,1 361.24,214.23 z" style="fill: #cc0000; fill-opacity: 1.00; stroke: none; cursor: pointer;" id="ezcGraphCircleSector_8" onclick="top.location = 'https://linux-hardware.org/?view=computers&amp;type=desktop&amp;f=drive_kind&amp;v=HDD&amp;p=-1'"/><path d="M 250.32,230.45 L 209.55,126.56 A 112.00,112.00 0 0,1 360.67,213.81 z" style="fill: none; stroke: #660000; stroke-width: 1; stroke-opacity: 1.00; stroke-linecap: round; stroke-linejoin: round;" id="ezcGraphCircleSector_9"/><path d="M 250.00,231.00 L 361.24,214.23 A 112.50,112.50 0 0,1 362.50,231.00 z" style="fill: #edd400; fill-opacity: 1.00; stroke: none; cursor: pointer;" id="ezcGraphCircleSector_10" onclick="top.location = 'https://linux-hardware.org/?view=computers&amp;type=desktop&amp;f=drive_kind&amp;v=&amp;p=-1'"/><path d="M 256.67,230.50 L 360.82,214.80 A 112.00,112.00 0 0,1 362.00,230.50 z" style="fill: none; stroke: #776a00; stroke-width: 1; stroke-opacity: 1.00; stroke-linecap: round; stroke-linejoin: round;" id="ezcGraphCircleSector_11"/><path d=" M 170.3689,206.4371 L 124.6015,194.0000" style="fill: none; stroke: #000000; stroke-width: 1; stroke-opacity: 1.00; stroke-linecap: round; stroke-linejoin: round;" id="ezcGraphLine_12"/><ellipse cx="170.3689" cy="206.4371" rx="3.0000" ry="3.0000" style="fill: #000000; fill-opacity: 1.00; stroke: none;" id="ezcGraphCircle_13"/><ellipse cx="124.6015" cy="194.0000" rx="3.0000" ry="3.0000" style="fill: #000000; fill-opacity: 1.00; stroke: none;" id="ezcGraphCircle_14"/><path d=" M 291.6667,158.8312 L 317.1882,122.0000" style="fill: none; stroke: #000000; stroke-width: 1; stroke-opacity: 1.00; stroke-linecap: round; stroke-linejoin: round;" id="ezcGraphLine_16"/><ellipse cx="291.6667" cy="158.8312" rx="3.0000" ry="3.0000" style="fill: #000000; fill-opacity: 1.00; stroke: none;" id="ezcGraphCircle_17"/><ellipse cx="317.1882" cy="122.0000" rx="3.0000" ry="3.0000" style="fill: #000000; fill-opacity: 1.00; stroke: none;" id="ezcGraphCircle_18"/><path d=" M 333.1003,224.7725 L 380.5994,221.0000" style="fill: none; stroke: #000000; stroke-width: 1; stroke-opacity: 1.00; stroke-linecap: round; stroke-linejoin: round;" id="ezcGraphLine_20"/><ellipse cx="333.1003" cy="224.7725" rx="3.0000" ry="3.0000" style="fill: #000000; fill-opacity: 1.00; stroke: none;" id="ezcGraphCircle_21"/><ellipse cx="380.5994" cy="221.0000" rx="3.0000" ry="3.0000" style="fill: #000000; fill-opacity: 1.00; stroke: none;" id="ezcGraphCircle_22"/><path d=" M 278.2474,322.5757 L 278.2474,362.0000" style="fill: none; stroke: #000000; stroke-width: 1; stroke-opacity: 1.00; stroke-linecap: round; stroke-linejoin: round;" id="ezcGraphLine_24"/><ellipse cx="278.2474" cy="322.5757" rx="3.0000" ry="3.0000" style="fill: #000000; fill-opacity: 1.00; stroke: none;" id="ezcGraphCircle_25"/><ellipse cx="278.2474" cy="362.0000" rx="3.0000" ry="3.0000" style="fill: #000000; fill-opacity: 1.00; stroke: none;" id="ezcGraphCircle_26"/><g id="ezcGraphTextBox_3"><path d=" M 143.5000,42.0000 L 143.5000,0.5000 L 357.0000,0.5000 L 357.0000,42.0000 L 143.5000,42.0000 z " style="fill: #ffffff; fill-opacity: 0.00; stroke: none;" id="ezcGraphPolygon_28"/><text id="ezcGraphTextBox_3_text" x="144.0000" text-length="212.0000px" y="35.0000" style="font-size: 40px; font-family: 'Arial'; fill: #2e3436; fill-opacity: 1.00; stroke: none;">Drive Kind</text></g><g id="ezcGraphTextBox_15" style=" cursor: pointer;" onclick="top.location = 'https://linux-hardware.org/?view=computers&amp;type=desktop&amp;f=drive_kind&amp;v=SSD&amp;p=-1'"><path d=" M 13.1615,204.0000 L 13.1615,184.5000 L 119.6015,184.5000 L 119.6015,204.0000 L 13.1615,204.0000 z " style="fill: #ffffff; fill-opacity: 0.00; stroke: none;" id="ezcGraphPolygon_29"/><text id="ezcGraphTextBox_15_text" x="13.6615" text-length="104.9400px" y="200.3000" style="font-size: 18px; font-family: 'Arial'; fill: #2e3436; fill-opacity: 1.00; stroke: none;">SSD (28.6%)</text></g><g id="ezcGraphTextBox_19" style=" cursor: pointer;" onclick="top.location = 'https://linux-hardware.org/?view=computers&amp;type=desktop&amp;f=drive_kind&amp;v=HDD&amp;p=-1'"><path d=" M 322.6882,132.0000 L 322.6882,112.5000 L 429.1282,112.5000 L 429.1282,132.0000 L 322.6882,132.0000 z " style="fill: #ffffff; fill-opacity: 0.00; stroke: none;" id="ezcGraphPolygon_30"/><text id="ezcGraphTextBox_19_text" x="323.1882" text-length="104.9400px" y="128.3000" style="font-size: 18px; font-family: 'Arial'; fill: #2e3436; fill-opacity: 1.00; stroke: none;">HDD (28.6%)</text></g><g id="ezcGraphTextBox_23" style=" cursor: pointer;" onclick="top.location = 'https://linux-hardware.org/?view=computers&amp;type=desktop&amp;f=drive_kind&amp;v=&amp;p=-1'"><path d=" M 386.0994,240.0500 L 386.0994,202.4500 L 454.3794,202.4500 L 454.3794,240.0500 L 386.0994,240.0500 z " style="fill: #ffffff; fill-opacity: 0.00; stroke: none;" id="ezcGraphPolygon_31"/><text id="ezcGraphTextBox_23_text" x="386.5994" text-length="66.7800px" y="218.2500" style="font-size: 18px; font-family: 'Arial'; fill: #2e3436; fill-opacity: 1.00; stroke: none;">Unknown</text><text id="ezcGraphTextBox_23_text" x="386.5994" text-length="57.2400px" y="238.0500" style="font-size: 18px; font-family: 'Arial'; fill: #2e3436; fill-opacity: 1.00; stroke: none;">(2.4%)</text></g><g id="ezcGraphTextBox_27" style=" cursor: pointer;" onclick="top.location = 'https://linux-hardware.org/?view=computers&amp;type=desktop&amp;f=drive_kind&amp;v=NVMe&amp;p=-1'"><path d=" M 283.7474,372.0000 L 283.7474,352.5000 L 399.7274,352.5000 L 399.7274,372.0000 L 283.7474,372.0000 z " style="fill: #ffffff; fill-opacity: 0.00; stroke: none;" id="ezcGraphPolygon_32"/><text id="ezcGraphTextBox_27_text" x="284.2474" text-length="114.4800px" y="368.3000" style="font-size: 18px; font-family: 'Arial'; fill: #2e3436; fill-opacity: 1.00; stroke: none;">NVMe (40.5%)</text></g></g></svg>
