<?xml version="1.0"?>
<svg xmlns="http://www.w3.org/2000/svg" width="500" height="420" version="1.0" id="ezcGraph"><defs/><g id="ezcGraphChart" color-rendering="optimizeQuality" shape-rendering="geometricPrecision" text-rendering="optimizeLegibility"><path d=" M 0.0000,420.0000 L 0.0000,0.0000 L 500.0000,0.0000 L 500.0000,420.0000 L 0.0000,420.0000 z " style="fill: #eeeeec; fill-opacity: 1.00; stroke: none;" id="ezcGraphPolygon_1"/><path d=" M 0.0000,42.0000 L 0.0000,0.0000 L 500.0000,0.0000 L 500.0000,42.0000 L 0.0000,42.0000 z " style="fill: #000000; fill-opacity: 0.00; stroke: none;" id="ezcGraphPolygon_2"/><path d=" M 0.0000,420.0000 L 0.0000,42.0000 L 100.0000,42.0000 L 100.0000,420.0000 L 0.0000,420.0000 z " style="fill: #000000; fill-opacity: 0.00; stroke: none;" id="ezcGraphPolygon_4"/><path d=" M 2.0000,58.0000 L 2.0000,44.0000 L 16.0000,44.0000 L 16.0000,58.0000 L 2.0000,58.0000 z " style="fill: #3465a4; fill-opacity: 1.00; stroke: none; cursor: pointer;" id="ezcGraphPolygon_5" onclick="top.location = 'https://linux-hardware.org/?view=computers&amp;type=notebook&amp;f=os_dual_boot_win&amp;v=0&amp;p=-1&amp;c=Poland'"/><path d=" M 2.0000,76.0000 L 2.0000,62.0000 L 16.0000,62.0000 L 16.0000,76.0000 L 2.0000,76.0000 z " style="fill: #4e9a06; fill-opacity: 1.00; stroke: none; cursor: pointer;" id="ezcGraphPolygon_7" onclick="top.location = 'https://linux-hardware.org/?view=computers&amp;type=notebook&amp;f=os_dual_boot_win&amp;v=1&amp;p=-1&amp;c=Poland'"/><path d=" M 100.0000,382.2000 L 500.0000,382.2000" style="fill: none; stroke: #2e3436; stroke-width: 1; stroke-opacity: 1.00; stroke-linecap: round; stroke-linejoin: round;" id="ezcGraphLine_9"/><path d=" M 492.0000,378.2000 L 500.0000,382.2000 L 492.0000,386.2000 L 492.0000,378.2000 z " style="fill: #2e3436; fill-opacity: 1.00; stroke: none;" id="ezcGraphPolygon_10"/><path d=" M 185.7143,79.8000 L 185.7143,382.2000" style="fill: none; stroke: #000000; stroke-width: 1; stroke-opacity: 0.00; stroke-linecap: round; stroke-linejoin: round;" id="ezcGraphLine_13"/><path d=" M 185.7143,379.2000 L 185.7143,385.2000" style="fill: none; stroke: #2e3436; stroke-width: 1; stroke-opacity: 1.00; stroke-linecap: round; stroke-linejoin: round;" id="ezcGraphLine_14"/><path d=" M 231.4286,79.8000 L 231.4286,382.2000" style="fill: none; stroke: #000000; stroke-width: 1; stroke-opacity: 0.00; stroke-linecap: round; stroke-linejoin: round;" id="ezcGraphLine_16"/><path d=" M 231.4286,379.2000 L 231.4286,385.2000" style="fill: none; stroke: #2e3436; stroke-width: 1; stroke-opacity: 1.00; stroke-linecap: round; stroke-linejoin: round;" id="ezcGraphLine_17"/><path d=" M 277.1429,79.8000 L 277.1429,382.2000" style="fill: none; stroke: #000000; stroke-width: 1; stroke-opacity: 0.00; stroke-linecap: round; stroke-linejoin: round;" id="ezcGraphLine_19"/><path d=" M 277.1429,379.2000 L 277.1429,385.2000" style="fill: none; stroke: #2e3436; stroke-width: 1; stroke-opacity: 1.00; stroke-linecap: round; stroke-linejoin: round;" id="ezcGraphLine_20"/><path d=" M 322.8571,79.8000 L 322.8571,382.2000" style="fill: none; stroke: #000000; stroke-width: 1; stroke-opacity: 0.00; stroke-linecap: round; stroke-linejoin: round;" id="ezcGraphLine_22"/><path d=" M 322.8571,379.2000 L 322.8571,385.2000" style="fill: none; stroke: #2e3436; stroke-width: 1; stroke-opacity: 1.00; stroke-linecap: round; stroke-linejoin: round;" id="ezcGraphLine_23"/><path d=" M 368.5714,79.8000 L 368.5714,382.2000" style="fill: none; stroke: #000000; stroke-width: 1; stroke-opacity: 0.00; stroke-linecap: round; stroke-linejoin: round;" id="ezcGraphLine_25"/><path d=" M 368.5714,379.2000 L 368.5714,385.2000" style="fill: none; stroke: #2e3436; stroke-width: 1; stroke-opacity: 1.00; stroke-linecap: round; stroke-linejoin: round;" id="ezcGraphLine_26"/><path d=" M 414.2857,79.8000 L 414.2857,382.2000" style="fill: none; stroke: #000000; stroke-width: 1; stroke-opacity: 0.00; stroke-linecap: round; stroke-linejoin: round;" id="ezcGraphLine_28"/><path d=" M 414.2857,379.2000 L 414.2857,385.2000" style="fill: none; stroke: #2e3436; stroke-width: 1; stroke-opacity: 1.00; stroke-linecap: round; stroke-linejoin: round;" id="ezcGraphLine_29"/><path d=" M 460.0000,79.8000 L 460.0000,382.2000" style="fill: none; stroke: #000000; stroke-width: 1; stroke-opacity: 0.00; stroke-linecap: round; stroke-linejoin: round;" id="ezcGraphLine_31"/><path d=" M 460.0000,379.2000 L 460.0000,385.2000" style="fill: none; stroke: #2e3436; stroke-width: 1; stroke-opacity: 1.00; stroke-linecap: round; stroke-linejoin: round;" id="ezcGraphLine_32"/><path d=" M 140.0000,420.0000 L 140.0000,42.0000" style="fill: none; stroke: #2e3436; stroke-width: 1; stroke-opacity: 1.00; stroke-linecap: round; stroke-linejoin: round;" id="ezcGraphLine_33"/><path d=" M 136.0000,50.0000 L 140.0000,42.0000 L 144.0000,50.0000 L 136.0000,50.0000 z " style="fill: #2e3436; fill-opacity: 1.00; stroke: none;" id="ezcGraphPolygon_34"/><path d=" M 140.0000,231.0000 L 460.0000,231.0000" style="fill: none; stroke: #000000; stroke-width: 1; stroke-opacity: 0.00; stroke-linecap: round; stroke-linejoin: round;" id="ezcGraphLine_37"/><path d=" M 140.0000,231.0000 L 143.0000,231.0000" style="fill: none; stroke: #2e3436; stroke-width: 1; stroke-opacity: 1.00; stroke-linecap: round; stroke-linejoin: round;" id="ezcGraphLine_38"/><path d=" M 140.0000,79.8000 L 460.0000,79.8000" style="fill: none; stroke: #000000; stroke-width: 1; stroke-opacity: 0.00; stroke-linecap: round; stroke-linejoin: round;" id="ezcGraphLine_40"/><path d=" M 140.0000,79.8000 L 143.0000,79.8000" style="fill: none; stroke: #2e3436; stroke-width: 1; stroke-opacity: 1.00; stroke-linecap: round; stroke-linejoin: round;" id="ezcGraphLine_41"/><path d=" M 162.8571,183.2208 L 162.8571,183.2208" style="fill: none; stroke: #3465a4; stroke-width: 1; stroke-opacity: 1.00; stroke-linecap: round; stroke-linejoin: round;" id="ezcGraphLine_43"/><path d=" M 162.8571,183.2208 L 208.5714,172.6368" style="fill: none; stroke: #3465a4; stroke-width: 1; stroke-opacity: 1.00; stroke-linecap: round; stroke-linejoin: round;" id="ezcGraphLine_45"/><path d=" M 208.5714,172.6368 L 254.2857,182.3136" style="fill: none; stroke: #3465a4; stroke-width: 1; stroke-opacity: 1.00; stroke-linecap: round; stroke-linejoin: round;" id="ezcGraphLine_47"/><path d=" M 254.2857,182.3136 L 300.0000,187.1520" style="fill: none; stroke: #3465a4; stroke-width: 1; stroke-opacity: 1.00; stroke-linecap: round; stroke-linejoin: round;" id="ezcGraphLine_49"/><path d=" M 300.0000,187.1520 L 345.7143,168.4032" style="fill: none; stroke: #3465a4; stroke-width: 1; stroke-opacity: 1.00; stroke-linecap: round; stroke-linejoin: round;" id="ezcGraphLine_51"/><path d=" M 345.7143,168.4032 L 391.4286,146.9328" style="fill: none; stroke: #3465a4; stroke-width: 1; stroke-opacity: 1.00; stroke-linecap: round; stroke-linejoin: round;" id="ezcGraphLine_53"/><path d=" M 391.4286,146.9328 L 437.1429,176.2656" style="fill: none; stroke: #3465a4; stroke-width: 1; stroke-opacity: 1.00; stroke-linecap: round; stroke-linejoin: round;" id="ezcGraphLine_55"/><path d=" M 162.8571,278.7792 L 162.8571,278.7792" style="fill: none; stroke: #4e9a06; stroke-width: 1; stroke-opacity: 1.00; stroke-linecap: round; stroke-linejoin: round;" id="ezcGraphLine_57"/><path d=" M 162.8571,278.7792 L 208.5714,289.3632" style="fill: none; stroke: #4e9a06; stroke-width: 1; stroke-opacity: 1.00; stroke-linecap: round; stroke-linejoin: round;" id="ezcGraphLine_59"/><path d=" M 208.5714,289.3632 L 254.2857,279.6864" style="fill: none; stroke: #4e9a06; stroke-width: 1; stroke-opacity: 1.00; stroke-linecap: round; stroke-linejoin: round;" id="ezcGraphLine_61"/><path d=" M 254.2857,279.6864 L 300.0000,274.8480" style="fill: none; stroke: #4e9a06; stroke-width: 1; stroke-opacity: 1.00; stroke-linecap: round; stroke-linejoin: round;" id="ezcGraphLine_63"/><path d=" M 300.0000,274.8480 L 345.7143,293.5968" style="fill: none; stroke: #4e9a06; stroke-width: 1; stroke-opacity: 1.00; stroke-linecap: round; stroke-linejoin: round;" id="ezcGraphLine_65"/><path d=" M 345.7143,293.5968 L 391.4286,315.0672" style="fill: none; stroke: #4e9a06; stroke-width: 1; stroke-opacity: 1.00; stroke-linecap: round; stroke-linejoin: round;" id="ezcGraphLine_67"/><path d=" M 391.4286,315.0672 L 437.1429,285.7344" style="fill: none; stroke: #4e9a06; stroke-width: 1; stroke-opacity: 1.00; stroke-linecap: round; stroke-linejoin: round;" id="ezcGraphLine_69"/><path d=" M 159.8571,186.2208 L 159.8571,180.2208 L 165.8571,180.2208 L 165.8571,186.2208 L 159.8571,186.2208 z " style="fill: #3465a4; fill-opacity: 1.00; stroke: none; cursor: pointer;" id="ezcGraphPolygon_71" onclick="top.location = 'https://linux-hardware.org/?view=computers&amp;type=notebook&amp;f=os_dual_boot_win&amp;v=0&amp;p=-1&amp;c=Poland&amp;p=105'"/><path d=" M 205.5714,175.6368 L 205.5714,169.6368 L 211.5714,169.6368 L 211.5714,175.6368 L 205.5714,175.6368 z " style="fill: #3465a4; fill-opacity: 1.00; stroke: none; cursor: pointer;" id="ezcGraphPolygon_72" onclick="top.location = 'https://linux-hardware.org/?view=computers&amp;type=notebook&amp;f=os_dual_boot_win&amp;v=0&amp;p=-1&amp;c=Poland&amp;p=107'"/><path d=" M 251.2857,185.3136 L 251.2857,179.3136 L 257.2857,179.3136 L 257.2857,185.3136 L 251.2857,185.3136 z " style="fill: #3465a4; fill-opacity: 1.00; stroke: none; cursor: pointer;" id="ezcGraphPolygon_73" onclick="top.location = 'https://linux-hardware.org/?view=computers&amp;type=notebook&amp;f=os_dual_boot_win&amp;v=0&amp;p=-1&amp;c=Poland&amp;p=109'"/><path d=" M 297.0000,190.1520 L 297.0000,184.1520 L 303.0000,184.1520 L 303.0000,190.1520 L 297.0000,190.1520 z " style="fill: #3465a4; fill-opacity: 1.00; stroke: none; cursor: pointer;" id="ezcGraphPolygon_74" onclick="top.location = 'https://linux-hardware.org/?view=computers&amp;type=notebook&amp;f=os_dual_boot_win&amp;v=0&amp;p=-1&amp;c=Poland&amp;p=111'"/><path d=" M 342.7143,171.4032 L 342.7143,165.4032 L 348.7143,165.4032 L 348.7143,171.4032 L 342.7143,171.4032 z " style="fill: #3465a4; fill-opacity: 1.00; stroke: none; cursor: pointer;" id="ezcGraphPolygon_75" onclick="top.location = 'https://linux-hardware.org/?view=computers&amp;type=notebook&amp;f=os_dual_boot_win&amp;v=0&amp;p=-1&amp;c=Poland&amp;p=113'"/><path d=" M 388.4286,149.9328 L 388.4286,143.9328 L 394.4286,143.9328 L 394.4286,149.9328 L 388.4286,149.9328 z " style="fill: #3465a4; fill-opacity: 1.00; stroke: none; cursor: pointer;" id="ezcGraphPolygon_76" onclick="top.location = 'https://linux-hardware.org/?view=computers&amp;type=notebook&amp;f=os_dual_boot_win&amp;v=0&amp;p=-1&amp;c=Poland&amp;p=115'"/><path d=" M 434.1429,179.2656 L 434.1429,173.2656 L 440.1429,173.2656 L 440.1429,179.2656 L 434.1429,179.2656 z " style="fill: #3465a4; fill-opacity: 1.00; stroke: none; cursor: pointer;" id="ezcGraphPolygon_77" onclick="top.location = 'https://linux-hardware.org/?view=computers&amp;type=notebook&amp;f=os_dual_boot_win&amp;v=0&amp;p=-1&amp;c=Poland&amp;p=117'"/><path d=" M 159.8571,281.7792 L 159.8571,275.7792 L 165.8571,275.7792 L 165.8571,281.7792 L 159.8571,281.7792 z " style="fill: #4e9a06; fill-opacity: 1.00; stroke: none; cursor: pointer;" id="ezcGraphPolygon_78" onclick="top.location = 'https://linux-hardware.org/?view=computers&amp;type=notebook&amp;f=os_dual_boot_win&amp;v=1&amp;p=-1&amp;c=Poland&amp;p=105'"/><path d=" M 205.5714,292.3632 L 205.5714,286.3632 L 211.5714,286.3632 L 211.5714,292.3632 L 205.5714,292.3632 z " style="fill: #4e9a06; fill-opacity: 1.00; stroke: none; cursor: pointer;" id="ezcGraphPolygon_79" onclick="top.location = 'https://linux-hardware.org/?view=computers&amp;type=notebook&amp;f=os_dual_boot_win&amp;v=1&amp;p=-1&amp;c=Poland&amp;p=107'"/><path d=" M 251.2857,282.6864 L 251.2857,276.6864 L 257.2857,276.6864 L 257.2857,282.6864 L 251.2857,282.6864 z " style="fill: #4e9a06; fill-opacity: 1.00; stroke: none; cursor: pointer;" id="ezcGraphPolygon_80" onclick="top.location = 'https://linux-hardware.org/?view=computers&amp;type=notebook&amp;f=os_dual_boot_win&amp;v=1&amp;p=-1&amp;c=Poland&amp;p=109'"/><path d=" M 297.0000,277.8480 L 297.0000,271.8480 L 303.0000,271.8480 L 303.0000,277.8480 L 297.0000,277.8480 z " style="fill: #4e9a06; fill-opacity: 1.00; stroke: none; cursor: pointer;" id="ezcGraphPolygon_81" onclick="top.location = 'https://linux-hardware.org/?view=computers&amp;type=notebook&amp;f=os_dual_boot_win&amp;v=1&amp;p=-1&amp;c=Poland&amp;p=111'"/><path d=" M 342.7143,296.5968 L 342.7143,290.5968 L 348.7143,290.5968 L 348.7143,296.5968 L 342.7143,296.5968 z " style="fill: #4e9a06; fill-opacity: 1.00; stroke: none; cursor: pointer;" id="ezcGraphPolygon_82" onclick="top.location = 'https://linux-hardware.org/?view=computers&amp;type=notebook&amp;f=os_dual_boot_win&amp;v=1&amp;p=-1&amp;c=Poland&amp;p=113'"/><path d=" M 388.4286,318.0672 L 388.4286,312.0672 L 394.4286,312.0672 L 394.4286,318.0672 L 388.4286,318.0672 z " style="fill: #4e9a06; fill-opacity: 1.00; stroke: none; cursor: pointer;" id="ezcGraphPolygon_83" onclick="top.location = 'https://linux-hardware.org/?view=computers&amp;type=notebook&amp;f=os_dual_boot_win&amp;v=1&amp;p=-1&amp;c=Poland&amp;p=115'"/><path d=" M 434.1429,288.7344 L 434.1429,282.7344 L 440.1429,282.7344 L 440.1429,288.7344 L 434.1429,288.7344 z " style="fill: #4e9a06; fill-opacity: 1.00; stroke: none; cursor: pointer;" id="ezcGraphPolygon_84" onclick="top.location = 'https://linux-hardware.org/?view=computers&amp;type=notebook&amp;f=os_dual_boot_win&amp;v=1&amp;p=-1&amp;c=Poland&amp;p=117'"/><g id="ezcGraphTextBox_3"><path d=" M 90.5000,42.0000 L 90.5000,0.5000 L 410.0000,0.5000 L 410.0000,42.0000 L 90.5000,42.0000 z " style="fill: #ffffff; fill-opacity: 0.00; stroke: none;" id="ezcGraphPolygon_85"/><text id="ezcGraphTextBox_3_text" x="91.0000" text-length="318.0000px" y="35.0000" style="font-size: 40px; font-family: 'Arial'; fill: #2e3436; fill-opacity: 1.00; stroke: none;">Dual Boot (Win)</text></g><g id="ezcGraphTextBox_6" style=" cursor: pointer;" onclick="top.location = 'https://linux-hardware.org/?view=computers&amp;type=notebook&amp;f=os_dual_boot_win&amp;v=0&amp;p=-1&amp;c=Poland'"><path d=" M 16.5000,59.0000 L 16.5000,43.5000 L 32.8400,43.5000 L 32.8400,59.0000 L 16.5000,59.0000 z " style="fill: #ffffff; fill-opacity: 0.00; stroke: none;" id="ezcGraphPolygon_86"/><text id="ezcGraphTextBox_6_text" x="17.0000" text-length="14.8400px" y="55.9000" style="font-size: 14px; font-family: 'Arial'; fill: #2e3436; fill-opacity: 1.00; stroke: none;">No</text></g><g id="ezcGraphTextBox_8" style=" cursor: pointer;" onclick="top.location = 'https://linux-hardware.org/?view=computers&amp;type=notebook&amp;f=os_dual_boot_win&amp;v=1&amp;p=-1&amp;c=Poland'"><path d=" M 16.5000,77.0000 L 16.5000,61.5000 L 40.2600,61.5000 L 40.2600,77.0000 L 16.5000,77.0000 z " style="fill: #ffffff; fill-opacity: 0.00; stroke: none;" id="ezcGraphPolygon_87"/><text id="ezcGraphTextBox_8_text" x="17.0000" text-length="22.2600px" y="73.9000" style="font-size: 14px; font-family: 'Arial'; fill: #2e3436; fill-opacity: 1.00; stroke: none;">Yes</text></g><g id="ezcGraphTextBox_11" transform="rotate( 0.00 493.0000 375.2000 )"><path d=" M 463.0500,381.2000 L 463.0500,366.7000 L 499.0000,366.7000 L 499.0000,381.2000 L 463.0500,381.2000 z " style="fill: #ffffff; fill-opacity: 0.00; stroke: none;" id="ezcGraphPolygon_88"/><text id="ezcGraphTextBox_11_text" x="463.5500" text-length="34.4500px" y="378.2500" style="font-size: 13px; font-family: 'Arial'; fill: #2e3436; fill-opacity: 1.00; stroke: none;">Time </text></g><g id="ezcGraphTextBox_12"><path d=" M 146.2371,411.3000 L 146.2371,383.7000 L 179.9771,383.7000 L 179.9771,411.3000 L 146.2371,411.3000 z " style="fill: #ffffff; fill-opacity: 0.00; stroke: none;" id="ezcGraphPolygon_89"/><text id="ezcGraphTextBox_12_text" x="152.5221" text-length="20.6700px" y="395.2500" style="font-size: 13px; font-family: 'Arial'; fill: #2e3436; fill-opacity: 1.00; stroke: none;">Sep</text><text id="ezcGraphTextBox_12_text" x="146.7371" text-length="32.2400px" y="409.5500" style="font-size: 13px; font-family: 'Arial'; fill: #2e3436; fill-opacity: 1.00; stroke: none;">2022</text></g><g id="ezcGraphTextBox_15"><path d=" M 191.9514,411.3000 L 191.9514,383.7000 L 225.6914,383.7000 L 225.6914,411.3000 L 191.9514,411.3000 z " style="fill: #ffffff; fill-opacity: 0.00; stroke: none;" id="ezcGraphPolygon_90"/><text id="ezcGraphTextBox_15_text" x="198.2364" text-length="20.6700px" y="395.2500" style="font-size: 13px; font-family: 'Arial'; fill: #2e3436; fill-opacity: 1.00; stroke: none;">Nov</text><text id="ezcGraphTextBox_15_text" x="192.4514" text-length="32.2400px" y="409.5500" style="font-size: 13px; font-family: 'Arial'; fill: #2e3436; fill-opacity: 1.00; stroke: none;">2022</text></g><g id="ezcGraphTextBox_18"><path d=" M 237.6657,411.3000 L 237.6657,383.7000 L 271.4057,383.7000 L 271.4057,411.3000 L 237.6657,411.3000 z " style="fill: #ffffff; fill-opacity: 0.00; stroke: none;" id="ezcGraphPolygon_91"/><text id="ezcGraphTextBox_18_text" x="243.9507" text-length="20.6700px" y="395.2500" style="font-size: 13px; font-family: 'Arial'; fill: #2e3436; fill-opacity: 1.00; stroke: none;">Jan</text><text id="ezcGraphTextBox_18_text" x="238.1657" text-length="32.2400px" y="409.5500" style="font-size: 13px; font-family: 'Arial'; fill: #2e3436; fill-opacity: 1.00; stroke: none;">2023</text></g><g id="ezcGraphTextBox_21"><path d=" M 283.3800,411.3000 L 283.3800,383.7000 L 317.1200,383.7000 L 317.1200,411.3000 L 283.3800,411.3000 z " style="fill: #ffffff; fill-opacity: 0.00; stroke: none;" id="ezcGraphPolygon_92"/><text id="ezcGraphTextBox_21_text" x="289.6650" text-length="20.6700px" y="395.2500" style="font-size: 13px; font-family: 'Arial'; fill: #2e3436; fill-opacity: 1.00; stroke: none;">Mar</text><text id="ezcGraphTextBox_21_text" x="283.8800" text-length="32.2400px" y="409.5500" style="font-size: 13px; font-family: 'Arial'; fill: #2e3436; fill-opacity: 1.00; stroke: none;">2023</text></g><g id="ezcGraphTextBox_24"><path d=" M 329.0943,411.3000 L 329.0943,383.7000 L 362.8343,383.7000 L 362.8343,411.3000 L 329.0943,411.3000 z " style="fill: #ffffff; fill-opacity: 0.00; stroke: none;" id="ezcGraphPolygon_93"/><text id="ezcGraphTextBox_24_text" x="335.3793" text-length="20.6700px" y="395.2500" style="font-size: 13px; font-family: 'Arial'; fill: #2e3436; fill-opacity: 1.00; stroke: none;">May</text><text id="ezcGraphTextBox_24_text" x="329.5943" text-length="32.2400px" y="409.5500" style="font-size: 13px; font-family: 'Arial'; fill: #2e3436; fill-opacity: 1.00; stroke: none;">2023</text></g><g id="ezcGraphTextBox_27"><path d=" M 374.8086,411.3000 L 374.8086,383.7000 L 408.5486,383.7000 L 408.5486,411.3000 L 374.8086,411.3000 z " style="fill: #ffffff; fill-opacity: 0.00; stroke: none;" id="ezcGraphPolygon_94"/><text id="ezcGraphTextBox_27_text" x="381.0936" text-length="20.6700px" y="395.2500" style="font-size: 13px; font-family: 'Arial'; fill: #2e3436; fill-opacity: 1.00; stroke: none;">Jul</text><text id="ezcGraphTextBox_27_text" x="375.3086" text-length="32.2400px" y="409.5500" style="font-size: 13px; font-family: 'Arial'; fill: #2e3436; fill-opacity: 1.00; stroke: none;">2023</text></g><g id="ezcGraphTextBox_30"><path d=" M 420.5229,411.3000 L 420.5229,383.7000 L 454.2629,383.7000 L 454.2629,411.3000 L 420.5229,411.3000 z " style="fill: #ffffff; fill-opacity: 0.00; stroke: none;" id="ezcGraphPolygon_95"/><text id="ezcGraphTextBox_30_text" x="426.8079" text-length="20.6700px" y="395.2500" style="font-size: 13px; font-family: 'Arial'; fill: #2e3436; fill-opacity: 1.00; stroke: none;">Sep</text><text id="ezcGraphTextBox_30_text" x="421.0229" text-length="32.2400px" y="409.5500" style="font-size: 13px; font-family: 'Arial'; fill: #2e3436; fill-opacity: 1.00; stroke: none;">2023</text></g><g id="ezcGraphTextBox_35" transform="rotate( 0.00 147.0000 49.0000 )"><path d=" M 141.5000,58.0000 L 141.5000,43.5000 L 384.1500,43.5000 L 384.1500,58.0000 L 141.5000,58.0000 z " style="fill: #ffffff; fill-opacity: 0.00; stroke: none;" id="ezcGraphPolygon_96"/><text id="ezcGraphTextBox_35_text" x="142.0000" text-length="241.1500px" y="55.0500" style="font-size: 13px; font-family: 'Arial'; fill: #2e3436; fill-opacity: 1.00; stroke: none;">Notebooks by "Dual Boot (Win)" in %</text></g><g id="ezcGraphTextBox_36"><path d=" M 129.4400,381.2000 L 129.4400,366.7000 L 139.0000,366.7000 L 139.0000,381.2000 L 129.4400,381.2000 z " style="fill: #ffffff; fill-opacity: 0.00; stroke: none;" id="ezcGraphPolygon_97"/><text id="ezcGraphTextBox_36_text" x="129.9400" text-length="8.0600px" y="378.2500" style="font-size: 13px; font-family: 'Arial'; fill: #2e3436; fill-opacity: 1.00; stroke: none;">0</text></g><g id="ezcGraphTextBox_39"><path d=" M 121.3800,230.0000 L 121.3800,215.5000 L 139.0000,215.5000 L 139.0000,230.0000 L 121.3800,230.0000 z " style="fill: #ffffff; fill-opacity: 0.00; stroke: none;" id="ezcGraphPolygon_98"/><text id="ezcGraphTextBox_39_text" x="121.8800" text-length="16.1200px" y="227.0500" style="font-size: 13px; font-family: 'Arial'; fill: #2e3436; fill-opacity: 1.00; stroke: none;">50</text></g><g id="ezcGraphTextBox_42"><path d=" M 113.3200,95.8000 L 113.3200,81.3000 L 139.0000,81.3000 L 139.0000,95.8000 L 113.3200,95.8000 z " style="fill: #ffffff; fill-opacity: 0.00; stroke: none;" id="ezcGraphPolygon_99"/><text id="ezcGraphTextBox_42_text" x="113.8200" text-length="24.1800px" y="92.8500" style="font-size: 13px; font-family: 'Arial'; fill: #2e3436; fill-opacity: 1.00; stroke: none;">100</text></g><g id="ezcGraphTextBox_44"><path d=" M 149.9571,178.2208 L 149.9571,166.7208 L 176.2571,166.7208 L 176.2571,178.2208 L 149.9571,178.2208 z " style="fill: #ffffff; fill-opacity: 0.00; stroke: none;" id="ezcGraphPolygon_100"/><text id="ezcGraphTextBox_44_text" x="150.4571" text-length="24.8000px" y="175.7208" style="font-size: 10px; font-family: 'Arial'; fill: #2e3436; fill-opacity: 1.00; stroke: none;">65.8</text></g><g id="ezcGraphTextBox_46"><path d=" M 195.6714,167.6368 L 195.6714,156.1368 L 221.9714,156.1368 L 221.9714,167.6368 L 195.6714,167.6368 z " style="fill: #ffffff; fill-opacity: 0.00; stroke: none;" id="ezcGraphPolygon_101"/><text id="ezcGraphTextBox_46_text" x="196.1714" text-length="24.8000px" y="165.1368" style="font-size: 10px; font-family: 'Arial'; fill: #2e3436; fill-opacity: 1.00; stroke: none;">69.3</text></g><g id="ezcGraphTextBox_48"><path d=" M 241.3857,177.3136 L 241.3857,165.8136 L 267.6857,165.8136 L 267.6857,177.3136 L 241.3857,177.3136 z " style="fill: #ffffff; fill-opacity: 0.00; stroke: none;" id="ezcGraphPolygon_102"/><text id="ezcGraphTextBox_48_text" x="241.8857" text-length="24.8000px" y="174.8136" style="font-size: 10px; font-family: 'Arial'; fill: #2e3436; fill-opacity: 1.00; stroke: none;">66.1</text></g><g id="ezcGraphTextBox_50"><path d=" M 287.1000,182.1520 L 287.1000,170.6520 L 313.4000,170.6520 L 313.4000,182.1520 L 287.1000,182.1520 z " style="fill: #ffffff; fill-opacity: 0.00; stroke: none;" id="ezcGraphPolygon_103"/><text id="ezcGraphTextBox_50_text" x="287.6000" text-length="24.8000px" y="179.6520" style="font-size: 10px; font-family: 'Arial'; fill: #2e3436; fill-opacity: 1.00; stroke: none;">64.5</text></g><g id="ezcGraphTextBox_52"><path d=" M 332.8143,163.4032 L 332.8143,151.9032 L 359.1143,151.9032 L 359.1143,163.4032 L 332.8143,163.4032 z " style="fill: #ffffff; fill-opacity: 0.00; stroke: none;" id="ezcGraphPolygon_104"/><text id="ezcGraphTextBox_52_text" x="333.3143" text-length="24.8000px" y="160.9032" style="font-size: 10px; font-family: 'Arial'; fill: #2e3436; fill-opacity: 1.00; stroke: none;">70.7</text></g><g id="ezcGraphTextBox_54"><path d=" M 378.5286,141.9328 L 378.5286,130.4328 L 404.8286,130.4328 L 404.8286,141.9328 L 378.5286,141.9328 z " style="fill: #ffffff; fill-opacity: 0.00; stroke: none;" id="ezcGraphPolygon_105"/><text id="ezcGraphTextBox_54_text" x="379.0286" text-length="24.8000px" y="139.4328" style="font-size: 10px; font-family: 'Arial'; fill: #2e3436; fill-opacity: 1.00; stroke: none;">77.8</text></g><g id="ezcGraphTextBox_56"><path d=" M 424.2429,171.2656 L 424.2429,159.7656 L 450.5429,159.7656 L 450.5429,171.2656 L 424.2429,171.2656 z " style="fill: #ffffff; fill-opacity: 0.00; stroke: none;" id="ezcGraphPolygon_106"/><text id="ezcGraphTextBox_56_text" x="424.7429" text-length="24.8000px" y="168.7656" style="font-size: 10px; font-family: 'Arial'; fill: #2e3436; fill-opacity: 1.00; stroke: none;">68.1</text></g><g id="ezcGraphTextBox_58"><path d=" M 149.9571,273.7792 L 149.9571,262.2792 L 176.2571,262.2792 L 176.2571,273.7792 L 149.9571,273.7792 z " style="fill: #ffffff; fill-opacity: 0.00; stroke: none;" id="ezcGraphPolygon_107"/><text id="ezcGraphTextBox_58_text" x="150.4571" text-length="24.8000px" y="271.2792" style="font-size: 10px; font-family: 'Arial'; fill: #2e3436; fill-opacity: 1.00; stroke: none;">34.2</text></g><g id="ezcGraphTextBox_60"><path d=" M 195.6714,284.3632 L 195.6714,272.8632 L 221.9714,272.8632 L 221.9714,284.3632 L 195.6714,284.3632 z " style="fill: #ffffff; fill-opacity: 0.00; stroke: none;" id="ezcGraphPolygon_108"/><text id="ezcGraphTextBox_60_text" x="196.1714" text-length="24.8000px" y="281.8632" style="font-size: 10px; font-family: 'Arial'; fill: #2e3436; fill-opacity: 1.00; stroke: none;">30.7</text></g><g id="ezcGraphTextBox_62"><path d=" M 241.3857,274.6864 L 241.3857,263.1864 L 267.6857,263.1864 L 267.6857,274.6864 L 241.3857,274.6864 z " style="fill: #ffffff; fill-opacity: 0.00; stroke: none;" id="ezcGraphPolygon_109"/><text id="ezcGraphTextBox_62_text" x="241.8857" text-length="24.8000px" y="272.1864" style="font-size: 10px; font-family: 'Arial'; fill: #2e3436; fill-opacity: 1.00; stroke: none;">33.9</text></g><g id="ezcGraphTextBox_64"><path d=" M 287.1000,269.8480 L 287.1000,258.3480 L 313.4000,258.3480 L 313.4000,269.8480 L 287.1000,269.8480 z " style="fill: #ffffff; fill-opacity: 0.00; stroke: none;" id="ezcGraphPolygon_110"/><text id="ezcGraphTextBox_64_text" x="287.6000" text-length="24.8000px" y="267.3480" style="font-size: 10px; font-family: 'Arial'; fill: #2e3436; fill-opacity: 1.00; stroke: none;">35.5</text></g><g id="ezcGraphTextBox_66"><path d=" M 332.8143,288.5968 L 332.8143,277.0968 L 359.1143,277.0968 L 359.1143,288.5968 L 332.8143,288.5968 z " style="fill: #ffffff; fill-opacity: 0.00; stroke: none;" id="ezcGraphPolygon_111"/><text id="ezcGraphTextBox_66_text" x="333.3143" text-length="24.8000px" y="286.0968" style="font-size: 10px; font-family: 'Arial'; fill: #2e3436; fill-opacity: 1.00; stroke: none;">29.3</text></g><g id="ezcGraphTextBox_68"><path d=" M 378.5286,310.0672 L 378.5286,298.5672 L 404.8286,298.5672 L 404.8286,310.0672 L 378.5286,310.0672 z " style="fill: #ffffff; fill-opacity: 0.00; stroke: none;" id="ezcGraphPolygon_112"/><text id="ezcGraphTextBox_68_text" x="379.0286" text-length="24.8000px" y="307.5672" style="font-size: 10px; font-family: 'Arial'; fill: #2e3436; fill-opacity: 1.00; stroke: none;">22.2</text></g><g id="ezcGraphTextBox_70"><path d=" M 424.2429,280.7344 L 424.2429,269.2344 L 450.5429,269.2344 L 450.5429,280.7344 L 424.2429,280.7344 z " style="fill: #ffffff; fill-opacity: 0.00; stroke: none;" id="ezcGraphPolygon_113"/><text id="ezcGraphTextBox_70_text" x="424.7429" text-length="24.8000px" y="278.2344" style="font-size: 10px; font-family: 'Arial'; fill: #2e3436; fill-opacity: 1.00; stroke: none;">31.9</text></g></g></svg>
