<?xml version="1.0"?>
<svg xmlns="http://www.w3.org/2000/svg" width="500" height="420" version="1.0" id="ezcGraph"><defs/><g id="ezcGraphChart" color-rendering="optimizeQuality" shape-rendering="geometricPrecision" text-rendering="optimizeLegibility"><path d=" M 0.0000,420.0000 L 0.0000,0.0000 L 500.0000,0.0000 L 500.0000,420.0000 L 0.0000,420.0000 z " style="fill: #eeeeec; fill-opacity: 1.00; stroke: none;" id="ezcGraphPolygon_1"/><path d=" M 0.0000,42.0000 L 0.0000,0.0000 L 500.0000,0.0000 L 500.0000,42.0000 L 0.0000,42.0000 z " style="fill: #000000; fill-opacity: 0.00; stroke: none;" id="ezcGraphPolygon_2"/><path d=" M 0.0000,420.0000 L 0.0000,42.0000 L 100.0000,42.0000 L 100.0000,420.0000 L 0.0000,420.0000 z " style="fill: #000000; fill-opacity: 0.00; stroke: none;" id="ezcGraphPolygon_4"/><path d=" M 2.0000,58.0000 L 2.0000,44.0000 L 16.0000,44.0000 L 16.0000,58.0000 L 2.0000,58.0000 z " style="fill: #3465a4; fill-opacity: 1.00; stroke: none; cursor: pointer;" id="ezcGraphPolygon_5" onclick="top.location = 'https://linux-hardware.org/?view=computers&amp;f=gpu_driver&amp;v=free&amp;p=-1'"/><path d=" M 2.0000,76.0000 L 2.0000,62.0000 L 16.0000,62.0000 L 16.0000,76.0000 L 2.0000,76.0000 z " style="fill: #4e9a06; fill-opacity: 1.00; stroke: none; cursor: pointer;" id="ezcGraphPolygon_7" onclick="top.location = 'https://linux-hardware.org/?view=computers&amp;f=gpu_driver&amp;v=proprietary&amp;p=-1'"/><path d=" M 2.0000,94.0000 L 2.0000,80.0000 L 16.0000,80.0000 L 16.0000,94.0000 L 2.0000,94.0000 z " style="fill: #cc0000; fill-opacity: 1.00; stroke: none;" id="ezcGraphPolygon_9"/><path d=" M 100.0000,382.2000 L 500.0000,382.2000" style="fill: none; stroke: #2e3436; stroke-width: 1; stroke-opacity: 1.00; stroke-linecap: round; stroke-linejoin: round;" id="ezcGraphLine_11"/><path d=" M 492.0000,378.2000 L 500.0000,382.2000 L 492.0000,386.2000 L 492.0000,378.2000 z " style="fill: #2e3436; fill-opacity: 1.00; stroke: none;" id="ezcGraphPolygon_12"/><path d=" M 185.7143,79.8000 L 185.7143,382.2000" style="fill: none; stroke: #000000; stroke-width: 1; stroke-opacity: 0.00; stroke-linecap: round; stroke-linejoin: round;" id="ezcGraphLine_15"/><path d=" M 185.7143,379.2000 L 185.7143,385.2000" style="fill: none; stroke: #2e3436; stroke-width: 1; stroke-opacity: 1.00; stroke-linecap: round; stroke-linejoin: round;" id="ezcGraphLine_16"/><path d=" M 231.4286,79.8000 L 231.4286,382.2000" style="fill: none; stroke: #000000; stroke-width: 1; stroke-opacity: 0.00; stroke-linecap: round; stroke-linejoin: round;" id="ezcGraphLine_18"/><path d=" M 231.4286,379.2000 L 231.4286,385.2000" style="fill: none; stroke: #2e3436; stroke-width: 1; stroke-opacity: 1.00; stroke-linecap: round; stroke-linejoin: round;" id="ezcGraphLine_19"/><path d=" M 277.1429,79.8000 L 277.1429,382.2000" style="fill: none; stroke: #000000; stroke-width: 1; stroke-opacity: 0.00; stroke-linecap: round; stroke-linejoin: round;" id="ezcGraphLine_21"/><path d=" M 277.1429,379.2000 L 277.1429,385.2000" style="fill: none; stroke: #2e3436; stroke-width: 1; stroke-opacity: 1.00; stroke-linecap: round; stroke-linejoin: round;" id="ezcGraphLine_22"/><path d=" M 322.8571,79.8000 L 322.8571,382.2000" style="fill: none; stroke: #000000; stroke-width: 1; stroke-opacity: 0.00; stroke-linecap: round; stroke-linejoin: round;" id="ezcGraphLine_24"/><path d=" M 322.8571,379.2000 L 322.8571,385.2000" style="fill: none; stroke: #2e3436; stroke-width: 1; stroke-opacity: 1.00; stroke-linecap: round; stroke-linejoin: round;" id="ezcGraphLine_25"/><path d=" M 368.5714,79.8000 L 368.5714,382.2000" style="fill: none; stroke: #000000; stroke-width: 1; stroke-opacity: 0.00; stroke-linecap: round; stroke-linejoin: round;" id="ezcGraphLine_27"/><path d=" M 368.5714,379.2000 L 368.5714,385.2000" style="fill: none; stroke: #2e3436; stroke-width: 1; stroke-opacity: 1.00; stroke-linecap: round; stroke-linejoin: round;" id="ezcGraphLine_28"/><path d=" M 414.2857,79.8000 L 414.2857,382.2000" style="fill: none; stroke: #000000; stroke-width: 1; stroke-opacity: 0.00; stroke-linecap: round; stroke-linejoin: round;" id="ezcGraphLine_30"/><path d=" M 414.2857,379.2000 L 414.2857,385.2000" style="fill: none; stroke: #2e3436; stroke-width: 1; stroke-opacity: 1.00; stroke-linecap: round; stroke-linejoin: round;" id="ezcGraphLine_31"/><path d=" M 460.0000,79.8000 L 460.0000,382.2000" style="fill: none; stroke: #000000; stroke-width: 1; stroke-opacity: 0.00; stroke-linecap: round; stroke-linejoin: round;" id="ezcGraphLine_33"/><path d=" M 460.0000,379.2000 L 460.0000,385.2000" style="fill: none; stroke: #2e3436; stroke-width: 1; stroke-opacity: 1.00; stroke-linecap: round; stroke-linejoin: round;" id="ezcGraphLine_34"/><path d=" M 140.0000,420.0000 L 140.0000,42.0000" style="fill: none; stroke: #2e3436; stroke-width: 1; stroke-opacity: 1.00; stroke-linecap: round; stroke-linejoin: round;" id="ezcGraphLine_35"/><path d=" M 136.0000,50.0000 L 140.0000,42.0000 L 144.0000,50.0000 L 136.0000,50.0000 z " style="fill: #2e3436; fill-opacity: 1.00; stroke: none;" id="ezcGraphPolygon_36"/><path d=" M 140.0000,231.0000 L 460.0000,231.0000" style="fill: none; stroke: #000000; stroke-width: 1; stroke-opacity: 0.00; stroke-linecap: round; stroke-linejoin: round;" id="ezcGraphLine_39"/><path d=" M 140.0000,231.0000 L 143.0000,231.0000" style="fill: none; stroke: #2e3436; stroke-width: 1; stroke-opacity: 1.00; stroke-linecap: round; stroke-linejoin: round;" id="ezcGraphLine_40"/><path d=" M 140.0000,79.8000 L 460.0000,79.8000" style="fill: none; stroke: #000000; stroke-width: 1; stroke-opacity: 0.00; stroke-linecap: round; stroke-linejoin: round;" id="ezcGraphLine_42"/><path d=" M 140.0000,79.8000 L 143.0000,79.8000" style="fill: none; stroke: #2e3436; stroke-width: 1; stroke-opacity: 1.00; stroke-linecap: round; stroke-linejoin: round;" id="ezcGraphLine_43"/><path d=" M 162.8571,191.6880 L 162.8571,191.6880" style="fill: none; stroke: #3465a4; stroke-width: 1; stroke-opacity: 1.00; stroke-linecap: round; stroke-linejoin: round;" id="ezcGraphLine_45"/><path d=" M 162.8571,191.6880 L 208.5714,147.2352" style="fill: none; stroke: #3465a4; stroke-width: 1; stroke-opacity: 1.00; stroke-linecap: round; stroke-linejoin: round;" id="ezcGraphLine_47"/><path d=" M 208.5714,147.2352 L 254.2857,158.1216" style="fill: none; stroke: #3465a4; stroke-width: 1; stroke-opacity: 1.00; stroke-linecap: round; stroke-linejoin: round;" id="ezcGraphLine_49"/><path d=" M 254.2857,158.1216 L 300.0000,164.4720" style="fill: none; stroke: #3465a4; stroke-width: 1; stroke-opacity: 1.00; stroke-linecap: round; stroke-linejoin: round;" id="ezcGraphLine_51"/><path d=" M 300.0000,164.4720 L 345.7143,157.8192" style="fill: none; stroke: #3465a4; stroke-width: 1; stroke-opacity: 1.00; stroke-linecap: round; stroke-linejoin: round;" id="ezcGraphLine_53"/><path d=" M 345.7143,157.8192 L 391.4286,163.8672" style="fill: none; stroke: #3465a4; stroke-width: 1; stroke-opacity: 1.00; stroke-linecap: round; stroke-linejoin: round;" id="ezcGraphLine_55"/><path d=" M 391.4286,163.8672 L 437.1429,154.1904" style="fill: none; stroke: #3465a4; stroke-width: 1; stroke-opacity: 1.00; stroke-linecap: round; stroke-linejoin: round;" id="ezcGraphLine_57"/><path d=" M 162.8571,270.3120 L 162.8571,270.3120" style="fill: none; stroke: #4e9a06; stroke-width: 1; stroke-opacity: 1.00; stroke-linecap: round; stroke-linejoin: round;" id="ezcGraphLine_59"/><path d=" M 162.8571,270.3120 L 208.5714,314.7648" style="fill: none; stroke: #4e9a06; stroke-width: 1; stroke-opacity: 1.00; stroke-linecap: round; stroke-linejoin: round;" id="ezcGraphLine_61"/><path d=" M 208.5714,314.7648 L 254.2857,303.8784" style="fill: none; stroke: #4e9a06; stroke-width: 1; stroke-opacity: 1.00; stroke-linecap: round; stroke-linejoin: round;" id="ezcGraphLine_63"/><path d=" M 254.2857,303.8784 L 300.0000,301.4592" style="fill: none; stroke: #4e9a06; stroke-width: 1; stroke-opacity: 1.00; stroke-linecap: round; stroke-linejoin: round;" id="ezcGraphLine_65"/><path d=" M 300.0000,301.4592 L 345.7143,304.1808" style="fill: none; stroke: #4e9a06; stroke-width: 1; stroke-opacity: 1.00; stroke-linecap: round; stroke-linejoin: round;" id="ezcGraphLine_67"/><path d=" M 345.7143,304.1808 L 391.4286,298.1328" style="fill: none; stroke: #4e9a06; stroke-width: 1; stroke-opacity: 1.00; stroke-linecap: round; stroke-linejoin: round;" id="ezcGraphLine_69"/><path d=" M 391.4286,298.1328 L 437.1429,307.8096" style="fill: none; stroke: #4e9a06; stroke-width: 1; stroke-opacity: 1.00; stroke-linecap: round; stroke-linejoin: round;" id="ezcGraphLine_71"/><path d=" M 300.0000,378.5712 L 300.0000,378.5712" style="fill: none; stroke: #cc0000; stroke-width: 1; stroke-opacity: 1.00; stroke-linecap: round; stroke-linejoin: round;" id="ezcGraphLine_73"/><path d=" M 159.8571,194.6880 L 159.8571,188.6880 L 165.8571,188.6880 L 165.8571,194.6880 L 159.8571,194.6880 z " style="fill: #3465a4; fill-opacity: 1.00; stroke: none; cursor: pointer;" id="ezcGraphPolygon_75" onclick="top.location = 'https://linux-hardware.org/?view=computers&amp;f=gpu_driver&amp;v=free&amp;p=-1&amp;p=104'"/><path d=" M 205.5714,150.2352 L 205.5714,144.2352 L 211.5714,144.2352 L 211.5714,150.2352 L 205.5714,150.2352 z " style="fill: #3465a4; fill-opacity: 1.00; stroke: none; cursor: pointer;" id="ezcGraphPolygon_76" onclick="top.location = 'https://linux-hardware.org/?view=computers&amp;f=gpu_driver&amp;v=free&amp;p=-1&amp;p=106'"/><path d=" M 251.2857,161.1216 L 251.2857,155.1216 L 257.2857,155.1216 L 257.2857,161.1216 L 251.2857,161.1216 z " style="fill: #3465a4; fill-opacity: 1.00; stroke: none; cursor: pointer;" id="ezcGraphPolygon_77" onclick="top.location = 'https://linux-hardware.org/?view=computers&amp;f=gpu_driver&amp;v=free&amp;p=-1&amp;p=108'"/><path d=" M 297.0000,167.4720 L 297.0000,161.4720 L 303.0000,161.4720 L 303.0000,167.4720 L 297.0000,167.4720 z " style="fill: #3465a4; fill-opacity: 1.00; stroke: none; cursor: pointer;" id="ezcGraphPolygon_78" onclick="top.location = 'https://linux-hardware.org/?view=computers&amp;f=gpu_driver&amp;v=free&amp;p=-1&amp;p=110'"/><path d=" M 342.7143,160.8192 L 342.7143,154.8192 L 348.7143,154.8192 L 348.7143,160.8192 L 342.7143,160.8192 z " style="fill: #3465a4; fill-opacity: 1.00; stroke: none; cursor: pointer;" id="ezcGraphPolygon_79" onclick="top.location = 'https://linux-hardware.org/?view=computers&amp;f=gpu_driver&amp;v=free&amp;p=-1&amp;p=112'"/><path d=" M 388.4286,166.8672 L 388.4286,160.8672 L 394.4286,160.8672 L 394.4286,166.8672 L 388.4286,166.8672 z " style="fill: #3465a4; fill-opacity: 1.00; stroke: none; cursor: pointer;" id="ezcGraphPolygon_80" onclick="top.location = 'https://linux-hardware.org/?view=computers&amp;f=gpu_driver&amp;v=free&amp;p=-1&amp;p=114'"/><path d=" M 434.1429,157.1904 L 434.1429,151.1904 L 440.1429,151.1904 L 440.1429,157.1904 L 434.1429,157.1904 z " style="fill: #3465a4; fill-opacity: 1.00; stroke: none; cursor: pointer;" id="ezcGraphPolygon_81" onclick="top.location = 'https://linux-hardware.org/?view=computers&amp;f=gpu_driver&amp;v=free&amp;p=-1&amp;p=116'"/><path d=" M 159.8571,273.3120 L 159.8571,267.3120 L 165.8571,267.3120 L 165.8571,273.3120 L 159.8571,273.3120 z " style="fill: #4e9a06; fill-opacity: 1.00; stroke: none; cursor: pointer;" id="ezcGraphPolygon_82" onclick="top.location = 'https://linux-hardware.org/?view=computers&amp;f=gpu_driver&amp;v=proprietary&amp;p=-1&amp;p=104'"/><path d=" M 205.5714,317.7648 L 205.5714,311.7648 L 211.5714,311.7648 L 211.5714,317.7648 L 205.5714,317.7648 z " style="fill: #4e9a06; fill-opacity: 1.00; stroke: none; cursor: pointer;" id="ezcGraphPolygon_83" onclick="top.location = 'https://linux-hardware.org/?view=computers&amp;f=gpu_driver&amp;v=proprietary&amp;p=-1&amp;p=106'"/><path d=" M 251.2857,306.8784 L 251.2857,300.8784 L 257.2857,300.8784 L 257.2857,306.8784 L 251.2857,306.8784 z " style="fill: #4e9a06; fill-opacity: 1.00; stroke: none; cursor: pointer;" id="ezcGraphPolygon_84" onclick="top.location = 'https://linux-hardware.org/?view=computers&amp;f=gpu_driver&amp;v=proprietary&amp;p=-1&amp;p=108'"/><path d=" M 297.0000,304.4592 L 297.0000,298.4592 L 303.0000,298.4592 L 303.0000,304.4592 L 297.0000,304.4592 z " style="fill: #4e9a06; fill-opacity: 1.00; stroke: none; cursor: pointer;" id="ezcGraphPolygon_85" onclick="top.location = 'https://linux-hardware.org/?view=computers&amp;f=gpu_driver&amp;v=proprietary&amp;p=-1&amp;p=110'"/><path d=" M 342.7143,307.1808 L 342.7143,301.1808 L 348.7143,301.1808 L 348.7143,307.1808 L 342.7143,307.1808 z " style="fill: #4e9a06; fill-opacity: 1.00; stroke: none; cursor: pointer;" id="ezcGraphPolygon_86" onclick="top.location = 'https://linux-hardware.org/?view=computers&amp;f=gpu_driver&amp;v=proprietary&amp;p=-1&amp;p=112'"/><path d=" M 388.4286,301.1328 L 388.4286,295.1328 L 394.4286,295.1328 L 394.4286,301.1328 L 388.4286,301.1328 z " style="fill: #4e9a06; fill-opacity: 1.00; stroke: none; cursor: pointer;" id="ezcGraphPolygon_87" onclick="top.location = 'https://linux-hardware.org/?view=computers&amp;f=gpu_driver&amp;v=proprietary&amp;p=-1&amp;p=114'"/><path d=" M 434.1429,310.8096 L 434.1429,304.8096 L 440.1429,304.8096 L 440.1429,310.8096 L 434.1429,310.8096 z " style="fill: #4e9a06; fill-opacity: 1.00; stroke: none; cursor: pointer;" id="ezcGraphPolygon_88" onclick="top.location = 'https://linux-hardware.org/?view=computers&amp;f=gpu_driver&amp;v=proprietary&amp;p=-1&amp;p=116'"/><path d=" M 297.0000,381.5712 L 297.0000,375.5712 L 303.0000,375.5712 L 303.0000,381.5712 L 297.0000,381.5712 z " style="fill: #cc0000; fill-opacity: 1.00; stroke: none;" id="ezcGraphPolygon_89"/><g id="ezcGraphTextBox_3"><path d=" M 143.5000,42.0000 L 143.5000,0.5000 L 357.0000,0.5000 L 357.0000,42.0000 L 143.5000,42.0000 z " style="fill: #ffffff; fill-opacity: 0.00; stroke: none;" id="ezcGraphPolygon_90"/><text id="ezcGraphTextBox_3_text" x="144.0000" text-length="212.0000px" y="35.0000" style="font-size: 40px; font-family: 'Arial'; fill: #2e3436; fill-opacity: 1.00; stroke: none;">GPU Driver</text></g><g id="ezcGraphTextBox_6" style=" cursor: pointer;" onclick="top.location = 'https://linux-hardware.org/?view=computers&amp;f=gpu_driver&amp;v=free&amp;p=-1'"><path d=" M 16.5000,58.5000 L 16.5000,44.0000 L 45.5600,44.0000 L 45.5600,58.5000 L 16.5000,58.5000 z " style="fill: #ffffff; fill-opacity: 0.00; stroke: none;" id="ezcGraphPolygon_91"/><text id="ezcGraphTextBox_6_text" x="17.0000" text-length="27.5600px" y="55.5500" style="font-size: 13px; font-family: 'Arial'; fill: #2e3436; fill-opacity: 1.00; stroke: none;">Free</text></g><g id="ezcGraphTextBox_8" style=" cursor: pointer;" onclick="top.location = 'https://linux-hardware.org/?view=computers&amp;f=gpu_driver&amp;v=proprietary&amp;p=-1'"><path d=" M 16.5000,76.5000 L 16.5000,62.0000 L 93.7900,62.0000 L 93.7900,76.5000 L 16.5000,76.5000 z " style="fill: #ffffff; fill-opacity: 0.00; stroke: none;" id="ezcGraphPolygon_92"/><text id="ezcGraphTextBox_8_text" x="17.0000" text-length="75.7900px" y="73.5500" style="font-size: 13px; font-family: 'Arial'; fill: #2e3436; fill-opacity: 1.00; stroke: none;">Proprietary</text></g><g id="ezcGraphTextBox_10"><path d=" M 16.5000,94.5000 L 16.5000,80.0000 L 59.3400,80.0000 L 59.3400,94.5000 L 16.5000,94.5000 z " style="fill: #ffffff; fill-opacity: 0.00; stroke: none;" id="ezcGraphPolygon_93"/><text id="ezcGraphTextBox_10_text" x="17.0000" text-length="41.3400px" y="91.5500" style="font-size: 13px; font-family: 'Arial'; fill: #2e3436; fill-opacity: 1.00; stroke: none;">Others</text></g><g id="ezcGraphTextBox_13" transform="rotate( 0.00 493.0000 375.2000 )"><path d=" M 460.4000,381.2000 L 460.4000,365.7000 L 499.0000,365.7000 L 499.0000,381.2000 L 460.4000,381.2000 z " style="fill: #ffffff; fill-opacity: 0.00; stroke: none;" id="ezcGraphPolygon_94"/><text id="ezcGraphTextBox_13_text" x="460.9000" text-length="37.1000px" y="378.1000" style="font-size: 14px; font-family: 'Arial'; fill: #2e3436; fill-opacity: 1.00; stroke: none;">Time </text></g><g id="ezcGraphTextBox_14"><path d=" M 144.9971,413.3000 L 144.9971,383.7000 L 181.2171,383.7000 L 181.2171,413.3000 L 144.9971,413.3000 z " style="fill: #ffffff; fill-opacity: 0.00; stroke: none;" id="ezcGraphPolygon_95"/><text id="ezcGraphTextBox_14_text" x="151.7271" text-length="22.2600px" y="396.1000" style="font-size: 14px; font-family: 'Arial'; fill: #2e3436; fill-opacity: 1.00; stroke: none;">Aug</text><text id="ezcGraphTextBox_14_text" x="145.4971" text-length="34.7200px" y="411.5000" style="font-size: 14px; font-family: 'Arial'; fill: #2e3436; fill-opacity: 1.00; stroke: none;">2022</text></g><g id="ezcGraphTextBox_17"><path d=" M 190.7114,413.3000 L 190.7114,383.7000 L 226.9314,383.7000 L 226.9314,413.3000 L 190.7114,413.3000 z " style="fill: #ffffff; fill-opacity: 0.00; stroke: none;" id="ezcGraphPolygon_96"/><text id="ezcGraphTextBox_17_text" x="197.4414" text-length="22.2600px" y="396.1000" style="font-size: 14px; font-family: 'Arial'; fill: #2e3436; fill-opacity: 1.00; stroke: none;">Oct</text><text id="ezcGraphTextBox_17_text" x="191.2114" text-length="34.7200px" y="411.5000" style="font-size: 14px; font-family: 'Arial'; fill: #2e3436; fill-opacity: 1.00; stroke: none;">2022</text></g><g id="ezcGraphTextBox_20"><path d=" M 236.4257,413.3000 L 236.4257,383.7000 L 272.6457,383.7000 L 272.6457,413.3000 L 236.4257,413.3000 z " style="fill: #ffffff; fill-opacity: 0.00; stroke: none;" id="ezcGraphPolygon_97"/><text id="ezcGraphTextBox_20_text" x="243.1557" text-length="22.2600px" y="396.1000" style="font-size: 14px; font-family: 'Arial'; fill: #2e3436; fill-opacity: 1.00; stroke: none;">Dec</text><text id="ezcGraphTextBox_20_text" x="236.9257" text-length="34.7200px" y="411.5000" style="font-size: 14px; font-family: 'Arial'; fill: #2e3436; fill-opacity: 1.00; stroke: none;">2022</text></g><g id="ezcGraphTextBox_23"><path d=" M 282.1400,413.3000 L 282.1400,383.7000 L 318.3600,383.7000 L 318.3600,413.3000 L 282.1400,413.3000 z " style="fill: #ffffff; fill-opacity: 0.00; stroke: none;" id="ezcGraphPolygon_98"/><text id="ezcGraphTextBox_23_text" x="288.8700" text-length="22.2600px" y="396.1000" style="font-size: 14px; font-family: 'Arial'; fill: #2e3436; fill-opacity: 1.00; stroke: none;">Feb</text><text id="ezcGraphTextBox_23_text" x="282.6400" text-length="34.7200px" y="411.5000" style="font-size: 14px; font-family: 'Arial'; fill: #2e3436; fill-opacity: 1.00; stroke: none;">2023</text></g><g id="ezcGraphTextBox_26"><path d=" M 327.8543,413.3000 L 327.8543,383.7000 L 364.0743,383.7000 L 364.0743,413.3000 L 327.8543,413.3000 z " style="fill: #ffffff; fill-opacity: 0.00; stroke: none;" id="ezcGraphPolygon_99"/><text id="ezcGraphTextBox_26_text" x="334.5843" text-length="22.2600px" y="396.1000" style="font-size: 14px; font-family: 'Arial'; fill: #2e3436; fill-opacity: 1.00; stroke: none;">Apr</text><text id="ezcGraphTextBox_26_text" x="328.3543" text-length="34.7200px" y="411.5000" style="font-size: 14px; font-family: 'Arial'; fill: #2e3436; fill-opacity: 1.00; stroke: none;">2023</text></g><g id="ezcGraphTextBox_29"><path d=" M 373.5686,413.3000 L 373.5686,383.7000 L 409.7886,383.7000 L 409.7886,413.3000 L 373.5686,413.3000 z " style="fill: #ffffff; fill-opacity: 0.00; stroke: none;" id="ezcGraphPolygon_100"/><text id="ezcGraphTextBox_29_text" x="380.2986" text-length="22.2600px" y="396.1000" style="font-size: 14px; font-family: 'Arial'; fill: #2e3436; fill-opacity: 1.00; stroke: none;">Jun</text><text id="ezcGraphTextBox_29_text" x="374.0686" text-length="34.7200px" y="411.5000" style="font-size: 14px; font-family: 'Arial'; fill: #2e3436; fill-opacity: 1.00; stroke: none;">2023</text></g><g id="ezcGraphTextBox_32"><path d=" M 419.2829,413.3000 L 419.2829,383.7000 L 455.5029,383.7000 L 455.5029,413.3000 L 419.2829,413.3000 z " style="fill: #ffffff; fill-opacity: 0.00; stroke: none;" id="ezcGraphPolygon_101"/><text id="ezcGraphTextBox_32_text" x="426.0129" text-length="22.2600px" y="396.1000" style="font-size: 14px; font-family: 'Arial'; fill: #2e3436; fill-opacity: 1.00; stroke: none;">Aug</text><text id="ezcGraphTextBox_32_text" x="419.7829" text-length="34.7200px" y="411.5000" style="font-size: 14px; font-family: 'Arial'; fill: #2e3436; fill-opacity: 1.00; stroke: none;">2023</text></g><g id="ezcGraphTextBox_37" transform="rotate( 0.00 147.0000 49.0000 )"><path d=" M 141.5000,59.0000 L 141.5000,43.5000 L 365.6000,43.5000 L 365.6000,59.0000 L 141.5000,59.0000 z " style="fill: #ffffff; fill-opacity: 0.00; stroke: none;" id="ezcGraphPolygon_102"/><text id="ezcGraphTextBox_37_text" x="142.0000" text-length="222.6000px" y="55.9000" style="font-size: 14px; font-family: 'Arial'; fill: #2e3436; fill-opacity: 1.00; stroke: none;">Computers by "GPU Driver" in %</text></g><g id="ezcGraphTextBox_38"><path d=" M 128.8200,381.2000 L 128.8200,365.7000 L 139.0000,365.7000 L 139.0000,381.2000 L 128.8200,381.2000 z " style="fill: #ffffff; fill-opacity: 0.00; stroke: none;" id="ezcGraphPolygon_103"/><text id="ezcGraphTextBox_38_text" x="129.3200" text-length="8.6800px" y="378.1000" style="font-size: 14px; font-family: 'Arial'; fill: #2e3436; fill-opacity: 1.00; stroke: none;">0</text></g><g id="ezcGraphTextBox_41"><path d=" M 120.1400,230.0000 L 120.1400,214.5000 L 139.0000,214.5000 L 139.0000,230.0000 L 120.1400,230.0000 z " style="fill: #ffffff; fill-opacity: 0.00; stroke: none;" id="ezcGraphPolygon_104"/><text id="ezcGraphTextBox_41_text" x="120.6400" text-length="17.3600px" y="226.9000" style="font-size: 14px; font-family: 'Arial'; fill: #2e3436; fill-opacity: 1.00; stroke: none;">50</text></g><g id="ezcGraphTextBox_44"><path d=" M 111.4600,96.8000 L 111.4600,81.3000 L 139.0000,81.3000 L 139.0000,96.8000 L 111.4600,96.8000 z " style="fill: #ffffff; fill-opacity: 0.00; stroke: none;" id="ezcGraphPolygon_105"/><text id="ezcGraphTextBox_44_text" x="111.9600" text-length="26.0400px" y="93.7000" style="font-size: 14px; font-family: 'Arial'; fill: #2e3436; fill-opacity: 1.00; stroke: none;">100</text></g><g id="ezcGraphTextBox_46"><path d=" M 156.1571,186.6880 L 156.1571,175.1880 L 170.0571,175.1880 L 170.0571,186.6880 L 156.1571,186.6880 z " style="fill: #ffffff; fill-opacity: 0.00; stroke: none;" id="ezcGraphPolygon_106"/><text id="ezcGraphTextBox_46_text" x="156.6571" text-length="12.4000px" y="184.1880" style="font-size: 10px; font-family: 'Arial'; fill: #2e3436; fill-opacity: 1.00; stroke: none;">63</text></g><g id="ezcGraphTextBox_48"><path d=" M 195.6714,142.2352 L 195.6714,130.7352 L 221.9714,130.7352 L 221.9714,142.2352 L 195.6714,142.2352 z " style="fill: #ffffff; fill-opacity: 0.00; stroke: none;" id="ezcGraphPolygon_107"/><text id="ezcGraphTextBox_48_text" x="196.1714" text-length="24.8000px" y="139.7352" style="font-size: 10px; font-family: 'Arial'; fill: #2e3436; fill-opacity: 1.00; stroke: none;">77.7</text></g><g id="ezcGraphTextBox_50"><path d=" M 241.3857,153.1216 L 241.3857,141.6216 L 267.6857,141.6216 L 267.6857,153.1216 L 241.3857,153.1216 z " style="fill: #ffffff; fill-opacity: 0.00; stroke: none;" id="ezcGraphPolygon_108"/><text id="ezcGraphTextBox_50_text" x="241.8857" text-length="24.8000px" y="150.6216" style="font-size: 10px; font-family: 'Arial'; fill: #2e3436; fill-opacity: 1.00; stroke: none;">74.1</text></g><g id="ezcGraphTextBox_52"><path d=" M 293.3000,159.4720 L 293.3000,147.9720 L 307.2000,147.9720 L 307.2000,159.4720 L 293.3000,159.4720 z " style="fill: #ffffff; fill-opacity: 0.00; stroke: none;" id="ezcGraphPolygon_109"/><text id="ezcGraphTextBox_52_text" x="293.8000" text-length="12.4000px" y="156.9720" style="font-size: 10px; font-family: 'Arial'; fill: #2e3436; fill-opacity: 1.00; stroke: none;">72</text></g><g id="ezcGraphTextBox_54"><path d=" M 332.8143,152.8192 L 332.8143,141.3192 L 359.1143,141.3192 L 359.1143,152.8192 L 332.8143,152.8192 z " style="fill: #ffffff; fill-opacity: 0.00; stroke: none;" id="ezcGraphPolygon_110"/><text id="ezcGraphTextBox_54_text" x="333.3143" text-length="24.8000px" y="150.3192" style="font-size: 10px; font-family: 'Arial'; fill: #2e3436; fill-opacity: 1.00; stroke: none;">74.2</text></g><g id="ezcGraphTextBox_56"><path d=" M 378.5286,158.8672 L 378.5286,147.3672 L 404.8286,147.3672 L 404.8286,158.8672 L 378.5286,158.8672 z " style="fill: #ffffff; fill-opacity: 0.00; stroke: none;" id="ezcGraphPolygon_111"/><text id="ezcGraphTextBox_56_text" x="379.0286" text-length="24.8000px" y="156.3672" style="font-size: 10px; font-family: 'Arial'; fill: #2e3436; fill-opacity: 1.00; stroke: none;">72.2</text></g><g id="ezcGraphTextBox_58"><path d=" M 424.2429,149.1904 L 424.2429,137.6904 L 450.5429,137.6904 L 450.5429,149.1904 L 424.2429,149.1904 z " style="fill: #ffffff; fill-opacity: 0.00; stroke: none;" id="ezcGraphPolygon_112"/><text id="ezcGraphTextBox_58_text" x="424.7429" text-length="24.8000px" y="146.6904" style="font-size: 10px; font-family: 'Arial'; fill: #2e3436; fill-opacity: 1.00; stroke: none;">75.4</text></g><g id="ezcGraphTextBox_60"><path d=" M 156.1571,265.3120 L 156.1571,253.8120 L 170.0571,253.8120 L 170.0571,265.3120 L 156.1571,265.3120 z " style="fill: #ffffff; fill-opacity: 0.00; stroke: none;" id="ezcGraphPolygon_113"/><text id="ezcGraphTextBox_60_text" x="156.6571" text-length="12.4000px" y="262.8120" style="font-size: 10px; font-family: 'Arial'; fill: #2e3436; fill-opacity: 1.00; stroke: none;">37</text></g><g id="ezcGraphTextBox_62"><path d=" M 195.6714,309.7648 L 195.6714,298.2648 L 221.9714,298.2648 L 221.9714,309.7648 L 195.6714,309.7648 z " style="fill: #ffffff; fill-opacity: 0.00; stroke: none;" id="ezcGraphPolygon_114"/><text id="ezcGraphTextBox_62_text" x="196.1714" text-length="24.8000px" y="307.2648" style="font-size: 10px; font-family: 'Arial'; fill: #2e3436; fill-opacity: 1.00; stroke: none;">22.3</text></g><g id="ezcGraphTextBox_64"><path d=" M 241.3857,298.8784 L 241.3857,287.3784 L 267.6857,287.3784 L 267.6857,298.8784 L 241.3857,298.8784 z " style="fill: #ffffff; fill-opacity: 0.00; stroke: none;" id="ezcGraphPolygon_115"/><text id="ezcGraphTextBox_64_text" x="241.8857" text-length="24.8000px" y="296.3784" style="font-size: 10px; font-family: 'Arial'; fill: #2e3436; fill-opacity: 1.00; stroke: none;">25.9</text></g><g id="ezcGraphTextBox_66"><path d=" M 287.1000,296.4592 L 287.1000,284.9592 L 313.4000,284.9592 L 313.4000,296.4592 L 287.1000,296.4592 z " style="fill: #ffffff; fill-opacity: 0.00; stroke: none;" id="ezcGraphPolygon_116"/><text id="ezcGraphTextBox_66_text" x="287.6000" text-length="24.8000px" y="293.9592" style="font-size: 10px; font-family: 'Arial'; fill: #2e3436; fill-opacity: 1.00; stroke: none;">26.7</text></g><g id="ezcGraphTextBox_68"><path d=" M 332.8143,299.1808 L 332.8143,287.6808 L 359.1143,287.6808 L 359.1143,299.1808 L 332.8143,299.1808 z " style="fill: #ffffff; fill-opacity: 0.00; stroke: none;" id="ezcGraphPolygon_117"/><text id="ezcGraphTextBox_68_text" x="333.3143" text-length="24.8000px" y="296.6808" style="font-size: 10px; font-family: 'Arial'; fill: #2e3436; fill-opacity: 1.00; stroke: none;">25.8</text></g><g id="ezcGraphTextBox_70"><path d=" M 378.5286,293.1328 L 378.5286,281.6328 L 404.8286,281.6328 L 404.8286,293.1328 L 378.5286,293.1328 z " style="fill: #ffffff; fill-opacity: 0.00; stroke: none;" id="ezcGraphPolygon_118"/><text id="ezcGraphTextBox_70_text" x="379.0286" text-length="24.8000px" y="290.6328" style="font-size: 10px; font-family: 'Arial'; fill: #2e3436; fill-opacity: 1.00; stroke: none;">27.8</text></g><g id="ezcGraphTextBox_72"><path d=" M 424.2429,302.8096 L 424.2429,291.3096 L 450.5429,291.3096 L 450.5429,302.8096 L 424.2429,302.8096 z " style="fill: #ffffff; fill-opacity: 0.00; stroke: none;" id="ezcGraphPolygon_119"/><text id="ezcGraphTextBox_72_text" x="424.7429" text-length="24.8000px" y="300.3096" style="font-size: 10px; font-family: 'Arial'; fill: #2e3436; fill-opacity: 1.00; stroke: none;">24.6</text></g><g id="ezcGraphTextBox_74"><path d=" M 290.2000,373.5712 L 290.2000,362.0712 L 310.3000,362.0712 L 310.3000,373.5712 L 290.2000,373.5712 z " style="fill: #ffffff; fill-opacity: 0.00; stroke: none;" id="ezcGraphPolygon_120"/><text id="ezcGraphTextBox_74_text" x="290.7000" text-length="18.6000px" y="371.0712" style="font-size: 10px; font-family: 'Arial'; fill: #2e3436; fill-opacity: 1.00; stroke: none;">1.2</text></g></g></svg>
