<?xml version="1.0"?>
<svg xmlns="http://www.w3.org/2000/svg" width="500" height="420" version="1.0" id="ezcGraph"><defs/><g id="ezcGraphChart" color-rendering="optimizeQuality" shape-rendering="geometricPrecision" text-rendering="optimizeLegibility"><path d=" M 0.0000,420.0000 L 0.0000,0.0000 L 500.0000,0.0000 L 500.0000,420.0000 L 0.0000,420.0000 z " style="fill: #eeeeec; fill-opacity: 1.00; stroke: none;" id="ezcGraphPolygon_1"/><path d=" M 0.0000,42.0000 L 0.0000,0.0000 L 500.0000,0.0000 L 500.0000,42.0000 L 0.0000,42.0000 z " style="fill: #000000; fill-opacity: 0.00; stroke: none;" id="ezcGraphPolygon_2"/><path d="M 253.98,242.85 L 366.48,242.85 A 112.50,112.50 0 0,1 164.27,310.74 z" style="fill: #3465a4; fill-opacity: 1.00; stroke: none; cursor: pointer;" id="ezcGraphCircleSector_4" onclick="top.location = 'http://127.0.0.1/linux-hardware.org/index.php?view=computers&amp;type=notebook&amp;f=mon_resolution&amp;v=1366x768&amp;p=-1'"/><path d="M 254.15,243.35 L 365.98,243.35 A 112.00,112.00 0 0,1 164.97,310.84 z" style="fill: none; stroke: #1a3352; stroke-width: 1; stroke-opacity: 1.00; stroke-linecap: round; stroke-linejoin: round;" id="ezcGraphCircleSector_5"/><path d="M 250.00,231.00 L 160.30,298.89 A 112.50,112.50 0 0,1 209.25,126.14 z" style="fill: #4e9a06; fill-opacity: 1.00; stroke: none; cursor: pointer;" id="ezcGraphCircleSector_6" onclick="top.location = 'http://127.0.0.1/linux-hardware.org/index.php?view=computers&amp;type=notebook&amp;f=mon_resolution&amp;v=1920x1080&amp;p=-1'"/><path d="M 249.40,230.83 L 160.39,298.19 A 112.00,112.00 0 0,1 208.96,126.79 z" style="fill: none; stroke: #274d03; stroke-width: 1; stroke-opacity: 1.00; stroke-linecap: round; stroke-linejoin: round;" id="ezcGraphCircleSector_7"/><path d="M 250.00,231.00 L 209.25,126.14 A 112.50,112.50 0 0,1 275.00,121.31 z" style="fill: #cc0000; fill-opacity: 1.00; stroke: none; cursor: pointer;" id="ezcGraphCircleSector_8" onclick="top.location = 'http://127.0.0.1/linux-hardware.org/index.php?view=computers&amp;type=notebook&amp;f=mon_resolution&amp;v=1280x800&amp;p=-1'"/><path d="M 249.88,229.30 L 209.90,126.43 A 112.00,112.00 0 0,1 274.40,121.69 z" style="fill: none; stroke: #660000; stroke-width: 1; stroke-opacity: 1.00; stroke-linecap: round; stroke-linejoin: round;" id="ezcGraphCircleSector_9"/><path d="M 250.00,231.00 L 275.00,121.31 A 112.50,112.50 0 0,1 326.76,148.75 z" style="fill: #edd400; fill-opacity: 1.00; stroke: none; cursor: pointer;" id="ezcGraphCircleSector_10" onclick="top.location = 'http://127.0.0.1/linux-hardware.org/index.php?view=computers&amp;type=notebook&amp;f=mon_resolution&amp;v=1600x900&amp;p=-1'"/><path d="M 250.90,229.30 L 275.38,121.91 A 112.00,112.00 0 0,1 326.05,148.78 z" style="fill: none; stroke: #776a00; stroke-width: 1; stroke-opacity: 1.00; stroke-linecap: round; stroke-linejoin: round;" id="ezcGraphCircleSector_11"/><path d="M 250.00,231.00 L 326.76,148.75 A 112.50,112.50 0 0,1 339.27,162.54 z" style="fill: #75505b; fill-opacity: 1.00; stroke: none; cursor: pointer;" id="ezcGraphCircleSector_12" onclick="top.location = 'http://127.0.0.1/linux-hardware.org/index.php?view=computers&amp;type=notebook&amp;f=mon_resolution&amp;v=1440x900&amp;p=-1'"/><path d="M 254.47,226.94 L 326.78,149.46 A 112.00,112.00 0 0,1 338.57,162.45 z" style="fill: none; stroke: #3b282e; stroke-width: 1; stroke-opacity: 1.00; stroke-linecap: round; stroke-linejoin: round;" id="ezcGraphCircleSector_13"/><path d="M 250.00,231.00 L 339.27,162.54 A 112.50,112.50 0 0,1 362.50,231.00 z" style="fill: #f57900; fill-opacity: 1.00; stroke: none;" id="ezcGraphCircleSector_14"/><path d="M 251.47,230.50 L 339.18,163.24 A 112.00,112.00 0 0,1 362.00,230.50 z" style="fill: none; stroke: #7b3d00; stroke-width: 1; stroke-opacity: 1.00; stroke-linecap: round; stroke-linejoin: round;" id="ezcGraphCircleSector_15"/><path d=" M 243.8986,147.8903 L 244.0000,106.0000" style="fill: none; stroke: #000000; stroke-width: 1; stroke-opacity: 1.00; stroke-linecap: round; stroke-linejoin: round;" id="ezcGraphLine_16"/><ellipse cx="243.8986" cy="147.8903" rx="3.0000" ry="3.0000" style="fill: #000000; fill-opacity: 1.00; stroke: none;" id="ezcGraphCircle_17"/><ellipse cx="244.0000" cy="106.0000" rx="3.0000" ry="3.0000" style="fill: #000000; fill-opacity: 1.00; stroke: none;" id="ezcGraphCircle_18"/><path d=" M 169.8237,208.2799 L 124.0000,196.0000" style="fill: none; stroke: #000000; stroke-width: 1; stroke-opacity: 1.00; stroke-linecap: round; stroke-linejoin: round;" id="ezcGraphLine_20"/><ellipse cx="169.8237" cy="208.2799" rx="3.0000" ry="3.0000" style="fill: #000000; fill-opacity: 1.00; stroke: none;" id="ezcGraphCircle_21"/><ellipse cx="124.0000" cy="196.0000" rx="3.0000" ry="3.0000" style="fill: #000000; fill-opacity: 1.00; stroke: none;" id="ezcGraphCircle_22"/><path d=" M 289.0340,157.3740 L 313.4804,120.0000" style="fill: none; stroke: #000000; stroke-width: 1; stroke-opacity: 1.00; stroke-linecap: round; stroke-linejoin: round;" id="ezcGraphLine_24"/><ellipse cx="289.0340" cy="157.3740" rx="3.0000" ry="3.0000" style="fill: #000000; fill-opacity: 1.00; stroke: none;" id="ezcGraphCircle_25"/><ellipse cx="313.4804" cy="120.0000" rx="3.0000" ry="3.0000" style="fill: #000000; fill-opacity: 1.00; stroke: none;" id="ezcGraphCircle_26"/><path d=" M 311.7032,174.9896 L 357.1076,157.5000" style="fill: none; stroke: #000000; stroke-width: 1; stroke-opacity: 1.00; stroke-linecap: round; stroke-linejoin: round;" id="ezcGraphLine_28"/><ellipse cx="311.7032" cy="174.9896" rx="3.0000" ry="3.0000" style="fill: #000000; fill-opacity: 1.00; stroke: none;" id="ezcGraphCircle_29"/><ellipse cx="357.1076" cy="157.5000" rx="3.0000" ry="3.0000" style="fill: #000000; fill-opacity: 1.00; stroke: none;" id="ezcGraphCircle_30"/><path d=" M 328.9144,204.2239 L 375.7038,195.0000" style="fill: none; stroke: #000000; stroke-width: 1; stroke-opacity: 1.00; stroke-linecap: round; stroke-linejoin: round;" id="ezcGraphLine_32"/><ellipse cx="328.9144" cy="204.2239" rx="3.0000" ry="3.0000" style="fill: #000000; fill-opacity: 1.00; stroke: none;" id="ezcGraphCircle_33"/><ellipse cx="375.7038" cy="195.0000" rx="3.0000" ry="3.0000" style="fill: #000000; fill-opacity: 1.00; stroke: none;" id="ezcGraphCircle_34"/><path d=" M 280.5033,321.8492 L 280.5033,361.0000" style="fill: none; stroke: #000000; stroke-width: 1; stroke-opacity: 1.00; stroke-linecap: round; stroke-linejoin: round;" id="ezcGraphLine_36"/><ellipse cx="280.5033" cy="321.8492" rx="3.0000" ry="3.0000" style="fill: #000000; fill-opacity: 1.00; stroke: none;" id="ezcGraphCircle_37"/><ellipse cx="280.5033" cy="361.0000" rx="3.0000" ry="3.0000" style="fill: #000000; fill-opacity: 1.00; stroke: none;" id="ezcGraphCircle_38"/><g id="ezcGraphTextBox_3"><path d=" M 58.7000,42.0000 L 58.7000,0.5000 L 441.8000,0.5000 L 441.8000,42.0000 L 58.7000,42.0000 z " style="fill: #ffffff; fill-opacity: 0.00; stroke: none;" id="ezcGraphPolygon_40"/><text id="ezcGraphTextBox_3_text" x="59.2000" text-length="381.6000px" y="35.0000" style="font-size: 40px; font-family: 'Arial'; fill: #2e3436; fill-opacity: 1.00; stroke: none;">Monitor Resolution</text></g><g id="ezcGraphTextBox_19" style=" cursor: pointer;" onclick="top.location = 'http://127.0.0.1/linux-hardware.org/index.php?view=computers&amp;type=notebook&amp;f=mon_resolution&amp;v=1280x800&amp;p=-1'"><path d=" M 39.2800,115.5000 L 39.2800,97.0000 L 239.0000,97.0000 L 239.0000,115.5000 L 39.2800,115.5000 z " style="fill: #ffffff; fill-opacity: 0.00; stroke: none;" id="ezcGraphPolygon_41"/><text id="ezcGraphTextBox_19_text" x="39.7800" text-length="198.2200px" y="111.9500" style="font-size: 17px; font-family: 'Arial'; fill: #2e3436; fill-opacity: 1.00; stroke: none;">1280x800 (WXGA) (9.5%)</text></g><g id="ezcGraphTextBox_23" style=" cursor: pointer;" onclick="top.location = 'http://127.0.0.1/linux-hardware.org/index.php?view=computers&amp;type=notebook&amp;f=mon_resolution&amp;v=1920x1080&amp;p=-1'"><path d=" M 0.3700,214.0500 L 0.3700,178.4500 L 119.0000,178.4500 L 119.0000,214.0500 L 0.3700,214.0500 z " style="fill: #ffffff; fill-opacity: 0.00; stroke: none;" id="ezcGraphPolygon_42"/><text id="ezcGraphTextBox_23_text" x="36.9100" text-length="81.0900px" y="193.4000" style="font-size: 17px; font-family: 'Arial'; fill: #2e3436; fill-opacity: 1.00; stroke: none;">1920x1080</text><text id="ezcGraphTextBox_23_text" x="0.8700" text-length="117.1300px" y="212.1000" style="font-size: 17px; font-family: 'Arial'; fill: #2e3436; fill-opacity: 1.00; stroke: none;">(FHD) (29.4%)</text></g><g id="ezcGraphTextBox_27" style=" cursor: pointer;" onclick="top.location = 'http://127.0.0.1/linux-hardware.org/index.php?view=computers&amp;type=notebook&amp;f=mon_resolution&amp;v=1600x900&amp;p=-1'"><path d=" M 318.9804,138.0500 L 318.9804,102.4500 L 446.6204,102.4500 L 446.6204,138.0500 L 318.9804,138.0500 z " style="fill: #ffffff; fill-opacity: 0.00; stroke: none;" id="ezcGraphPolygon_43"/><text id="ezcGraphTextBox_27_text" x="319.4804" text-length="126.1400px" y="117.4000" style="font-size: 17px; font-family: 'Arial'; fill: #2e3436; fill-opacity: 1.00; stroke: none;">1600x900 (HD+)</text><text id="ezcGraphTextBox_27_text" x="319.4804" text-length="54.0600px" y="136.1000" style="font-size: 17px; font-family: 'Arial'; fill: #2e3436; fill-opacity: 1.00; stroke: none;">(8.4%)</text></g><g id="ezcGraphTextBox_31" style=" cursor: pointer;" onclick="top.location = 'http://127.0.0.1/linux-hardware.org/index.php?view=computers&amp;type=notebook&amp;f=mon_resolution&amp;v=1440x900&amp;p=-1'"><path d=" M 362.6076,175.5500 L 362.6076,139.9500 L 490.2476,139.9500 L 490.2476,175.5500 L 362.6076,175.5500 z " style="fill: #ffffff; fill-opacity: 0.00; stroke: none;" id="ezcGraphPolygon_44"/><text id="ezcGraphTextBox_31_text" x="363.1076" text-length="72.0800px" y="154.9000" style="font-size: 17px; font-family: 'Arial'; fill: #2e3436; fill-opacity: 1.00; stroke: none;">1440x900</text><text id="ezcGraphTextBox_31_text" x="363.1076" text-length="126.1400px" y="173.6000" style="font-size: 17px; font-family: 'Arial'; fill: #2e3436; fill-opacity: 1.00; stroke: none;">(WXGA+) (2.6%)</text></g><g id="ezcGraphTextBox_35"><path d=" M 381.2038,213.0500 L 381.2038,177.4500 L 445.7738,177.4500 L 445.7738,213.0500 L 381.2038,213.0500 z " style="fill: #ffffff; fill-opacity: 0.00; stroke: none;" id="ezcGraphPolygon_45"/><text id="ezcGraphTextBox_35_text" x="381.7038" text-length="54.0600px" y="192.4000" style="font-size: 17px; font-family: 'Arial'; fill: #2e3436; fill-opacity: 1.00; stroke: none;">Others</text><text id="ezcGraphTextBox_35_text" x="381.7038" text-length="63.0700px" y="211.1000" style="font-size: 17px; font-family: 'Arial'; fill: #2e3436; fill-opacity: 1.00; stroke: none;">(10.4%)</text></g><g id="ezcGraphTextBox_39" style=" cursor: pointer;" onclick="top.location = 'http://127.0.0.1/linux-hardware.org/index.php?view=computers&amp;type=notebook&amp;f=mon_resolution&amp;v=1366x768&amp;p=-1'"><path d=" M 286.0033,370.5000 L 286.0033,352.0000 L 494.7333,352.0000 L 494.7333,370.5000 L 286.0033,370.5000 z " style="fill: #ffffff; fill-opacity: 0.00; stroke: none;" id="ezcGraphPolygon_46"/><text id="ezcGraphTextBox_39_text" x="286.5033" text-length="207.2300px" y="366.9500" style="font-size: 17px; font-family: 'Arial'; fill: #2e3436; fill-opacity: 1.00; stroke: none;">1366x768 (WXGA) (39.7%)</text></g></g></svg>
