<?xml version="1.0"?>
<svg xmlns="http://www.w3.org/2000/svg" width="500" height="420" version="1.0" id="ezcGraph"><defs/><g id="ezcGraphChart" color-rendering="optimizeQuality" shape-rendering="geometricPrecision" text-rendering="optimizeLegibility"><path d=" M 0.0000,420.0000 L 0.0000,0.0000 L 500.0000,0.0000 L 500.0000,420.0000 L 0.0000,420.0000 z " style="fill: #eeeeec; fill-opacity: 1.00; stroke: none;" id="ezcGraphPolygon_1"/><path d=" M 0.0000,42.0000 L 0.0000,0.0000 L 500.0000,0.0000 L 500.0000,42.0000 L 0.0000,42.0000 z " style="fill: #000000; fill-opacity: 0.00; stroke: none;" id="ezcGraphPolygon_2"/><path d="M 259.64,238.96 L 372.14,238.96 A 112.50,112.50 0 0,1 280.94,349.42 z" style="fill: #3465a4; fill-opacity: 1.00; stroke: none; cursor: pointer;" id="ezcGraphCircleSector_4" onclick="top.location = 'http://127.0.0.1/linux-hardware.org/index.php?view=computers&amp;type=notebook&amp;vendor=Hewlett-Packard&amp;p=-1'"/><path d="M 260.24,239.46 L 371.64,239.46 A 112.00,112.00 0 0,1 281.33,348.84 z" style="fill: none; stroke: #1a3352; stroke-width: 1; stroke-opacity: 1.00; stroke-linecap: round; stroke-linejoin: round;" id="ezcGraphCircleSector_5"/><path d="M 250.00,231.00 L 271.30,341.47 A 112.50,112.50 0 0,1 160.07,298.60 z" style="fill: #4e9a06; fill-opacity: 1.00; stroke: none; cursor: pointer;" id="ezcGraphCircleSector_6" onclick="top.location = 'http://127.0.0.1/linux-hardware.org/index.php?view=computers&amp;type=notebook&amp;vendor=Lenovo&amp;p=-1'"/><path d="M 249.66,231.88 L 270.71,341.07 A 112.00,112.00 0 0,1 160.77,298.70 z" style="fill: none; stroke: #274d03; stroke-width: 1; stroke-opacity: 1.00; stroke-linecap: round; stroke-linejoin: round;" id="ezcGraphCircleSector_7"/><path d="M 250.00,231.00 L 160.07,298.60 A 112.50,112.50 0 0,1 148.51,182.47 z" style="fill: #cc0000; fill-opacity: 1.00; stroke: none; cursor: pointer;" id="ezcGraphCircleSector_8" onclick="top.location = 'http://127.0.0.1/linux-hardware.org/index.php?view=computers&amp;type=notebook&amp;vendor=Dell&amp;p=-1'"/><path d="M 249.04,231.10 L 160.17,297.90 A 112.00,112.00 0 0,1 148.74,183.14 z" style="fill: none; stroke: #660000; stroke-width: 1; stroke-opacity: 1.00; stroke-linecap: round; stroke-linejoin: round;" id="ezcGraphCircleSector_9"/><path d="M 250.00,231.00 L 148.51,182.47 A 112.50,112.50 0 0,1 208.69,126.36 z" style="fill: #edd400; fill-opacity: 1.00; stroke: none; cursor: pointer;" id="ezcGraphCircleSector_10" onclick="top.location = 'http://127.0.0.1/linux-hardware.org/index.php?view=computers&amp;type=notebook&amp;vendor=ASUSTek+Computer&amp;p=-1'"/><path d="M 249.07,230.00 L 149.17,182.24 A 112.00,112.00 0 0,1 208.41,127.01 z" style="fill: none; stroke: #776a00; stroke-width: 1; stroke-opacity: 1.00; stroke-linecap: round; stroke-linejoin: round;" id="ezcGraphCircleSector_11"/><path d="M 250.00,231.00 L 208.69,126.36 A 112.50,112.50 0 0,1 261.88,119.13 z" style="fill: #75505b; fill-opacity: 1.00; stroke: none; cursor: pointer;" id="ezcGraphCircleSector_12" onclick="top.location = 'http://127.0.0.1/linux-hardware.org/index.php?view=computers&amp;type=notebook&amp;vendor=Acer&amp;p=-1'"/><path d="M 249.72,228.92 L 209.34,126.64 A 112.00,112.00 0 0,1 261.33,119.57 z" style="fill: none; stroke: #3b282e; stroke-width: 1; stroke-opacity: 1.00; stroke-linecap: round; stroke-linejoin: round;" id="ezcGraphCircleSector_13"/><path d="M 250.00,231.00 L 261.88,119.13 A 112.50,112.50 0 0,1 362.50,231.00 z" style="fill: #f57900; fill-opacity: 1.00; stroke: none;" id="ezcGraphCircleSector_14"/><path d="M 250.56,230.50 L 262.33,119.68 A 112.00,112.00 0 0,1 362.00,230.50 z" style="fill: none; stroke: #7b3d00; stroke-width: 1; stroke-opacity: 1.00; stroke-linecap: round; stroke-linejoin: round;" id="ezcGraphCircleSector_15"/><path d=" M 238.7755,148.4261 L 228.2203,107.0000" style="fill: none; stroke: #000000; stroke-width: 1; stroke-opacity: 1.00; stroke-linecap: round; stroke-linejoin: round;" id="ezcGraphLine_16"/><ellipse cx="238.7755" cy="148.4261" rx="3.0000" ry="3.0000" style="fill: #000000; fill-opacity: 1.00; stroke: none;" id="ezcGraphCircle_17"/><ellipse cx="228.2203" cy="107.0000" rx="3.0000" ry="3.0000" style="fill: #000000; fill-opacity: 1.00; stroke: none;" id="ezcGraphCircle_18"/><path d=" M 193.1723,170.0487 L 153.7628,144.5000" style="fill: none; stroke: #000000; stroke-width: 1; stroke-opacity: 1.00; stroke-linecap: round; stroke-linejoin: round;" id="ezcGraphLine_20"/><ellipse cx="193.1723" cy="170.0487" rx="3.0000" ry="3.0000" style="fill: #000000; fill-opacity: 1.00; stroke: none;" id="ezcGraphCircle_21"/><ellipse cx="153.7628" cy="144.5000" rx="3.0000" ry="3.0000" style="fill: #000000; fill-opacity: 1.00; stroke: none;" id="ezcGraphCircle_22"/><path d=" M 167.0771,239.2609 L 119.5773,243.0000" style="fill: none; stroke: #000000; stroke-width: 1; stroke-opacity: 1.00; stroke-linecap: round; stroke-linejoin: round;" id="ezcGraphLine_24"/><ellipse cx="167.0771" cy="239.2609" rx="3.0000" ry="3.0000" style="fill: #000000; fill-opacity: 1.00; stroke: none;" id="ezcGraphCircle_25"/><ellipse cx="119.5773" cy="243.0000" rx="3.0000" ry="3.0000" style="fill: #000000; fill-opacity: 1.00; stroke: none;" id="ezcGraphCircle_26"/><path d=" M 220.0305,308.7578 L 197.4275,347.0000" style="fill: none; stroke: #000000; stroke-width: 1; stroke-opacity: 1.00; stroke-linecap: round; stroke-linejoin: round;" id="ezcGraphLine_28"/><ellipse cx="220.0305" cy="308.7578" rx="3.0000" ry="3.0000" style="fill: #000000; fill-opacity: 1.00; stroke: none;" id="ezcGraphCircle_29"/><ellipse cx="197.4275" cy="347.0000" rx="3.0000" ry="3.0000" style="fill: #000000; fill-opacity: 1.00; stroke: none;" id="ezcGraphCircle_30"/><path d=" M 311.9590,175.2727 L 348.5689,147.0000" style="fill: none; stroke: #000000; stroke-width: 1; stroke-opacity: 1.00; stroke-linecap: round; stroke-linejoin: round;" id="ezcGraphLine_32"/><ellipse cx="311.9590" cy="175.2727" rx="3.0000" ry="3.0000" style="fill: #000000; fill-opacity: 1.00; stroke: none;" id="ezcGraphCircle_33"/><ellipse cx="348.5689" cy="147.0000" rx="3.0000" ry="3.0000" style="fill: #000000; fill-opacity: 1.00; stroke: none;" id="ezcGraphCircle_34"/><path d=" M 323.9005,292.0143 L 345.7552,318.0000" style="fill: none; stroke: #000000; stroke-width: 1; stroke-opacity: 1.00; stroke-linecap: round; stroke-linejoin: round;" id="ezcGraphLine_36"/><ellipse cx="323.9005" cy="292.0143" rx="3.0000" ry="3.0000" style="fill: #000000; fill-opacity: 1.00; stroke: none;" id="ezcGraphCircle_37"/><ellipse cx="345.7552" cy="318.0000" rx="3.0000" ry="3.0000" style="fill: #000000; fill-opacity: 1.00; stroke: none;" id="ezcGraphCircle_38"/><g id="ezcGraphTextBox_3"><path d=" M 185.9000,42.0000 L 185.9000,0.5000 L 314.6000,0.5000 L 314.6000,42.0000 L 185.9000,42.0000 z " style="fill: #ffffff; fill-opacity: 0.00; stroke: none;" id="ezcGraphPolygon_40"/><text id="ezcGraphTextBox_3_text" x="186.4000" text-length="127.2000px" y="35.0000" style="font-size: 40px; font-family: 'Arial'; fill: #2e3436; fill-opacity: 1.00; stroke: none;">Vendor</text></g><g id="ezcGraphTextBox_19" style=" cursor: pointer;" onclick="top.location = 'http://127.0.0.1/linux-hardware.org/index.php?view=computers&amp;type=notebook&amp;vendor=Acer&amp;p=-1'"><path d=" M 119.6953,116.7500 L 119.6953,97.7500 L 223.2203,97.7500 L 223.2203,116.7500 L 119.6953,116.7500 z " style="fill: #ffffff; fill-opacity: 0.00; stroke: none;" id="ezcGraphPolygon_41"/><text id="ezcGraphTextBox_19_text" x="120.1953" text-length="102.0250px" y="113.1250" style="font-size: 17px; font-family: 'Arial'; fill: #2e3436; fill-opacity: 1.00; stroke: none;">Acer (7.7%)</text></g><g id="ezcGraphTextBox_23" style=" cursor: pointer;" onclick="top.location = 'http://127.0.0.1/linux-hardware.org/index.php?view=computers&amp;type=notebook&amp;vendor=ASUSTek+Computer&amp;p=-1'"><path d=" M 8.1378,154.2500 L 8.1378,135.2500 L 148.7628,135.2500 L 148.7628,154.2500 L 8.1378,154.2500 z " style="fill: #ffffff; fill-opacity: 0.00; stroke: none;" id="ezcGraphPolygon_42"/><text id="ezcGraphTextBox_23_text" x="8.6378" text-length="139.1250px" y="150.6250" style="font-size: 17px; font-family: 'Arial'; fill: #2e3436; fill-opacity: 1.00; stroke: none;">ASUSTek (11.9%)</text></g><g id="ezcGraphTextBox_27" style=" cursor: pointer;" onclick="top.location = 'http://127.0.0.1/linux-hardware.org/index.php?view=computers&amp;type=notebook&amp;vendor=Dell&amp;p=-1'"><path d=" M 1.7773,252.7500 L 1.7773,233.7500 L 114.5773,233.7500 L 114.5773,252.7500 L 1.7773,252.7500 z " style="fill: #ffffff; fill-opacity: 0.00; stroke: none;" id="ezcGraphPolygon_43"/><text id="ezcGraphTextBox_27_text" x="2.2773" text-length="111.3000px" y="249.1250" style="font-size: 17px; font-family: 'Arial'; fill: #2e3436; fill-opacity: 1.00; stroke: none;">Dell (17.4%)</text></g><g id="ezcGraphTextBox_31" style=" cursor: pointer;" onclick="top.location = 'http://127.0.0.1/linux-hardware.org/index.php?view=computers&amp;type=notebook&amp;vendor=Lenovo&amp;p=-1'"><path d=" M 61.0775,356.7500 L 61.0775,337.7500 L 192.4275,337.7500 L 192.4275,356.7500 L 61.0775,356.7500 z " style="fill: #ffffff; fill-opacity: 0.00; stroke: none;" id="ezcGraphPolygon_44"/><text id="ezcGraphTextBox_31_text" x="61.5775" text-length="129.8500px" y="353.1250" style="font-size: 17px; font-family: 'Arial'; fill: #2e3436; fill-opacity: 1.00; stroke: none;">Lenovo (17.8%)</text></g><g id="ezcGraphTextBox_35"><path d=" M 354.0689,156.7500 L 354.0689,137.7500 L 485.4189,137.7500 L 485.4189,156.7500 L 354.0689,156.7500 z " style="fill: #ffffff; fill-opacity: 0.00; stroke: none;" id="ezcGraphPolygon_45"/><text id="ezcGraphTextBox_35_text" x="354.5689" text-length="129.8500px" y="153.1250" style="font-size: 17px; font-family: 'Arial'; fill: #2e3436; fill-opacity: 1.00; stroke: none;">Others (23.3%)</text></g><g id="ezcGraphTextBox_39" style=" cursor: pointer;" onclick="top.location = 'http://127.0.0.1/linux-hardware.org/index.php?view=computers&amp;type=notebook&amp;vendor=Hewlett-Packard&amp;p=-1'"><path d=" M 351.2552,327.7500 L 351.2552,308.7500 L 445.5052,308.7500 L 445.5052,327.7500 L 351.2552,327.7500 z " style="fill: #ffffff; fill-opacity: 0.00; stroke: none;" id="ezcGraphPolygon_46"/><text id="ezcGraphTextBox_39_text" x="351.7552" text-length="92.7500px" y="324.1250" style="font-size: 17px; font-family: 'Arial'; fill: #2e3436; fill-opacity: 1.00; stroke: none;">HP (22.0%)</text></g></g></svg>
