<?xml version="1.0"?>
<svg xmlns="http://www.w3.org/2000/svg" width="500" height="420" version="1.0" id="ezcGraph"><defs/><g id="ezcGraphChart" color-rendering="optimizeQuality" shape-rendering="geometricPrecision" text-rendering="optimizeLegibility"><path d=" M 0.0000,420.0000 L 0.0000,0.0000 L 500.0000,0.0000 L 500.0000,420.0000 L 0.0000,420.0000 z " style="fill: #eeeeec; fill-opacity: 1.00; stroke: none;" id="ezcGraphPolygon_1"/><path d=" M 0.0000,42.0000 L 0.0000,0.0000 L 500.0000,0.0000 L 500.0000,42.0000 L 0.0000,42.0000 z " style="fill: #000000; fill-opacity: 0.00; stroke: none;" id="ezcGraphPolygon_2"/><path d="M 259.91,238.62 L 372.41,238.62 A 112.50,112.50 0 0,1 288.76,347.36 z" style="fill: #3465a4; fill-opacity: 1.00; stroke: none; cursor: pointer;" id="ezcGraphCircleSector_4" onclick="top.location = 'https://linux-hardware.org/?view=computers&amp;type=notebook&amp;vendor=Hewlett-Packard&amp;p=-1'"/><path d="M 260.56,239.12 L 371.91,239.12 A 112.00,112.00 0 0,1 289.11,346.75 z" style="fill: none; stroke: #1a3352; stroke-width: 1; stroke-opacity: 1.00; stroke-linecap: round; stroke-linejoin: round;" id="ezcGraphCircleSector_5"/><path d="M 250.00,231.00 L 278.85,339.74 A 112.50,112.50 0 0,1 166.47,306.36 z" style="fill: #4e9a06; fill-opacity: 1.00; stroke: none; cursor: pointer;" id="ezcGraphCircleSector_6" onclick="top.location = 'https://linux-hardware.org/?view=computers&amp;type=notebook&amp;vendor=Lenovo&amp;p=-1'"/><path d="M 249.73,231.92 L 278.24,339.38 A 112.00,112.00 0 0,1 167.18,306.40 z" style="fill: none; stroke: #274d03; stroke-width: 1; stroke-opacity: 1.00; stroke-linecap: round; stroke-linejoin: round;" id="ezcGraphCircleSector_7"/><path d="M 250.00,231.00 L 166.47,306.36 A 112.50,112.50 0 0,1 138.15,218.91 z" style="fill: #cc0000; fill-opacity: 1.00; stroke: none; cursor: pointer;" id="ezcGraphCircleSector_8" onclick="top.location = 'https://linux-hardware.org/?view=computers&amp;type=notebook&amp;vendor=Acer&amp;p=-1'"/><path d="M 248.84,231.38 L 166.51,305.65 A 112.00,112.00 0 0,1 138.59,219.46 z" style="fill: none; stroke: #660000; stroke-width: 1; stroke-opacity: 1.00; stroke-linecap: round; stroke-linejoin: round;" id="ezcGraphCircleSector_9"/><path d="M 250.00,231.00 L 138.15,218.91 A 112.50,112.50 0 0,1 179.24,143.54 z" style="fill: #edd400; fill-opacity: 1.00; stroke: none; cursor: pointer;" id="ezcGraphCircleSector_10" onclick="top.location = 'https://linux-hardware.org/?view=computers&amp;type=notebook&amp;vendor=Dell&amp;p=-1'"/><path d="M 248.85,230.37 L 138.70,218.47 A 112.00,112.00 0 0,1 179.17,144.24 z" style="fill: none; stroke: #776a00; stroke-width: 1; stroke-opacity: 1.00; stroke-linecap: round; stroke-linejoin: round;" id="ezcGraphCircleSector_11"/><path d="M 250.00,231.00 L 179.24,143.54 A 112.50,112.50 0 0,1 235.18,119.48 z" style="fill: #75505b; fill-opacity: 1.00; stroke: none; cursor: pointer;" id="ezcGraphCircleSector_12" onclick="top.location = 'https://linux-hardware.org/?view=computers&amp;type=notebook&amp;vendor=ASUSTek+Computer&amp;p=-1'"/><path d="M 249.27,229.30 L 179.95,143.61 A 112.00,112.00 0 0,1 234.75,120.04 z" style="fill: none; stroke: #3b282e; stroke-width: 1; stroke-opacity: 1.00; stroke-linecap: round; stroke-linejoin: round;" id="ezcGraphCircleSector_13"/><path d="M 250.00,231.00 L 235.18,119.48 A 112.50,112.50 0 0,1 362.50,231.00 z" style="fill: #f57900; fill-opacity: 1.00; stroke: none;" id="ezcGraphCircleSector_14"/><path d="M 250.44,230.50 L 235.74,119.91 A 112.00,112.00 0 0,1 362.00,230.50 z" style="fill: none; stroke: #7b3d00; stroke-width: 1; stroke-opacity: 1.00; stroke-linecap: round; stroke-linejoin: round;" id="ezcGraphCircleSector_15"/><path d=" M 217.0766,154.4461 L 195.0102,116.0000" style="fill: none; stroke: #000000; stroke-width: 1; stroke-opacity: 1.00; stroke-linecap: round; stroke-linejoin: round;" id="ezcGraphLine_16"/><ellipse cx="217.0766" cy="154.4461" rx="3.0000" ry="3.0000" style="fill: #000000; fill-opacity: 1.00; stroke: none;" id="ezcGraphCircle_17"/><ellipse cx="195.0102" cy="116.0000" rx="3.0000" ry="3.0000" style="fill: #000000; fill-opacity: 1.00; stroke: none;" id="ezcGraphCircle_18"/><path d=" M 176.8335,191.1114 L 134.3414,171.0000" style="fill: none; stroke: #000000; stroke-width: 1; stroke-opacity: 1.00; stroke-linecap: round; stroke-linejoin: round;" id="ezcGraphLine_20"/><ellipse cx="176.8335" cy="191.1114" rx="3.0000" ry="3.0000" style="fill: #000000; fill-opacity: 1.00; stroke: none;" id="ezcGraphCircle_21"/><ellipse cx="134.3414" cy="171.0000" rx="3.0000" ry="3.0000" style="fill: #000000; fill-opacity: 1.00; stroke: none;" id="ezcGraphCircle_22"/><path d=" M 170.7201,256.6738 L 124.9160,269.0000" style="fill: none; stroke: #000000; stroke-width: 1; stroke-opacity: 1.00; stroke-linecap: round; stroke-linejoin: round;" id="ezcGraphLine_24"/><ellipse cx="170.7201" cy="256.6738" rx="3.0000" ry="3.0000" style="fill: #000000; fill-opacity: 1.00; stroke: none;" id="ezcGraphCircle_25"/><ellipse cx="124.9160" cy="269.0000" rx="3.0000" ry="3.0000" style="fill: #000000; fill-opacity: 1.00; stroke: none;" id="ezcGraphCircle_26"/><path d=" M 226.2734,310.8843 L 205.7377,350.0000" style="fill: none; stroke: #000000; stroke-width: 1; stroke-opacity: 1.00; stroke-linecap: round; stroke-linejoin: round;" id="ezcGraphLine_28"/><ellipse cx="226.2734" cy="310.8843" rx="3.0000" ry="3.0000" style="fill: #000000; fill-opacity: 1.00; stroke: none;" id="ezcGraphCircle_29"/><ellipse cx="205.7377" cy="350.0000" rx="3.0000" ry="3.0000" style="fill: #000000; fill-opacity: 1.00; stroke: none;" id="ezcGraphCircle_30"/><path d=" M 304.9072,168.3131 L 337.2404,136.0000" style="fill: none; stroke: #000000; stroke-width: 1; stroke-opacity: 1.00; stroke-linecap: round; stroke-linejoin: round;" id="ezcGraphLine_32"/><ellipse cx="304.9072" cy="168.3131" rx="3.0000" ry="3.0000" style="fill: #000000; fill-opacity: 1.00; stroke: none;" id="ezcGraphCircle_33"/><ellipse cx="337.2404" cy="136.0000" rx="3.0000" ry="3.0000" style="fill: #000000; fill-opacity: 1.00; stroke: none;" id="ezcGraphCircle_34"/><path d=" M 325.9583,289.4326 L 349.4666,314.0000" style="fill: none; stroke: #000000; stroke-width: 1; stroke-opacity: 1.00; stroke-linecap: round; stroke-linejoin: round;" id="ezcGraphLine_36"/><ellipse cx="325.9583" cy="289.4326" rx="3.0000" ry="3.0000" style="fill: #000000; fill-opacity: 1.00; stroke: none;" id="ezcGraphCircle_37"/><ellipse cx="349.4666" cy="314.0000" rx="3.0000" ry="3.0000" style="fill: #000000; fill-opacity: 1.00; stroke: none;" id="ezcGraphCircle_38"/><g id="ezcGraphTextBox_3"><path d=" M 185.9000,42.0000 L 185.9000,0.5000 L 314.6000,0.5000 L 314.6000,42.0000 L 185.9000,42.0000 z " style="fill: #ffffff; fill-opacity: 0.00; stroke: none;" id="ezcGraphPolygon_40"/><text id="ezcGraphTextBox_3_text" x="186.4000" text-length="127.2000px" y="35.0000" style="font-size: 40px; font-family: 'Arial'; fill: #2e3436; fill-opacity: 1.00; stroke: none;">Vendor</text></g><g id="ezcGraphTextBox_19" style=" cursor: pointer;" onclick="top.location = 'https://linux-hardware.org/?view=computers&amp;type=notebook&amp;vendor=ASUSTek+Computer&amp;p=-1'"><path d=" M 51.2402,126.2500 L 51.2402,106.2500 L 190.0102,106.2500 L 190.0102,126.2500 L 51.2402,126.2500 z " style="fill: #ffffff; fill-opacity: 0.00; stroke: none;" id="ezcGraphPolygon_41"/><text id="ezcGraphTextBox_19_text" x="51.7402" text-length="137.2700px" y="122.4750" style="font-size: 18px; font-family: 'Arial'; fill: #2e3436; fill-opacity: 1.00; stroke: none;">ASUSTek (8.7%)</text></g><g id="ezcGraphTextBox_23" style=" cursor: pointer;" onclick="top.location = 'https://linux-hardware.org/?view=computers&amp;type=notebook&amp;vendor=Dell&amp;p=-1'"><path d=" M 10.1814,181.2500 L 10.1814,161.2500 L 129.3414,161.2500 L 129.3414,181.2500 L 10.1814,181.2500 z " style="fill: #ffffff; fill-opacity: 0.00; stroke: none;" id="ezcGraphPolygon_42"/><text id="ezcGraphTextBox_23_text" x="10.6814" text-length="117.6600px" y="177.4750" style="font-size: 18px; font-family: 'Arial'; fill: #2e3436; fill-opacity: 1.00; stroke: none;">Dell (12.5%)</text></g><g id="ezcGraphTextBox_27" style=" cursor: pointer;" onclick="top.location = 'https://linux-hardware.org/?view=computers&amp;type=notebook&amp;vendor=Acer&amp;p=-1'"><path d=" M 0.7560,279.2500 L 0.7560,259.2500 L 119.9160,259.2500 L 119.9160,279.2500 L 0.7560,279.2500 z " style="fill: #ffffff; fill-opacity: 0.00; stroke: none;" id="ezcGraphPolygon_43"/><text id="ezcGraphTextBox_27_text" x="1.2560" text-length="117.6600px" y="275.4750" style="font-size: 18px; font-family: 'Arial'; fill: #2e3436; fill-opacity: 1.00; stroke: none;">Acer (13.4%)</text></g><g id="ezcGraphTextBox_31" style=" cursor: pointer;" onclick="top.location = 'https://linux-hardware.org/?view=computers&amp;type=notebook&amp;vendor=Lenovo&amp;p=-1'"><path d=" M 61.9677,360.2500 L 61.9677,340.2500 L 200.7377,340.2500 L 200.7377,360.2500 L 61.9677,360.2500 z " style="fill: #ffffff; fill-opacity: 0.00; stroke: none;" id="ezcGraphPolygon_44"/><text id="ezcGraphTextBox_31_text" x="62.4677" text-length="137.2700px" y="356.4750" style="font-size: 18px; font-family: 'Arial'; fill: #2e3436; fill-opacity: 1.00; stroke: none;">Lenovo (17.4%)</text></g><g id="ezcGraphTextBox_35"><path d=" M 342.7404,146.2500 L 342.7404,126.2500 L 481.5104,126.2500 L 481.5104,146.2500 L 342.7404,146.2500 z " style="fill: #ffffff; fill-opacity: 0.00; stroke: none;" id="ezcGraphPolygon_45"/><text id="ezcGraphTextBox_35_text" x="343.2404" text-length="137.2700px" y="142.4750" style="font-size: 18px; font-family: 'Arial'; fill: #2e3436; fill-opacity: 1.00; stroke: none;">Others (27.1%)</text></g><g id="ezcGraphTextBox_39" style=" cursor: pointer;" onclick="top.location = 'https://linux-hardware.org/?view=computers&amp;type=notebook&amp;vendor=Hewlett-Packard&amp;p=-1'"><path d=" M 354.9666,324.2500 L 354.9666,304.2500 L 454.5166,304.2500 L 454.5166,324.2500 L 354.9666,324.2500 z " style="fill: #ffffff; fill-opacity: 0.00; stroke: none;" id="ezcGraphPolygon_46"/><text id="ezcGraphTextBox_39_text" x="355.4666" text-length="98.0500px" y="320.4750" style="font-size: 18px; font-family: 'Arial'; fill: #2e3436; fill-opacity: 1.00; stroke: none;">HP (20.9%)</text></g></g></svg>
