<?xml version="1.0"?>
<svg xmlns="http://www.w3.org/2000/svg" width="500" height="420" version="1.0" id="ezcGraph"><defs/><g id="ezcGraphChart" color-rendering="optimizeQuality" shape-rendering="geometricPrecision" text-rendering="optimizeLegibility"><path d=" M 0.0000,420.0000 L 0.0000,0.0000 L 500.0000,0.0000 L 500.0000,420.0000 L 0.0000,420.0000 z " style="fill: #eeeeec; fill-opacity: 1.00; stroke: none;" id="ezcGraphPolygon_1"/><path d=" M 0.0000,42.0000 L 0.0000,0.0000 L 500.0000,0.0000 L 500.0000,42.0000 L 0.0000,42.0000 z " style="fill: #000000; fill-opacity: 0.00; stroke: none;" id="ezcGraphPolygon_2"/><path d="M 258.33,240.32 L 370.83,240.32 A 112.50,112.50 0 0,1 245.73,352.11 z" style="fill: #3465a4; fill-opacity: 1.00; stroke: none; cursor: pointer;" id="ezcGraphCircleSector_4" onclick="top.location = 'https://linux-hardware.org/?view=computers&amp;type=desktop&amp;f=net_wireless_vendor&amp;v=Realtek+Semiconductor&amp;p=-1&amp;c=Brazil'"/><path d="M 258.78,240.82 L 370.33,240.82 A 112.00,112.00 0 0,1 246.29,351.67 z" style="fill: none; stroke: #1a3352; stroke-width: 1; stroke-opacity: 1.00; stroke-linecap: round; stroke-linejoin: round;" id="ezcGraphCircleSector_5"/><path d="M 250.00,231.00 L 237.40,342.79 A 112.50,112.50 0 0,1 140.32,256.03 z" style="fill: #4e9a06; fill-opacity: 1.00; stroke: none; cursor: pointer;" id="ezcGraphCircleSector_6" onclick="top.location = 'https://linux-hardware.org/?view=computers&amp;type=desktop&amp;f=net_wireless_vendor&amp;v=Intel&amp;p=-1&amp;c=Brazil'"/><path d="M 249.42,231.64 L 236.96,342.24 A 112.00,112.00 0 0,1 140.92,256.41 z" style="fill: none; stroke: #274d03; stroke-width: 1; stroke-opacity: 1.00; stroke-linecap: round; stroke-linejoin: round;" id="ezcGraphCircleSector_7"/><path d="M 250.00,231.00 L 140.32,256.03 A 112.50,112.50 0 0,1 162.04,160.86 z" style="fill: #cc0000; fill-opacity: 1.00; stroke: none; cursor: pointer;" id="ezcGraphCircleSector_8" onclick="top.location = 'https://linux-hardware.org/?view=computers&amp;type=desktop&amp;f=net_wireless_vendor&amp;v=Ralink+Technology&amp;p=-1&amp;c=Brazil'"/><path d="M 248.88,230.74 L 140.70,255.43 A 112.00,112.00 0 0,1 162.12,161.56 z" style="fill: none; stroke: #660000; stroke-width: 1; stroke-opacity: 1.00; stroke-linecap: round; stroke-linejoin: round;" id="ezcGraphCircleSector_9"/><path d="M 250.00,231.00 L 162.04,160.86 A 112.50,112.50 0 0,1 212.84,124.81 z" style="fill: #edd400; fill-opacity: 1.00; stroke: none; cursor: pointer;" id="ezcGraphCircleSector_10" onclick="top.location = 'https://linux-hardware.org/?view=computers&amp;type=desktop&amp;f=net_wireless_vendor&amp;v=Ralink&amp;p=-1&amp;c=Brazil'"/><path d="M 248.95,229.53 L 162.75,160.78 A 112.00,112.00 0 0,1 212.54,125.45 z" style="fill: none; stroke: #776a00; stroke-width: 1; stroke-opacity: 1.00; stroke-linecap: round; stroke-linejoin: round;" id="ezcGraphCircleSector_11"/><path d="M 250.00,231.00 L 212.84,124.81 A 112.50,112.50 0 0,1 262.60,119.21 z" style="fill: #75505b; fill-opacity: 1.00; stroke: none; cursor: pointer;" id="ezcGraphCircleSector_12" onclick="top.location = 'https://linux-hardware.org/?view=computers&amp;type=desktop&amp;f=net_wireless_vendor&amp;v=TP-Link&amp;p=-1&amp;c=Brazil'"/><path d="M 249.75,228.77 L 213.48,125.12 A 112.00,112.00 0 0,1 262.04,119.65 z" style="fill: none; stroke: #3b282e; stroke-width: 1; stroke-opacity: 1.00; stroke-linecap: round; stroke-linejoin: round;" id="ezcGraphCircleSector_13"/><path d="M 250.00,231.00 L 262.60,119.21 A 112.50,112.50 0 0,1 362.50,231.00 z" style="fill: #f57900; fill-opacity: 1.00; stroke: none;" id="ezcGraphCircleSector_14"/><path d="M 250.56,230.50 L 263.04,119.76 A 112.00,112.00 0 0,1 362.00,230.50 z" style="fill: none; stroke: #7b3d00; stroke-width: 1; stroke-opacity: 1.00; stroke-linecap: round; stroke-linejoin: round;" id="ezcGraphCircleSector_15"/><path d=" M 240.6696,148.1906 L 244.0000,106.0000" style="fill: none; stroke: #000000; stroke-width: 1; stroke-opacity: 1.00; stroke-linecap: round; stroke-linejoin: round;" id="ezcGraphLine_16"/><ellipse cx="240.6696" cy="148.1906" rx="3.0000" ry="3.0000" style="fill: #000000; fill-opacity: 1.00; stroke: none;" id="ezcGraphCircle_17"/><ellipse cx="244.0000" cy="106.0000" rx="3.0000" ry="3.0000" style="fill: #000000; fill-opacity: 1.00; stroke: none;" id="ezcGraphCircle_18"/><path d=" M 201.7774,163.0366 L 154.7321,143.5000" style="fill: none; stroke: #000000; stroke-width: 1; stroke-opacity: 1.00; stroke-linecap: round; stroke-linejoin: round;" id="ezcGraphLine_20"/><ellipse cx="201.7774" cy="163.0366" rx="3.0000" ry="3.0000" style="fill: #000000; fill-opacity: 1.00; stroke: none;" id="ezcGraphCircle_21"/><ellipse cx="154.7321" cy="143.5000" rx="3.0000" ry="3.0000" style="fill: #000000; fill-opacity: 1.00; stroke: none;" id="ezcGraphCircle_22"/><path d=" M 168.7560,212.4566 L 122.1764,203.0000" style="fill: none; stroke: #000000; stroke-width: 1; stroke-opacity: 1.00; stroke-linecap: round; stroke-linejoin: round;" id="ezcGraphLine_24"/><ellipse cx="168.7560" cy="212.4566" rx="3.0000" ry="3.0000" style="fill: #000000; fill-opacity: 1.00; stroke: none;" id="ezcGraphCircle_25"/><ellipse cx="122.1764" cy="203.0000" rx="3.0000" ry="3.0000" style="fill: #000000; fill-opacity: 1.00; stroke: none;" id="ezcGraphCircle_26"/><path d=" M 194.4711,293.1368 L 160.4775,324.0000" style="fill: none; stroke: #000000; stroke-width: 1; stroke-opacity: 1.00; stroke-linecap: round; stroke-linejoin: round;" id="ezcGraphLine_28"/><ellipse cx="194.4711" cy="293.1368" rx="3.0000" ry="3.0000" style="fill: #000000; fill-opacity: 1.00; stroke: none;" id="ezcGraphCircle_29"/><ellipse cx="160.4775" cy="324.0000" rx="3.0000" ry="3.0000" style="fill: #000000; fill-opacity: 1.00; stroke: none;" id="ezcGraphCircle_30"/><path d=" M 312.1368,175.4711 L 348.5689,147.0000" style="fill: none; stroke: #000000; stroke-width: 1; stroke-opacity: 1.00; stroke-linecap: round; stroke-linejoin: round;" id="ezcGraphLine_32"/><ellipse cx="312.1368" cy="175.4711" rx="3.0000" ry="3.0000" style="fill: #000000; fill-opacity: 1.00; stroke: none;" id="ezcGraphCircle_33"/><ellipse cx="348.5689" cy="147.0000" rx="3.0000" ry="3.0000" style="fill: #000000; fill-opacity: 1.00; stroke: none;" id="ezcGraphCircle_34"/><path d=" M 313.8582,302.4574 L 328.2565,333.0000" style="fill: none; stroke: #000000; stroke-width: 1; stroke-opacity: 1.00; stroke-linecap: round; stroke-linejoin: round;" id="ezcGraphLine_36"/><ellipse cx="313.8582" cy="302.4574" rx="3.0000" ry="3.0000" style="fill: #000000; fill-opacity: 1.00; stroke: none;" id="ezcGraphCircle_37"/><ellipse cx="328.2565" cy="333.0000" rx="3.0000" ry="3.0000" style="fill: #000000; fill-opacity: 1.00; stroke: none;" id="ezcGraphCircle_38"/><g id="ezcGraphTextBox_3"><path d=" M 90.5000,42.0000 L 90.5000,0.5000 L 410.0000,0.5000 L 410.0000,42.0000 L 90.5000,42.0000 z " style="fill: #ffffff; fill-opacity: 0.00; stroke: none;" id="ezcGraphPolygon_40"/><text id="ezcGraphTextBox_3_text" x="91.0000" text-length="318.0000px" y="35.0000" style="font-size: 40px; font-family: 'Arial'; fill: #2e3436; fill-opacity: 1.00; stroke: none;">Wireless Vendor</text></g><g id="ezcGraphTextBox_19" style=" cursor: pointer;" onclick="top.location = 'https://linux-hardware.org/?view=computers&amp;type=desktop&amp;f=net_wireless_vendor&amp;v=TP-Link&amp;p=-1&amp;c=Brazil'"><path d=" M 141.0400,113.5000 L 141.0400,99.0000 L 239.0000,99.0000 L 239.0000,113.5000 L 141.0400,113.5000 z " style="fill: #ffffff; fill-opacity: 0.00; stroke: none;" id="ezcGraphPolygon_41"/><text id="ezcGraphTextBox_19_text" x="141.5400" text-length="96.4600px" y="110.5500" style="font-size: 13px; font-family: 'Arial'; fill: #2e3436; fill-opacity: 1.00; stroke: none;">TP-Link (7.1%)</text></g><g id="ezcGraphTextBox_23" style=" cursor: pointer;" onclick="top.location = 'https://linux-hardware.org/?view=computers&amp;type=desktop&amp;f=net_wireless_vendor&amp;v=Ralink&amp;p=-1&amp;c=Brazil'"><path d=" M 58.6621,151.0000 L 58.6621,136.5000 L 149.7321,136.5000 L 149.7321,151.0000 L 58.6621,151.0000 z " style="fill: #ffffff; fill-opacity: 0.00; stroke: none;" id="ezcGraphPolygon_42"/><text id="ezcGraphTextBox_23_text" x="59.1621" text-length="89.5700px" y="148.0500" style="font-size: 13px; font-family: 'Arial'; fill: #2e3436; fill-opacity: 1.00; stroke: none;">Ralink (8.9%)</text></g><g id="ezcGraphTextBox_27" style=" cursor: pointer;" onclick="top.location = 'https://linux-hardware.org/?view=computers&amp;type=desktop&amp;f=net_wireless_vendor&amp;v=Ralink+Technology&amp;p=-1&amp;c=Brazil'"><path d=" M 5.4364,217.0500 L 5.4364,189.4500 L 117.1764,189.4500 L 117.1764,217.0500 L 5.4364,217.0500 z " style="fill: #ffffff; fill-opacity: 0.00; stroke: none;" id="ezcGraphPolygon_43"/><text id="ezcGraphTextBox_27_text" x="5.9364" text-length="110.2400px" y="201.0000" style="font-size: 13px; font-family: 'Arial'; fill: #2e3436; fill-opacity: 1.00; stroke: none;">Ralink Techno...</text><text id="ezcGraphTextBox_27_text" x="67.9464" text-length="48.2300px" y="215.3000" style="font-size: 13px; font-family: 'Arial'; fill: #2e3436; fill-opacity: 1.00; stroke: none;">(14.3%)</text></g><g id="ezcGraphTextBox_31" style=" cursor: pointer;" onclick="top.location = 'https://linux-hardware.org/?view=computers&amp;type=desktop&amp;f=net_wireless_vendor&amp;v=Intel&amp;p=-1&amp;c=Brazil'"><path d=" M 64.4075,331.5000 L 64.4075,317.0000 L 155.4775,317.0000 L 155.4775,331.5000 L 64.4075,331.5000 z " style="fill: #ffffff; fill-opacity: 0.00; stroke: none;" id="ezcGraphPolygon_44"/><text id="ezcGraphTextBox_31_text" x="64.9075" text-length="89.5700px" y="328.5500" style="font-size: 13px; font-family: 'Arial'; fill: #2e3436; fill-opacity: 1.00; stroke: none;">Intel (19.6%)</text></g><g id="ezcGraphTextBox_35"><path d=" M 354.0689,154.5000 L 354.0689,140.0000 L 452.0289,140.0000 L 452.0289,154.5000 L 354.0689,154.5000 z " style="fill: #ffffff; fill-opacity: 0.00; stroke: none;" id="ezcGraphPolygon_45"/><text id="ezcGraphTextBox_35_text" x="354.5689" text-length="96.4600px" y="151.5500" style="font-size: 13px; font-family: 'Arial'; fill: #2e3436; fill-opacity: 1.00; stroke: none;">Others (23.2%)</text></g><g id="ezcGraphTextBox_39" style=" cursor: pointer;" onclick="top.location = 'https://linux-hardware.org/?view=computers&amp;type=desktop&amp;f=net_wireless_vendor&amp;v=Realtek+Semiconductor&amp;p=-1&amp;c=Brazil'"><path d=" M 333.7565,347.0500 L 333.7565,319.4500 L 445.4965,319.4500 L 445.4965,347.0500 L 333.7565,347.0500 z " style="fill: #ffffff; fill-opacity: 0.00; stroke: none;" id="ezcGraphPolygon_46"/><text id="ezcGraphTextBox_39_text" x="334.2565" text-length="110.2400px" y="331.0000" style="font-size: 13px; font-family: 'Arial'; fill: #2e3436; fill-opacity: 1.00; stroke: none;">Realtek Semic...</text><text id="ezcGraphTextBox_39_text" x="334.2565" text-length="48.2300px" y="345.3000" style="font-size: 13px; font-family: 'Arial'; fill: #2e3436; fill-opacity: 1.00; stroke: none;">(26.8%)</text></g></g></svg>
